<svg width="24" height="24" viewBox="0 0 24 24" fill="none" xmlns="http://www.w3.org/2000/svg">
<path fill-rule="evenodd" clip-rule="evenodd" d="M12 4C7.58172 4 4 7.58172 4 12C4 16.4183 7.58172 20 12 20C13.5465 20 14.9876 19.5622 16.2098 18.8042C16.6791 18.5131 17.2956 18.6577 17.5867 19.127C17.8778 19.5964 17.7332 20.2128 17.2639 20.5039C15.7343 21.4525 13.9296 22 12 22C6.47715 22 2 17.5228 2 12C2 6.47715 6.47715 2 12 2C17.5228 2 22 6.47715 22 12C22 13.1044 21.7294 14.3102 21.051 15.2429C20.3349 16.2275 19.202 16.8431 17.7196 16.7084C16.5162 16.599 15.4815 15.9967 14.7903 15.1228C13.8495 16.3323 12.4017 17.0622 10.805 16.8378C8.27559 16.4823 6.76534 13.9275 7.12331 11.3804C7.48128 8.83335 9.63723 6.79377 12.1667 7.14926C13.0724 7.27655 13.8474 7.68582 14.4528 8.27575C14.5679 7.77307 15.0518 7.43496 15.5711 7.51038C16.1177 7.58977 16.4964 8.09718 16.417 8.64373L15.902 12.1893C15.902 12.1897 15.9019 12.1901 15.9019 12.1905C15.7227 13.4492 16.6343 14.6015 17.9006 14.7166C18.6508 14.7848 19.1129 14.5073 19.4336 14.0665C19.792 13.5737 20 12.8218 20 12C20 7.58172 16.4183 4 12 4ZM11.8883 9.12979C10.6929 8.96178 9.34417 9.94883 9.10385 11.6588C8.86353 13.3687 9.8879 14.6893 11.0834 14.8573C12.2788 15.0253 13.6275 14.0383 13.8678 12.3283C14.1082 10.6184 13.0838 9.29781 11.8883 9.12979Z" fill="black"/>
</svg>
