<svg width="24" height="24" viewBox="0 0 24 24" fill="none" xmlns="http://www.w3.org/2000/svg">
<path fill-rule="evenodd" clip-rule="evenodd" d="M9 14.0001C9 13.4479 9.44772 13.0001 10 13.0001H14C14.5523 13.0001 15 13.4479 15 14.0001C15 14.5524 14.5523 15.0001 14 15.0001H10C9.44772 15.0001 9 14.5524 9 14.0001Z" fill="black"/>
<path d="M11.8501 3.07467C11.9468 3.02628 12.0253 2.94782 12.0737 2.85106L12.5519 1.89456C12.7362 1.52603 13.2621 1.52603 13.4464 1.89456L13.9246 2.85106C13.973 2.94782 14.0515 3.02628 14.1482 3.07467L15.1047 3.55292C15.4733 3.73718 15.4733 4.26308 15.1047 4.44734L14.1482 4.92559C14.0515 4.97398 13.973 5.05244 13.9246 5.1492L13.4464 6.1057C13.2621 6.47423 12.7362 6.47423 12.5519 6.1057L12.0737 5.1492C12.0253 5.05244 11.9468 4.97398 11.8501 4.92559L10.8936 4.44734C10.5251 4.26308 10.5251 3.73718 10.8936 3.55292L11.8501 3.07467Z" fill="black"/>
<path d="M6.51675 4.74133C6.61351 4.69295 6.69197 4.61449 6.74036 4.51773L7.05194 3.89456C7.2362 3.52603 7.7621 3.52603 7.94637 3.89456L8.25795 4.51773C8.30633 4.61449 8.38479 4.69295 8.48156 4.74133L9.10472 5.05292C9.47325 5.23718 9.47325 5.76308 9.10473 5.94734L8.48156 6.25893C8.38479 6.30731 8.30633 6.38577 8.25795 6.48253L7.94637 7.1057C7.7621 7.47423 7.2362 7.47423 7.05194 7.1057L6.74036 6.48253C6.69197 6.38577 6.61351 6.30731 6.51675 6.25893L5.89358 5.94734C5.52506 5.76308 5.52506 5.23718 5.89358 5.05292L6.51675 4.74133Z" fill="black"/>
<path fill-rule="evenodd" clip-rule="evenodd" d="M19.5241 4.14848C19.9945 4.43793 20.1411 5.05388 19.8517 5.52423L17.7126 9.00014H19C19.5523 9.00014 20 9.44785 20 10.0001V20.0001C20 21.1047 19.1046 22.0001 18 22.0001H6C4.89543 22.0001 4 21.1047 4 20.0001V10.0001C4 9.44785 4.44772 9.00014 5 9.00014H15.3643L18.1483 4.47604C18.4378 4.00568 19.0537 3.85903 19.5241 4.14848ZM6 11.0001V20.0001H18V11.0001H6Z" fill="black"/>
</svg>
