<svg width="24" height="24" viewBox="0 0 24 24" fill="none" xmlns="http://www.w3.org/2000/svg">
<path fill-rule="evenodd" clip-rule="evenodd" d="M2 4C2 2.89543 2.89543 2 4 2H11.5858C12.1162 2 12.6249 2.21071 13 2.58579L21.5 11.0858C22.281 11.8668 22.281 13.1332 21.5 13.9142L13.9142 21.5C13.1332 22.281 11.8668 22.281 11.0858 21.5L2.58579 13C2.21071 12.6249 2 12.1162 2 11.5858V4ZM7.5 9C8.32843 9 9 8.32843 9 7.5C9 6.67157 8.32843 6 7.5 6C6.67157 6 6 6.67157 6 7.5C6 8.32843 6.67157 9 7.5 9Z" fill="black"/>
</svg>
