<svg width="24" height="24" viewBox="0 0 24 24" fill="none" xmlns="http://www.w3.org/2000/svg">
<path d="M10.2969 4.4453L11.1289 3.8906L10.2969 4.4453ZM11.7031 6.5547L12.5352 6L12.5352 6L11.7031 6.5547ZM2 10C2 10.5523 2.44772 11 3 11C3.55228 11 4 10.5523 4 10H2ZM7 14H8C8 13.4477 7.55228 13 7 13V14ZM2 14V13C1.44772 13 1 13.4477 1 14H2ZM2 20H1C1 20.3603 1.19379 20.6927 1.5073 20.8702C1.82081 21.0477 2.20557 21.0429 2.5145 20.8575L2 20ZM4.5 18.5L5.0145 17.6425C4.69781 17.4525 4.30219 17.4525 3.9855 17.6425L4.5 18.5ZM7 20L6.4855 20.8575C6.79443 21.0429 7.17919 21.0477 7.4927 20.8702C7.80621 20.6927 8 20.3603 8 20H7ZM4 5H9.46482V3H4V5ZM9.46482 5L10.8711 7.1094L12.5352 6L11.1289 3.8906L9.46482 5ZM12.5352 8H20V6H12.5352V8ZM20 8V18H22V8H20ZM4 10V5H2V10H4ZM11 20H20V18H11V20ZM20 18V20C21.1046 20 22 19.1046 22 18H20ZM20 8H22C22 6.89543 21.1046 6 20 6V8ZM10.8711 7.1094C11.242 7.6658 11.8665 8 12.5352 8V6L12.5352 6L10.8711 7.1094ZM9.46482 5L9.46482 5L11.1289 3.8906C10.758 3.3342 10.1335 3 9.46482 3V5ZM4 3C2.89543 3 2 3.89543 2 5H4V5V3ZM7 13H2V15H7V13ZM1 14V20H3V14H1ZM2.5145 20.8575L5.0145 19.3575L3.9855 17.6425L1.4855 19.1425L2.5145 20.8575ZM3.9855 19.3575L6.4855 20.8575L7.5145 19.1425L5.0145 17.6425L3.9855 19.3575ZM8 20V14H6V20H8Z" fill="black"/>
</svg>
