<svg width="24" height="24" viewBox="0 0 24 24" fill="none" xmlns="http://www.w3.org/2000/svg">
<path d="M13.25 14.5C13.6642 14.5 14 14.1642 14 13.75C14 13.3358 13.6642 13 13.25 13H11V14.5H13.25Z" fill="black"/>
<path d="M11 9.5H13.25C13.6642 9.5 14 9.83579 14 10.25C14 10.6642 13.6642 11 13.25 11H11V9.5Z" fill="black"/>
<path fill-rule="evenodd" clip-rule="evenodd" d="M2 12C2 6.47715 6.47715 2 12 2C17.5228 2 22 6.47715 22 12C22 17.5228 17.5228 22 12 22C6.47715 22 2 17.5228 2 12ZM8.5 7.5C7.94772 7.5 7.5 7.94772 7.5 8.5C7.5 9.05228 7.94772 9.5 8.5 9.5H9V14.5H8.5C7.94772 14.5 7.5 14.9477 7.5 15.5C7.5 16.0523 7.94772 16.5 8.5 16.5H11V17C11 17.5523 11.4477 18 12 18C12.5523 18 13 17.5523 13 17V16.5H13.25C14.7688 16.5 16 15.2688 16 13.75C16 13.0852 15.7641 12.4755 15.3714 12C15.7641 11.5245 16 10.9148 16 10.25C16 8.73122 14.7688 7.5 13.25 7.5H13V7C13 6.44772 12.5523 6 12 6C11.4477 6 11 6.44772 11 7V7.5H8.5Z" fill="black"/>
</svg>
