<svg width="24" height="24" viewBox="0 0 24 24" fill="none" xmlns="http://www.w3.org/2000/svg">
<path d="M4 3C2.89543 3 2 3.89543 2 5V7.03789C2.33004 7.01278 2.66353 7 3 7C10.1797 7 16 12.8203 16 20C16 20.3365 15.9872 20.67 15.9621 21H20C21.1046 21 22 20.1046 22 19V5C22 3.89543 21.1046 3 20 3H4Z" fill="black"/>
<path d="M3 13C2.44772 13 2 13.4477 2 14C2 14.5523 2.44772 15 3 15C5.76142 15 8 17.2386 8 20C8 20.5523 8.44772 21 9 21C9.55228 21 10 20.5523 10 20C10 16.134 6.86599 13 3 13Z" fill="black"/>
<path d="M2 10C2 9.44772 2.44772 9 3 9C9.07513 9 14 13.9249 14 20C14 20.5523 13.5523 21 13 21C12.4477 21 12 20.5523 12 20C12 15.0294 7.97056 11 3 11C2.44772 11 2 10.5523 2 10Z" fill="black"/>
<path d="M3 17C2.44772 17 2 17.4477 2 18C2 18.5523 2.44772 19 3 19C3.55228 19 4 19.4477 4 20C4 20.5523 4.44772 21 5 21C5.55228 21 6 20.5523 6 20C6 18.3431 4.65685 17 3 17Z" fill="black"/>
</svg>
