<svg width="24" height="24" viewBox="0 0 24 24" fill="none" xmlns="http://www.w3.org/2000/svg">
<path d="M22 5C22 4.44772 21.5523 4 21 4C20.4477 4 20 4.44772 20 5V19C20 19.5523 20.4477 20 21 20C21.5523 20 22 19.5523 22 19V5Z" fill="black"/>
<path d="M15 8C15.5523 8 16 8.44772 16 9V19C16 19.5523 15.5523 20 15 20C14.4477 20 14 19.5523 14 19V9C14 8.44772 14.4477 8 15 8Z" fill="black"/>
<path d="M10 13C10 12.4477 9.55228 12 9 12C8.44772 12 8 12.4477 8 13L8 19C8 19.5523 8.44772 20 9 20C9.55229 20 10 19.5523 10 19V13Z" fill="black"/>
<path d="M4 17C4 16.4477 3.55228 16 3 16C2.44772 16 2 16.4477 2 17V19C2 19.5523 2.44772 20 3 20C3.55228 20 4 19.5523 4 19V17Z" fill="black"/>
</svg>
