<svg width="24" height="24" viewBox="0 0 24 24" fill="none" xmlns="http://www.w3.org/2000/svg">
<path d="M20 5H4C3.44772 5 3 5.44772 3 6V18C3 18.5523 3.44772 19 4 19H20C20.5523 19 21 18.5523 21 18V6C21 5.44772 20.5523 5 20 5Z" stroke="black" stroke-width="2" stroke-linecap="square" stroke-linejoin="round"/>
<path fill-rule="evenodd" clip-rule="evenodd" d="M6.59034 9.08778C6.94958 8.92646 7.37004 8.99099 7.66436 9.25261L9.25 10.6621L10.8356 9.25261C11.13 8.99099 11.5504 8.92646 11.9097 9.08778C12.2689 9.2491 12.5 9.60623 12.5 10V14C12.5 14.5523 12.0523 15 11.5 15C10.9477 15 10.5 14.5523 10.5 14V12.2269L9.91436 12.7474C9.53548 13.0842 8.96452 13.0842 8.58564 12.7474L8 12.2269V14C8 14.5523 7.55228 15 7 15C6.44772 15 6 14.5523 6 14V10C6 9.60623 6.23111 9.2491 6.59034 9.08778Z" fill="black"/>
<path d="M17 10C17 9.44773 16.5523 9.00002 16 9.00002C15.4477 9.00002 15 9.44773 15 10V12H14.3882C13.7094 12 13.3798 12.83 13.8737 13.2957L15.485 14.8149C15.7739 15.0873 16.2251 15.0873 16.514 14.8149L18.1253 13.2957C18.6192 12.83 18.2896 12 17.6108 12H17V10Z" fill="black"/>
</svg>
