<svg width="16" height="16" viewBox="0 0 16 16" fill="none" xmlns="http://www.w3.org/2000/svg">
<path d="M12.8493 6.75321C13.0549 5.38246 12.0067 4.64467 10.5795 4.14878L11.0431 2.2902L9.91021 2.00798L9.45866 3.81819C9.16032 3.74562 8.85392 3.67305 8.55155 3.60451L9.00712 1.78221L7.87424 1.5L7.4106 3.35858C7.16467 3.30214 6.92277 3.24973 6.68491 3.18925L6.68891 3.18522L5.12467 2.79415L4.82633 4.00364C4.82633 4.00364 5.6649 4.19716 5.64878 4.20925C6.10435 4.32214 6.18902 4.62451 6.17289 4.86641L5.64475 6.98704C5.677 6.99511 5.71731 7.0072 5.76569 7.02332L5.64475 6.99511L4.90293 9.96239C4.84648 10.1035 4.70538 10.3131 4.38688 10.2325C4.39494 10.2486 3.5604 10.0269 3.5604 10.0269L3 11.321L4.47557 11.692C4.74973 11.7605 5.01581 11.829 5.2819 11.8976L4.8102 13.7803L5.94309 14.0625L6.40672 12.1999C6.71716 12.2846 7.0155 12.3612 7.30981 12.4338L6.84617 14.2883L7.97906 14.5705L8.44673 12.6918C10.3779 13.0587 11.8333 12.9095 12.4421 11.1638C12.9339 9.75677 12.4179 8.94642 11.4019 8.41827C12.1437 8.24491 12.7001 7.76112 12.8493 6.75321ZM10.261 10.3817C9.91021 11.7887 7.54364 11.0308 6.7736 10.8372L7.3985 8.3457C8.16451 8.53519 10.6238 8.91416 10.261 10.3817ZM10.6117 6.73305C10.2932 8.01511 8.32175 7.36198 7.68072 7.20475L8.24514 4.94301C8.88617 5.10427 10.9423 5.39858 10.6117 6.73305Z" fill="#F59119"/>
</svg>
