<svg width="24" height="24" viewBox="0 0 24 24" fill="none" xmlns="http://www.w3.org/2000/svg">
<path d="M16.5 15.5L8.49996 7.49996M14.1251 17.875L20.7929 11.2071C21.1834 10.8165 21.1834 10.1834 20.7929 9.79286L19.5 8.49995H17.5L17.5 6.49995L14.2071 3.20708C13.8165 2.81655 13.1834 2.81655 12.7929 3.20709L6.12499 9.87526C5.7799 10.2204 5.78005 10.7799 6.12533 11.1249C7.16117 12.1596 7.16163 13.8383 6.12635 14.8737L3.20742 17.7928C2.81687 18.1834 2.81694 18.8166 3.20757 19.2071L4.79365 20.7926C5.1842 21.183 5.81729 21.183 6.20776 20.7925L9.12613 17.8739C10.1615 16.8385 11.8404 16.8388 12.8753 17.8747C13.2203 18.22 13.7799 18.2202 14.1251 17.875Z" stroke="black" stroke-width="2" stroke-linecap="round" stroke-linejoin="round"/>
</svg>
