<svg width="24" height="24" viewBox="0 0 24 24" fill="none" xmlns="http://www.w3.org/2000/svg">
<path fill-rule="evenodd" clip-rule="evenodd" d="M4.86178 3.01695C5.06993 2.99994 5.31573 2.99997 5.56811 3H18.4319C18.6843 2.99997 18.9301 2.99994 19.1382 3.01695C19.3668 3.03563 19.6366 3.07969 19.908 3.21799C20.2843 3.40974 20.5903 3.7157 20.782 4.09202C20.9203 4.36345 20.9644 4.63318 20.9831 4.86178C21.0001 5.06987 21 5.31569 21 5.56799V18.432C21 18.6843 21.0001 18.9301 20.9831 19.1382C20.9644 19.3668 20.9203 19.6366 20.782 19.908C20.5903 20.2843 20.2843 20.5903 19.908 20.782C19.6366 20.9203 19.3668 20.9644 19.1382 20.9831C18.9301 21.0001 18.6843 21 18.432 21H5.56797C5.31567 21 5.06987 21.0001 4.86178 20.9831C4.63318 20.9644 4.36345 20.9203 4.09202 20.782C3.7157 20.5903 3.40974 20.2843 3.21799 19.908C3.07969 19.6366 3.03563 19.3668 3.01695 19.1382C2.99994 18.9301 2.99997 18.6843 3 18.4319V5.56809C2.99997 5.31572 2.99994 5.06993 3.01695 4.86178C3.03563 4.63318 3.07969 4.36345 3.21799 4.09202C3.40974 3.7157 3.7157 3.40974 4.09202 3.21799C4.36345 3.07969 4.63318 3.03563 4.86178 3.01695ZM12 7C10.443 7 8.88269 7.40138 7.49699 8.20786C7.01966 8.48567 6.85791 9.09782 7.13572 9.57515C7.41353 10.0525 8.02568 10.2142 8.50301 9.93642C9.57353 9.31338 10.7851 9 12 9C13.2149 9 14.4265 9.31338 15.497 9.93642C15.9743 10.2142 16.5865 10.0525 16.8643 9.57515C17.1421 9.09782 16.9803 8.48567 16.503 8.20786C15.1173 7.40138 13.557 7 12 7ZM12 12.75C11.4598 12.75 10.9218 12.8681 10.4302 13.102C9.93143 13.3392 9.3348 13.1273 9.09753 12.6285C8.86027 12.1298 9.07222 11.5332 9.57094 11.2959C10.3375 10.9312 11.1698 10.75 12 10.75C12.8302 10.75 13.6627 10.9312 14.4295 11.2959C14.9282 11.5331 15.1403 12.1297 14.9031 12.6284C14.6659 13.1272 14.0693 13.3392 13.5705 13.102C13.0785 12.8681 12.5403 12.75 12 12.75ZM12.0005 17C11.3101 17 10.7505 16.4404 10.7505 15.75C10.7505 15.0596 11.3101 14.5 12.0005 14.5C12.6908 14.5 13.2505 15.0596 13.2505 15.75C13.2505 16.4404 12.6908 17 12.0005 17Z" fill="black"/>
</svg>
