<svg width="24" height="24" viewBox="0 0 24 24" fill="none" xmlns="http://www.w3.org/2000/svg">
<path d="M8 20H5C4.44772 20 4 19.5523 4 19V16M16 20H19C19.5523 20 20 19.5523 20 19V16M4 8V5C4 4.44771 4.44772 4 5 4H8M16 4H19C19.5523 4 20 4.44771 20 5V8M15 10.2857L12 12M12 12L9 10.2857M12 12V15.4999M11.7519 8.14175L8.75193 9.85604C8.59614 9.94506 8.5 10.1107 8.5 10.2902V13.7098C8.5 13.8893 8.59614 14.0549 8.75193 14.144L11.7519 15.8582C11.9056 15.9461 12.0944 15.9461 12.2481 15.8582L15.2481 14.144C15.4039 14.0549 15.5 13.8893 15.5 13.7098V10.2902C15.5 10.1107 15.4039 9.94506 15.2481 9.85604L12.2481 8.14175C12.0944 8.05392 11.9056 8.05392 11.7519 8.14175Z" stroke="black" stroke-width="2" stroke-linecap="round" stroke-linejoin="round"/>
</svg>
