<svg width="24" height="24" viewBox="0 0 24 24" fill="none" xmlns="http://www.w3.org/2000/svg">
<path fill-rule="evenodd" clip-rule="evenodd" d="M19 3L5.00004 3.00001C3.89548 3.00001 3.00005 3.89543 3.00004 5L3 19C3 20.1046 3.89543 21 5 21H19C20.1046 21 21 20.1046 21 19V5C21 3.89543 20.1046 3 19 3ZM5.00004 5.00001L19 5V12H15.874C15.4177 12 15.0193 12.3089 14.9055 12.7507C14.5725 14.0449 13.3965 15 12 15C10.6035 15 9.42754 14.0449 9.09445 12.7507C8.98072 12.3089 8.5823 12 8.12602 12H5.00002L5.00004 5.00001Z" fill="black"/>
</svg>
