<svg width="24" height="24" viewBox="0 0 24 24" fill="none" xmlns="http://www.w3.org/2000/svg">
<path d="M6.25192 7.83205L6.80662 8.6641L6.80662 8.6641L6.25192 7.83205ZM12 4H13C13 3.6312 12.797 3.29234 12.4719 3.11833C12.1467 2.94431 11.7522 2.96338 11.4453 3.16795L12 4ZM12 20L11.4453 20.8321C11.7522 21.0366 12.1467 21.0557 12.4719 20.8817C12.797 20.7077 13 20.3688 13 20H12ZM6.25192 16.1679L6.80662 15.3359L6.80662 15.3359L6.25192 16.1679ZM16.3304 9.49926C16.0539 9.0212 15.4422 8.85785 14.9641 9.1344C14.486 9.41095 14.3227 10.0227 14.5992 10.5007L16.3304 9.49926ZM14.5992 13.4994C14.3227 13.9774 14.486 14.5892 14.9641 14.8657C15.4422 15.1423 16.0539 14.9789 16.3304 14.5009L14.5992 13.4994ZM3 9H5.69722V7H3V9ZM6.80662 8.6641L12.5547 4.83205L11.4453 3.16795L5.69722 7L6.80662 8.6641ZM11 4V20H13V4H11ZM12.5547 19.1679L6.80662 15.3359L5.69722 17L11.4453 20.8321L12.5547 19.1679ZM5.69722 15H3V17H5.69722V15ZM3 15V9H1V15H3ZM6.80662 15.3359C6.47809 15.1169 6.09208 15 5.69722 15V17L5.69723 17L6.80662 15.3359ZM5.69722 9C6.09207 9 6.47809 8.88312 6.80662 8.6641L5.69722 7L5.69722 7V9ZM3 15H1C1 16.1046 1.89543 17 3 17V15ZM3 7C1.89543 7 1 7.89543 1 9H3V7ZM14.5992 10.5007C14.8539 10.941 15 11.4519 15 12.0001H17C17 11.091 16.7565 10.2357 16.3304 9.49926L14.5992 10.5007ZM15 12.0001C15 12.5482 14.8539 13.0591 14.5992 13.4994L16.3304 14.5009C16.7565 13.7644 17 12.9091 17 12.0001H15Z" fill="black"/>
</svg>
