<svg width="24" height="24" viewBox="0 0 24 24" fill="none" xmlns="http://www.w3.org/2000/svg">
<path d="M8 4V7C8 7.55228 8.44772 8 9 8H15C15.5523 8 16 7.55228 16 7V4M20 7.41421V19C20 19.5523 19.5523 20 19 20H5C4.44772 20 4 19.5523 4 19V5C4 4.44772 4.44772 4 5 4H16.5858C16.851 4 17.1054 4.10536 17.2929 4.29289L19.7071 6.70711C19.8946 6.89464 20 7.149 20 7.41421ZM8 14V19C8 19.5523 8.44772 20 9 20H15C15.5523 20 16 19.5523 16 19V14C16 13.4477 15.5523 13 15 13H9C8.44772 13 8 13.4477 8 14Z" stroke="black" stroke-width="2" stroke-linecap="round" stroke-linejoin="round"/>
</svg>
