<svg width="24" height="24" viewBox="0 0 24 24" fill="none" xmlns="http://www.w3.org/2000/svg">
<path fill-rule="evenodd" clip-rule="evenodd" d="M2 5C2 4.44772 2.44772 4 3 4H13C13.5523 4 14 4.44772 14 5C14 5.55228 13.5523 6 13 6H3C2.44772 6 2 5.55228 2 5ZM17 5C17 4.44772 17.4477 4 18 4H21C21.5523 4 22 4.44772 22 5C22 5.55228 21.5523 6 21 6H18C17.4477 6 17 5.55228 17 5ZM2 12C2 11.4477 2.44772 11 3 11H8C8.55228 11 9 11.4477 9 12C9 12.5523 8.55228 13 8 13H3C2.44772 13 2 12.5523 2 12ZM12 12C12 11.4477 12.4477 11 13 11H21C21.5523 11 22 11.4477 22 12C22 12.5523 21.5523 13 21 13H13C12.4477 13 12 12.5523 12 12ZM2 19C2 18.4477 2.44772 18 3 18H10C10.5523 18 11 18.4477 11 19C11 19.5523 10.5523 20 10 20H3C2.44772 20 2 19.5523 2 19ZM14 19C14 18.4477 14.4477 18 15 18H21C21.5523 18 22 18.4477 22 19C22 19.5523 21.5523 20 21 20H15C14.4477 20 14 19.5523 14 19Z" fill="black"/>
</svg>
