<svg width="24" height="24" viewBox="0 0 24 24" fill="none" xmlns="http://www.w3.org/2000/svg">
<path d="M12 2H6C4.89543 2 4 2.89543 4 4V11.9172C4.69814 11.6478 5.45682 11.5 6.25 11.5C7.92339 11.5 9.44209 12.1588 10.561 13.2252C12.8386 13.8985 14.5 16.0038 14.5 18.5C14.5 19.8296 14.0282 21.0491 13.2428 22H18C19.1046 22 20 21.1046 20 20V10H14C12.8954 10 12 9.10457 12 8V2Z" fill="black"/>
<path d="M19.4142 8L14 2.58579V8H19.4142Z" fill="black"/>
<path fill-rule="evenodd" clip-rule="evenodd" d="M6.25 13.5C3.90279 13.5 2 15.4028 2 17.75C2 20.0972 3.90279 22 6.25 22H9C10.933 22 12.5 20.433 12.5 18.5C12.5 16.7446 11.2077 15.2911 9.52265 15.0388C8.74466 14.1005 7.56843 13.5 6.25 13.5ZM4 17.75C4 16.5074 5.00736 15.5 6.25 15.5C7.04608 15.5 7.74527 15.9122 8.14657 16.5391C8.33081 16.827 8.64927 17.0008 8.99101 17L9 17C9.82797 17.0005 10.5 17.6719 10.5 18.5C10.5 19.3284 9.82843 20 9 20H6.25C5.00736 20 4 18.9926 4 17.75Z" fill="black"/>
</svg>
