<svg width="24" height="24" viewBox="0 0 24 24" fill="none" xmlns="http://www.w3.org/2000/svg">
<path fill-rule="evenodd" clip-rule="evenodd" d="M2 5C2 3.89543 2.89543 3 4 3H9.46482C10.1335 3 10.758 3.3342 11.1289 3.8906L12.5352 6H20C21.1046 6 22 6.89543 22 8V18C22 19.1046 21.1046 20 20 20H4C2.89543 20 2 19.1046 2 18V5ZM15.2071 15.2071L12.7071 17.7071C12.3166 18.0976 11.6834 18.0976 11.2929 17.7071L8.79289 15.2071C8.40237 14.8166 8.40237 14.1834 8.79289 13.7929C9.18342 13.4024 9.81658 13.4024 10.2071 13.7929L11 14.5858V11C11 10.4477 11.4477 10 12 10C12.5523 10 13 10.4477 13 11V14.5858L13.7929 13.7929C14.1834 13.4024 14.8166 13.4024 15.2071 13.7929C15.5976 14.1834 15.5976 14.8166 15.2071 15.2071Z" fill="black"/>
</svg>
