<svg width="24" height="24" viewBox="0 0 24 24" fill="none" xmlns="http://www.w3.org/2000/svg">
<path d="M16.9999 11C16.9999 11.5306 16.9173 12.0418 16.7642 12.5216L8.10596 3.86334C9.0225 2.72695 10.4263 2 11.9999 2C14.7614 2 16.9999 4.23858 16.9999 7V11Z" fill="black"/>
<path d="M2.29289 2.29289C2.68342 1.90237 3.31658 1.90237 3.70711 2.29289L21.7071 20.2929C22.0976 20.6834 22.0976 21.3166 21.7071 21.7071C21.3166 22.0976 20.6834 22.0976 20.2929 21.7071L17.0438 18.458C15.9626 19.203 14.6237 19.7784 13 19.9485V21C13 21.5523 12.5523 22 12 22C11.4477 22 11 21.5523 11 21V19.9488C7.44647 19.5784 5.29912 17.2758 4.1755 15.5444C3.87485 15.0811 4.00669 14.4618 4.46998 14.1612C4.93326 13.8605 5.55255 13.9924 5.85319 14.4556C6.8928 16.0576 8.79991 18 12 18C13.4637 18 14.646 17.5974 15.5989 17.0131L14.1167 15.5309C13.4734 15.8318 12.7556 16 12 16C9.23859 16 7.00001 13.7614 7.00001 11V8.41423L2.29289 3.70711C1.90237 3.31658 1.90237 2.68342 2.29289 2.29289Z" fill="black"/>
</svg>
