<svg width="24" height="24" viewBox="0 0 24 24" fill="none" xmlns="http://www.w3.org/2000/svg">
<path d="M6.8673 3C5.87199 3 5.02815 3.73186 4.8874 4.71716L4.1327 10H3C2.44772 10 2 10.4477 2 11C2 11.5523 2.44772 12 3 12H21C21.5523 12 22 11.5523 22 11C22 10.4477 21.5523 10 21 10H19.8673L19.1126 4.71716C18.9718 3.73186 18.128 3 17.1327 3H6.8673Z" fill="black"/>
<path fill-rule="evenodd" clip-rule="evenodd" d="M7 13C4.79086 13 3 14.7909 3 17C3 19.2091 4.79086 21 7 21C9.11748 21 10.8507 19.3547 10.9908 17.2727C11.612 16.9092 12.3879 16.9091 13.0091 17.2724C13.1492 19.3545 14.8824 21 17 21C19.2091 21 21 19.2091 21 17C21 14.7909 19.2091 13 17 13C15.4173 13 14.0498 13.9188 13.4011 15.2524C12.4993 14.9158 11.5007 14.9159 10.5989 15.2525C9.95028 13.9189 8.58271 13 7 13ZM5 17C5 15.8954 5.89543 15 7 15C8.05291 15 8.91658 15.8143 8.99426 16.8467C8.99806 16.8972 9 16.9483 9 17C9 18.1046 8.10457 19 7 19C5.89543 19 5 18.1046 5 17ZM15.0058 16.8465C15.0836 15.8142 15.9472 15 17 15C18.1046 15 19 15.8954 19 17C19 18.1046 18.1046 19 17 19C15.8954 19 15 18.1046 15 17C15 16.9482 15.002 16.897 15.0058 16.8465Z" fill="black"/>
</svg>
