<svg width="24" height="24" viewBox="0 0 24 24" fill="none" xmlns="http://www.w3.org/2000/svg">
<path fill-rule="evenodd" clip-rule="evenodd" d="M1 6C1 4.89543 1.89543 4 3 4H21C22.1046 4 23 4.89543 23 6V18C23 19.1046 22.1046 20 21 20H3C1.89543 20 1 19.1046 1 18V6ZM9.5 12C9.5 10.6193 10.6193 9.5 12 9.5C13.3807 9.5 14.5 10.6193 14.5 12C14.5 13.3807 13.3807 14.5 12 14.5C10.6193 14.5 9.5 13.3807 9.5 12ZM3 7C3 6.44772 3.44772 6 4 6H5C5.55228 6 6 6.44772 6 7C6 7.55228 5.55228 8 5 8H4C3.44772 8 3 7.55228 3 7ZM19 16C18.4477 16 18 16.4477 18 17C18 17.5523 18.4477 18 19 18H20C20.5523 18 21 17.5523 21 17C21 16.4477 20.5523 16 20 16H19Z" fill="black"/>
</svg>
