<svg width="24" height="24" viewBox="0 0 24 24" fill="none" xmlns="http://www.w3.org/2000/svg">
<path d="M4 4C2.89543 4 2 4.89543 2 6V18C2 19.1046 2.89543 20 4 20H11C11.5523 20 12 19.5523 12 19C12 18.4477 11.5523 18 11 18H4V13H21C21.5523 13 22 12.5523 22 12V6C22 4.89543 21.1046 4 20 4H4Z" fill="black"/>
<path d="M20 16C20 15.4477 19.5523 15 19 15C18.4477 15 18 15.4477 18 16V18H16C15.4477 18 15 18.4477 15 19C15 19.5523 15.4477 20 16 20H18V22C18 22.5523 18.4477 23 19 23C19.5523 23 20 22.5523 20 22V20H22C22.5523 20 23 19.5523 23 19C23 18.4477 22.5523 18 22 18H20V16Z" fill="black"/>
</svg>
