<svg width="24" height="24" viewBox="0 0 24 24" fill="none" xmlns="http://www.w3.org/2000/svg">
<path d="M13 2C13 1.44772 12.5523 1 12 1C11.4477 1 11 1.44772 11 2V3C11 3.55228 11.4477 4 12 4C12.5523 4 13 3.55228 13 3V2Z" fill="black"/>
<path d="M13 21C13 20.4477 12.5523 20 12 20C11.4477 20 11 20.4477 11 21V22C11 22.5523 11.4477 23 12 23C12.5523 23 13 22.5523 13 22V21Z" fill="black"/>
<path d="M19.777 4.22295C20.1675 4.61347 20.1675 5.24664 19.777 5.63716L19.0669 6.34716C18.6764 6.73768 18.0433 6.73768 17.6527 6.34716C17.2622 5.95664 17.2622 5.32347 17.6527 4.93295L18.3627 4.22295C18.7533 3.83242 19.3864 3.83242 19.777 4.22295Z" fill="black"/>
<path d="M6.34726 19.0671C6.73779 18.6766 6.73779 18.0434 6.34726 17.6529C5.95674 17.2624 5.32357 17.2624 4.93305 17.6529L4.22305 18.3629C3.83253 18.7534 3.83253 19.3866 4.22305 19.7771C4.61357 20.1676 5.24674 20.1676 5.63726 19.7771L6.34726 19.0671Z" fill="black"/>
<path d="M20 12C20 11.4477 20.4477 11 21 11H22C22.5523 11 23 11.4477 23 12C23 12.5523 22.5523 13 22 13H21C20.4477 13 20 12.5523 20 12Z" fill="black"/>
<path d="M2 11C1.44772 11 1 11.4477 1 12C1 12.5523 1.44772 13 2 13H3C3.55228 13 4 12.5523 4 12C4 11.4477 3.55228 11 3 11H2Z" fill="black"/>
<path d="M17.6527 17.6529C18.0433 17.2624 18.6764 17.2624 19.0669 17.6529L19.777 18.3629C20.1675 18.7534 20.1675 19.3866 19.777 19.7771C19.3864 20.1676 18.7533 20.1676 18.3627 19.7771L17.6527 19.0671C17.2622 18.6766 17.2622 18.0434 17.6527 17.6529Z" fill="black"/>
<path d="M5.63726 4.22295C5.24674 3.83242 4.61357 3.83242 4.22305 4.22295C3.83253 4.61347 3.83253 5.24664 4.22305 5.63716L4.93305 6.34716C5.32357 6.73768 5.95674 6.73768 6.34726 6.34716C6.73779 5.95664 6.73779 5.32347 6.34726 4.93295L5.63726 4.22295Z" fill="black"/>
<path d="M7.75736 7.75736C10.1005 5.41421 13.8995 5.41421 16.2426 7.75736C18.5858 10.1005 18.5858 13.8995 16.2426 16.2426C13.8995 18.5858 10.1005 18.5858 7.75736 16.2426C5.41421 13.8995 5.41421 10.1005 7.75736 7.75736Z" fill="black"/>
</svg>
