<svg width="24" height="24" viewBox="0 0 24 24" fill="none" xmlns="http://www.w3.org/2000/svg">
<path d="M9.17169 3.17111C10.7336 1.61064 13.2654 1.6085 14.8282 3.17146C16.3904 4.73375 16.3909 7.26728 14.8279 8.82889C14.3036 9.35271 13.6698 9.70097 13 9.87334V17C13 17.5523 12.5523 18 12 18C11.4477 18 11 17.5523 11 17V9.87399C10.3298 9.70187 9.69563 9.35338 9.171 8.82819C7.61087 7.26642 7.60823 4.73316 9.17169 3.17111Z" fill="black"/>
<path d="M8.18975 15.346C8.732 15.2412 9.08663 14.7167 8.98183 14.1744C8.87704 13.6322 8.3525 13.2776 7.81025 13.3824C6.25844 13.6823 4.88197 14.1547 3.86503 14.7798C2.89011 15.3791 2 16.282 2 17.5004C2 18.358 2.45088 19.066 3.03043 19.5989C3.60913 20.131 4.39133 20.5642 5.27359 20.9073C7.04448 21.5959 9.42296 22.0004 12 22.0004C14.577 22.0004 16.9555 21.5959 18.7264 20.9073C19.6087 20.5642 20.3909 20.131 20.9696 19.5989C21.5491 19.066 22 18.358 22 17.5004C22 16.282 21.1099 15.3791 20.135 14.7798C19.118 14.1547 17.7416 13.6823 16.1897 13.3824C15.6475 13.2776 15.123 13.6322 15.0182 14.1744C14.9134 14.7167 15.268 15.2412 15.8103 15.346C17.2219 15.6188 18.3454 16.0274 19.0876 16.4836C19.8718 16.9657 20 17.3445 20 17.5004C20 17.6093 19.9472 17.822 19.6159 18.1266C19.2838 18.432 18.7479 18.753 18.0015 19.0433C16.515 19.6213 14.3935 20.0004 12 20.0004C9.60648 20.0004 7.48496 19.6213 5.99849 19.0433C5.25207 18.753 4.71624 18.432 4.3841 18.1266C4.0528 17.822 4 17.6093 4 17.5004C4 17.3445 4.12817 16.9657 4.91239 16.4836C5.65459 16.0274 6.77813 15.6188 8.18975 15.346Z" fill="black"/>
</svg>
