<svg width="24" height="24" viewBox="0 0 24 24" fill="none" xmlns="http://www.w3.org/2000/svg">
<path d="M5 8V20C5 20.5523 5.44772 21 6 21H18C18.5523 21 19 20.5523 19 20V8M5 8V4C5 3.44772 5.44772 3 6 3H18C18.5523 3 19 3.44772 19 4V8M5 8H19" stroke="black" stroke-width="2" stroke-linejoin="round"/>
<path d="M9.75 13.125C10.2332 13.125 10.625 12.7332 10.625 12.25C10.625 11.7668 10.2332 11.375 9.75 11.375C9.26675 11.375 8.875 11.7668 8.875 12.25C8.875 12.7332 9.26675 13.125 9.75 13.125ZM9.75 17.625C10.2332 17.625 10.625 17.2332 10.625 16.75C10.625 16.2668 10.2332 15.875 9.75 15.875C9.26675 15.875 8.875 16.2668 8.875 16.75C8.875 17.2332 9.26675 17.625 9.75 17.625ZM14.25 13.125C14.7332 13.125 15.125 12.7332 15.125 12.25C15.125 11.7668 14.7332 11.375 14.25 11.375C13.7668 11.375 13.375 11.7668 13.375 12.25C13.375 12.7332 13.7668 13.125 14.25 13.125ZM14.25 17.625C14.7332 17.625 15.125 17.2332 15.125 16.75C15.125 16.2668 14.7332 15.875 14.25 15.875C13.7668 15.875 13.375 16.2668 13.375 16.75C13.375 17.2332 13.7668 17.625 14.25 17.625Z" fill="black" stroke="black" stroke-width="0.75"/>
</svg>
