<svg width="24" height="24" viewBox="0 0 24 24" fill="none" xmlns="http://www.w3.org/2000/svg">
<path fill-rule="evenodd" clip-rule="evenodd" d="M10.707 7.29289C11.0975 7.68342 11.0975 8.31658 10.707 8.70711L7.4141 12L10.707 15.2929C11.0975 15.6834 11.0975 16.3166 10.707 16.7071C10.3165 17.0976 9.6833 17.0976 9.29278 16.7071L5.82311 13.2374C5.13969 12.554 5.13969 11.446 5.82311 10.7626L9.29278 7.29289C9.6833 6.90237 10.3165 6.90237 10.707 7.29289ZM17.707 7.29289C18.0975 7.68342 18.0975 8.31658 17.707 8.70711L14.4141 12L17.707 15.2929C18.0975 15.6834 18.0975 16.3166 17.707 16.7071C17.3165 17.0976 16.6833 17.0976 16.2928 16.7071L12.8231 13.2374C12.1397 12.554 12.1397 11.446 12.8231 10.7626L16.2928 7.29289C16.6833 6.90237 17.3165 6.90237 17.707 7.29289Z" fill="black"/>
</svg>
