<svg width="24" height="24" viewBox="0 0 24 24" fill="none" xmlns="http://www.w3.org/2000/svg">
<path fill-rule="evenodd" clip-rule="evenodd" d="M12 22C17.5228 22 22 17.5228 22 12C22 6.47715 17.5228 2 12 2C6.47715 2 2 6.47715 2 12C2 17.5228 6.47715 22 12 22ZM15 10C15 11.6569 13.6569 13 12 13C10.3431 13 9 11.6569 9 10C9 8.34315 10.3431 7 12 7C13.6569 7 15 8.34315 15 10ZM12.0002 20C9.76181 20 7.73814 19.0807 6.28613 17.5991C7.61787 16.005 9.60491 15 12.0002 15C14.3955 15 16.3825 16.005 17.7143 17.5991C16.2623 19.0807 14.2386 20 12.0002 20Z" fill="black"/>
</svg>
