<svg width="24" height="24" viewBox="0 0 24 24" fill="none" xmlns="http://www.w3.org/2000/svg">
<path d="M12 8C12 6.34315 13.3431 5 15 5H21C21.5523 5 22 5.44772 22 6V18C22 18.5523 21.5523 19 21 19H15.277C14.5966 19 13.9296 19.1642 13.3508 19.5219C12.772 19.8796 12.3043 20.3914 12 21M12 8C12 6.34315 10.6569 5 9 5H3C2.44772 5 2 5.44772 2 6V18C2 18.5523 2.44772 19 3 19H8.723C9.40341 19 10.0704 19.1642 10.6492 19.5219C11.228 19.8796 11.6957 20.3914 12 21M12 8V21" stroke="black" stroke-width="2" stroke-linecap="round" stroke-linejoin="round"/>
</svg>
