<svg width="24" height="24" viewBox="0 0 24 24" fill="none" xmlns="http://www.w3.org/2000/svg">
<path d="M18.5766 2.56815C18.2828 1.68662 17.1639 1.42249 16.5069 2.07956L13.5858 5.00063C13.2107 5.3757 13 5.88441 13 6.41484V9.58642L11.2929 11.2935C10.9024 11.684 10.9024 12.3172 11.2929 12.7077C11.6834 13.0983 12.3166 13.0983 12.7071 12.7077L14.4142 11.0006H17.5858C18.1162 11.0006 18.6249 10.7899 19 10.4148L21.9211 7.49377C22.5781 6.8367 22.314 5.71788 21.4325 5.42403L19.2906 4.71006L18.5766 2.56815Z" fill="black"/>
<path d="M4 12C4 7.58172 7.58172 4 12 4C12.5523 4 13 3.55228 13 3C13 2.44772 12.5523 2 12 2C6.47715 2 2 6.47715 2 12C2 17.5228 6.47715 22 12 22C17.5228 22 22 17.5228 22 12C22 11.4477 21.5523 11 21 11C20.4477 11 20 11.4477 20 12C20 16.4183 16.4183 20 12 20C7.58172 20 4 16.4183 4 12Z" fill="black"/>
<path d="M10.7996 8.18283C11.3266 8.01734 11.6195 7.45604 11.454 6.92913C11.2886 6.40223 10.7273 6.10924 10.2004 6.27473C7.76699 7.03901 6 9.31179 6 11.9999C6 15.3136 8.68629 17.9999 12 17.9999C14.6882 17.9999 16.961 16.2328 17.7252 13.7993C17.8907 13.2724 17.5977 12.7111 17.0708 12.5456C16.5439 12.3801 15.9826 12.6731 15.8171 13.2001C15.3072 14.8239 13.7896 15.9999 12 15.9999C9.79086 15.9999 8 14.209 8 11.9999C8 10.2103 9.1759 8.69282 10.7996 8.18283Z" fill="black"/>
</svg>
