<svg width="24" height="24" viewBox="0 0 24 24" fill="none" xmlns="http://www.w3.org/2000/svg">
<path d="M16.7929 21.7071C17.1834 22.0976 17.8166 22.0976 18.2071 21.7071L20.5 19.4142C21.281 18.6332 21.281 17.3668 20.5 16.5858L18.2071 14.2929C17.8166 13.9024 17.1834 13.9024 16.7929 14.2929C16.4024 14.6834 16.4024 15.3166 16.7929 15.7071L18.0858 17H7C5.89543 17 5 16.1046 5 15V13C5 12.4477 4.55228 12 4 12C3.44772 12 3 12.4477 3 13V15C3 17.2091 4.79086 19 7 19H18.0858L16.7929 20.2929C16.4024 20.6834 16.4024 21.3166 16.7929 21.7071Z" fill="black"/>
<path d="M21 11C21 11.5523 20.5523 12 20 12C19.4477 12 19 11.5523 19 11V9C19 7.89543 18.1046 7 17 7H5.91406L7.20696 8.29289C7.59748 8.68342 7.59748 9.31658 7.20696 9.70711C6.81643 10.0976 6.18327 10.0976 5.79274 9.70711L3.49985 7.41421C2.7188 6.63316 2.7188 5.36683 3.49985 4.58578L5.79274 2.29289C6.18327 1.90237 6.81643 1.90237 7.20696 2.29289C7.59748 2.68342 7.59748 3.31658 7.20696 3.70711L5.91406 5H17C19.2091 5 21 6.79086 21 9V11Z" fill="black"/>
</svg>
