<svg width="24" height="24" viewBox="0 0 24 24" fill="none" xmlns="http://www.w3.org/2000/svg">
<path d="M20.8193 16.5764L19.7845 8.8152C19.2643 4.91374 15.9362 2 12.0002 2C10.3769 2 8.85692 2.49566 7.59473 3.35184L20.8193 16.5764Z" fill="black"/>
<path fill-rule="evenodd" clip-rule="evenodd" d="M3.70711 2.29289C3.31658 1.90237 2.68342 1.90237 2.29289 2.29289C1.90237 2.68342 1.90237 3.31658 2.29289 3.70711L4.95886 6.37307C4.58752 7.12424 4.33173 7.94568 4.21579 8.8152L3.15973 16.7357C2.99986 17.9346 3.9326 19 5.14218 19H7.35355C8.25773 20.7478 9.96126 21.9998 11.9998 21.9998C14.0384 21.9998 15.7419 20.7478 16.6461 19H17.5858L20.2929 21.7071C20.6834 22.0976 21.3166 22.0976 21.7071 21.7071C22.0976 21.3166 22.0976 20.6834 21.7071 20.2929L3.70711 2.29289ZM14.2214 19H9.77823C10.3871 19.6371 11.1767 19.9998 11.9998 19.9998C12.823 19.9998 13.6125 19.6371 14.2214 19Z" fill="black"/>
</svg>
