<svg width="24" height="24" viewBox="0 0 24 24" fill="none" xmlns="http://www.w3.org/2000/svg">
<path d="M2 5C2 3.89543 2.89543 3 4 3H9.46482C10.1335 3 10.758 3.3342 11.1289 3.8906L12.5352 6H20C21.1046 6 22 6.89543 22 8V18C22 19.1046 21.1046 20 20 20H12.874C12.874 19.7503 12.8428 19.4991 12.7793 19.2522C12.3474 17.5744 11.31 16.1387 9.91233 15.1945C10.4406 14.4289 10.75 13.5006 10.75 12.5C10.75 9.87665 8.62337 7.75 6.00002 7.75C4.32053 7.75 2.84463 8.62163 2 9.93721V5Z" fill="black"/>
<path d="M2 15.0628V15.2547C2.02907 15.2344 2.0583 15.2144 2.08769 15.1945C2.05775 15.1511 2.02851 15.1072 2 15.0628Z" fill="black"/>
<path fill-rule="evenodd" clip-rule="evenodd" d="M3.25 12.5C3.25 10.9812 4.48122 9.75 6 9.75C7.51878 9.75 8.75 10.9812 8.75 12.5C8.75 14.0188 7.51878 15.25 6 15.25C4.48122 15.25 3.25 14.0188 3.25 12.5ZM6 11.75C5.58579 11.75 5.25 12.0858 5.25 12.5C5.25 12.9142 5.58579 13.25 6 13.25C6.41421 13.25 6.75 12.9142 6.75 12.5C6.75 12.0858 6.41421 11.75 6 11.75Z" fill="black"/>
<path fill-rule="evenodd" clip-rule="evenodd" d="M6.00027 16C4.24079 16 2.69432 16.9096 1.8046 18.2795C1.38836 18.9204 1.46069 19.6546 1.82902 20.1868C2.17787 20.6907 2.77207 21 3.41626 21H8.58428C9.22847 21 9.82267 20.6907 10.1715 20.1868C10.5398 19.6546 10.6122 18.9204 10.1959 18.2795C9.30622 16.9096 7.75975 16 6.00027 16ZM6.00027 18C6.888 18 7.6862 18.385 8.23649 19H3.76405C4.31434 18.385 5.11254 18 6.00027 18Z" fill="black"/>
</svg>
