<svg width="24" height="24" viewBox="0 0 24 24" fill="none" xmlns="http://www.w3.org/2000/svg">
<path fill-rule="evenodd" clip-rule="evenodd" d="M4.86178 3.01695C5.06993 2.99994 5.31573 2.99997 5.56811 3L18.4319 3C18.6843 2.99997 18.9301 2.99994 19.1382 3.01695C19.3668 3.03563 19.6366 3.07969 19.908 3.21799C20.2843 3.40974 20.5903 3.7157 20.782 4.09202C20.9203 4.36345 20.9644 4.63318 20.9831 4.86178C21.0001 5.06989 21 5.31573 21 5.56806V18.432C21 18.6844 21.0001 18.9301 20.9831 19.1382C20.9644 19.3668 20.9203 19.6366 20.782 19.908C20.5903 20.2843 20.2843 20.5903 19.908 20.782C19.6366 20.9203 19.3668 20.9644 19.1382 20.9831C18.9301 21.0001 18.6843 21 18.432 21H5.56797C5.31565 21 5.06989 21.0001 4.86178 20.9831C4.63318 20.9644 4.36345 20.9203 4.09202 20.782C3.7157 20.5903 3.40974 20.2843 3.21799 19.908C3.07969 19.6366 3.03563 19.3668 3.01695 19.1382C2.99994 18.9301 2.99997 18.6843 3 18.4319L3 5.56809C2.99997 5.31572 2.99994 5.06993 3.01695 4.86178C3.03563 4.63318 3.07969 4.36345 3.21799 4.09202C3.40974 3.7157 3.7157 3.40974 4.09202 3.21799C4.36345 3.07969 4.63318 3.03563 4.86178 3.01695ZM9.70711 8.29289C9.31658 7.90237 8.68342 7.90237 8.29289 8.29289C7.90237 8.68342 7.90237 9.31658 8.29289 9.70711L10.5858 12L8.29289 14.2929C7.90237 14.6834 7.90237 15.3166 8.29289 15.7071C8.68342 16.0976 9.31658 16.0976 9.70711 15.7071L12 13.4142L14.2929 15.7071C14.6834 16.0976 15.3166 16.0976 15.7071 15.7071C16.0976 15.3166 16.0976 14.6834 15.7071 14.2929L13.4142 12L15.7071 9.70711C16.0976 9.31658 16.0976 8.68342 15.7071 8.29289C15.3166 7.90237 14.6834 7.90237 14.2929 8.29289L12 10.5858L9.70711 8.29289Z" fill="black"/>
</svg>
