<svg width="24" height="24" viewBox="0 0 24 24" fill="none" xmlns="http://www.w3.org/2000/svg">
<path d="M12 2C11.4477 2 11 2.44772 11 3V5C11 5.55228 11.4477 6 12 6C12.5523 6 13 5.55228 13 5V4.06189C16.9463 4.55399 20 7.92038 20 12C20 16.4183 16.4183 20 12 20C7.58172 20 4 16.4183 4 12C4 11.0632 4.16061 10.166 4.45496 9.33325C4.639 8.81253 4.36608 8.24121 3.84536 8.05716C3.32465 7.87311 2.75332 8.14604 2.56928 8.66675C2.20032 9.71063 2 10.833 2 12C2 17.5228 6.47715 22 12 22C17.5228 22 22 17.5228 22 12C22 6.47715 17.5228 2 12 2Z" fill="black"/>
<path d="M5.04289 5.04289C5.43342 4.65237 6.06658 4.65237 6.45711 5.04289L10.3349 8.92069C10.8301 8.65237 11.3972 8.5 12 8.5C13.933 8.5 15.5 10.067 15.5 12C15.5 13.933 13.933 15.5 12 15.5C10.067 15.5 8.5 13.933 8.5 12C8.5 11.3972 8.65237 10.8301 8.92069 10.3349L5.04289 6.45711C4.65237 6.06658 4.65237 5.43342 5.04289 5.04289Z" fill="black"/>
</svg>
