<svg width="24" height="24" viewBox="0 0 24 24" fill="none" xmlns="http://www.w3.org/2000/svg">
<path d="M10 4C9.44771 4 9 4.44772 9 5C9 5.55228 9.44771 6 10 6H15V20C15 20.5523 15.4477 21 16 21C16.5523 21 17 20.5523 17 20V6H22C22.5523 6 23 5.55228 23 5C23 4.44772 22.5523 4 22 4H10Z" fill="black"/>
<path d="M5.92676 20V12H2C1.44772 12 1 11.5523 1 11C1 10.4477 1.44772 10 2 10H6.88216C6.89695 9.99935 6.91181 9.99902 6.92676 9.99902C6.9417 9.99902 6.95657 9.99935 6.97135 10H12C12.5523 10 13 10.4477 13 11C13 11.5523 12.5523 12 12 12H7.92676V20C7.92676 20.5523 7.47904 21 6.92676 21C6.37447 21 5.92676 20.5523 5.92676 20Z" fill="black"/>
</svg>
