<svg width="24" height="24" viewBox="0 0 24 24" fill="none" xmlns="http://www.w3.org/2000/svg">
<path d="M2 7C2 6.44772 2.44772 6 3 6H21C21.5523 6 22 6.44772 22 7V18C22 18.5523 21.5523 19 21 19H16.3757C16.1335 19 15.8995 18.9121 15.7172 18.7526L12.3293 15.7881C12.1407 15.6231 11.8593 15.6231 11.6707 15.7881L8.28277 18.7526C8.10048 18.9121 7.86649 19 7.62426 19H3C2.44772 19 2 18.5523 2 18V7Z" stroke="black" stroke-width="2"/>
<path d="M9.25 11.5C9.25 12.4665 8.4665 13.25 7.5 13.25C6.5335 13.25 5.75 12.4665 5.75 11.5C5.75 10.5335 6.5335 9.75 7.5 9.75C8.4665 9.75 9.25 10.5335 9.25 11.5Z" stroke="black" stroke-width="2"/>
<path d="M18.25 11.5C18.25 12.4665 17.4665 13.25 16.5 13.25C15.5335 13.25 14.75 12.4665 14.75 11.5C14.75 10.5335 15.5335 9.75 16.5 9.75C17.4665 9.75 18.25 10.5335 18.25 11.5Z" stroke="black" stroke-width="2"/>
</svg>
