<svg width="24" height="24" viewBox="0 0 24 24" fill="none" xmlns="http://www.w3.org/2000/svg">
<path fill-rule="evenodd" clip-rule="evenodd" d="M19.5241 4.14836C19.9945 4.43781 20.1411 5.05376 19.8517 5.52412L17.7126 9.00002H19C19.5523 9.00002 20 9.44773 20 10V20C20 21.1046 19.1046 22 18 22H6C4.89543 22 4 21.1046 4 20V10C4 9.44773 4.44772 9.00002 5 9.00002H15.3643L18.1483 4.47592C18.4378 4.00556 19.0537 3.85891 19.5241 4.14836ZM10 13C9.44772 13 9 13.4477 9 14C9 14.5523 9.44772 15 10 15H14C14.5523 15 15 14.5523 15 14C15 13.4477 14.5523 13 14 13H10Z" fill="black"/>
<path d="M11.8501 3.07454C11.9468 3.02616 12.0253 2.9477 12.0737 2.85094L12.5519 1.89444C12.7362 1.52591 13.2621 1.52591 13.4464 1.89444L13.9246 2.85094C13.973 2.9477 14.0515 3.02616 14.1482 3.07454L15.1047 3.55279C15.4733 3.73706 15.4733 4.26296 15.1047 4.44722L14.1482 4.92547C14.0515 4.97385 13.973 5.05232 13.9246 5.14908L13.4464 6.10558C13.2621 6.47411 12.7362 6.47411 12.5519 6.10558L12.0737 5.14908C12.0253 5.05232 11.9468 4.97385 11.8501 4.92547L10.8936 4.44722C10.5251 4.26296 10.5251 3.73706 10.8936 3.55279L11.8501 3.07454Z" fill="black"/>
<path d="M6.51675 4.74121C6.61351 4.69283 6.69197 4.61437 6.74036 4.5176L7.05194 3.89444C7.2362 3.52591 7.7621 3.52591 7.94637 3.89444L8.25795 4.5176C8.30633 4.61437 8.38479 4.69283 8.48156 4.74121L9.10472 5.05279C9.47325 5.23706 9.47325 5.76296 9.10473 5.94722L8.48156 6.25881C8.38479 6.30719 8.30633 6.38565 8.25795 6.48241L7.94637 7.10558C7.7621 7.4741 7.2362 7.4741 7.05194 7.10558L6.74036 6.48241C6.69197 6.38565 6.61351 6.30719 6.51675 6.25881L5.89358 5.94722C5.52506 5.76296 5.52506 5.23706 5.89358 5.05279L6.51675 4.74121Z" fill="black"/>
</svg>
