<svg width="24" height="24" viewBox="0 0 24 24" fill="none" xmlns="http://www.w3.org/2000/svg">
<path fill-rule="evenodd" clip-rule="evenodd" d="M12.0007 4C10.9003 4 9.862 4.25315 8.93813 4.70346C8.44168 4.94544 7.84306 4.73915 7.60108 4.2427C7.3591 3.74625 7.56539 3.14763 8.06184 2.90565C9.2527 2.32521 10.5901 2 12.0007 2C16.9712 2 21.0007 6.02944 21.0007 11C21.0007 13.1309 20.8045 15.217 20.429 17.2407C20.3282 17.7837 19.8063 18.1423 19.2633 18.0415C18.7203 17.9407 18.3618 17.4189 18.4625 16.8758C18.8158 14.9718 19.0007 13.0079 19.0007 11C19.0007 7.13401 15.8666 4 12.0007 4ZM6.0836 5.52417C6.53207 5.84649 6.63434 6.47134 6.31202 6.91982C5.48654 8.06839 5.00066 9.47597 5.00066 11C5.00066 12.4666 4.82505 13.8935 4.49325 15.2604C4.36297 15.7971 3.82227 16.1266 3.28557 15.9963C2.74888 15.866 2.41941 15.3253 2.54969 14.7886C2.84428 13.575 3.00066 12.3065 3.00066 11C3.00066 9.04341 3.62617 7.22996 4.68795 5.7526C5.01027 5.30412 5.63512 5.20185 6.0836 5.52417ZM12.0007 8C10.3438 8 9.00066 9.34315 9.00066 11C9.00066 12.2482 8.89661 13.4728 8.69652 14.6655C8.60514 15.2101 8.08952 15.5776 7.54485 15.4862C7.00017 15.3948 6.63271 14.8792 6.72409 14.3345C6.90591 13.2508 7.00066 12.1368 7.00066 11C7.00066 8.23858 9.23923 6 12.0007 6C14.7621 6 17.0007 8.23858 17.0007 11C17.0007 11.6374 16.9808 12.2703 16.9415 12.8981C16.9071 13.4493 16.4324 13.8682 15.8812 13.8338C15.3299 13.7994 14.911 13.3246 14.9454 12.7734C14.9821 12.1871 15.0007 11.5958 15.0007 11C15.0007 9.34315 13.6575 8 12.0007 8ZM12.0011 10C12.5534 10 13.0011 10.4477 13.0011 11C13.0011 13.8691 12.536 16.6315 11.6763 19.2149C11.4552 19.8796 11.2079 20.5323 10.9358 21.1718C10.7195 21.68 10.1323 21.9167 9.62408 21.7004C9.11589 21.4842 8.87921 20.8969 9.09545 20.3887C9.34651 19.7987 9.57462 19.1965 9.77864 18.5834C10.5714 16.2011 11.0011 13.6517 11.0011 11C11.0011 10.4477 11.4488 10 12.0011 10ZM15.7063 15.2679C16.2496 15.3673 16.6094 15.8882 16.51 16.4315C16.3727 17.1823 16.2074 17.9233 16.0153 18.6535C15.8036 19.4583 15.5593 20.2499 15.2838 21.0268C15.0993 21.5473 14.5277 21.8197 14.0072 21.6351C13.4866 21.4506 13.2143 20.879 13.3988 20.3585C13.6557 19.6338 13.8836 18.8954 14.0812 18.1446C14.2604 17.4635 14.4146 16.7721 14.5427 16.0716C14.6421 15.5284 15.163 15.1685 15.7063 15.2679ZM7.22893 16.7491C7.75242 16.9251 8.0341 17.4921 7.85808 18.0156C7.69683 18.4952 7.51951 18.9674 7.32676 19.4316C7.11495 19.9416 6.52977 20.1834 6.01971 19.9716C5.50966 19.7598 5.26788 19.1746 5.47968 18.6645C5.6548 18.2428 5.81589 17.8139 5.96237 17.3782C6.13839 16.8547 6.70544 16.573 7.22893 16.7491Z" fill="black"/>
</svg>
