<svg width="24" height="24" viewBox="0 0 24 24" fill="none" xmlns="http://www.w3.org/2000/svg">
<path fill-rule="evenodd" clip-rule="evenodd" d="M11.0195 2.40419C11.6283 2.06172 12.3717 2.06172 12.9805 2.40419L19.9805 6.34169C19.9871 6.3454 19.9937 6.34914 20.0002 6.35292L12.0006 10.8528L4.00016 6.35269C4.00658 6.34899 4.01301 6.34532 4.01948 6.34169L11.0195 2.40419ZM3 8.0848C3 8.08478 3 8.08481 3 8.0848L3 15.9151C3 16.6377 3.38972 17.3041 4.01948 17.6583L11.0006 21.5852V12.585L3 8.0848ZM13.0006 21.5845L19.9805 17.6583C20.6103 17.3041 21 16.6377 21 15.9151V8.08524L13.0006 12.585V21.5845Z" fill="black"/>
</svg>
