<svg width="24" height="24" viewBox="0 0 24 24" fill="none" xmlns="http://www.w3.org/2000/svg">
<path d="M22 5C22 4.44772 21.5523 4 21 4C20.4477 4 20 4.44772 20 5V19C20 19.5523 20.4477 20 21 20C21.5523 20 22 19.5523 22 19V5Z" fill="black"/>
<path d="M13.7071 7.04289C13.3166 6.65237 12.6834 6.65237 12.2929 7.04289C11.9024 7.43342 11.9024 8.06658 12.2929 8.45711L14.8358 11H3C2.44772 11 2 11.4477 2 12C2 12.5523 2.44772 13 3 13H14.8358L12.2929 15.5429C11.9024 15.9334 11.9024 16.5666 12.2929 16.9571C12.6834 17.3476 13.3166 17.3476 13.7071 16.9571L17.4268 13.2374C18.1102 12.554 18.1102 11.446 17.4268 10.7625L13.7071 7.04289Z" fill="black"/>
</svg>
