<svg width="24" height="24" viewBox="0 0 24 24" fill="none" xmlns="http://www.w3.org/2000/svg">
<path fill-rule="evenodd" clip-rule="evenodd" d="M3.66782 13.4963C2.88677 12.7152 2.88677 11.4489 3.66782 10.6678L8.96071 5.37493C9.35123 4.9844 9.9844 4.9844 10.3749 5.37492C10.7654 5.76545 10.7654 6.39861 10.3749 6.78914L6.08204 11.082H19.9178C20.4701 11.082 20.9178 11.5297 20.9178 12.082C20.9178 12.6343 20.4701 13.082 19.9178 13.082H6.08202L10.3749 17.3749C10.7654 17.7654 10.7654 18.3986 10.3749 18.7891C9.9844 19.1797 9.35124 19.1797 8.96071 18.7891L3.66782 13.4963L4.29758 12.8665L3.66782 13.4963Z" fill="black"/>
</svg>
