<svg width="24" height="24" viewBox="0 0 24 24" fill="none" xmlns="http://www.w3.org/2000/svg">
<path d="M16 8C16 7.44772 15.5523 7 15 7C14.4477 7 14 7.44772 14 8C14 10.3085 13.4892 11.7424 12.6158 12.6158C11.7424 13.4892 10.3085 14 8 14C7.44772 14 7 14.4477 7 15C7 15.5523 7.44772 16 8 16C10.3085 16 11.7424 16.5108 12.6158 17.3842C13.4892 18.2576 14 19.6915 14 22C14 22.5523 14.4477 23 15 23C15.5523 23 16 22.5523 16 22C16 19.6915 16.5108 18.2576 17.3842 17.3842C18.2576 16.5108 19.6915 16 22 16C22.5523 16 23 15.5523 23 15C23 14.4477 22.5523 14 22 14C19.6915 14 18.2576 13.4892 17.3842 12.6158C16.5108 11.7424 16 10.3085 16 8Z" fill="black"/>
<path d="M7.5 2C7.5 1.44772 7.05228 1 6.5 1C5.94772 1 5.5 1.44772 5.5 2C5.5 3.44043 5.18016 4.24938 4.71477 4.71477C4.24938 5.18016 3.44043 5.5 2 5.5C1.44772 5.5 1 5.94772 1 6.5C1 7.05228 1.44772 7.5 2 7.5C3.44043 7.5 4.24938 7.81984 4.71477 8.28523C5.18016 8.75062 5.5 9.55957 5.5 11C5.5 11.5523 5.94772 12 6.5 12C7.05228 12 7.5 11.5523 7.5 11C7.5 9.55957 7.81984 8.75062 8.28523 8.28523C8.75062 7.81984 9.55957 7.5 11 7.5C11.5523 7.5 12 7.05228 12 6.5C12 5.94772 11.5523 5.5 11 5.5C9.55957 5.5 8.75062 5.18016 8.28523 4.71477C7.81984 4.24938 7.5 3.44043 7.5 2Z" fill="black"/>
</svg>
