<svg width="24" height="24" viewBox="0 0 24 24" fill="none" xmlns="http://www.w3.org/2000/svg">
<path d="M2.99894 12.1157C1.70789 12.8109 0.997689 13.4385 1.11635 13.8814C1.40223 14.9483 6.39104 14.5386 12.2592 12.9662C18.1273 11.3938 22.6526 9.25428 22.3667 8.18735C22.2481 7.7445 21.3192 7.55605 19.8535 7.59954M2.99894 12.1157C3.00886 12.8477 3.1089 13.5902 3.30702 14.3297C4.5935 19.1308 9.52853 21.9801 14.3297 20.6936C19.1309 19.4071 21.9802 14.4721 20.6937 9.67091C20.4956 8.9315 20.2109 8.23839 19.8535 7.59954M2.99894 12.1157C2.94444 8.09495 5.60919 4.3953 9.67098 3.30695C13.7328 2.2186 17.8903 4.09021 19.8535 7.59954" stroke="black" stroke-width="2"/>
</svg>
