<svg width="24" height="24" viewBox="0 0 24 24" fill="none" xmlns="http://www.w3.org/2000/svg">
<path d="M12 21.0024C16.1421 21.0024 19.5 17.5024 19.5 13.0024C19.5 7.9997 15.0793 4.44647 13.264 3.19831C12.8382 2.90547 12.2732 3.03126 11.9768 3.45468L9.66151 6.76223C9.31641 7.25522 8.60985 7.31708 8.18433 6.89157C7.80639 6.51362 7.18966 6.51127 6.85063 6.92449C5.28354 8.83453 4.5 11.2141 4.5 13.0024C4.5 17.5024 7.85786 21.0024 12 21.0024ZM12 21.0024C13.6569 21.0024 15 19.4692 15 17.578C15 15.4948 13.3369 13.9772 12.4872 13.3377C12.1953 13.118 11.8047 13.118 11.5128 13.3377C10.6631 13.9772 9 15.4948 9 17.578C9 19.4692 10.3431 21.0024 12 21.0024Z" stroke="black" stroke-width="2" stroke-linejoin="round"/>
</svg>
