<svg width="24" height="24" viewBox="0 0 24 24" fill="none" xmlns="http://www.w3.org/2000/svg">
<path d="M17.9999 19H21.0725C21.6525 19 22.1169 18.5048 22.0125 17.9343C21.319 14.1431 18.4972 12.5366 16 13.1147M11 7C11 8.65685 9.65686 10 8.00001 10C6.34315 10 5.00001 8.65685 5.00001 7C5.00001 5.34315 6.34315 4 8.00001 4C9.65686 4 11 5.34315 11 7ZM19.5 7.5C19.5 8.88071 18.3807 10 17 10C15.6193 10 14.5 8.88071 14.5 7.5C14.5 6.11929 15.6193 5 17 5C18.3807 5 19.5 6.11929 19.5 7.5ZM12.927 20H3.07298C2.49301 20 2.03008 19.5022 2.12493 18.93C3.43577 11.0233 12.5642 11.0233 13.8751 18.93C13.9699 19.5022 13.507 20 12.927 20Z" stroke="black" stroke-width="2" stroke-linecap="round" stroke-linejoin="round"/>
</svg>
