<svg width="24" height="24" viewBox="0 0 24 24" fill="none" xmlns="http://www.w3.org/2000/svg">
<path d="M17 7V4C17 3.44772 16.5523 3 16 3H4C3.44772 3 3 3.44772 3 4V16C3 16.5523 3.44772 17 4 17H7M9.52734 21C9.77607 18.75 11.6836 17 13.9999 17C16.3162 17 18.2237 18.75 18.4724 21M16 12.5C16 13.6046 15.1046 14.5 14 14.5C12.8954 14.5 12 13.6046 12 12.5C12 11.3954 12.8954 10.5 14 10.5C15.1046 10.5 16 11.3954 16 12.5ZM20 21H8C7.44772 21 7 20.5523 7 20V8C7 7.44772 7.44772 7 8 7H20C20.5523 7 21 7.44772 21 8V20C21 20.5523 20.5523 21 20 21Z" stroke="black" stroke-width="2" stroke-linecap="round" stroke-linejoin="round"/>
</svg>
