<svg width="24" height="24" viewBox="0 0 24 24" fill="none" xmlns="http://www.w3.org/2000/svg">
<path d="M21 4.00131C21 2.66159 19.7085 1.70069 18.4253 2.08566L10.4253 4.48566C9.57934 4.73945 9 5.51809 9 6.40131V15.1286C8.39273 14.8241 7.70001 14.6573 7 14.6573C4.96932 14.6573 3 16.0613 3 18.1573C3 20.2532 4.96932 21.6573 7 21.6573C9.03068 21.6573 11 20.2532 11 18.1573V6.40131L19 4.00131V12.1286C18.3927 11.8241 17.7 11.6573 17 11.6573C14.9693 11.6573 13 13.0613 13 15.1573C13 17.2532 14.9693 18.6573 17 18.6573C19.0307 18.6573 21 17.2532 21 15.1573V4.00131Z" fill="black"/>
</svg>
