<svg width="24" height="24" viewBox="0 0 24 24" fill="none" xmlns="http://www.w3.org/2000/svg">
<path fill-rule="evenodd" clip-rule="evenodd" d="M13 4C13 3.44772 13.4477 3 14 3H19.25C20.2165 3 21 3.7835 21 4.75V10C21 10.5523 20.5523 11 20 11C19.4477 11 19 10.5523 19 10V6.41421L14.7071 10.7071C14.3166 11.0976 13.6834 11.0976 13.2929 10.7071C12.9024 10.3166 12.9024 9.68342 13.2929 9.29289L17.5858 5H14C13.4477 5 13 4.55228 13 4ZM4 13C4.55228 13 5 13.4477 5 14V17.5858L9.29289 13.2929C9.68342 12.9024 10.3166 12.9024 10.7071 13.2929C11.0976 13.6834 11.0976 14.3166 10.7071 14.7071L6.41421 19H10C10.5523 19 11 19.4477 11 20C11 20.5523 10.5523 21 10 21H4.75C3.7835 21 3 20.2165 3 19.25V14C3 13.4477 3.44772 13 4 13Z" fill="black"/>
</svg>
