<svg width="24" height="24" viewBox="0 0 24 24" fill="none" xmlns="http://www.w3.org/2000/svg">
<path d="M16.466 17.1518C16.7982 17.0569 17.0578 16.7972 17.1528 16.465L20.7529 3.86454C20.8607 3.48736 20.5119 3.13865 20.1348 3.24641L7.53432 6.84654C7.20211 6.94146 6.94243 7.20114 6.84752 7.53334L3.24739 20.1338C3.13963 20.511 3.48834 20.8597 3.86551 20.7519L16.466 17.1518Z" stroke="black" stroke-width="2"/>
<path d="M14.0001 11.9992C14.0001 13.1037 13.1047 13.9992 12.0001 13.9992C10.8956 13.9992 10.0001 13.1037 10.0001 11.9992C10.0001 10.8946 10.8956 9.99916 12.0001 9.99916C13.1047 9.99916 14.0001 10.8946 14.0001 11.9992Z" stroke="black" stroke-width="2"/>
</svg>
