<svg width="24" height="24" viewBox="0 0 24 24" fill="none" xmlns="http://www.w3.org/2000/svg">
<path fill-rule="evenodd" clip-rule="evenodd" d="M3 5C3 3.89543 3.89543 3 5 3L11.25 3C11.8023 3 12.25 3.44772 12.25 4C12.25 4.55229 11.8023 5 11.25 5L5 5L5 19H11.25C11.8023 19 12.25 19.4477 12.25 20C12.25 20.5523 11.8023 21 11.25 21H5C3.89543 21 3 20.1046 3 19L3 5ZM14.7929 6.79289C15.1834 6.40237 15.8166 6.40237 16.2071 6.79289L20.7071 11.2929C21.0976 11.6834 21.0976 12.3166 20.7071 12.7071L16.2071 17.2071C15.8166 17.5976 15.1834 17.5976 14.7929 17.2071C14.4024 16.8166 14.4024 16.1834 14.7929 15.7929L17.5858 13L8.75 13C8.19772 13 7.75 12.5523 7.75 12C7.75 11.4477 8.19772 11 8.75 11L17.5858 11L14.7929 8.20711C14.4024 7.81658 14.4024 7.18342 14.7929 6.79289Z" fill="black"/>
</svg>
