<svg width="24" height="24" viewBox="0 0 24 24" fill="none" xmlns="http://www.w3.org/2000/svg">
<path d="M11 2C11.5523 2 12 2.44772 12 3V4.5C12 5.05228 11.5523 5.5 11 5.5C10.4477 5.5 10 5.05228 10 4.5V3C10 2.44772 10.4477 2 11 2Z" fill="black"/>
<path d="M17.3634 4.63582C17.7539 5.02634 17.7539 5.65951 17.3634 6.05003L16.3027 7.11069C15.9122 7.50122 15.279 7.50122 14.8885 7.11069C14.498 6.72017 14.498 6.087 14.8885 5.69648L15.9491 4.63582C16.3397 4.24529 16.9728 4.24529 17.3634 4.63582Z" fill="black"/>
<path d="M7.1114 16.303C7.50193 15.9124 7.50193 15.2793 7.1114 14.8887C6.72088 14.4982 6.08771 14.4982 5.69719 14.8887L4.63653 15.9494C4.24601 16.3399 4.24601 16.9731 4.63653 17.3636C5.02705 17.7541 5.66022 17.7541 6.05074 17.3636L7.1114 16.303Z" fill="black"/>
<path d="M5.5 11C5.5 11.5523 5.05228 12 4.5 12H3C2.44772 12 2 11.5523 2 11C2 10.4477 2.44772 10 3 10H4.5C5.05228 10 5.5 10.4477 5.5 11Z" fill="black"/>
<path d="M5.69704 7.1114C6.08756 7.50193 6.72073 7.50193 7.11125 7.1114C7.50178 6.72088 7.50178 6.08771 7.11125 5.69719L6.05059 4.63653C5.66007 4.24601 5.0269 4.24601 4.63638 4.63653C4.24585 5.02705 4.24585 5.66022 4.63638 6.05074L5.69704 7.1114Z" fill="black"/>
<path fill-rule="evenodd" clip-rule="evenodd" d="M11.1371 9.5206C10.1251 9.1296 9.1296 10.1251 9.5206 11.1371L13.3806 21.1277C13.7575 22.1031 15.0939 22.2123 15.624 21.311L17.7303 17.7303L21.311 15.624C22.2122 15.0939 22.1031 13.7575 21.1277 13.3806L11.1371 9.5206ZM17.0057 17.0057L17.1825 17.1825L17.0558 16.9672C17.0377 16.9778 17.0205 16.991 17.0057 17.0057Z" fill="black"/>
</svg>
