<svg width="24" height="24" viewBox="0 0 24 24" fill="none" xmlns="http://www.w3.org/2000/svg">
<path fill-rule="evenodd" clip-rule="evenodd" d="M7 3C7.55228 3 8 3.44772 8 4V17.5858L9.29289 16.2929C9.68342 15.9024 10.3166 15.9024 10.7071 16.2929C11.0976 16.6834 11.0976 17.3166 10.7071 17.7071L7.70711 20.7071C7.31658 21.0976 6.68342 21.0976 6.29289 20.7071L3.29289 17.7071C2.90237 17.3166 2.90237 16.6834 3.29289 16.2929C3.68342 15.9024 4.31658 15.9024 4.70711 16.2929L6 17.5858V4C6 3.44772 6.44772 3 7 3Z" fill="black"/>
<path fill-rule="evenodd" clip-rule="evenodd" d="M17.5 3C18.3111 3 19.027 3.52983 19.264 4.3055L20.4527 8.19574L20.9487 9.68377C21.1233 10.2077 20.8402 10.774 20.3162 10.9487C19.7923 11.1233 19.226 10.8402 19.0513 10.3162L18.7792 9.5H16.2208L15.9487 10.3162C15.774 10.8402 15.2077 11.1233 14.6838 10.9487C14.1598 10.774 13.8767 10.2077 14.0513 9.68377L14.5473 8.19573L15.736 4.3055C15.973 3.52983 16.6889 3 17.5 3ZM17.5 5.37664L16.8512 7.5H18.1488L17.5 5.37664Z" fill="black"/>
<path fill-rule="evenodd" clip-rule="evenodd" d="M14 14C14 13.4477 14.4477 13 15 13H20C20.388 13 20.741 13.2245 20.9056 13.5758C21.0702 13.9272 21.0166 14.3421 20.7682 14.6402L17.135 19H20C20.5523 19 21 19.4477 21 20C21 20.5523 20.5523 21 20 21H15C14.612 21 14.259 20.7755 14.0944 20.4242C13.9298 20.0728 13.9834 19.6579 14.2318 19.3598L17.865 15H15C14.4477 15 14 14.5523 14 14Z" fill="black"/>
</svg>
