<svg width="24" height="24" viewBox="0 0 24 24" fill="none" xmlns="http://www.w3.org/2000/svg">
<path d="M8.53027 14.8745C8.53027 15.4761 8.84717 15.8198 9.41113 15.8198C9.96973 15.8198 10.2866 15.4814 10.2866 14.8745V9.44971C10.2866 8.79443 9.86768 8.37012 9.23926 8.37012C8.87939 8.37012 8.49805 8.49365 8.0791 8.76221L7.20361 9.34766C6.88672 9.54639 6.72559 9.78271 6.72559 10.0459C6.72559 10.4004 6.9834 10.6582 7.33789 10.6582C7.51514 10.6582 7.66553 10.6045 7.94482 10.4272L8.50879 10.0459H8.53027V14.8745Z" fill="black"/>
<path d="M11.6509 14.2461C11.6509 15.1108 12.7734 15.9111 14.2505 15.9111C16.0229 15.9111 17.1724 14.8584 17.1724 13.2524C17.1724 11.813 16.2163 10.8516 14.7983 10.8516C14.1646 10.8516 13.5845 11.0718 13.3267 11.4102H13.2354L13.3535 9.82031H16.0498C16.5708 9.82031 16.8555 9.57324 16.8555 9.12744C16.8555 8.67627 16.5654 8.41309 16.0498 8.41309H12.999C12.3276 8.41309 11.9731 8.70312 11.9355 9.27783L11.7583 11.8882C11.7207 12.4307 12.1128 12.8013 12.6392 12.8013C12.854 12.8013 13.042 12.7368 13.3105 12.5273C13.6328 12.2964 13.9873 12.1675 14.3203 12.1675C14.9971 12.1675 15.4805 12.6294 15.4805 13.3008C15.4805 14.0098 14.9756 14.4878 14.2666 14.4878C13.7778 14.4878 13.3911 14.2729 13.0205 13.8164C12.8164 13.5747 12.6177 13.478 12.3599 13.478C11.9248 13.478 11.6509 13.8271 11.6509 14.2461Z" fill="black"/>
<path d="M11.4607 0.0809335C11.1796 0.222001 11 0.524565 11 0.85715V2.04938C5.94668 2.5511 2 6.81465 2 12C2 17.5228 6.47715 22 12 22C17.5228 22 22 17.5228 22 12C22 9.6195 21.167 7.43086 19.7774 5.71362C19.43 5.28429 18.8003 5.21789 18.371 5.5653C17.9416 5.91271 17.8752 6.54238 18.2226 6.97171C19.3346 8.34592 20 10.0939 20 12C20 16.4183 16.4183 20 12 20C7.58172 20 4 16.4183 4 12C4 7.92038 7.05369 4.55399 11 4.06189V5.14285C11 5.47544 11.1796 5.778 11.4607 5.91907C11.7418 6.06013 12.0737 6.01424 12.3121 5.80132L14.7121 3.65847C14.8945 3.49562 15 3.25438 15 3C15 2.74562 14.8945 2.50438 14.7121 2.34153L12.3121 0.198677C12.0737 -0.0142387 11.7418 -0.0601344 11.4607 0.0809335Z" fill="black"/>
</svg>
