<svg width="24" height="24" viewBox="0 0 24 24" fill="none" xmlns="http://www.w3.org/2000/svg">
<path d="M8.55176 14.8745C8.55176 15.4761 8.86865 15.8198 9.43262 15.8198C9.99121 15.8198 10.3081 15.4814 10.3081 14.8745V9.44971C10.3081 8.79443 9.88916 8.37012 9.26074 8.37012C8.90088 8.37012 8.51953 8.49365 8.10059 8.76221L7.2251 9.34766C6.9082 9.54639 6.74707 9.78271 6.74707 10.0459C6.74707 10.4004 7.00488 10.6582 7.35938 10.6582C7.53662 10.6582 7.68701 10.6045 7.96631 10.4272L8.53027 10.0459H8.55176V14.8745Z" fill="black"/>
<path d="M11.3931 12.2856C11.3931 14.4985 12.4888 15.9111 14.2827 15.9111C16.0767 15.9111 17.21 14.4663 17.21 12.2856V11.8936C17.21 9.68066 16.1304 8.28418 14.3203 8.28418C12.5156 8.28418 11.3931 9.70752 11.3931 11.8936V12.2856ZM13.1763 11.8989C13.1763 10.5078 13.5898 9.70215 14.2988 9.70215C15.0078 9.70215 15.4321 10.5132 15.4321 11.8989V12.2803C15.4321 13.6714 15.0078 14.4932 14.3042 14.4932C13.5952 14.4932 13.1763 13.6768 13.1763 12.2803V11.8989Z" fill="black"/>
<path d="M11.4607 0.0809335C11.1796 0.222001 11 0.524565 11 0.85715V2.04938C5.94668 2.5511 2 6.81465 2 12C2 17.5228 6.47715 22 12 22C17.5228 22 22 17.5228 22 12C22 9.6195 21.167 7.43086 19.7774 5.71362C19.43 5.28429 18.8003 5.21789 18.371 5.5653C17.9416 5.91271 17.8752 6.54238 18.2226 6.97171C19.3346 8.34592 20 10.0939 20 12C20 16.4183 16.4183 20 12 20C7.58172 20 4 16.4183 4 12C4 7.92038 7.05369 4.55399 11 4.06189V5.14285C11 5.47544 11.1796 5.778 11.4607 5.91907C11.7418 6.06013 12.0737 6.01424 12.3121 5.80132L14.7121 3.65847C14.8945 3.49562 15 3.25438 15 3C15 2.74562 14.8945 2.50438 14.7121 2.34153L12.3121 0.198677C12.0737 -0.0142387 11.7418 -0.0601344 11.4607 0.0809335Z" fill="black"/>
</svg>
