<svg id="_x33_0" enable-background="new 0 0 62 62" height="512" viewBox="0 0 62 62" width="512" xmlns="http://www.w3.org/2000/svg"><g><g><g><path d="m55.73 59.91.27 1.09h-8l.27-1.09c.43-1.71 1.97-2.91 3.73-2.91.88 0 1.7.3 2.36.81.66.52 1.16 1.25 1.37 2.1z" fill="#ff826e"/></g><g><path d="m55 53.07v.93c0 1.66-1.34 3-3 3-.83 0-1.58-.34-2.12-.88s-.88-1.29-.88-2.12v-1.22c0-.98.8-1.78 1.78-1.78.15 0 .29.02.43.05l2.75.69c.61.15 1.04.7 1.04 1.33z" fill="#f0d0b4"/></g><g><path d="m55.96 53.04-.96.96v-.93c0-.63-.43-1.18-1.04-1.33l-2.75-.69c-.14-.03-.28-.05-.43-.05-.98 0-1.78.8-1.78 1.78v1.22l-.96-.96c-.67-.67-1.04-1.57-1.04-2.5 0-.98.4-1.86 1.04-2.5s1.52-1.04 2.5-1.04h2.92c1.96 0 3.54 1.58 3.54 3.54 0 .93-.37 1.83-1.04 2.5z" fill="#656d78"/></g><g><path d="m55 15v1c0 .55-.45 1-1 1h-8c-.55 0-1-.45-1-1v-8c0-.55.45-1 1-1h8c.55 0 1 .45 1 1v1z" fill="#aab2bd"/></g><g><path d="m61 7v10l-6-2v-6z" fill="#ccd1d9"/></g><g><path d="m60.38 38.62c.38.38.62.92.62 1.5 0 .8-.32 1.52-.84 2.04s-1.24.84-2.04.84c-3.93 0-7.12-3.19-7.12-7.12v-1.35c0-1.95 1.58-3.53 3.53-3.53.68 0 1.3.28 1.75.72.44.45.72 1.07.72 1.75 0 .94-.53 1.79-1.37 2.21l-.63.32v1c0 .55.22 1.05.59 1.41.36.37.86.59 1.41.59l.38-.38c.4-.4.94-.62 1.5-.62.58 0 1.12.24 1.5.62z" fill="#ccd1d9"/></g><g><path d="m31 1c4.42 0 8 3.58 8 8s-3.58 8-8 8-8-3.58-8-8 3.58-8 8-8z" fill="#e6e9ed"/></g><g><path d="m40.85 26.15c1.36 1.94 2.15 4.3 2.15 6.85 0 4.08-2.04 7.69-5.15 9.85-1.94 1.36-4.3 2.15-6.85 2.15s-4.91-.79-6.85-2.15c-3.11-2.16-5.15-5.77-5.15-9.85 0-2.55.79-4.91 2.15-6.85 2.16-3.11 5.77-5.15 9.85-5.15s7.69 2.04 9.85 5.15z" fill="#69d6f4"/></g><g><path d="m17 8v6c0 .55-.45 1-1 1h-5l-.76 3.03c-.14.57-.65.97-1.24.97s-1.1-.4-1.24-.97l-.76-3.03h-5c-.55 0-1-.45-1-1v-6c0-.55.45-1 1-1h14c.55 0 1 .45 1 1z" fill="#e6e9ed"/></g><g><path d="m19 57c0 1.1-.9 2-2 2h-10c-.55 0-1.05-.22-1.41-.59-.37-.36-.59-.86-.59-1.41 0-1.1.45-2.1 1.17-2.83.73-.72 1.73-1.17 2.83-1.17l.11-.21c.54-1.1 1.66-1.79 2.89-1.79s2.35.69 2.89 1.79l.11.21c1.1 0 2.1.45 2.83 1.17.72.73 1.17 1.73 1.17 2.83z" fill="#e6e9ed"/></g><g><path d="m12 32c.64.64 1 1.51 1 2.41 0 1.01-.45 1.96-1.22 2.61l-4.78 3.98-4.78-3.98c-.77-.65-1.22-1.6-1.22-2.61 0-.9.36-1.77 1-2.41s1.51-1 2.41-1h.18c.9 0 1.77.36 2.41 1 .64-.64 1.51-1 2.41-1h.18c.9 0 1.77.36 2.41 1z" fill="#ff826e"/></g><g><path d="m34.11 7.55c.54.28.89.84.89 1.45s-.35 1.17-.89 1.45l-4.77 2.38c-.22.11-.47.17-.72.17-.9 0-1.62-.72-1.62-1.62v-4.76c0-.9.72-1.62 1.62-1.62.25 0 .5.06.72.17z" fill="#ff826e"/></g></g><g><path d="m43.949 34h4.051v-2h-4.051c-.159-2.077-.809-4.013-1.832-5.704l5.59-5.589-1.414-1.414-5.35 5.349c-2.185-2.595-5.363-4.317-8.943-4.592v-2.11c4.493-.5 8-4.317 8-8.941 0-4.962-4.037-9-9-9s-9 4.038-9 9c0 4.624 3.507 8.442 8 8.941v2.11c-3.58.275-6.759 1.997-8.943 4.592l-5.35-5.35-1.414 1.414 5.59 5.59c-1.023 1.691-1.673 3.627-1.832 5.703h-2.051v2h2.051c.275 3.58 1.997 6.759 4.592 8.943l-5.349 5.35 1.414 1.414 5.589-5.59c1.691 1.023 3.627 1.673 5.704 1.832v4.052h2v-4.051c2.076-.159 4.013-.809 5.704-1.832l5.589 5.59 1.414-1.414-5.349-5.35c2.593-2.184 4.316-5.363 4.59-8.943zm-11.259 9.856 1.416-2.831c.484-.969.876-1.983 1.178-3.025h5.502c-1.578 3.076-4.559 5.307-8.096 5.856zm-12.69-10.856c0-1.041.155-2.045.426-3h5.831c-.168.991-.257 1.995-.257 3s.089 2.009.257 3h-5.831c-.271-.955-.426-1.959-.426-3zm8 0c0-1.007.122-2.01.312-3h5.376c.19.99.312 1.993.312 3s-.122 2.01-.312 3h-5.376c-.19-.99-.312-1.993-.312-3zm3-9.763 1.316 2.633c.343.685.617 1.402.857 2.13h-4.347c.24-.728.514-1.445.857-2.13zm11 9.763c0 1.041-.155 2.045-.426 3h-5.831c.168-.991.257-1.995.257-3s-.089-2.009-.257-3h5.831c.271.955.426 1.959.426 3zm-8.827 5c-.24.728-.514 1.445-.857 2.13l-1.316 2.633-1.316-2.633c-.343-.685-.617-1.402-.857-2.13zm7.613-10h-5.502c-.302-1.041-.694-2.056-1.178-3.025l-1.416-2.831c3.537.549 6.518 2.78 8.096 5.856zm-16.786-19c0-3.86 3.141-7 7-7s7 3.14 7 7-3.141 7-7 7-7-3.14-7-7zm5.31 13.144-1.416 2.831c-.484.969-.876 1.983-1.178 3.025h-5.502c1.578-3.076 4.559-5.307 8.096-5.856zm-8.096 15.856h5.502c.302 1.041.694 2.056 1.178 3.025l1.416 2.831c-3.537-.549-6.518-2.78-8.096-5.856z"/><path d="m36 9c0-.998-.555-1.896-1.447-2.342l-4.764-2.382c-.361-.18-.767-.276-1.171-.276-1.443 0-2.618 1.174-2.618 2.618v4.764c0 1.444 1.175 2.618 2.618 2.618.404 0 .81-.096 1.171-.276l4.764-2.382c.892-.446 1.447-1.344 1.447-2.342zm-2.342.553-4.764 2.382c-.386.196-.894-.117-.894-.553v-4.764c0-.341.277-.618.618-.618.096 0 .191.022.276.065l4.764 2.382c.211.106.342.317.342.553s-.131.447-.342.553z"/><path d="m30 60h2v2h-2z"/><path d="m31 56c-2.213 0-4.268 1.1-5.496 2.941l-.336.504 1.664 1.109.336-.504c.856-1.283 2.289-2.05 3.832-2.05s2.976.767 3.832 2.051l.336.504 1.664-1.109-.336-.504c-1.228-1.842-3.283-2.942-5.496-2.942z"/><path d="m31 52c-2.847 0-5.522 1.108-7.534 3.121l-.172.171 1.412 1.416.173-.172c1.635-1.636 3.809-2.536 6.121-2.536s4.486.9 6.122 2.537l.172.171 1.412-1.416-.171-.17c-2.013-2.014-4.688-3.122-7.535-3.122z"/><path d="m58.879 37c-.822 0-1.626.333-2.207.914l-.022.022c-.379-.142-.65-.508-.65-.936v-.382l.081-.041c1.184-.591 1.919-1.781 1.919-3.105 0-1.914-1.558-3.472-3.472-3.472-2.497 0-4.528 2.031-4.528 4.528v1.351c0 4.478 3.644 8.121 8.121 8.121 2.139 0 3.879-1.74 3.879-3.879 0-1.721-1.4-3.121-3.121-3.121zm-.758 5c-3.375 0-6.121-2.746-6.121-6.121v-1.351c0-1.394 1.134-2.528 2.528-2.528.812 0 1.472.661 1.472 1.472 0 .561-.312 1.065-.813 1.316l-1.187.594v1.618c0 1.654 1.346 3 3 3h.414l.672-.672c.209-.208.498-.328.793-.328.618 0 1.121.503 1.121 1.121 0 1.036-.843 1.879-1.879 1.879z"/><path d="m55.953 54.461.719-.719c.856-.856 1.328-1.994 1.328-3.206 0-2.501-2.034-4.536-4.535-4.536h-2.93c-2.501 0-4.535 2.035-4.535 4.536 0 1.212.472 2.351 1.328 3.208l.719.718c.11.946.537 1.792 1.191 2.419-.934.651-1.643 1.618-1.935 2.787l-.584 2.332h10.563l-.584-2.332c-.292-1.169-1-2.136-1.935-2.787.653-.627 1.08-1.474 1.19-2.42zm-5.418-6.461h2.93c1.397 0 2.535 1.138 2.535 2.536 0 .462-.131.9-.361 1.287-.316-.51-.817-.898-1.432-1.052l-2.753-.688c-.222-.055-.447-.083-.673-.083-1.121 0-2.085.671-2.524 1.629-.162-.338-.257-.707-.257-1.093 0-1.398 1.138-2.536 2.535-2.536zm4.18 12h-5.43c.367-1.186 1.462-2 2.715-2s2.348.814 2.715 2zm-4.715-6v-1.219c0-.431.351-.781.781-.781.063 0 .127.008.189.023l2.752.688c.164.041.278.187.278.356v.933c0 1.103-.897 2-2 2s-2-.897-2-2z"/><path d="m15.622 52.039c-.765-1.266-2.123-2.039-3.622-2.039s-2.857.773-3.622 2.039c-2.465.307-4.378 2.415-4.378 4.961 0 1.654 1.346 3 3 3h10c1.654 0 3-1.346 3-3 0-2.546-1.913-4.654-4.378-4.961zm1.378 5.961h-10c-.552 0-1-.449-1-1 0-1.654 1.346-3 3-3h.618l.382-.764c.381-.762 1.147-1.236 2-1.236s1.619.474 2 1.236l.382.764h.618c1.654 0 3 1.346 3 3 0 .551-.448 1-1 1z"/><path d="m12.418 37.787c1.005-.838 1.582-2.07 1.582-3.379 0-1.174-.457-2.278-1.293-3.115-.834-.834-1.942-1.293-3.121-1.293h-.172c-.87 0-1.702.25-2.414.717-.712-.467-1.544-.717-2.414-.717h-.172c-1.179 0-2.287.459-3.127 1.298-.83.831-1.287 1.936-1.287 3.11 0 1.31.577 2.541 1.582 3.379l5.418 4.515zm-10.418-3.379c0-.64.25-1.243.707-1.7.456-.457 1.063-.708 1.707-.708h.172c.645 0 1.251.251 1.707.708l.707.706.707-.706c.456-.457 1.063-.708 1.707-.708h.172c.645 0 1.251.251 1.711.711.453.454.703 1.057.703 1.697 0 .714-.314 1.386-.863 1.843l-4.137 3.447-4.137-3.447c-.549-.457-.863-1.129-.863-1.843z"/><path d="m4 10h2v2h-2z"/><path d="m8 10h2v2h-2z"/><path d="m12 10h2v2h-2z"/><path d="m2 16h4.22l.568 2.272c.254 1.018 1.164 1.728 2.212 1.728s1.958-.71 2.212-1.728l.568-2.272h4.22c1.103 0 2-.897 2-2v-6c0-1.103-.897-2-2-2h-14c-1.103 0-2 .897-2 2v6c0 1.103.897 2 2 2zm0-8h14v6h-5.78l-.947 3.787c-.063.251-.482.251-.545 0l-.948-3.787h-5.78z"/><path d="m55.962 7.625c-.176-.924-.988-1.625-1.962-1.625h-8c-1.103 0-2 .897-2 2v8c0 1.103.897 2 2 2h8c.974 0 1.786-.701 1.962-1.625l6.038 2.012v-12.774zm-9.962 8.375v-8h8l.001 8zm14-.387-4-1.334v-4.558l4-1.334z"/></g></g></svg>