<svg width="24" height="24" viewBox="0 0 24 24" fill="none" xmlns="http://www.w3.org/2000/svg">
<path d="M6.03809 14.1816C6.03809 15.1001 7.20898 15.9111 8.70215 15.9111C10.394 15.9111 11.5918 14.9927 11.5918 13.6982C11.5918 12.7637 10.9312 12.0171 10.0503 11.9526V11.8345C10.7915 11.7432 11.377 11.0396 11.377 10.25C11.377 9.09521 10.2812 8.28418 8.71289 8.28418C7.2627 8.28418 6.11865 9.06299 6.11865 9.94922C6.11865 10.3467 6.41406 10.626 6.82764 10.626C7.10693 10.626 7.33252 10.5132 7.52588 10.2607C7.85352 9.82568 8.21875 9.62158 8.68066 9.62158C9.28223 9.62158 9.70117 9.96533 9.70117 10.4648C9.70117 10.9644 9.27148 11.3296 8.69141 11.3296H8.27246C7.89648 11.3296 7.62793 11.6196 7.62793 11.9956C7.62793 12.3877 7.90186 12.6724 8.27246 12.6724H8.70752C9.40576 12.6724 9.87305 13.0591 9.87305 13.6284C9.87305 14.2031 9.41113 14.5737 8.70215 14.5737C8.18115 14.5737 7.75684 14.3481 7.4292 13.9077C7.1875 13.6069 6.97266 13.4834 6.71484 13.4834C6.32275 13.4834 6.03809 13.7734 6.03809 14.1816Z" fill="black"/>
<path d="M12.2686 12.2856C12.2686 14.4985 13.3643 15.9111 15.1582 15.9111C16.9521 15.9111 18.0854 14.4663 18.0854 12.2856V11.8936C18.0854 9.68066 17.0059 8.28418 15.1958 8.28418C13.3911 8.28418 12.2686 9.70752 12.2686 11.8936V12.2856ZM14.0518 11.8989C14.0518 10.5078 14.4653 9.70215 15.1743 9.70215C15.8833 9.70215 16.3076 10.5132 16.3076 11.8989V12.2803C16.3076 13.6714 15.8833 14.4932 15.1797 14.4932C14.4707 14.4932 14.0518 13.6768 14.0518 12.2803V11.8989Z" fill="black"/>
<path d="M11.4607 0.0809335C11.1796 0.222001 11 0.524565 11 0.85715V2.04938C5.94668 2.5511 2 6.81465 2 12C2 17.5228 6.47715 22 12 22C17.5228 22 22 17.5228 22 12C22 9.6195 21.167 7.43086 19.7774 5.71362C19.43 5.28429 18.8003 5.21789 18.371 5.5653C17.9416 5.91271 17.8752 6.54238 18.2226 6.97171C19.3346 8.34592 20 10.0939 20 12C20 16.4183 16.4183 20 12 20C7.58172 20 4 16.4183 4 12C4 7.92038 7.05369 4.55399 11 4.06189V5.14285C11 5.47544 11.1796 5.778 11.4607 5.91907C11.7418 6.06013 12.0737 6.01424 12.3121 5.80132L14.7121 3.65847C14.8945 3.49562 15 3.25438 15 3C15 2.74562 14.8945 2.50438 14.7121 2.34153L12.3121 0.198677C12.0737 -0.0142387 11.7418 -0.0601344 11.4607 0.0809335Z" fill="black"/>
</svg>
