<svg width="24" height="24" viewBox="0 0 24 24" fill="none" xmlns="http://www.w3.org/2000/svg">
<path d="M3.00195 4C3.00195 3.44772 3.44967 3 4.00195 3H20.002C20.5542 3 21.002 3.44772 21.002 4C21.002 4.55228 20.5542 5 20.002 5H4.00195C3.44967 5 3.00195 4.55228 3.00195 4Z" fill="black"/>
<path d="M3.00195 8C3.00195 7.44772 3.44967 7 4.00195 7H10.502C11.0542 7 11.502 7.44772 11.502 8C11.502 8.55228 11.0542 9 10.502 9H4.00195C3.44967 9 3.00195 8.55228 3.00195 8Z" fill="black"/>
<path d="M4 11C3.44772 11 3 11.4477 3 12C3 12.5523 3.44772 13 4 13H7.0022C7.55448 13 8.0022 12.5523 8.0022 12C8.0022 11.4477 7.55448 11 7.0022 11H4Z" fill="black"/>
<path d="M18.5513 7.99997C17.7703 7.21892 16.5039 7.21892 15.7229 7.99997L7.29485 16.428C7.10731 16.6155 7.00195 16.8699 7.00195 17.1351V21C7.00195 21.5523 7.44967 22 8.00195 22H11.8668C12.132 22 12.3864 21.8946 12.5739 21.7071L21.002 13.279C21.783 12.498 21.783 11.2317 21.002 10.4506L18.5513 7.99997Z" fill="black"/>
</svg>
