<svg width="24" height="24" viewBox="0 0 24 24" fill="none" xmlns="http://www.w3.org/2000/svg">
<path d="M12.7507 3.75C12.7507 3.33579 12.4149 3 12.0007 3C11.5865 3 11.2507 3.33579 11.2507 3.75V6.25C11.2507 6.66421 11.5865 7 12.0007 7C12.4149 7 12.7507 6.66421 12.7507 6.25V3.75Z" fill="black"/>
<path d="M7.26594 5.19799C6.99969 4.88068 6.52662 4.8393 6.20932 5.10555C5.89201 5.3718 5.85062 5.84487 6.11687 6.16217L7.72384 8.07728C7.99009 8.39459 8.46316 8.43598 8.78047 8.16973C9.09777 7.90347 9.13916 7.43041 8.87291 7.1131L7.26594 5.19799Z" fill="black"/>
<path d="M17.8726 6.16227C18.1389 5.84496 18.0975 5.37189 17.7802 5.10564C17.4629 4.83939 16.9898 4.88078 16.7235 5.19809L15.1166 7.1132C14.8503 7.4305 14.8917 7.90357 15.209 8.16982C15.5263 8.43607 15.9994 8.39468 16.2656 8.07738L17.8726 6.16227Z" fill="black"/>
<path d="M5.22073 9C4.33013 9 3.52687 9.5355 3.18434 10.3576L2.78846 11.3077C2.61378 11.7269 2.20416 12 1.75 12C1.33579 12 1 12.3358 1 12.75V19C1 19.5523 1.44771 20 2 20H7.38937C9.39779 20 11.0763 18.4715 11.2637 16.4719L11.4255 14.746C11.6391 12.468 9.84697 10.5 7.559 10.5C7.46053 10.5 7.36858 10.4508 7.31396 10.3689L7.0563 9.98237C6.64715 9.36864 5.95834 9 5.22073 9Z" fill="black"/>
<path d="M18.722 9C17.9844 9 17.2956 9.36864 16.8865 9.98237L16.6288 10.3689C16.5742 10.4508 16.4822 10.5 16.3838 10.5C14.0958 10.5 12.3037 12.468 12.5172 14.746L12.679 16.4719C12.8665 18.4715 14.545 20 16.5534 20H21.9428C22.495 20 22.9428 19.5523 22.9428 19V12.75C22.9428 12.3358 22.607 12 22.1928 12C21.7386 12 21.329 11.7269 21.1543 11.3077L20.7584 10.3576C20.4159 9.5355 19.6126 9 18.722 9Z" fill="black"/>
</svg>
