<svg width="24" height="24" viewBox="0 0 24 24" fill="none" xmlns="http://www.w3.org/2000/svg">
<path fill-rule="evenodd" clip-rule="evenodd" d="M6.58092 4C5.8632 4 5.20052 4.38457 4.84443 5.00772L1.41586 11.0077C1.06451 11.6226 1.06451 12.3774 1.41586 12.9923L4.84443 18.9923C5.20051 19.6154 5.8632 20 6.58091 20H20.0006C21.1052 20 22.0006 19.1046 22.0006 18V6C22.0006 4.89543 21.1052 4 20.0006 4H6.58092ZM11.7071 9.29289C11.3166 8.90237 10.6834 8.90237 10.2929 9.29289C9.90237 9.68342 9.90237 10.3166 10.2929 10.7071L11.5858 12L10.2929 13.2929C9.90237 13.6834 9.90237 14.3166 10.2929 14.7071C10.6834 15.0976 11.3166 15.0976 11.7071 14.7071L13 13.4142L14.2929 14.7071C14.6834 15.0976 15.3166 15.0976 15.7071 14.7071C16.0976 14.3166 16.0976 13.6834 15.7071 13.2929L14.4142 12L15.7071 10.7071C16.0976 10.3166 16.0976 9.68342 15.7071 9.29289C15.3166 8.90237 14.6834 8.90237 14.2929 9.29289L13 10.5858L11.7071 9.29289Z" fill="black"/>
</svg>
