<svg width="24" height="24" viewBox="0 0 24 24" fill="none" xmlns="http://www.w3.org/2000/svg">
<path fill-rule="evenodd" clip-rule="evenodd" d="M18.6693 4.50445C19.144 4.22213 19.7576 4.37807 20.04 4.85274C21.2847 6.94562 21.9994 9.39078 21.9994 11.9998C21.9994 14.6088 21.2847 17.054 20.04 19.1469C19.7576 19.6215 19.144 19.7775 18.6693 19.4952C18.1946 19.2128 18.0387 18.5992 18.321 18.1245C19.3869 16.3324 19.9994 14.2391 19.9994 11.9998C19.9994 9.76049 19.3869 7.66726 18.321 5.87511C18.0387 5.40044 18.1946 4.78678 18.6693 4.50445ZM15.4841 6.9012C15.9718 6.64215 16.5772 6.82756 16.8363 7.31532C17.579 8.71378 17.9994 10.3092 17.9994 11.9998C17.9994 13.6904 17.579 15.2858 16.8363 16.6843C16.5772 17.1721 15.9718 17.3575 15.4841 17.0984C14.9963 16.8394 14.8109 16.234 15.07 15.7462C15.663 14.6296 15.9994 13.3555 15.9994 11.9998C15.9994 10.6442 15.663 9.37002 15.07 8.25342C14.8109 7.76566 14.9963 7.16025 15.4841 6.9012ZM10.201 7.39924C10.5327 6.95769 11.1596 6.86867 11.6012 7.20042C13.0559 8.2934 14 10.0365 14 11.9999C14 12.7419 13.8649 13.4545 13.617 14.1132C13.2111 15.1917 12.5046 16.1207 11.6009 16.7996C11.2617 17.0544 10.7986 17.0675 10.4456 16.8322L6.44531 14.1654C5.98578 13.859 5.8616 13.2382 6.16794 12.7786C6.47429 12.3191 7.09516 12.1949 7.55469 12.5013L10.9136 14.7405C11.2729 14.3588 11.5576 13.907 11.7452 13.4087C11.9096 12.9718 12 12.4976 12 11.9999C12 10.6921 11.3734 9.53088 10.3998 8.7994C9.95826 8.46766 9.86925 7.84078 10.201 7.39924ZM4.39884 7.20042C4.73805 6.94556 5.20115 6.93251 5.55418 7.16784L9.55467 9.83464C10.0142 10.141 10.1384 10.7618 9.83207 11.2214C9.52573 11.6809 8.90487 11.8051 8.44533 11.4988L5.08618 9.25951C4.72702 9.64122 4.44231 10.093 4.25479 10.5913C4.0904 11.0281 4 11.5023 4 11.9999C4 13.3077 4.6266 14.4689 5.60019 15.2004C6.04174 15.5322 6.13075 16.159 5.79901 16.6006C5.46726 17.0421 4.84039 17.1311 4.39884 16.7994C2.94409 15.7064 2 13.9633 2 11.9999C2 11.258 2.13511 10.5454 2.38296 9.88684C2.78883 8.80838 3.49516 7.87937 4.39884 7.20042Z" fill="black"/>
</svg>
