<svg width="24" height="24" viewBox="0 0 24 24" fill="none" xmlns="http://www.w3.org/2000/svg">
<path d="M6.02309 3.98197C3.58107 5.80529 2 8.71801 2 12C2 17.5228 6.47715 22 12 22C17.5228 22 22 17.5228 22 12C22 8.71801 20.4189 5.8053 17.9769 3.98198L15.9014 7.44119C17.1848 8.54068 18 10.1746 18 11.9996C18 15.3133 15.3137 17.9996 12 17.9996C8.68629 17.9996 6 15.3133 6 11.9996C6 10.1746 6.81524 8.54067 8.09862 7.44118L6.02309 3.98197Z" fill="black"/>
<path d="M16.2628 2.9515L12.0336 10.0003L12 10L11.9665 10.0003L7.73718 2.95149C9.03029 2.34123 10.4753 2 12 2C13.5247 2 14.9697 2.34123 16.2628 2.9515Z" fill="black"/>
<path d="M9.14972 9.19302L10.2512 11.0288C10.0912 11.3164 10 11.6476 10 12C10 13.1046 10.8954 14 12 14C13.1046 14 14 13.1046 14 12C14 11.6476 13.9088 11.3164 13.7488 11.0288L14.8503 9.19303C15.5622 9.9158 16 10.9068 16 11.9996C16 14.2087 14.2091 15.9996 12 15.9996C9.79086 15.9996 8 14.2087 8 11.9996C8 10.9068 8.43786 9.91579 9.14972 9.19302Z" fill="black"/>
</svg>
