<svg width="24" height="24" viewBox="0 0 24 24" fill="none" xmlns="http://www.w3.org/2000/svg">
<path d="M11.5 17.9381V17.4966L11.0619 17.4419C7.36271 16.9807 4.5 13.8243 4.5 10C4.5 5.85786 7.85786 2.5 12 2.5C16.1421 2.5 19.5 5.85786 19.5 10C19.5 13.8243 16.6373 16.9807 12.9381 17.4419L12.5 17.4966V17.9381V20V20.5H13H17C17.2761 20.5 17.5 20.7239 17.5 21C17.5 21.2761 17.2761 21.5 17 21.5H7C6.72386 21.5 6.5 21.2761 6.5 21C6.5 20.7239 6.72386 20.5 7 20.5H11H11.5V20V17.9381ZM10.5 10C10.5 9.17157 11.1716 8.5 12 8.5C12.8284 8.5 13.5 9.17157 13.5 10C13.5 10.8284 12.8284 11.5 12 11.5C11.1716 11.5 10.5 10.8284 10.5 10ZM12 5.5C9.51472 5.5 7.5 7.51472 7.5 10C7.5 12.4853 9.51472 14.5 12 14.5C14.4853 14.5 16.5 12.4853 16.5 10C16.5 7.51472 14.4853 5.5 12 5.5Z" fill="black" stroke="black"/>
</svg>
