<svg width="24" height="24" viewBox="0 0 24 24" fill="none" xmlns="http://www.w3.org/2000/svg">
<path d="M15.5355 15.5316C17.4882 13.5723 17.4882 10.3976 15.5355 8.4383C13.6227 6.52057 10.3744 6.52057 8.46454 8.4383C6.51182 10.3976 6.51182 13.5723 8.46454 15.5316C10.4158 17.4895 13.5827 17.4895 15.5355 15.5316ZM15.5355 15.5316L14.8569 14.8571L12.7142 12.7143M20 5.6V18.4C20 18.96 20 19.2401 19.891 19.454C19.7951 19.6421 19.6422 19.7951 19.454 19.891C19.2401 20 18.9601 20 18.4 20H5.6C5.03995 20 4.75992 20 4.54601 19.891C4.35785 19.7951 4.20487 19.6421 4.10899 19.454C4 19.2401 4 18.96 4 18.4V5.6C4 5.03995 4 4.75992 4.10899 4.54601C4.20487 4.35785 4.35785 4.20487 4.54601 4.10899C4.75992 4 5.03995 4 5.6 4H18.4C18.9601 4 19.2401 4 19.454 4.10899C19.6422 4.20487 19.7951 4.35785 19.891 4.54601C20 4.75992 20 5.03995 20 5.6Z" stroke="black" stroke-width="2" stroke-linecap="round" stroke-linejoin="round"/>
</svg>
