<svg width="24" height="24" viewBox="0 0 24 24" fill="none" xmlns="http://www.w3.org/2000/svg">
<path d="M5 12V19C5 19.5523 5.44772 20 6 20H18C18.5523 20 19 19.5523 19 19V12M5 12H19M5 12C4.44772 12 4 11.5523 4 11V9C4 8.44772 4.44772 8 5 8H19C19.5523 8 20 8.44772 20 9V11C20 11.5523 19.5523 12 19 12M12 8V6.33333M12 8H10.3333C8.49238 8 7 6.50762 7 4.66667C7 3.74619 7.74619 3 8.66667 3C10.5076 3 12 4.49238 12 6.33333M12 8H13.6667C15.5076 8 17 6.50762 17 4.66667C17 3.74619 16.2538 3 15.3333 3C13.4924 3 12 4.49238 12 6.33333M12 8V20" stroke="black" stroke-width="2"/>
</svg>
