<svg width="24" height="24" viewBox="0 0 24 24" fill="none" xmlns="http://www.w3.org/2000/svg">
<path fill-rule="evenodd" clip-rule="evenodd" d="M17 3C17.5523 3 18 3.44772 18 4V17.8358L20.2929 15.5429C20.6834 15.1524 21.3166 15.1524 21.7071 15.5429C22.0976 15.9334 22.0976 16.5666 21.7071 16.9571L18.2374 20.4268C17.554 21.1102 16.446 21.1102 15.7626 20.4268L12.2929 16.9571C11.9024 16.5666 11.9024 15.9334 12.2929 15.5429C12.6834 15.1524 13.3166 15.1524 13.7071 15.5429L16 17.8358V4C16 3.44772 16.4477 3 17 3ZM8 6.16421L10.2929 8.45711C10.6834 8.84763 11.3166 8.84763 11.7071 8.45711C12.0976 8.06658 12.0976 7.43342 11.7071 7.04289L8.23744 3.57322C7.55402 2.8898 6.44598 2.88981 5.76256 3.57322L2.29289 7.04289C1.90237 7.43342 1.90237 8.06658 2.29289 8.45711C2.68342 8.84763 3.31658 8.84763 3.70711 8.45711L6 6.16421V20C6 20.5523 6.44772 21 7 21C7.55228 21 8 20.5523 8 20V6.16421Z" fill="black"/>
</svg>
