<svg width="24" height="24" viewBox="0 0 24 24" fill="none" xmlns="http://www.w3.org/2000/svg">
<path d="M4 8H20M5 20H19C19.5523 20 20 19.5523 20 19V5C20 4.44772 19.5523 4 19 4H5C4.44772 4 4 4.44772 4 5V19C4 19.5523 4.44772 20 5 20Z" stroke="black" stroke-width="2" stroke-linecap="round" stroke-linejoin="round"/>
<path d="M9.25 12C9.25 12.6904 8.69036 13.25 8 13.25C7.30964 13.25 6.75 12.6904 6.75 12C6.75 11.3096 7.30964 10.75 8 10.75C8.69036 10.75 9.25 11.3096 9.25 12Z" fill="black"/>
<path d="M9.25 16C9.25 16.6904 8.69036 17.25 8 17.25C7.30964 17.25 6.75 16.6904 6.75 16C6.75 15.3096 7.30964 14.75 8 14.75C8.69036 14.75 9.25 15.3096 9.25 16Z" fill="black"/>
<path d="M13.25 12C13.25 12.6904 12.6904 13.25 12 13.25C11.3096 13.25 10.75 12.6904 10.75 12C10.75 11.3096 11.3096 10.75 12 10.75C12.6904 10.75 13.25 11.3096 13.25 12Z" fill="black"/>
<path d="M13.25 16C13.25 16.6904 12.6904 17.25 12 17.25C11.3096 17.25 10.75 16.6904 10.75 16C10.75 15.3096 11.3096 14.75 12 14.75C12.6904 14.75 13.25 15.3096 13.25 16Z" fill="black"/>
<path d="M17.25 12C17.25 12.6904 16.6904 13.25 16 13.25C15.3096 13.25 14.75 12.6904 14.75 12C14.75 11.3096 15.3096 10.75 16 10.75C16.6904 10.75 17.25 11.3096 17.25 12Z" fill="black"/>
</svg>
