<svg width="24" height="24" viewBox="0 0 24 24" fill="none" xmlns="http://www.w3.org/2000/svg">
<path d="M9 6C8.44772 6 8 6.44772 8 7C8 7.55228 8.44772 8 9 8V6ZM15 8C15.5523 8 16 7.55228 16 7C16 6.44772 15.5523 6 15 6V8ZM9 10C8.44772 10 8 10.4477 8 11C8 11.5523 8.44772 12 9 12V10ZM12 12C12.5523 12 13 11.5523 13 11C13 10.4477 12.5523 10 12 10V12ZM7 4H18V2H7V4ZM18 4V20H20V4H18ZM18 20H7V22H18V20ZM6 19V5H4V19H6ZM7 20C6.44771 20 6 19.5523 6 19H4C4 20.6569 5.34315 22 7 22V20ZM18 20V22C19.1046 22 20 21.1046 20 20H18ZM18 4H20C20 2.89543 19.1046 2 18 2V4ZM7 2C5.34315 2 4 3.34315 4 5H6C6 4.44772 6.44772 4 7 4V2ZM18 12V16H20V12H18ZM18 16H7V18H18V16ZM7 22H10V20H7V22ZM7 16C5.34315 16 4 17.3431 4 19H6C6 18.4477 6.44772 18 7 18V16ZM18 16V18C19.1046 18 20 17.1046 20 16H18ZM9 8H15V6H9V8ZM9 12H12V10H9V12Z" fill="black"/>
</svg>
