<svg width="24" height="24" viewBox="0 0 24 24" fill="none" xmlns="http://www.w3.org/2000/svg">
<path d="M6 9C6 9.55228 6.44772 10 7 10C7.55229 10 8 9.55228 8 9C8 8.44772 7.55229 8 7 8C6.44772 8 6 8.44772 6 9Z" fill="black"/>
<path d="M6 12C6 12.5523 6.44772 13 7 13C7.55229 13 8 12.5523 8 12C8 11.4477 7.55229 11 7 11C6.44772 11 6 11.4477 6 12Z" fill="black"/>
<path d="M6 15C6 15.5523 6.44772 16 7 16C7.55228 16 8 15.5523 8 15C8 14.4477 7.55228 14 7 14C6.44772 14 6 14.4477 6 15Z" fill="black"/>
<path fill-rule="evenodd" clip-rule="evenodd" d="M4 4C2.89543 4 2 4.89543 2 6V18C2 19.1046 2.89543 20 4 20H20C21.1046 20 22 19.1046 22 18V6C22 4.89543 21.1046 4 20 4H4ZM4 6L10 6V18H4V6Z" fill="black"/>
</svg>
