<svg width="24" height="24" viewBox="0 0 24 24" fill="none" xmlns="http://www.w3.org/2000/svg">
<path fill-rule="evenodd" clip-rule="evenodd" d="M11.1984 1.75924C11.7094 1.53566 12.2906 1.53566 12.8016 1.75924L19.8016 4.82174C20.5296 5.14023 21 5.85946 21 6.65405V13C21 17.9706 16.9706 22 12 22C7.02944 22 3 17.9706 3 13V6.65405C3 5.85946 3.47039 5.14023 4.19836 4.82174L11.1984 1.75924ZM15.7071 10.7071C16.0976 10.3166 16.0976 9.68345 15.7071 9.29292C15.3166 8.9024 14.6834 8.9024 14.2929 9.29292L11 12.5858L9.70711 11.2929C9.31658 10.9024 8.68342 10.9024 8.29289 11.2929C7.90237 11.6834 7.90237 12.3166 8.29289 12.7071L10.2929 14.7071C10.6834 15.0977 11.3166 15.0977 11.7071 14.7071L15.7071 10.7071Z" fill="black"/>
</svg>
