<svg width="24" height="24" viewBox="0 0 24 24" fill="none" xmlns="http://www.w3.org/2000/svg">
<path fill-rule="evenodd" clip-rule="evenodd" d="M9.00214 3C7.89757 3 7.00214 3.89543 7.00214 5V7H4.00024C2.89543 7 1.9999 7.89581 2.00024 9.00063L2.00081 12H21.9999L21.9999 11.9985L21.9999 9C21.9999 7.89543 21.1045 7 19.9999 7H17.0021V5C17.0021 3.89543 16.1067 3 15.0021 3H9.00214ZM15.0021 7V5H9.00214V7H15.0021Z" fill="black"/>
<path d="M2.00213 19L2.00119 14H11.0007L11.0021 16.0007C11.0025 16.553 11.4506 17.0004 12.0029 17C12.5552 16.9996 13.0025 16.5516 13.0021 15.9993L13.0007 14L22.0021 14L22.0021 19C22.0021 20.1046 21.1067 21 20.0021 21H4.00213C2.89756 21 2.00213 20.1046 2.00213 19Z" fill="black"/>
</svg>
