<svg width="24" height="24" viewBox="0 0 24 24" fill="none" xmlns="http://www.w3.org/2000/svg">
<path d="M12 1C12.5523 1 13 1.44772 13 2V5.58579L14.2929 4.29289C14.6834 3.90237 15.3166 3.90237 15.7071 4.29289C16.0976 4.68342 16.0976 5.31658 15.7071 5.70711L12.7071 8.70711C12.3166 9.09763 11.6834 9.09763 11.2929 8.70711L8.29289 5.70711C7.90237 5.31658 7.90237 4.68342 8.29289 4.29289C8.68342 3.90237 9.31658 3.90237 9.70711 4.29289L11 5.58579V2C11 1.44772 11.4477 1 12 1Z" fill="black"/>
<path d="M17.3615 11.5005C17.0065 11.0774 17.0617 10.4467 17.4848 10.0917L18.2508 9.44888C18.6739 9.09387 19.3047 9.14906 19.6597 9.57213C20.0147 9.99521 19.9595 10.626 19.5364 10.981L18.7704 11.6238C18.3473 11.9788 17.7165 11.9236 17.3615 11.5005Z" fill="black"/>
<path d="M8 17C7.44772 17 7 16.5523 7 16C7 13.2386 9.23858 11 12 11C14.7614 11 17 13.2386 17 16C17 16.5523 16.5523 17 16 17C14.3023 17 9.6977 17 8 17Z" fill="black"/>
<path d="M2 20C2 19.4477 2.44772 19 3 19H21C21.5523 19 22 19.4477 22 20C22 20.5523 21.5523 21 21 21H3C2.44772 21 2 20.5523 2 20Z" fill="black"/>
<path d="M3 15C2.44772 15 2 15.4477 2 16C2 16.5523 2.44772 17 3 17H4C4.55228 17 5 16.5523 5 16C5 15.4477 4.55228 15 4 15H3Z" fill="black"/>
<path d="M20 15C19.4477 15 19 15.4477 19 16C19 16.5523 19.4477 17 20 17H21C21.5523 17 22 16.5523 22 16C22 15.4477 21.5523 15 21 15H20Z" fill="black"/>
<path d="M5.74651 9.44888C5.32344 9.09388 4.69268 9.14906 4.33768 9.57214C3.98268 9.99521 4.03786 10.626 4.46094 10.981L5.22698 11.6238C5.65006 11.9788 6.28081 11.9236 6.63581 11.5005C6.99082 11.0774 6.93563 10.4467 6.51256 10.0917L5.74651 9.44888Z" fill="black"/>
</svg>
