<svg width="24" height="24" viewBox="0 0 24 24" fill="none" xmlns="http://www.w3.org/2000/svg">
<path d="M4 3C3.44772 3 3 3.44772 3 4C3 4.55228 3.44772 5 4 5H17C17.5523 5 18 4.55228 18 4C18 3.44772 17.5523 3 17 3H4Z" fill="black"/>
<path d="M4 8C3.44772 8 3 8.44772 3 9C3 9.55228 3.44772 10 4 10H9C9.55228 10 10 9.55228 10 9C10 8.44772 9.55228 8 9 8H4Z" fill="black"/>
<path d="M4 14C3.44772 14 3 14.4477 3 15C3 15.5523 3.44772 16 4 16H9C9.55228 16 10 15.5523 10 15C10 14.4477 9.55228 14 9 14H4Z" fill="black"/>
<path d="M4 19C3.44772 19 3 19.4477 3 20C3 20.5523 3.44772 21 4 21H17C17.5523 21 18 20.5523 18 20C18 19.4477 17.5523 19 17 19H4Z" fill="black"/>
<path fill-rule="evenodd" clip-rule="evenodd" d="M16 8C13.7909 8 12 9.79086 12 12C12 14.2091 13.7909 16 16 16C16.7414 16 17.4364 15.7977 18.0318 15.446L19.021 16.4352C19.4115 16.8258 20.0447 16.8258 20.4352 16.4352C20.8258 16.0447 20.8258 15.4115 20.4352 15.021L19.446 14.0318C19.7977 13.4364 20 12.7414 20 12C20 9.79086 18.2091 8 16 8ZM14 12C14 10.8954 14.8954 10 16 10C17.1046 10 18 10.8954 18 12C18 12.5526 17.7772 13.0512 17.4142 13.4142C17.0512 13.7772 16.5526 14 16 14C14.8954 14 14 13.1046 14 12Z" fill="black"/>
</svg>
