<svg width="24" height="24" viewBox="0 0 24 24" fill="none" xmlns="http://www.w3.org/2000/svg">
<path d="M7 11C6.44772 11 6 11.4477 6 12C6 12.5523 6.44772 13 7 13V11ZM17 13C17.5523 13 18 12.5523 18 12C18 11.4477 17.5523 11 17 11V13ZM16 16C15.4477 16 15 16.4477 15 17C15 17.5523 15.4477 18 16 18V16ZM16 6C15.4477 6 15 6.44772 15 7C15 7.55228 15.4477 8 16 8V6ZM8 18C8.55228 18 9 17.5523 9 17C9 16.4477 8.55228 16 8 16V18ZM8 8C8.55228 8 9 7.55228 9 7C9 6.44772 8.55228 6 8 6V8ZM7 13H17V11H7V13ZM21 8V16H23V8H21ZM21 16H16V18H21V16ZM16 8H21V6H16V8ZM1 8V16H3V8H1ZM3 18H8V16H3V18ZM8 6H3V8H8V6ZM3 8V6C1.89543 6 1 6.89543 1 8H3ZM21 16V18C22.1046 18 23 17.1046 23 16H21ZM1 16C1 17.1046 1.89543 18 3 18V16H1ZM23 8C23 6.89543 22.1046 6 21 6V8H23Z" fill="black"/>
</svg>
