<svg width="24" height="24" viewBox="0 0 24 24" fill="none" xmlns="http://www.w3.org/2000/svg">
<path fill-rule="evenodd" clip-rule="evenodd" d="M9.56811 3C9.31573 2.99997 9.06993 2.99994 8.86178 3.01695C8.63318 3.03563 8.36345 3.07969 8.09202 3.21799C7.7157 3.40974 7.40974 3.7157 7.21799 4.09202C7.07969 4.36345 7.03563 4.63318 7.01695 4.86178C6.99994 5.06993 6.99997 5.31572 7 5.56809L7.00001 7L5.56811 7C5.31573 6.99997 5.06993 6.99994 4.86178 7.01695C4.63318 7.03563 4.36345 7.07969 4.09202 7.21799C3.7157 7.40974 3.40974 7.7157 3.21799 8.09202C3.07969 8.36345 3.03563 8.63318 3.01695 8.86178C2.99994 9.06993 2.99997 9.31572 3 9.5681L3 18.4319C2.99997 18.6843 2.99994 18.9301 3.01695 19.1382C3.03563 19.3668 3.0797 19.6366 3.21799 19.908C3.40974 20.2843 3.7157 20.5903 4.09202 20.782C4.36345 20.9203 4.63318 20.9644 4.86178 20.9831C5.06994 21.0001 5.31574 21 5.56812 21H14.4319C14.6843 21 14.9301 21.0001 15.1382 20.9831C15.3668 20.9644 15.6366 20.9203 15.908 20.782C16.2843 20.5903 16.5903 20.2843 16.782 19.908C16.9203 19.6366 16.9644 19.3668 16.9831 19.1382C17.0001 18.9301 17 18.6843 17 18.4319V17L18.4319 17C18.6843 17 18.9301 17.0001 19.1382 16.9831C19.3668 16.9644 19.6366 16.9203 19.908 16.782C20.2843 16.5903 20.5903 16.2843 20.782 15.908C20.9203 15.6366 20.9644 15.3668 20.9831 15.1382C21.0001 14.9301 21 14.6843 21 14.4319V5.56812C21 5.31574 21.0001 5.06994 20.9831 4.86178C20.9644 4.63318 20.9203 4.36345 20.782 4.09202C20.5903 3.7157 20.2843 3.40974 19.908 3.21799C19.6366 3.07969 19.3668 3.03563 19.1382 3.01695C18.9301 2.99994 18.6843 2.99997 18.4319 3L9.56811 3ZM17 15H18.4C18.6965 15 18.8588 14.9992 18.9754 14.9897L18.9886 14.9886L18.9897 14.9754C18.9992 14.8588 19 14.6965 19 14.4V5.60001C19 5.30348 18.9992 5.14122 18.9897 5.02464L18.9886 5.01145L18.9754 5.01031C18.8588 5.00078 18.6965 5.00001 18.4 5.00001H9.60001C9.30348 5.00001 9.14122 5.00078 9.02464 5.01031L9.01145 5.01145L9.01031 5.02464C9.00078 5.14122 9.00001 5.30348 9.00001 5.60001V7L14.4319 7C14.6843 6.99997 14.9301 6.99994 15.1382 7.01695C15.3668 7.03563 15.6366 7.07969 15.908 7.21799C16.2843 7.40974 16.5903 7.7157 16.782 8.09203C16.9203 8.36345 16.9644 8.63318 16.9831 8.86178C17.0001 9.06994 17 9.31574 17 9.56812V15Z" fill="black"/>
</svg>
