<svg width="24" height="24" viewBox="0 0 24 24" fill="none" xmlns="http://www.w3.org/2000/svg">
<path d="M13.9995 13.2499C13.3723 13.0868 12.7035 13 11.9995 13C8.20391 13 5.43342 15.5235 4.67107 18.9157C4.54186 19.4906 5.00868 20 5.59793 20H10.9995M17.9995 15V18M17.9995 18V21M17.9995 18H14.9995M17.9995 18H20.9995M15.4995 6.5C15.4995 8.433 13.9325 10 11.9995 10C10.0665 10 8.49951 8.433 8.49951 6.5C8.49951 4.567 10.0665 3 11.9995 3C13.9325 3 15.4995 4.567 15.4995 6.5Z" stroke="black" stroke-width="2" stroke-linecap="round" stroke-linejoin="round"/>
</svg>
