<svg width="24" height="24" viewBox="0 0 24 24" fill="none" xmlns="http://www.w3.org/2000/svg">
<path d="M16.2404 5.0176L17.0519 3.39443C17.2362 3.02591 17.7621 3.02591 17.9464 3.39444L18.758 5.0176C18.8063 5.11437 18.8848 5.19283 18.9816 5.24121L20.6047 6.05279C20.9733 6.23706 20.9732 6.76296 20.6047 6.94722L18.9816 7.75881C18.8848 7.80719 18.8063 7.88565 18.7579 7.98241L17.9464 9.60558C17.7621 9.9741 17.2362 9.9741 17.0519 9.60558L16.2404 7.98241C16.192 7.88565 16.1135 7.80719 16.0167 7.75881L14.3936 6.94722C14.0251 6.76296 14.0251 6.23706 14.3936 6.05279L16.0167 5.24121C16.1135 5.19283 16.192 5.11437 16.2404 5.0176Z" fill="black"/>
<path d="M12.0517 3.59971C12.2712 3.28123 12.2873 2.86472 12.0931 2.53021C11.8989 2.19569 11.5292 2.00315 11.1438 2.03581C6.0214 2.46985 2 6.76372 2 11.9979C2 17.5197 6.47632 21.996 11.9981 21.996C17.2324 21.996 21.5264 17.9745 21.9602 12.8519C21.9929 12.4664 21.8003 12.0968 21.4658 11.9026C21.1313 11.7084 20.7148 11.7246 20.3963 11.9441C19.4302 12.61 18.2602 12.9998 16.9961 12.9998C13.6824 12.9998 10.9961 10.3135 10.9961 6.99976C10.9961 5.73577 11.3858 4.56582 12.0517 3.59971Z" fill="black"/>
</svg>
