<svg width="24" height="24" viewBox="0 0 24 24" fill="none" xmlns="http://www.w3.org/2000/svg">
<path fill-rule="evenodd" clip-rule="evenodd" d="M4 2C2.89543 2 2 2.89543 2 4V16.5C2 19.5376 4.46243 22 7.5 22C8.53599 22 9.50508 21.7136 10.3324 21.2156L21.0753 15.0131C22.0319 14.4609 22.3597 13.2377 21.8074 12.2811L18.7208 6.93501C18.5933 6.43092 18.2694 5.97419 17.7817 5.69263L12.4322 2.60411C12.07 2.23262 11.562 2 11 2H4ZM20.0753 13.2811L13.5272 17.0616L17.8926 9.50055L20.0753 13.2811ZM16.7817 7.42468L13 13.9748V5.2413L16.7817 7.42468ZM7.5 18.25C8.4665 18.25 9.25 17.4665 9.25 16.5C9.25 15.5335 8.4665 14.75 7.5 14.75C6.5335 14.75 5.75 15.5335 5.75 16.5C5.75 17.4665 6.5335 18.25 7.5 18.25Z" fill="black"/>
</svg>
