<svg width="24" height="24" viewBox="0 0 24 24" fill="none" xmlns="http://www.w3.org/2000/svg">
<path d="M9 4C9 3.44772 8.55228 3 8 3C7.44772 3 7 3.44772 7 4V20C7 20.5523 7.44772 21 8 21C8.55228 21 9 20.5523 9 20V4Z" fill="black"/>
<path d="M17 6C17 5.44772 16.5523 5 16 5C15.4477 5 15 5.44772 15 6V18C15 18.5523 15.4477 19 16 19C16.5523 19 17 18.5523 17 18V6Z" fill="black"/>
<path d="M13 8C13 7.44772 12.5523 7 12 7C11.4477 7 11 7.44772 11 8V16C11 16.5523 11.4477 17 12 17C12.5523 17 13 16.5523 13 16V8Z" fill="black"/>
<path d="M5 10C5 9.44772 4.55228 9 4 9C3.44772 9 3 9.44772 3 10V14C3 14.5523 3.44772 15 4 15C4.55228 15 5 14.5523 5 14V10Z" fill="black"/>
<path d="M21 10C21 9.44772 20.5523 9 20 9C19.4477 9 19 9.44772 19 10V14C19 14.5523 19.4477 15 20 15C20.5523 15 21 14.5523 21 14V10Z" fill="black"/>
</svg>
