<svg width="24" height="24" viewBox="0 0 24 24" fill="none" xmlns="http://www.w3.org/2000/svg">
<path fill-rule="evenodd" clip-rule="evenodd" d="M12 2C6.47715 2 2 6.47715 2 12C2 17.5228 6.47715 22 12 22C17.5228 22 22 17.5228 22 12C22 6.47715 17.5228 2 12 2ZM15.774 10.1333C16.1237 9.70582 16.0607 9.0758 15.6332 8.72607C15.2058 8.37635 14.5758 8.43935 14.226 8.86679L10.4258 13.5116L9.20711 12.2929C8.81658 11.9024 8.18342 11.9024 7.79289 12.2929C7.40237 12.6834 7.40237 13.3166 7.79289 13.7071L9.79289 15.7071C9.99267 15.9069 10.2676 16.0129 10.5498 15.9988C10.832 15.9847 11.095 15.8519 11.274 15.6333L15.774 10.1333Z" fill="black"/>
</svg>
