<svg width="24" height="24" viewBox="0 0 24 24" fill="none" xmlns="http://www.w3.org/2000/svg">
<path d="M19.2487 1.94035C19.1783 1.97338 19.0548 2.04231 18.9758 2.09257C18.792 2.20889 18.7317 2.23617 18.657 2.23617C18.6039 2.23617 18.5953 2.24048 18.5953 2.26777C18.5953 2.28356 18.6125 2.31946 18.6326 2.34675L18.6699 2.39557L18.6412 2.44871C18.4574 2.80484 18.3957 2.96424 18.3368 3.23421C18.2564 3.61045 18.275 4.16045 18.3885 4.73486C18.4574 5.08526 18.5378 5.38251 18.7245 5.97703C18.9514 6.69935 19.1266 7.32977 19.184 7.62128C19.2228 7.82233 19.2702 8.26462 19.2702 8.42402C19.2702 8.65953 19.2142 8.94961 19.1381 9.11044C19.0562 9.28708 18.8854 9.42924 18.7274 9.45366C18.657 9.46514 18.6556 9.48668 18.7202 9.50822C18.7461 9.51684 18.769 9.52833 18.7748 9.53407C18.7934 9.55274 18.7389 9.62885 18.6355 9.7265C18.4617 9.89164 18.2521 9.97637 18.0151 9.97637C17.7279 9.97637 17.5455 9.85143 16.9639 9.2483C16.6294 8.90366 16.1871 8.48864 16.0966 8.43407C16.0521 8.40823 16.0506 8.40823 16.0578 8.43407C16.0621 8.44987 16.0707 8.48577 16.0765 8.51449C16.088 8.58486 16.0693 8.58486 15.9831 8.51306C15.8754 8.42402 15.7419 8.3436 15.6241 8.29765C15.4317 8.22441 15.3168 8.20718 14.9334 8.19713L14.5816 8.18851L14.4882 8.12964C14.3446 8.03917 14.3087 8.03199 14.0646 8.03486C13.7975 8.03917 13.6884 8.02481 13.3696 7.94295C12.9689 7.84099 12.8799 7.84674 12.2495 8.03055C11.7698 8.16984 11.6147 8.2 11.1566 8.24595C10.8694 8.27324 10.6325 8.27324 10.4444 8.24452C10.3611 8.23159 10.2907 8.22441 10.285 8.22872C10.2807 8.23447 10.2936 8.26032 10.3151 8.2876L10.3539 8.33786L10.3209 8.34504C10.3022 8.34935 10.2333 8.35653 10.1687 8.36084C10.0064 8.37376 9.9432 8.39817 9.85417 8.48577C9.78237 8.55614 9.77662 8.55901 9.65312 8.57768C9.56696 8.59204 9.49803 8.61358 9.43341 8.64661C8.99686 8.87206 8.95808 8.88499 8.75704 8.88499C8.68811 8.88499 8.58472 8.87494 8.52728 8.86345C8.46983 8.85052 8.42101 8.84478 8.41527 8.84909C8.41096 8.85339 8.41527 8.87781 8.42532 8.90222C8.43393 8.92807 8.43968 8.95104 8.43537 8.95392C8.4325 8.95822 8.40091 8.95392 8.36788 8.94386C8.33341 8.93525 8.21997 8.92089 8.11514 8.91084C7.88106 8.8893 7.61253 8.9094 7.36696 8.96828L7.20326 9.00561L7.27649 9.03864C7.3526 9.07167 7.38563 9.11044 7.37127 9.14922C7.36696 9.1607 7.29803 9.20379 7.22049 9.24399C6.86005 9.42924 6.48093 9.79543 6.1765 10.2535C6.01853 10.4919 5.8778 10.7202 5.86488 10.7633C5.85626 10.7935 5.8577 10.7949 5.9137 10.7863C5.9654 10.7777 5.97258 10.7805 5.97258 10.8035C5.97258 10.8193 5.95104 10.8681 5.92375 10.9127C5.8577 11.0204 5.81462 11.1439 5.74138 11.4282C5.62937 11.8691 5.54464 12.0658 5.39242 12.2453C5.33786 12.3085 5.31919 12.3415 5.33068 12.3487C5.34073 12.3544 5.38812 12.3602 5.43838 12.3602C5.49151 12.3602 5.52741 12.3659 5.52741 12.376C5.52741 12.3846 5.51018 12.4133 5.48864 12.4406C5.44269 12.5023 5.45417 12.5167 5.55757 12.5268C5.71266 12.5426 5.70548 12.5354 5.69399 12.6445C5.68825 12.6976 5.67819 12.8283 5.67245 12.9346C5.66527 13.0409 5.64947 13.1701 5.63511 13.2218C5.60352 13.3439 5.52741 13.4946 5.43981 13.6081C5.40104 13.6583 5.36945 13.7043 5.36945 13.7115C5.36945 13.7172 5.39386 13.7273 5.42402 13.7316C5.45274 13.7359 5.49438 13.7431 5.51592 13.7459C5.60783 13.7603 5.92519 13.7014 6.10182 13.6368C6.24686 13.5837 6.45939 13.4688 6.60156 13.3668C6.67911 13.3123 6.75952 13.2591 6.7825 13.252C6.80404 13.2433 6.88302 13.2362 6.95913 13.2362C7.34255 13.2362 7.7949 13.0954 8.05913 12.8929C8.10796 12.8556 8.16252 12.8168 8.17832 12.8082C8.21422 12.7896 8.22284 12.7967 8.26161 12.8743C8.29177 12.9317 8.31618 12.9202 8.34346 12.8369C8.38654 12.7034 8.48276 12.5497 8.54594 12.5167C8.58184 12.4966 8.60051 12.5124 8.68667 12.6402C8.72545 12.6948 8.79151 12.7766 8.83602 12.8197C8.88054 12.8628 8.91644 12.9102 8.91644 12.9274C8.91644 12.9432 8.88772 13.0136 8.85182 13.0854C8.7915 13.206 8.7355 13.3755 8.7513 13.3912C8.7556 13.3956 8.79007 13.3683 8.82884 13.3324C8.90064 13.2649 8.94516 13.2476 8.94516 13.2835C8.94516 13.295 8.9308 13.3539 8.915 13.4171C8.87767 13.5564 8.86905 13.812 8.90064 13.8666L8.92075 13.9025L8.97244 13.8436C9.03276 13.7747 9.1419 13.7172 9.33289 13.6555C9.47936 13.6081 9.59855 13.588 9.82832 13.5736C9.9073 13.5679 10.0566 13.555 10.1586 13.5435C10.5779 13.4946 10.5679 13.4932 10.6871 13.6239C10.7818 13.7273 10.8623 13.789 10.9312 13.8106C10.9599 13.8192 10.9843 13.8321 10.9843 13.8379C10.9843 13.8551 10.9527 13.8881 10.8766 13.9484C10.8378 13.9786 10.6598 14.1394 10.4817 14.3046C9.87283 14.8704 9.81827 14.9005 9.24098 15.0025C9.14764 15.0197 9.03276 15.0441 8.9868 15.0585C8.71252 15.1446 8.48707 15.3644 8.19124 15.8354C8.04333 16.0723 7.95861 16.1815 7.77192 16.3854C7.51918 16.6582 7.29516 16.8636 6.65469 17.4064C5.94099 18.0124 5.57767 18.4647 5.36945 19.0047C5.27754 19.2416 5.2201 19.2962 5.05927 19.2962C5.0047 19.2962 4.92428 19.2861 4.8812 19.2747C4.77493 19.2459 4.53081 19.2459 4.44895 19.2747C4.41018 19.289 4.36136 19.322 4.32402 19.3637C4.26514 19.4283 4.26227 19.4297 4.19621 19.4197C4.16031 19.4154 4.1 19.3938 4.0641 19.3723C3.65627 19.1368 3.52989 19.0923 3.25131 19.0908C3.07037 19.0894 3 19.1296 3 19.2344C3 19.2976 3.04452 19.3565 3.1752 19.4585C3.29295 19.5532 3.36475 19.6351 3.6735 20.0386C3.75679 20.1478 3.78838 20.1765 3.85731 20.2109C3.93629 20.2483 3.95065 20.2512 4.1201 20.2497C4.21919 20.2497 4.33551 20.2411 4.37859 20.2296C4.42167 20.2196 4.56814 20.1837 4.70169 20.1492C5.10522 20.0458 5.14399 20.0401 5.43551 20.0286C5.69543 20.02 5.71553 20.0171 5.7902 19.9797C5.89934 19.9266 5.98694 19.8261 6.12193 19.5963C6.45221 19.0334 6.53407 18.9056 6.68772 18.6974C7.00221 18.2766 7.36122 17.863 7.77336 17.4495C8.18119 17.0416 8.30182 16.9583 8.69385 16.819C8.92936 16.7343 9.11748 16.6424 9.28263 16.5333C9.42767 16.4356 9.65169 16.2188 9.70626 16.1226C9.72636 16.0881 9.78667 16.0134 9.83981 15.956C9.98341 15.8038 10.094 15.7521 10.4674 15.6645C10.7043 15.607 10.7962 15.5754 11.0274 15.4735C11.3017 15.3514 11.3433 15.3385 11.688 15.2681C11.8574 15.2337 12.0312 15.1978 12.0714 15.1877C12.113 15.1777 12.1518 15.1734 12.1561 15.1791C12.1619 15.1834 12.1777 15.2509 12.1935 15.3285C12.2136 15.4333 12.2236 15.5568 12.2294 15.8038C12.238 16.1843 12.2251 16.3566 12.1619 16.6726C12.0901 17.0273 12.0111 17.2369 11.8431 17.5227C11.7583 17.6634 11.7368 17.7625 11.7598 17.8903C11.7928 18.0713 11.8474 18.1445 12.0096 18.2235C12.1461 18.291 12.2523 18.2982 12.5223 18.2637C12.7018 18.2407 12.8727 18.2321 13.2475 18.2264C14.2053 18.2091 14.6993 18.2766 15.8309 18.5724C16.2287 18.6773 16.2732 18.6959 16.3709 18.8036C16.4743 18.9171 16.5331 19.0478 16.6222 19.3608C16.6495 19.4556 16.6825 19.5475 16.694 19.5662C16.7543 19.6566 16.9166 19.727 17.0688 19.727C17.2253 19.727 17.2468 19.6452 17.1463 19.4312C17.0774 19.2847 17.0702 19.2172 17.1219 19.1942C17.1664 19.1727 17.2267 19.2014 17.2684 19.2632C17.2856 19.289 17.333 19.3881 17.3761 19.4829C17.4579 19.6724 17.5283 19.7658 17.6245 19.8175C17.6748 19.8433 17.7049 19.8476 17.8198 19.8462C17.9246 19.8433 17.9778 19.8505 18.0481 19.8735C18.176 19.9151 18.5263 19.9194 18.6269 19.8807C18.7906 19.8175 18.8279 19.6724 18.713 19.5489C18.68 19.5145 18.5522 19.4455 18.3224 19.3436C18.2205 19.2976 18.0367 19.1655 17.9634 19.0865C17.8615 18.9745 17.804 18.8855 17.6418 18.594C17.4522 18.2551 17.3948 18.1675 17.2655 18.0325C17.1822 17.9449 17.1305 17.9047 17.053 17.8673C16.8907 17.7869 16.9309 17.7912 15.8094 17.7453C15.4891 17.7324 14.9248 17.6936 14.8673 17.6807C14.8515 17.6778 14.7438 17.6634 14.6304 17.6519C14.3733 17.6232 13.776 17.5155 13.6079 17.4653C13.3997 17.4049 13.1499 17.2657 13.0752 17.1666C13.0292 17.1063 12.9991 17.0201 12.979 16.898C12.9474 16.6912 13.0479 16.4442 13.3538 15.979C13.5333 15.7061 13.6309 15.5238 13.6841 15.3644C13.7286 15.2279 13.7702 14.9594 13.7702 14.8014C13.7702 14.6923 13.776 14.655 13.7932 14.6377C13.8219 14.609 13.8291 14.6119 14.0689 14.7842C14.1737 14.8589 14.3102 14.9479 14.3705 14.9809C14.4897 15.0484 14.56 15.0987 14.56 15.1174C14.56 15.1231 14.5399 15.1418 14.5141 15.1576L14.4681 15.1877L14.5098 15.2035C14.6649 15.2624 14.9478 15.2782 15.525 15.2595C15.7921 15.2509 16.0205 15.2466 16.032 15.2523C16.0435 15.2566 16.0535 15.2739 16.0535 15.2911C16.0535 15.3198 16.0578 15.3213 16.131 15.3127C16.289 15.294 16.513 15.1963 16.7428 15.0441C16.8706 14.9608 16.885 14.9536 16.9869 14.945C17.2181 14.9249 17.3158 14.833 17.738 14.2342C17.8643 14.0561 17.9433 13.9685 17.9807 13.9685C17.9835 13.9685 17.9835 14.0073 17.9807 14.0547C17.9778 14.1021 17.9807 14.1409 17.9878 14.1409C18.0209 14.1409 18.1889 13.9326 18.2923 13.7632C18.4603 13.4875 18.5292 13.308 18.6814 12.7407C18.8337 12.1749 18.8408 12.152 18.8753 12.152C18.8968 12.152 18.9069 12.1663 18.9169 12.2094C18.9356 12.2855 18.9342 12.2841 18.9773 12.2439C19.0347 12.1922 19.1252 12.0529 19.1984 11.9078C19.2343 11.836 19.2702 11.7786 19.2774 11.7786C19.286 11.7786 19.2932 11.803 19.2961 11.8317C19.2989 11.8619 19.3061 11.8863 19.3133 11.8863C19.3406 11.8863 19.4468 11.7412 19.5129 11.6134C19.5545 11.533 19.6378 11.3176 19.7139 11.0922C19.7857 10.8811 19.8776 10.6355 19.9179 10.5465C20.1074 10.1329 20.2036 9.79112 20.2711 9.30144C20.307 9.02859 20.307 8.2158 20.2711 7.90131C20.2381 7.62128 20.195 7.35705 20.1591 7.20483C20.0931 6.92624 19.9408 6.46528 19.8245 6.191C19.6378 5.75157 19.5115 5.38108 19.4511 5.09387C19.3822 4.76646 19.3822 4.27246 19.4526 3.98813C19.4971 3.80432 19.5703 3.69518 19.691 3.63486C19.7829 3.58748 19.8604 3.51568 19.9595 3.385C20.1318 3.1581 20.2237 3.09923 20.6818 2.92403C21.0408 2.78617 21.1801 2.70432 21.1801 2.63108C21.1801 2.5722 21.1198 2.54923 20.9303 2.53343C20.7694 2.52051 20.3774 2.43291 20.2998 2.39126C20.2855 2.38408 20.2611 2.34962 20.2467 2.31372C20.2137 2.23761 20.1045 2.11698 20.0184 2.06098C19.938 2.01072 19.915 2.00928 19.9609 2.05954C19.9954 2.09688 19.994 2.09688 19.9423 2.05523C19.9121 2.03226 19.882 1.99636 19.8748 1.97482C19.8619 1.93748 19.8547 1.93461 19.7886 1.93461C19.7168 1.93461 19.6436 1.91163 19.6436 1.88865C19.6436 1.88291 19.5833 1.87717 19.5115 1.8786C19.3851 1.8786 19.3707 1.88291 19.2487 1.94035ZM20.0385 2.12129C20.0528 2.13709 20.0615 2.15001 20.0572 2.15001C20.0528 2.15001 20.0385 2.13709 20.0241 2.12129C20.0098 2.10549 20.0011 2.09257 20.0055 2.09257C20.0098 2.09257 20.0241 2.10549 20.0385 2.12129Z" fill="black"/>
</svg>
