<svg width="24" height="24" viewBox="0 0 24 24" fill="none" xmlns="http://www.w3.org/2000/svg">
<path d="M12.4719 3.11833C12.797 3.29235 13 3.63121 13 4V20C13 20.3688 12.797 20.7077 12.4719 20.8817C12.1467 21.0557 11.7522 21.0366 11.4453 20.8321L5.69722 17H3C1.89543 17 1 16.1046 1 15V9C1 7.89543 1.89543 7 3 7H5.69722L11.4453 3.16795C11.7522 2.96338 12.1467 2.94431 12.4719 3.11833Z" fill="black"/>
<path d="M16.5963 7.40422C16.2057 7.0137 15.5726 7.0137 15.1821 7.40422C14.7915 7.79475 14.7915 8.42791 15.1821 8.81843C15.9975 9.63387 16.5001 10.7575 16.5001 12.0004C16.5001 13.2433 15.9975 14.367 15.1821 15.1824C14.7915 15.5729 14.7915 16.2061 15.1821 16.5966C15.5726 16.9871 16.2057 16.9871 16.5963 16.5966C17.7714 15.4214 18.5001 13.7951 18.5001 12.0004C18.5001 10.2058 17.7714 8.5794 16.5963 7.40422Z" fill="black"/>
</svg>
