<svg width="24" height="24" viewBox="0 0 24 24" fill="none" xmlns="http://www.w3.org/2000/svg">
<path fill-rule="evenodd" clip-rule="evenodd" d="M17.4012 11.442L16.2245 12.652C16.2228 12.6538 16.2211 12.6556 16.2194 12.6574L15.6401 13.253C15.2107 13.6946 14.5154 13.6946 14.086 13.253C13.6552 12.8101 13.6552 12.091 14.086 11.6481L15.8398 9.84463C16.2692 9.40304 16.9645 9.40304 17.3939 9.84463C17.8222 10.285 17.8246 10.9985 17.4012 11.442ZM12.6604 12.3087C12.6224 12.9348 12.8362 13.574 13.3017 14.0527C14.1637 14.9392 15.5624 14.9392 16.4244 14.0527L18.1782 12.2493C18.1817 12.2457 18.1852 12.2421 18.1886 12.2385L21.0856 9.25955C21.5236 8.80915 22.2328 8.80915 22.6708 9.25955C23.1029 9.70395 23.1099 10.4156 22.6901 10.8626C21.2542 12.3918 18.7386 15.0336 16.8257 16.8438C15.8752 17.7432 14.7123 18.7792 13.5831 19.7614C11.4238 21.6397 8.20107 21.3438 6.33614 19.1311L3.73508 16.0449C2.96343 15.1294 2.51055 13.9749 2.44858 12.7643L2 4H2.06034C3.22649 4 4.28485 4.70625 4.75961 5.80468L6.17225 9.07307C6.24618 9.24413 6.3978 9.36681 6.57743 9.40091C6.75707 9.43501 6.94156 9.37614 7.07047 9.24358L7.47023 8.83251C7.56716 9.20321 7.75715 9.5536 8.04017 9.84463C8.66226 10.4843 9.56378 10.6624 10.3414 10.3788C10.4082 10.8433 10.6154 11.2905 10.9632 11.6481C11.4288 12.1268 12.0509 12.347 12.6604 12.3087ZM13.3017 10.8484L14.4709 9.64609C14.9016 9.20317 14.9016 8.48407 14.4709 8.04116C14.0415 7.59957 13.3462 7.59957 12.9167 8.04116L11.7475 9.24347C11.3168 9.68639 11.3168 10.4055 11.7475 10.8484C12.177 11.29 12.8722 11.29 13.3017 10.8484ZM10.9622 8.44483L10.9632 8.44378L11.5478 7.84262C11.9782 7.39968 11.9784 6.68049 11.5478 6.23769C11.1184 5.7961 10.4231 5.7961 9.99369 6.23769L8.82429 7.44013C8.39365 7.88295 8.39367 8.60194 8.82448 9.04493C9.25391 9.48652 9.94918 9.48652 10.3786 9.04493L10.9622 8.44483Z" fill="black"/>
</svg>
