<svg width="24" height="24" viewBox="0 0 24 24" fill="none" xmlns="http://www.w3.org/2000/svg">
<path d="M12 2C9.51472 2 7.5 4.01472 7.5 6.5C7.5 8.98528 9.51472 11 12 11C14.4853 11 16.5 8.98528 16.5 6.5C16.5 4.01472 14.4853 2 12 2Z" fill="black"/>
<path d="M3.69593 18.6964C4.55281 14.8837 7.70085 12 12 12C13.3863 12 14.6528 12.2998 15.7615 12.8339C13.2779 13.3096 12 15.7194 12 17.75C12 18.9916 12.4715 20.1032 13.0986 21H5.59846C4.46331 21 3.40615 19.9858 3.69593 18.6964Z" fill="black"/>
<path fill-rule="evenodd" clip-rule="evenodd" d="M16.6667 14.75C15.9817 14.75 15.2983 15.0252 14.7913 15.5661C14.2795 16.112 14 16.8693 14 17.75C14 19.1781 14.9978 20.269 15.7694 20.9064C16.1821 21.2473 16.6013 21.5179 16.9401 21.7062C17.1094 21.8002 17.2683 21.8791 17.4054 21.9379C17.4729 21.9668 17.5465 21.9957 17.6202 22.0193L17.6232 22.0203C17.6676 22.0345 17.8196 22.0833 18 22.0833C18.1804 22.0833 18.3324 22.0345 18.3768 22.0203L18.3798 22.0193C18.4535 21.9957 18.5271 21.9668 18.5946 21.9379C18.7317 21.8791 18.8906 21.8002 19.0599 21.7062C19.3988 21.5179 19.8179 21.2473 20.2306 20.9064C21.0022 20.269 22 19.1781 22 17.75C22 16.8693 21.7205 16.112 21.2087 15.5661C20.7017 15.0252 20.0183 14.75 19.3333 14.75C18.7843 14.75 18.3321 14.896 18 15.0578C17.6679 14.896 17.2157 14.75 16.6667 14.75ZM16 17.75C16 17.2974 16.1372 17.0547 16.2504 16.9339C16.3684 16.8081 16.5183 16.75 16.6667 16.75C16.8788 16.75 17.0482 16.8131 17.167 16.8779C17.2262 16.9102 17.269 16.941 17.2925 16.9594C17.3004 16.9655 17.3057 16.97 17.3085 16.9723C17.6948 17.3426 18.3052 17.3426 18.6915 16.9723C18.6943 16.97 18.6996 16.9655 18.7075 16.9594C18.731 16.941 18.7738 16.9102 18.833 16.8779C18.9518 16.8131 19.1212 16.75 19.3333 16.75C19.4817 16.75 19.6316 16.8081 19.7496 16.9339C19.8628 17.0547 20 17.2974 20 17.75C20 18.2386 19.6228 18.8144 18.9569 19.3645C18.6509 19.6172 18.3356 19.8206 18.0886 19.9579C18.0573 19.9753 18.0277 19.9912 18 20.0058C17.9723 19.9912 17.9427 19.9753 17.9114 19.9579C17.6644 19.8206 17.3491 19.6172 17.0431 19.3645C16.3772 18.8144 16 18.2386 16 17.75Z" fill="black"/>
</svg>
