<svg width="24" height="24" viewBox="0 0 24 24" fill="none" xmlns="http://www.w3.org/2000/svg">
<path d="M13 3C13 2.44772 12.5523 2 12 2C11.4477 2 11 2.44772 11 3V4.04495C6.98738 4.40747 3.60957 6.93021 2.20661 10.4205C1.65845 11.7842 2.78169 13 4.01714 13H19.9825C21.2179 13 22.3411 11.7842 21.793 10.4205C20.3901 6.93033 17.0124 4.40764 13 4.04498V3Z" fill="black"/>
<path d="M13.0002 16C13.0002 15.4477 12.5525 15 12.0002 15C11.4479 15 11.0002 15.4477 11.0002 16V19.0767C11.0002 19.5866 10.5868 20 10.0769 20C9.6368 20 9.25787 19.6894 9.17155 19.2578L8.98077 18.3039C8.87246 17.7623 8.34564 17.4111 7.80408 17.5194C7.26252 17.6277 6.9113 18.1546 7.01961 18.6961L7.21039 19.65C7.48368 21.0164 8.68343 22 10.0769 22C11.6914 22 13.0002 20.6912 13.0002 19.0767V16Z" fill="black"/>
</svg>
