<svg width="24" height="24" viewBox="0 0 24 24" fill="none" xmlns="http://www.w3.org/2000/svg">
<path fill-rule="evenodd" clip-rule="evenodd" d="M9.87868 7.12138C8.70711 5.94981 8.70711 4.05031 9.87868 2.87874L11.2929 1.46452C11.6834 1.074 12.3166 1.074 12.7071 1.46452L14.1213 2.87874C15.2929 4.05031 15.2929 5.94981 14.1213 7.12138C13.7938 7.44887 13.4095 7.68482 13 7.82922V9.00006H18.5C19.6046 9.00006 20.5 9.89549 20.5 11.0001V14.323C20.5 14.8208 20.3156 15.288 20 15.6459V20.0001C20 21.1046 19.1046 22.0001 18 22.0001H6C4.89543 22.0001 4 21.1046 4 20.0001V15.6459C3.68444 15.288 3.5 14.8208 3.5 14.323V11.0001C3.5 9.89549 4.39543 9.00006 5.5 9.00006H11V7.82922C10.5905 7.68482 10.2062 7.44887 9.87868 7.12138ZM5.5 11.0001H18.5V14.323L17 14.923L15.2428 14.2201C14.766 14.0294 14.234 14.0294 13.7572 14.2201L12 14.923L10.2428 14.2201C9.76596 14.0294 9.23404 14.0294 8.75722 14.2201L7 14.923L5.5 14.323V11.0001Z" fill="black"/>
</svg>
