<svg width="24" height="24" viewBox="0 0 24 24" fill="none" xmlns="http://www.w3.org/2000/svg">
<path fill-rule="evenodd" clip-rule="evenodd" d="M7 7C7 6.44772 7.44772 6 8 6H16C16.5523 6 17 6.44772 17 7C17 7.55228 16.5523 8 16 8V10.6407C16.2119 10.8904 16.4506 11.1549 16.711 11.4408C16.7533 11.4872 16.7962 11.5342 16.8395 11.5817C17.1522 11.9244 17.4887 12.2933 17.8138 12.674C18.5455 13.531 19.3018 14.54 19.7032 15.6635C19.8862 16.1755 20 16.7228 20 17.2984C20 19.895 17.895 22 15.2984 22H8.70156C6.10496 22 4 19.895 4 17.2984C4 16.7228 4.11383 16.1755 4.29675 15.6635C4.69821 14.54 5.45453 13.531 6.18619 12.674C6.51126 12.2933 6.84777 11.9244 7.16044 11.5817C7.20378 11.5342 7.24665 11.4872 7.28897 11.4408C7.5494 11.1549 7.78811 10.8904 8 10.6407V8C7.44772 8 7 7.55228 7 7ZM10 8V11.3508L9.78087 11.6247C9.47431 12.0079 9.11903 12.4017 8.76744 12.7877C8.72393 12.8354 8.68042 12.8831 8.63695 12.9308C8.32229 13.2757 8.00937 13.6188 7.70721 13.9727C7.50789 14.2061 7.32002 14.4368 7.14694 14.6651C7.91001 14.5636 8.78427 14.4806 9.52666 14.5004C10.6623 14.5306 11.5266 14.8027 12.2733 15.0377L12.3001 15.0461C13.052 15.2827 13.6853 15.4779 14.5267 15.5004C15.2705 15.5202 16.2626 15.4072 17.1081 15.2782C17.1621 15.27 17.2152 15.2617 17.2674 15.2534C16.9969 14.8343 16.6648 14.4084 16.2928 13.9727C15.9906 13.6188 15.6777 13.2758 15.3631 12.9308C15.3196 12.8831 15.2761 12.8354 15.2326 12.7877C14.881 12.4017 14.5257 12.0079 14.2191 11.6247L14 11.3508V8H10Z" fill="black"/>
<path d="M11 4C11 4.55228 10.5523 5 10 5C9.44772 5 9 4.55228 9 4C9 3.44772 9.44772 3 10 3C10.5523 3 11 3.44772 11 4Z" fill="black"/>
<path d="M15 2.5C15 3.32843 14.3284 4 13.5 4C12.6716 4 12 3.32843 12 2.5C12 1.67157 12.6716 1 13.5 1C14.3284 1 15 1.67157 15 2.5Z" fill="black"/>
</svg>
