<svg width="24" height="24" viewBox="0 0 24 24" fill="none" xmlns="http://www.w3.org/2000/svg">
<path fill-rule="evenodd" clip-rule="evenodd" d="M13.1337 2.51668C12.5352 1.82777 11.4655 1.82778 10.867 2.51668L9.16536 4.47509L6.60301 4.06862C5.70167 3.92564 4.88228 4.6132 4.86657 5.52567L4.82192 8.11967L2.59777 9.45534C1.8154 9.92519 1.62966 10.9786 2.20415 11.6877L3.83734 13.7035L2.9921 16.1563C2.69477 17.0191 3.22959 17.9455 4.12548 18.1194L6.67232 18.6138L7.60148 21.0361C7.92833 21.8882 8.93346 22.254 9.73154 21.8114L12.0003 20.5531L14.2691 21.8114C15.0672 22.254 16.0724 21.8882 16.3992 21.0361L17.3284 18.6138L19.8752 18.1194C20.7711 17.9455 21.3059 17.0191 21.0086 16.1563L20.1633 13.7035L21.7965 11.6877C22.371 10.9786 22.1853 9.92519 21.4029 9.45534L19.1788 8.11967L19.1341 5.52567C19.1184 4.61319 18.299 3.92564 17.3977 4.06862L14.8353 4.47509L13.1337 2.51668ZM15.2074 11.2071C15.598 10.8166 15.598 10.1834 15.2074 9.79289C14.8169 9.40237 14.1838 9.40237 13.7932 9.79289L11.0003 12.5858L10.2074 11.7929C9.81692 11.4024 9.18375 11.4024 8.79323 11.7929C8.4027 12.1834 8.4027 12.8166 8.79323 13.2071L9.93968 14.3536C10.5255 14.9393 11.4752 14.9393 12.061 14.3536L15.2074 11.2071Z" fill="black"/>
</svg>
