<svg width="24" height="24" viewBox="0 0 24 24" fill="none" xmlns="http://www.w3.org/2000/svg">
<path d="M12 20.5V18M12 5.99996V3.49996M6.59808 8.99996L4.5 7.78864M4.5 16.2113L6.59808 15M19.5 16.2113L17.4019 15M17.4019 8.99996L19.5 7.78864M17.7426 6.23017L19.6177 7.28492C19.8539 7.41776 20 7.66764 20 7.9386V9.99996M20 14V16.0613C20 16.3323 19.8539 16.5822 19.6177 16.715L17.7426 17.7698M14.1791 19.7742L12.3677 20.7931C12.1394 20.9216 11.8606 20.9216 11.6323 20.7931L9.82092 19.7742M6.25741 17.7698L4.3823 16.715C4.14615 16.5822 4 16.3323 4 16.0613V14M4 9.99996V7.9386C4 7.66764 4.14565 7.41804 4.3818 7.2852L6.25741 6.23017M9.82093 4.22569L11.6323 3.20679C11.8606 3.07837 12.1394 3.07837 12.3677 3.20679L14.1791 4.22569M12 12V14M12 12L10.2679 11M12 12L13.7321 11" stroke="black" stroke-width="2" stroke-linecap="round" stroke-linejoin="round"/>
</svg>
