<svg width="24" height="24" viewBox="0 0 24 24" fill="none" xmlns="http://www.w3.org/2000/svg">
<path d="M10.6066 4.09503C10.0594 4.16988 9.67645 4.67413 9.7513 5.22132C9.82614 5.76851 10.3304 6.15143 10.8776 6.07658L10.6066 4.09503ZM19.5177 14.02C19.1734 14.4519 19.2444 15.0811 19.6763 15.4253C20.1082 15.7696 20.7374 15.6985 21.0816 15.2667L19.5177 14.02ZM13.4143 13.4142C13.0238 13.8047 13.0238 14.4379 13.4143 14.8284C13.8048 15.2189 14.438 15.2189 14.8285 14.8284L13.4143 13.4142ZM9.17168 9.17156C8.78116 9.56208 8.78116 10.1952 9.17168 10.5858C9.56221 10.9763 10.1954 10.9763 10.5859 10.5858L9.17168 9.17156ZM3.70699 2.29289C3.31647 1.90237 2.6833 1.90237 2.29278 2.29289C1.90225 2.68342 1.90225 3.31658 2.29278 3.70711L3.70699 2.29289ZM20.2928 21.7071C20.6833 22.0976 21.3165 22.0976 21.707 21.7071C22.0975 21.3166 22.0975 20.6834 21.707 20.2929L20.2928 21.7071ZM7.18925 7.48115C7.65194 7.17959 7.78257 6.56004 7.48101 6.09735C7.17945 5.63466 6.55991 5.50404 6.09722 5.8056L7.18925 7.48115ZM17.9025 18.1944C18.3652 17.8929 18.4959 17.2733 18.1943 16.8107C17.8928 16.348 17.2732 16.2173 16.8105 16.5189L17.9025 18.1944ZM2.24417 11.5441L3.11859 12.0293L2.24417 11.5441ZM2.24437 12.4564L3.11877 11.9712L2.24437 12.4564ZM21.7552 11.5439L20.8808 12.0291L21.7552 11.5439ZM21.7553 12.4559L20.8809 11.9707L21.7553 12.4559ZM10.8776 6.07658C14.4615 5.5864 18.3429 7.45524 20.8808 12.0291L22.6296 11.0587C19.772 5.90865 15.1608 3.47212 10.6066 4.09503L10.8776 6.07658ZM21.0816 15.2667C21.6401 14.566 22.1585 13.7903 22.6297 12.9411L20.8809 11.9707C20.461 12.7276 20.0037 13.4102 19.5177 14.02L21.0816 15.2667ZM13.4143 10.5858C14.1954 11.3668 14.1954 12.6331 13.4143 13.4142L14.8285 14.8284C16.3906 13.2663 16.3906 10.7337 14.8285 9.17156L13.4143 10.5858ZM10.5859 10.5858C11.3669 9.80472 12.6333 9.80472 13.4143 10.5858L14.8285 9.17156C13.2664 7.60946 10.7338 7.60946 9.17168 9.17156L10.5859 10.5858ZM2.29278 3.70711L20.2928 21.7071L21.707 20.2929L3.70699 2.29289L2.29278 3.70711ZM3.11859 12.0293C3.6171 11.1308 4.16814 10.337 4.75763 9.64539L3.23552 8.34802C2.55501 9.1464 1.92912 10.0508 1.36975 11.059L3.11859 12.0293ZM4.75763 9.64539C5.51393 8.75808 6.33385 8.03865 7.18925 7.48115L6.09722 5.8056C5.07162 6.47403 4.10878 7.32349 3.23552 8.34802L4.75763 9.64539ZM3.28947 9.70381L13.1126 19.527L14.5268 18.1128L4.70368 8.2896L3.28947 9.70381ZM1.36996 12.9416C4.36061 18.3312 9.27251 20.7455 14.0151 19.8006L13.6243 17.8391C9.8951 18.5821 5.77275 16.7541 3.11877 11.9712L1.36996 12.9416ZM14.0151 19.8006C15.3631 19.532 16.676 18.9938 17.9025 18.1944L16.8105 16.5189C15.7883 17.1851 14.712 17.6224 13.6243 17.8391L14.0151 19.8006ZM1.36975 11.059C1.04469 11.6448 1.04532 12.3565 1.36996 12.9416L3.11877 11.9712C3.12861 11.9889 3.12886 12.0108 3.11859 12.0293L1.36975 11.059ZM20.8808 12.0291C20.8709 12.0112 20.8707 11.9891 20.8809 11.9707L22.6297 12.9411C22.9547 12.3554 22.9543 11.6439 22.6296 11.0587L20.8808 12.0291Z" fill="black"/>
</svg>
