<svg width="24" height="24" viewBox="0 0 24 24" fill="none" xmlns="http://www.w3.org/2000/svg">
<path fill-rule="evenodd" clip-rule="evenodd" d="M6.8234 2.36754C7.09563 1.55086 7.85991 1 8.72077 1H15.2792C16.1401 1 16.9044 1.55086 17.1766 2.36754L17.7208 4H18C19.1046 4 20 4.89543 20 6V18C20 19.1046 19.1046 20 18 20H17.7208L17.1766 21.6325C16.9044 22.4491 16.1401 23 15.2792 23H8.72077C7.85991 23 7.09563 22.4491 6.8234 21.6325L6.27925 20H6C4.89543 20 4 19.1046 4 18V6C4 4.89543 4.89543 4 6 4H6.27925L6.8234 2.36754ZM8.38743 20L8.72077 21H15.2792L15.6126 20H8.38743ZM15.2792 3L15.6126 4H8.38743L8.72077 3H15.2792ZM13 9C13 8.44772 12.5523 8 12 8C11.4477 8 11 8.44772 11 9V12C11 12.2652 11.1054 12.5196 11.2929 12.7071L12.7929 14.2071C13.1834 14.5976 13.8166 14.5976 14.2071 14.2071C14.5976 13.8166 14.5976 13.1834 14.2071 12.7929L13 11.5858V9Z" fill="black"/>
</svg>
