<svg width="24" height="24" viewBox="0 0 24 24" fill="none" xmlns="http://www.w3.org/2000/svg">
<path fill-rule="evenodd" clip-rule="evenodd" d="M9.70699 7.29289C10.0975 7.68342 10.0975 8.31658 9.70699 8.70711L6.4141 12L9.70699 15.2929C10.0975 15.6834 10.0975 16.3166 9.70699 16.7071C9.31647 17.0976 8.6833 17.0976 8.29278 16.7071L4.82311 13.2374C4.13969 12.554 4.13969 11.446 4.82311 10.7626L8.29278 7.29289C8.6833 6.90237 9.31647 6.90237 9.70699 7.29289ZM14.2928 7.29289C14.6833 6.90237 15.3165 6.90237 15.707 7.29289L19.1767 10.7626C19.8601 11.446 19.8601 12.554 19.1767 13.2374L15.707 16.7071C15.3165 17.0976 14.6833 17.0976 14.2928 16.7071C13.9023 16.3166 13.9023 15.6834 14.2928 15.2929L17.5857 12L14.2928 8.70711C13.9023 8.31658 13.9023 7.68342 14.2928 7.29289Z" fill="black"/>
</svg>
