<svg width="24" height="24" viewBox="0 0 24 24" fill="none" xmlns="http://www.w3.org/2000/svg">
<path d="M6.25 7.5C6.94036 7.5 7.5 6.94036 7.5 6.25C7.5 5.55964 6.94036 5 6.25 5C5.55964 5 5 5.55964 5 6.25C5 6.94036 5.55964 7.5 6.25 7.5Z" fill="black"/>
<path d="M13 12.8826V17.1164C13 17.5051 13.424 17.7451 13.7572 17.5452L17.2854 15.4283C17.6091 15.2341 17.6091 14.765 17.2854 14.5708L13.7572 12.4539C13.424 12.2539 13 12.494 13 12.8826Z" fill="black"/>
<path fill-rule="evenodd" clip-rule="evenodd" d="M2 4C2 2.89543 2.89543 2 4 2H14C15.1046 2 16 2.89543 16 4V8H20C21.1046 8 22 8.89543 22 10V20C22 21.1046 21.1046 22 20 22H10C8.89543 22 8 21.1046 8 20V16H4C2.89543 16 2 15.1046 2 14V4ZM4 14V12.5356L6.00011 11.2021L8 12.5354V14H4ZM7.10951 9.53805L8 10.1317V10C8 8.89543 8.89543 8 10 8H14V4H4V10.1319L4.89071 9.53805C5.5625 9.09018 6.43771 9.09018 7.10951 9.53805ZM10 11.9806C10.0003 11.9943 10.0003 12.0081 10 12.0219V20H20V10H10V11.9806Z" fill="black"/>
</svg>
