<svg width="24" height="24" viewBox="0 0 24 24" fill="none" xmlns="http://www.w3.org/2000/svg">
<path fill-rule="evenodd" clip-rule="evenodd" d="M3 5.00013C3 3.89556 3.89543 3.00013 5 3.00013H11C11.5523 3.00013 12 3.44785 12 4.00013C12 4.55241 11.5523 5.00013 11 5.00013H5V19.0001H7.10002C7.56329 16.7179 9.58104 15.0001 12 15.0001C14.419 15.0001 16.4367 16.7179 16.9 19.0001H19V13.0001C19 12.4478 19.4477 12.0001 20 12.0001C20.5523 12.0001 21 12.4478 21 13.0001V19.0001C21 20.1047 20.1046 21.0001 19 21.0001H5C3.89543 21.0001 3 20.1047 3 19.0001V5.00013ZM9.17071 19.0001H14.8293C14.4175 17.8349 13.3062 17.0001 12 17.0001C10.6938 17.0001 9.58254 17.8349 9.17071 19.0001ZM12 9.00013C11.1716 9.00013 10.5 9.6717 10.5 10.5001C10.5 11.3286 11.1716 12.0001 12 12.0001C12.8284 12.0001 13.5 11.3286 13.5 10.5001C13.5 9.6717 12.8284 9.00013 12 9.00013ZM8.5 10.5001C8.5 8.56713 10.067 7.00013 12 7.00013C13.933 7.00013 15.5 8.56713 15.5 10.5001C15.5 12.4331 13.933 14.0001 12 14.0001C10.067 14.0001 8.5 12.4331 8.5 10.5001Z" fill="black"/>
<path d="M18.9472 1.89456C18.763 1.52603 18.237 1.52603 18.0528 1.89456L17.0745 3.85106C17.0262 3.94782 16.9477 4.02628 16.8509 4.07467L14.8944 5.05292C14.5259 5.23718 14.5259 5.76308 14.8944 5.94734L16.8509 6.9256C16.9477 6.97398 17.0262 7.05244 17.0745 7.1492L18.0528 9.1057C18.237 9.47423 18.763 9.47423 18.9472 9.1057L19.9255 7.1492C19.9738 7.05244 20.0523 6.97398 20.1491 6.9256L22.1056 5.94734C22.4741 5.76308 22.4741 5.23718 22.1056 5.05292L20.1491 4.07467C20.0523 4.02628 19.9738 3.94782 19.9255 3.85106L18.9472 1.89456Z" fill="black"/>
</svg>
