<svg width="24" height="24" viewBox="0 0 24 24" fill="none" xmlns="http://www.w3.org/2000/svg">
<path fill-rule="evenodd" clip-rule="evenodd" d="M5.56811 3C5.57873 3 5.58936 3.00001 5.60001 3.00001L18.4319 3C18.6843 2.99997 18.9301 2.99994 19.1382 3.01695C19.3668 3.03563 19.6366 3.0797 19.908 3.21799C20.2843 3.40974 20.5903 3.7157 20.782 4.09203C20.9203 4.36345 20.9644 4.63318 20.9831 4.86178C21.0001 5.06993 21 5.31571 21 5.56809L21 9.00001C21 9.55229 20.5523 10 20 10C19.4477 10 19 9.55229 19 9.00001V5.60001C19 5.30348 18.9992 5.14122 18.9897 5.02464C18.9893 5.02 18.9889 5.0156 18.9886 5.01145C18.9844 5.01107 18.98 5.01069 18.9754 5.01031C18.8588 5.00078 18.6965 5.00001 18.4 5.00001H5.60001C5.30348 5.00001 5.14122 5.00078 5.02464 5.01031C5.02 5.01069 5.0156 5.01107 5.01145 5.01145C5.01107 5.0156 5.01069 5.02 5.01031 5.02464C5.00078 5.14122 5.00001 5.30348 5.00001 5.60001V18.4C5.00001 18.6965 5.00078 18.8588 5.01031 18.9754C5.01069 18.98 5.01107 18.9844 5.01145 18.9886C5.0156 18.9889 5.02 18.9893 5.02464 18.9897C5.14122 18.9992 5.30348 19 5.60001 19H9.00001C9.55229 19 10 19.4477 10 20C10 20.5523 9.55229 21 9.00001 21L5.56809 21C5.31571 21 5.06993 21.0001 4.86178 20.9831C4.63318 20.9644 4.36345 20.9203 4.09202 20.782C3.7157 20.5903 3.40974 20.2843 3.21799 19.908C3.07969 19.6366 3.03563 19.3668 3.01695 19.1382C2.99994 18.9301 2.99997 18.6843 3 18.4319L3.00001 5.60001C3.00001 5.58936 3 5.57873 3 5.56811C2.99997 5.31573 2.99994 5.06993 3.01695 4.86177C3.03563 4.63318 3.0797 4.36345 3.21799 4.09203M3.21799 4.09203C3.40974 3.7157 3.7157 3.40974 4.09202 3.21799C4.36345 3.0797 4.63318 3.03563 4.86178 3.01695C5.06993 2.99994 5.31573 2.99997 5.56811 3M10.2929 10.2929C10.6834 9.90237 11.3166 9.90237 11.7071 10.2929L19 17.5858V14C19 13.4477 19.4477 13 20 13C20.5523 13 21 13.4477 21 14V20C21 20.5523 20.5523 21 20 21H14C13.4477 21 13 20.5523 13 20C13 19.4477 13.4477 19 14 19H17.5858L10.2929 11.7071C9.90237 11.3166 9.90237 10.6834 10.2929 10.2929Z" fill="black"/>
</svg>
