<svg width="24" height="24" viewBox="0 0 24 24" fill="none" xmlns="http://www.w3.org/2000/svg">
<path d="M9.80806 8.8194C9.6085 8.24991 9.5 7.63763 9.5 7C9.5 4.54118 11.1135 2.45921 13.3395 1.75511C12.6816 1.27999 11.8735 1 11 1C8.79086 1 7 2.79086 7 5C7 6.79402 8.18105 8.31219 9.80806 8.8194Z" fill="black"/>
<path d="M15 3C14.4815 3 13.9837 3.09916 13.5264 3.28047C12.0482 3.86648 11 5.30961 11 7C11 7.36293 11.0486 7.71607 11.1402 8.05257C11.6024 9.75034 13.154 11 15 11C17.2091 11 19 9.20914 19 7C19 4.79086 17.2091 3 15 3Z" fill="black"/>
<path fill-rule="evenodd" clip-rule="evenodd" d="M7.79768 13.1224C7.4726 12.4577 6.78976 12 6 12H4C2.89543 12 2 12.8954 2 14V20C2 21.1046 2.89543 22 4 22H6C6.74028 22 7.38663 21.5978 7.73244 21H8.81947C8.88588 21.0243 8.96921 21.0544 9.06681 21.0887C9.32704 21.1803 9.69123 21.3032 10.1087 21.4289C10.9211 21.6733 12.0192 21.9544 12.9524 21.9989C16.8853 22.1861 19.971 20.3373 22.3849 17.6825C23.2655 16.7141 23.2176 15.2962 22.4543 14.3421C21.4442 13.0794 19.632 13.0421 18.4736 13.9614C18.4468 13.9827 18.4198 14.004 18.3926 14.0253C18.2734 13.7025 18.0771 13.4128 17.8321 13.1678C16.9903 12.326 15.5048 11.9052 13.6939 11.9219C12.0981 11.9365 10.1206 12.2886 7.79768 13.1224ZM8 15.18V19H9C9.12311 19 9.24516 19.0227 9.36001 19.067L9.36414 19.0686L9.38139 19.0752C9.39719 19.0812 9.42145 19.0903 9.4534 19.1021C9.51733 19.1258 9.61185 19.1603 9.73084 19.2022C9.96931 19.2861 10.3035 19.3989 10.685 19.5137C11.4706 19.7501 12.3725 19.969 13.0476 20.0011C16.2073 20.1516 18.7557 18.7009 20.9052 16.337C21.0667 16.1594 21.097 15.847 20.8926 15.5915C20.6553 15.2949 20.1227 15.206 19.7169 15.528C18.8327 16.2297 17.5588 17.1056 16.2672 17.4636C15.5479 17.6631 14.8391 17.7898 14.2769 17.8693C13.906 17.9264 13.5139 17.9687 13.1018 17.9955L13.0796 17.997L13.0631 17.998L13.0581 17.9983L13.0564 17.9984L13.0552 17.9985C12.5052 18.0289 12.0341 17.6087 12.0017 17.0588C11.9693 16.5089 12.3878 16.0363 12.9376 16.0019C12.952 16.001 12.9663 16.0001 12.9805 15.9992L12.9971 15.9981C13.0357 15.9954 13.0943 15.9909 13.1702 15.9843C13.322 15.9711 13.5419 15.9491 13.8069 15.9148C13.8679 15.9069 13.931 15.8983 13.9961 15.8891C15.2415 15.6947 15.9723 15.3335 16.3126 15.0249C16.412 14.9347 16.4649 14.861 16.4918 14.8119C16.5176 14.7648 16.5195 14.7406 16.5197 14.7369C16.5199 14.7344 16.5204 14.7273 16.5132 14.7099C16.5045 14.6893 16.4803 14.6444 16.4179 14.582C16.1347 14.2988 15.3077 13.9071 13.7123 13.9218C12.2872 13.9349 10.3736 14.2753 8 15.18Z" fill="black"/>
</svg>
