<svg width="24" height="24" viewBox="0 0 24 24" fill="none" xmlns="http://www.w3.org/2000/svg">
<g clip-path="url(#clip0_867_23654)">
<path d="M3.62513 17.4698C5.92462 20.9916 10.3042 22.8068 14.5878 21.659C18.8715 20.5112 21.7567 16.7494 21.9872 12.5497C21.6372 12.7406 21.2724 12.9238 20.9023 13.0988C18.8661 14.0615 16.0879 15.0453 13.0349 15.8634C9.98182 16.6815 7.08395 17.2185 4.83924 17.4029C4.43119 17.4364 4.02372 17.4601 3.62513 17.4698Z" fill="black"/>
<path d="M9.41142 2.34046C13.722 1.18544 18.1275 3.03049 20.4154 6.59396C20.9471 6.60113 21.43 6.64378 21.8345 6.73501C22.1083 6.79676 22.4014 6.89259 22.6598 7.05428C22.9239 7.21957 23.2166 7.49751 23.3319 7.92796C23.4713 8.44833 23.2777 8.89849 23.0895 9.18412C22.8983 9.47433 22.6296 9.7285 22.3517 9.94767C21.7893 10.3912 20.9889 10.8456 20.0474 11.2907C18.1493 12.1882 15.491 13.1348 12.5173 13.9316C9.54352 14.7284 6.76807 15.2377 4.67553 15.4096C3.63755 15.4949 2.71725 15.5016 2.00839 15.3987C1.65812 15.3478 1.29839 15.262 0.987698 15.1063C0.681912 14.953 0.289116 14.66 0.149684 14.1396C0.0343436 13.7092 0.148795 13.3222 0.294908 13.0469C0.437841 12.7777 0.64372 12.5482 0.849993 12.3578C1.15469 12.0765 1.5516 11.7981 2.00842 11.5261C2.20809 7.29608 5.10081 3.49549 9.41142 2.34046Z" fill="black"/>
</g>
<defs>
<clipPath id="clip0_867_23654">
<rect width="24" height="24" fill="white"/>
</clipPath>
</defs>
</svg>
