<svg width="24" height="24" viewBox="0 0 24 24" fill="none" xmlns="http://www.w3.org/2000/svg">
<path d="M4.54601 19.891L5 19L5 19L4.54601 19.891ZM4.10899 19.454L3.21799 19.908L3.21799 19.908L4.10899 19.454ZM19.891 19.454L19 19L19 19L19.891 19.454ZM19.454 19.891L19 19L19 19L19.454 19.891ZM19.891 9.54601L19 10L19 10L19.891 9.54601ZM19.454 9.10899L19.908 8.21799L19.908 8.21799L19.454 9.10899ZM4.10899 9.54601L3.21799 9.09202L3.21799 9.09202L4.10899 9.54601ZM4.54601 9.10899L4.09202 8.21799L4.09202 8.21799L4.54601 9.10899ZM5 8C5 8.55228 5.44772 9 6 9C6.55228 9 7 8.55228 7 8H5ZM10.7929 3.29289L11.5 2.58579L11.5 2.58579L10.7929 3.29289ZM12.2071 4.70711L12.9142 4L12.9142 4L12.2071 4.70711ZM17 8C17 8.55228 17.4477 9 18 9C18.5523 9 19 8.55228 19 8H17ZM8 12C7.44772 12 7 12.4477 7 13C7 13.5523 7.44772 14 8 14V12ZM12 14C12.5523 14 13 13.5523 13 13C13 12.4477 12.5523 12 12 12V14ZM19 10.6V18.4H21V10.6H19ZM18.4 19H5.6V21H18.4V19ZM5 18.4V10.6H3V18.4H5ZM5.6 10H18.4V8H5.6V10ZM5.6 19C5.30347 19 5.14122 18.9992 5.02463 18.9897C4.91972 18.9811 4.94249 18.9707 5 19L4.09202 20.782C4.36344 20.9203 4.63318 20.9644 4.86177 20.9831C5.07869 21.0008 5.33647 21 5.6 21V19ZM3 18.4C3 18.6635 2.99922 18.9213 3.01695 19.1382C3.03562 19.3668 3.07969 19.6366 3.21799 19.908L5 19C5.0293 19.0575 5.01887 19.0803 5.0103 18.9754C5.00078 18.8588 5 18.6965 5 18.4H3ZM5 19L5 19L3.21799 19.908C3.40973 20.2843 3.71569 20.5903 4.09202 20.782L5 19ZM19 18.4C19 18.6965 18.9992 18.8588 18.9897 18.9754C18.9811 19.0803 18.9707 19.0575 19 19L20.782 19.908C20.9203 19.6366 20.9644 19.3668 20.9831 19.1382C21.0008 18.9213 21 18.6635 21 18.4H19ZM18.4 21C18.6635 21 18.9213 21.0008 19.1382 20.9831C19.3668 20.9644 19.6366 20.9203 19.908 20.782L19 19C19.0575 18.9707 19.0803 18.9811 18.9754 18.9897C18.8588 18.9992 18.6965 19 18.4 19V21ZM19 19L19 19L19.908 20.782C20.2843 20.5903 20.5903 20.2843 20.782 19.908L19 19ZM21 10.6C21 10.3365 21.0008 10.0787 20.9831 9.86177C20.9644 9.63318 20.9203 9.36344 20.782 9.09202L19 10C18.9707 9.94249 18.9811 9.91972 18.9897 10.0246C18.9992 10.1412 19 10.3035 19 10.6H21ZM18.4 10C18.6965 10 18.8588 10.0008 18.9754 10.0103C19.0803 10.0189 19.0575 10.0293 19 10L19.908 8.21799C19.6366 8.07969 19.3668 8.03562 19.1382 8.01695C18.9213 7.99922 18.6635 8 18.4 8V10ZM20.782 9.09202C20.5903 8.71569 20.2843 8.40973 19.908 8.21799L19 10L19 10L20.782 9.09202ZM5 10.6C5 10.3035 5.00078 10.1412 5.0103 10.0246C5.01887 9.91972 5.0293 9.94249 5 10L3.21799 9.09202C3.07969 9.36344 3.03562 9.63318 3.01695 9.86177C2.99922 10.0787 3 10.3365 3 10.6H5ZM5.6 8C5.33647 8 5.07869 7.99922 4.86177 8.01695C4.63318 8.03562 4.36344 8.07969 4.09202 8.21799L5 10C4.94249 10.0293 4.91972 10.0189 5.02463 10.0103C5.14122 10.0008 5.30347 10 5.6 10V8ZM5 10L5 10L4.09202 8.21799C3.71569 8.40973 3.40973 8.71569 3.21799 9.09202L5 10ZM7 8V4H5V8H7ZM7 4H10.0858V2H7V4ZM10.0858 4L11.5 5.41421L12.9142 4L11.5 2.58579L10.0858 4ZM12.9142 6H17V4H12.9142V6ZM17 6V8H19V6H17ZM17 6H19C19 4.89543 18.1046 4 17 4V6ZM11.5 5.41421C11.8751 5.78929 12.3838 6 12.9142 6V4L12.9142 4L11.5 5.41421ZM10.0858 4L10.0858 4L11.5 2.58579C11.1249 2.21071 10.6162 2 10.0858 2V4ZM7 4V4V2C5.89543 2 5 2.89543 5 4H7ZM8 14H12V12H8V14Z" fill="black"/>
</svg>
