<svg width="24" height="24" viewBox="0 0 24 24" fill="none" xmlns="http://www.w3.org/2000/svg">
<path d="M9.99805 18.5004C9.99805 19.8811 8.6549 21.0004 6.99805 21.0004C5.34119 21.0004 3.99805 19.8811 3.99805 18.5004C3.99805 17.1197 5.34119 16.0004 6.99805 16.0004C8.6549 16.0004 9.99805 17.1197 9.99805 18.5004ZM9.99805 18.5004V6.74441C9.99805 6.3028 10.2877 5.91347 10.7107 5.78658L18.7107 3.38658C19.3523 3.1941 19.998 3.67454 19.998 4.34441V15.5004M19.998 15.5004C19.998 16.8811 18.6549 18.0004 16.998 18.0004C15.3412 18.0004 13.998 16.8811 13.998 15.5004C13.998 14.1197 15.3412 13.0004 16.998 13.0004C18.6549 13.0004 19.998 14.1197 19.998 15.5004Z" stroke="black" stroke-width="2" stroke-linejoin="round"/>
</svg>
