<svg width="24" height="24" viewBox="0 0 24 24" fill="none" xmlns="http://www.w3.org/2000/svg">
<path d="M9.50021 12.4999L10.6467 13.6463C10.8419 13.8416 11.1585 13.8416 11.3538 13.6463L14.5002 10.4999M9.28166 5.50607L6.44622 5.05627C6.1452 5.00852 5.87154 5.23815 5.8663 5.54289L5.81689 8.41336C5.81391 8.58633 5.72198 8.74554 5.57368 8.8346L3.11248 10.3126C2.85119 10.4695 2.78916 10.8213 2.98103 11.0582L4.78828 13.2888C4.89718 13.4233 4.9291 13.6043 4.87274 13.7679L3.93742 16.4821C3.83812 16.7703 4.01673 17.0796 4.31593 17.1377L7.13422 17.6848C7.30404 17.7178 7.44487 17.836 7.50683 17.9975L8.53502 20.678C8.64418 20.9625 8.97986 21.0847 9.2464 20.9369L11.757 19.5444C11.9083 19.4605 12.0921 19.4605 12.2434 19.5444L14.754 20.9369C15.0206 21.0847 15.3562 20.9625 15.4654 20.678L16.4936 17.9975C16.5556 17.836 16.6964 17.7178 16.8662 17.6848L19.6845 17.1377C19.9837 17.0796 20.1623 16.7703 20.063 16.4821L19.1277 13.7679C19.0713 13.6043 19.1032 13.4233 19.2121 13.2888L21.0194 11.0582C21.2113 10.8213 21.1492 10.4695 20.8879 10.3126L18.4267 8.8346C18.2784 8.74554 18.1865 8.58633 18.1835 8.41336L18.1341 5.54289C18.1289 5.23814 17.8552 5.00852 17.5542 5.05628L14.7188 5.50607C14.5479 5.53317 14.3751 5.47029 14.2617 5.3397L12.3787 3.17255C12.1788 2.94248 11.8216 2.94248 11.6217 3.17255L9.73874 5.3397C9.62528 5.47029 9.45252 5.53317 9.28166 5.50607Z" stroke="black" stroke-width="2" stroke-linecap="round"/>
</svg>
