<svg width="24" height="24" viewBox="0 0 24 24" fill="none" xmlns="http://www.w3.org/2000/svg">
<path d="M11.051 9.35969C11.3574 7.45493 13.0088 6 15 6C17.2091 6 19 7.79086 19 10C19 10.8773 18.7175 11.6887 18.2386 12.3482M11.051 9.35969C12.2287 9.78803 13.2343 10.5747 13.936 11.5879C14.2597 12.0553 14.8744 12.2639 15.4267 12.1288C15.7706 12.0446 16.1301 12 16.5 12C17.1163 12 17.7037 12.1239 18.2386 12.3482M11.051 9.35969C10.4111 9.12695 9.72036 9 9 9C5.68629 9 3 11.6863 3 15C3 18.3137 5.68629 21 9 21H16.5C18.9853 21 21 18.9853 21 16.5C21 14.631 19.8606 13.0282 18.2386 12.3482M15 2.5V2M10.0489 4.55021L9.69531 4.19666M19.9472 4.55021L20.3008 4.19666M23 9.5H22.5" stroke="black" stroke-width="2" stroke-linecap="round" stroke-linejoin="round"/>
</svg>
