<svg width="24" height="24" viewBox="0 0 24 24" fill="none" xmlns="http://www.w3.org/2000/svg">
<path fill-rule="evenodd" clip-rule="evenodd" d="M2 6C2 4.89543 2.89543 4 4 4H20C21.1046 4 22 4.89543 22 6V8C22 8.55228 21.5523 9 21 9C20.4477 9 20 8.55228 20 8V6H4V18H10C10.5523 18 11 18.4477 11 19C11 19.5523 10.5523 20 10 20H4C2.89543 20 2 19.1046 2 18V6ZM18 11C18.5523 11 19 11.4477 19 12C19 13.2668 19.2816 13.9508 19.6654 14.3346C20.0492 14.7184 20.7332 15 22 15C22.5523 15 23 15.4477 23 16C23 16.5523 22.5523 17 22 17C20.7332 17 20.0492 17.2816 19.6654 17.6654C19.2816 18.0492 19 18.7332 19 20C19 20.5523 18.5523 21 18 21C17.4477 21 17 20.5523 17 20C17 18.7332 16.7184 18.0492 16.3346 17.6654C15.9508 17.2816 15.2668 17 14 17C13.4477 17 13 16.5523 13 16C13 15.4477 13.4477 15 14 15C15.2668 15 15.9508 14.7184 16.3346 14.3346C16.7184 13.9508 17 13.2668 17 12C17 11.4477 17.4477 11 18 11ZM18 15.4702C17.9216 15.5667 17.838 15.6596 17.7488 15.7488C17.6596 15.838 17.5667 15.9216 17.4702 16C17.5667 16.0784 17.6596 16.162 17.7488 16.2512C17.838 16.3404 17.9216 16.4333 18 16.5298C18.0784 16.4333 18.162 16.3404 18.2512 16.2512C18.3404 16.162 18.4333 16.0784 18.5298 16C18.4333 15.9216 18.3404 15.838 18.2512 15.7488C18.162 15.6596 18.0784 15.5667 18 15.4702Z" fill="black"/>
<path d="M7 8C7 8.55228 6.55228 9 6 9C5.44772 9 5 8.55228 5 8C5 7.44772 5.44772 7 6 7C6.55228 7 7 7.44772 7 8Z" fill="black"/>
<path d="M10 8C10 8.55228 9.55228 9 9 9C8.44772 9 8 8.55228 8 8C8 7.44772 8.44772 7 9 7C9.55228 7 10 7.44772 10 8Z" fill="black"/>
<path d="M12 9C12.5523 9 13 8.55228 13 8C13 7.44772 12.5523 7 12 7C11.4477 7 11 7.44772 11 8C11 8.55228 11.4477 9 12 9Z" fill="black"/>
</svg>
