<svg width="24" height="24" viewBox="0 0 24 24" fill="none" xmlns="http://www.w3.org/2000/svg">
<path fill-rule="evenodd" clip-rule="evenodd" d="M5 4H4C3.44772 4 3 3.55228 3 3C3 2.44772 3.44772 2 4 2H20C20.5523 2 21 2.44772 21 3C21 3.55228 20.5523 4 20 4H19V7.46482C19 8.13352 18.6658 8.75799 18.1094 9.12892L13.8028 12L18.1094 14.8711C18.6658 15.242 19 15.8665 19 16.5352V20H20C20.5523 20 21 20.4477 21 21C21 21.5523 20.5523 22 20 22H4C3.44772 22 3 21.5523 3 21C3 20.4477 3.44772 20 4 20H5V16.5352C5 15.8665 5.3342 15.242 5.8906 14.8711L10.1972 12L5.8906 9.12892C5.3342 8.75799 5 8.13352 5 7.46482V4ZM7 4V7H17V4H7ZM17 18V16.5352L12 13.2019L7 16.5352V18H17Z" fill="black"/>
</svg>
