<svg width="24" height="24" viewBox="0 0 24 24" fill="none" xmlns="http://www.w3.org/2000/svg">
<path fill-rule="evenodd" clip-rule="evenodd" d="M3 8.08489C3 7.36234 3.38973 6.69597 4.01949 6.34173L11.0195 2.4043C11.6283 2.06185 12.3717 2.06185 12.9805 2.4043L19.9805 6.34176C20.6103 6.69599 21 7.36236 21 8.08492L21 15.9152C21 16.6378 20.6103 17.3041 19.9805 17.6584L12.9805 21.5958C12.3717 21.9382 11.6283 21.9383 11.0195 21.5958L4.01954 17.6587C3.38975 17.3044 3 16.6381 3 15.9155V8.08489ZM8.50003 12C8.50003 10.067 10.067 8.5 12 8.5C13.933 8.5 15.5 10.067 15.5 12C15.5 13.933 13.933 15.5 12 15.5C10.067 15.5 8.50003 13.933 8.50003 12Z" fill="black"/>
</svg>
