<svg width="24" height="24" viewBox="0 0 24 24" fill="none" xmlns="http://www.w3.org/2000/svg">
<path fill-rule="evenodd" clip-rule="evenodd" d="M7 2C5.34315 2 4 3.34315 4 5V19C4 20.6569 5.34315 22 7 22H18C19.1046 22 20 21.1046 20 20V4C20 2.89543 19.1046 2 18 2H7ZM6 19C6 19.5523 6.44772 20 7 20H18V18H7C6.44772 18 6 18.4477 6 19ZM9 6C8.44772 6 8 6.44772 8 7C8 7.55228 8.44772 8 9 8H15C15.5523 8 16 7.55228 16 7C16 6.44772 15.5523 6 15 6H9ZM8 11C8 10.4477 8.44772 10 9 10H12C12.5523 10 13 10.4477 13 11C13 11.5523 12.5523 12 12 12H9C8.44772 12 8 11.5523 8 11Z" fill="black"/>
</svg>
