<svg width="24" height="24" viewBox="0 0 24 24" fill="none" xmlns="http://www.w3.org/2000/svg">
<path d="M6 7C4.36307 7 2.91089 7.78702 1.99978 9H1C0.447715 9 0 9.44772 0 10C0 10.5523 0.447715 11 1 11H1.10021C1.03449 11.3234 1 11.6579 1 12C1 14.7614 3.23858 17 6 17C8.76142 17 11 14.7614 11 12C11 11.402 10.8946 10.8274 10.7013 10.2946C11.094 10.1057 11.5342 10 12 10C12.4658 10 12.906 10.1057 13.2987 10.2946C13.1054 10.8274 13 11.402 13 12C13 14.7614 15.2386 17 18 17C20.7614 17 23 14.7614 23 12C23 11.6579 22.9655 11.3234 22.8998 11H23C23.5523 11 24 10.5523 24 10C24 9.44772 23.5523 9 23 9H22.0002C21.0891 7.78702 19.6369 7 18 7C16.5583 7 15.2598 7.61057 14.3482 8.58484C13.6478 8.21173 12.848 8 12 8C11.152 8 10.3522 8.21173 9.65181 8.58484C8.74019 7.61056 7.4417 7 6 7Z" fill="black"/>
</svg>
