<svg width="24" height="24" viewBox="0 0 24 24" fill="none" xmlns="http://www.w3.org/2000/svg">
<path fill-rule="evenodd" clip-rule="evenodd" d="M12 2C6.47715 2 2 6.47715 2 12C2 17.5228 6.47715 22 12 22C17.5228 22 22 17.5228 22 12C22 6.47715 17.5228 2 12 2ZM9 9C9 7.89543 9.89543 7 11 7H13C14.1046 7 15 7.89543 15 9V10C15 10.6295 14.7036 11.2223 14.2 11.6L13 12.5V13C13 13.5523 12.5523 14 12 14C11.4477 14 11 13.5523 11 13V12.5C11 11.8705 11.2964 11.2777 11.8 10.9L13 10V9H11V10C11 10.5523 10.5523 11 10 11C9.44772 11 9 10.5523 9 10V9ZM12 17C12.5523 17 13 16.5523 13 16C13 15.4477 12.5523 15 12 15C11.4477 15 11 15.4477 11 16C11 16.5523 11.4477 17 12 17Z" fill="black"/>
</svg>
