<svg width="24" height="24" viewBox="0 0 24 24" fill="none" xmlns="http://www.w3.org/2000/svg">
<path fill-rule="evenodd" clip-rule="evenodd" d="M18.4004 13.3846C19.1767 13.8965 20.2311 13.8109 20.9142 13.1277L22 12.0419C22.781 11.2609 22.781 9.99455 22 9.2135L14.9289 2.14243C14.1479 1.36138 12.8816 1.36138 12.1005 2.14242L11.0147 3.2282C10.3352 3.90768 10.2469 4.95442 10.7496 5.72942L4.51496 8.60229C3.88731 8.8915 3.45344 9.48425 3.36749 10.17L2.05029 20.678L8.06763 14.6607C8.02344 14.4955 7.99988 14.3218 7.99988 14.1426C7.99988 13.0381 8.89531 12.1426 9.99988 12.1426C11.1044 12.1426 11.9999 13.0381 11.9999 14.1426C11.9999 15.2472 11.1044 16.1426 9.99988 16.1426C9.82073 16.1426 9.64709 16.1191 9.48187 16.0749L3.46745 22.0893L13.9202 20.7053C14.5928 20.6162 15.1744 20.1922 15.465 19.5791L18.4004 13.3846ZM19.5 11.7135L12.4289 4.64242L13.5147 3.55664L20.5858 10.6277L19.5 11.7135Z" fill="black"/>
</svg>
