<svg width="24" height="24" viewBox="0 0 24 24" fill="none" xmlns="http://www.w3.org/2000/svg">
<path d="M6.52571 2.64935C6.82052 2.83156 6.99997 3.15342 6.99997 3.5V8.5C6.99997 9.05229 6.55226 9.5 5.99997 9.5C5.44769 9.5 4.99997 9.05229 4.99997 8.5V5.11804L4.44719 5.39443C3.95321 5.64142 3.35254 5.44119 3.10555 4.94721C2.85856 4.45324 3.05878 3.85256 3.55276 3.60557L5.55276 2.60557C5.86275 2.45058 6.23089 2.46714 6.52571 2.64935Z" fill="black"/>
<path d="M11 5C10.4477 5 10 5.44772 10 6C10 6.55228 10.4477 7 11 7H20C20.5523 7 21 6.55228 21 6C21 5.44772 20.5523 5 20 5H11Z" fill="black"/>
<path d="M11 17C10.4477 17 10 17.4477 10 18C10 18.5523 10.4477 19 11 19H20C20.5523 19 21 18.5523 21 18C21 17.4477 20.5523 17 20 17H11Z" fill="black"/>
<path d="M4.85818 16.7938L4.85931 16.7929C4.86791 16.7868 4.88506 16.775 4.90802 16.7601C4.95469 16.7297 5.0245 16.6875 5.10913 16.6454C5.29403 16.5535 5.47408 16.5 5.61102 16.5C5.82585 16.5 6 16.6742 6 16.889C6 17.0234 5.95629 17.1494 5.79533 17.3244C5.61017 17.5256 5.33749 17.7183 4.95281 17.9698L4.84678 18.0388C4.52076 18.2506 4.10607 18.52 3.77855 18.8324C3.39201 19.2011 3 19.7457 3 20.5C3 21.0523 3.44772 21.5 4 21.5H7.25C7.80228 21.5 8.25 21.0523 8.25 20.5C8.25 19.9477 7.80228 19.5 7.25 19.5H6.26488C6.58935 19.2821 6.96114 19.0111 7.26717 18.6785C7.66871 18.2421 8 17.6543 8 16.889C8 15.5696 6.93042 14.5 5.61102 14.5C5.03694 14.5 4.53647 14.6965 4.21863 14.8546C4.05188 14.9375 3.91475 15.0203 3.81732 15.0837C3.76824 15.1156 3.72823 15.1433 3.69851 15.1645C3.68363 15.1751 3.67124 15.1842 3.66151 15.1914L3.64888 15.2008L3.64408 15.2045L3.64205 15.206L3.64114 15.2067C3.64114 15.2067 3.64029 15.2074 4.2499 15.9999L3.64029 15.2074C3.20254 15.5441 3.12064 16.172 3.45738 16.6097C3.79262 17.0455 4.41641 17.1286 4.85389 16.7971L4.85489 16.7963L4.85687 16.7948L4.85818 16.7938Z" fill="black"/>
</svg>
