<svg width="24" height="24" viewBox="0 0 24 24" fill="none" xmlns="http://www.w3.org/2000/svg">
<path fill-rule="evenodd" clip-rule="evenodd" d="M22 12C22 17.5228 17.5228 22 12 22C6.47715 22 2 17.5228 2 12C2 6.47715 6.47715 2 12 2C17.5228 2 22 6.47715 22 12ZM14.6929 17C14.8823 17 15.0555 16.893 15.1402 16.7236L15.8053 15.3934C15.9177 15.1684 15.8457 14.895 15.6369 14.7547L13.1661 13.0944C13.0927 13.045 13.0074 13.016 12.9191 13.0104L11.336 12.9094C11.1929 12.9002 11.0528 12.953 10.9512 13.0542L10.2929 13.7102C10.1238 13.8786 10.0973 14.1431 10.2297 14.3417L11.8535 16.7774C11.9463 16.9165 12.1024 17 12.2695 17H14.6929ZM8.27066 10.4651C8.13034 10.7436 7.77207 10.8271 7.52306 10.6394L5.09828 8.81073C4.90864 8.66772 4.84434 8.41009 4.95729 8.20114C6.30964 5.69945 8.95613 4 11.9995 4C12.4968 4 12.9834 4.04536 13.4555 4.13217C13.7273 4.18214 13.89 4.45549 13.8228 4.72351L13.074 7.70968C13.0292 7.88841 12.8897 8.028 12.711 8.07296L9.22792 8.94918C9.08713 8.9846 8.96868 9.07946 8.90337 9.20912L8.27066 10.4651Z" fill="black"/>
</svg>
