<svg width="24" height="24" viewBox="0 0 24 24" fill="none" xmlns="http://www.w3.org/2000/svg">
<path d="M17.5 9C17.5 10.3807 16.3807 11.5 15 11.5C13.6193 11.5 12.5 10.3807 12.5 9C12.5 7.61929 13.6193 6.5 15 6.5C16.3807 6.5 17.5 7.61929 17.5 9Z" fill="black"/>
<path fill-rule="evenodd" clip-rule="evenodd" d="M5 3H19C20.1 3 21 3.9 21 5V19C21 20.1 20.1 21 19 21H5C3.9 21 3 20.1 3 19V5C3 3.9 3.9 3 5 3ZM19 12.83V5H5V12.22L6.27 11.27L6.29 11.25C7.51 10.43 9.15 10.62 10.15 11.7C11.62 13.28 13.09 14.45 15 14.45C16.7 14.45 17.86 13.89 19 12.83Z" fill="black"/>
</svg>
