<svg width="24" height="24" viewBox="0 0 24 24" fill="none" xmlns="http://www.w3.org/2000/svg">
<path d="M12.0556 3.59971C12.2751 3.28123 12.2912 2.86472 12.097 2.53021C11.9028 2.19569 11.5332 2.00315 11.1477 2.03581C6.02531 2.46985 2.00391 6.76372 2.00391 11.9979C2.00391 17.5197 6.48022 21.996 12.002 21.996C17.2363 21.996 21.5303 17.9745 21.9641 12.8519C21.9968 12.4664 21.8042 12.0968 21.4697 11.9026C21.1352 11.7084 20.7187 11.7246 20.4002 11.9441C19.4341 12.61 18.2641 12.9998 17 12.9998C13.6863 12.9998 11 10.3135 11 6.99976C11 5.73577 11.3897 4.56582 12.0556 3.59971Z" fill="black"/>
</svg>
