<svg width="24" height="24" viewBox="0 0 24 24" fill="none" xmlns="http://www.w3.org/2000/svg">
<path d="M21 8L18.3 4.4C18.1111 4.14819 17.8148 4 17.5 4H6.5C6.18524 4 5.88885 4.14819 5.7 4.4L3 8M21 8V9C21 9.8885 20.6137 10.6868 20 11.2361M21 8H3M3 8V9C3 9.8885 3.38625 10.6868 4 11.2361M15 9C15 10.6569 16.3431 12 18 12C18.7684 12 19.4692 11.7111 20 11.2361M15 9V8M15 9C15 10.6569 13.6569 12 12 12C10.3431 12 9 10.6569 9 9M9 9C9 10.6569 7.65685 12 6 12C5.23165 12 4.53076 11.7111 4 11.2361M9 9V8M14 20L14 17C14 15.8954 13.1046 15 12 15C10.8954 15 10 15.8954 10 17L10 20M4 11.2361V19C4 19.5523 4.44772 20 5 20H19C19.5523 20 20 19.5523 20 19V11.2361" stroke="black" stroke-width="2" stroke-linecap="round" stroke-linejoin="round"/>
</svg>
