<svg width="24" height="24" viewBox="0 0 24 24" fill="none" xmlns="http://www.w3.org/2000/svg">
<path d="M4 14.2105L6.84488 12.0821C7.66137 11.5378 8.75215 11.6663 9.41987 12.3853C10.9123 13.9926 12.6426 15.4538 15 15.4538C17.1727 15.4538 18.6125 14.6485 20 13.261M5 20H19C19.5523 20 20 19.5523 20 19V5C20 4.44772 19.5523 4 19 4H5C4.44772 4 4 4.44772 4 5V19C4 19.5523 4.44772 20 5 20ZM17 9C17 10.1046 16.1046 11 15 11C13.8954 11 13 10.1046 13 9C13 7.89543 13.8954 7 15 7C16.1046 7 17 7.89543 17 9Z" stroke="black" stroke-width="2" stroke-linejoin="round"/>
</svg>
