<svg width="24" height="24" viewBox="0 0 24 24" fill="none" xmlns="http://www.w3.org/2000/svg">
<path fill-rule="evenodd" clip-rule="evenodd" d="M3 4C3 2.89543 3.89543 2 5 2H18C19.1046 2 20 2.89543 20 4V12.8021C17.7054 11.4759 14.7205 11.7943 12.7574 13.7574C10.4935 16.0213 10.4169 19.6442 12.5276 22H5C3.89543 22 3 21.1046 3 20V4ZM7 7C7 6.44772 7.44772 6 8 6H15C15.5523 6 16 6.44772 16 7C16 7.55228 15.5523 8 15 8H8C7.44772 8 7 7.55228 7 7ZM7 11C7 10.4477 7.44772 10 8 10H11C11.5523 10 12 10.4477 12 11C12 11.5523 11.5523 12 11 12H8C7.44772 12 7 11.5523 7 11ZM7 15C7 14.4477 7.44772 14 8 14H9C9.55228 14 10 14.4477 10 15C10 15.5523 9.55228 16 9 16H8C7.44772 16 7 15.5523 7 15Z" fill="black"/>
<path fill-rule="evenodd" clip-rule="evenodd" d="M19.8284 15.1716C18.2663 13.6095 15.7337 13.6095 14.1716 15.1716C12.6095 16.7337 12.6095 19.2663 14.1716 20.8284C15.4895 22.1464 17.4983 22.3524 19.0322 21.4464L20.2929 22.7071C20.6834 23.0976 21.3166 23.0976 21.7071 22.7071C22.0976 22.3166 22.0976 21.6834 21.7071 21.2929L20.4464 20.0322C21.3524 18.4983 21.1464 16.4895 19.8284 15.1716ZM15.5858 16.5858C16.3668 15.8047 17.6332 15.8047 18.4142 16.5858C19.1953 17.3668 19.1953 18.6332 18.4142 19.4142C17.6332 20.1953 16.3668 20.1953 15.5858 19.4142C14.8047 18.6332 14.8047 17.3668 15.5858 16.5858Z" fill="black"/>
</svg>
