<svg width="24" height="24" viewBox="0 0 24 24" fill="none" xmlns="http://www.w3.org/2000/svg">
<path d="M12.7071 1.29289C12.3166 0.902369 11.6834 0.902369 11.2929 1.29289L8.29289 4.29289C7.90237 4.68342 7.90237 5.31658 8.29289 5.70711C8.68342 6.09763 9.31658 6.09763 9.70711 5.70711L11 4.41421V8C11 8.55228 11.4477 9 12 9C12.5523 9 13 8.55228 13 8V4.41421L14.2929 5.70711C14.6834 6.09763 15.3166 6.09763 15.7071 5.70711C16.0976 5.31658 16.0976 4.68342 15.7071 4.29289L12.7071 1.29289Z" fill="black"/>
<path d="M2 20C2 19.4477 2.44772 19 3 19H21C21.5523 19 22 19.4477 22 20C22 20.5523 21.5523 21 21 21H3C2.44772 21 2 20.5523 2 20Z" fill="black"/>
<path d="M16 17C16.5523 17 17 16.5523 17 16C17 13.2386 14.7614 11 12 11C9.23858 11 7 13.2386 7 16C7 16.5523 7.44772 17 8 17C9.6977 17 14.3023 17 16 17Z" fill="black"/>
<path d="M2 16C2 15.4477 2.44772 15 3 15H4C4.55228 15 5 15.4477 5 16C5 16.5523 4.55228 17 4 17H3C2.44772 17 2 16.5523 2 16Z" fill="black"/>
<path d="M19 16C19 15.4477 19.4477 15 20 15H21C21.5523 15 22 15.4477 22 16C22 16.5523 21.5523 17 21 17H20C19.4477 17 19 16.5523 19 16Z" fill="black"/>
<path d="M17.4848 10.0917C17.0617 10.4467 17.0065 11.0774 17.3615 11.5005C17.7165 11.9236 18.3473 11.9788 18.7704 11.6238L19.5364 10.981C19.9595 10.626 20.0147 9.99521 19.6597 9.57213C19.3047 9.14906 18.6739 9.09387 18.2508 9.44888L17.4848 10.0917Z" fill="black"/>
<path d="M4.33768 9.57214C4.69268 9.14906 5.32344 9.09388 5.74651 9.44888L6.51256 10.0917C6.93563 10.4467 6.99082 11.0774 6.63581 11.5005C6.28081 11.9236 5.65006 11.9788 5.22698 11.6238L4.46094 10.981C4.03786 10.626 3.98268 9.99521 4.33768 9.57214Z" fill="black"/>
</svg>
