<svg width="49" height="48" viewBox="0 0 49 48" fill="none" xmlns="http://www.w3.org/2000/svg">
<circle cx="3.59995" cy="3.59995" r="3.59995" transform="matrix(-1 0 0 1 13.832 9.96094)" fill="black"/>
<path d="M9.63215 13.0205L16.3521 19.7404" stroke="black" stroke-width="1.79997"/>
<circle cx="39.6317" cy="13.5609" r="3.59995" fill="black"/>
<path d="M40.2917 13.0205L33.5718 19.7404" stroke="black" stroke-width="1.79997"/>
<path fill-rule="evenodd" clip-rule="evenodd" d="M11.2538 35.0429C9.31357 34.1193 8.18436 32.045 8.56261 29.9297C10.1861 20.8506 16.9519 14.041 25.0517 14.041C33.1712 14.041 39.9502 20.8836 41.5526 29.9957C41.9253 32.1149 40.7869 34.1881 38.84 35.1043C34.6741 37.0648 30.0209 38.1606 25.1117 38.1606C20.1516 38.1606 15.4528 37.0419 11.2538 35.0429Z" fill="#FFDF6F"/>
<path d="M41.5526 29.9957L42.439 29.8398L41.5526 29.9957ZM38.84 35.1043L38.4568 34.29L38.84 35.1043ZM9.44855 30.0881C11.0173 21.3153 17.5017 14.941 25.0517 14.941V13.141C16.402 13.141 9.35492 20.3859 7.67668 29.7713L9.44855 30.0881ZM25.0517 14.941C32.62 14.941 39.1178 21.3464 40.6662 30.1516L42.439 29.8398C40.7826 20.4209 33.7225 13.141 25.0517 13.141V14.941ZM38.4568 34.29C34.4082 36.1952 29.8856 37.2607 25.1117 37.2607V39.0606C30.1561 39.0606 34.9399 37.9343 39.2232 35.9187L38.4568 34.29ZM25.1117 37.2607C20.2883 37.2607 15.7213 36.173 11.6407 34.2303L10.867 35.8556C15.1842 37.9108 20.015 39.0606 25.1117 39.0606V37.2607ZM40.6662 30.1516C40.965 31.8506 40.0553 33.5378 38.4568 34.29L39.2232 35.9187C41.5185 34.8385 42.8855 32.3791 42.439 29.8398L40.6662 30.1516ZM7.67668 29.7713C7.22342 32.306 8.57956 34.7666 10.867 35.8556L11.6407 34.2303C10.0476 33.4719 9.14529 31.784 9.44855 30.0881L7.67668 29.7713Z" fill="black"/>
<path fill-rule="evenodd" clip-rule="evenodd" d="M14.7154 32.7862C13.1536 32.1501 12.2272 30.4884 12.7684 28.8913C14.4373 23.9658 19.3057 20.4014 25.0515 20.4014C30.7973 20.4014 35.6657 23.9658 37.3346 28.8913C37.8758 30.4884 36.9494 32.1501 35.3876 32.7862C32.1977 34.0853 28.7082 34.8012 25.0515 34.8012C21.3948 34.8012 17.9053 34.0853 14.7154 32.7862Z" fill="black"/>
<ellipse cx="29.1918" cy="28.0806" rx="2.99995" ry="2.39996" fill="white"/>
<ellipse cx="20.6037" cy="28.0816" rx="2.99995" ry="2.39996" fill="white"/>
</svg>
