<svg width="24" height="24" viewBox="0 0 24 24" fill="none" xmlns="http://www.w3.org/2000/svg">
<path d="M19.4142 3.00008C18.6332 2.21904 17.3668 2.21905 16.5858 3.00009L11.5858 8.0001C11.2107 8.37517 11 8.88388 11 9.41431V12.0001C11 12.2654 11.1054 12.5197 11.2929 12.7072C11.4804 12.8948 11.7348 13.0001 12 13.0001L14.5858 13.0001C15.1162 13.0001 15.6249 12.7894 16 12.4143L21 7.41426C21.7811 6.6332 21.781 5.36687 21 4.58583L19.4142 3.00008Z" fill="black"/>
<path d="M6 11.0001C4.34315 11.0001 3 12.3433 3 14.0001C3 15.657 4.34315 17.0001 6 17.0001H16C16.5523 17.0001 17 17.4479 17 18.0001C17 18.5524 16.5523 19.0001 16 19.0001H12C11.4477 19.0001 11 19.4479 11 20.0001C11 20.5524 11.4477 21.0001 12 21.0001H16C17.6569 21.0001 19 19.657 19 18.0001C19 16.3433 17.6569 15.0001 16 15.0001H6C5.44772 15.0001 5 14.5524 5 14.0001C5 13.4479 5.44772 13.0001 6 13.0001H8C8.55228 13.0001 9 12.5524 9 12.0001C9 11.4479 8.55228 11.0001 8 11.0001H6Z" fill="black"/>
</svg>
