<svg width="24" height="24" viewBox="0 0 24 24" fill="none" xmlns="http://www.w3.org/2000/svg">
<path d="M12.6502 2.16624C12.2288 2.02141 11.7712 2.02141 11.3498 2.16624L4.34984 4.57249C3.54224 4.85011 3 5.60988 3 6.46387V11.9125C3 14.7193 4.14891 16.742 5.8125 18.317C7.38493 19.8056 9.44484 20.9164 11.3681 21.9535L11.5252 22.0382C11.8215 22.1981 12.1785 22.1981 12.4748 22.0382L12.6319 21.9535C14.5552 20.9164 16.6151 19.8056 18.1875 18.317C19.8511 16.742 21 14.7193 21 11.9125V6.46387C21 5.60988 20.4578 4.85011 19.6502 4.57249L12.6502 2.16624Z" fill="black"/>
</svg>
