<svg width="24" height="24" viewBox="0 0 24 24" fill="none" xmlns="http://www.w3.org/2000/svg">
<path fill-rule="evenodd" clip-rule="evenodd" d="M14.056 3.54893C14.2097 2.45511 15.221 1.69301 16.3149 1.84674L19.2857 2.26426C20.3795 2.41798 21.1416 3.42932 20.9879 4.52314L20.8037 5.83323C20.6899 6.64308 20.0945 7.30205 19.3003 7.49714L18.0004 7.81646L17.4472 11.7531L20.8966 14.9995H21C21.5523 14.9995 22 15.4473 22 15.9995V18.9995C22 20.1041 21.1046 20.9995 20 20.9995H4C2.89543 20.9995 2 20.1041 2 18.9995V15.9995C2 15.4473 2.44772 14.9995 3 14.9995H3.03756L4.54073 13.2311L3.55013 8.78283C3.34058 7.84183 3.83059 6.91838 4.65879 6.53392L4.64681 6.44868C4.41622 4.80795 5.55936 3.29094 7.20009 3.06035C8.84082 2.82976 10.3578 3.97291 10.5884 5.61364L10.6003 5.69802C11.5019 5.83783 12.2281 6.58826 12.2885 7.54937L12.5584 11.8408L15.5129 11.1457L16.0199 7.53811L14.8584 6.87287C14.1488 6.46643 13.758 5.66887 13.8719 4.85902L14.056 3.54893ZM17.2543 5.94029L18.8232 5.55489L19.0073 4.24479L16.0365 3.82728L15.8524 5.13737L17.2543 5.94029ZM6.62735 6.17033L8.60788 5.89198C8.53102 5.34507 8.02535 4.96403 7.47844 5.04089C6.93153 5.11775 6.55048 5.62342 6.62735 6.17033ZM17.9784 14.9995H5.66244L8.01645 12.2301L11.1922 13.7246L11.2587 13.7559C11.6673 13.9482 12.1289 13.9965 12.5684 13.8931L15.956 13.096L17.9784 14.9995Z" fill="black"/>
</svg>
