<svg width="24" height="24" viewBox="0 0 24 24" fill="none" xmlns="http://www.w3.org/2000/svg">
<path fill-rule="evenodd" clip-rule="evenodd" d="M6.56811 2H17.4319C17.6843 1.99997 17.9301 1.99994 18.1382 2.01695C18.3668 2.03563 18.6366 2.07969 18.908 2.21799C19.2843 2.40974 19.5903 2.7157 19.782 3.09203C19.9203 3.36345 19.9644 3.63318 19.9831 3.86178C20.0001 4.06994 20 4.31574 20 4.56812V18.9346C20 19.3994 20.0001 19.8149 19.9698 20.1459C19.9398 20.4743 19.8687 20.909 19.5833 21.2788C19.2205 21.7489 18.6675 22.0334 18.0741 22.0554C17.6073 22.0728 17.2122 21.8779 16.9276 21.7115C16.6407 21.5437 16.3025 21.3022 15.9243 21.032L12.3487 18.478C12.1705 18.3507 12.0771 18.2846 12.0065 18.2412L12 18.2372L11.9935 18.2412C11.9229 18.2846 11.8295 18.3507 11.6513 18.478L8.07567 21.032C7.6975 21.3022 7.35935 21.5437 7.07244 21.7115C6.7878 21.8779 6.39272 22.0728 5.9259 22.0554C5.33249 22.0334 4.77955 21.7489 4.41673 21.2788C4.13131 20.909 4.06022 20.4743 4.0302 20.1459C3.99995 19.8149 3.99997 19.3994 4 18.9346L4 4.56811C3.99997 4.31573 3.99994 4.06993 4.01695 3.86178C4.03563 3.63318 4.07969 3.36345 4.21799 3.09202C4.40974 2.7157 4.7157 2.40974 5.09202 2.21799C5.36345 2.07969 5.63318 2.03563 5.86178 2.01695C6.06993 1.99994 6.31573 1.99997 6.56811 2ZM12 6C12.5523 6 13 6.44772 13 7V9H15C15.5523 9 16 9.44772 16 10C16 10.5523 15.5523 11 15 11H13V13C13 13.5523 12.5523 14 12 14C11.4477 14 11 13.5523 11 13V11H9C8.44772 11 8 10.5523 8 10C8 9.44771 8.44772 9 9 9H11V7C11 6.44772 11.4477 6 12 6Z" fill="black"/>
</svg>
