<svg width="24" height="24" viewBox="0 0 24 24" fill="none" xmlns="http://www.w3.org/2000/svg">
<path fill-rule="evenodd" clip-rule="evenodd" d="M8 4C8 2.89543 8.89543 2 10 2H14C15.1046 2 16 2.89543 16 4V5H19C20.1046 5 21 5.89543 21 7V19C21 20.1046 20.1046 21 19 21H18C18 21.5523 17.5523 22 17 22C16.4477 22 16 21.5523 16 21H8C8 21.5523 7.55228 22 7 22C6.44772 22 6 21.5523 6 21H5C3.89543 21 3 20.1046 3 19V7C3 5.89543 3.89543 5 5 5H8V4ZM10 5H14V4H10V5ZM9 9C9.55228 9 10 9.44772 10 10V16C10 16.5523 9.55228 17 9 17C8.44772 17 8 16.5523 8 16V10C8 9.44772 8.44772 9 9 9ZM15 9C15.5523 9 16 9.44772 16 10V16C16 16.5523 15.5523 17 15 17C14.4477 17 14 16.5523 14 16V10C14 9.44772 14.4477 9 15 9Z" fill="black"/>
</svg>
