<svg width="24" height="24" viewBox="0 0 24 24" fill="none" xmlns="http://www.w3.org/2000/svg">
<path d="M3 10V5C3 4.44772 3.44772 4 4 4H9.46482C9.79917 4 10.1114 4.1671 10.2969 4.4453L11.7031 6.5547C11.8886 6.8329 12.2008 7 12.5352 7H20C20.5523 7 21 7.44772 21 8V18C21 18.5523 20.5523 19 20 19H14" stroke="black" stroke-width="2" stroke-linecap="round" stroke-linejoin="round"/>
<path d="M2 16.75C2 18.5449 3.45507 20 5.25 20H8C9.38071 20 10.5 18.8807 10.5 17.5C10.5 16.1193 9.38071 15 8 15L7.9888 15C7.4116 14.0983 6.40146 13.5 5.25 13.5C3.45507 13.5 2 14.9551 2 16.75Z" stroke="black" stroke-width="2" stroke-linecap="square" stroke-linejoin="round"/>
</svg>
