<svg width="24" height="24" viewBox="0 0 24 24" fill="none" xmlns="http://www.w3.org/2000/svg">
<path d="M12.4719 3.11833C12.797 3.29235 13 3.63121 13 4V20C13 20.3688 12.797 20.7077 12.4719 20.8817C12.1467 21.0557 11.7522 21.0366 11.4453 20.8321L5.69722 17H3C1.89543 17 1 16.1046 1 15V9C1 7.89543 1.89543 7 3 7H5.69722L11.4453 3.16795C11.7522 2.96338 12.1467 2.94431 12.4719 3.11833Z" fill="black"/>
<path d="M22.2071 10.707C22.5976 10.3165 22.5976 9.68331 22.2071 9.29278C21.8166 8.90226 21.1834 8.90226 20.7929 9.29278L19.3787 10.707L17.9644 9.29278C17.5739 8.90226 16.9408 8.90226 16.5502 9.29278C16.1597 9.68331 16.1597 10.3165 16.5502 10.707L17.9644 12.1212L16.5502 13.5354C16.1597 13.9259 16.1597 14.5591 16.5502 14.9496C16.9408 15.3402 17.5739 15.3402 17.9644 14.9496L19.3787 13.5354L20.7929 14.9496C21.1834 15.3402 21.8166 15.3402 22.2071 14.9496C22.5976 14.5591 22.5976 13.9259 22.2071 13.5354L20.7929 12.1212L22.2071 10.707Z" fill="black"/>
</svg>
