<svg width="24" height="24" viewBox="0 0 24 24" fill="none" xmlns="http://www.w3.org/2000/svg">
<path fill-rule="evenodd" clip-rule="evenodd" d="M9 6C9 5.44772 9.44772 5 10 5H21C21.5523 5 22 5.44772 22 6C22 6.55228 21.5523 7 21 7H10C9.44772 7 9 6.55228 9 6ZM9 12C9 11.4477 9.44772 11 10 11H21C21.5523 11 22 11.4477 22 12C22 12.5523 21.5523 13 21 13H10C9.44772 13 9 12.5523 9 12ZM9 18C9 17.4477 9.44772 17 10 17H21C21.5523 17 22 17.4477 22 18C22 18.5523 21.5523 19 21 19H10C9.44772 19 9 18.5523 9 18Z" fill="black"/>
<path d="M2 14.2199V9.78012C2 8.94411 2.91358 8.4575 3.57191 8.94286L6.58287 11.1627C7.13904 11.5728 7.13904 12.4272 6.58287 12.8373L3.57191 15.0571C2.91358 15.5425 2 15.0559 2 14.2199Z" fill="black"/>
</svg>
