<svg width="24" height="24" viewBox="0 0 24 24" fill="none" xmlns="http://www.w3.org/2000/svg">
<path d="M6 7V5C6 4.44772 6.44772 4 7 4H11.5858C11.851 4 12.1054 4.10536 12.2929 4.29289L13.7071 5.70711C13.8946 5.89464 14.149 6 14.4142 6H21C21.5523 6 22 6.44772 22 7V15C22 15.5523 21.5523 16 21 16H18M2 19V9C2 8.44772 2.44772 8 3 8H7.58579C7.851 8 8.10536 8.10536 8.29289 8.29289L9.70711 9.70711C9.89464 9.89464 10.149 10 10.4142 10H17C17.5523 10 18 10.4477 18 11V19C18 19.5523 17.5523 20 17 20H3C2.44772 20 2 19.5523 2 19Z" stroke="black" stroke-width="2" stroke-linecap="round" stroke-linejoin="round"/>
</svg>
