<svg width="24" height="24" viewBox="0 0 24 24" fill="none" xmlns="http://www.w3.org/2000/svg">
<path fill-rule="evenodd" clip-rule="evenodd" d="M3 5C3 4.44772 3.44772 4 4 4H20C20.5523 4 21 4.44772 21 5C21 5.55228 20.5523 6 20 6H4C3.44772 6 3 5.55228 3 5ZM7 12C7 11.4477 7.44772 11 8 11H16C16.5523 11 17 11.4477 17 12C17 12.5523 16.5523 13 16 13H8C7.44772 13 7 12.5523 7 12ZM3 19C3 18.4477 3.44772 18 4 18H20C20.5523 18 21 18.4477 21 19C21 19.5523 20.5523 20 20 20H4C3.44772 20 3 19.5523 3 19Z" fill="black"/>
</svg>
