<svg width="24" height="24" viewBox="0 0 24 24" fill="none" xmlns="http://www.w3.org/2000/svg">
<path fill-rule="evenodd" clip-rule="evenodd" d="M4 4C2.89543 4 2 4.89543 2 6V14C2 15.1046 2.89543 16 4 16H6V18C6 19.1046 6.89543 20 8 20H20C21.1046 20 22 19.1046 22 18V10C22 8.89543 21.1046 8 20 8H18V6C18 4.89543 17.1046 4 16 4H4ZM6 14V10C6 8.89543 6.89543 8 8 8H16V6H4V14H6ZM12 15C11.4477 15 11 14.5523 11 14C11 13.4477 11.4477 13 12 13H13V12C13 11.4477 13.4477 11 14 11C14.5523 11 15 11.4477 15 12V13H16C16.5523 13 17 13.4477 17 14C17 14.5523 16.5523 15 16 15H15V16C15 16.5523 14.5523 17 14 17C13.4477 17 13 16.5523 13 16V15H12Z" fill="black"/>
</svg>
