<svg width="24" height="24" viewBox="0 0 24 24" fill="none" xmlns="http://www.w3.org/2000/svg">
<path fill-rule="evenodd" clip-rule="evenodd" d="M12 2C12.5523 2 13 2.44772 13 3V4C13 4.55228 12.5523 5 12 5C11.4477 5 11 4.55228 11 4V3C11 2.44772 11.4477 2 12 2ZM2 12C2 11.4477 2.44772 11 3 11H4C4.55228 11 5 11.4477 5 12C5 12.5523 4.55228 13 4 13H3C2.44772 13 2 12.5523 2 12ZM19 12C19 11.4477 19.4477 11 20 11H21C21.5523 11 22 11.4477 22 12C22 12.5523 21.5523 13 21 13H20C19.4477 13 19 12.5523 19 12Z" fill="black"/>
<path fill-rule="evenodd" clip-rule="evenodd" d="M16.9491 7.05025C16.5586 6.65973 16.5586 6.02656 16.9491 5.63604L17.6562 4.92893C18.0468 4.53841 18.6799 4.53841 19.0705 4.92893C19.461 5.31946 19.461 5.95262 19.0705 6.34315L18.3634 7.05025C17.9728 7.44078 17.3397 7.44078 16.9491 7.05025Z" fill="black"/>
<path fill-rule="evenodd" clip-rule="evenodd" d="M2 16C2 15.4477 2.44772 15 3 15H21C21.5523 15 22 15.4477 22 16C22 16.5523 21.5523 17 21 17H3C2.44772 17 2 16.5523 2 16ZM6 20C6 19.4477 6.44772 19 7 19H17C17.5523 19 18 19.4477 18 20C18 20.5523 17.5523 21 17 21H7C6.44772 21 6 20.5523 6 20Z" fill="black"/>
<path fill-rule="evenodd" clip-rule="evenodd" d="M4.92961 4.92893C5.32014 4.53841 5.9533 4.53841 6.34383 4.92893L7.05093 5.63604C7.44146 6.02656 7.44146 6.65973 7.05093 7.05025C6.66041 7.44078 6.02724 7.44078 5.63672 7.05025L4.92961 6.34315C4.53909 5.95262 4.53909 5.31946 4.92961 4.92893Z" fill="black"/>
<path fill-rule="evenodd" clip-rule="evenodd" d="M8 13C7.44772 13 7 12.5523 7 12C7 9.23858 9.23858 7 12 7C14.7614 7 17 9.23858 17 12C17 12.5523 16.5523 13 16 13C14.3023 13 9.6977 13 8 13Z" fill="black"/>
</svg>
