<svg width="24" height="24" viewBox="0 0 24 24" fill="none" xmlns="http://www.w3.org/2000/svg">
<path fill-rule="evenodd" clip-rule="evenodd" d="M4 4C4 2.89543 4.89543 2 6 2H14C15.1046 2 16 2.89543 16 4V6H18C19.1046 6 20 6.89543 20 8V20C20 21.1046 19.1046 22 18 22H10C8.89543 22 8 21.1046 8 20V18H6C4.89543 18 4 17.1046 4 16V4ZM14 6H10C8.89543 6 8 6.89543 8 8V16H6V4H14V6ZM15 12C15 11.4477 14.5523 11 14 11C13.4477 11 13 11.4477 13 12V13H12C11.4477 13 11 13.4477 11 14C11 14.5523 11.4477 15 12 15H13V16C13 16.5523 13.4477 17 14 17C14.5523 17 15 16.5523 15 16V15H16C16.5523 15 17 14.5523 17 14C17 13.4477 16.5523 13 16 13H15V12Z" fill="black"/>
</svg>
