<svg width="24" height="24" viewBox="0 0 24 24" fill="none" xmlns="http://www.w3.org/2000/svg">
<path fill-rule="evenodd" clip-rule="evenodd" d="M4.9 3.8C5.27771 3.29639 5.87049 3 6.5 3H17.5C18.1295 3 18.7223 3.29639 19.1 3.8L21.8 7.4C21.9298 7.5731 22 7.78363 22 8V9C22 10.0144 21.6215 10.9413 21 11.6458V19C21 20.1046 20.1046 21 19 21H5C3.89543 21 3 20.1046 3 19V11.6458C2.37852 10.9413 2 10.0144 2 9V8C2 7.78363 2.07018 7.5731 2.2 7.4L4.9 3.8ZM5 12.8738V19L9 19L9.00001 17C9.00001 15.3431 10.3432 14 12 14C13.6569 14 15 15.3431 15 17L15 19H19V12.8738C18.6802 12.9561 18.3451 13 18 13C16.8053 13 15.7329 12.4762 15 11.6458C14.2671 12.4762 13.1947 13 12 13C10.8053 13 9.73295 12.4762 9 11.6458C8.26706 12.4762 7.19469 13 6 13C5.65489 13 5.31975 12.9561 5 12.8738Z" fill="black"/>
</svg>
