<svg width="24" height="24" viewBox="0 0 24 24" fill="none" xmlns="http://www.w3.org/2000/svg">
<path d="M10.6073 4.09497C10.0601 4.16981 9.67716 4.67407 9.752 5.22126C9.82684 5.76845 10.3311 6.15137 10.8783 6.07652L10.6073 4.09497ZM21.7559 11.5438L22.6303 11.0587L22.6303 11.0587L21.7559 11.5438ZM19.5184 14.02C19.1741 14.4519 19.2451 15.081 19.677 15.4253C20.1089 15.7695 20.7381 15.6985 21.0823 15.2666L19.5184 14.02ZM21.756 12.4558L20.8816 11.9707L20.8816 11.9707L21.756 12.4558ZM3.70739 2.29289C3.31686 1.90237 2.6837 1.90237 2.29317 2.29289C1.90265 2.68342 1.90265 3.31658 2.29317 3.70711L3.70739 2.29289ZM14.1216 14.1213L14.8287 13.4142L14.8287 13.4142L14.1216 14.1213ZM20.2932 21.7071C20.6837 22.0976 21.3169 22.0976 21.7074 21.7071C22.0979 21.3166 22.0979 20.6834 21.7074 20.2929L20.2932 21.7071ZM2.24457 11.5441L3.11899 12.0292L2.24457 11.5441ZM7.18965 7.48108C7.65234 7.17953 7.78296 6.55998 7.48141 6.09729C7.17985 5.6346 6.56031 5.50398 6.09762 5.80554L7.18965 7.48108ZM2.24545 12.4576L1.37108 12.9428L1.37108 12.9428L2.24545 12.4576ZM17.9029 18.1944C18.3656 17.8928 18.4963 17.2733 18.1947 16.8106C17.8931 16.3479 17.2736 16.2173 16.8109 16.5188L17.9029 18.1944ZM10.8783 6.07652C14.4622 5.58634 18.3436 7.45518 20.8815 12.029L22.6303 11.0587C19.7727 5.90858 15.1615 3.47206 10.6073 4.09497L10.8783 6.07652ZM21.0823 15.2666C21.6408 14.5659 22.1592 13.7903 22.6305 12.941L20.8816 11.9707C20.4617 12.7275 20.0044 13.4102 19.5184 14.02L21.0823 15.2666ZM20.8815 12.029C20.8716 12.0111 20.8714 11.989 20.8816 11.9707L22.6304 12.941C22.9554 12.3553 22.955 11.6439 22.6303 11.0587L20.8815 12.029ZM12.0003 14C10.8957 14 10.0003 13.1046 10.0003 12H8.00028C8.00028 14.2091 9.79114 16 12.0003 16V14ZM2.29317 3.70711L9.17185 10.5858L10.5861 9.17157L3.70739 2.29289L2.29317 3.70711ZM10.0003 12C10.0003 11.4474 10.223 10.9488 10.5861 10.5858L9.17185 9.17157C8.44909 9.89434 8.00028 10.8957 8.00028 12H10.0003ZM9.17185 10.5858L13.4145 14.8284L14.8287 13.4142L10.5861 9.17157L9.17185 10.5858ZM13.4145 14.8284L20.2932 21.7071L21.7074 20.2929L14.8287 13.4142L13.4145 14.8284ZM13.4145 13.4142C13.0515 13.7772 12.5528 14 12.0003 14V16C13.1046 16 14.1059 15.5512 14.8287 14.8284L13.4145 13.4142ZM2.29317 3.70711L20.2932 21.7071L21.7074 20.2929L3.70739 2.29289L2.29317 3.70711ZM3.11899 12.0292C4.25714 9.97798 5.66843 8.47254 7.18965 7.48108L6.09762 5.80554C4.2719 6.99544 2.64727 8.75717 1.37015 11.0589L3.11899 12.0292ZM1.37108 12.9428C3.29302 16.4058 6.00412 18.6464 8.98575 19.55C11.9734 20.4554 15.1477 19.9901 17.9029 18.1944L16.8109 16.5188C14.5312 18.0046 11.9666 18.3636 9.56581 17.636C7.1589 16.9066 4.83174 15.0569 3.11982 11.9723L1.37108 12.9428ZM1.37015 11.0589C1.04432 11.6461 1.04715 12.3591 1.37108 12.9428L3.11982 11.9723C3.12891 11.9887 3.13003 12.0093 3.11899 12.0292L1.37015 11.0589Z" fill="black"/>
</svg>
