<svg width="24" height="24" viewBox="0 0 24 24" fill="none" xmlns="http://www.w3.org/2000/svg">
<path fill-rule="evenodd" clip-rule="evenodd" d="M3.94334 4.87524C4.00922 3.82117 4.88332 3 5.93944 3H18.0605C19.1167 3 19.9908 3.82117 20.0566 4.87524L20.9316 18.8752C21.0036 20.0266 20.0892 21 18.9355 21H5.06444C3.9108 21 2.99637 20.0266 3.06834 18.8752L3.94334 4.87524ZM10 8C10 7.44772 9.55228 7 9 7C8.44772 7 8 7.44772 8 8C8 10.2091 9.79086 12 12 12C14.2091 12 16 10.2091 16 8C16 7.44772 15.5523 7 15 7C14.4477 7 14 7.44772 14 8C14 9.10457 13.1046 10 12 10C10.8954 10 10 9.10457 10 8Z" fill="black"/>
</svg>
