<svg width="24" height="24" viewBox="0 0 24 24" fill="none" xmlns="http://www.w3.org/2000/svg">
<path fill-rule="evenodd" clip-rule="evenodd" d="M4 5C4 3.89543 4.89543 3 6 3H8C8.55228 3 9 3.44772 9 4C9 4.55228 8.55228 5 8 5H6V11C6 11.3643 5.90261 11.7058 5.73243 12C5.90261 12.2942 6 12.6357 6 13V19H8C8.55228 19 9 19.4477 9 20C9 20.5523 8.55228 21 8 21H6C4.89543 21 4 20.1046 4 19V13H3C2.44772 13 2 12.5523 2 12C2 11.4477 2.44772 11 3 11H4V5ZM15 4C15 3.44772 15.4477 3 16 3H18C19.1046 3 20 3.89543 20 5V11H21C21.5523 11 22 11.4477 22 12C22 12.5523 21.5523 13 21 13H20V19C20 20.1046 19.1046 21 18 21H16C15.4477 21 15 20.5523 15 20C15 19.4477 15.4477 19 16 19H18V13C18 12.6357 18.0974 12.2942 18.2676 12C18.0974 11.7058 18 11.3643 18 11V5H16C15.4477 5 15 4.55228 15 4Z" fill="black"/>
</svg>
