<svg width="24" height="24" viewBox="0 0 24 24" fill="none" xmlns="http://www.w3.org/2000/svg">
<path d="M12.4921 1.79131C12.1692 1.70937 11.831 1.70937 11.5081 1.79131C11.1338 1.88631 10.8131 2.11797 10.5575 2.30261L10.4866 2.35369L1.91796 8.48811C1.4689 8.8096 1.36548 9.43427 1.68697 9.88333C2.00846 10.3324 2.63313 10.4358 3.08219 10.1143L4.00009 9.45718L4.00009 18.4319C4.00006 18.6843 4.00003 18.9301 4.01704 19.1382C4.03571 19.3668 4.07978 19.6366 4.21808 19.908C4.40982 20.2843 4.71578 20.5903 5.09211 20.782C5.36353 20.9203 5.63327 20.9644 5.86186 20.9831C6.06998 21.0001 6.31572 21 6.56806 21H17.432C17.6843 21 17.9302 21.0001 18.1383 20.9831C18.3669 20.9644 18.6366 20.9203 18.9081 20.782C19.2844 20.5903 19.5904 20.2843 19.7821 19.908C19.9204 19.6366 19.9645 19.3668 19.9831 19.1382C20.0002 18.9301 20.0001 18.6844 20.0001 18.432L20.0001 9.45718L20.918 10.1143C21.3671 10.4358 21.9917 10.3324 22.3132 9.88333C22.6347 9.43427 22.5313 8.8096 22.0822 8.48811L13.5136 2.35369L13.4427 2.30261C13.1871 2.11797 12.8664 1.88631 12.4921 1.79131Z" fill="black"/>
</svg>
