<svg width="24" height="24" viewBox="0 0 24 24" fill="none" xmlns="http://www.w3.org/2000/svg">
<path d="M4.18342 7.40804C4.28018 7.35966 4.35864 7.2812 4.40702 7.18444L5.05194 5.8946C5.2362 5.52608 5.76211 5.52608 5.94637 5.8946L6.59128 7.18444C6.63967 7.2812 6.71813 7.35966 6.81489 7.40804L8.10473 8.05296C8.47325 8.23722 8.47325 8.76313 8.10473 8.94739L6.81489 9.59231C6.71813 9.64069 6.63967 9.71915 6.59128 9.81591L5.94637 11.1057C5.7621 11.4743 5.2362 11.4743 5.05194 11.1057L4.40702 9.81591C4.35864 9.71915 4.28018 9.64069 4.18342 9.59231L2.89358 8.94739C2.52506 8.76313 2.52506 8.23722 2.89358 8.05296L4.18342 7.40804Z" fill="black"/>
<path d="M9.55934 3.72008C9.62846 3.68552 9.6845 3.62948 9.71906 3.56036L10.1797 2.63905C10.3113 2.37582 10.687 2.37582 10.8186 2.63905L11.2792 3.56036C11.3138 3.62948 11.3699 3.68552 11.439 3.72008L12.3603 4.18074C12.6235 4.31235 12.6235 4.688 12.3603 4.81961L11.439 5.28027C11.3699 5.31483 11.3138 5.37087 11.2792 5.43999L10.8186 6.3613C10.687 6.62453 10.3113 6.62453 10.1797 6.3613L9.71906 5.43999C9.6845 5.37087 9.62846 5.31483 9.55934 5.28027L8.63803 4.81961C8.3748 4.688 8.3748 4.31235 8.63803 4.18074L9.55934 3.72008Z" fill="black"/>
<path d="M20.4932 2.13071C20.9734 2.40354 21.1415 3.01398 20.8686 3.49417L16.2101 11.6934L16.4731 11.7891C17.9938 12.3426 19.2098 13.8511 18.9569 15.6529C18.6209 18.046 17.5988 19.7732 15.7124 21.6998C15.4252 21.9931 14.988 22.0811 14.6098 21.9218L8.76929 19.4623L10.0004 17L6.76517 18.6184L5.11106 17.9218C4.7718 17.7789 4.53846 17.4612 4.50365 17.0947C4.46883 16.7283 4.63818 16.3723 4.94447 16.1681C6.40176 15.1966 7.56693 14.2453 8.44223 12.8684C9.49871 11.2064 11.5965 10.0142 13.7231 10.7882L14.304 10.9996L19.1297 2.50618C19.4025 2.02599 20.013 1.85788 20.4932 2.13071Z" fill="black"/>
</svg>
