<svg width="24" height="24" viewBox="0 0 24 24" fill="none" xmlns="http://www.w3.org/2000/svg">
<path d="M13 7C13 6.44772 12.5523 6 12 6C11.4477 6 11 6.44772 11 7H13ZM11 13C11 13.5523 11.4477 14 12 14C12.5523 14 13 13.5523 13 13H11ZM15 11C15.5523 11 16 10.5523 16 10C16 9.44772 15.5523 9 15 9L15 11ZM9 9C8.44772 9 8 9.44771 8 10C8 10.5523 8.44772 11 9 11L9 9ZM16.47 20.1929L15.8888 21.0066L15.8888 21.0066L16.47 20.1929ZM12.93 17.6643L13.5112 16.8505L13.5112 16.8505L12.93 17.6643ZM11.07 17.6643L10.4888 16.8505L10.4888 16.8505L11.07 17.6643ZM7.52998 20.1929L6.94874 19.3791L6.94874 19.3791L7.52998 20.1929ZM12.2456 17.2595L12.4911 16.2901L12.4911 16.2901L12.2456 17.2595ZM11.7544 17.2595L11.5089 16.2901L11.5089 16.2901L11.7544 17.2595ZM5.20836 20.6678L6 20.0568L6 20.0568L5.20836 20.6678ZM5.96294 21.0561L5.92589 22.0554L5.92589 22.0554L5.96294 21.0561ZM18.7916 20.6678L18 20.0568L18 20.0568L18.7916 20.6678ZM18.0371 21.0561L18.0741 22.0554L18.0741 22.0554L18.0371 21.0561ZM18.891 3.54601L18 4L18 4L18.891 3.54601ZM18.454 3.10899L18.908 2.21799L18.908 2.21799L18.454 3.10899ZM5.10899 3.54601L4.21799 3.09202L4.21799 3.09202L5.10899 3.54601ZM5.54601 3.10899L5.09202 2.21799L5.09202 2.21799L5.54601 3.10899ZM11 7V13H13V7H11ZM15 9L9 9L9 11L15 11L15 9ZM18 4.6V18.8909H20V4.6H18ZM6 18.8909V4.6H4V18.8909H6ZM6.6 4H17.4V2H6.6V4ZM17.0513 19.3791L13.5112 16.8505L12.3487 18.478L15.8888 21.0066L17.0513 19.3791ZM10.4888 16.8505L6.94874 19.3791L8.11122 21.0066L11.6513 18.478L10.4888 16.8505ZM13.5112 16.8505C13.2454 16.6606 12.9003 16.3938 12.4911 16.2901L12 18.2289C11.956 18.2178 11.9466 18.2043 12.0065 18.2412C12.0771 18.2846 12.1705 18.3507 12.3487 18.478L13.5112 16.8505ZM11.6513 18.478C11.8295 18.3507 11.9229 18.2846 11.9935 18.2412C12.0534 18.2043 12.044 18.2178 12 18.2289L11.5089 16.2901C11.0997 16.3938 10.7546 16.6606 10.4888 16.8505L11.6513 18.478ZM12.4911 16.2901C12.1688 16.2085 11.8312 16.2085 11.5089 16.2901L12 18.2289H12L12.4911 16.2901ZM4 18.8909C4 19.3733 3.999 19.8046 4.0302 20.1459C4.06022 20.4742 4.1313 20.909 4.41673 21.2788L6 20.0568C6.07706 20.1567 6.04397 20.2053 6.02189 19.9638C6.001 19.7353 6 19.4131 6 18.8909H4ZM6.94874 19.3791C6.52379 19.6827 6.26104 19.8691 6.06296 19.9849C5.85365 20.1073 5.87396 20.0521 6 20.0568L5.92589 22.0554C6.39272 22.0727 6.7878 21.8779 7.07244 21.7115C7.3683 21.5385 7.71867 21.287 8.11122 21.0066L6.94874 19.3791ZM4.41673 21.2788C4.77954 21.7489 5.33249 22.0334 5.92589 22.0554L6 20.0568L6 20.0568L4.41673 21.2788ZM18 18.8909C18 19.4131 17.999 19.7353 17.9781 19.9638C17.956 20.2053 17.9229 20.1567 18 20.0568L19.5833 21.2788C19.8687 20.909 19.9398 20.4742 19.9698 20.1459C20.001 19.8046 20 19.3733 20 18.8909H18ZM15.8888 21.0066C16.2813 21.287 16.6317 21.5385 16.9276 21.7115C17.2122 21.8779 17.6073 22.0727 18.0741 22.0554L18 20.0568C18.126 20.0521 18.1463 20.1073 17.937 19.9849C17.739 19.8691 17.4762 19.6827 17.0513 19.3791L15.8888 21.0066ZM18 20.0568L18 20.0568L18.0741 22.0554C18.6675 22.0334 19.2205 21.7489 19.5833 21.2788L18 20.0568ZM20 4.6C20 4.33647 20.0008 4.07869 19.9831 3.86177C19.9644 3.63318 19.9203 3.36344 19.782 3.09202L18 4C17.9707 3.94249 17.9811 3.91972 17.9897 4.02463C17.9992 4.14122 18 4.30347 18 4.6H20ZM17.4 4C17.6965 4 17.8588 4.00078 17.9754 4.0103C18.0803 4.01887 18.0575 4.0293 18 4L18.908 2.21799C18.6366 2.07969 18.3668 2.03562 18.1382 2.01695C17.9213 1.99922 17.6635 2 17.4 2V4ZM19.782 3.09202C19.5903 2.71569 19.2843 2.40973 18.908 2.21799L18 4L18 4L19.782 3.09202ZM6 4.6C6 4.30347 6.00078 4.14122 6.0103 4.02463C6.01887 3.91972 6.0293 3.94249 6 4L4.21799 3.09202C4.07969 3.36344 4.03562 3.63318 4.01695 3.86177C3.99922 4.07869 4 4.33648 4 4.6H6ZM6.6 2C6.33647 2 6.07869 1.99922 5.86177 2.01695C5.63318 2.03562 5.36344 2.07969 5.09202 2.21799L6 4C5.94249 4.0293 5.91972 4.01887 6.02463 4.0103C6.14122 4.00078 6.30347 4 6.6 4V2ZM6 4L6 4L5.09202 2.21799C4.71569 2.40973 4.40973 2.71569 4.21799 3.09202L6 4Z" fill="black"/>
</svg>
