<svg width="24" height="24" viewBox="0 0 24 24" fill="none" xmlns="http://www.w3.org/2000/svg">
<path d="M12.8304 3.47294C12.4697 3.09148 12.1887 2.99998 12 2.99998C11.8113 2.99998 11.5303 3.09148 11.1696 3.47294C10.8068 3.85651 10.4341 4.46521 10.1001 5.3003C9.51869 6.7537 9.11393 8.74347 9.02056 11L14.9794 11C14.8861 8.74347 14.4813 6.7537 13.9 5.3003C13.5659 4.46521 13.1932 3.85651 12.8304 3.47294Z" fill="black"/>
<path d="M14.9794 13L9.02056 13C9.11393 15.2565 9.51869 17.2463 10.1001 18.6997C10.4341 19.5348 10.8068 20.1435 11.1696 20.527C11.5303 20.9085 11.8113 21 12 21C12.1887 21 12.4697 20.9085 12.8304 20.527C13.1932 20.1435 13.5659 19.5348 13.9 18.6997C14.4813 17.2463 14.8861 15.2565 14.9794 13Z" fill="black"/>
<path d="M7.019 11C7.11321 8.53281 7.55341 6.28174 8.2431 4.55752C8.59135 3.68688 9.01892 2.91104 9.52993 2.30737C5.51446 3.32757 2.46862 6.77743 2.04938 11H7.019Z" fill="black"/>
<path d="M2.04938 13H7.019C7.11321 15.4672 7.55341 17.7182 8.2431 19.4424C8.59135 20.3131 9.01892 21.0889 9.52993 21.6926C5.51446 20.6724 2.46862 17.2225 2.04938 13Z" fill="black"/>
<path d="M16.981 13H21.9506C21.5314 17.2225 18.4855 20.6724 14.4701 21.6926C14.9811 21.0889 15.4086 20.3131 15.7569 19.4424C16.4466 17.7182 16.8868 15.4672 16.981 13Z" fill="black"/>
<path d="M21.9506 11C21.5314 6.77743 18.4855 3.32757 14.4701 2.30737C14.9811 2.91105 15.4086 3.68688 15.7569 4.55752C16.4466 6.28174 16.8868 8.53281 16.981 11H21.9506Z" fill="black"/>
</svg>
