<svg width="24" height="24" viewBox="0 0 24 24" fill="none" xmlns="http://www.w3.org/2000/svg">
<path fill-rule="evenodd" clip-rule="evenodd" d="M15.5858 2.99997C16.3668 2.21892 17.6332 2.21892 18.4142 2.99997L21 5.58576C21.6834 6.26918 21.7688 7.32414 21.2563 8.10044C21.1831 8.21134 21.0976 8.31655 21 8.41418L16.9142 12.5L17.7071 13.2929C18.0976 13.6834 18.0976 14.3166 17.7071 14.7071C17.3166 15.0976 16.6834 15.0976 16.2929 14.7071L15.5 13.9142L9 20.4142C8.62493 20.7893 8.11622 21 7.58579 21H5C3.89543 21 3 20.1045 3 19V16.4142C3 15.8838 3.21071 15.375 3.58579 15L10.0858 8.49998L9.29289 7.70711C8.90237 7.31658 8.90237 6.68342 9.29289 6.29289C9.68342 5.90237 10.3166 5.90237 10.7071 6.29289L11.5 7.08577L15.5858 2.99997ZM14.0858 12.5L11.5 9.9142L6.41418 15H11.5858L14.0858 12.5Z" fill="black"/>
</svg>
