<svg width="24" height="24" viewBox="0 0 24 24" fill="none" xmlns="http://www.w3.org/2000/svg">
<path fill-rule="evenodd" clip-rule="evenodd" d="M10.5859 2.74997C11.3669 1.96892 12.6333 1.96892 13.4143 2.74997L15.7072 5.04286C16.0977 5.43339 16.0977 6.06655 15.7072 6.45708C15.3167 6.8476 14.6835 6.8476 14.293 6.45708L12.0001 4.16418L9.7072 6.45708C9.31668 6.8476 8.68351 6.8476 8.29299 6.45708C7.90246 6.06655 7.90246 5.43339 8.29299 5.04286L10.5859 2.74997ZM6.4572 8.29286C6.84772 8.68339 6.84772 9.31655 6.4572 9.70708L4.16431 12L6.4572 14.2929C6.84772 14.6834 6.84772 15.3166 6.4572 15.7071C6.06668 16.0976 5.43351 16.0976 5.04299 15.7071L2.75009 13.4142C1.96904 12.6331 1.96905 11.3668 2.75009 10.5858L5.04299 8.29286C5.43351 7.90234 6.06668 7.90234 6.4572 8.29286ZM17.543 8.29286C17.9335 7.90234 18.5667 7.90234 18.9572 8.29286L21.2501 10.5858C22.0311 11.3668 22.0311 12.6331 21.2501 13.4142L18.9572 15.7071C18.5667 16.0976 17.9335 16.0976 17.543 15.7071C17.1525 15.3166 17.1525 14.6834 17.543 14.2929L19.8359 12L17.543 9.70708C17.1525 9.31655 17.1525 8.68339 17.543 8.29286ZM8.29299 17.5429C8.68351 17.1523 9.31668 17.1523 9.7072 17.5429L12.0001 19.8358L14.293 17.5429C14.6835 17.1523 15.3167 17.1523 15.7072 17.5429C16.0977 17.9334 16.0977 18.5666 15.7072 18.9571L13.4143 21.25C12.6333 22.031 11.3669 22.031 10.5859 21.25L8.29299 18.9571C7.90246 18.5666 7.90246 17.9334 8.29299 17.5429Z" fill="black"/>
</svg>
