<svg width="24" height="24" viewBox="0 0 24 24" fill="none" xmlns="http://www.w3.org/2000/svg">
<path fill-rule="evenodd" clip-rule="evenodd" d="M11 5C10.7236 5 10.475 5.11083 10.2929 5.29289C9.90237 5.68342 9.2692 5.68342 8.87868 5.29289C8.48816 4.90237 8.48816 4.2692 8.87868 3.87868C9.42048 3.33688 10.1718 3 11 3C12.6569 3 14 4.34315 14 6C14 7.65685 12.6569 9 11 9H3C2.44772 9 2 8.55228 2 8C2 7.44772 2.44772 7 3 7H11C11.5523 7 12 6.55228 12 6C12 5.44772 11.5523 5 11 5ZM19 9C18.7236 9 18.475 9.11083 18.2929 9.29289C17.9024 9.68342 17.2692 9.68342 16.8787 9.29289C16.4882 8.90237 16.4882 8.2692 16.8787 7.87868C17.4205 7.33688 18.1718 7 19 7C20.6569 7 22 8.34315 22 10C22 11.6569 20.6569 13 19 13H3C2.44772 13 2 12.5523 2 12C2 11.4477 2.44772 11 3 11H19C19.5523 11 20 10.5523 20 10C20 9.44772 19.5523 9 19 9ZM2 16C2 15.4477 2.44772 15 3 15H15C16.6569 15 18 16.3431 18 18C18 19.6569 16.6569 21 15 21C14.1718 21 13.4205 20.6631 12.8787 20.1213C12.4882 19.7308 12.4882 19.0976 12.8787 18.7071C13.2692 18.3166 13.9024 18.3166 14.2929 18.7071C14.475 18.8892 14.7236 19 15 19C15.5523 19 16 18.5523 16 18C16 17.4477 15.5523 17 15 17H3C2.44772 17 2 16.5523 2 16Z" fill="black"/>
</svg>
