<svg width="24" height="24" viewBox="0 0 24 24" fill="none" xmlns="http://www.w3.org/2000/svg">
<path fill-rule="evenodd" clip-rule="evenodd" d="M21 18.4319V5.56809C21 5.31574 21.0001 5.06991 20.9831 4.86177C20.9644 4.63318 20.9203 4.36345 20.782 4.09202C20.5903 3.7157 20.2843 3.40974 19.908 3.21799C19.6366 3.07969 19.3668 3.03563 19.1382 3.01695C18.9301 2.99995 18.6843 2.99997 18.4319 3L5.56798 3C5.31564 2.99997 5.0699 2.99995 4.86178 3.01695C4.63318 3.03563 4.36345 3.07969 4.09203 3.21799C3.7157 3.40974 3.40974 3.7157 3.21799 4.09202C3.0797 4.36345 3.03563 4.63318 3.01695 4.86177C2.99995 5.06988 2.99997 5.31576 3 5.56809L3 18.4319C2.99997 18.6843 2.99995 18.9301 3.01695 19.1382C3.03563 19.3668 3.0797 19.6366 3.21799 19.908C3.40974 20.2843 3.7157 20.5903 4.09203 20.782C4.36345 20.9203 4.63318 20.9644 4.86178 20.983C5.06988 21.0001 5.31563 21 5.56794 21H18.4319C18.6843 21 18.9301 21.0001 19.1382 20.983C19.3668 20.9644 19.6366 20.9203 19.908 20.782C20.2843 20.5903 20.5903 20.2843 20.782 19.908C20.9203 19.6366 20.9644 19.3668 20.9831 19.1382C21.0001 18.9301 21 18.6843 21 18.4319ZM16.2039 10.4571C16.5944 10.0666 16.5944 9.43343 16.2039 9.0429C15.8133 8.65238 15.1802 8.65238 14.7897 9.0429L10.9968 12.8358L9.70387 11.5429C9.31334 11.1524 8.68018 11.1524 8.28965 11.5429C7.89913 11.9334 7.89913 12.5666 8.28965 12.9571L10.2897 14.9571C10.6802 15.3476 11.3133 15.3476 11.7039 14.9571L16.2039 10.4571Z" fill="black"/>
</svg>
