<svg width="24" height="24" viewBox="0 0 24 24" fill="none" xmlns="http://www.w3.org/2000/svg">
<path d="M12.9578 2.71265C12.8309 2.28967 12.4416 2 12 2C11.5584 2 11.1691 2.28967 11.0422 2.71265C10.3228 5.11046 9.39036 6.82042 8.10539 8.10539C6.82042 9.39036 5.11046 10.3228 2.71265 11.0422C2.28967 11.1691 2 11.5584 2 12C2 12.4416 2.28967 12.8309 2.71265 12.9578C5.11046 13.6772 6.82042 14.6096 8.10539 15.8946C9.39036 17.1796 10.3228 18.8895 11.0422 21.2873C11.1691 21.7103 11.5584 22 12 22C12.4416 22 12.8309 21.7103 12.9578 21.2873C13.6772 18.8895 14.6096 17.1796 15.8946 15.8946C17.1796 14.6096 18.8895 13.6772 21.2873 12.9578C21.7103 12.8309 22 12.4416 22 12C22 11.5584 21.7103 11.1691 21.2873 11.0422C18.8895 10.3228 17.1796 9.39036 15.8946 8.10539C14.6096 6.82042 13.6772 5.11046 12.9578 2.71265Z" fill="black"/>
</svg>
