<svg width="24" height="24" viewBox="0 0 24 24" fill="none" xmlns="http://www.w3.org/2000/svg">
<path fill-rule="evenodd" clip-rule="evenodd" d="M1 12C1 8.68629 3.68629 6 7 6C8.97356 6 10.7246 6.9539 11.8165 8.42152C11.8445 8.45923 11.8734 8.48172 11.8929 8.49258C11.9019 8.49757 11.9074 8.4994 11.9098 8.5H20.0194C20.6269 8.5 21.2016 8.77618 21.5811 9.25061L22.7811 10.7506C23.3655 11.481 23.3655 12.519 22.7811 13.2494L21.5811 14.7494C21.2016 15.2238 20.6269 15.5 20.0194 15.5H18C17.8448 15.5 17.6916 15.4639 17.5528 15.3944L16 14.618L14.4472 15.3944C14.3084 15.4639 14.1552 15.5 14 15.5H11.9098C11.9074 15.5006 11.9019 15.5024 11.8929 15.5074C11.8734 15.5183 11.8445 15.5408 11.8165 15.5785C10.7246 17.0461 8.97356 18 7 18C3.68629 18 1 15.3137 1 12ZM7 13.5C7.82843 13.5 8.5 12.8284 8.5 12C8.5 11.1716 7.82843 10.5 7 10.5C6.17157 10.5 5.5 11.1716 5.5 12C5.5 12.8284 6.17157 13.5 7 13.5Z" fill="black"/>
</svg>
