<svg width="24" height="24" viewBox="0 0 24 24" fill="none" xmlns="http://www.w3.org/2000/svg">
<g clip-path="url(#clip0_1825_41343)">
<path d="M16.2728 20.0268C18.6199 20.0268 19.6883 14.83 19.6883 12.8595C19.6883 11.3242 18.6286 10.3927 17.2353 10.3927C15.8507 10.3927 14.7266 10.9884 14.7128 11.7256C14.7128 13.6714 14.3701 20.0268 16.2728 20.0268ZM7.70066 20.0268C5.35351 20.0268 4.28516 14.83 4.28516 12.8595C4.28516 11.3242 5.34546 10.3927 6.73869 10.3927C8.12272 10.3927 9.24684 10.9884 9.26122 11.7256C9.26122 13.6714 9.60334 20.0268 7.70066 20.0268Z" fill="white" stroke="black" stroke-width="0.699202"/>
<path d="M18.6217 12.2857L18.6217 12.2857C18.3333 15.14 16.7807 17.55 14.6232 18.6765L14.623 18.6766C14.0984 18.9499 13.724 19.4377 13.3108 19.9824L13.3083 19.9857C12.985 20.4128 12.6366 20.8731 12.1837 21.2097M18.6217 12.2857L12.0466 21.0251M18.6217 12.2857C18.6508 11.9969 18.4993 11.7629 18.2866 11.6431C18.077 11.5252 17.802 11.5133 17.565 11.6536L17.5649 11.6536C15.8415 12.6752 13.8744 13.2127 11.871 13.2096H11.8706C9.80978 13.2096 7.87985 12.653 6.22255 11.6812L6.22243 11.6812C5.98489 11.5421 5.71028 11.5553 5.50132 11.6741C5.28935 11.7947 5.13892 12.029 5.16843 12.3171L5.16843 12.3171L5.16848 12.3175C5.4651 15.1578 7.01485 17.5542 9.16398 18.6765L9.16404 18.6765C9.68879 18.9504 10.064 19.438 10.4763 19.9822M18.6217 12.2857L10.4763 19.9822M12.1837 21.2097L12.0466 21.0251M12.1837 21.2097C12.1838 21.2096 12.1838 21.2096 12.1839 21.2096L12.0466 21.0251M12.1837 21.2097C12.1048 21.2684 12.0072 21.3114 11.8936 21.3114C11.7808 21.3114 11.6828 21.269 11.6037 21.2104L11.6033 21.2101C11.1505 20.873 10.8022 20.4128 10.4788 19.9856L10.4763 19.9823L10.6597 19.8434M12.0466 21.0251C11.9971 21.0619 11.9465 21.0814 11.8936 21.0814C11.8407 21.0814 11.7895 21.0619 11.7407 21.0256C11.3175 20.7105 10.9874 20.2764 10.6597 19.8434M10.6597 19.8434L10.4763 19.9822M10.6597 19.8434L10.4763 19.9822" fill="#FFDF6F" stroke="black" stroke-width="0.460001"/>
<mask id="mask0_1825_41343" style="mask-type:luminance" maskUnits="userSpaceOnUse" x="5" y="11" width="14" height="11">
<path fill-rule="evenodd" clip-rule="evenodd" d="M18.3928 12.2626C18.4308 11.886 18.0076 11.6589 17.6821 11.8515C15.9231 12.8941 13.9154 13.4428 11.8706 13.4396C9.76782 13.4396 7.79787 12.8715 6.10621 11.8797C5.78019 11.6888 5.35871 11.9176 5.39724 12.2937C5.68704 15.0686 7.19929 17.391 9.27045 18.4726C9.8489 18.7745 10.2537 19.3075 10.6597 19.8434C10.9874 20.2764 11.3175 20.7105 11.7407 21.0256C11.7895 21.0619 11.8407 21.0814 11.8936 21.0814C11.9465 21.0814 11.9971 21.0619 12.0466 21.0251C12.4698 20.7105 12.7998 20.2764 13.1276 19.8434C13.5341 19.3075 13.9383 18.7739 14.5168 18.4726C16.596 17.387 18.1111 15.0514 18.3928 12.2626Z" fill="black"/>
</mask>
<g mask="url(#mask0_1825_41343)">
<mask id="path-4-inside-1_1825_41343" fill="white">
<path d="M11.7408 21.0257L12.1576 20.4645L11.7408 21.0251V21.0257ZM13.1277 19.8435L12.5711 19.4208L13.1282 19.8435H13.1277ZM17.3257 11.2507C15.6745 12.2294 13.7897 12.7443 11.8701 12.7411V14.1383C14.1213 14.1383 16.2309 13.5242 18.0382 12.453L17.3257 11.2507ZM11.8701 12.7411C9.89558 12.7411 8.04753 12.2075 6.45937 11.2771L5.75385 12.4823C7.60893 13.5697 9.72098 14.1415 11.8713 14.1383V12.7411H11.8701ZM4.70274 12.3662C5.01325 15.3389 6.63877 17.8873 8.9474 19.0919L9.59428 17.8528C7.76003 16.8954 6.36162 14.7978 6.09252 12.2213L4.70274 12.3662ZM8.9474 19.0919C9.36198 19.3087 9.67651 19.7038 10.1026 20.2655L11.2164 19.4208C10.83 18.9114 10.3355 18.2398 9.59428 17.8528L8.9474 19.0919ZM10.1026 20.2655C10.4188 20.683 10.8064 21.2022 11.3239 21.5863L12.1576 20.4645C11.8282 20.2195 11.5568 19.8699 11.2164 19.4208L10.1026 20.2661V20.2655ZM11.3239 21.5863C11.4879 21.7108 11.6878 21.7788 11.8937 21.7801V20.3828C12.0219 20.3828 12.1134 20.4317 12.1576 20.4645L11.3239 21.5863ZM11.8937 21.7801C12.1277 21.7801 12.3215 21.6921 12.4641 21.5863L11.6304 20.4645C11.7073 20.41 11.7995 20.3812 11.8937 20.3823V21.7801ZM12.4641 21.5863C12.981 21.2022 13.3686 20.683 13.6848 20.2655L12.5711 19.4208C12.2307 19.8694 11.9593 20.2201 11.6298 20.4645L12.4635 21.5863H12.4641ZM13.6848 20.2655C14.1109 19.7038 14.4254 19.3087 14.8406 19.0925L14.1937 17.8528C13.452 18.2398 12.9575 18.912 12.5711 19.4208L13.6848 20.2661V20.2655ZM14.8406 19.0925C17.1578 17.8827 18.7863 15.3205 19.0881 12.3328L17.6978 12.1925C17.4361 14.7823 16.0343 16.892 14.1931 17.8528L14.84 19.0919L14.8406 19.0925ZM6.45937 11.2765C6.27941 11.1703 6.07466 11.1134 5.86571 11.1115C5.65677 11.1096 5.451 11.1627 5.26912 11.2656C5.07711 11.3731 4.92097 11.5347 4.82015 11.7303C4.71934 11.9259 4.67831 12.1468 4.70217 12.3656L6.09195 12.2207C6.09641 12.2721 6.08639 12.3238 6.06302 12.3698C6.03965 12.4158 6.00386 12.4544 5.9597 12.4812C5.8953 12.518 5.81595 12.5191 5.7527 12.4823L6.45937 11.2765ZM18.0376 12.4524C17.9749 12.4898 17.895 12.4886 17.8306 12.4524C17.7864 12.4258 17.7504 12.3874 17.7269 12.3415C17.7033 12.2955 17.693 12.244 17.6972 12.1925L19.0876 12.3322C19.1106 12.1133 19.0687 11.8924 18.9671 11.6971C18.8655 11.5018 18.7086 11.3407 18.516 11.234C18.3336 11.1318 18.1275 11.0796 17.9184 11.0824C17.7094 11.0852 17.5048 11.143 17.3252 11.2501L18.0382 12.4524H18.0376Z"/>
</mask>
<path d="M11.7408 21.0257L12.1576 20.4645L11.7408 21.0251V21.0257ZM13.1277 19.8435L12.5711 19.4208L13.1282 19.8435H13.1277ZM17.3257 11.2507C15.6745 12.2294 13.7897 12.7443 11.8701 12.7411V14.1383C14.1213 14.1383 16.2309 13.5242 18.0382 12.453L17.3257 11.2507ZM11.8701 12.7411C9.89558 12.7411 8.04753 12.2075 6.45937 11.2771L5.75385 12.4823C7.60893 13.5697 9.72098 14.1415 11.8713 14.1383V12.7411H11.8701ZM4.70274 12.3662C5.01325 15.3389 6.63877 17.8873 8.9474 19.0919L9.59428 17.8528C7.76003 16.8954 6.36162 14.7978 6.09252 12.2213L4.70274 12.3662ZM8.9474 19.0919C9.36198 19.3087 9.67651 19.7038 10.1026 20.2655L11.2164 19.4208C10.83 18.9114 10.3355 18.2398 9.59428 17.8528L8.9474 19.0919ZM10.1026 20.2655C10.4188 20.683 10.8064 21.2022 11.3239 21.5863L12.1576 20.4645C11.8282 20.2195 11.5568 19.8699 11.2164 19.4208L10.1026 20.2661V20.2655ZM11.3239 21.5863C11.4879 21.7108 11.6878 21.7788 11.8937 21.7801V20.3828C12.0219 20.3828 12.1134 20.4317 12.1576 20.4645L11.3239 21.5863ZM11.8937 21.7801C12.1277 21.7801 12.3215 21.6921 12.4641 21.5863L11.6304 20.4645C11.7073 20.41 11.7995 20.3812 11.8937 20.3823V21.7801ZM12.4641 21.5863C12.981 21.2022 13.3686 20.683 13.6848 20.2655L12.5711 19.4208C12.2307 19.8694 11.9593 20.2201 11.6298 20.4645L12.4635 21.5863H12.4641ZM13.6848 20.2655C14.1109 19.7038 14.4254 19.3087 14.8406 19.0925L14.1937 17.8528C13.452 18.2398 12.9575 18.912 12.5711 19.4208L13.6848 20.2661V20.2655ZM14.8406 19.0925C17.1578 17.8827 18.7863 15.3205 19.0881 12.3328L17.6978 12.1925C17.4361 14.7823 16.0343 16.892 14.1931 17.8528L14.84 19.0919L14.8406 19.0925ZM6.45937 11.2765C6.27941 11.1703 6.07466 11.1134 5.86571 11.1115C5.65677 11.1096 5.451 11.1627 5.26912 11.2656C5.07711 11.3731 4.92097 11.5347 4.82015 11.7303C4.71934 11.9259 4.67831 12.1468 4.70217 12.3656L6.09195 12.2207C6.09641 12.2721 6.08639 12.3238 6.06302 12.3698C6.03965 12.4158 6.00386 12.4544 5.9597 12.4812C5.8953 12.518 5.81595 12.5191 5.7527 12.4823L6.45937 11.2765ZM18.0376 12.4524C17.9749 12.4898 17.895 12.4886 17.8306 12.4524C17.7864 12.4258 17.7504 12.3874 17.7269 12.3415C17.7033 12.2955 17.693 12.244 17.6972 12.1925L19.0876 12.3322C19.1106 12.1133 19.0687 11.8924 18.9671 11.6971C18.8655 11.5018 18.7086 11.3407 18.516 11.234C18.3336 11.1318 18.1275 11.0796 17.9184 11.0824C17.7094 11.0852 17.5048 11.143 17.3252 11.2501L18.0382 12.4524H18.0376Z" fill="black"/>
<path d="M9.59428 17.8528L9.61977 17.8661L9.5688 17.8395L9.59428 17.8528ZM9.29604 18.486L9.61976 17.8661L9.5688 17.8395L9.24507 18.4594L9.29604 18.486ZM10.6424 19.8206L10.0852 20.2426L10.1199 20.2884L10.6771 19.8664L10.6424 19.8206ZM12.0236 21.0428L12.4411 21.6035L12.4872 21.5691L12.0697 21.0085L12.0236 21.0428ZM14.4914 18.486L14.8145 19.1052L14.8655 19.0786L14.5424 18.4594L14.4914 18.486ZM18.3958 12.2341L17.7001 12.1639L17.6943 12.2211L18.3901 12.2913L18.3958 12.2341ZM8.97289 19.1053L9.61977 17.8661L9.56879 17.8395L8.92192 19.0786L8.97289 19.1053ZM11.347 21.6035L12.1807 20.4816L12.1346 20.4473L11.3008 21.5692L11.347 21.6035ZM9.59428 17.8528L9.62089 17.8019L9.62089 17.8018L9.59428 17.8528ZM11.7408 21.0257H11.6833V21.1995L11.7869 21.06L11.7408 21.0257ZM12.1576 20.4645L12.2038 20.4988L12.2381 20.4526L12.1919 20.4183L12.1576 20.4645ZM11.7408 21.0251L11.6946 20.9908L11.6833 21.0061V21.0251H11.7408ZM12.4641 21.5863L12.4984 21.6325L12.4984 21.6325L12.4641 21.5863ZM13.1277 19.8435L13.0929 19.8893L13.1083 19.901H13.1277V19.8435ZM12.5711 19.4208L12.5253 19.3861L12.5253 19.3861L12.5711 19.4208ZM13.1282 19.8435V19.901H13.2992L13.163 19.7977L13.1282 19.8435ZM14.84 19.0919L14.789 19.1186L14.7931 19.1264L14.7993 19.1326L14.84 19.0919ZM17.6972 12.1925L17.7029 12.1353L17.6446 12.1294L17.6399 12.1879L17.6972 12.1925ZM17.3257 11.2507L17.3752 11.2213L17.3459 11.1719L17.2964 11.2012L17.3257 11.2507ZM11.8701 14.1383H11.8126V14.1958H11.8701V14.1383ZM18.0382 12.453L18.0675 12.5024L18.117 12.4731L18.0876 12.4237L18.0382 12.453ZM6.45937 11.2771L6.48844 11.2275L6.43881 11.1984L6.40975 11.2481L6.45937 11.2771ZM5.75385 12.4823L5.70422 12.4533L5.67519 12.5029L5.72477 12.5319L5.75385 12.4823ZM11.8713 14.1383L11.8714 14.1958L11.9288 14.1957V14.1383H11.8713ZM11.8713 12.7411H11.9288V12.6836H11.8713V12.7411ZM4.70274 12.3662L4.69678 12.309L4.63958 12.3149L4.64556 12.3721L4.70274 12.3662ZM8.9474 19.0919L8.97405 19.041L8.974 19.041L8.9474 19.0919ZM6.09252 12.2213L6.14971 12.2153L6.14374 12.1581L6.08656 12.1641L6.09252 12.2213ZM11.2164 19.4208L11.2622 19.3861L11.2622 19.3861L11.2164 19.4208ZM11.3239 21.5863L11.3586 21.5405L11.3582 21.5401L11.3239 21.5863ZM10.1026 20.2661H10.0451V20.3819L10.1373 20.3119L10.1026 20.2661ZM11.8937 21.7801L11.8933 21.8376H11.8937V21.7801ZM11.8937 20.3828V20.3253H11.8362V20.3828H11.8937ZM11.6304 20.4645L11.5971 20.4176L11.5491 20.4516L11.5842 20.4988L11.6304 20.4645ZM11.8937 20.3823H11.9512V20.3254L11.8944 20.3248L11.8937 20.3823ZM11.6298 20.4645L11.5955 20.4183L11.5493 20.4526L11.5836 20.4988L11.6298 20.4645ZM12.4635 21.5863L12.4174 21.6206L12.4346 21.6438H12.4635V21.5863ZM14.8406 19.0925L14.8672 19.1435L14.8672 19.1435L14.8406 19.0925ZM14.1937 17.8528L14.2447 17.8262L14.2181 17.7752L14.1671 17.8018L14.1937 17.8528ZM13.6848 20.2661L13.6501 20.3119L13.7423 20.3819V20.2661H13.6848ZM19.0881 12.3328L19.1453 12.3386L19.1511 12.2814L19.0939 12.2756L19.0881 12.3328ZM17.6978 12.1925L17.7035 12.1353L17.6463 12.1295L17.6406 12.1867L17.6978 12.1925ZM14.1931 17.8528L14.1665 17.8018L14.1156 17.8285L14.1422 17.8794L14.1931 17.8528ZM6.45937 11.2765L6.50898 11.3056L6.53797 11.2561L6.48859 11.227L6.45937 11.2765ZM5.26912 11.2656L5.29721 11.3158L5.29743 11.3157L5.26912 11.2656ZM4.70217 12.3656L4.64501 12.3718L4.65121 12.4287L4.70813 12.4228L4.70217 12.3656ZM6.09195 12.2207L6.14923 12.2157L6.14417 12.1574L6.08599 12.1635L6.09195 12.2207ZM5.9597 12.4812L5.98823 12.5311L5.98949 12.5303L5.9597 12.4812ZM5.7527 12.4823L5.70309 12.4532L5.67392 12.503L5.72378 12.532L5.7527 12.4823ZM18.0376 12.4524V12.3949H18.0218L18.0082 12.403L18.0376 12.4524ZM17.8306 12.4524L17.801 12.5017L17.8024 12.5025L17.8306 12.4524ZM19.0876 12.3322L19.0818 12.3894L19.1387 12.3952L19.1447 12.3383L19.0876 12.3322ZM18.516 11.234L18.4879 11.2842L18.4881 11.2843L18.516 11.234ZM17.3252 11.2501L17.2957 11.2007L17.2465 11.2301L17.2757 11.2794L17.3252 11.2501ZM18.0382 12.4524V12.5099H18.1391L18.0876 12.4231L18.0382 12.4524ZM11.7869 21.06L12.2038 20.4988L12.1115 20.4302L11.6946 20.9914L11.7869 21.06ZM12.1115 20.4302L11.6946 20.9908L11.7869 21.0594L12.2038 20.4988L12.1115 20.4302ZM11.6833 21.0251V21.0257H11.7983V21.0251H11.6833ZM13.1624 19.7977L12.6058 19.3751L12.5363 19.4666L13.0929 19.8893L13.1624 19.7977ZM12.5363 19.4667L13.0935 19.8893L13.163 19.7977L12.6058 19.375L12.5363 19.4667ZM13.1282 19.786H13.1277V19.901H13.1282V19.786ZM17.2964 11.2012C15.6541 12.1747 13.7794 12.6868 11.8702 12.6836L11.87 12.7986C13.7999 12.8019 15.6949 12.2842 17.3551 11.3001L17.2964 11.2012ZM11.8126 12.7411V14.1383H11.9276V12.7411H11.8126ZM11.8701 14.1958C14.1319 14.1958 16.2516 13.5788 18.0675 12.5024L18.0089 12.4035C16.2103 13.4696 14.1107 14.0808 11.8701 14.0808V14.1958ZM18.0876 12.4237L17.3752 11.2213L17.2763 11.28L17.9887 12.4823L18.0876 12.4237ZM11.8701 12.6836C9.90608 12.6836 8.06802 12.1528 6.48844 11.2275L6.43031 11.3267C8.02703 12.2621 9.88508 12.7986 11.8701 12.7986V12.6836ZM6.40975 11.2481L5.70422 12.4533L5.80347 12.5114L6.509 11.3062L6.40975 11.2481ZM5.72477 12.5319C7.58869 13.6245 9.71082 14.199 11.8714 14.1958L11.8712 14.0808C9.73115 14.084 7.62916 13.5149 5.78293 12.4327L5.72477 12.5319ZM11.9288 14.1383V12.7411H11.8138V14.1383H11.9288ZM11.8713 12.6836H11.8701V12.7986H11.8713V12.6836ZM4.64556 12.3721C4.95776 15.3612 6.59263 17.9281 8.9208 19.1429L8.974 19.041C6.68492 17.8465 5.06874 15.3167 4.75993 12.3602L4.64556 12.3721ZM9.62089 17.8018C7.80611 16.8546 6.41711 14.7755 6.14971 12.2153L6.03533 12.2272C6.30614 14.8202 7.71394 16.9363 9.56768 17.9038L9.62089 17.8018ZM6.08656 12.1641L4.69678 12.309L4.70871 12.4233L6.09849 12.2784L6.08656 12.1641ZM8.92076 19.1429C9.32186 19.3526 9.62888 19.7361 10.0568 20.3003L10.1484 20.2308C9.72413 19.6714 9.4021 19.2648 8.97405 19.041L8.92076 19.1429ZM10.1373 20.3113L11.2511 19.4667L11.1816 19.375L10.0678 20.2197L10.1373 20.3113ZM11.2622 19.3861C10.8773 18.8786 10.3754 18.1958 9.62089 17.8019L9.56767 17.9038C10.2955 18.2838 10.7826 18.9441 11.1705 19.4556L11.2622 19.3861ZM10.0567 20.3002C10.3721 20.7165 10.7644 21.2426 11.2896 21.6325L11.3582 21.5401C10.8484 21.1618 10.4656 20.6495 10.1484 20.2308L10.0567 20.3002ZM12.1919 20.4183C11.8702 20.1791 11.6036 19.8366 11.2622 19.3861L11.1705 19.4556C11.5099 19.9033 11.7861 20.2599 12.1233 20.5106L12.1919 20.4183ZM11.1816 19.375L10.0678 20.2203L10.1373 20.3119L11.2511 19.4667L11.1816 19.375ZM10.1601 20.2661V20.2655H10.0451V20.2661H10.1601ZM11.2891 21.6321C11.463 21.7641 11.675 21.8362 11.8933 21.8376L11.8941 21.7226C11.7006 21.7213 11.5128 21.6575 11.3586 21.5405L11.2891 21.6321ZM11.9512 21.7801V20.3828H11.8362V21.7801H11.9512ZM11.8937 20.4403C12.0071 20.4403 12.0868 20.4836 12.1234 20.5107L12.1918 20.4183C12.1399 20.3798 12.0368 20.3253 11.8937 20.3253V20.4403ZM11.8937 21.8376C12.1427 21.8376 12.3482 21.7439 12.4984 21.6325L12.4299 21.5401C12.2948 21.6403 12.1128 21.7226 11.8937 21.7226V21.8376ZM12.5103 21.552L11.6765 20.4302L11.5842 20.4988L12.418 21.6206L12.5103 21.552ZM11.6636 20.5114C11.7306 20.4639 11.8109 20.4388 11.8931 20.4397L11.8944 20.3248C11.788 20.3236 11.6839 20.356 11.5971 20.4176L11.6636 20.5114ZM11.8362 20.3823V21.7801H11.9512V20.3823H11.8362ZM12.4984 21.6325C13.023 21.2426 13.4153 20.7165 13.7307 20.3002L13.639 20.2308C13.3218 20.6495 12.939 21.1618 12.4298 21.5402L12.4984 21.6325ZM13.7196 20.2197L12.6058 19.375L12.5363 19.4667L13.6501 20.3113L13.7196 20.2197ZM12.5253 19.3861C12.1837 19.8361 11.9172 20.1797 11.5955 20.4183L11.664 20.5107C12.0013 20.2605 12.2776 19.9026 12.6169 19.4556L12.5253 19.3861ZM11.5836 20.4988L12.4174 21.6206L12.5097 21.552L11.6759 20.4302L11.5836 20.4988ZM12.4635 21.6438H12.4641V21.5288H12.4635V21.6438ZM13.7307 20.3003C14.1585 19.7361 14.4655 19.3527 14.8672 19.1435L14.814 19.0415C14.3853 19.2648 14.0633 19.6714 13.639 20.2308L13.7307 20.3003ZM14.8916 19.0659L14.2447 17.8262L14.1427 17.8794L14.7896 19.1191L14.8916 19.0659ZM14.1671 17.8018C13.412 18.1958 12.9101 18.8792 12.5253 19.3861L12.6169 19.4556C13.0048 18.9447 13.4919 18.2838 14.2203 17.9038L14.1671 17.8018ZM12.5363 19.4667L13.6501 20.3119L13.7196 20.2203L12.6058 19.375L12.5363 19.4667ZM13.7423 20.2661V20.2655H13.6273V20.2661H13.7423ZM14.8672 19.1435C17.2041 17.9235 18.8418 15.3426 19.1453 12.3386L19.0309 12.327C18.7307 15.2984 17.1116 17.842 14.814 19.0416L14.8672 19.1435ZM19.0939 12.2756L17.7035 12.1353L17.692 12.2497L19.0824 12.39L19.0939 12.2756ZM17.6406 12.1867C17.3806 14.7601 15.9881 16.8512 14.1665 17.8018L14.2197 17.9038C16.0805 16.9328 17.4917 14.8045 17.755 12.1983L17.6406 12.1867ZM14.1422 17.8794L14.789 19.1186L14.891 19.0653L14.2441 17.8262L14.1422 17.8794ZM14.7993 19.1326L14.7999 19.1332L14.8813 19.0519L14.8807 19.0513L14.7993 19.1326ZM6.48859 11.227C6.29994 11.1157 6.08528 11.056 5.86624 11.054L5.86518 11.169C6.06403 11.1708 6.25889 11.225 6.43015 11.3261L6.48859 11.227ZM5.86624 11.054C5.64719 11.052 5.43148 11.1077 5.24081 11.2156L5.29743 11.3157C5.47052 11.2178 5.66634 11.1672 5.86518 11.169L5.86624 11.054ZM5.24103 11.2154C5.03918 11.3284 4.87503 11.4983 4.76904 11.704L4.87126 11.7566C4.96691 11.5711 5.11504 11.4178 5.29721 11.3158L5.24103 11.2154ZM4.76904 11.704C4.66306 11.9096 4.61992 12.1418 4.64501 12.3718L4.75933 12.3593C4.73669 12.1518 4.77562 11.9422 4.87126 11.7566L4.76904 11.704ZM4.70813 12.4228L6.09791 12.2779L6.08599 12.1635L4.69621 12.3084L4.70813 12.4228ZM6.03466 12.2257C6.0382 12.2664 6.03026 12.3073 6.01175 12.3438L6.11429 12.3958C6.14252 12.3402 6.15462 12.2778 6.14923 12.2157L6.03466 12.2257ZM6.01175 12.3438C5.99323 12.3802 5.96489 12.4108 5.92991 12.432L5.98949 12.5303C6.04283 12.498 6.08606 12.4514 6.11429 12.3958L6.01175 12.3438ZM5.93117 12.4312C5.88366 12.4584 5.82622 12.4586 5.78161 12.4326L5.72378 12.532C5.80567 12.5797 5.90693 12.5775 5.98823 12.5311L5.93117 12.4312ZM5.80231 12.5114L6.50898 11.3056L6.40977 11.2475L5.70309 12.4532L5.80231 12.5114ZM18.0082 12.403C17.9644 12.4291 17.9065 12.4292 17.8588 12.4023L17.8024 12.5025C17.8835 12.5481 17.9854 12.5505 18.0671 12.5018L18.0082 12.403ZM17.8602 12.4031C17.8252 12.3821 17.7967 12.3516 17.778 12.3152L17.6757 12.3677C17.7042 12.4232 17.7476 12.4696 17.801 12.5017L17.8602 12.4031ZM17.778 12.3152C17.7594 12.2788 17.7512 12.2379 17.7545 12.1972L17.6399 12.1879C17.6349 12.25 17.6473 12.3123 17.6757 12.3677L17.778 12.3152ZM17.6915 12.2497L19.0818 12.3894L19.0933 12.275L17.7029 12.1353L17.6915 12.2497ZM19.1447 12.3383C19.169 12.1081 19.125 11.8758 19.0181 11.6705L18.9161 11.7236C19.0125 11.9089 19.0523 12.1185 19.0304 12.3262L19.1447 12.3383ZM19.0181 11.6705C18.9113 11.4652 18.7463 11.2959 18.5439 11.1837L18.4881 11.2843C18.6708 11.3855 18.8197 11.5383 18.9161 11.7236L19.0181 11.6705ZM18.5441 11.1838C18.3529 11.0767 18.1368 11.0219 17.9177 11.0249L17.9192 11.1399C18.1182 11.1372 18.3143 11.1869 18.4879 11.2842L18.5441 11.1838ZM17.9177 11.0249C17.6985 11.0279 17.484 11.0885 17.2957 11.2007L17.3546 11.2995C17.5255 11.1976 17.7203 11.1426 17.9192 11.1399L17.9177 11.0249ZM17.2757 11.2794L17.9887 12.4817L18.0876 12.4231L17.3746 11.2208L17.2757 11.2794ZM18.0382 12.3949H18.0376V12.5099H18.0382V12.3949Z" fill="black" mask="url(#path-4-inside-1_1825_41343)"/>
</g>
<path d="M11.9171 14.232C15.3141 14.232 18.0679 13.314 18.0679 12.1816C18.0679 11.0491 15.3141 10.1311 11.9171 10.1311C8.52016 10.1311 5.76636 11.0491 5.76636 12.1816C5.76636 13.314 8.52016 14.232 11.9171 14.232Z" fill="black" stroke="black" stroke-width="0.699202"/>
<path d="M6.97803 15.6298C6.97803 15.6298 10.0117 16.6544 11.9633 16.6544C13.9154 16.6544 16.9491 15.6298 16.9491 15.6298" stroke="black" stroke-width="0.699202" stroke-linecap="round"/>
<path d="M6.13202 4.80542C5.36383 4.80542 4.74109 4.18268 4.74109 3.41449C4.74109 2.6463 5.36383 2.02356 6.13202 2.02356C6.90021 2.02356 7.52295 2.6463 7.52295 3.41449C7.52295 4.18268 6.90021 4.80542 6.13202 4.80542Z" fill="black"/>
<path d="M5.90039 3.2063L8.49652 5.80185" stroke="black" stroke-width="0.695177"/>
<path d="M17.49 4.80542C18.2582 4.80542 18.881 4.18268 18.881 3.41449C18.881 2.6463 18.2582 2.02356 17.49 2.02356C16.7219 2.02356 16.0991 2.6463 16.0991 3.41449C16.0991 4.18268 16.7219 4.80542 17.49 4.80542Z" fill="black"/>
<path d="M17.7448 3.2063L15.1487 5.80185" stroke="black" stroke-width="0.695177"/>
<path fill-rule="evenodd" clip-rule="evenodd" d="M6.52661 11.7135C5.77738 11.357 5.34096 10.5554 5.48701 9.73836C6.11433 6.23085 8.72829 3.60022 11.8574 3.60022C14.9941 3.60022 17.6132 6.2435 18.2319 9.76423C18.3757 10.5825 17.9364 11.3834 17.1843 11.7376C15.5251 12.5177 13.7138 12.9209 11.8804 12.9181C9.96454 12.9181 8.14869 12.4857 6.52718 11.7135H6.52661Z" fill="#FFDF6F"/>
<path d="M5.82908 9.79929C6.4357 6.41023 8.94041 3.94807 11.8574 3.94807V3.25232C8.51548 3.25232 5.79343 6.05143 5.14483 9.67681L5.82908 9.79929ZM11.8574 3.94807C14.7813 3.94807 17.2912 6.4223 17.8892 9.82401L18.5746 9.70326C17.9346 6.06465 15.2068 3.25232 11.8574 3.25232V3.94807ZM17.0359 11.4231C15.4231 12.1812 13.6625 12.573 11.8804 12.5702V13.266C13.8296 13.266 15.6771 12.8307 17.332 12.0521L17.0359 11.4231ZM11.8804 12.5702C10.0174 12.5702 8.25271 12.1505 6.67663 11.3995L6.37763 12.0274C8.04513 12.8215 9.91159 13.266 11.8804 13.266V12.5702ZM17.8892 9.82401C18.0047 10.4807 17.6534 11.1321 17.0359 11.4225L17.332 12.0521C18.2186 11.6347 18.7465 10.6848 18.574 9.70383L17.8897 9.82401H17.8892ZM5.14483 9.67681C4.97003 10.656 5.49385 11.6071 6.37763 12.0274L6.67663 11.3995C6.06138 11.1063 5.71235 10.4548 5.82965 9.79929L5.1454 9.67681H5.14483Z" fill="black"/>
<path fill-rule="evenodd" clip-rule="evenodd" d="M7.86398 10.8418C7.2608 10.5957 6.90315 9.95404 7.11188 9.33706C7.75703 7.4338 9.63728 6.05725 11.8574 6.05725C14.0769 6.05725 15.9577 7.43438 16.6028 9.33706C16.8116 9.95404 16.4533 10.5963 15.8502 10.8418C14.5823 11.3576 13.2262 11.622 11.8574 11.6204C10.4446 11.6204 9.09678 11.3438 7.86398 10.8418Z" fill="black"/>
<path d="M13.4566 9.95109C14.0968 9.95109 14.6158 9.53611 14.6158 9.02419C14.6158 8.51228 14.0968 8.09729 13.4566 8.09729C12.8164 8.09729 12.2974 8.51228 12.2974 9.02419C12.2974 9.53611 12.8164 9.95109 13.4566 9.95109Z" fill="white"/>
<path d="M10.1387 9.9517C10.7789 9.9517 11.2979 9.53672 11.2979 9.0248C11.2979 8.51289 10.7789 8.0979 10.1387 8.0979C9.49848 8.0979 8.97949 8.51289 8.97949 9.0248C8.97949 9.53672 9.49848 9.9517 10.1387 9.9517Z" fill="white"/>
</g>
<defs>
<clipPath id="clip0_1825_41343">
<rect width="18" height="20" fill="white" transform="translate(3 2)"/>
</clipPath>
</defs>
</svg>
