<svg width="24" height="24" viewBox="0 0 24 24" fill="none" xmlns="http://www.w3.org/2000/svg">
<path d="M6 2C4.89543 2 4 2.89543 4 4V20C4 21.1046 4.89543 22 6 22H12.101C10.8045 20.7295 10 18.9587 10 17C10 13.134 13.134 10 17 10C18.0736 10 19.0907 10.2417 20 10.6736V4C20 2.89543 19.1046 2 18 2H6Z" fill="black"/>
<path fill-rule="evenodd" clip-rule="evenodd" d="M17 12C14.2386 12 12 14.2386 12 17C12 19.7614 14.2386 22 17 22C18.3804 22 19.6318 21.4393 20.5355 20.5355C21.4393 19.6318 22 18.3804 22 17C22 14.2386 19.7614 12 17 12ZM14 17C14 15.6938 14.8348 14.5825 16 14.1707V17C16 17.2652 16.1054 17.5196 16.2929 17.7071L18.2936 19.7078C17.902 19.8953 17.4635 20 17 20C15.3431 20 14 18.6569 14 17ZM18 16.5858V14.1707C19.1652 14.5825 20 15.6938 20 17C20 17.4635 19.8953 17.902 19.7078 18.2936L18 16.5858Z" fill="black"/>
</svg>
