<svg width="24" height="24" viewBox="0 0 24 24" fill="none" xmlns="http://www.w3.org/2000/svg">
<path d="M19.0272 12C19.0272 8.13401 15.8932 5 12.0272 5C10.0532 5 8.62456 5.67948 7.24083 7H8.99989C9.55218 7 9.99989 7.44772 9.99989 8C9.99989 8.55228 9.55218 9 8.99989 9H5.49989C4.67147 9 3.99989 8.32843 3.99989 7.5V4C3.99989 3.44772 4.44761 3 4.99989 3C5.55218 3 5.99989 3.44772 5.99989 4V5.42301C7.62206 3.9219 9.47578 3 12.0272 3C16.9978 3 21.0272 7.02944 21.0272 12C21.0272 16.9706 16.9978 21 12.0272 21C8.10702 21 4.77464 18.4941 3.53961 14.9999C3.35556 14.4792 3.62849 13.9079 4.1492 13.7238C4.66992 13.5398 5.24124 13.8127 5.42529 14.3334C6.38672 17.0536 8.98095 19 12.0272 19C15.8932 19 19.0272 15.866 19.0272 12Z" fill="black"/>
</svg>
