<svg width="24" height="24" viewBox="0 0 24 24" fill="none" xmlns="http://www.w3.org/2000/svg">
<path d="M12 10V11.9996L13.5 13.5M10.0873 7.38183C12.6382 6.3252 15.5615 7.53683 16.6182 10.0876C17.6748 12.6383 16.4632 15.5615 13.9123 16.6182C11.3615 17.6748 8.43816 16.4632 7.3815 13.9124C6.32566 11.3625 7.53649 8.43846 10.0873 7.38183ZM5 20H19C19.5523 20 20 19.5523 20 19V5C20 4.44772 19.5523 4 19 4H5C4.44772 4 4 4.44772 4 5V19C4 19.5523 4.44772 20 5 20Z" stroke="black" stroke-width="2" stroke-linecap="round" stroke-linejoin="round"/>
</svg>
