<svg width="24" height="24" viewBox="0 0 24 24" fill="none" xmlns="http://www.w3.org/2000/svg">
<path d="M4.15059 16.8679L5.14182 17L4.15059 16.8679ZM19.8487 16.8679L20.8399 16.7357L20.8399 16.7357L19.8487 16.8679ZM18.7926 8.94738L17.8014 9.07955L17.8014 9.07955L18.7926 8.94738ZM5.20665 8.94738L4.21542 8.81522L5.20665 8.94738ZM0.764217 7.03711C0.646433 7.57669 0.988366 8.10959 1.52795 8.22737C2.06752 8.34515 2.60042 8.00322 2.71821 7.46364L0.764217 7.03711ZM4.72365 3.39147C5.079 2.96869 5.02434 2.33789 4.60156 1.98254C4.17878 1.62718 3.54798 1.68184 3.19263 2.10462L4.72365 3.39147ZM20.8067 2.10462C20.4513 1.68184 19.8205 1.62718 19.3977 1.98254C18.975 2.33789 18.9203 2.96869 19.2757 3.39147L20.8067 2.10462ZM21.2811 7.46364C21.3989 8.00322 21.9318 8.34515 22.4714 8.22737C23.0109 8.10959 23.3529 7.57669 23.2351 7.03711L21.2811 7.46364ZM17.8014 9.07955L18.8575 17L20.8399 16.7357L19.7838 8.81522L17.8014 9.07955ZM18.8575 17H5.14182V19H18.8575V17ZM5.14182 17L6.19788 9.07954L4.21542 8.81522L3.15936 16.7357L5.14182 17ZM5.14182 17L5.14182 17L3.15936 16.7357C2.9995 17.9347 3.93224 19 5.14182 19V17ZM18.8575 17L18.8575 17V19C20.067 19 20.9998 17.9347 20.8399 16.7357L18.8575 17ZM11.9996 4.00002C14.9332 4.00002 17.4137 6.17169 17.8014 9.07955L19.7838 8.81522C19.2636 4.91375 15.9356 2.00002 11.9996 2.00002V4.00002ZM11.9996 2.00002C8.06364 2.00002 4.73562 4.91375 4.21542 8.81522L6.19788 9.07954C6.58559 6.17169 9.06604 4.00002 11.9996 4.00002V2.00002ZM15.0652 17.6438C14.5102 19.0996 13.2967 20 11.9996 20V22C14.2809 22 16.1425 20.4322 16.934 18.3563L15.0652 17.6438ZM11.9996 20C10.7026 20 9.48908 19.0996 8.93403 17.6438L7.06524 18.3563C7.85672 20.4322 9.71842 22 11.9996 22V20ZM2.71821 7.46364C3.05132 5.93761 3.75176 4.54777 4.72365 3.39147L3.19263 2.10462C2.01748 3.50275 1.16825 5.18618 0.764217 7.03711L2.71821 7.46364ZM19.2757 3.39147C20.2475 4.54777 20.948 5.93761 21.2811 7.46364L23.2351 7.03711C22.8311 5.18618 21.9818 3.50275 20.8067 2.10462L19.2757 3.39147Z" fill="black"/>
</svg>
