<svg width="24" height="24" viewBox="0 0 24 24" fill="none" xmlns="http://www.w3.org/2000/svg">
<path d="M4.15096 16.8678L5.14218 17L4.15096 16.8678ZM5.20702 8.94736L4.21579 8.8152L5.20702 8.94736ZM3.70711 2.29289C3.31658 1.90237 2.68342 1.90237 2.29289 2.29289C1.90237 2.68342 1.90237 3.31658 2.29289 3.70711L3.70711 2.29289ZM20.2929 21.7071C20.6834 22.0976 21.3166 22.0976 21.7071 21.7071C22.0976 21.3166 22.0976 20.6834 21.7071 20.2929L20.2929 21.7071ZM18.793 8.94737L19.7842 8.8152L19.7842 8.8152L18.793 8.94737ZM8.83386 2.66554C8.32853 2.88839 8.09954 3.4787 8.32239 3.98403C8.54524 4.48935 9.13554 4.71835 9.64087 4.4955L8.83386 2.66554ZM18.4462 13.9127C18.5192 14.4602 19.0221 14.8448 19.5696 14.7718C20.117 14.6988 20.5016 14.1959 20.4287 13.6484L18.4462 13.9127ZM5.14218 17L6.19825 9.07953L4.21579 8.8152L3.15973 16.7357L5.14218 17ZM2.29289 3.70711L5.49333 6.90755L6.90755 5.49333L3.70711 2.29289L2.29289 3.70711ZM5.35455 5.66708C4.7676 6.59796 4.36922 7.66447 4.21579 8.8152L6.19825 9.07953C6.31287 8.21987 6.60971 7.42626 7.04633 6.7338L5.35455 5.66708ZM5.49333 6.90755L17.2929 18.7071L18.7071 17.2929L6.90755 5.49333L5.49333 6.90755ZM17.2929 18.7071L20.2929 21.7071L21.7071 20.2929L18.7071 17.2929L17.2929 18.7071ZM18 17H5.14218V19H18V17ZM3.15973 16.7357C2.99986 17.9346 3.9326 19 5.14218 19V17L5.14218 17L3.15973 16.7357ZM15.0656 17.6438C14.5106 19.0996 13.297 20 12 20V22C14.2812 22 16.1429 20.4322 16.9344 18.3562L15.0656 17.6438ZM12 20C10.703 20 9.48945 19.0996 8.93439 17.6438L7.06561 18.3562C7.85709 20.4322 9.71878 22 12 22V20ZM12 4C14.9336 4 17.4141 6.17168 17.8018 9.07953L19.7842 8.8152C19.264 4.91374 15.936 2 12 2V4ZM12 2C10.8796 2 9.80668 2.23653 8.83386 2.66554L9.64087 4.4955C10.3644 4.17641 11.1629 4 12 4V2ZM17.8018 9.07953L18.4462 13.9127L20.4287 13.6484L19.7842 8.8152L17.8018 9.07953Z" fill="black"/>
</svg>
