<svg width="24" height="24" viewBox="0 0 24 24" fill="none" xmlns="http://www.w3.org/2000/svg">
<path fill-rule="evenodd" clip-rule="evenodd" d="M12.6054 2.05287C13.0082 1.67504 13.6411 1.69528 14.0189 2.0981C16.4898 4.7323 17.9993 8.19737 17.9993 11.9999C17.9993 15.8024 16.4898 19.2675 14.0189 21.9017C13.6411 22.3045 13.0082 22.3248 12.6054 21.9469C12.2026 21.5691 12.1823 20.9363 12.5602 20.5334C14.7091 18.2424 15.9993 15.2576 15.9993 11.9999C15.9993 8.7422 14.7091 5.75736 12.5602 3.46636C12.1823 3.06355 12.2026 2.43071 12.6054 2.05287ZM9.78328 4.16382C10.2062 3.80863 10.837 3.86352 11.1922 4.28644C12.9436 6.37176 13.9993 9.06385 13.9993 11.9999C13.9993 14.936 12.9436 17.628 11.1922 19.7134C10.837 20.1363 10.2062 20.1912 9.78328 19.836C9.36037 19.4808 9.30547 18.85 9.66067 18.4271C11.1208 16.6886 11.9993 14.4481 11.9993 11.9999C11.9993 9.55165 11.1208 7.3112 9.66067 5.57271C9.30547 5.1498 9.36037 4.51902 9.78328 4.16382ZM6.55214 6.58992C6.96382 6.22176 7.596 6.25703 7.96416 6.6687C9.22908 8.0831 9.99932 9.95275 9.99932 11.9999C9.99932 14.0471 9.22907 15.9167 7.96416 17.3311C7.596 17.7428 6.96381 17.778 6.55214 17.4099C6.14047 17.0417 6.1052 16.4095 6.47336 15.9979C7.42308 14.9359 7.99932 13.5364 7.99932 11.9999C7.99932 10.4634 7.42308 9.0639 6.47336 8.00194C6.1052 7.59026 6.14047 6.95808 6.55214 6.58992Z" fill="black"/>
</svg>
