<svg width="24" height="24" viewBox="0 0 24 24" fill="none" xmlns="http://www.w3.org/2000/svg">
<path d="M13 8C13 7.44772 12.5523 7 12 7C11.4477 7 11 7.44772 11 8H13ZM12 12H11C11 12.2652 11.1054 12.5196 11.2929 12.7071L12 12ZM13.7929 15.2071C14.1834 15.5976 14.8166 15.5976 15.2071 15.2071C15.5976 14.8166 15.5976 14.1834 15.2071 13.7929L13.7929 15.2071ZM1.29289 4.54289C0.902369 4.93342 0.902369 5.56658 1.29289 5.95711C1.68342 6.34763 2.31658 6.34763 2.70711 5.95711L1.29289 4.54289ZM5.70711 2.95711C6.09763 2.56658 6.09763 1.93342 5.70711 1.54289C5.31658 1.15237 4.68342 1.15237 4.29289 1.54289L5.70711 2.95711ZM21.2929 5.95711C21.6834 6.34763 22.3166 6.34763 22.7071 5.95711C23.0976 5.56658 23.0976 4.93342 22.7071 4.54289L21.2929 5.95711ZM19.7071 1.54289C19.3166 1.15237 18.6834 1.15237 18.2929 1.54289C17.9024 1.93342 17.9024 2.56658 18.2929 2.95711L19.7071 1.54289ZM20 12C20 16.4183 16.4183 20 12 20V22C17.5228 22 22 17.5228 22 12H20ZM12 20C7.58172 20 4 16.4183 4 12H2C2 17.5228 6.47715 22 12 22V20ZM4 12C4 7.58172 7.58172 4 12 4V2C6.47715 2 2 6.47715 2 12H4ZM12 4C16.4183 4 20 7.58172 20 12H22C22 6.47715 17.5228 2 12 2V4ZM11 8V12H13V8H11ZM11.2929 12.7071L13.7929 15.2071L15.2071 13.7929L12.7071 11.2929L11.2929 12.7071ZM2.70711 5.95711L5.70711 2.95711L4.29289 1.54289L1.29289 4.54289L2.70711 5.95711ZM22.7071 4.54289L19.7071 1.54289L18.2929 2.95711L21.2929 5.95711L22.7071 4.54289Z" fill="black"/>
</svg>
