<svg width="24" height="24" viewBox="0 0 24 24" fill="none" xmlns="http://www.w3.org/2000/svg">
<path d="M12.4719 3.11833C12.797 3.29235 13 3.63121 13 4V20C13 20.3688 12.797 20.7077 12.4719 20.8817C12.1467 21.0557 11.7522 21.0366 11.4453 20.8321L5.69722 17H3C1.89543 17 1 16.1046 1 15V9C1 7.89543 1.89543 7 3 7H5.69722L11.4453 3.16795C11.7522 2.96338 12.1467 2.94431 12.4719 3.11833Z" fill="black"/>
<path d="M16 11C15.4477 11 15 11.4477 15 12C15 12.5523 15.4477 13 16 13H22C22.5523 13 23 12.5523 23 12C23 11.4477 22.5523 11 22 11H16Z" fill="black"/>
</svg>
