<svg width="24" height="24" viewBox="0 0 24 24" fill="none" xmlns="http://www.w3.org/2000/svg">
<path d="M7.86889 9.29405C8.591 10.7232 9.54902 12.0638 10.743 13.2577C11.9369 14.4517 13.2775 15.4097 14.7067 16.1318L16.4415 14.397C16.6034 14.2351 16.8546 14.2038 17.0512 14.3211L20.4482 16.3477C20.728 16.5146 20.776 16.9002 20.5456 17.1306L17.083 20.5932C16.8306 20.8456 16.4622 20.9463 16.1202 20.844C14.6456 20.4026 13.2132 19.7815 11.8576 18.9809C10.4836 18.1694 9.18841 17.1734 8.00787 15.9928C6.82733 14.8123 5.83131 13.5171 5.01982 12.1431C4.21917 10.7875 3.59815 9.35513 3.15675 7.88048C3.05439 7.5385 3.15508 7.17009 3.40749 6.91767L6.87008 3.45508C7.10047 3.2247 7.48612 3.27267 7.65303 3.55247L9.67957 6.9495C9.79687 7.14613 9.76563 7.39731 9.60373 7.55921L7.86889 9.29405Z" stroke="black" stroke-width="2" stroke-linecap="round" stroke-linejoin="round"/>
</svg>
