<svg width="24" height="24" viewBox="0 0 24 24" fill="none" xmlns="http://www.w3.org/2000/svg">
<path d="M8.71986 3.56014C8.6853 3.62926 8.62926 3.6853 8.56014 3.71986L7.63883 4.18051C7.3756 4.31213 7.3756 4.68778 7.63883 4.81939L8.56014 5.28005C8.62926 5.3146 8.6853 5.37065 8.71986 5.43977L9.18051 6.36108C9.31213 6.62431 9.68778 6.62431 9.81939 6.36108L10.28 5.43977C10.3146 5.37065 10.3706 5.3146 10.4398 5.28005L11.3611 4.81939C11.6243 4.68778 11.6243 4.31213 11.3611 4.18051L10.4398 3.71986C10.3706 3.6853 10.3146 3.62926 10.28 3.56014L9.81939 2.63883C9.68778 2.3756 9.31213 2.3756 9.18051 2.63883L8.71986 3.56014Z" fill="black"/>
<path d="M4.40702 7.18439C4.35864 7.28116 4.28018 7.35962 4.18342 7.408L2.89358 8.05292C2.52506 8.23718 2.52506 8.76308 2.89358 8.94734L4.18342 9.59226C4.28018 9.64064 4.35864 9.7191 4.40702 9.81587L5.05194 11.1057C5.2362 11.4742 5.7621 11.4742 5.94637 11.1057L6.59128 9.81587C6.63967 9.7191 6.71813 9.64064 6.81489 9.59226L8.10473 8.94734C8.47325 8.76308 8.47325 8.23718 8.10473 8.05292L6.81489 7.408C6.71813 7.35962 6.63967 7.28116 6.59128 7.18439L5.94637 5.89456C5.7621 5.52603 5.2362 5.52603 5.05194 5.89456L4.40702 7.18439Z" fill="black"/>
<path fill-rule="evenodd" clip-rule="evenodd" d="M7.10595 13.017L17.64 3.85701C18.4327 3.16766 19.6237 3.20915 20.3665 3.952L21.0475 4.63302C21.7904 5.37587 21.8319 6.56684 21.1425 7.35959L11.9831 17.893C11.784 20.1942 9.85288 22 7.5 22H4C3.44772 22 3 21.5523 3 21V17.5C3 15.1475 4.8052 13.2166 7.10595 13.017ZM11.4883 15.414C11.063 14.6024 10.3971 13.9366 9.58541 13.5114L18.9523 5.36622L19.6333 6.04723L11.4883 15.414ZM7.5 15C6.11929 15 5 16.1193 5 17.5V20H7.5C8.88071 20 10 18.8807 10 17.5C10 16.1193 8.88071 15 7.5 15Z" fill="black"/>
</svg>
