<svg width="24" height="24" viewBox="0 0 24 24" fill="none" xmlns="http://www.w3.org/2000/svg">
<path fill-rule="evenodd" clip-rule="evenodd" d="M6 2H12V8C12 9.10457 12.8954 10 14 10H20V20C20 21.1046 19.1046 22 18 22H6C4.89543 22 4 21.1046 4 20V4C4 2.89543 4.89543 2 6 2ZM15.2071 17.2071L12.7071 19.7071C12.3166 20.0976 11.6834 20.0976 11.2929 19.7071L8.79289 17.2071C8.40237 16.8166 8.40237 16.1834 8.79289 15.7929C9.18342 15.4024 9.81658 15.4024 10.2071 15.7929L11 16.5858V13C11 12.4477 11.4477 12 12 12C12.5523 12 13 12.4477 13 13V16.5858L13.7929 15.7929C14.1834 15.4024 14.8166 15.4024 15.2071 15.7929C15.5976 16.1834 15.5976 16.8166 15.2071 17.2071Z" fill="black"/>
<path d="M14 2.58579L19.4142 8H14V2.58579Z" fill="black"/>
</svg>
