<svg width="24" height="24" viewBox="0 0 24 24" fill="none" xmlns="http://www.w3.org/2000/svg">
<path fill-rule="evenodd" clip-rule="evenodd" d="M3 5C3 3.89543 3.89543 3 5 3H8C8.55228 3 9 3.44772 9 4C9 4.55228 8.55228 5 8 5H5V8C5 8.55228 4.55228 9 4 9C3.44772 9 3 8.55228 3 8V5ZM15 4C15 3.44772 15.4477 3 16 3H19C20.1046 3 21 3.89543 21 5V8C21 8.55228 20.5523 9 20 9C19.4477 9 19 8.55228 19 8V5H16C15.4477 5 15 4.55228 15 4ZM12.5 7.75C13.0523 7.75 13.5 8.19772 13.5 8.75V11C13.5 12.3993 12.543 13.5725 11.2493 13.9054C10.7144 14.0431 10.1692 13.7211 10.0316 13.1862C9.8939 12.6514 10.2159 12.1062 10.7507 11.9686C11.1823 11.8575 11.5 11.4646 11.5 11V8.75C11.5 8.19772 11.9477 7.75 12.5 7.75ZM8 8C8.55228 8 9 8.44772 9 9V10C9 10.5523 8.55228 11 8 11C7.44772 11 7 10.5523 7 10V9C7 8.44772 7.44772 8 8 8ZM16 8C16.5523 8 17 8.44772 17 9V10C17 10.5523 16.5523 11 16 11C15.4477 11 15 10.5523 15 10V9C15 8.44772 15.4477 8 16 8ZM8.13439 15.1966C8.41094 14.7185 9.02267 14.5552 9.50073 14.8317C10.2351 15.2566 11.0876 15.5 12 15.5C12.9124 15.5 13.7649 15.2566 14.4993 14.8317C14.9773 14.5552 15.5891 14.7185 15.8656 15.1966C16.1421 15.6747 15.9788 16.2864 15.5007 16.5629C14.4701 17.1591 13.2733 17.5 12 17.5C10.7267 17.5 9.5299 17.1591 8.49927 16.5629C8.02121 16.2864 7.85785 15.6747 8.13439 15.1966ZM4 15C4.55228 15 5 15.4477 5 16V19H8C8.55228 19 9 19.4477 9 20C9 20.5523 8.55228 21 8 21H5C3.89543 21 3 20.1046 3 19V16C3 15.4477 3.44772 15 4 15ZM20 15C20.5523 15 21 15.4477 21 16V19C21 20.1046 20.1046 21 19 21H16C15.4477 21 15 20.5523 15 20C15 19.4477 15.4477 19 16 19H19V16C19 15.4477 19.4477 15 20 15Z" fill="black"/>
</svg>
