<svg width="24" height="24" viewBox="0 0 24 24" fill="none" xmlns="http://www.w3.org/2000/svg">
<path d="M16.543 5.70711C16.1524 5.31658 16.1524 4.68342 16.543 4.29289C16.9335 3.90237 17.5667 3.90237 17.9572 4.29289L21.6036 7.93934C22.1894 8.52513 22.1894 9.47487 21.6036 10.0607L17.9572 13.7071C17.5667 14.0976 16.9335 14.0976 16.543 13.7071C16.1524 13.3166 16.1524 12.6834 16.543 12.2929L18.8359 10H5C4.44772 10 4 10.4477 4 11V16C4 16.5523 4.44772 17 5 17H12C12.5523 17 13 17.4477 13 18C13 18.5523 12.5523 19 12 19H5C3.34315 19 2 17.6569 2 16V11C2 9.34315 3.34315 8 5 8H18.8359L16.543 5.70711Z" fill="black"/>
</svg>
