<svg width="24" height="24" viewBox="0 0 24 24" fill="none" xmlns="http://www.w3.org/2000/svg">
<path d="M5.5 6.5C5.5 4.01472 7.51472 2 10 2C12.4853 2 14.5 4.01472 14.5 6.5C14.5 8.98528 12.4853 11 10 11C7.51472 11 5.5 8.98528 5.5 6.5Z" fill="black"/>
<path d="M1.69593 18.6964C2.55281 14.8837 5.70085 12 10 12C14.2992 12 17.4473 14.8837 18.3042 18.6964C18.5939 19.9858 17.5368 21 16.4016 21H3.59846C2.46331 21 1.40615 19.9858 1.69593 18.6964Z" fill="black"/>
<path d="M17 10C16.4477 10 16 10.4477 16 11C16 11.5523 16.4477 12 17 12H22C22.5523 12 23 11.5523 23 11C23 10.4477 22.5523 10 22 10H17Z" fill="black"/>
</svg>
