<svg width="24" height="24" viewBox="0 0 24 24" fill="none" xmlns="http://www.w3.org/2000/svg">
<path d="M21.998 5C21.998 4.44772 21.5503 4 20.998 4C20.4458 4 19.998 4.44772 19.998 5V14.4714C19.3908 14.1668 18.6981 14 17.998 14C15.9674 14 13.998 15.404 13.998 17.5C13.998 19.596 15.9674 21 17.998 21C20.0287 21 21.998 19.596 21.998 17.5V5Z" fill="black"/>
<path d="M3 5C2.44772 5 2 5.44772 2 6C2 6.55228 2.44772 7 3 7H16C16.5523 7 17 6.55228 17 6C17 5.44772 16.5523 5 16 5H3Z" fill="black"/>
<path d="M3 11C2.44772 11 2 11.4477 2 12C2 12.5523 2.44772 13 3 13H11C11.5523 13 12 12.5523 12 12C12 11.4477 11.5523 11 11 11H3Z" fill="black"/>
<path d="M3 17C2.44772 17 2 17.4477 2 18C2 18.5523 2.44772 19 3 19H9C9.55228 19 10 18.5523 10 18C10 17.4477 9.55228 17 9 17H3Z" fill="black"/>
</svg>
