<svg width="24" height="24" viewBox="0 0 24 24" fill="none" xmlns="http://www.w3.org/2000/svg">
<path d="M4 3C2.89543 3 2 3.89543 2 5V11.8027C2.88252 11.2922 3.90714 11 5 11H8C11.3137 11 14 13.6863 14 17C14 18.0929 13.7078 19.1175 13.1973 20H20C21.1046 20 22 19.1046 22 18V8C22 6.89543 21.1046 6 20 6H12.5352L11.1289 3.8906C10.758 3.3342 10.1335 3 9.46482 3H4Z" fill="black"/>
<path d="M8 13C7.44772 13 7 13.4477 7 14C7 14.5523 7.44772 15 8 15C9.10457 15 10 15.8954 10 17C10 18.1046 9.10457 19 8 19C7.44772 19 7 19.4477 7 20C7 20.5523 7.44772 21 8 21C10.2091 21 12 19.2091 12 17C12 14.7909 10.2091 13 8 13Z" fill="black"/>
<path d="M5 13C2.79086 13 1 14.7909 1 17C1 19.2091 2.79086 21 5 21C5.55228 21 6 20.5523 6 20C6 19.4477 5.55228 19 5 19C3.89543 19 3 18.1046 3 17C3 15.8954 3.89543 15 5 15C5.55229 15 6 14.5523 6 14C6 13.4477 5.55229 13 5 13Z" fill="black"/>
<path d="M6 16C5.44772 16 5 16.4477 5 17C5 17.5523 5.44772 18 6 18H7C7.55228 18 8 17.5523 8 17C8 16.4477 7.55229 16 7 16H6Z" fill="black"/>
</svg>
