<svg width="24" height="24" viewBox="0 0 24 24" fill="none" xmlns="http://www.w3.org/2000/svg">
<path d="M21 12C21 16.9706 16.9706 21 12 21C7.02944 21 3 16.9706 3 12C3 7.02944 7.02944 3 12 3C16.9706 3 21 7.02944 21 12Z" stroke="black" stroke-width="2" stroke-linejoin="round"/>
<path d="M14.6558 8.73023L10.5513 9.84965C10.2097 9.94281 9.94281 10.2097 9.84965 10.5513L8.73023 14.6558C8.62843 15.0291 8.97092 15.3716 9.34417 15.2698L13.4487 14.1504C13.7903 14.0572 14.0572 13.7903 14.1504 13.4487L15.2698 9.34417C15.3716 8.97092 15.0291 8.62843 14.6558 8.73023Z" stroke="black" stroke-width="2" stroke-linejoin="round"/>
</svg>
