<svg width="24" height="24" viewBox="0 0 24 24" fill="none" xmlns="http://www.w3.org/2000/svg">
<path fill-rule="evenodd" clip-rule="evenodd" d="M2 6C2 4.89543 2.89543 4 4 4H7C7.55228 4 8 4.44772 8 5C8 5.55228 7.55228 6 7 6H4V9C4 9.55228 3.55228 10 3 10C2.44772 10 2 9.55228 2 9V6ZM16 5C16 4.44772 16.4477 4 17 4H20C21.1046 4 22 4.89543 22 6V9C22 9.55228 21.5523 10 21 10C20.4477 10 20 9.55228 20 9V6H17C16.4477 6 16 5.55228 16 5ZM8 9C8.55228 9 9 9.44772 9 10V14C9 14.5523 8.55228 15 8 15C7.44772 15 7 14.5523 7 14V10C7 9.44772 7.44772 9 8 9ZM12 9C12.5523 9 13 9.44772 13 10V12C13 12.5523 12.5523 13 12 13C11.4477 13 11 12.5523 11 12V10C11 9.44772 11.4477 9 12 9ZM16 9C16.5523 9 17 9.44772 17 10V14C17 14.5523 16.5523 15 16 15C15.4477 15 15 14.5523 15 14V10C15 9.44772 15.4477 9 16 9ZM3 14C3.55228 14 4 14.4477 4 15V18H7C7.55228 18 8 18.4477 8 19C8 19.5523 7.55228 20 7 20H4C2.89543 20 2 19.1046 2 18V15C2 14.4477 2.44772 14 3 14ZM21 14C21.5523 14 22 14.4477 22 15V18C22 19.1046 21.1046 20 20 20H17C16.4477 20 16 19.5523 16 19C16 18.4477 16.4477 18 17 18H20V15C20 14.4477 20.4477 14 21 14Z" fill="black"/>
</svg>
