<svg width="24" height="24" viewBox="0 0 24 24" fill="none" xmlns="http://www.w3.org/2000/svg">
<path d="M17 17.5C16.4477 17.5 16 17.9477 16 18.5C16 19.0523 16.4477 19.5 17 19.5H18C18.5523 19.5 19 19.0523 19 18.5C19 17.9477 18.5523 17.5 18 17.5H17Z" fill="black"/>
<path fill-rule="evenodd" clip-rule="evenodd" d="M5 3C3.89543 3 3 3.89543 3 5V15H2C1.44772 15 1 15.4477 1 16V19C1 20.1046 1.89543 21 3 21H12.2676C12.6134 21.5978 13.2597 22 14 22H21C22.1046 22 23 21.1046 23 20V10C23 8.89543 22.1046 8 21 8V5C21 3.89543 20.1046 3 19 3H5ZM12 17H3V19H12V17ZM14 20H21V10H14V20Z" fill="black"/>
</svg>
