<svg width="24" height="24" viewBox="0 0 24 24" fill="none" xmlns="http://www.w3.org/2000/svg">
<path d="M15 19H20.0005C20.5526 19 21.0002 18.5526 21.0005 18.0005L21.0034 12.0005C21.0037 11.448 20.5559 11 20.0034 11H18.0039L18 5C18 5 14 6.5 14 11V18.0012C14 18.5535 14.4477 19 15 19Z" stroke="#0F1419" stroke-width="2" stroke-linejoin="round"/>
<path d="M4 19H9C9.55228 19 10 18.5523 10 18V12C10 11.4477 9.55228 11 9 11H7V5C7 5 3 6.5 3 11V18.0012C3 18.5535 3.44772 19 4 19Z" stroke="#0F1419" stroke-width="2" stroke-linejoin="round"/>
</svg>
