<svg width="24" height="24" viewBox="0 0 24 24" fill="none" xmlns="http://www.w3.org/2000/svg">
<circle cx="12" cy="12" r="9" stroke="black" stroke-width="2"/>
<path d="M8 12.875C8.48325 12.875 8.875 12.4832 8.875 12C8.875 11.5168 8.48325 11.125 8 11.125C7.51675 11.125 7.125 11.5168 7.125 12C7.125 12.4832 7.51675 12.875 8 12.875Z" fill="black" stroke="black" stroke-width="0.75"/>
<path d="M12 12.875C12.4832 12.875 12.875 12.4832 12.875 12C12.875 11.5168 12.4832 11.125 12 11.125C11.5168 11.125 11.125 11.5168 11.125 12C11.125 12.4832 11.5168 12.875 12 12.875Z" fill="black" stroke="black" stroke-width="0.75"/>
<path d="M16 12.875C16.4832 12.875 16.875 12.4832 16.875 12C16.875 11.5168 16.4832 11.125 16 11.125C15.5168 11.125 15.125 11.5168 15.125 12C15.125 12.4832 15.5168 12.875 16 12.875Z" fill="black" stroke="black" stroke-width="0.75"/>
</svg>
