<svg width="24" height="24" viewBox="0 0 24 24" fill="none" xmlns="http://www.w3.org/2000/svg">
<path d="M19 1C18.4477 1 18 1.44772 18 2C18 2.55228 18.4477 3 19 3H20L18.2 5.4C17.9727 5.70302 17.9362 6.10843 18.1056 6.44721C18.275 6.786 18.6212 7 19 7H22C22.5523 7 23 6.55228 23 6C23 5.44772 22.5523 5 22 5H21L22.8 2.6C23.0273 2.29698 23.0638 1.89157 22.8944 1.55279C22.725 1.214 22.3788 1 22 1H19Z" fill="black"/>
<path fill-rule="evenodd" clip-rule="evenodd" d="M16 3.48676C16 3.08927 15.7661 2.72513 15.3922 2.59031C14.3321 2.20812 13.1896 2 12 2C6.47715 2 2 6.47715 2 12C2 17.5228 6.47715 22 12 22C17.5228 22 22 17.5228 22 12C22 11.2121 21.9087 10.4446 21.7358 9.7078C21.636 9.28251 21.2447 9 20.8079 9H17C16.4477 9 16 8.55228 16 8V3.48676ZM12 7C12.5523 7 13 7.44772 13 8V11.5858L15.2071 13.7929C15.5976 14.1834 15.5976 14.8166 15.2071 15.2071C14.8166 15.5976 14.1834 15.5976 13.7929 15.2071L11.2929 12.7071C11.1054 12.5196 11 12.2652 11 12V8C11 7.44772 11.4477 7 12 7Z" fill="black"/>
</svg>
