<svg width="24" height="24" viewBox="0 0 24 24" fill="none" xmlns="http://www.w3.org/2000/svg">
<path d="M12.0003 2.17188L12.7074 1.46477L12.0003 0.757661L11.2932 1.46477L12.0003 2.17188ZM13.4145 3.58609L12.7074 4.2932L12.7074 4.2932L13.4145 3.58609ZM10.5861 3.58609L9.87898 2.87898L9.87898 2.87898L10.5861 3.58609ZM13 7.0003C13 6.44802 12.5523 6.0003 12 6.0003C11.4477 6.0003 11 6.44802 11 7.0003H13ZM11 10.0003C11 10.5526 11.4477 11.0003 12 11.0003C12.5523 11.0003 13 10.5526 13 10.0003H11ZM7.37139 15.8517L7 14.9233L7 14.9233L7.37139 15.8517ZM9.12861 15.1489L8.75722 14.2204L8.75722 14.2204L9.12861 15.1489ZM9.87139 15.1489L9.5 16.0773L9.5 16.0773L9.87139 15.1489ZM11.6286 15.8517L11.2572 16.7802L11.2572 16.7802L11.6286 15.8517ZM12.3714 15.8517L12 14.9233L12 14.9233L12.3714 15.8517ZM14.1286 15.1489L13.7572 14.2204L13.7572 14.2204L14.1286 15.1489ZM5.12861 15.2517L4.75722 16.1802L4.75722 16.1802L5.12861 15.2517ZM6.62861 15.8517L6.25722 16.7802L6.25722 16.7802L6.62861 15.8517ZM14.8714 15.1489L14.5 16.0773L14.5 16.0773L14.8714 15.1489ZM16.6286 15.8517L16.2572 16.7802L16.2572 16.7802L16.6286 15.8517ZM17.3714 15.8517L17 14.9233L17 14.9233L17.3714 15.8517ZM18.8714 15.2517L19.2428 16.1802L19.2428 16.1802L18.8714 15.2517ZM18 15.5003V20.0003H20V15.5003H18ZM18 20.0003H6V22.0003H18V20.0003ZM6 20.0003V15.5003H4V20.0003H6ZM6 20.0003H6H4C4 21.1049 4.89543 22.0003 6 22.0003V20.0003ZM18 20.0003V22.0003C19.1046 22.0003 20 21.1049 20 20.0003H18ZM11.2932 4.2932L12.7074 2.87898L11.2932 1.46477L9.87898 2.87898L11.2932 4.2932ZM11.2932 2.87898L12.7074 4.2932L14.1216 2.87898L12.7074 1.46477L11.2932 2.87898ZM12.7074 5.70741C12.3169 6.09793 11.6837 6.09793 11.2932 5.70741L9.87898 7.12162C11.0506 8.2932 12.95 8.2932 14.1216 7.12162L12.7074 5.70741ZM12.7074 4.2932C13.0979 4.68372 13.0979 5.31688 12.7074 5.70741L14.1216 7.12162C15.2932 5.95005 15.2932 4.05055 14.1216 2.87898L12.7074 4.2932ZM9.87898 2.87898C8.70741 4.05055 8.70741 5.95005 9.87898 7.12162L11.2932 5.70741C10.9027 5.31688 10.9027 4.68372 11.2932 4.2932L9.87898 2.87898ZM11 7.0003V10.0003H13V7.0003H11ZM7.74278 16.7802L9.5 16.0773L8.75722 14.2204L7 14.9233L7.74278 16.7802ZM9.5 16.0773L11.2572 16.7802L12 14.9233L10.2428 14.2204L9.5 16.0773ZM12.7428 16.7802L14.5 16.0773L13.7572 14.2204L12 14.9233L12.7428 16.7802ZM20.5 14.3233V11.0003H18.5V14.3233H20.5ZM18.5 9.0003H5.5V11.0003H18.5V9.0003ZM3.5 11.0003V14.3233H5.5V11.0003H3.5ZM4.75722 16.1802L6.25722 16.7802L7 14.9233L5.5 14.3233L4.75722 16.1802ZM14.5 16.0773L16.2572 16.7802L17 14.9233L15.2428 14.2204L14.5 16.0773ZM17.7428 16.7802L19.2428 16.1802L18.5 14.3233L17 14.9233L17.7428 16.7802ZM3.5 14.3233C3.5 15.1411 3.9979 15.8765 4.75722 16.1802L5.5 14.3233L5.5 14.3233H3.5ZM5.5 9.0003C4.39543 9.0003 3.5 9.89573 3.5 11.0003H5.5H5.5V9.0003ZM20.5 11.0003C20.5 9.89573 19.6046 9.0003 18.5 9.0003V11.0003H20.5ZM18.5 14.3233L18.5 14.3233L19.2428 16.1802C20.0021 15.8765 20.5 15.1411 20.5 14.3233H18.5ZM16.2572 16.7802C16.734 16.9709 17.266 16.971 17.7428 16.7802L17 14.9233L17 14.9233L16.2572 16.7802ZM14.5 16.0773L14.5 16.0773L15.2428 14.2204C14.766 14.0297 14.234 14.0297 13.7572 14.2204L14.5 16.0773ZM11.2572 16.7802C11.734 16.971 12.266 16.971 12.7428 16.7802L12 14.9233L12 14.9233L11.2572 16.7802ZM9.5 16.0773L9.5 16.0773L10.2428 14.2204C9.76596 14.0297 9.23404 14.0297 8.75722 14.2204L9.5 16.0773ZM7 14.9233L7 14.9233L6.25722 16.7802C6.73404 16.971 7.26596 16.971 7.74278 16.7802L7 14.9233Z" fill="black"/>
</svg>
