<svg width="16" height="16" viewBox="0 0 16 16" fill="none" xmlns="http://www.w3.org/2000/svg">
<path d="M10.254 3.90973L10.2259 3.71061C10.1556 3.21632 9.76671 2.82744 9.27242 2.75717L9.07329 2.72905C8.86949 2.70094 8.72659 2.50885 8.7547 2.30504C8.78281 2.10123 8.97256 1.95599 9.17871 1.98645L9.37783 2.01456C10.2024 2.13169 10.8513 2.78059 10.9685 3.60519L10.9966 3.80431C11.0247 4.00812 10.8841 4.20022 10.678 4.22833C10.4718 4.25644 10.2821 4.11588 10.254 3.90973ZM6.34649 3.63565C6.05366 3.34282 6.05366 2.86727 6.34649 2.57444C6.63932 2.28161 7.11487 2.28161 7.4077 2.57444L11.9055 7.07226C11.9828 7.14957 12.1257 7.09803 12.1257 6.98558V5.16537C12.1257 4.64765 12.545 4.22833 13.0628 4.22833C13.5805 4.22833 13.9998 4.64765 13.9998 5.16537V9.29774C13.9998 10.708 13.3462 12.0363 12.2311 12.8983C11.0387 13.819 9.52308 14.0626 8.16436 13.6644C7.49906 13.4981 6.86889 13.1537 6.34649 12.6313L6.2317 12.5165L3.72276 10.0076L2.97313 9.25792C2.6803 8.96509 2.6803 8.48954 2.97313 8.19671C3.26595 7.90389 3.7415 7.90389 4.03433 8.19671L4.78163 8.94401L4.78397 8.94635L5.87563 10.0404C5.99744 10.1622 6.19422 10.1622 6.31369 10.0404C6.43317 9.91854 6.43551 9.72176 6.31369 9.60228L3.34795 6.63419C3.05512 6.34136 3.05512 5.86581 3.34795 5.57299C3.64077 5.28016 4.11632 5.28016 4.40915 5.57299L7.3749 8.54108C7.49672 8.6629 7.69349 8.6629 7.81297 8.54108C7.93244 8.41926 7.93478 8.22248 7.81297 8.10301L4.4724 4.7601C4.17957 4.46727 4.17957 3.99172 4.4724 3.6989C4.76523 3.40607 5.24078 3.40607 5.5336 3.6989L8.87417 7.04181C8.99599 7.16362 9.19277 7.16362 9.31224 7.04181C9.43171 6.91999 9.43406 6.72321 9.31224 6.60374L6.34649 3.63565ZM2.32422 10.2324C2.52803 10.2043 2.72013 10.3449 2.74824 10.551L2.77635 10.7502C2.84663 11.2445 3.2355 11.6333 3.72979 11.7036L3.92891 11.7317C4.13272 11.7622 4.27562 11.9519 4.24751 12.1557C4.2194 12.3595 4.0273 12.5024 3.8235 12.4743L3.62437 12.4462C2.79977 12.3291 2.15087 11.6802 2.03374 10.8556L2.00797 10.6565C1.97986 10.4527 2.12042 10.2606 2.32657 10.2324H2.32422Z" fill="#9B59EE"/>
</svg>
