<svg width="24" height="24" viewBox="0 0 24 24" fill="none" xmlns="http://www.w3.org/2000/svg">
<path fill-rule="evenodd" clip-rule="evenodd" d="M8.51472 4C7.86882 4 7.26267 4.31193 6.88725 4.83752L2.60154 10.8375C2.10483 11.5329 2.10483 12.4671 2.60154 13.1625L6.88725 19.1625C7.26267 19.6881 7.86882 20 8.51472 20H20.0001C21.1047 20 22.0001 19.1046 22.0001 18V6C22.0001 4.89543 21.1047 4 20.0001 4H8.51472ZM10.5413 9.29289C10.9318 8.90237 11.565 8.90237 11.9555 9.29289L13.2501 10.5875L14.5447 9.29289C14.9352 8.90237 15.5683 8.90237 15.9589 9.29289C16.3494 9.68342 16.3494 10.3166 15.9589 10.7071L14.6643 12.0017L15.9572 13.2946C16.3477 13.6851 16.3477 14.3182 15.9572 14.7088C15.5667 15.0993 14.9335 15.0993 14.543 14.7088L13.2501 13.4159L11.9572 14.7088C11.5667 15.0993 10.9335 15.0993 10.543 14.7088C10.1525 14.3182 10.1525 13.6851 10.543 13.2946L11.8359 12.0017L10.5413 10.7071C10.1508 10.3166 10.1508 9.68342 10.5413 9.29289Z" fill="black"/>
</svg>
