<svg width="24" height="24" viewBox="0 0 24 24" fill="none" xmlns="http://www.w3.org/2000/svg">
<path d="M21 12.0002C21 16.9708 16.9706 21.0002 12 21.0002C7.02944 21.0002 3 16.9708 3 12.0002C3 7.02963 7.02944 3.00019 12 3.00019M16.7712 13.4996C16.1341 15.5283 14.2389 16.9998 12 16.9998C9.23858 16.9998 7 14.7612 7 11.9998C7 9.76099 8.47145 7.86584 10.5 7.22871M14 10.0002H17.5858C17.851 10.0002 18.1054 9.89484 18.2929 9.7073L21.214 6.78622C21.3454 6.65481 21.2926 6.43105 21.1162 6.37228L18.5 5.50019L17.6279 2.88394C17.5691 2.70763 17.3454 2.65481 17.214 2.78622L14.2929 5.7073C14.1054 5.89484 14 6.14919 14 6.41441V10.0002ZM14 10.0002L12 12.0002" stroke="black" stroke-width="2" stroke-linecap="round" stroke-linejoin="round"/>
</svg>
