<svg width="24" height="24" viewBox="0 0 24 24" fill="none" xmlns="http://www.w3.org/2000/svg">
<path fill-rule="evenodd" clip-rule="evenodd" d="M6 2C4.89543 2 4 2.89543 4 4V20C4 21.1046 4.89543 22 6 22H11.1707C11.0602 21.6872 11 21.3506 11 21V17C11 16.0193 11.4706 15.1484 12.1983 14.601C12.8035 12.5205 14.7242 11 17 11C18.1256 11 19.1643 11.3719 20 11.9996V4C20 2.89543 19.1046 2 18 2H6ZM8 5C7.44772 5 7 5.44772 7 6C7 6.55228 7.44772 7 8 7H14C14.5523 7 15 6.55228 15 6C15 5.44772 14.5523 5 14 5H8ZM8 9C7.44772 9 7 9.44772 7 10C7 10.5523 7.44772 11 8 11H11C11.5523 11 12 10.5523 12 10C12 9.44772 11.5523 9 11 9H8Z" fill="black"/>
<path fill-rule="evenodd" clip-rule="evenodd" d="M20 16.2676V16C20 14.3431 18.6569 13 17 13C15.3431 13 14 14.3431 14 16V16.2676C13.4022 16.6134 13 17.2597 13 18V20C13 21.1046 13.8954 22 15 22H19C20.1046 22 21 21.1046 21 20V18C21 17.2597 20.5978 16.6134 20 16.2676ZM16 16H18C18 15.4477 17.5523 15 17 15C16.4477 15 16 15.4477 16 16ZM19 18H15V20H19V18Z" fill="black"/>
</svg>
