<svg width="24" height="24" viewBox="0 0 24 24" fill="none" xmlns="http://www.w3.org/2000/svg">
<path fill-rule="evenodd" clip-rule="evenodd" d="M10.3608 8.13237C9.92008 8.04548 9.46501 8 9 8C5.13401 8 2 11.134 2 15C2 18.866 5.13401 22 9 22H16.5C19.5376 22 22 19.5376 22 16.5C22 14.612 21.0489 12.9478 19.6019 11.9578C19.8581 11.3561 20 10.694 20 10C20 7.23858 17.7614 5 15 5C12.8984 5 11.1007 6.29596 10.3608 8.13237ZM12.2499 8.79875C13.2556 9.32674 14.1161 10.0916 14.7581 11.0186C14.8273 11.1184 15.0064 11.2021 15.189 11.1575C15.6101 11.0544 16.0494 11 16.5 11C16.9374 11 17.3636 11.0512 17.7727 11.1482C17.9192 10.795 18 10.4075 18 10C18 8.34315 16.6569 7 15 7C13.7708 7 12.7131 7.73998 12.2499 8.79875Z" fill="black"/>
<path fill-rule="evenodd" clip-rule="evenodd" d="M15 1C15.5523 1 16 1.44772 16 2V2.5C16 3.05228 15.5523 3.5 15 3.5C14.4477 3.5 14 3.05228 14 2.5V2C14 1.44772 14.4477 1 15 1ZM8.98821 3.48955C9.37873 3.09902 10.0119 3.09902 10.4024 3.48955L10.756 3.8431C11.1465 4.23363 11.1465 4.86679 10.756 5.25732C10.3654 5.64784 9.73228 5.64784 9.34176 5.25732L8.98821 4.90376C8.59768 4.51324 8.59768 3.88007 8.98821 3.48955ZM21.0079 3.48955C21.3984 3.88007 21.3984 4.51324 21.0079 4.90376L20.6543 5.25732C20.2638 5.64784 19.6306 5.64784 19.2401 5.25731C18.8496 4.86679 18.8496 4.23363 19.2401 3.8431L19.5937 3.48955C19.9842 3.09902 20.6174 3.09902 21.0079 3.48955ZM21.5 9.5C21.5 8.94772 21.9477 8.5 22.5 8.5H23C23.5523 8.5 24 8.94772 24 9.5C24 10.0523 23.5523 10.5 23 10.5H22.5C21.9477 10.5 21.5 10.0523 21.5 9.5Z" fill="black"/>
</svg>
