<svg width="24" height="24" viewBox="0 0 24 24" fill="none" xmlns="http://www.w3.org/2000/svg">
<path fill-rule="evenodd" clip-rule="evenodd" d="M23 12C23 6.47715 18.5228 2 13 2C7.47715 2 3 6.47715 3 12C3 17.5228 7.47715 22 13 22C18.5228 22 23 17.5228 23 12ZM14.5858 13L13.2929 14.2929C12.9024 14.6834 12.9024 15.3166 13.2929 15.7071C13.6834 16.0976 14.3166 16.0976 14.7071 15.7071L17.1768 13.2374C17.8602 12.554 17.8602 11.446 17.1768 10.7626L14.7071 8.29289C14.3166 7.90237 13.6834 7.90237 13.2929 8.29289C12.9024 8.68342 12.9024 9.31658 13.2929 9.70711L14.5858 11H9C8.44771 11 8 11.4477 8 12C8 12.5523 8.44771 13 9 13H14.5858Z" fill="black"/>
</svg>
