<svg width="24" height="24" viewBox="0 0 24 24" fill="none" xmlns="http://www.w3.org/2000/svg">
<path fill-rule="evenodd" clip-rule="evenodd" d="M3 5C3 3.89543 3.89543 3 5 3H19C20.1046 3 21 3.89543 21 5V19C21 20.1046 20.1046 21 19 21H5C3.89543 21 3 20.1046 3 19V5ZM5 15V19H19V15H5ZM19 13V5H5V9.58579L6.58579 8C7.36684 7.21895 8.63317 7.21895 9.41421 8L14.4142 13H19ZM13 8.5C13 7.11929 14.1193 6 15.5 6C16.8807 6 18 7.11929 18 8.5C18 9.88071 16.8807 11 15.5 11C14.1193 11 13 9.88071 13 8.5ZM6 17C6 16.4477 6.44772 16 7 16H12C12.5523 16 13 16.4477 13 17C13 17.5523 12.5523 18 12 18H7C6.44772 18 6 17.5523 6 17ZM14 17C14 16.4477 14.4477 16 15 16H17C17.5523 16 18 16.4477 18 17C18 17.5523 17.5523 18 17 18H15C14.4477 18 14 17.5523 14 17Z" fill="black"/>
</svg>
