<svg width="24" height="24" viewBox="0 0 24 24" fill="none" xmlns="http://www.w3.org/2000/svg">
<path d="M6 2.5H5.5C4.39543 2.5 3.5 3.39543 3.5 4.5V19.5C3.5 20.6046 4.39543 21.5 5.5 21.5H6V2.5Z" fill="black"/>
<path fill-rule="evenodd" clip-rule="evenodd" d="M8 21.5H18.5C19.6046 21.5 20.5 20.6046 20.5 19.5V4.5C20.5 3.39543 19.6046 2.5 18.5 2.5H8V21.5ZM13 7C12.4477 7 12 7.44772 12 8C12 8.55228 12.4477 9 13 9H15.5C16.0523 9 16.5 8.55228 16.5 8C16.5 7.44772 16.0523 7 15.5 7H13ZM13 11C12.4477 11 12 11.4477 12 12C12 12.5523 12.4477 13 13 13H15.5C16.0523 13 16.5 12.5523 16.5 12C16.5 11.4477 16.0523 11 15.5 11H13Z" fill="black"/>
</svg>
