<svg width="24" height="24" viewBox="0 0 24 24" fill="none" xmlns="http://www.w3.org/2000/svg">
<path d="M8 3C5.79086 3 4 4.79086 4 7C4 9.20914 5.79086 11 8 11C10.2091 11 12 9.20914 12 7C12 4.79086 10.2091 3 8 3Z" fill="black"/>
<path d="M17 4C15.067 4 13.5 5.567 13.5 7.5C13.5 9.433 15.067 11 17 11C18.933 11 20.5 9.433 20.5 7.5C20.5 5.567 18.933 4 17 4Z" fill="black"/>
<path d="M7.99987 12C11.1785 12 14.1398 14.4136 14.8615 18.7665C15.0672 20.0073 14.0628 21 12.9269 21H3.07284C1.93696 21 0.932549 20.0073 1.13826 18.7665C1.85991 14.4136 4.82121 12 7.99987 12Z" fill="black"/>
<path d="M14.1939 12.7715C15.5083 14.2033 16.4527 16.1356 16.8346 18.4394C16.9264 18.9929 16.9028 19.5173 16.7874 20H21.0695C22.1992 20 23.2228 19.0067 22.9925 17.7506C22.3171 14.0663 19.7607 12 16.9997 12C16.0127 12 15.052 12.264 14.1939 12.7715Z" fill="black"/>
</svg>
