<svg width="24" height="24" viewBox="0 0 24 24" fill="none" xmlns="http://www.w3.org/2000/svg">
<path d="M9 3C9 2.44772 8.55228 2 8 2C7.44772 2 7 2.44772 7 3V4H5C3.89543 4 3 4.89543 3 6V19C3 20.1046 3.89543 21 5 21H11C11.5523 21 12 20.5523 12 20C12 19.4477 11.5523 19 11 19H5V10H19V11C19 11.5523 19.4477 12 20 12C20.5523 12 21 11.5523 21 11V6C21 4.89543 20.1046 4 19 4H17V3C17 2.44772 16.5523 2 16 2C15.4477 2 15 2.44772 15 3V4H9V3Z" fill="black"/>
<path d="M19 15C19 14.4477 18.5523 14 18 14C17.4477 14 17 14.4477 17 15V17H15C14.4477 17 14 17.4477 14 18C14 18.5523 14.4477 19 15 19H17V21C17 21.5523 17.4477 22 18 22C18.5523 22 19 21.5523 19 21V19H21C21.5523 19 22 18.5523 22 18C22 17.4477 21.5523 17 21 17H19V15Z" fill="black"/>
</svg>
