<svg width="24" height="24" viewBox="0 0 24 24" fill="none" xmlns="http://www.w3.org/2000/svg">
<path d="M19 4H5C4.44772 4 4 4.44772 4 5V7.58579C4 7.851 4.10536 8.10536 4.29289 8.29289L9.70711 13.7071C9.89464 13.8946 10 14.149 10 14.4142V20.057C10 20.7552 10.6974 21.2385 11.3511 20.9933L13.3511 20.2433C13.7414 20.097 14 19.7238 14 19.307V14.4142C14 14.149 14.1054 13.8946 14.2929 13.7071L19.7071 8.29289C19.8946 8.10536 20 7.851 20 7.58579V5C20 4.44772 19.5523 4 19 4Z" stroke="black" stroke-width="2" stroke-linejoin="round"/>
</svg>
