<svg width="24" height="24" viewBox="0 0 24 24" fill="none" xmlns="http://www.w3.org/2000/svg">
<path d="M13 4C13 3.63121 12.797 3.29235 12.4719 3.11833C12.1467 2.94431 11.7522 2.96338 11.4453 3.16795L5.69722 7H3C1.89543 7 1 7.89543 1 9V15C1 16.1046 1.89543 17 3 17H5.69722L11.4453 20.8321C11.7522 21.0366 12.1467 21.0557 12.4719 20.8817C12.797 20.7077 13 20.3688 13 20V4Z" fill="black"/>
<path d="M18.3639 4.22258C18.7545 3.83206 19.3876 3.83206 19.7782 4.22258C21.7677 6.21209 23 8.96347 23 12.0008C23 15.038 21.7677 17.7894 19.7782 19.7789C19.3876 20.1695 18.7545 20.1695 18.3639 19.7789C17.9734 19.3884 17.9734 18.7552 18.3639 18.3647C19.9937 16.7349 21 14.4863 21 12.0008C21 9.5152 19.9937 7.26657 18.3639 5.63679C17.9734 5.24627 17.9734 4.61311 18.3639 4.22258Z" fill="black"/>
<path d="M16.5963 7.40422C16.2057 7.0137 15.5726 7.0137 15.1821 7.40422C14.7915 7.79475 14.7915 8.42791 15.1821 8.81843C15.9975 9.63387 16.5001 10.7575 16.5001 12.0004C16.5001 13.2433 15.9975 14.367 15.1821 15.1824C14.7915 15.5729 14.7915 16.2061 15.1821 16.5966C15.5726 16.9871 16.2057 16.9871 16.5963 16.5966C17.7714 15.4214 18.5001 13.7951 18.5001 12.0004C18.5001 10.2058 17.7714 8.5794 16.5963 7.40422Z" fill="black"/>
</svg>
