<svg width="24" height="24" viewBox="0 0 24 24" fill="none" xmlns="http://www.w3.org/2000/svg">
<path fill-rule="evenodd" clip-rule="evenodd" d="M6.34315 4.92894C6.73367 5.31946 6.73367 5.95263 6.34315 6.34315C4.89434 7.79196 4 9.79059 4 12C4 14.2094 4.89434 16.2081 6.34315 17.6569C6.73367 18.0474 6.73367 18.6806 6.34315 19.0711C5.95262 19.4616 5.31946 19.4616 4.92893 19.0711C3.12038 17.2625 2 14.7612 2 12C2 9.23886 3.12038 6.73749 4.92893 4.92894C5.31946 4.53842 5.95262 4.53842 6.34315 4.92894ZM17.6569 4.92894C18.0474 4.53842 18.6805 4.53842 19.0711 4.92894C20.8796 6.73749 22 9.23886 22 12C22 14.7612 20.8796 17.2625 19.0711 19.0711C18.6805 19.4616 18.0474 19.4616 17.6569 19.0711C17.2663 18.6806 17.2663 18.0474 17.6569 17.6569C19.1057 16.2081 20 14.2094 20 12C20 9.79059 19.1057 7.79196 17.6569 6.34315C17.2663 5.95263 17.2663 5.31946 17.6569 4.92894ZM9.17157 7.75737C9.5621 8.14789 9.5621 8.78106 9.17157 9.17158C8.44662 9.89653 8 10.8952 8 12C8 13.1049 8.44662 14.1035 9.17157 14.8284C9.5621 15.219 9.5621 15.8521 9.17157 16.2426C8.78105 16.6332 8.14788 16.6332 7.75736 16.2426C6.67267 15.158 6 13.6566 6 12C6 10.3434 6.67267 8.84206 7.75736 7.75737C8.14788 7.36684 8.78105 7.36684 9.17157 7.75737ZM14.8284 7.75737C15.219 7.36684 15.8521 7.36684 16.2426 7.75737C17.3273 8.84206 18 10.3434 18 12C18 13.6566 17.3273 15.158 16.2426 16.2426C15.8521 16.6332 15.219 16.6332 14.8284 16.2426C14.4379 15.8521 14.4379 15.219 14.8284 14.8284C15.5534 14.1035 16 13.1049 16 12C16 10.8952 15.5534 9.89653 14.8284 9.17158C14.4379 8.78106 14.4379 8.14789 14.8284 7.75737ZM10 12C10 10.8954 10.8954 10 12 10C13.1046 10 14 10.8954 14 12C14 13.1046 13.1046 14 12 14C10.8954 14 10 13.1046 10 12Z" fill="black"/>
</svg>
