<svg width="24" height="24" viewBox="0 0 24 24" fill="none" xmlns="http://www.w3.org/2000/svg">
<path d="M19 5.5C19 6.88071 15.866 8 12 8C8.13401 8 5 6.88071 5 5.5M19 5.5C19 4.11929 15.866 3 12 3C8.13401 3 5 4.11929 5 5.5M19 5.5V18.5C19 19.8807 15.866 21 12 21C8.13401 21 5 19.8807 5 18.5V5.5M19 9.75C19 11.1307 15.866 12.25 12 12.25C8.13401 12.25 5 11.1307 5 9.75M19 14C19 15.3807 15.866 16.5 12 16.5C8.13401 16.5 5 15.3807 5 14" stroke="black" stroke-width="2" stroke-linecap="round" stroke-linejoin="round"/>
</svg>
