<svg width="24" height="24" viewBox="0 0 24 24" fill="none" xmlns="http://www.w3.org/2000/svg">
<path fill-rule="evenodd" clip-rule="evenodd" d="M3 5C3 3.89543 3.89543 3 5 3H13C14.1046 3 15 3.89543 15 5V7H19C20.1046 7 21 7.89543 21 9V18H22C22.5523 18 23 18.4477 23 19C23 19.5523 22.5523 20 22 20H2C1.44772 20 1 19.5523 1 19C1 18.4477 1.44772 18 2 18H3V5ZM15 18H19V9H15V18ZM7 9C7 8.44772 7.44772 8 8 8H10C10.5523 8 11 8.44772 11 9C11 9.55228 10.5523 10 10 10H8C7.44772 10 7 9.55228 7 9ZM7 13C7 12.4477 7.44772 12 8 12H10C10.5523 12 11 12.4477 11 13C11 13.5523 10.5523 14 10 14H8C7.44772 14 7 13.5523 7 13Z" fill="black"/>
</svg>
