<svg width="16" height="16" viewBox="0 0 16 16" fill="none" xmlns="http://www.w3.org/2000/svg">
<path d="M6.86489 9.39594L6.49972 8.58693L4.02148 8.7482L4.86912 9.8351L6.8828 9.71053L6.86489 9.39594ZM10.6245 5.75791L10.2248 6.29387L9.69672 7.03594L9.62911 7.13091L7.68887 9.85729L5.43849 13.0341L6.18531 14.6195C8.0558 12.0582 9.8948 9.47424 11.7364 6.8921L10.6245 5.75791ZM9.61043 5.25742L10.164 2.51029L9.21026 1.507L8.42717 4.63067L8.11156 6.01014L9.3479 6.45857L9.61043 5.25742Z" fill="#C88D15"/>
<path d="M10.6362 5.74371L10.3811 5.76065L10.0188 5.78459L9.75374 5.80207L8.25361 5.90143L8.53042 4.58126L8.80997 3.24854L9.21204 1.49998L6.76708 4.91L4 8.79803L5.98257 8.66681L6.38299 8.64035L6.10572 9.96089L6.06139 10.1725L5.99353 10.4963L5.46671 13.0083L6.19928 11.9788L7.86903 9.63228L9.80918 6.90581L9.87679 6.81089L10.6363 5.74371H10.6362Z" fill="#E2CE29"/>
</svg>
