<svg width="24" height="24" viewBox="0 0 24 24" fill="none" xmlns="http://www.w3.org/2000/svg">
<path fill-rule="evenodd" clip-rule="evenodd" d="M6.29289 7.29289C6.68342 6.90237 7.31658 6.90237 7.70711 7.29289L11.1768 10.7626C11.8602 11.446 11.8602 12.554 11.1768 13.2374L7.70711 16.7071C7.31658 17.0976 6.68342 17.0976 6.29289 16.7071C5.90237 16.3166 5.90237 15.6834 6.29289 15.2929L9.58579 12L6.29289 8.70711C5.90237 8.31658 5.90237 7.68342 6.29289 7.29289ZM13.2929 7.29289C13.6834 6.90237 14.3166 6.90237 14.7071 7.29289L18.1768 10.7626C18.8602 11.446 18.8602 12.554 18.1768 13.2374L14.7071 16.7071C14.3166 17.0976 13.6834 17.0976 13.2929 16.7071C12.9024 16.3166 12.9024 15.6834 13.2929 15.2929L16.5858 12L13.2929 8.70711C12.9024 8.31658 12.9024 7.68342 13.2929 7.29289Z" fill="black"/>
</svg>
