<svg width="16" height="16" viewBox="0 0 16 16" fill="none" xmlns="http://www.w3.org/2000/svg">
<path d="M13.2835 9.88078C12.6457 8.53673 11.2357 7.78848 9.06529 6.97707C9.03885 6.96711 8.54261 6.80595 7.9661 6.61897C7.30185 6.40367 6.57849 6.4575 5.95407 6.76986L4.73291 7.38029L9.94422 13.9123H12.8221L13.291 12.8038C13.6867 11.8692 13.7184 10.7977 13.2835 9.88078Z" fill="#BF26ED"/>
<path d="M11.9516 5.36204C12.0066 4.98838 12.0648 4.59326 12.0922 4.40876C12.2552 3.30397 11.4914 2.27602 10.3866 2.11299C9.28181 1.94996 8.25387 2.71377 8.09084 3.81856C8.06377 4.00275 8.00528 4.39787 7.95021 4.77184C7.76167 4.81073 7.60797 4.96194 7.57811 5.16324C7.53424 5.45756 7.63411 5.83962 7.82545 5.96811C7.89017 6.9217 8.57121 7.82053 9.52418 7.96116C10.4771 8.10179 11.3884 7.43754 11.726 6.54338C11.9463 6.47524 12.1522 6.13861 12.1952 5.84397C12.2241 5.64236 12.1208 5.45351 11.9516 5.36204Z" fill="#BF26ED"/>
<path d="M14.996 11.8713C14.9699 11.5369 14.7888 11.2335 14.5399 11.0083L13.2727 9.85931C13.2727 9.85931 13.3879 10.0905 13.4946 10.7105L11.2228 9.65646C10.6369 9.38578 9.99879 9.24547 9.35321 9.24547H8.81497C8.23006 9.24547 7.694 8.87648 7.52568 8.31614C7.46159 8.10334 7.41305 7.84479 7.39345 7.5318C7.86916 7.13326 8.16255 6.50852 8.17904 5.86948C8.36478 5.73289 8.44847 5.3471 8.39216 5.05496C8.35358 4.8549 8.19366 4.71054 8.00387 4.67943C7.93294 4.30826 7.85827 3.91594 7.82342 3.733C7.61404 2.63598 6.55498 1.91635 5.45796 2.12542C4.36094 2.3345 3.64131 3.39387 3.85039 4.49089C3.88523 4.67383 3.96021 5.06616 4.03084 5.43733C3.86563 5.53595 3.77012 5.72916 3.80807 5.92921C3.86345 6.22167 4.08342 6.54959 4.30618 6.60808C4.39641 6.81964 4.51961 7.01565 4.66739 7.19019L4.73304 7.38029L4.34445 9.75602L3.06138 10.0351C2.89399 10.0749 2.7403 10.1421 2.60372 10.2308C2.08912 10.5646 1.89684 11.1999 2.04836 11.7733C2.08694 11.9189 2.78852 13.9123 2.78852 13.9123H10.9555L11.2277 12.7845L13.5484 13.188C14.338 13.329 15.0605 12.6893 14.996 11.8713Z" fill="#F59119"/>
<path d="M9.25969 12.0017L7.75852 11.484C7.75852 11.484 8.40317 11.4103 8.39757 11.0668C8.39725 11.0422 8.38948 10.9065 8.19222 10.9261C8.13809 10.9314 7.70283 10.975 7.397 11.0055C7.19508 11.0257 6.99596 11.0655 6.80182 11.1246L6.69572 11.157L4.34519 9.75601C4.34519 9.75601 4.34519 9.75601 4.57822 9.24701C4.98548 8.35658 4.73378 7.38028 4.73378 7.38028L1.74981 8.87211C1.29028 9.10172 1 9.57152 1 10.0855C1 10.7118 1.42873 11.2566 2.03728 11.404L6.32798 12.3181L8.05035 12.9553C8.16236 12.9908 8.27032 12.9954 8.39508 12.9575C8.52015 12.9195 8.55935 12.8918 8.62002 12.8474C8.78429 12.7273 9.09075 12.4896 9.31196 12.3169C9.42583 12.2276 9.39565 12.0487 9.25969 12.0017Z" fill="#BF26ED"/>
</svg>
