<svg width="16" height="16" viewBox="0 0 16 16" fill="none" xmlns="http://www.w3.org/2000/svg">
<path d="M4.18169 4.46367L4.83266 5.54863C4.74672 5.62383 4.66079 5.70332 4.57485 5.78926C3.04946 7.31465 3.28149 9.0334 3.87231 9.89922C3.97973 10.0561 4.19887 10.0561 4.33208 9.9207L7.30766 6.94512C7.3936 7.17715 7.47524 7.50801 7.51606 7.95918C7.6063 8.9582 7.48169 10.4686 6.81352 12.6084C6.74907 12.8168 6.78559 13.0445 6.91665 13.2207C7.0477 13.3969 7.2518 13.5 7.47094 13.5H8.84594C9.19184 13.5 9.48618 13.2422 9.52915 12.8984C9.79555 10.7715 9.47973 8.44688 8.84809 6.625H11.568C11.6282 6.625 11.684 6.59277 11.7163 6.54121L12.1374 5.83867C12.204 5.72695 12.3651 5.72695 12.4317 5.83867L12.8528 6.54121C12.8829 6.59277 12.9409 6.625 13.001 6.625H14.0022C14.1913 6.625 14.3481 6.47031 14.3116 6.2834C14.1161 5.2543 13.0655 3.875 10.9084 3.875C9.96958 3.875 9.24126 4.13711 8.69985 4.51523C8.34106 3.56133 7.29907 2.5 5.40844 2.5C3.25141 2.5 2.20083 3.8793 2.00532 4.9084C1.9688 5.09531 2.12563 5.25 2.31469 5.25H3.31801C3.37817 5.25 3.43403 5.21777 3.46626 5.16621L3.8852 4.46367C3.9518 4.35195 4.11294 4.35195 4.17954 4.46367H4.18169Z" fill="#F9AD1C"/>
</svg>
