<svg width="24" height="24" viewBox="0 0 24 24" fill="none" xmlns="http://www.w3.org/2000/svg">
<path d="M3 9.5C3 5.91015 5.91015 3 9.5 3C11.7512 3 13.7346 4.14533 14.8997 5.88045C14.9664 5.97984 15.135 6.07095 15.3257 6.04521C15.5467 6.01535 15.7718 6 16 6C18.7614 6 21 8.23858 21 11C21 13.7614 18.7614 16 16 16H11.368L10.3944 17.9472C10.1474 18.4412 9.54676 18.6414 9.05279 18.3944C8.55881 18.1474 8.35858 17.5468 8.60557 17.0528L9.13695 15.99C5.71598 15.8017 3 12.968 3 9.5Z" fill="black"/>
<path d="M13.9472 17.6056C14.4412 17.8526 14.6414 18.4532 14.3944 18.9472L13.3944 20.9472C13.1474 21.4412 12.5468 21.6414 12.0528 21.3944C11.5588 21.1474 11.3586 20.5468 11.6056 20.0528L12.6056 18.0528C12.8526 17.5588 13.4532 17.3586 13.9472 17.6056Z" fill="black"/>
</svg>
