<svg width="24" height="24" viewBox="0 0 24 24" fill="none" xmlns="http://www.w3.org/2000/svg">
<path d="M20 5H4C3.44772 5 3 5.44772 3 6V18C3 18.5523 3.44772 19 4 19H20C20.5523 19 21 18.5523 21 18V6C21 5.44772 20.5523 5 20 5Z" stroke="black" stroke-width="2" stroke-linecap="square" stroke-linejoin="round"/>
<path d="M6.11621 15.6221C5.45703 15.6221 5.08105 15.2314 5.08105 14.5381V9.41602C5.08105 8.72266 5.45703 8.33203 6.11621 8.33203C6.77539 8.33203 7.15137 8.72266 7.15137 9.41602V11.1299H9.63184V9.41602C9.63184 8.72266 10.0078 8.33203 10.667 8.33203C11.3262 8.33203 11.7021 8.72266 11.7021 9.41602V14.5381C11.7021 15.2314 11.3262 15.6221 10.667 15.6221C10.0078 15.6221 9.63184 15.2314 9.63184 14.5381V12.7754H7.15137V14.5381C7.15137 15.2314 6.77539 15.6221 6.11621 15.6221Z" fill="black"/>
<path d="M13.7139 15.5C13.0547 15.5 12.6787 15.1094 12.6787 14.416V9.53809C12.6787 8.84473 13.0547 8.4541 13.7139 8.4541H15.6914C17.8301 8.4541 19.085 9.66992 19.085 11.9258C19.085 14.1816 17.8252 15.5 15.6914 15.5H13.7139ZM14.749 13.8545H15.3984C16.4336 13.8545 16.9756 13.2246 16.9756 11.9258C16.9756 10.7393 16.3896 10.0996 15.3984 10.0996H14.749V13.8545Z" fill="black"/>
</svg>
