<svg width="24" height="24" viewBox="0 0 24 24" fill="none" xmlns="http://www.w3.org/2000/svg">
<path fill-rule="evenodd" clip-rule="evenodd" d="M2 12C2 6.47715 6.47715 2 12 2C17.5228 2 22 6.47715 22 12C22 17.5228 17.5228 22 12 22C6.47715 22 2 17.5228 2 12ZM13 5.99902C13 5.44674 12.5523 4.99902 12 4.99902C11.4477 4.99902 11 5.44674 11 5.99902V6.59658C10.4868 6.70212 10.0007 6.90116 9.5877 7.22679C8.87526 7.78848 8.51312 8.62195 8.51312 9.60087C8.51312 10.7451 8.98398 11.5418 9.70589 12.0735C10.2701 12.489 10.9814 12.7264 11.5142 12.9042C11.5713 12.9232 11.6263 12.9416 11.6789 12.9594L11.7814 12.9941C12.4007 13.2037 12.8105 13.3424 13.1081 13.5616C13.3245 13.721 13.4869 13.9231 13.4869 14.4239C13.4869 14.8808 13.3386 15.0977 13.174 15.2274C12.9727 15.3861 12.6004 15.5246 12 15.5246C11.2819 15.5246 10.8536 15.2025 10.6439 14.826C10.3751 14.3436 9.76608 14.1703 9.28361 14.4391C8.80115 14.7079 8.62792 15.3169 8.8967 15.7994C9.33233 16.5814 10.0684 17.1595 11 17.4007V18C11 18.5523 11.4477 19 12 19C12.5523 19 13 18.5523 13 18V17.4282C13.5132 17.3226 13.9993 17.1236 14.4123 16.7979C15.1247 16.2363 15.4869 15.4028 15.4869 14.4239C15.4869 13.2797 15.016 12.4829 14.2941 11.9512C13.7299 11.5357 13.0186 11.2983 12.4858 11.1206C12.4287 11.1015 12.3737 11.0831 12.3211 11.0653L12.2186 11.0306C11.5992 10.821 11.1895 10.6823 10.8919 10.4631C10.6755 10.3038 10.5131 10.1016 10.5131 9.60087C10.5131 9.14395 10.6614 8.92708 10.826 8.79738C11.0273 8.63866 11.3996 8.50018 12 8.50018C12.7181 8.50018 13.1464 8.82219 13.3561 9.1987C13.6249 9.68116 14.2339 9.85439 14.7164 9.58561C15.1989 9.31684 15.3721 8.70783 15.1033 8.22536C14.6677 7.44338 13.9316 6.86525 13 6.62409V5.99902Z" fill="black"/>
</svg>
