<svg width="24" height="24" viewBox="0 0 24 24" fill="none" xmlns="http://www.w3.org/2000/svg">
<path d="M10 16H14M4.71429 16H4C3.44772 16 3 15.5523 3 15V10.3028C3 10.1054 3.05844 9.91234 3.16795 9.74808L4.70313 7.4453C4.8886 7.1671 5.20083 7 5.53518 7H8C8.55228 7 9 7.44772 9 8V14M19 16H20C20.5523 16 21 15.5523 21 15V6C21 5.44772 20.5523 5 20 5H10C9.44772 5 9 5.44772 9 6V9M10 16.5C10 17.8807 8.88071 19 7.5 19C6.11929 19 5 17.8807 5 16.5C5 15.1193 6.11929 14 7.5 14C8.88071 14 10 15.1193 10 16.5ZM19 16.5C19 17.8807 17.8807 19 16.5 19C15.1193 19 14 17.8807 14 16.5C14 15.1193 15.1193 14 16.5 14C17.8807 14 19 15.1193 19 16.5Z" stroke="black" stroke-width="2" stroke-linejoin="round"/>
</svg>
