<svg width="24" height="24" viewBox="0 0 24 24" fill="none" xmlns="http://www.w3.org/2000/svg">
<path fill-rule="evenodd" clip-rule="evenodd" d="M16 3C16 2.44772 16.4477 2 17 2H21C21.5523 2 22 2.44772 22 3C22 3.55228 21.5523 4 21 4H20V20H21C21.5523 20 22 20.4477 22 21C22 21.5523 21.5523 22 21 22H17C16.4477 22 16 21.5523 16 21C16 20.4477 16.4477 20 17 20H18V4H17C16.4477 4 16 3.55228 16 3ZM2 6C2 5.44772 2.44772 5 3 5H13C13.5523 5 14 5.44772 14 6C14 6.55228 13.5523 7 13 7H9V18C9 18.5523 8.55228 19 8 19C7.44772 19 7 18.5523 7 18V7H3C2.44772 7 2 6.55228 2 6Z" fill="black"/>
</svg>
