<svg width="24" height="24" viewBox="0 0 24 24" fill="none" xmlns="http://www.w3.org/2000/svg">
<path d="M9.33594 14.2461C9.33594 15.1108 10.4585 15.9111 11.9355 15.9111C13.708 15.9111 14.8574 14.8584 14.8574 13.2524C14.8574 11.813 13.9014 10.8516 12.4834 10.8516C11.8496 10.8516 11.2695 11.0718 11.0117 11.4102H10.9204L11.0386 9.82031H13.7349C14.2559 9.82031 14.5405 9.57324 14.5405 9.12744C14.5405 8.67627 14.2505 8.41309 13.7349 8.41309H10.6841C10.0127 8.41309 9.6582 8.70312 9.62061 9.27783L9.44336 11.8882C9.40576 12.4307 9.79785 12.8013 10.3242 12.8013C10.5391 12.8013 10.7271 12.7368 10.9956 12.5273C11.3179 12.2964 11.6724 12.1675 12.0054 12.1675C12.6821 12.1675 13.1655 12.6294 13.1655 13.3008C13.1655 14.0098 12.6606 14.4878 11.9517 14.4878C11.4629 14.4878 11.0762 14.2729 10.7056 13.8164C10.5015 13.5747 10.3027 13.478 10.0449 13.478C9.60986 13.478 9.33594 13.8271 9.33594 14.2461Z" fill="black"/>
<path d="M11.4607 0.0809335C11.1796 0.222001 11 0.524565 11 0.85715V2.04938C5.94668 2.5511 2 6.81465 2 12C2 17.5228 6.47715 22 12 22C17.5228 22 22 17.5228 22 12C22 9.6195 21.167 7.43086 19.7774 5.71362C19.43 5.28429 18.8003 5.21789 18.371 5.5653C17.9416 5.91271 17.8752 6.54238 18.2226 6.97171C19.3346 8.34592 20 10.0939 20 12C20 16.4183 16.4183 20 12 20C7.58172 20 4 16.4183 4 12C4 7.92038 7.05369 4.55399 11 4.06189V5.14285C11 5.47544 11.1796 5.778 11.4607 5.91907C11.7418 6.06013 12.0737 6.01424 12.3121 5.80132L14.7121 3.65847C14.8945 3.49562 15 3.25438 15 3C15 2.74562 14.8945 2.50438 14.7121 2.34153L12.3121 0.198677C12.0737 -0.0142387 11.7418 -0.0601344 11.4607 0.0809335Z" fill="black"/>
</svg>
