<svg width="24" height="24" viewBox="0 0 24 24" fill="none" xmlns="http://www.w3.org/2000/svg">
<path d="M4.25703 5.6713C2.84635 7.39517 2 9.59875 2 12C2 14.4013 2.84638 16.6049 4.2571 18.3288L8.19008 14.3958C7.75292 13.7021 7.5 12.8806 7.5 12C7.5 11.1195 7.7529 10.298 8.19002 9.6043L4.25703 5.6713Z" fill="black"/>
<path d="M5.67124 4.25708L9.60422 8.19007C10.298 7.75292 11.1194 7.5 12 7.5C12.8806 7.5 13.7021 7.75292 14.3958 8.19008L18.3288 4.2571C16.6049 2.84638 14.4013 2 12 2C9.59871 2 7.39511 2.84638 5.67124 4.25708Z" fill="black"/>
<path d="M19.743 5.67132L15.81 9.60432C16.2471 10.298 16.5 11.1195 16.5 12C16.5 12.8806 16.2471 13.702 15.8099 14.3958L19.7429 18.3288C21.1536 16.6049 22 14.4013 22 12C22 9.59875 21.1537 7.39518 19.743 5.67132Z" fill="black"/>
<path d="M18.3287 19.743L14.3957 15.81C13.702 16.2471 12.8805 16.5 12 16.5C11.1195 16.5 10.298 16.2471 9.60432 15.81L5.67132 19.743C7.39518 21.1537 9.59875 22 12 22C14.4013 22 16.6048 21.1536 18.3287 19.743Z" fill="black"/>
</svg>
