<svg width="24" height="24" viewBox="0 0 24 24" fill="none" xmlns="http://www.w3.org/2000/svg">
<path d="M12 3V20M12 20H7M12 20H17M3 6H7.76393C7.91918 6 8.07229 5.96385 8.21115 5.89443L9.78885 5.10557C9.92771 5.03615 10.0808 5 10.2361 5H13.7639C13.9192 5 14.0723 5.03615 14.2111 5.10557L15.7889 5.89443C15.9277 5.96385 16.0808 6 16.2361 6H21M5.5 6L2.76022 14.2193C2.60904 14.6729 2.79716 15.1778 3.23447 15.371C4.77877 16.053 6.22123 16.053 7.76553 15.371C8.20284 15.1778 8.39096 14.6729 8.23978 14.2193L5.5 6ZM18.5 6L15.7602 14.2193C15.609 14.6729 15.7972 15.1778 16.2345 15.371C17.7788 16.053 19.2212 16.053 20.7655 15.371C21.2028 15.1778 21.391 14.6729 21.2398 14.2193L18.5 6Z" stroke="black" stroke-width="2" stroke-linecap="round" stroke-linejoin="round"/>
</svg>
