<svg width="24" height="24" viewBox="0 0 24 24" fill="none" xmlns="http://www.w3.org/2000/svg">
<path d="M12 21C7.02944 21 3 16.9706 3 12C3 7.02944 7.02944 3 12 3C16.9706 3 21 7.02944 21 12C21 16.9706 16.9706 21 12 21Z" stroke="black" stroke-width="2"/>
<path d="M11.125 8C11.125 8.48325 11.5168 8.875 12 8.875C12.4832 8.875 12.875 8.48325 12.875 8C12.875 7.51675 12.4832 7.125 12 7.125C11.5168 7.125 11.125 7.51675 11.125 8Z" fill="black" stroke="black" stroke-width="0.75"/>
<path d="M11.125 12C11.125 12.4832 11.5168 12.875 12 12.875C12.4832 12.875 12.875 12.4832 12.875 12C12.875 11.5168 12.4832 11.125 12 11.125C11.5168 11.125 11.125 11.5168 11.125 12Z" fill="black" stroke="black" stroke-width="0.75"/>
<path d="M11.125 16C11.125 16.4832 11.5168 16.875 12 16.875C12.4832 16.875 12.875 16.4832 12.875 16C12.875 15.5168 12.4832 15.125 12 15.125C11.5168 15.125 11.125 15.5168 11.125 16Z" fill="black" stroke="black" stroke-width="0.75"/>
</svg>
