<svg width="24" height="24" viewBox="0 0 24 24" fill="none" xmlns="http://www.w3.org/2000/svg">
<path d="M16.3398 4.50098C16.3398 3.67255 17.0114 3.00098 17.8398 3.00098H19.5098C20.3383 3.00098 21.0098 3.67255 21.0098 4.50098V19.501C21.0098 20.3294 20.3383 21.001 19.5098 21.001H17.8398C17.0114 21.001 16.3398 20.3294 16.3398 19.501V4.50098Z" fill="black"/>
<path d="M11.1699 8.50098C10.3415 8.50098 9.66992 9.17255 9.66992 10.001V19.501C9.66992 20.3294 10.3415 21.001 11.1699 21.001H12.8399C13.6683 21.001 14.3399 20.3294 14.3399 19.501V10.001C14.3399 9.17255 13.6683 8.50098 12.8399 8.50098H11.1699Z" fill="black"/>
<path d="M4.5 14.001C3.67157 14.001 3 14.6725 3 15.501V19.501C3 20.3294 3.67157 21.001 4.5 21.001H6.17C6.99843 21.001 7.67 20.3294 7.67 19.501V15.501C7.67 14.6725 6.99843 14.001 6.17 14.001H4.5Z" fill="black"/>
</svg>
