<svg width="24" height="24" viewBox="0 0 24 24" fill="none" xmlns="http://www.w3.org/2000/svg">
<path d="M13 2C13 1.44772 12.5523 1 12 1C11.4477 1 11 1.44772 11 2V4.56609C11.3271 4.5225 11.6609 4.5 12 4.5C12.3391 4.5 12.6729 4.5225 13 4.56609V2Z" fill="black"/>
<path d="M2 11H4.56609C4.5225 11.3271 4.5 11.6609 4.5 12C4.5 12.3391 4.5225 12.6729 4.56609 13H2C1.44772 13 1 12.5523 1 12C1 11.4477 1.44772 11 2 11Z" fill="black"/>
<path d="M11 19.4342V22C11 22.5523 11.4477 23 12 23C12.5523 23 13 22.5523 13 22V19.4339C12.6729 19.4775 12.3391 19.5 12 19.5C11.6611 19.5 11.327 19.4778 11 19.4342L11.0003 16.0003C11.0003 15.448 11.448 15.0003 12.0003 15.0003C12.5526 15.0003 13.0003 15.448 13.0003 16.0003L13 19.4339C16.3422 18.9886 18.9889 16.3425 19.4342 13.0003H16.0003C15.448 13.0003 15.0003 12.5526 15.0003 12.0003C15.0003 11.448 15.448 11.0003 16.0003 11.0003H19.434C19.4775 11.3274 19.5 11.6611 19.5 12C19.5 12.3391 19.4778 12.6732 19.4342 13.0003L22 13C22.5523 13 23 12.5523 23 12C23 11.4477 22.5523 11 22 11L19.434 11.0003C18.9885 7.65825 16.3421 5.01138 13 4.56609L13.0003 8.00032C13.0003 8.55261 12.5526 9.00032 12.0003 9.00032C11.448 9.00032 11.0003 8.55261 11.0003 8.00032L11 4.56609C7.65778 5.01139 5.01139 7.65778 4.56609 11L8.00032 11.0003C8.55261 11.0003 9.00032 11.448 9.00032 12.0003C9.00032 12.5526 8.55261 13.0003 8.00032 13.0003L4.56609 13C5.01138 16.3421 7.65793 18.9888 11 19.4342Z" fill="black"/>
</svg>
