<svg width="24" height="24" viewBox="0 0 24 24" fill="none" xmlns="http://www.w3.org/2000/svg">
<path d="M11 3L18.4319 3C18.6843 2.99997 18.9301 2.99994 19.1382 3.01695C19.3668 3.03563 19.6366 3.07969 19.908 3.21799C20.2843 3.40974 20.5903 3.7157 20.782 4.09202C20.9203 4.36345 20.9644 4.63318 20.9831 4.86178C21.0001 5.06989 21 5.31573 21 5.56806V18.432C21 18.6844 21.0001 18.9301 20.9831 19.1382C20.9644 19.3668 20.9203 19.6366 20.782 19.908C20.5903 20.2843 20.2843 20.5903 19.908 20.782C19.6366 20.9203 19.3668 20.9644 19.1382 20.9831C18.9301 21.0001 18.6843 21 18.432 21H5.56797C5.31565 21 5.06989 21.0001 4.86178 20.9831C4.63318 20.9644 4.36345 20.9203 4.09202 20.782C3.7157 20.5903 3.40974 20.2843 3.21799 19.908C3.07969 19.6366 3.03563 19.3668 3.01695 19.1382C2.99994 18.9301 2.99997 18.6843 3 18.4319L3 11H9V21H11V11H21V9H11V3Z" fill="black"/>
<path d="M3 9H9V3L5.56811 3C5.31573 2.99997 5.06993 2.99994 4.86178 3.01695C4.63318 3.03563 4.36345 3.07969 4.09202 3.21799C3.7157 3.40974 3.40974 3.7157 3.21799 4.09202C3.07969 4.36345 3.03563 4.63318 3.01695 4.86178C2.99994 5.06993 2.99997 5.31572 3 5.56809L3 9Z" fill="black"/>
</svg>
