<svg width="24" height="24" viewBox="0 0 24 24" fill="none" xmlns="http://www.w3.org/2000/svg">
<path d="M19 18.5403V4.6C19 4.03995 19 3.75992 18.891 3.54601C18.7951 3.35785 18.6422 3.20487 18.454 3.10899C18.2401 3 17.9601 3 17.4 3H6.6C6.03995 3 5.75992 3 5.54601 3.10899C5.35785 3.20487 5.20487 3.35785 5.10899 3.54601C5 3.75992 5 4.03995 5 4.6V18.5403C5 19.9122 5 20.5981 5.25871 20.8838C5.48271 21.1312 5.81537 21.2506 6.14555 21.202C6.5269 21.1459 6.96296 20.6164 7.83509 19.5574L10.7649 15.9997C11.1885 15.4854 11.4003 15.2282 11.6545 15.1346C11.8775 15.0525 12.1225 15.0525 12.3455 15.1346C12.5997 15.2282 12.8115 15.4854 13.2351 15.9997L16.1649 19.5574C17.037 20.6164 17.4731 21.1459 17.8544 21.202C18.1846 21.2506 18.5173 21.1312 18.7413 20.8838C19 20.5981 19 19.9122 19 18.5403Z" stroke="black" stroke-width="2" stroke-linecap="round" stroke-linejoin="round"/>
</svg>
