<svg width="24" height="24" viewBox="0 0 24 24" fill="none" xmlns="http://www.w3.org/2000/svg">
<path d="M15 9H9V15H15V9Z" fill="black"/>
<path fill-rule="evenodd" clip-rule="evenodd" d="M6 2C6.55228 2 7 2.44772 7 3V5H17C18.1046 5 19 5.89543 19 7V17H21C21.5523 17 22 17.4477 22 18C22 18.5523 21.5523 19 21 19H19V21C19 21.5523 18.5523 22 18 22C17.4477 22 17 21.5523 17 21V19H7C5.89543 19 5 18.1046 5 17V7H3C2.44772 7 2 6.55228 2 6C2 5.44772 2.44772 5 3 5H5V3C5 2.44772 5.44772 2 6 2ZM7 17V7H17V17H7Z" fill="black"/>
</svg>
