<svg width="24" height="24" viewBox="0 0 24 24" fill="none" xmlns="http://www.w3.org/2000/svg">
<path d="M4 5.6C4 5.03995 4 4.75992 4.10899 4.54601C4.20487 4.35785 4.35785 4.20487 4.54601 4.10899C4.75992 4 5.03995 4 5.6 4H10V8H4V5.6Z" stroke="black" stroke-width="2" stroke-linecap="round" stroke-linejoin="round"/>
<path d="M14 16H20V18.4C20 18.9601 20 19.2401 19.891 19.454C19.7951 19.6422 19.6422 19.7951 19.454 19.891C19.2401 20 18.9601 20 18.4 20H14V16Z" stroke="black" stroke-width="2" stroke-linecap="round" stroke-linejoin="round"/>
<path d="M4 12H10V20H5.6C5.03995 20 4.75992 20 4.54601 19.891C4.35785 19.7951 4.20487 19.6422 4.10899 19.454C4 19.2401 4 18.9601 4 18.4V12Z" stroke="black" stroke-width="2" stroke-linecap="round" stroke-linejoin="round"/>
<path d="M14 4H18.4C18.9601 4 19.2401 4 19.454 4.10899C19.6422 4.20487 19.7951 4.35785 19.891 4.54601C20 4.75992 20 5.03995 20 5.6V12H14V4Z" stroke="black" stroke-width="2" stroke-linecap="round" stroke-linejoin="round"/>
</svg>
