<svg width="24" height="24" viewBox="0 0 24 24" fill="none" xmlns="http://www.w3.org/2000/svg">
<path fill-rule="evenodd" clip-rule="evenodd" d="M10.2768 2.95862C11.0501 1.644 12.9513 1.644 13.7246 2.95862L21.9762 16.9863C22.7604 18.3196 21.7991 20.0003 20.2523 20.0003H3.74913C2.2023 20.0003 1.24099 18.3196 2.02526 16.9863L10.2768 2.95862ZM12 9.00024C12.5523 9.00024 13 9.44796 13 10.0002V12.0002C13 12.5525 12.5523 13.0002 12 13.0002C11.4477 13.0002 11 12.5525 11 12.0002V10.0002C11 9.44796 11.4477 9.00024 12 9.00024ZM10.75 15.0002C10.75 14.3099 11.3096 13.7502 12 13.7502C12.6904 13.7502 13.25 14.3099 13.25 15.0002C13.25 15.6906 12.6904 16.2502 12 16.2502C11.3096 16.2502 10.75 15.6906 10.75 15.0002Z" fill="black"/>
</svg>
