<svg width="24" height="24" viewBox="0 0 24 24" fill="none" xmlns="http://www.w3.org/2000/svg">
<path d="M6.40323 19.0481C6.58717 18.6051 6.75637 18.1545 6.91024 17.6969M14.3413 20.6926C14.6075 19.9418 14.8436 19.1768 15.0483 18.399C15.2339 17.6934 15.3936 16.9772 15.5264 16.2516M19.4458 17.0583C19.8102 15.0944 20.0007 13.0694 20.0007 11C20.0007 6.58172 16.4189 3 12.0007 3C10.7452 3 9.55736 3.28918 8.5 3.80456M3.52148 15.0245C3.83468 13.7343 4.00067 12.3865 4.00067 11C4.00067 9.25969 4.55637 7.64917 5.5 6.33621M12.0011 11C12.0011 13.7604 11.5537 16.4163 10.7275 18.8992C10.5149 19.5381 10.2772 20.1655 10.0156 20.7803M7.71032 14.5C7.90127 13.3618 8.00067 12.1925 8.00067 11C8.00067 8.79086 9.79153 7 12.0007 7C14.2098 7 16.0007 8.79086 16.0007 11C16.0007 11.6166 15.9814 12.2287 15.9435 12.8357" stroke="black" stroke-width="2" stroke-linecap="round" stroke-linejoin="round"/>
</svg>
