<svg width="24" height="24" viewBox="0 0 24 24" fill="none" xmlns="http://www.w3.org/2000/svg">
<path d="M11.772 2.14309C11.8635 1.9523 12.1365 1.9523 12.228 2.14309L14.9103 7.73469C14.9471 7.81148 15.0205 7.86451 15.1053 7.87563L21.2801 8.68532C21.4908 8.71295 21.5751 8.97123 21.421 9.11677L16.9039 13.3823C16.8419 13.4408 16.8138 13.5266 16.8294 13.6103L17.9634 19.7023C18.0021 19.9102 17.7813 20.0698 17.5945 19.969L12.1205 17.0136C12.0454 16.973 11.9546 16.973 11.8795 17.0136L6.40552 19.969C6.21875 20.0698 5.99788 19.9102 6.03658 19.7023L7.17058 13.6103C7.18615 13.5266 7.15812 13.4408 7.0961 13.3823L2.579 9.11677C2.42487 8.97123 2.50924 8.71295 2.71992 8.68532L8.89474 7.87563C8.97953 7.86451 9.05291 7.81148 9.08974 7.73469L11.772 2.14309Z" stroke="black" stroke-width="2" stroke-linecap="round" stroke-linejoin="round"/>
</svg>
