<svg width="24" height="24" viewBox="0 0 24 24" fill="none" xmlns="http://www.w3.org/2000/svg">
<path fill-rule="evenodd" clip-rule="evenodd" d="M12 6.41422L15.2929 9.70712C15.6834 10.0976 16.3166 10.0976 16.7071 9.70712C17.0976 9.31659 17.0976 8.68343 16.7071 8.2929L13.2374 4.82323C12.554 4.13982 11.446 4.13981 10.7626 4.82323L7.29289 8.2929C6.90237 8.68343 6.90237 9.31659 7.29289 9.70712C7.68342 10.0976 8.31658 10.0976 8.70711 9.70712L12 6.41422ZM7.29289 14.2929C7.68342 13.9024 8.31658 13.9024 8.70711 14.2929L12 17.5858L15.2929 14.2929C15.6834 13.9024 16.3166 13.9024 16.7071 14.2929C17.0976 14.6834 17.0976 15.3166 16.7071 15.7071L13.2374 19.1768C12.554 19.8602 11.446 19.8602 10.7626 19.1768L7.29289 15.7071C6.90237 15.3166 6.90237 14.6834 7.29289 14.2929Z" fill="black"/>
</svg>
