<svg width="24" height="24" viewBox="0 0 24 24" fill="none" xmlns="http://www.w3.org/2000/svg">
<path fill-rule="evenodd" clip-rule="evenodd" d="M17.2929 3.29289C17.6834 2.90237 18.3166 2.90237 18.7071 3.29289L21.7071 6.29289C22.0976 6.68342 22.0976 7.31658 21.7071 7.70711L18.7071 10.7071C18.3166 11.0976 17.6834 11.0976 17.2929 10.7071C16.9024 10.3166 16.9024 9.68342 17.2929 9.29289L18.5858 8H16.4142L6 18.4142C5.62493 18.7893 5.11622 19 4.58579 19H3C2.44772 19 2 18.5523 2 18C2 17.4477 2.44772 17 3 17H4.58579L15 6.58579C15.3751 6.21071 15.8838 6 16.4142 6H18.5858L17.2929 4.70711C16.9024 4.31658 16.9024 3.68342 17.2929 3.29289ZM2 6C2 5.44772 2.44772 5 3 5H4.58579C5.11622 5 5.62493 5.21071 6 5.58579L8.70711 8.29289C9.09763 8.68342 9.09763 9.31658 8.70711 9.70711C8.31658 10.0976 7.68342 10.0976 7.29289 9.70711L4.58579 7H3C2.44772 7 2 6.55228 2 6ZM17.2929 13.2929C17.6834 12.9024 18.3166 12.9024 18.7071 13.2929L21.7071 16.2929C22.0976 16.6834 22.0976 17.3166 21.7071 17.7071L18.7071 20.7071C18.3166 21.0976 17.6834 21.0976 17.2929 20.7071C16.9024 20.3166 16.9024 19.6834 17.2929 19.2929L18.5858 18H16.4142C15.8838 18 15.3751 17.7893 15 17.4142L13.2929 15.7071C12.9024 15.3166 12.9024 14.6834 13.2929 14.2929C13.6834 13.9024 14.3166 13.9024 14.7071 14.2929L16.4142 16H18.5858L17.2929 14.7071C16.9024 14.3166 16.9024 13.6834 17.2929 13.2929Z" fill="black"/>
</svg>
