<svg width="24" height="24" viewBox="0 0 24 24" fill="none" xmlns="http://www.w3.org/2000/svg">
<path d="M19.2739 10.1298C19.5823 8.07368 18.01 6.967 15.8692 6.22317L16.5646 3.4353L14.8653 3.01198L14.188 5.72728C13.7405 5.61842 13.2809 5.50957 12.8273 5.40676L13.5107 2.67332L11.8114 2.25L11.1159 5.03787C10.747 4.95321 10.3842 4.87459 10.0274 4.78388L10.0334 4.77782L7.687 4.19123L7.23949 6.00546C7.23949 6.00546 8.49736 6.29574 8.47317 6.31388C9.15653 6.48321 9.28352 6.93677 9.25933 7.29961L8.46712 10.4806C8.5155 10.4927 8.57597 10.5108 8.64854 10.535L8.46712 10.4927L7.35439 14.9436C7.26973 15.1552 7.05807 15.4697 6.58032 15.3488C6.59241 15.3729 5.34059 15.0403 5.34059 15.0403L4.5 16.9816L6.71336 17.5379C7.12459 17.6407 7.52372 17.7435 7.92285 17.8463L7.2153 20.6705L8.91463 21.0938L9.61009 18.2999C10.0757 18.4269 10.5232 18.5418 10.9647 18.6507L10.2693 21.4325L11.9686 21.8558L12.6701 19.0377C15.5668 19.588 17.7499 19.3643 18.6631 16.7457C19.4009 14.6352 18.6268 13.4196 17.1029 12.6274C18.2156 12.3674 19.0501 11.6417 19.2739 10.1298ZM15.3914 15.5725C14.8653 17.6831 11.3155 16.5461 10.1604 16.2559L11.0978 12.5186C12.2468 12.8028 15.9357 13.3712 15.3914 15.5725ZM15.9176 10.0996C15.4398 12.0227 12.4826 11.043 11.5211 10.8071L12.3677 7.41451C13.3293 7.65641 16.4135 8.09787 15.9176 10.0996Z" fill="black"/>
</svg>
