<svg width="24" height="24" viewBox="0 0 24 24" fill="none" xmlns="http://www.w3.org/2000/svg">
<path d="M2 11.5C2 10.2787 2.87572 9.26198 4.03348 9.04345C4.41506 5.04041 8.00841 2 12.25 2C16.4916 2 20.0849 5.04041 20.4665 9.04345C21.6243 9.26198 22.5 10.2787 22.5 11.5V15C22.5 16.1467 21.728 17.113 20.6755 17.4077C20.2428 20.0133 17.9784 22 15.25 22H13.5C12.1193 22 11 20.8807 11 19.5V19C11 18.4477 11.4477 18 12 18C12.5523 18 13 18.4477 13 19V19.5C13 19.7761 13.2239 20 13.5 20H15.25C16.8355 20 18.1748 18.9457 18.6051 17.5H18.5C17.9477 17.5 17.5 17.0523 17.5 16.5V10C17.5 9.46556 17.9193 9.02904 18.4468 9.00139C18.0505 6.22822 15.4838 4 12.25 4C9.01617 4 6.44949 6.22822 6.05318 9.00139C6.58074 9.02903 7 9.46556 7 10V16.5C7 17.0523 6.55228 17.5 6 17.5H4.5C3.11929 17.5 2 16.3807 2 15V11.5Z" fill="black"/>
</svg>
