<?xml version="1.0" encoding="UTF-8" standalone="no"?>
<svg
   version="1.0"
   width="18pt"
   height="18.199053pt"
   viewBox="0 0 18 18.199053"
   preserveAspectRatio="xMidYMid"
   id="svg1"
   sodipodi:docname="nostr-hashtag.svg"
   inkscape:version="1.3-dev (77bc73e, 2022-05-18)"
   xmlns:inkscape="http://www.inkscape.org/namespaces/inkscape"
   xmlns:sodipodi="http://sodipodi.sourceforge.net/DTD/sodipodi-0.dtd"
   xmlns="http://www.w3.org/2000/svg"
   xmlns:svg="http://www.w3.org/2000/svg">
  <defs
     id="defs1" />
  <sodipodi:namedview
     id="namedview1"
     pagecolor="#ffffff"
     bordercolor="#000000"
     borderopacity="0.25"
     inkscape:showpageshadow="2"
     inkscape:pageopacity="0.0"
     inkscape:pagecheckerboard="0"
     inkscape:deskcolor="#d1d1d1"
     inkscape:document-units="pt"
     showgrid="false"
     inkscape:zoom="5.4017383"
     inkscape:cx="50.354161"
     inkscape:cy="-13.514168"
     inkscape:window-width="1497"
     inkscape:window-height="866"
     inkscape:window-x="1747"
     inkscape:window-y="96"
     inkscape:window-maximized="0"
     inkscape:current-layer="svg1" />
  <metadata
     id="metadata1">
Created by potrace 1.15, written by Peter Selinger 2001-2017
</metadata>
  <g
     transform="matrix(0.00138509,0,0,-0.00138509,0.3,17.927982)"
     fill="#000000"
     stroke="none"
     id="g1">
    <path
       d="m 11315,12756 c -49,-23 -135,-71 -190,-106 -128,-81 -170,-100 -222,-100 -37,0 -43,-3 -43,-22 0,-11 12,-36 26,-55 l 26,-34 -20,-37 c -128,-248 -171,-359 -212,-547 -56,-262 -43,-645 36,-1045 48,-244 104,-451 234,-865 158,-503 280,-942 320,-1145 27,-140 60,-448 60,-559 0,-164 -39,-366 -92,-478 -57,-123 -176,-222 -286,-239 -49,-8 -50,-23 -5,-38 18,-6 34,-14 38,-18 13,-13 -25,-66 -97,-134 -121,-115 -267,-174 -432,-174 -200,0 -327,87 -732,507 -233,240 -541,529 -604,567 -31,18 -32,18 -27,0 3,-11 9,-36 13,-56 8,-49 -5,-49 -65,1 -75,62 -168,118 -250,150 -134,51 -214,63 -481,70 l -245,6 -65,41 c -100,63 -125,68 -295,66 -186,-3 -262,7 -484,64 -279,71 -341,67 -780,-61 -334,-97 -442,-118 -761,-150 -200,-19 -365,-19 -496,1 -58,9 -107,14 -111,11 -3,-4 6,-22 21,-41 l 27,-35 -23,-5 c -13,-3 -61,-8 -106,-11 -113,-9 -157,-26 -219,-87 -50,-49 -54,-51 -140,-64 -60,-10 -108,-25 -153,-48 -304,-157 -331,-166 -471,-166 -48,0 -120,7 -160,15 -40,9 -74,13 -78,10 -3,-3 0,-20 7,-37 6,-18 10,-34 7,-36 -2,-3 -24,0 -47,7 -24,6 -103,16 -176,23 -163,15 -350,1 -521,-40 l -114,-26 51,-23 c 53,-23 76,-50 66,-77 -3,-8 -51,-38 -105,-66 -251,-129 -515,-384 -727,-703 -110,-166 -208,-325 -217,-355 -6,-21 -5,-22 34,-16 36,6 41,4 41,-12 0,-11 -15,-45 -34,-76 -46,-75 -76,-161 -127,-359 -78,-307 -137,-444 -243,-569 -38,-44 -51,-67 -43,-72 7,-4 40,-8 75,-8 37,0 62,-4 62,-11 0,-6 -12,-26 -27,-45 -32,-43 -24,-53 48,-60 108,-11 103,-6 95,-82 -4,-37 -11,-128 -15,-202 -5,-74 -16,-164 -26,-200 -22,-85 -75,-190 -136,-269 -27,-35 -49,-67 -49,-72 0,-4 17,-11 38,-14 20,-3 49,-8 64,-10 64,-10 285,31 408,76 101,37 249,117 348,188 54,38 110,75 126,80 15,6 70,11 123,11 267,0 582,98 766,239 34,26 72,53 83,59 25,13 31,8 58,-46 21,-40 38,-32 57,26 30,93 97,200 141,223 25,14 38,3 98,-86 27,-38 73,-95 104,-125 31,-30 56,-63 56,-75 0,-11 -20,-60 -45,-110 -42,-84 -81,-202 -70,-213 3,-3 27,16 54,41 50,47 81,59 81,34 0,-8 -10,-49 -21,-93 -26,-97 -32,-275 -10,-313 l 14,-25 36,41 c 42,48 118,88 251,131 102,33 185,47 345,57 55,4 159,13 230,21 292,34 285,35 368,-56 66,-72 122,-115 170,-130 20,-6 37,-15 37,-19 0,-12 -22,-35 -75,-77 -27,-21 -151,-133 -275,-248 -424,-394 -462,-415 -864,-486 -65,-12 -145,-29 -177,-39 -191,-60 -348,-213 -554,-541 -103,-165 -162,-241 -292,-383 -176,-190 -332,-333 -778,-711 -497,-422 -750,-737 -895,-1113 -64,-165 -104,-203 -216,-203 -38,0 -94,7 -124,15 -74,20 -244,20 -301,0 -27,-10 -61,-33 -87,-62 -41,-45 -43,-46 -89,-39 -25,3 -67,18 -92,33 C 457,781 369,812 175,813 49,814 0,786 0,713 0,669 31,628 122,557 204,491 254,434 469,153 527,77 549,57 597,33 652,7 662,5 780,6 c 69,0 150,6 180,14 30,7 132,32 225,56 281,72 308,76 511,84 181,6 195,8 247,34 76,37 137,107 231,267 230,392 287,481 394,626 219,293 469,581 756,869 284,284 368,342 641,439 164,59 295,123 410,199 101,68 257,219 295,286 14,24 56,76 93,116 100,106 177,142 437,203 165,40 229,62 390,133 191,85 220,94 460,143 118,24 239,49 267,56 29,7 56,10 59,6 4,-3 15,-50 26,-104 14,-73 21,-159 25,-331 6,-265 -3,-385 -47,-605 -50,-247 -105,-393 -222,-592 -59,-98 -74,-167 -58,-256 23,-126 61,-177 174,-232 95,-47 169,-52 357,-28 125,16 244,22 505,26 667,12 1011,-35 1799,-241 277,-73 308,-86 376,-161 72,-79 113,-170 175,-388 19,-66 42,-130 50,-143 42,-63 155,-112 261,-112 109,0 124,57 54,206 -48,102 -53,149 -17,165 31,15 73,-5 102,-48 12,-18 45,-87 75,-153 57,-132 106,-197 173,-233 35,-18 56,-21 136,-20 73,2 110,-3 159,-19 89,-29 333,-32 403,-5 114,44 140,145 60,231 -23,24 -112,72 -272,143 -71,32 -199,124 -250,179 -71,78 -111,140 -224,343 -132,236 -172,297 -262,391 -58,61 -94,89 -148,115 -113,56 -85,53 -866,85 -223,9 -616,36 -656,45 -11,2 -86,12 -165,20 -179,20 -595,95 -712,130 -145,42 -319,139 -371,208 -32,42 -53,102 -67,187 -22,144 48,316 261,640 125,190 193,317 230,428 31,95 60,282 60,392 0,76 4,102 16,114 20,20 25,18 192,-102 73,-52 168,-114 210,-137 83,-47 132,-82 132,-95 0,-4 -14,-17 -32,-28 l -32,-21 29,-11 c 108,-41 305,-52 707,-39 186,6 345,9 353,5 8,-3 15,-15 15,-27 0,-20 3,-21 54,-15 110,13 266,81 426,187 89,58 99,63 170,69 161,14 229,78 523,495 88,124 143,185 169,185 2,0 2,-27 0,-60 -2,-33 0,-60 5,-60 23,0 140,145 212,263 117,192 165,317 271,712 106,394 111,410 135,410 15,0 22,-10 29,-40 13,-53 12,-52 42,-24 40,36 103,133 154,234 25,50 50,90 55,90 6,0 11,-17 13,-37 2,-21 7,-38 12,-38 19,0 93,101 139,190 29,56 87,206 140,363 50,147 114,318 142,380 132,288 199,526 246,867 25,190 25,756 0,975 -23,195 -53,379 -78,485 -46,194 -152,515 -233,706 -130,306 -218,564 -260,764 -48,228 -48,572 1,770 31,128 82,204 166,246 64,33 118,83 187,174 120,158 184,199 503,321 250,96 347,153 347,204 0,41 -42,57 -174,68 -112,9 -385,70 -439,99 -10,5 -27,29 -37,54 -23,53 -99,137 -159,176 -56,35 -72,36 -40,1 24,-26 23,-26 -13,3 -21,16 -42,41 -47,56 -9,26 -14,28 -60,28 -50,0 -101,16 -101,32 0,4 -42,8 -92,7 -88,0 -98,-3 -183,-43 z m 550,-126 c 10,-11 16,-20 13,-20 -3,0 -13,9 -23,20 -10,11 -16,20 -13,20 3,0 13,-9 23,-20 z"
       id="path1"
       style="fill:#cc43c5;fill-opacity:1" />
  </g>
</svg>
