<svg width="16" height="16" viewBox="0 0 16 16" fill="none" xmlns="http://www.w3.org/2000/svg">
<path d="M12.8324 1.29357C12.7855 1.31559 12.7032 1.36154 12.6505 1.39505C12.528 1.47259 12.4878 1.49078 12.438 1.49078C12.4026 1.49078 12.3969 1.49366 12.3969 1.51184C12.3969 1.52238 12.4083 1.54631 12.4217 1.5645L12.4466 1.59705L12.4275 1.63247C12.3049 1.86989 12.2638 1.97616 12.2245 2.15614C12.1709 2.40697 12.1834 2.77364 12.259 3.15658C12.3049 3.39017 12.3586 3.58834 12.483 3.98469C12.6343 4.46624 12.7511 4.88651 12.7894 5.08086C12.8152 5.21488 12.8468 5.50975 12.8468 5.61602C12.8468 5.77302 12.8095 5.96641 12.7587 6.07363C12.7042 6.19138 12.5902 6.28616 12.4849 6.30244C12.438 6.3101 12.4371 6.32446 12.4801 6.33882C12.4974 6.34456 12.5127 6.35222 12.5165 6.35605C12.529 6.36849 12.4926 6.41923 12.4237 6.48433C12.3078 6.59443 12.168 6.65091 12.0101 6.65091C11.8186 6.65091 11.697 6.56762 11.3093 6.16554C11.0862 5.93577 10.7914 5.6591 10.7311 5.62272C10.7014 5.60548 10.7004 5.60548 10.7052 5.62272C10.7081 5.63325 10.7138 5.65718 10.7177 5.67633C10.7253 5.72324 10.7129 5.72324 10.6554 5.67537C10.5836 5.61602 10.4946 5.5624 10.4161 5.53177C10.2878 5.48294 10.2112 5.47146 9.9556 5.46475L9.72105 5.45901L9.65882 5.41976C9.56309 5.35944 9.53915 5.35466 9.3764 5.35657C9.19833 5.35944 9.12558 5.34987 8.91304 5.2953C8.64594 5.22733 8.58659 5.23116 8.16631 5.3537C7.84655 5.44656 7.74316 5.46667 7.43776 5.4973C7.24629 5.51549 7.08833 5.51549 6.96292 5.49635C6.90739 5.48773 6.86048 5.48294 6.85665 5.48582C6.85378 5.48965 6.86239 5.50688 6.87675 5.52507L6.9026 5.55857L6.88058 5.56336C6.86814 5.56623 6.82219 5.57102 6.7791 5.57389C6.67092 5.58251 6.6288 5.59878 6.56944 5.65718C6.52158 5.70409 6.51775 5.70601 6.43541 5.71845C6.37797 5.72803 6.33202 5.74239 6.28894 5.76441C5.9979 5.91471 5.97206 5.92333 5.83803 5.92333C5.79207 5.92333 5.72314 5.91662 5.68485 5.90897C5.64656 5.90035 5.61401 5.89652 5.61018 5.89939C5.60731 5.90226 5.61018 5.91854 5.61688 5.93481C5.62262 5.95205 5.62645 5.96736 5.62358 5.96928C5.62167 5.97215 5.6006 5.96928 5.57858 5.96258C5.55561 5.95683 5.47998 5.94726 5.41009 5.94056C5.25404 5.9262 5.07502 5.9396 4.91131 5.97885L4.80217 6.00374L4.851 6.02576C4.90174 6.04778 4.92376 6.07363 4.91418 6.09948C4.91131 6.10714 4.86536 6.13586 4.81366 6.16266C4.57336 6.28616 4.32062 6.53029 4.11766 6.83568C4.01236 6.9946 3.91853 7.14682 3.90992 7.17554C3.90417 7.19565 3.90513 7.1966 3.94247 7.19086C3.97693 7.18512 3.98172 7.18703 3.98172 7.20235C3.98172 7.21288 3.96736 7.24543 3.94917 7.27511C3.90513 7.34691 3.87641 7.42924 3.82759 7.6188C3.75291 7.9127 3.69643 8.04386 3.59495 8.16353C3.55857 8.20565 3.54612 8.22767 3.55378 8.23246C3.56048 8.23629 3.59208 8.24012 3.62558 8.24012C3.66101 8.24012 3.68494 8.24395 3.68494 8.25065C3.68494 8.25639 3.67345 8.27554 3.65909 8.29373C3.62846 8.3349 3.63612 8.34447 3.70505 8.35117C3.80844 8.3617 3.80365 8.35692 3.79599 8.42967C3.79216 8.4651 3.78546 8.55222 3.78163 8.62306C3.77685 8.6939 3.76632 8.78007 3.75674 8.81453C3.73568 8.89591 3.68494 8.99643 3.62654 9.07206C3.60069 9.10557 3.57963 9.1362 3.57963 9.14099C3.57963 9.14482 3.59591 9.15152 3.61601 9.15439C3.63516 9.15726 3.66292 9.16205 3.67728 9.16396C3.73855 9.17354 3.95013 9.13429 4.06788 9.09121C4.16457 9.05578 4.30626 8.9792 4.40104 8.91122C4.45274 8.87484 4.50635 8.83942 4.52167 8.83463C4.53603 8.82889 4.58868 8.8241 4.63942 8.8241C4.89503 8.8241 5.1966 8.73028 5.37275 8.5953C5.4053 8.57041 5.44168 8.54456 5.45221 8.53881C5.47615 8.52637 5.48189 8.53115 5.50774 8.58285C5.52784 8.62115 5.54412 8.61349 5.56231 8.55796C5.59103 8.46893 5.65517 8.36649 5.6973 8.34447C5.72123 8.33107 5.73368 8.3416 5.79112 8.4268C5.81697 8.46318 5.861 8.51775 5.89068 8.54647C5.92036 8.57519 5.94429 8.60678 5.94429 8.61827C5.94429 8.6288 5.92515 8.67571 5.90121 8.72358C5.861 8.804 5.82367 8.91697 5.8342 8.9275C5.83707 8.93037 5.86005 8.91218 5.88589 8.88825C5.93376 8.84325 5.96344 8.83176 5.96344 8.8557C5.96344 8.86336 5.95387 8.90261 5.94334 8.94473C5.91844 9.03759 5.9127 9.208 5.93376 9.24438L5.94717 9.26832L5.98163 9.22906C6.02184 9.18311 6.0946 9.14482 6.22193 9.10365C6.31958 9.07206 6.39904 9.05866 6.55221 9.04908C6.60487 9.04525 6.70443 9.03664 6.7724 9.02898C7.05195 8.99643 7.04525 8.99547 7.12471 9.08259C7.18789 9.15152 7.24151 9.19268 7.28746 9.20705C7.30661 9.21279 7.32288 9.22141 7.32288 9.22523C7.32288 9.23672 7.30182 9.25874 7.25108 9.29895C7.22523 9.31906 7.10652 9.42628 6.98781 9.53637C6.58189 9.91357 6.54551 9.93368 6.16066 10.0016C6.09843 10.0131 6.02184 10.0294 5.9912 10.039C5.80835 10.0964 5.65804 10.2429 5.46083 10.5569C5.36222 10.7149 5.30574 10.7876 5.18128 10.9236C5.01279 11.1055 4.86344 11.2424 4.43646 11.6043C3.96066 12.0083 3.71845 12.3098 3.57963 12.6698C3.51836 12.8278 3.48007 12.8641 3.37284 12.8641C3.33646 12.8641 3.28285 12.8574 3.25413 12.8498C3.18329 12.8306 3.02054 12.8306 2.96597 12.8498C2.94012 12.8593 2.90757 12.8814 2.88268 12.9091C2.84343 12.9522 2.84151 12.9532 2.79747 12.9465C2.77354 12.9436 2.73333 12.9292 2.7094 12.9149C2.43751 12.7579 2.35326 12.7282 2.16754 12.7272C2.04691 12.7263 2 12.7531 2 12.823C2 12.8651 2.02968 12.9043 2.1168 12.9723C2.1953 13.0355 2.24317 13.0901 2.449 13.3591C2.50452 13.4318 2.52559 13.451 2.57154 13.474C2.62419 13.4989 2.63377 13.5008 2.74674 13.4998C2.81279 13.4998 2.89034 13.4941 2.91906 13.4864C2.94778 13.4797 3.04543 13.4558 3.13446 13.4328C3.40348 13.3639 3.42933 13.36 3.62367 13.3524C3.79695 13.3466 3.81035 13.3447 3.86014 13.3198C3.9329 13.2844 3.99129 13.2174 4.08128 13.0642C4.30148 12.6889 4.35605 12.6037 4.45848 12.4649C4.66814 12.1844 4.90748 11.9087 5.18224 11.633C5.45413 11.3611 5.53455 11.3056 5.7959 11.2127C5.95291 11.1562 6.07832 11.0949 6.18842 11.0222C6.28511 10.9571 6.43446 10.8125 6.47084 10.7484C6.48424 10.7254 6.52445 10.6756 6.55987 10.6373C6.65561 10.5359 6.72932 10.5014 6.97823 10.443C7.1362 10.4047 7.19747 10.3836 7.3516 10.3157C7.53446 10.2343 7.56222 10.2257 7.79198 10.1788C7.90495 10.1558 8.02079 10.1318 8.0476 10.1251C8.07536 10.1184 8.10121 10.1156 8.10408 10.1194C8.10791 10.1223 8.11844 10.1673 8.12897 10.219C8.14237 10.2889 8.14908 10.3712 8.15291 10.5359C8.15865 10.7895 8.15003 10.9044 8.10791 11.115C8.06004 11.3515 8.00739 11.4913 7.89538 11.6818C7.83889 11.7756 7.82453 11.8417 7.83985 11.9269C7.86187 12.0475 7.89825 12.0963 8.00643 12.149C8.09738 12.194 8.16822 12.1988 8.34821 12.1758C8.46788 12.1605 8.5818 12.1547 8.83167 12.1509C9.47022 12.1394 9.79955 12.1844 10.5539 12.3816C10.8191 12.4515 10.8488 12.464 10.9139 12.5358C10.9828 12.6114 11.0221 12.6985 11.0814 12.9072C11.0996 12.9704 11.1217 13.0317 11.1293 13.0441C11.1695 13.1044 11.2777 13.1513 11.3792 13.1513C11.4835 13.1513 11.4979 13.0968 11.4309 12.9541C11.3849 12.8565 11.3801 12.8115 11.4146 12.7962C11.4443 12.7818 11.4845 12.8009 11.5123 12.8421C11.5237 12.8593 11.5553 12.9254 11.5841 12.9886C11.6386 13.115 11.6855 13.1772 11.7497 13.2117C11.7832 13.2289 11.8033 13.2318 11.8799 13.2308C11.9498 13.2289 11.9852 13.2337 12.0321 13.249C12.1173 13.2768 12.3509 13.2796 12.4179 13.2538C12.5271 13.2117 12.5519 13.115 12.4754 13.0326C12.4533 13.0096 12.3681 12.9637 12.215 12.8957C12.147 12.8651 12.0244 12.777 11.9756 12.7244C11.9076 12.6497 11.8693 12.5903 11.7612 12.396C11.6348 12.1701 11.5965 12.1117 11.5103 12.0217C11.4548 11.9633 11.4204 11.9365 11.3687 11.9116C11.2605 11.858 11.2873 11.8608 10.5396 11.8302C10.3261 11.8216 9.94986 11.7957 9.91156 11.7871C9.90103 11.7852 9.82923 11.7756 9.7536 11.768C9.58223 11.7488 9.18397 11.677 9.07196 11.6435C8.93315 11.6033 8.76657 11.5104 8.71679 11.4444C8.68615 11.4042 8.66605 11.3467 8.65264 11.2654C8.63158 11.1275 8.6986 10.9628 8.90251 10.6526C9.02218 10.4708 9.08728 10.3492 9.1227 10.2429C9.15238 10.152 9.18015 9.97293 9.18015 9.86762C9.18015 9.79486 9.18397 9.76997 9.19546 9.75848C9.21461 9.73933 9.2194 9.74125 9.37927 9.85613C9.44916 9.90591 9.54011 9.96527 9.58032 9.98729C9.65978 10.0323 9.70669 10.0658 9.70669 10.0782C9.70669 10.0821 9.69329 10.0945 9.67605 10.105L9.64542 10.1251L9.67318 10.1357C9.77658 10.1749 9.96517 10.1855 10.35 10.173C10.5281 10.1673 10.6803 10.1644 10.688 10.1682C10.6956 10.1711 10.7023 10.1826 10.7023 10.1941C10.7023 10.2132 10.7052 10.2142 10.754 10.2084C10.8593 10.196 11.0087 10.1309 11.1619 10.0294C11.2471 9.97388 11.2566 9.9691 11.3246 9.96335C11.4787 9.94995 11.5438 9.88868 11.8253 9.48946C11.9096 9.37075 11.9622 9.31235 11.9871 9.31235C11.989 9.31235 11.989 9.3382 11.9871 9.36979C11.9852 9.40139 11.9871 9.42724 11.9919 9.42724C12.0139 9.42724 12.1259 9.28842 12.1948 9.17545C12.3069 8.99164 12.3528 8.87197 12.4543 8.49382C12.5558 8.11662 12.5606 8.1013 12.5835 8.1013C12.5979 8.1013 12.6046 8.11088 12.6113 8.1396C12.6237 8.19034 12.6228 8.18938 12.6515 8.16257C12.6898 8.12811 12.7501 8.03525 12.7989 7.93855C12.8229 7.89069 12.8468 7.85239 12.8516 7.85239C12.8573 7.85239 12.8621 7.86867 12.864 7.88781C12.866 7.90792 12.8707 7.92419 12.8755 7.92419C12.8937 7.92419 12.9646 7.8275 13.0086 7.7423C13.0364 7.68868 13.0919 7.54508 13.1426 7.39478C13.1905 7.25405 13.2518 7.09034 13.2786 7.03098C13.4049 6.75527 13.4691 6.52742 13.5141 6.20096C13.538 6.01906 13.538 5.4772 13.5141 5.26754C13.4921 5.08086 13.4633 4.9047 13.4394 4.80322C13.3954 4.6175 13.2939 4.31019 13.2163 4.12733C13.0919 3.83438 13.0076 3.58739 12.9674 3.39592C12.9215 3.17764 12.9215 2.84831 12.9684 2.65875C12.9981 2.53621 13.0469 2.46345 13.1273 2.42324C13.1886 2.39165 13.2403 2.34378 13.3063 2.25667C13.4212 2.1054 13.4825 2.06615 13.7879 1.94936C14.0272 1.85745 14.1201 1.80288 14.1201 1.75406C14.1201 1.7148 14.0799 1.69949 13.9535 1.68896C13.8463 1.68034 13.5849 1.62194 13.5332 1.59418C13.5237 1.58939 13.5074 1.56641 13.4978 1.54248C13.4758 1.49174 13.403 1.41132 13.3456 1.37399C13.292 1.34048 13.2767 1.33952 13.3073 1.37303C13.3303 1.39792 13.3293 1.39792 13.2948 1.37016C13.2747 1.35484 13.2546 1.3309 13.2499 1.31655C13.2412 1.29165 13.2364 1.28974 13.1924 1.28974C13.1445 1.28974 13.0957 1.27442 13.0957 1.2591C13.0957 1.25527 13.0555 1.25144 13.0076 1.2524C12.9234 1.2524 12.9138 1.25527 12.8324 1.29357ZM13.359 1.4142C13.3686 1.42473 13.3743 1.43334 13.3714 1.43334C13.3686 1.43334 13.359 1.42473 13.3494 1.4142C13.3398 1.40366 13.3341 1.39505 13.337 1.39505C13.3398 1.39505 13.3494 1.40366 13.359 1.4142Z" fill="#CC43C5"/>
</svg>
