<svg width="24" height="24" viewBox="0 0 24 24" fill="none" xmlns="http://www.w3.org/2000/svg">
<path fill-rule="evenodd" clip-rule="evenodd" d="M9 21C10.1046 21 11 20.1045 11 19L13 19C13 20.1045 13.8954 21 15 21H17C18.1046 21 19 20.1045 19 19V16.8893C19.3295 16.5526 19.6258 16.1829 19.8831 15.7853C20.2284 15.9237 20.6053 16 20.999 16C22.6558 16 23.999 14.6568 23.999 13C23.999 12.4552 23.8528 11.9415 23.597 11.4992C23.3205 11.0212 22.7087 10.8578 22.2307 11.1344C21.7526 11.4109 21.5892 12.0226 21.8658 12.5007C21.9503 12.6468 21.999 12.8162 21.999 13C21.999 13.5523 21.5512 14 20.999 14C20.9017 14 20.8082 13.9863 20.72 13.9608C20.9021 13.3393 21 12.6814 21 11.9999C21 8.13364 17.8663 4.99997 14 4.99997H10.0085C9.87889 4.83385 9.71111 4.64331 9.4999 4.44701C8.90931 3.8981 7.99073 3.31604 6.66148 3.09349C5.39073 2.88073 4.5 3.95333 4.5 4.99993V7.08349C3.98098 7.64368 3.60965 8.28645 3.32378 8.93497H3C1.89543 8.93497 1 9.83041 1 10.935V14C1 15.1045 1.89543 16 3 16H3.44811C3.88101 16.6315 4.37079 17.1191 5 17.5509V19C5 20.1045 5.89543 21 7 21H9ZM8.25 12C8.94036 12 9.5 11.4403 9.5 10.75C9.5 10.0596 8.94036 9.49997 8.25 9.49997C7.55964 9.49997 7 10.0596 7 10.75C7 11.4403 7.55964 12 8.25 12Z" fill="black"/>
</svg>
