<svg width="24" height="24" viewBox="0 0 24 24" fill="none" xmlns="http://www.w3.org/2000/svg">
<path d="M12.5965 2.13792C12.2081 2.01653 11.7919 2.01653 11.4035 2.13792L4.22802 4.38024C3.49744 4.60854 3 5.28515 3 6.05058V8.24918C3 9.21568 3.7835 9.99918 4.75 9.99918H5L5 17C5 17.5523 5.44772 18 6 18C6.55228 18 7 17.5523 7 17L7 9.99918H9L9 17C9 17.5523 9.44772 18 10 18C10.5523 18 11 17.5523 11 17L11 9.99918H13L13 17C13 17.5523 13.4477 18 14 18C14.5523 18 15 17.5523 15 17L15 9.99918H17L17 17C17 17.5523 17.4477 18 18 18C18.5523 18 19 17.5523 19 17L19 9.99918H19.25C20.2165 9.99918 21 9.21568 21 8.24918V6.05058C21 5.28515 20.5026 4.60854 19.772 4.38024L12.5965 2.13792Z" fill="black"/>
<path d="M3 20C3 19.4477 3.44772 19 4 19H20C20.5523 19 21 19.4477 21 20C21 20.5523 20.5523 21 20 21H4C3.44772 21 3 20.5523 3 20Z" fill="black"/>
</svg>
