<svg width="24" height="24" viewBox="0 0 24 24" fill="none" xmlns="http://www.w3.org/2000/svg">
<path fill-rule="evenodd" clip-rule="evenodd" d="M5.56811 3C5.57873 3 5.58936 3.00001 5.60001 3.00001L18.4319 3C18.6843 2.99997 18.9301 2.99994 19.1382 3.01695C19.3668 3.03563 19.6366 3.0797 19.908 3.21799C20.2843 3.40974 20.5903 3.7157 20.782 4.09203C20.9203 4.36345 20.9644 4.63318 20.9831 4.86178C21.0001 5.06993 21 5.31571 21 5.56809L21 13C21 13.5523 20.5523 14 20 14C19.4477 14 19 13.5523 19 13V5.60001C19 5.30348 18.9992 5.14122 18.9897 5.02464C18.9893 5.02 18.9889 5.0156 18.9886 5.01145C18.9844 5.01107 18.98 5.01069 18.9754 5.01031C18.8588 5.00078 18.6965 5.00001 18.4 5.00001H5.60001C5.30348 5.00001 5.14122 5.00078 5.02464 5.01031C5.02 5.01069 5.0156 5.01107 5.01145 5.01145C5.01107 5.0156 5.01069 5.02 5.01031 5.02464C5.00078 5.14122 5.00001 5.30348 5.00001 5.60001V18.4C5.00001 18.6965 5.00078 18.8588 5.01031 18.9754C5.01069 18.98 5.01107 18.9844 5.01145 18.9886C5.0156 18.9889 5.02 18.9893 5.02464 18.9897C5.14122 18.9992 5.30348 19 5.60001 19H13C13.5523 19 14 19.4477 14 20C14 20.5523 13.5523 21 13 21L5.56809 21C5.31571 21 5.06993 21.0001 4.86178 20.9831C4.63318 20.9644 4.36345 20.9203 4.09202 20.782C3.7157 20.5903 3.40974 20.2843 3.21799 19.908C3.07969 19.6366 3.03563 19.3668 3.01695 19.1382C2.99994 18.9301 2.99997 18.6843 3 18.4319L3.00001 5.60001C3.00001 5.58936 3 5.57873 3 5.56811C2.99997 5.31573 2.99994 5.06993 3.01695 4.86177C3.03563 4.63318 3.0797 4.36345 3.21799 4.09203M3.21799 4.09203C3.40974 3.7157 3.7157 3.40974 4.09202 3.21799C4.36345 3.0797 4.63318 3.03563 4.86178 3.01695C5.06993 2.99994 5.31573 2.99997 5.56811 3M9.2929 9.2929C9.48044 9.10536 9.73479 9.00001 10 9.00001L15 9.00001C15.5523 9.00001 16 9.44772 16 10C16 10.5523 15.5523 11 15 11L12.4142 11L18.7071 17.2929C19.0976 17.6834 19.0976 18.3166 18.7071 18.7071C18.3166 19.0976 17.6834 19.0976 17.2929 18.7071L11 12.4142V15C11 15.5523 10.5523 16 10 16C9.44772 16 9.00001 15.5523 9.00001 15V10C9.00001 9.73479 9.10536 9.48044 9.2929 9.2929Z" fill="black"/>
</svg>
