<svg width="24" height="24" viewBox="0 0 24 24" fill="none" xmlns="http://www.w3.org/2000/svg">
<path fill-rule="evenodd" clip-rule="evenodd" d="M3 4C3.55228 4 4 4.44772 4 5V19C4 19.5523 3.55228 20 3 20C2.44772 20 2 19.5523 2 19V5C2 4.44772 2.44772 4 3 4ZM9 8C9.55228 8 10 8.44772 10 9V19C10 19.5523 9.55228 20 9 20C8.44772 20 8 19.5523 8 19V9C8 8.44772 8.44772 8 9 8ZM15 12C15.5523 12 16 12.4477 16 13V19C16 19.5523 15.5523 20 15 20C14.4477 20 14 19.5523 14 19V13C14 12.4477 14.4477 12 15 12ZM21 16C21.5523 16 22 16.4477 22 17V19C22 19.5523 21.5523 20 21 20C20.4477 20 20 19.5523 20 19V17C20 16.4477 20.4477 16 21 16Z" fill="black"/>
</svg>
