<svg width="24" height="24" viewBox="0 0 24 24" fill="none" xmlns="http://www.w3.org/2000/svg">
<path fill-rule="evenodd" clip-rule="evenodd" d="M4 4C4 2.89543 4.89543 2 6 2H18C19.1046 2 20 2.89543 20 4V10.6736C19.0907 10.2417 18.0736 10 17 10C13.134 10 10 13.134 10 17C10 18.9587 10.8045 20.7295 12.101 22H6C4.89543 22 4 21.1046 4 20V4ZM7 6C7 5.44772 7.44772 5 8 5H14C14.5523 5 15 5.44772 15 6C15 6.55228 14.5523 7 14 7H8C7.44772 7 7 6.55228 7 6ZM7 10C7 9.44772 7.44772 9 8 9H10C10.5523 9 11 9.44772 11 10C11 10.5523 10.5523 11 10 11H8C7.44772 11 7 10.5523 7 10Z" fill="black"/>
<path fill-rule="evenodd" clip-rule="evenodd" d="M17 12C14.2386 12 12 14.2386 12 17C12 19.7614 14.2386 22 17 22C18.3804 22 19.6318 21.4393 20.5355 20.5355C21.4393 19.6318 22 18.3804 22 17C22 14.2386 19.7614 12 17 12ZM14 17C14 15.6938 14.8348 14.5825 16 14.1707V17C16 17.2652 16.1054 17.5196 16.2929 17.7071L18.2936 19.7078C17.902 19.8953 17.4635 20 17 20C15.3431 20 14 18.6569 14 17ZM18 16.5858V14.1707C19.1652 14.5825 20 15.6938 20 17C20 17.4635 19.8953 17.902 19.7078 18.2936L18 16.5858Z" fill="black"/>
</svg>
