<svg width="24" height="24" viewBox="0 0 24 24" fill="none" xmlns="http://www.w3.org/2000/svg">
<path fill-rule="evenodd" clip-rule="evenodd" d="M10 4C8.89543 4 8 4.89543 8 6H5.53518C4.86648 6 4.24201 6.3342 3.87108 6.8906L2.3359 9.19338C2.11688 9.52191 2 9.90793 2 10.3028V15C2 16.1046 2.89543 17 4 17H4.03544C4.27806 18.6961 5.73676 20 7.5 20C9.26324 20 10.7219 18.6961 10.9646 17H13.0354C13.2781 18.6961 14.7368 20 16.5 20C18.2633 20 19.7221 18.696 19.9646 16.9997C19.9764 16.9999 19.9882 17 20 17C21.1046 17 22 16.1046 22 15V6C22 4.89543 21.1046 4 20 4H10ZM16.5 15C15.6716 15 15 15.6716 15 16.5C15 17.3284 15.6716 18 16.5 18C17.3284 18 18 17.3284 18 16.5C18 15.6716 17.3284 15 16.5 15ZM8 13.0354V8H5.53518L4 10.3028V15H4.33682C4.89855 13.8175 6.1038 13 7.5 13C7.66976 13 7.8367 13.0121 8 13.0354ZM6 16.5C6 15.6716 6.67157 15 7.5 15C8.32843 15 9 15.6716 9 16.5C9 17.3284 8.32843 18 7.5 18C6.67157 18 6 17.3284 6 16.5Z" fill="black"/>
</svg>
