<svg width="24" height="24" viewBox="0 0 24 24" fill="none" xmlns="http://www.w3.org/2000/svg">
<path fill-rule="evenodd" clip-rule="evenodd" d="M4 10C4 5.58172 7.58172 2 12 2C16.4183 2 20 5.58172 20 10C20 12.7337 18.6645 15.2398 17.2124 17.1725C15.748 19.1217 14.0748 20.6072 13.2077 21.3207C12.5014 21.9017 11.4986 21.9017 10.7923 21.3207C9.9252 20.6072 8.25198 19.1217 6.78758 17.1725C5.33555 15.2398 4 12.7337 4 10ZM11.9978 12.5C13.3785 12.5 14.4978 11.3807 14.4978 10C14.4978 8.61929 13.3785 7.5 11.9978 7.5C10.6171 7.5 9.4978 8.61929 9.4978 10C9.4978 11.3807 10.6171 12.5 11.9978 12.5Z" fill="black"/>
</svg>
