<?xml version="1.0" encoding="UTF-8"?>
<svg xmlns="http://www.w3.org/2000/svg" xmlns:xlink="http://www.w3.org/1999/xlink" width="20px" height="20px" viewBox="0 0 20 20" version="1.1">
<g id="surface1">
<path style=" stroke:none;fill-rule:nonzero;fill:rgb(96.862745%,57.647059%,10.196078%);fill-opacity:1;" d="M 19.699219 12.417969 C 18.363281 17.777344 12.9375 21.035156 7.582031 19.699219 C 2.226562 18.363281 -1.035156 12.9375 0.300781 7.582031 C 1.636719 2.222656 7.0625 -1.035156 12.417969 0.300781 C 17.773438 1.632812 21.035156 7.0625 19.699219 12.417969 Z M 19.699219 12.417969 "/>
<path style=" stroke:none;fill-rule:nonzero;fill:rgb(100%,100%,100%);fill-opacity:1;" d="M 14.410156 8.574219 C 14.609375 7.246094 13.59375 6.53125 12.210938 6.050781 L 12.660156 4.25 L 11.5625 3.976562 L 11.125 5.730469 C 10.835938 5.660156 10.539062 5.589844 10.246094 5.523438 L 10.6875 3.757812 L 9.589844 3.484375 L 9.140625 5.285156 C 8.902344 5.230469 8.667969 5.179688 8.4375 5.121094 L 8.441406 5.117188 L 6.925781 4.738281 L 6.636719 5.910156 C 6.636719 5.910156 7.449219 6.097656 7.433594 6.109375 C 7.875 6.21875 7.957031 6.511719 7.941406 6.746094 L 7.429688 8.800781 C 7.460938 8.808594 7.5 8.820312 7.546875 8.835938 L 7.429688 8.808594 L 6.710938 11.683594 C 6.65625 11.820312 6.519531 12.023438 6.210938 11.945312 C 6.21875 11.960938 5.410156 11.746094 5.410156 11.746094 L 4.867188 13 L 6.296875 13.359375 C 6.5625 13.425781 6.820312 13.492188 7.078125 13.558594 L 6.621094 15.382812 L 7.71875 15.65625 L 8.167969 13.851562 C 8.46875 13.933594 8.757812 14.007812 9.042969 14.078125 L 8.59375 15.875 L 9.691406 16.148438 L 10.144531 14.328125 C 12.015625 14.683594 13.425781 14.539062 14.015625 12.847656 C 14.492188 11.484375 13.992188 10.699219 13.007812 10.1875 C 13.726562 10.019531 14.265625 9.550781 14.410156 8.574219 Z M 11.902344 12.089844 C 11.5625 13.453125 9.269531 12.71875 8.523438 12.53125 L 9.128906 10.117188 C 9.871094 10.300781 12.253906 10.667969 11.902344 12.089844 Z M 12.242188 8.554688 C 11.933594 9.796875 10.023438 9.164062 9.402344 9.011719 L 9.949219 6.820312 C 10.570312 6.976562 12.5625 7.261719 12.242188 8.554688 Z M 12.242188 8.554688 "/>
</g>
</svg>
