<svg width="24" height="24" viewBox="0 0 24 24" fill="none" xmlns="http://www.w3.org/2000/svg">
<path fill-rule="evenodd" clip-rule="evenodd" d="M13.4142 20.4142C12.6332 21.1953 11.3669 21.1953 10.5858 20.4142L5.29289 15.1213C4.90237 14.7308 4.90237 14.0976 5.29289 13.7071C5.68342 13.3166 6.31658 13.3166 6.70711 13.7071L11 18L11 4.16421C11 3.61193 11.4477 3.16421 12 3.16421C12.5523 3.16421 13 3.61193 13 4.16421L13 18L17.2929 13.7071C17.6834 13.3166 18.3166 13.3166 18.7071 13.7071C19.0976 14.0976 19.0976 14.7308 18.7071 15.1213L13.4142 20.4142L12.7845 19.7844L13.4142 20.4142Z" fill="black"/>
</svg>
