<svg width="24" height="24" viewBox="0 0 24 24" fill="none" xmlns="http://www.w3.org/2000/svg">
<path fill-rule="evenodd" clip-rule="evenodd" d="M4 3C4 2.44772 4.44772 2 5 2H19C19.5523 2 20 2.44772 20 3C20 3.55228 19.5523 4 19 4H5C4.44772 4 4 3.55228 4 3ZM10.7626 6.57322C11.446 5.8898 12.554 5.88981 13.2375 6.57323L16.9571 10.2929C17.3476 10.6834 17.3476 11.3166 16.9571 11.7071C16.5666 12.0976 15.9334 12.0976 15.5429 11.7071L13 9.16422V21C13 21.5523 12.5523 22 12 22C11.4477 22 11 21.5523 11 21V9.16421L8.45711 11.7071C8.06658 12.0976 7.43342 12.0976 7.04289 11.7071C6.65237 11.3166 6.65237 10.6834 7.04289 10.2929L10.7626 6.57322Z" fill="black"/>
</svg>
