<svg width="24" height="24" viewBox="0 0 24 24" fill="none" xmlns="http://www.w3.org/2000/svg">
<path fill-rule="evenodd" clip-rule="evenodd" d="M8.37108 3.8906C8.74201 3.3342 9.36648 3 10.0352 3H13.9648C14.6335 3 15.258 3.3342 15.6289 3.8906L17.0352 6H20C21.1046 6 22 6.89543 22 8V19C22 20.1046 21.1046 21 20 21H4C2.89543 21 2 20.1046 2 19V8C2 6.89543 2.89543 6 4 6H6.96482L8.37108 3.8906ZM12 9C10.067 9 8.5 10.567 8.5 12.5C8.5 14.433 10.067 16 12 16C13.933 16 15.5 14.433 15.5 12.5C15.5 10.567 13.933 9 12 9Z" fill="black"/>
</svg>
