<svg width="24" height="24" viewBox="0 0 24 24" fill="none" xmlns="http://www.w3.org/2000/svg">
<path d="M12 19V20C12.5523 20 13 19.5523 13 19H12ZM20 10C20 10.5523 20.4477 11 21 11C21.5523 11 22 10.5523 22 10H20ZM17.7071 14.2929C17.3166 13.9024 16.6834 13.9024 16.2929 14.2929C15.9024 14.6834 15.9024 15.3166 16.2929 15.7071L17.7071 14.2929ZM20.2929 19.7071C20.6834 20.0976 21.3166 20.0976 21.7071 19.7071C22.0976 19.3166 22.0976 18.6834 21.7071 18.2929L20.2929 19.7071ZM16.2929 18.2929C15.9024 18.6834 15.9024 19.3166 16.2929 19.7071C16.6834 20.0976 17.3166 20.0976 17.7071 19.7071L16.2929 18.2929ZM21.7071 15.7071C22.0976 15.3166 22.0976 14.6834 21.7071 14.2929C21.3166 13.9024 20.6834 13.9024 20.2929 14.2929L21.7071 15.7071ZM4 18V6H2V18H4ZM12 18H4V20H12V18ZM20 6V10H22V6H20ZM4 6H12V4H4V6ZM12 6H20V4H12V6ZM13 19V5H11V19H13ZM16.2929 15.7071L18.2929 17.7071L19.7071 16.2929L17.7071 14.2929L16.2929 15.7071ZM18.2929 17.7071L20.2929 19.7071L21.7071 18.2929L19.7071 16.2929L18.2929 17.7071ZM17.7071 19.7071L19.7071 17.7071L18.2929 16.2929L16.2929 18.2929L17.7071 19.7071ZM19.7071 17.7071L21.7071 15.7071L20.2929 14.2929L18.2929 16.2929L19.7071 17.7071ZM22 6C22 4.89543 21.1046 4 20 4V6H22ZM4 6V6V4C2.89543 4 2 4.89543 2 6H4ZM2 18C2 19.1046 2.89543 20 4 20V18H4H2Z" fill="black"/>
</svg>
