<svg width="24" height="24" viewBox="0 0 24 24" fill="none" xmlns="http://www.w3.org/2000/svg">
<path d="M2.00401 6.11353C1.99997 6.25758 1.99998 6.41157 2 6.56809L2 17.4319C1.99997 17.6843 1.99994 17.9301 2.01695 18.1382C2.03563 18.3668 2.0797 18.6366 2.21799 18.908C2.40974 19.2843 2.7157 19.5903 3.09202 19.782C3.36345 19.9203 3.63318 19.9644 3.86178 19.9831C4.06994 20.0001 4.31574 20 4.56812 20H19.4319C19.6843 20 19.9301 20.0001 20.1382 19.9831C20.3668 19.9644 20.6366 19.9203 20.908 19.782C21.2843 19.5903 21.5903 19.2843 21.782 18.908C21.9203 18.6366 21.9644 18.3668 21.9831 18.1382C22.0001 17.9301 22 17.6844 22 17.4321V6.56809C22 6.4116 22 6.25757 21.996 6.11352L13.2665 13.2559C12.5297 13.8586 11.4703 13.8586 10.7335 13.2559L2.00401 6.11353Z" fill="black"/>
<path d="M21.0539 4.3002C21.0066 4.27086 20.9579 4.24342 20.908 4.21799C20.6366 4.07969 20.3668 4.03563 20.1382 4.01695C19.9301 3.99994 19.6843 3.99997 19.4319 4H4.56811C4.31573 3.99997 4.06993 3.99994 3.86178 4.01695C3.63318 4.03563 3.36345 4.07969 3.09202 4.21799C3.04211 4.24342 2.99344 4.27086 2.94611 4.30021L12 11.7079L21.0539 4.3002Z" fill="black"/>
</svg>
