<svg width="24" height="24" viewBox="0 0 24 24" fill="none" xmlns="http://www.w3.org/2000/svg">
<path d="M9.28787 16.8167C9.51778 17.0243 9.85483 17.0578 10.1227 16.9038C11.8035 15.9306 12.9285 14.0712 12.9285 11.9998C12.9285 9.9284 11.8057 8.06904 10.1227 7.09583C9.78117 6.89941 9.34367 7.01548 9.14725 7.35699C8.95082 7.69851 9.06689 8.136 9.4084 8.33243C10.6539 9.0534 11.4999 10.4462 11.4999 11.9998C11.4999 13.3703 10.8414 14.6158 9.83028 15.3859L6.26335 12.1828C5.96871 11.9194 5.51782 11.944 5.25443 12.2364C4.99104 12.5288 5.01559 12.9819 5.308 13.2453L9.28787 16.8167ZM5.14059 7.18289C4.91068 6.9753 4.57363 6.94182 4.30578 7.09583C2.62276 8.06904 1.5 9.9284 1.5 11.9998C1.5 14.0712 2.62276 15.9306 4.30578 16.9038C4.64729 17.1002 5.08479 16.9841 5.28121 16.6426C5.47764 16.3011 5.36157 15.8636 5.02005 15.6672C3.77453 14.9462 2.92856 13.5556 2.92856 11.9998C2.92856 10.6293 3.58703 9.38376 4.59818 8.61368L8.16511 11.8168C8.45975 12.0802 8.91064 12.0556 9.17403 11.7632C9.43742 11.4708 9.41287 11.0177 9.12046 10.7543L5.14059 7.18289Z" fill="black"/>
<path d="M18.6611 3.29748C19.0684 2.87729 19.7029 2.9049 20.0765 3.36339C23.9746 8.12351 23.9746 15.8766 20.0761 20.6367C19.8785 20.8784 19.6085 21 19.3386 21C19.0968 21 18.8508 20.9016 18.6611 20.703C18.2543 20.2825 18.2275 19.5705 18.6018 19.1135C21.8136 15.1901 21.8136 8.80995 18.6018 4.887C18.2275 4.42997 18.2543 3.7179 18.6611 3.29748Z" fill="black"/>
<path d="M15.2492 8.57679C14.8839 8.10992 14.9251 7.3993 15.3405 6.98915C15.7574 6.61884 16.3869 6.66571 16.7538 7.09007C18.8521 9.77599 18.8521 14.1424 16.7538 16.8259C16.5562 17.0794 16.2792 17.2083 16.0008 17.2083C15.7661 17.2083 15.5309 17.0738 15.3405 16.9285C14.9251 16.5183 14.884 15.8081 15.2492 15.3408C16.7071 13.4752 16.7071 10.4415 15.2492 8.57679Z" fill="black"/>
</svg>
