<svg width="24" height="24" viewBox="0 0 24 24" fill="none" xmlns="http://www.w3.org/2000/svg">
<path d="M11.0005 8C12.2147 8.91223 13 10.3644 13 12C13 12.6198 12.8872 13.2133 12.6811 13.761C12.3432 14.6588 11.7544 15.4336 11.0002 16.0002L7 13.3334M4.99951 16C3.78534 15.0878 3 13.6356 3 12C3 11.3803 3.11276 10.7868 3.31887 10.2392C3.65672 9.34143 4.24541 8.56657 4.99951 8L9 10.6668M19.1805 5.36401C20.3358 7.30653 20.9994 9.57572 20.9994 11.9999C20.9994 14.4241 20.3358 16.6933 19.1805 18.6358M15.9531 7.78446C16.621 9.04199 16.9994 10.4768 16.9994 11.9999C16.9994 13.523 16.621 14.9578 15.9531 16.2153" stroke="black" stroke-width="2" stroke-linecap="round" stroke-linejoin="round"/>
</svg>
