<svg width="24" height="24" viewBox="0 0 24 24" fill="none" xmlns="http://www.w3.org/2000/svg">
<path fill-rule="evenodd" clip-rule="evenodd" d="M11 3C6.58172 3 3 6.58172 3 11C3 15.4183 6.58172 19 11 19C12.8487 19 14.551 18.3729 15.9056 17.3199L19.2927 20.7069C19.6832 21.0974 20.3164 21.0974 20.7069 20.7069C21.0974 20.3164 21.0974 19.6832 20.7069 19.2927L17.3199 15.9056C18.3729 14.551 19 12.8487 19 11C19 6.58172 15.4183 3 11 3ZM15 11C15 11.5523 14.5523 12 14 12H8C7.44772 12 7 11.5523 7 11C7 10.4477 7.44772 10 8 10L14 10C14.5523 10 15 10.4477 15 11Z" fill="black"/>
</svg>
