<svg width="24" height="24" viewBox="0 0 24 24" fill="none" xmlns="http://www.w3.org/2000/svg">
<path fill-rule="evenodd" clip-rule="evenodd" d="M5 3C3.89543 3 3 3.89543 3 5V19C3 20.1046 3.89543 21 5 21H19C20.1046 21 21 20.1046 21 19V5C21 3.89543 20.1046 3 19 3H5ZM5 5H19V7H5V5ZM9.25 12C9.25 12.6904 8.69036 13.25 8 13.25C7.30964 13.25 6.75 12.6904 6.75 12C6.75 11.3096 7.30964 10.75 8 10.75C8.69036 10.75 9.25 11.3096 9.25 12ZM9.25 16C9.25 16.6904 8.69036 17.25 8 17.25C7.30964 17.25 6.75 16.6904 6.75 16C6.75 15.3096 7.30964 14.75 8 14.75C8.69036 14.75 9.25 15.3096 9.25 16ZM12 13.25C12.6904 13.25 13.25 12.6904 13.25 12C13.25 11.3096 12.6904 10.75 12 10.75C11.3096 10.75 10.75 11.3096 10.75 12C10.75 12.6904 11.3096 13.25 12 13.25ZM13.25 16C13.25 16.6904 12.6904 17.25 12 17.25C11.3096 17.25 10.75 16.6904 10.75 16C10.75 15.3096 11.3096 14.75 12 14.75C12.6904 14.75 13.25 15.3096 13.25 16ZM16 13.25C16.6904 13.25 17.25 12.6904 17.25 12C17.25 11.3096 16.6904 10.75 16 10.75C15.3096 10.75 14.75 11.3096 14.75 12C14.75 12.6904 15.3096 13.25 16 13.25Z" fill="black"/>
</svg>
