<svg width="24" height="24" viewBox="0 0 24 24" fill="none" xmlns="http://www.w3.org/2000/svg">
<path d="M12 9.99902C10.8948 9.99902 9.99878 10.895 9.99878 12.0003C9.99878 13.1055 10.8948 14.0015 12 14.0015C13.1053 14.0015 14.0013 13.1055 14.0013 12.0003C14.0013 10.895 13.1053 9.99902 12 9.99902Z" fill="black"/>
<path fill-rule="evenodd" clip-rule="evenodd" d="M9 2.99609C9 2.44381 8.55228 1.99609 8 1.99609C7.44772 1.99609 7 2.44381 7 2.99609V4H6C4.89543 4 4 4.89543 4 6V7H3C2.44772 7 2 7.44772 2 8C2 8.55228 2.44772 9 3 9H4V11H3C2.44772 11 2 11.4477 2 12C2 12.5523 2.44772 13 3 13H4V15H3C2.44772 15 2 15.4477 2 16C2 16.5523 2.44772 17 3 17H4V18C4 19.1046 4.89543 20 6 20H7V21C7 21.5523 7.44772 22 8 22C8.55228 22 9 21.5523 9 21V20H11V21C11 21.5523 11.4477 22 12 22C12.5523 22 13 21.5523 13 21V20H15V21C15 21.5523 15.4477 22 16 22C16.5523 22 17 21.5523 17 21V20H18C19.1046 20 20 19.1046 20 18V17H21C21.5523 17 22 16.5523 22 16C22 15.4477 21.5523 15 21 15H20V13H21C21.5523 13 22 12.5523 22 12C22 11.4477 21.5523 11 21 11H20V9H21C21.5523 9 22 8.55228 22 8C22 7.44772 21.5523 7 21 7H20V6C20 4.89543 19.1046 4 18 4H17V3C17 2.44772 16.5523 2 16 2C15.4477 2 15 2.44772 15 3V4H13V2.99609C13 2.44381 12.5523 1.99609 12 1.99609C11.4477 1.99609 11 2.44381 11 2.99609V4H9V2.99609ZM7.99878 12.0003C7.99878 9.79044 9.7902 7.99902 12 7.99902C14.2099 7.99902 16.0013 9.79044 16.0013 12.0003C16.0013 14.2101 14.2099 16.0015 12 16.0015C9.7902 16.0015 7.99878 14.2101 7.99878 12.0003Z" fill="black"/>
</svg>
