<svg width="24" height="24" viewBox="0 0 24 24" fill="none" xmlns="http://www.w3.org/2000/svg">
<path d="M4.54601 19.891L5 19L5 19L4.54601 19.891ZM4.10899 19.454L3.21799 19.908L3.21799 19.908L4.10899 19.454ZM19.891 19.454L19 19L19 19L19.891 19.454ZM19.454 19.891L19 19L19 19L19.454 19.891ZM19.891 4.54601L19 5L19 5L19.891 4.54601ZM19.454 4.10899L19.908 3.21799L19.908 3.21799L19.454 4.10899ZM4.10899 4.54601L3.21799 4.09202L3.21799 4.09202L4.10899 4.54601ZM4.54601 4.10899L4.09202 3.21799L4.09202 3.21799L4.54601 4.10899ZM19 5.6V18.4H21V5.6H19ZM18.4 19H5.6V21H18.4V19ZM5 18.4V5.6H3V18.4H5ZM5.6 5H18.4V3H5.6V5ZM5.6 19C5.30347 19 5.14122 18.9992 5.02463 18.9897C4.91972 18.9811 4.94249 18.9707 5 19L4.09202 20.782C4.36344 20.9203 4.63318 20.9644 4.86177 20.9831C5.07869 21.0008 5.33647 21 5.6 21V19ZM3 18.4C3 18.6635 2.99922 18.9213 3.01695 19.1382C3.03562 19.3668 3.07969 19.6366 3.21799 19.908L5 19C5.0293 19.0575 5.01887 19.0803 5.0103 18.9754C5.00078 18.8588 5 18.6965 5 18.4H3ZM5 19L5 19L3.21799 19.908C3.40973 20.2843 3.71569 20.5903 4.09202 20.782L5 19ZM19 18.4C19 18.6965 18.9992 18.8588 18.9897 18.9754C18.9811 19.0803 18.9707 19.0575 19 19L20.782 19.908C20.9203 19.6366 20.9644 19.3668 20.9831 19.1382C21.0008 18.9213 21 18.6635 21 18.4H19ZM18.4 21C18.6635 21 18.9213 21.0008 19.1382 20.9831C19.3668 20.9644 19.6366 20.9203 19.908 20.782L19 19C19.0575 18.9707 19.0803 18.9811 18.9754 18.9897C18.8588 18.9992 18.6965 19 18.4 19V21ZM19 19L19 19L19.908 20.782C20.2843 20.5903 20.5903 20.2843 20.782 19.908L19 19ZM21 5.6C21 5.33647 21.0008 5.07869 20.9831 4.86177C20.9644 4.63318 20.9203 4.36344 20.782 4.09202L19 5C18.9707 4.94249 18.9811 4.91972 18.9897 5.02463C18.9992 5.14122 19 5.30347 19 5.6H21ZM18.4 5C18.6965 5 18.8588 5.00078 18.9754 5.0103C19.0803 5.01887 19.0575 5.0293 19 5L19.908 3.21799C19.6366 3.07969 19.3668 3.03562 19.1382 3.01695C18.9213 2.99922 18.6635 3 18.4 3V5ZM20.782 4.09202C20.5903 3.71569 20.2843 3.40973 19.908 3.21799L19 5L19 5L20.782 4.09202ZM5 5.6C5 5.30347 5.00078 5.14122 5.0103 5.02463C5.01887 4.91972 5.0293 4.94249 5 5L3.21799 4.09202C3.07969 4.36344 3.03562 4.63318 3.01695 4.86177C2.99922 5.07869 3 5.33647 3 5.6H5ZM5.6 3C5.33647 3 5.07869 2.99922 4.86177 3.01695C4.63318 3.03562 4.36344 3.07969 4.09202 3.21799L5 5C4.94249 5.0293 4.91972 5.01887 5.02463 5.0103C5.14122 5.00078 5.30347 5 5.6 5V3ZM5 5L5 5L4.09202 3.21799C3.71569 3.40973 3.40973 3.71569 3.21799 4.09202L5 5ZM11 10V8.5H9V10H11ZM8.5 11H10V9H8.5V11ZM15 10V8.5H13V10H15ZM15.5 9H14V11H15.5V9ZM10 11H14V9H10V11ZM14 13H10V15H14V13ZM11 14V10H9V14H11ZM13 10V14H15V10H13ZM15 15.5V14H13V15.5H15ZM11 15.5V14H9V15.5H11ZM10 13H8.5V15H10V13ZM14 15H15.5V13H14V15ZM8 15.5C8 15.2239 8.22386 15 8.5 15V13C7.11929 13 6 14.1193 6 15.5H8ZM18 15.5C18 14.1193 16.8807 13 15.5 13V15C15.7761 15 16 15.2239 16 15.5H18ZM13 15.5C13 16.8807 14.1193 18 15.5 18V16C15.2239 16 15 15.7761 15 15.5H13ZM16 8.5C16 8.77614 15.7761 9 15.5 9V11C16.8807 11 18 9.88071 18 8.5H16ZM15 8.5C15 8.22386 15.2239 8 15.5 8V6C14.1193 6 13 7.11929 13 8.5H15ZM8.5 18C9.88071 18 11 16.8807 11 15.5H9C9 15.7761 8.77614 16 8.5 16V18ZM6 8.5C6 9.88071 7.11929 11 8.5 11V9C8.22386 9 8 8.77614 8 8.5H6ZM8.5 16C8.22386 16 8 15.7761 8 15.5H6C6 16.8807 7.11929 18 8.5 18V16ZM8.5 6C7.11929 6 6 7.11929 6 8.5H8C8 8.22386 8.22386 8 8.5 8V6ZM15.5 8C15.7761 8 16 8.22386 16 8.5H18C18 7.11929 16.8807 6 15.5 6V8ZM16 15.5C16 15.7761 15.7761 16 15.5 16V18C16.8807 18 18 16.8807 18 15.5H16ZM11 8.5C11 7.11929 9.88071 6 8.5 6V8C8.77614 8 9 8.22386 9 8.5H11Z" fill="black"/>
</svg>
