<svg width="24" height="24" viewBox="0 0 24 24" fill="none" xmlns="http://www.w3.org/2000/svg">
<path d="M12 3C15.0647 3 17.6899 3.79161 19.5674 5.35691C21.4668 6.94042 22.5 9.23347 22.5 12C22.5 14.7665 21.4668 17.0596 19.5674 18.6431C17.6899 20.2084 15.0647 21 12 21C10.3807 21 8.55744 20.8505 6.91575 20.1378C6.63664 20.2938 6.25233 20.4834 5.79596 20.6417C4.84475 20.9717 3.45903 21.2047 2.07192 20.5477C1.79975 20.4187 1.60018 20.174 1.52864 19.8815C1.45709 19.5889 1.5212 19.2797 1.70314 19.0398C2.39154 18.1318 2.60848 17.4277 2.66855 16.9774C2.72638 16.544 2.64543 16.2957 2.63604 16.2688L2.6367 16.2704C2.6367 16.2704 2.63611 16.2689 2.63523 16.2665L2.63604 16.2688C2.63604 16.2688 2.63499 16.2662 2.6341 16.2641L2.62642 16.2461L2.61364 16.2158C2.53706 16.0322 2.26608 15.3691 2.0126 14.578C1.76934 13.8187 1.50001 12.8165 1.50001 12C1.50001 9.23347 2.53317 6.94042 4.43258 5.35691C6.31015 3.79161 8.93532 3 12 3Z" fill="black"/>
</svg>
