<svg width="24" height="24" viewBox="0 0 24 24" fill="none" xmlns="http://www.w3.org/2000/svg">
<path fill-rule="evenodd" clip-rule="evenodd" d="M3 5C1.89543 5 1 5.89543 1 7V18C1 19.1046 1.89543 20 3 20H7.62426C8.10871 20 8.57669 19.8242 8.94127 19.5052L12 16.8288L15.0587 19.5052C15.4233 19.8242 15.8913 20 16.3757 20H21C22.1046 20 23 19.1046 23 18V7C23 5.89543 22.1046 5 21 5H3ZM7.5 9.25C6.25736 9.25 5.25 10.2574 5.25 11.5C5.25 12.7426 6.25736 13.75 7.5 13.75C8.74264 13.75 9.75 12.7426 9.75 11.5C9.75 10.2574 8.74264 9.25 7.5 9.25ZM14.25 11.5C14.25 10.2574 15.2574 9.25 16.5 9.25C17.7426 9.25 18.75 10.2574 18.75 11.5C18.75 12.7426 17.7426 13.75 16.5 13.75C15.2574 13.75 14.25 12.7426 14.25 11.5Z" fill="black"/>
</svg>
