<svg width="24" height="24" viewBox="0 0 24 24" fill="none" xmlns="http://www.w3.org/2000/svg">
<path d="M12 19V20C12.5523 20 13 19.5523 13 19H12ZM20 10C20 10.5523 20.4477 11 21 11C21.5523 11 22 10.5523 22 10H20ZM20 14C20 13.4477 19.5523 13 19 13C18.4477 13 18 13.4477 18 14H20ZM18 20C18 20.5523 18.4477 21 19 21C19.5523 21 20 20.5523 20 20H18ZM16 16C15.4477 16 15 16.4477 15 17C15 17.5523 15.4477 18 16 18V16ZM22 18C22.5523 18 23 17.5523 23 17C23 16.4477 22.5523 16 22 16V18ZM4 18V6H2V18H4ZM12 18H4V20H12V18ZM20 6V10H22V6H20ZM4 6H12V4H4V6ZM12 6H20V4H12V6ZM13 19V5H11V19H13ZM18 14V17H20V14H18ZM18 17V20H20V17H18ZM16 18H19V16H16V18ZM19 18H22V16H19V18ZM22 6C22 4.89543 21.1046 4 20 4V6H22ZM4 6V6V4C2.89543 4 2 4.89543 2 6H4ZM2 18C2 19.1046 2.89543 20 4 20V18H4H2Z" fill="black"/>
</svg>
