<svg width="24" height="24" viewBox="0 0 24 24" fill="none" xmlns="http://www.w3.org/2000/svg">
<path d="M9.5 2C5.91015 2 3 4.91015 3 8.5C3 12.0899 5.91015 15 9.5 15H16C18.7614 15 21 12.7614 21 10C21 7.23858 18.7614 5 16 5C15.7718 5 15.5467 5.01535 15.3257 5.04521C15.135 5.07095 14.9664 4.97984 14.8997 4.88045C13.7346 3.14533 11.7512 2 9.5 2Z" fill="black"/>
<path d="M7.39443 18.4472C7.64142 17.9532 7.44119 17.3526 6.94721 17.1056C6.45324 16.8586 5.85256 17.0588 5.60557 17.5528L4.60557 19.5528C4.35858 20.0468 4.55881 20.6474 5.05279 20.8944C5.54676 21.1414 6.14744 20.9412 6.39443 20.4472L7.39443 18.4472Z" fill="black"/>
<path d="M12.3944 18.4472C12.6414 17.9532 12.4412 17.3526 11.9472 17.1056C11.4532 16.8586 10.8526 17.0588 10.6056 17.5528L9.60557 19.5528C9.35858 20.0468 9.55881 20.6474 10.0528 20.8944C10.5468 21.1414 11.1474 20.9412 11.3944 20.4472L12.3944 18.4472Z" fill="black"/>
<path d="M17.3944 18.4472C17.6414 17.9532 17.4412 17.3526 16.9472 17.1056C16.4532 16.8586 15.8526 17.0588 15.6056 17.5528L14.6056 19.5528C14.3586 20.0468 14.5588 20.6474 15.0528 20.8944C15.5468 21.1414 16.1474 20.9412 16.3944 20.4472L17.3944 18.4472Z" fill="black"/>
</svg>
