<svg width="24" height="24" viewBox="0 0 24 24" fill="none" xmlns="http://www.w3.org/2000/svg">
<path d="M16 13L19.4867 9.51328C20.0463 8.95366 20.9537 8.95366 21.5133 9.51328C22.0624 10.0624 22.0751 10.9472 21.5356 11.5058C20.3076 12.7776 18.1474 14.984 16.5 16.5C15.68 17.2546 14.6797 18.1211 13.7119 18.9397C11.6608 20.6748 8.60853 20.3945 6.84902 18.3642L4.62441 15.7974C3.89568 14.9566 3.46825 13.8967 3.40977 12.7855L3 5H3.55038C4.73595 5 5.81031 5.6982 6.29182 6.78158L7.5 9.5L9 8M9 8L10.0002 6.99991C10.5524 6.44762 11.4479 6.44762 12.0002 6.99991C12.5524 7.55219 12.5524 8.44762 12.0002 8.99991L11.0002 9.99991C10.4479 10.5522 9.55244 10.5522 9.00015 9.99991C8.44787 9.44762 8.44772 8.55228 9 8ZM13.5002 11.4999L14.5002 10.4999C15.0524 9.94762 15.0524 9.05219 14.5002 8.49991C13.9479 7.94762 13.0524 7.94762 12.5002 8.49991L11.5002 9.49991C10.9479 10.0522 10.9479 10.9476 11.5002 11.4999C12.0524 12.0522 12.9479 12.0522 13.5002 11.4999ZM13.5002 11.4999L15.0002 9.99991C15.5524 9.44762 16.4479 9.44762 17.0002 9.99991C17.5524 10.5522 17.5524 11.4476 17.0002 11.9999L15.5002 13.4999C14.9479 14.0522 14.0524 14.0522 13.5002 13.4999C12.9479 12.9476 12.9479 12.0522 13.5002 11.4999Z" stroke="black" stroke-width="2" stroke-linecap="round" stroke-linejoin="round"/>
</svg>
