<svg width="24" height="24" viewBox="0 0 24 24" fill="none" xmlns="http://www.w3.org/2000/svg">
<path fill-rule="evenodd" clip-rule="evenodd" d="M4 4C4 2.89543 4.89543 2 6 2H18C19.1046 2 20 2.89543 20 4V9.34141C19.3744 9.12031 18.7013 9 18 9C14.6863 9 12 11.6863 12 15V18C12 19.5367 12.5777 20.9385 13.5278 22H6C4.89543 22 4 21.1046 4 20V4ZM7 6C7 5.44772 7.44772 5 8 5H14C14.5523 5 15 5.44772 15 6C15 6.55228 14.5523 7 14 7H8C7.44772 7 7 6.55228 7 6ZM7 10C7 9.44772 7.44772 9 8 9H10C10.5523 9 11 9.44772 11 10C11 10.5523 10.5523 11 10 11H8C7.44772 11 7 10.5523 7 10Z" fill="black"/>
<path d="M16 15C16 13.8954 16.8954 13 18 13C19.1046 13 20 13.8954 20 15C20 15.5523 20.4477 16 21 16C21.5523 16 22 15.5523 22 15C22 12.7909 20.2091 11 18 11C15.7909 11 14 12.7909 14 15C14 15.5523 14.4477 16 15 16C15.5523 16 16 15.5523 16 15Z" fill="black"/>
<path d="M19 16C19 15.4477 18.5523 15 18 15C17.4477 15 17 15.4477 17 16V17C17 17.5523 17.4477 18 18 18C18.5523 18 19 17.5523 19 17V16Z" fill="black"/>
<path d="M16 18C16 17.4477 15.5523 17 15 17C14.4477 17 14 17.4477 14 18C14 20.2091 15.7909 22 18 22C20.2091 22 22 20.2091 22 18C22 17.4477 21.5523 17 21 17C20.4477 17 20 17.4477 20 18C20 19.1046 19.1046 20 18 20C16.8954 20 16 19.1046 16 18Z" fill="black"/>
</svg>
