<svg width="24" height="24" viewBox="0 0 24 24" fill="none" xmlns="http://www.w3.org/2000/svg">
<path d="M8 8V5.6C8 5.03995 8 4.75992 8.10899 4.54601C8.20487 4.35785 8.35785 4.20487 8.54601 4.10899C8.75992 4 9.03995 4 9.6 4H18.4C18.9601 4 19.2401 4 19.454 4.10899C19.6422 4.20487 19.7951 4.35785 19.891 4.54601C20 4.75992 20 5.03995 20 5.6V14.4C20 14.9601 20 15.2401 19.891 15.454C19.7951 15.6422 19.6422 15.7951 19.454 15.891C19.2401 16 18.9601 16 18.4 16H16M16 9.6V18.4C16 18.9601 16 19.2401 15.891 19.454C15.7951 19.6422 15.6422 19.7951 15.454 19.891C15.2401 20 14.9601 20 14.4 20H5.6C5.03995 20 4.75992 20 4.54601 19.891C4.35785 19.7951 4.20487 19.6422 4.10899 19.454C4 19.2401 4 18.9601 4 18.4V9.6C4 9.03995 4 8.75992 4.10899 8.54601C4.20487 8.35785 4.35785 8.20487 4.54601 8.10899C4.75992 8 5.03995 8 5.6 8H14.4C14.9601 8 15.2401 8 15.454 8.10899C15.6422 8.20487 15.7951 8.35785 15.891 8.54601C16 8.75992 16 9.03995 16 9.6Z" stroke="black" stroke-width="2" stroke-linecap="round" stroke-linejoin="round"/>
</svg>
