<svg width="24" height="24" viewBox="0 0 24 24" fill="none" xmlns="http://www.w3.org/2000/svg">
<path fill-rule="evenodd" clip-rule="evenodd" d="M15 14.9125L12 17.4625V19.2338L15 17.4338V14.9125ZM10 17.4142L6.58579 14H4.76619C3.2116 14 2.25138 12.3041 3.0512 10.971L4.8512 7.97102C5.21265 7.36861 5.86366 7.00001 6.56619 7.00001H10.8147C13.3392 4.32985 16.2007 2.3689 19.9142 2.04654C21.0833 1.94505 22.055 2.91669 21.9535 4.08577C21.6311 7.79927 19.6702 10.6608 17 13.1853V17.4338C17 18.1363 16.6314 18.7874 16.029 19.1488L13.029 20.9488C11.6959 21.7486 10 20.7884 10 19.2338V17.4142ZM9.08756 9.00001H6.56619L4.76619 12H6.53756L9.08756 9.00001ZM2 19C2 17.3432 3.34315 16 5 16C6.65685 16 8 17.3432 8 19C8 20.6569 6.65685 22 5 22H4C2.89543 22 2 21.1046 2 20V19Z" fill="black"/>
</svg>
