<svg width="24" height="24" viewBox="0 0 24 24" fill="none" xmlns="http://www.w3.org/2000/svg">
<path d="M7.86926 9.29295C8.59136 10.7221 9.54939 12.0627 10.7433 13.2566C11.9373 14.4506 13.2778 15.4086 14.707 16.1307L16.4419 14.3959C16.6038 14.234 16.855 14.2027 17.0516 14.32L20.4486 16.3466C20.7284 16.5135 20.7764 16.8992 20.546 17.1295L17.0834 20.5921C16.831 20.8445 16.4626 20.9452 16.1206 20.8429C14.646 20.4015 13.2136 19.7804 11.858 18.9798C10.484 18.1683 9.18877 17.1723 8.00823 15.9917C6.82769 14.8112 5.83168 13.516 5.02019 12.142C4.21954 10.7864 3.59852 9.35403 3.15712 7.87938C3.05476 7.5374 3.15545 7.16899 3.40786 6.91658L6.87045 3.45398C7.10083 3.2236 7.48648 3.27157 7.6534 3.55138L9.67994 6.9484C9.79724 7.14503 9.766 7.39621 9.60409 7.55811L7.86926 9.29295Z" stroke="black" stroke-width="2" stroke-linecap="round" stroke-linejoin="round"/>
</svg>
