<svg width="24" height="24" viewBox="0 0 24 24" fill="none" xmlns="http://www.w3.org/2000/svg">
<path d="M22.7314 12C22.9016 12.2942 22.999 12.6358 22.999 13C22.999 14.1046 22.1035 15 20.999 15C20.5646 15 20.1625 14.8616 19.8346 14.6263M19.8346 14.6263C19.7385 14.5574 19.6487 14.4802 19.5664 14.3957L19.8346 14.6263ZM5.5 7.5V5C5.5 4.44772 5.95165 3.98864 6.49636 4.07983C8.7202 4.45217 9.474 6.00004 9.474 6.00004H14C17.314 6.00004 20 8.686 20 12C20 13.775 19.225 15.364 18 16.463V19C18 19.5523 17.5523 20 17 20H15C14.4477 20 14 19.5523 14 19V19C14 18.4478 13.5523 18 13 18H11C10.4477 18 10 18.4478 10 19V19C10 19.5523 9.55228 20 9 20H7C6.44772 20 6 19.5523 6 19V17C5.094 16.473 4.525 15.908 4 15H3C2.44772 15 2 14.5523 2 14V10.935C2 10.3828 2.44772 9.93505 3 9.93505H4C4.338 9.01005 4.782 8.148 5.5 7.5Z" stroke="black" stroke-width="2" stroke-linecap="round" stroke-linejoin="round"/>
<circle cx="8.25" cy="10.75" r="1.25" fill="black"/>
</svg>
