<svg width="24" height="24" viewBox="0 0 24 24" fill="none" xmlns="http://www.w3.org/2000/svg">
<path d="M3.99998 3C2.89541 3 1.99998 3.89543 1.99998 5V10.254C4.72965 8.34904 8.51394 8.61446 10.9497 11.0503C13.3855 13.486 13.6509 17.2703 11.746 20H20C21.1045 20 22 19.1046 22 18V8C22 6.89543 21.1045 6 20 6H12.5352L11.1289 3.8906C10.758 3.3342 10.1335 3 9.46479 3H3.99998Z" fill="black"/>
<path fill-rule="evenodd" clip-rule="evenodd" d="M2.4652 12.4645C0.512577 14.4171 0.512577 17.5829 2.4652 19.5355C4.41782 21.4882 7.58364 21.4882 9.53627 19.5355C11.4889 17.5829 11.4889 14.4171 9.53627 12.4645C7.58364 10.5118 4.41782 10.5118 2.4652 12.4645ZM3.87941 18.1213C2.95578 17.1977 2.76031 15.8216 3.29301 14.7065L7.29424 18.7077C6.17911 19.2404 4.80305 19.045 3.87941 18.1213ZM8.70845 17.2935L4.70723 13.2923C5.82235 12.7596 7.19842 12.955 8.12205 13.8787C9.04569 14.8023 9.24115 16.1784 8.70845 17.2935Z" fill="black"/>
</svg>
