<svg width="24" height="24" viewBox="0 0 24 24" fill="none" xmlns="http://www.w3.org/2000/svg">
<path d="M9 3C7.89543 3 7 3.89543 7 5C7 6.10457 7.89543 7 9 7C10.1046 7 11 6.10457 11 5C11 3.89543 10.1046 3 9 3Z" fill="black"/>
<path d="M15 3C13.8954 3 13 3.89543 13 5C13 6.10457 13.8954 7 15 7C16.1046 7 17 6.10457 17 5C17 3.89543 16.1046 3 15 3Z" fill="black"/>
<path d="M9 10C7.89543 10 7 10.8954 7 12C7 13.1046 7.89543 14 9 14C10.1046 14 11 13.1046 11 12C11 10.8954 10.1046 10 9 10Z" fill="black"/>
<path d="M15 10C13.8954 10 13 10.8954 13 12C13 13.1046 13.8954 14 15 14C16.1046 14 17 13.1046 17 12C17 10.8954 16.1046 10 15 10Z" fill="black"/>
<path d="M9 17C7.89543 17 7 17.8954 7 19C7 20.1046 7.89543 21 9 21C10.1046 21 11 20.1046 11 19C11 17.8954 10.1046 17 9 17Z" fill="black"/>
<path d="M15 17C13.8954 17 13 17.8954 13 19C13 20.1046 13.8954 21 15 21C16.1046 21 17 20.1046 17 19C17 17.8954 16.1046 17 15 17Z" fill="black"/>
</svg>
