<svg width="24" height="24" viewBox="0 0 24 24" fill="none" xmlns="http://www.w3.org/2000/svg">
<path d="M7 13H4.76619C3.9889 13 3.50878 12.152 3.9087 11.4855L5.7087 8.4855C5.88942 8.1843 6.21493 8 6.56619 8H11.25M7 13L11 17M7 13L11.25 8M11 17V19.2338C11 20.0111 11.848 20.4912 12.5145 20.0913L15.5145 18.2913C15.8157 18.1106 16 17.7851 16 17.4338V12.75M11 17L16 12.75M16 12.75C18.7449 10.2339 20.6526 7.50845 20.9572 3.99927C21.005 3.44906 20.5509 2.99502 20.0007 3.04278C16.4916 3.3474 13.7661 5.25513 11.25 8M5 21H4C3.44772 21 3 20.5523 3 20V19C3 17.8954 3.89543 17 5 17C6.10457 17 7 17.8954 7 19C7 20.1046 6.10457 21 5 21Z" stroke="black" stroke-width="2" stroke-linejoin="round"/>
</svg>
