<svg width="24" height="24" viewBox="0 0 24 24" fill="none" xmlns="http://www.w3.org/2000/svg">
<path d="M3.5 15.9999L5.625 13.4999M20.5 15.9999L16.3849 12.1268M17.1044 7.0072L19.0618 6.52638C19.4589 6.42883 19.7566 6.09935 19.8135 5.69442L19.9976 4.38433C20.0745 3.83742 19.6934 3.33175 19.1465 3.25489L16.1757 2.83737C15.6288 2.76051 15.1231 3.14156 15.0463 3.68847L14.8621 4.99856C14.8052 5.40348 15.0006 5.80226 15.3554 6.00548L17.1044 7.0072ZM17.1044 7.0072L16.3849 12.1268M5.77625 7.30013L5.36314 7.35819C4.78523 7.43941 4.39937 7.99619 4.52622 8.56583L5.625 13.4999M5.77625 7.30013L5.63708 6.30987C5.48335 5.21605 6.24545 4.20471 7.33927 4.05098C8.43309 3.89726 9.44442 4.65935 9.59815 5.75317L9.73732 6.74344M5.77625 7.30013L9.73732 6.74344M9.73732 6.74344L10.1533 6.68498C10.7302 6.60391 11.2539 7.03111 11.2905 7.61249L11.618 12.8201M5.625 13.4999L7.25451 11.5828C7.54695 11.2388 8.03368 11.1334 8.44224 11.3257L11.618 12.8201M11.618 12.8201L11.6845 12.8514C11.8888 12.9476 12.1196 12.9718 12.3394 12.92L16.0697 12.0423C16.1823 12.0158 16.3007 12.0476 16.3849 12.1268M3 15.9999H21V18.9999C21 19.5522 20.5523 19.9999 20 19.9999H4C3.44772 19.9999 3 19.5522 3 18.9999V15.9999Z" stroke="black" stroke-width="2" stroke-linecap="round" stroke-linejoin="round"/>
</svg>
