<svg width="24" height="24" viewBox="0 0 24 24" fill="none" xmlns="http://www.w3.org/2000/svg">
<path fill-rule="evenodd" clip-rule="evenodd" d="M9.99106 5.00974C9.69995 4.97414 9.38055 5.03063 9.02281 5.27399C8.43702 5.67248 8.16414 6.12887 8.05702 6.60528C7.94365 7.10947 7.99872 7.7211 8.22913 8.41658C8.59598 9.52393 9.35258 10.677 10.1764 11.6106C11.0572 10.802 11.9653 10.2288 12.8887 10.0068C12.8311 9.29829 12.7374 8.66808 12.6219 8.16532C12.3849 7.13361 11.7597 6.09174 11.0164 5.49401C10.6523 5.20123 10.3017 5.04773 9.99106 5.00974ZM14.9026 10.1207C14.8422 9.22591 14.7278 8.39956 14.5711 7.7175C14.2457 6.30116 13.4035 4.84716 12.2697 3.93541C11.6952 3.47346 11.0048 3.11881 10.2339 3.02453C9.44343 2.92786 8.6408 3.11496 7.89789 3.62034C6.91372 4.28983 6.3297 5.17047 6.10573 6.16655C5.88801 7.13485 6.02768 8.13118 6.3306 9.04554C6.82191 10.5286 7.79865 11.9673 8.80283 13.0745C8.74027 13.1501 8.67757 13.2269 8.61475 13.3051C8.18253 13.8429 7.78288 14.5802 7.48302 15.3502C7.40125 15.5601 7.32485 15.7778 7.25619 16H2C1.44772 16 1 16.4477 1 17C1 17.5523 1.44772 18 2 18H6.91139C6.90222 18.7553 7.06074 19.6155 7.66867 20.2468C8.37196 20.9772 9.3996 21.1288 10.5255 20.902C12.115 20.5818 13.1385 19.3866 13.7863 18H22C22.5523 18 23 17.5523 23 17C23 16.4477 22.5523 16 22 16H14.4694C14.738 14.8929 14.8809 13.7024 14.9308 12.5507C15.2606 12.9212 15.6035 13.4819 15.9383 14.3074C16.0559 14.5972 16.2752 15.0369 16.7223 15.2671C17.3181 15.5737 17.8567 15.3176 18.1322 15.1008C18.3848 14.9019 18.575 14.6319 18.7066 14.424C18.8454 14.2049 18.978 13.9579 19.0983 13.725C19.1156 13.8152 19.1386 13.9053 19.1688 13.9925C19.2493 14.225 19.4004 14.5014 19.6847 14.7123C19.9732 14.9263 20.3006 15 20.6004 15H22C22.5523 15 23 14.5523 23 14C23 13.4477 22.5523 13 22 13H21.0482C21.0486 12.9741 21.0492 12.9467 21.0499 12.9178C21.0505 12.8908 21.0513 12.8615 21.0522 12.8303C21.0593 12.5815 21.0699 12.2096 21.0152 11.8738C20.9508 11.478 20.7576 10.8852 20.1382 10.5539C19.5807 10.2557 19.0494 10.4417 18.7334 10.6657C18.4583 10.8606 18.2545 11.1342 18.1156 11.3439C17.8885 11.6866 17.6591 12.1407 17.4665 12.5218C17.4401 12.574 17.4145 12.6248 17.3896 12.6738C16.7704 11.4679 15.9595 10.5258 14.9026 10.1207ZM17.8412 13.6584C17.8411 13.6587 17.8384 13.6549 17.8333 13.6459C17.8388 13.6535 17.8413 13.658 17.8412 13.6584ZM12.9452 12.0947C12.5754 12.2576 12.142 12.5375 11.6432 12.9802C11.7014 13.0223 11.7578 13.0614 11.8123 13.0974C12.273 13.4021 12.3995 14.0225 12.0948 14.4832C11.7902 14.9438 11.1698 15.0703 10.7091 14.7657C10.5635 14.6693 10.4148 14.5623 10.2645 14.4459C10.2343 14.4828 10.204 14.5202 10.1737 14.558C9.91333 14.8819 9.61906 15.3964 9.37671 16H12.4005C12.7435 14.8193 12.9119 13.438 12.9452 12.0947ZM11.4815 18H8.91158C8.90061 18.5204 9.02072 18.7676 9.10932 18.8596C9.15544 18.9075 9.36575 19.0954 10.1306 18.9414C10.629 18.841 11.085 18.5315 11.4815 18ZM1.29289 10.2929C1.68342 9.90239 2.31658 9.90239 2.70711 10.2929L3.5 11.0858L4.29289 10.2929C4.68342 9.90239 5.31658 9.90239 5.70711 10.2929C6.09763 10.6834 6.09763 11.3166 5.70711 11.7071L4.91421 12.5L5.70711 13.2929C6.09763 13.6834 6.09763 14.3166 5.70711 14.7071C5.31658 15.0976 4.68342 15.0976 4.29289 14.7071L3.5 13.9142L2.70711 14.7071C2.31658 15.0976 1.68342 15.0976 1.29289 14.7071C0.902369 14.3166 0.902369 13.6834 1.29289 13.2929L2.08579 12.5L1.29289 11.7071C0.902369 11.3166 0.902369 10.6834 1.29289 10.2929Z" fill="black"/>
</svg>
