<svg width="24" height="24" viewBox="0 0 24 24" fill="none" xmlns="http://www.w3.org/2000/svg">
<path fill-rule="evenodd" clip-rule="evenodd" d="M2 5C2 3.89543 2.89543 3 4 3H9.46482C10.1335 3 10.758 3.3342 11.1289 3.8906L12.5352 6H20C21.1046 6 22 6.89543 22 8V18C22 19.1046 21.1046 20 20 20H9.82917C10.1839 18.9942 9.98621 17.8371 9.23618 17C10.2916 15.8221 10.2533 14.0106 9.12132 12.8787C7.98937 11.7467 6.17791 11.7084 5 12.7638C4.16288 12.0138 3.00578 11.8161 2 12.1708V5Z" fill="black"/>
<path fill-rule="evenodd" clip-rule="evenodd" d="M7.70711 14.2929C8.09763 14.6834 8.09763 15.3166 7.70711 15.7071L6.41421 17L7.70711 18.2929C8.09763 18.6834 8.09763 19.3166 7.70711 19.7071C7.31658 20.0976 6.68342 20.0976 6.29289 19.7071L5 18.4142L3.70711 19.7071C3.31658 20.0976 2.68342 20.0976 2.29289 19.7071C1.90237 19.3166 1.90237 18.6834 2.29289 18.2929L3.58579 17L2.29289 15.7071C1.90237 15.3166 1.90237 14.6834 2.29289 14.2929C2.68342 13.9024 3.31658 13.9024 3.70711 14.2929L5 15.5858L6.29289 14.2929C6.68342 13.9024 7.31658 13.9024 7.70711 14.2929Z" fill="black"/>
</svg>
