<svg width="24" height="24" viewBox="0 0 24 24" fill="none" xmlns="http://www.w3.org/2000/svg">
<path fill-rule="evenodd" clip-rule="evenodd" d="M21.7794 9.77043L20.0394 19.3604C19.8694 20.3104 19.0394 21.0004 18.0694 21.0004H5.73939C4.76939 21.0004 3.94939 20.3104 3.76939 19.3604L2.01939 9.77043C1.84939 8.85043 2.55939 8.00043 3.49939 8.00043H5.71939L7.46939 3.63043C7.67939 3.12043 8.25939 2.87043 8.76939 3.07043C9.27939 3.28043 9.52939 3.86043 9.32939 4.37043L7.87939 8.00043H15.9294L14.4794 4.37043C14.2694 3.86043 14.5194 3.28043 15.0394 3.07043C15.5494 2.86043 16.1294 3.11043 16.3394 3.63043L18.0894 8.00043H20.3094C21.2494 8.00043 21.9494 8.85043 21.7894 9.77043H21.7794Z" fill="black"/>
</svg>
