<svg width="24" height="24" viewBox="0 0 24 24" fill="none" xmlns="http://www.w3.org/2000/svg">
<path d="M17.8398 3.00098C17.0114 3.00098 16.3398 3.67255 16.3398 4.50098V19H14.3399V10.001C14.3399 9.17255 13.6683 8.50098 12.8399 8.50098H11.1699C10.3415 8.50098 9.66992 9.17255 9.66992 10.001V19H7.67V15.501C7.67 14.6725 6.99843 14.001 6.17 14.001H4.5C3.67157 14.001 3 14.6725 3 15.501V19H2C1.44772 19 1 19.4477 1 20C1 20.5523 1.44772 21 2 21H4.44536C4.4635 21.0006 4.48171 21.001 4.5 21.001H6.17C6.18829 21.001 6.2065 21.0006 6.22464 21H11.1153C11.1334 21.0006 11.1516 21.001 11.1699 21.001H12.8399C12.8582 21.001 12.8764 21.0006 12.8946 21H17.7852C17.8033 21.0006 17.8216 21.001 17.8398 21.001H19.5098C19.5281 21.001 19.5463 21.0006 19.5645 21H22C22.5523 21 23 20.5523 23 20C23 19.4477 22.5523 19 22 19H21.0098V4.50098C21.0098 3.67255 20.3383 3.00098 19.5098 3.00098H17.8398Z" fill="black"/>
</svg>
