<svg width="24" height="24" viewBox="0 0 24 24" fill="none" xmlns="http://www.w3.org/2000/svg">
<path d="M6.5 8C7.88071 8 9 6.88071 9 5.5C9 4.11929 7.88071 3 6.5 3C5.11929 3 4 4.11929 4 5.5C4 6.88071 5.11929 8 6.5 8ZM6.5 8V16M6.5 16C5.11929 16 4 17.1193 4 18.5C4 19.8807 5.11929 21 6.5 21C7.88071 21 9 19.8807 9 18.5C9 17.1193 7.88071 16 6.5 16ZM17.5 16C16.1193 16 15 17.1193 15 18.5C15 19.8807 16.1193 21 17.5 21C18.8807 21 20 19.8807 20 18.5C20 17.1193 18.8807 16 17.5 16ZM17.5 16V6.5C17.5 5.94772 17.0523 5.5 16.5 5.5H12M12 5.5L14.5 3M12 5.5L14.5 8" stroke="black" stroke-width="2" stroke-linecap="round" stroke-linejoin="round"/>
</svg>
