<svg width="24" height="24" viewBox="0 0 24 24" fill="none" xmlns="http://www.w3.org/2000/svg">
<path fill-rule="evenodd" clip-rule="evenodd" d="M3 5C3 3.89543 3.89543 3 5 3H13C14.1046 3 15 3.89543 15 5V9H17C18.1046 9 19 9.89543 19 11V16H20V8.41421L18.2929 6.70711C17.9024 6.31658 17.9024 5.68342 18.2929 5.29289C18.6834 4.90237 19.3166 4.90237 19.7071 5.29289L21.4142 7C21.7893 7.37507 22 7.88378 22 8.41421V16C22 17.1046 21.1046 18 20 18H19C17.8954 18 17 17.1046 17 16V11H15V19C15.5523 19 16 19.4477 16 20C16 20.5523 15.5523 21 15 21H3C2.44772 21 2 20.5523 2 20C2 19.4477 2.44772 19 3 19V5ZM6 10C6 9.44772 6.44772 9 7 9H11C11.5523 9 12 9.44772 12 10C12 10.5523 11.5523 11 11 11H7C6.44772 11 6 10.5523 6 10Z" fill="black"/>
</svg>
