<svg width="24" height="24" viewBox="0 0 24 24" fill="none" xmlns="http://www.w3.org/2000/svg">
<path fill-rule="evenodd" clip-rule="evenodd" d="M9.99618 2.86888C10.3581 2.32605 10.9673 2 11.6197 2H12.3803C13.0327 2 13.6419 2.32605 14.0038 2.86888L15.145 4.58067L16.894 4.17706C17.5495 4.02578 18.2367 4.22288 18.7125 4.69859L19.3014 5.28754C19.7771 5.76326 19.9742 6.45048 19.8229 7.10601L19.4193 8.85498L21.1311 9.99618C21.674 10.3581 22 10.9673 22 11.6197V12.3803C22 13.0327 21.674 13.6419 21.1311 14.0038L19.4193 15.145L19.8229 16.894C19.9742 17.5495 19.7771 18.2367 19.3014 18.7125L18.7125 19.3014C18.2367 19.7771 17.5495 19.9742 16.894 19.8229L15.145 19.4193L14.0038 21.1311C13.6419 21.674 13.0327 22 12.3803 22H11.6197C10.9673 22 10.3581 21.674 9.99618 21.1311L8.85498 19.4193L7.10601 19.8229C6.45048 19.9742 5.76326 19.7771 5.28754 19.3014L4.69859 18.7125C4.22288 18.2367 4.02578 17.5495 4.17706 16.894L4.58067 15.145L2.86888 14.0038C2.32605 13.6419 2 13.0327 2 12.3803V11.6197C2 10.9673 2.32605 10.3581 2.86888 9.99618L4.58067 8.85498L4.17706 7.10601C4.02578 6.45048 4.22288 5.76326 4.69859 5.28754L5.28754 4.69859C5.76326 4.22288 6.45048 4.02578 7.10601 4.17706L8.85498 4.58067L9.99618 2.86888ZM8.5 12C8.5 10.067 10.067 8.5 12 8.5C13.933 8.5 15.5 10.067 15.5 12C15.5 13.933 13.933 15.5 12 15.5C10.067 15.5 8.5 13.933 8.5 12Z" fill="black"/>
</svg>
