<svg width="24" height="24" viewBox="0 0 24 24" fill="none" xmlns="http://www.w3.org/2000/svg">
<path d="M18 13.1259C19.7256 13.5698 21 15.1355 21 17C21 19.2098 19.2098 21 17 21C14.7902 21 13 19.2098 13 17C13 15.1355 14.2744 13.5698 16 13.1259V4C16 3.44771 16.4477 3 17 3C17.5523 3 18 3.44771 18 4V13.1259Z" fill="black"/>
<path d="M7 21C6.44772 21 6 20.5523 6 20V12.8741C4.27442 12.4302 3 10.8645 3 9C3 7.13554 4.27442 5.56976 6 5.12592V4C6 3.44772 6.44772 3 7 3C7.55228 3 8 3.44772 8 4V5.12592C9.72558 5.56976 11 7.13554 11 9C11 10.8645 9.72558 12.4302 8 12.8741V20C8 20.5523 7.55228 21 7 21Z" fill="black"/>
</svg>
