<svg width="24" height="24" viewBox="0 0 24 24" fill="none" xmlns="http://www.w3.org/2000/svg">
<path fill-rule="evenodd" clip-rule="evenodd" d="M4 13C3.44772 13 3 12.5523 3 12C3 7.02944 7.02944 3 12 3C16.9706 3 21 7.02944 21 12C21 12.5523 20.5523 13 20 13C18.4403 13 5.55968 13 4 13ZM1 16C1 15.4477 1.44772 15 2 15H22C22.5523 15 23 15.4477 23 16C23 16.5523 22.5523 17 22 17H2C1.44772 17 1 16.5523 1 16ZM6 20C6 19.4477 6.44772 19 7 19H17C17.5523 19 18 19.4477 18 20C18 20.5523 17.5523 21 17 21H7C6.44772 21 6 20.5523 6 20Z" fill="black"/>
</svg>
