<svg width="24" height="24" viewBox="0 0 24 24" fill="none" xmlns="http://www.w3.org/2000/svg">
<path fill-rule="evenodd" clip-rule="evenodd" d="M20.3665 3.95234C19.6236 3.20949 18.4327 3.16799 17.6399 3.85734L9.17526 11.2179C11.4186 11.8147 13.1852 13.5812 13.7819 15.8246L21.1425 7.35992C21.8318 6.56717 21.7904 5.3762 21.0475 4.63335L20.3665 3.95234Z" fill="black"/>
<path d="M7.49989 13C5.01461 13 2.99989 15.0147 2.99989 17.5V21C2.99989 21.5522 3.4476 22 3.99989 22H7.49989C9.98517 22 11.9999 19.9852 11.9999 17.5C11.9999 15.0147 9.98517 13 7.49989 13Z" fill="black"/>
<path d="M4.18415 7.40782C4.28091 7.35944 4.35937 7.28098 4.40776 7.18422L5.05267 5.89438C5.23693 5.52586 5.76284 5.52586 5.9471 5.89438L6.59202 7.18422C6.6404 7.28098 6.71886 7.35944 6.81562 7.40782L8.10546 8.05274C8.47398 8.237 8.47398 8.7629 8.10546 8.94717L6.81562 9.59208C6.71886 9.64047 6.6404 9.71893 6.59202 9.81569L5.9471 11.1055C5.76284 11.4741 5.23693 11.4741 5.05267 11.1055L4.40776 9.81569C4.35937 9.71893 4.28091 9.64047 4.18415 9.59208L2.89431 8.94717C2.52579 8.7629 2.52579 8.237 2.89431 8.05274L4.18415 7.40782Z" fill="black"/>
<path d="M8.56007 3.71986C8.62919 3.6853 8.68523 3.62926 8.71979 3.56014L9.18045 2.63883C9.31206 2.3756 9.68771 2.3756 9.81932 2.63883L10.28 3.56014C10.3145 3.62926 10.3706 3.6853 10.4397 3.71986L11.361 4.18051C11.6242 4.31213 11.6242 4.68778 11.361 4.81939L10.4397 5.28005C10.3706 5.3146 10.3145 5.37065 10.28 5.43977L9.81932 6.36108C9.68771 6.62431 9.31206 6.62431 9.18045 6.36108L8.71979 5.43977C8.68523 5.37065 8.62919 5.3146 8.56007 5.28005L7.63876 4.81939C7.37553 4.68778 7.37553 4.31213 7.63876 4.18051L8.56007 3.71986Z" fill="black"/>
</svg>
