<svg width="24" height="24" viewBox="0 0 24 24" fill="none" xmlns="http://www.w3.org/2000/svg">
<path d="M9.5 16H14.5M14.5 10.5C14.5 11.8807 13.3807 13 12 13C10.6193 13 9.5 11.8807 9.5 10.5C9.5 9.11929 10.6193 8 12 8C13.3807 8 14.5 9.11929 14.5 10.5ZM5.5 20.5H18.5C19.0523 20.5 19.5 20.0523 19.5 19.5V4.5C19.5 3.94772 19.0523 3.5 18.5 3.5H5.5C4.94772 3.5 4.5 3.94772 4.5 4.5V19.5C4.5 20.0523 4.94772 20.5 5.5 20.5Z" stroke="black" stroke-width="2" stroke-linecap="round" stroke-linejoin="round"/>
</svg>
