<svg width="24" height="24" viewBox="0 0 24 24" fill="none" xmlns="http://www.w3.org/2000/svg">
<path d="M4.17156 8.07011L7.18122 10.329C7.66588 10.6928 8.36158 10.5298 8.63422 9.9886L8.88882 9.4832C9.01592 9.23089 9.24641 9.04629 9.52039 8.97737L12.4108 8.25024C12.7588 8.1627 13.0303 7.89077 13.1174 7.54269L14.126 3.50882M21 12C21 16.9706 16.9706 21 12 21C7.02944 21 3 16.9706 3 12C3 7.02944 7.02944 3 12 3C16.9706 3 21 7.02944 21 12ZM11.714 16.4316L10.5002 14.6109C10.2425 14.2244 10.294 13.7098 10.623 13.3819L10.8251 13.1805C11.0227 12.9836 11.2954 12.881 11.5738 12.8988L12.764 12.9747C12.9359 12.9857 13.1017 13.0421 13.2447 13.1382L15.1845 14.4416C15.5906 14.7146 15.7309 15.2467 15.512 15.6843L15.1907 16.327C15.0259 16.6567 14.689 16.8649 14.3204 16.8649H12.5236C12.1983 16.8649 11.8945 16.7023 11.714 16.4316Z" stroke="black" stroke-width="2" stroke-linecap="round" stroke-linejoin="round"/>
</svg>
