<svg width="24" height="24" viewBox="0 0 24 24" fill="none" xmlns="http://www.w3.org/2000/svg">
<path d="M9 21H15M15.6076 15C17.6404 13.7751 19 11.5463 19 9C19 5.13401 15.866 2 12 2C8.13401 2 5 5.13401 5 9C5 11.5463 6.35958 13.7751 8.39241 15M15.6076 15C15.4111 15.1184 15.2084 15.2274 15 15.3264V17.5C15 17.7761 14.7761 18 14.5 18H9.5C9.22386 18 9 17.7761 9 17.5V15.3264C8.7916 15.2274 8.58886 15.1184 8.39241 15M15.6076 15H8.39241" stroke="black" stroke-width="2" stroke-linecap="round" stroke-linejoin="round"/>
</svg>
