<svg width="24" height="24" viewBox="0 0 24 24" fill="none" xmlns="http://www.w3.org/2000/svg">
<path d="M7 14V20C7 20.5523 7.44772 21 8 21H16C16.5523 21 17 20.5523 17 20V14M7 14H17M7 14V17H4C3.44772 17 3 16.5523 3 16V8C3 7.44772 3.44772 7 4 7H20C20.5523 7 21 7.44772 21 8V16C21 16.5523 20.5523 17 20 17H17V14M9 11H7M8 3H16C16.5523 3 17 3.44772 17 4V6C17 6.55228 16.5523 7 16 7H8C7.44772 7 7 6.55228 7 6V4C7 3.44772 7.44772 3 8 3Z" stroke="black" stroke-width="2" stroke-linecap="round" stroke-linejoin="round"/>
</svg>
