<svg width="24" height="24" viewBox="0 0 24 24" fill="none" xmlns="http://www.w3.org/2000/svg">
<path fill-rule="evenodd" clip-rule="evenodd" d="M6 2C4.89543 2 4 2.89543 4 4V20C4 21.1046 4.89543 22 6 22H18C19.1046 22 20 21.1046 20 20V4C20 2.89543 19.1046 2 18 2H6ZM18 7V4H6V7H18ZM9.75 13.5C10.4404 13.5 11 12.9404 11 12.25C11 11.5596 10.4404 11 9.75 11C9.05964 11 8.5 11.5596 8.5 12.25C8.5 12.9404 9.05964 13.5 9.75 13.5ZM9.75 18C10.4404 18 11 17.4404 11 16.75C11 16.0596 10.4404 15.5 9.75 15.5C9.05964 15.5 8.5 16.0596 8.5 16.75C8.5 17.4404 9.05964 18 9.75 18ZM15.5 12.25C15.5 12.9404 14.9404 13.5 14.25 13.5C13.5596 13.5 13 12.9404 13 12.25C13 11.5596 13.5596 11 14.25 11C14.9404 11 15.5 11.5596 15.5 12.25ZM14.25 18C14.9404 18 15.5 17.4404 15.5 16.75C15.5 16.0596 14.9404 15.5 14.25 15.5C13.5596 15.5 13 16.0596 13 16.75C13 17.4404 13.5596 18 14.25 18Z" fill="black"/>
</svg>
