<svg width="24" height="24" viewBox="0 0 24 24" fill="none" xmlns="http://www.w3.org/2000/svg">
<path fill-rule="evenodd" clip-rule="evenodd" d="M11.1576 2.88262C11.742 2.04775 12.9147 1.74596 13.8306 2.37571C14.7823 3.03006 16.428 4.29476 17.8444 6.07015C19.2602 7.84467 20.5 10.198 20.5 13.0038C20.5 18.0012 16.7478 22.0038 12 22.0038C7.25223 22.0038 3.5 18.0012 3.5 13.0038C3.5 10.9684 4.37408 8.36785 6.07753 6.29161C6.82386 5.38195 8.11166 5.4362 8.86407 6.15904L11.1576 2.88262ZM12 20.0038C13.4497 20.0038 14.625 18.6623 14.625 17.0075C14.625 15.2317 13.2438 13.9255 12.4852 13.342C12.1956 13.1192 11.8044 13.1192 11.5148 13.342C10.7562 13.9255 9.375 15.2317 9.375 17.0075C9.375 18.6623 10.5503 20.0038 12 20.0038Z" fill="black"/>
</svg>
