<svg width="24" height="24" viewBox="0 0 24 24" fill="none" xmlns="http://www.w3.org/2000/svg">
<path fill-rule="evenodd" clip-rule="evenodd" d="M9 1C9.55228 1 10 1.44772 10 2V3C10 3.55228 9.55228 4 9 4C8.44772 4 8 3.55228 8 3V2C8 1.44772 8.44772 1 9 1ZM13.0858 2.5C13.8668 1.71895 15.1332 1.71895 15.9142 2.5L21.5 8.08579C22.281 8.86683 22.281 10.1332 21.5 10.9142L18.7071 13.7071C18.3166 14.0976 17.6834 14.0976 17.2929 13.7071C16.9024 13.3166 16.9024 12.6834 17.2929 12.2929L20.0858 9.5L14.5 3.91421L11.7071 6.70711C11.3166 7.09763 10.6834 7.09763 10.2929 6.70711C9.90237 6.31658 9.90237 5.68342 10.2929 5.29289L13.0858 2.5ZM2.79289 2.79289C3.18342 2.40237 3.81658 2.40237 4.20711 2.79289L5.20711 3.79289C5.59763 4.18342 5.59763 4.81658 5.20711 5.20711C4.81658 5.59763 4.18342 5.59763 3.79289 5.20711L2.79289 4.20711C2.40237 3.81658 2.40237 3.18342 2.79289 2.79289ZM1 9C1 8.44772 1.44772 8 2 8H3C3.55228 8 4 8.44772 4 9C4 9.55228 3.55228 10 3 10H2C1.44772 10 1 9.55228 1 9ZM6.70711 10.2929C7.09763 10.6834 7.09763 11.3166 6.70711 11.7071L3.91421 14.5L9.5 20.0858L12.2929 17.2929C12.6834 16.9024 13.3166 16.9024 13.7071 17.2929C14.0976 17.6834 14.0976 18.3166 13.7071 18.7071L10.9142 21.5C10.1332 22.281 8.86684 22.281 8.08579 21.5L2.5 15.9142C1.71895 15.1332 1.71895 13.8668 2.5 13.0858L5.29289 10.2929C5.68342 9.90237 6.31658 9.90237 6.70711 10.2929ZM20 15C20 14.4477 20.4477 14 21 14H22C22.5523 14 23 14.4477 23 15C23 15.5523 22.5523 16 22 16H21C20.4477 16 20 15.5523 20 15ZM18.7929 18.7929C19.1834 18.4024 19.8166 18.4024 20.2071 18.7929L21.2071 19.7929C21.5976 20.1834 21.5976 20.8166 21.2071 21.2071C20.8166 21.5976 20.1834 21.5976 19.7929 21.2071L18.7929 20.2071C18.4024 19.8166 18.4024 19.1834 18.7929 18.7929ZM15 20C15.5523 20 16 20.4477 16 21V22C16 22.5523 15.5523 23 15 23C14.4477 23 14 22.5523 14 22V21C14 20.4477 14.4477 20 15 20Z" fill="black"/>
</svg>
