<svg width="24" height="24" viewBox="0 0 24 24" fill="none" xmlns="http://www.w3.org/2000/svg">
<path d="M13.3561 9.1987C13.6249 9.68116 14.2339 9.85439 14.7164 9.58561C15.1989 9.31683 15.3721 8.70783 15.1033 8.22536L13.3561 9.1987ZM12 12.0124L11.6789 12.9594L11.6789 12.9594L12 12.0124ZM10.6439 14.826C10.3751 14.3436 9.76608 14.1703 9.28361 14.4391C8.80115 14.7079 8.62792 15.3169 8.8967 15.7994L10.6439 14.826ZM13 5.99902C13 5.44674 12.5523 4.99902 12 4.99902C11.4477 4.99902 11 5.44674 11 5.99902H13ZM11 18C11 18.5523 11.4477 19 12 19C12.5523 19 13 18.5523 13 18H11ZM12 6.50018C11.1344 6.50018 10.2633 6.69413 9.5877 7.22679C8.87526 7.78848 8.51312 8.62195 8.51312 9.60087H10.5131C10.5131 9.14395 10.6614 8.92708 10.826 8.79738C11.0273 8.63866 11.3996 8.50018 12 8.50018V6.50018ZM15.1033 8.22536C14.5215 7.18095 13.4037 6.50018 12 6.50018V8.50018C12.7181 8.50018 13.1464 8.82219 13.3561 9.1987L15.1033 8.22536ZM8.51312 9.60087C8.51312 10.7451 8.98398 11.5418 9.70589 12.0735C10.3305 12.5336 11.1356 12.7752 11.6789 12.9594L12.3211 11.0653C11.644 10.8358 11.2056 10.6942 10.8919 10.4631C10.6755 10.3038 10.5131 10.1016 10.5131 9.60087H8.51312ZM12 17.5246C12.8656 17.5246 13.7367 17.3306 14.4123 16.7979C15.1247 16.2363 15.4869 15.4028 15.4869 14.4239H13.4869C13.4869 14.8808 13.3386 15.0977 13.174 15.2274C12.9727 15.3861 12.6004 15.5246 12 15.5246V17.5246ZM8.8967 15.7994C9.47853 16.8438 10.5963 17.5246 12 17.5246V15.5246C11.2819 15.5246 10.8536 15.2025 10.6439 14.826L8.8967 15.7994ZM15.4869 14.4239C15.4869 13.2797 15.016 12.4829 14.2941 11.9512C13.6695 11.4912 12.8644 11.2495 12.3211 11.0653L11.6789 12.9594C12.356 13.189 12.7944 13.3306 13.1081 13.5616C13.3245 13.721 13.4869 13.9231 13.4869 14.4239H15.4869ZM13 7.50018V5.99902H11V7.50018H13ZM11 16.5246V18H13V16.5246H11ZM20 12C20 16.4183 16.4183 20 12 20V22C17.5228 22 22 17.5228 22 12H20ZM12 20C7.58172 20 4 16.4183 4 12H2C2 17.5228 6.47715 22 12 22V20ZM4 12C4 7.58172 7.58172 4 12 4V2C6.47715 2 2 6.47715 2 12H4ZM12 4C16.4183 4 20 7.58172 20 12H22C22 6.47715 17.5228 2 12 2V4Z" fill="black"/>
</svg>
