<svg width="24" height="24" viewBox="0 0 24 24" fill="none" xmlns="http://www.w3.org/2000/svg">
<path d="M8.51218 3.03901C8.01142 2.19961 6.85447 2.0557 6.16333 2.74684L2.70074 6.20943C2.20033 6.70983 1.98654 7.45595 2.1991 8.16609C2.66339 9.71723 3.31672 11.2242 4.15913 12.6505C5.01302 14.0963 6.06062 15.4583 7.30111 16.6988C8.54161 17.9393 9.90362 18.9869 11.3494 19.8408C12.7758 20.6832 14.2827 21.3365 15.8338 21.8008C16.544 22.0134 17.2901 21.7996 17.7905 21.2992L21.2531 17.8366C21.9442 17.1455 21.8003 15.9885 20.9609 15.4878L17.5639 13.4612C16.974 13.1093 16.2204 13.203 15.7347 13.6887L14.5252 14.8983C13.4257 14.2718 12.3901 13.4892 11.4504 12.5495C10.5108 11.6098 9.72811 10.5742 9.10164 9.47473L10.3112 8.26518C10.7969 7.77948 10.8906 7.02593 10.5387 6.43604L8.51218 3.03901Z" fill="black"/>
</svg>
