<svg width="16" height="16" viewBox="0 0 16 16" fill="none" xmlns="http://www.w3.org/2000/svg">
<path d="M3.6665 4.33333C3.6665 2.67647 5.00965 1.33333 6.6665 1.33333C8.32336 1.33333 9.6665 2.67647 9.6665 4.33333C9.6665 5.99018 8.32336 7.33333 6.6665 7.33333C5.00965 7.33333 3.6665 5.99018 3.6665 4.33333Z" fill="#395EE2"/>
<path d="M1.13046 12.4643C1.70171 9.92243 3.8004 8 6.66653 8C9.53266 8 11.6314 9.92243 12.2026 12.4643C12.3958 13.3239 11.691 14 10.9343 14H2.39881C1.64204 14 0.937274 13.3239 1.13046 12.4643Z" fill="#395EE2"/>
<path d="M13.3332 5.33333C13.3332 4.96514 13.0347 4.66666 12.6665 4.66666C12.2983 4.66666 11.9998 4.96514 11.9998 5.33333V6.66666H10.6665C10.2983 6.66666 9.99984 6.96514 9.99984 7.33333C9.99984 7.70152 10.2983 8 10.6665 8H11.9998V9.33333C11.9998 9.70152 12.2983 10 12.6665 10C13.0347 10 13.3332 9.70152 13.3332 9.33333V8H14.6665C15.0347 8 15.3332 7.70152 15.3332 7.33333C15.3332 6.96514 15.0347 6.66666 14.6665 6.66666H13.3332V5.33333Z" fill="#395EE2"/>
</svg>
