<svg width="24" height="24" viewBox="0 0 24 24" fill="none" xmlns="http://www.w3.org/2000/svg">
<path d="M6 5C6 3.89543 6.89543 3 8 3H19C20.1046 3 21 3.89543 21 5V9C21 10.1046 20.1046 11 19 11H8C6.89543 11 6 10.1046 6 9V8H5V12H13C13.5523 12 14 12.4477 14 13V15.1707C15.1652 15.5825 16 16.6938 16 18V21C16 21.5523 15.5523 22 15 22C14.4477 22 14 21.5523 14 21V18C14 17.4477 13.5523 17 13 17C12.4477 17 12 17.4477 12 18V21C12 21.5523 11.5523 22 11 22C10.4477 22 10 21.5523 10 21V18C10 16.6938 10.8348 15.5825 12 15.1707V14H5C3.89543 14 3 13.1046 3 12V8C3 6.89543 3.89543 6 5 6H6V5Z" fill="black"/>
</svg>
