<svg width="24" height="24" viewBox="0 0 24 24" fill="none" xmlns="http://www.w3.org/2000/svg">
<path fill-rule="evenodd" clip-rule="evenodd" d="M2.11885 8.21437C3.11796 6.31334 5.11079 5 7.434 5H16.566C18.8892 5 20.882 6.31334 21.8812 8.21437C22.2736 7.90441 22.8448 7.93058 23.2071 8.29289C23.5976 8.68342 23.5976 9.31658 23.2071 9.70711L22.5417 10.3725C22.7796 12.1804 22.4669 14.1719 21.5877 15.7897C20.6028 17.6018 18.862 19 16.3993 19H7.60066C5.138 19 3.39716 17.6018 2.41232 15.7897C1.53312 14.1719 1.22036 12.1804 1.45832 10.3725L0.792893 9.70711C0.402369 9.31658 0.402369 8.68342 0.792893 8.29289C1.1552 7.93058 1.72636 7.90441 2.11885 8.21437ZM13 8H11C10.4477 8 10 8.44772 10 9C10 9.55228 10.4477 10 11 10H13C13.5523 10 14 9.55228 14 9C14 8.44772 13.5523 8 13 8Z" fill="black"/>
</svg>
