<svg width="24" height="24" viewBox="0 0 24 24" fill="none" xmlns="http://www.w3.org/2000/svg">
<path d="M6.56811 2C6.31573 1.99997 6.06993 1.99994 5.86178 2.01695C5.63318 2.03563 5.36345 2.07969 5.09202 2.21799C4.7157 2.40974 4.40974 2.7157 4.21799 3.09202C4.07969 3.36345 4.03563 3.63318 4.01695 3.86178C3.99994 4.06993 3.99997 4.31572 4 4.56809L4 18.5864C3.99998 19.233 3.99997 19.7829 4.03597 20.2045C4.06853 20.5858 4.14284 21.1413 4.51742 21.555C4.96542 22.0498 5.63073 22.2885 6.29111 22.1914C6.84326 22.1101 7.25377 21.7285 7.52132 21.4549C7.81713 21.1523 8.16668 20.7278 8.57772 20.2287L11.5368 16.6355C11.7601 16.3644 11.887 16.2117 11.987 16.1098L12 16.0967L12.0131 16.1098C12.113 16.2117 12.2399 16.3644 12.4632 16.6355L15.4223 20.2287C15.8333 20.7278 16.1829 21.1523 16.4787 21.4549C16.7462 21.7285 17.1568 22.1101 17.7089 22.1914C18.3693 22.2885 19.0346 22.0498 19.4826 21.555C19.8572 21.1413 19.9315 20.5858 19.964 20.2045C20 19.7829 20 19.233 20 18.5864L20 4.56812C20 4.31574 20.0001 4.06994 19.9831 3.86178C19.9644 3.63318 19.9203 3.36345 19.782 3.09203C19.5903 2.7157 19.2843 2.40974 18.908 2.21799C18.6366 2.07969 18.3668 2.03563 18.1382 2.01695C17.9301 1.99994 17.6843 1.99997 17.4319 2L6.56811 2Z" fill="black"/>
</svg>
