<svg width="24" height="24" viewBox="0 0 24 24" fill="none" xmlns="http://www.w3.org/2000/svg">
<path d="M7 19V15M17 19V15M7 15H17M7 15V12C7 11.4477 7.44772 11 8 11H16C16.5523 11 17 11.4477 17 12V15M3.49613 8.71059L11.4961 4.04392C11.8075 3.8623 12.1925 3.8623 12.5039 4.04392L20.5039 8.71059C20.8111 8.8898 21 9.2187 21 9.57437V18C21 18.5523 20.5523 19 20 19H4C3.44772 19 3 18.5523 3 18V9.57437C3 9.2187 3.18891 8.8898 3.49613 8.71059Z" stroke="black" stroke-width="2" stroke-linecap="square" stroke-linejoin="round"/>
</svg>
