<svg width="24" height="24" viewBox="0 0 24 24" fill="none" xmlns="http://www.w3.org/2000/svg">
<path d="M20 5H4C3.44772 5 3 5.44772 3 6V18C3 18.5523 3.44772 19 4 19H20C20.5523 19 21 18.5523 21 18V6C21 5.44772 20.5523 5 20 5Z" stroke="black" stroke-width="2" stroke-linecap="square" stroke-linejoin="round"/>
<path d="M9.7832 15.6221C9.2168 15.6221 8.80664 15.3047 8.80664 14.6406V14.3818H6.60449C5.85742 14.3818 5.33984 13.9082 5.33984 13.2246C5.33984 12.8486 5.4668 12.4531 5.74023 11.9648C6.19922 11.1396 6.63379 10.4219 7.17578 9.57227C7.76172 8.64941 8.24023 8.33203 9.0459 8.33203C10.0762 8.33203 10.7598 8.90332 10.7598 9.76758V12.7949H10.9209C11.4629 12.7949 11.7217 13.1318 11.7217 13.5908C11.7217 14.0498 11.458 14.3818 10.916 14.3818H10.7598V14.6406C10.7598 15.3047 10.3447 15.6221 9.7832 15.6221ZM8.86523 12.8779V9.83594H8.82617C8.11816 10.8711 7.60547 11.6914 7.03418 12.8193V12.8779H8.86523Z" fill="black"/>
<path d="M13.4453 15.6221C12.7861 15.6221 12.4102 15.2314 12.4102 14.5381V9.41602C12.4102 8.72266 12.7861 8.33203 13.4453 8.33203C14.1045 8.33203 14.4805 8.72266 14.4805 9.41602V11.2471H14.5195L16.6826 8.80078C16.9805 8.46875 17.249 8.33203 17.6006 8.33203C18.1426 8.33203 18.582 8.75684 18.582 9.28906C18.582 9.60156 18.4746 9.82617 18.1816 10.1387L16.7266 11.6914L18.25 13.5762C18.6064 14.0156 18.7578 14.3281 18.7578 14.6211C18.7578 15.1875 18.3281 15.6221 17.7617 15.6221C17.3174 15.6221 17.0146 15.4561 16.6777 15.0264L15.0957 13.0195L14.4805 13.6543V14.5381C14.4805 15.2314 14.1045 15.6221 13.4453 15.6221Z" fill="black"/>
</svg>
