<svg width="24" height="24" viewBox="0 0 24 24" fill="none" xmlns="http://www.w3.org/2000/svg">
<path fill-rule="evenodd" clip-rule="evenodd" d="M12.0003 2C12.5526 2 13.0003 2.44772 13.0003 3V6C13.0003 6.55228 12.5526 7 12.0003 7C11.448 7 11.0003 6.55228 11.0003 6V3C11.0003 2.44772 11.448 2 12.0003 2ZM19.0714 4.92893C19.4619 5.31946 19.4619 5.95262 19.0714 6.34315L16.95 8.46447C16.5595 8.85499 15.9264 8.85499 15.5358 8.46447C15.1453 8.07394 15.1453 7.44078 15.5358 7.05025L17.6572 4.92893C18.0477 4.53841 18.6808 4.53841 19.0714 4.92893ZM4.92923 4.92893C5.31975 4.53841 5.95292 4.53841 6.34344 4.92893L8.46476 7.05025C8.85529 7.44078 8.85529 8.07394 8.46476 8.46447C8.07424 8.85499 7.44107 8.85499 7.05055 8.46447L4.92923 6.34315C4.5387 5.95262 4.5387 5.31946 4.92923 4.92893ZM2 12.0007C2 11.4484 2.44772 11.0007 3 11.0007H6C6.55228 11.0007 7 11.4484 7 12.0007C7 12.553 6.55228 13.0007 6 13.0007H3C2.44772 13.0007 2 12.553 2 12.0007ZM17 12.0007C17 11.4484 17.4477 11.0007 18 11.0007H21C21.5523 11.0007 22 11.4484 22 12.0007C22 12.553 21.5523 13.0007 21 13.0007H18C17.4477 13.0007 17 12.553 17 12.0007ZM8.46476 15.5355C8.85529 15.9261 8.85529 16.5592 8.46476 16.9497L6.34344 19.0711C5.95292 19.4616 5.31975 19.4616 4.92923 19.0711C4.5387 18.6805 4.5387 18.0474 4.92923 17.6569L7.05055 15.5355C7.44107 15.145 8.07424 15.145 8.46476 15.5355ZM15.5358 15.5355C15.9264 15.145 16.5595 15.145 16.95 15.5355L19.0714 17.6569C19.4619 18.0474 19.4619 18.6805 19.0714 19.0711C18.6808 19.4616 18.0477 19.4616 17.6572 19.0711L15.5358 16.9497C15.1453 16.5592 15.1453 15.9261 15.5358 15.5355ZM12.0003 17C12.5526 17 13.0003 17.4477 13.0003 18V21C13.0003 21.5523 12.5526 22 12.0003 22C11.448 22 11.0003 21.5523 11.0003 21V18C11.0003 17.4477 11.448 17 12.0003 17Z" fill="black"/>
</svg>
