<svg width="24" height="24" viewBox="0 0 24 24" fill="none" xmlns="http://www.w3.org/2000/svg">
<path d="M10.4986 9.5C10.4986 10.3284 9.939 11 9.24864 11C8.55828 11 7.99864 10.3284 7.99864 9.5C7.99864 8.67157 8.55828 8 9.24864 8C9.939 8 10.4986 8.67157 10.4986 9.5Z" fill="black"/>
<path d="M15.9986 9.5C15.9986 10.3284 15.439 11 14.7486 11C14.0583 11 13.4986 10.3284 13.4986 9.5C13.4986 8.67157 14.0583 8 14.7486 8C15.439 8 15.9986 8.67157 15.9986 9.5Z" fill="black"/>
<path fill-rule="evenodd" clip-rule="evenodd" d="M18.9986 1C19.5509 1 19.9986 1.44772 19.9986 2V4H21.9986C22.5509 4 22.9986 4.44772 22.9986 5C22.9986 5.55228 22.5509 6 21.9986 6H19.9986V8C19.9986 8.55228 19.5509 9 18.9986 9C18.4464 9 17.9986 8.55228 17.9986 8V6H15.9986C15.4464 6 14.9986 5.55228 14.9986 5C14.9986 4.44772 15.4464 4 15.9986 4H17.9986V2C17.9986 1.44772 18.4464 1 18.9986 1ZM11.9926 2.94507C12.0533 3.494 11.6576 3.98826 11.1087 4.04902C7.11036 4.49161 4 7.88325 4 12C3.99999 16.4183 7.5817 20 12 20C16.1171 20 19.509 16.889 19.9511 12.8901C20.0118 12.3412 20.506 11.9454 21.0549 12.0061C21.6039 12.0667 21.9997 12.5609 21.939 13.1099C21.3862 18.1109 17.1479 22 12 22C6.47714 22 1.99998 17.5228 2 12C2 6.85256 5.88834 2.61466 10.8886 2.06116C11.4375 2.0004 11.9318 2.39614 11.9926 2.94507ZM8.46341 14.1213C8.85393 13.7308 9.4871 13.7308 9.87762 14.1213C11.0492 15.2929 12.9487 15.2929 14.1203 14.1213C14.5108 13.7308 15.1439 13.7308 15.5345 14.1213C15.925 14.5118 15.925 15.145 15.5345 15.5355C13.5818 17.4882 10.416 17.4882 8.46341 15.5355C8.07288 15.145 8.07288 14.5118 8.46341 14.1213Z" fill="black"/>
</svg>
