<svg width="24" height="24" viewBox="0 0 24 24" fill="none" xmlns="http://www.w3.org/2000/svg">
<path d="M16.5001 8.99999C17.3285 8.99999 18.0001 8.32841 18.0001 7.49997C18.0001 6.67154 17.3285 5.99996 16.5001 5.99996C15.6717 5.99996 15.0001 6.67154 15.0001 7.49997C15.0001 8.32841 15.6717 8.99999 16.5001 8.99999Z" fill="black"/>
<path d="M11.2501 18.0001V17.2501H12.7501C13.1643 17.2501 13.5001 16.9143 13.5001 16.5V15H15.0001C18.3138 15 21.0001 12.3137 21.0001 8.99999C21.0001 5.68625 18.3138 2.99994 15.0001 2.99994C11.6864 2.99994 9.00005 5.68625 9.00005 8.99999C9.00005 9.58815 9.0849 10.1576 9.24333 10.6961L3.43934 16.5C3.15804 16.7814 3 17.1629 3 17.5607V19.5001C3 20.3285 3.67158 21.0001 4.50001 21.0001H7.50004C8.32847 21.0001 9.00005 20.3285 9.00005 19.5001V18.7501H10.5001C10.9143 18.7501 11.2501 18.4143 11.2501 18.0001ZM10.5001 8.99999C10.5001 6.51469 12.5148 4.49995 15.0001 4.49995C17.4854 4.49995 19.5001 6.51469 19.5001 8.99999C19.5001 11.4853 17.4854 13.5 15.0001 13.5H12.7501C12.3359 13.5 12.0001 13.8358 12.0001 14.25V15.75H10.5001C10.0858 15.75 9.75005 16.0858 9.75005 16.5V17.2501H8.25004C7.83582 17.2501 7.50004 17.5858 7.50004 18.0001V19.5001H4.50001V17.5607L10.6335 11.4272C10.8436 11.2171 10.9099 10.9028 10.8025 10.6258C10.6074 10.1225 10.5001 9.57468 10.5001 8.99999Z" fill="black"/>
</svg>
