<svg width="24" height="24" viewBox="0 0 24 24" fill="none" xmlns="http://www.w3.org/2000/svg">
<path d="M17.998 13.9992C19.6549 13.9992 20.998 12.6561 20.998 10.9992C20.998 9.34234 19.6549 7.9992 17.998 7.9992M12.8273 17.9992C12.4155 19.1644 11.3043 19.9992 9.99805 19.9992C8.34119 19.9992 6.99805 18.6561 6.99805 16.9992V15.4992M7.00024 6.4992V15.4992M17.998 4.36791V17.6305C17.998 18.3076 17.3392 18.789 16.6941 18.5832L3.69409 14.4356C3.2795 14.3033 2.99805 13.9181 2.99805 13.4829V8.51553C2.99805 8.08034 3.2795 7.69511 3.69409 7.56284L16.6941 3.41522C17.3392 3.2094 17.998 3.69077 17.998 4.36791Z" stroke="black" stroke-width="2" stroke-linecap="round" stroke-linejoin="round"/>
</svg>
