<svg width="24" height="24" viewBox="0 0 24 24" fill="none" xmlns="http://www.w3.org/2000/svg">
<path d="M3 11H21M4 19H20C20.5523 19 21 18.5523 21 18V6C21 5.44772 20.5523 5 20 5H4C3.44772 5 3 5.44772 3 6V18C3 18.5523 3.44772 19 4 19Z" stroke="black" stroke-width="2" stroke-linecap="round" stroke-linejoin="round"/>
<path d="M6 8.75C6.41421 8.75 6.75 8.41421 6.75 8C6.75 7.58579 6.41421 7.25 6 7.25C5.58579 7.25 5.25 7.58579 5.25 8C5.25 8.41421 5.58579 8.75 6 8.75ZM9 8.75C9.41421 8.75 9.75 8.41421 9.75 8C9.75 7.58579 9.41421 7.25 9 7.25C8.58579 7.25 8.25 7.58579 8.25 8C8.25 8.41421 8.58579 8.75 9 8.75ZM12 8.75C12.4142 8.75 12.75 8.41421 12.75 8C12.75 7.58579 12.4142 7.25 12 7.25C11.5858 7.25 11.25 7.58579 11.25 8C11.25 8.41421 11.5858 8.75 12 8.75Z" fill="black" stroke="black" stroke-width="0.5"/>
</svg>
