<svg width="24" height="24" viewBox="0 0 24 24" fill="none" xmlns="http://www.w3.org/2000/svg">
<path d="M8.5 2C7.39543 2 6.5 2.89543 6.5 4V6.99695C6.5 8.65455 5.84152 10.2443 4.66942 11.4164L4.29289 11.7929C4.10536 11.9804 4 12.2348 4 12.5V14C4 15.1046 4.89543 16 6 16H11V21C11 21.5523 11.4477 22 12 22C12.5523 22 13 21.5523 13 21V16H18C19.1046 16 20 15.1046 20 14V12.5C20 12.2348 19.8946 11.9804 19.7071 11.7929L19.3306 11.4164C18.1585 10.2443 17.5 8.65455 17.5 6.99695V4C17.5 2.89543 16.6046 2 15.5 2H8.5Z" fill="black"/>
</svg>
