<svg width="24" height="24" viewBox="0 0 24 24" fill="none" xmlns="http://www.w3.org/2000/svg">
<path fill-rule="evenodd" clip-rule="evenodd" d="M12 4.5C7.5271 4.5 4 7.91095 4 12C4 16.0334 7.43171 19.407 11.8178 19.4981C11.8145 19.492 11.8112 19.4859 11.8078 19.4797C11.778 19.4252 11.7453 19.3664 11.7106 19.304C11.4979 18.9215 11.2086 18.4013 11.0282 17.8666C10.8107 17.2221 10.6885 16.3868 11.1056 15.5528C11.7662 14.2315 13.0367 13.9703 14.1011 13.9858C14.6354 13.9936 15.1923 14.0687 15.7115 14.1503C15.8949 14.1791 16.071 14.2082 16.2428 14.2366C16.5819 14.2927 16.9043 14.346 17.2336 14.3889C18.2607 14.5224 18.9042 14.4775 19.2921 14.2361C19.581 14.0563 20 13.5786 20 12C20 7.91095 16.4729 4.5 12 4.5ZM2 12C2 6.70021 6.53177 2.5 12 2.5C17.4682 2.5 22 6.70021 22 12C22 13.8745 21.4956 15.2203 20.3489 15.934C19.3012 16.5862 17.9971 16.505 16.9757 16.3722C16.6127 16.3249 16.2304 16.2618 15.8717 16.2026C15.7086 16.1756 15.5504 16.1495 15.401 16.126C14.8971 16.0469 14.457 15.9912 14.0719 15.9856C13.2977 15.9743 13.04 16.156 12.8944 16.4472C12.8115 16.6132 12.7927 16.8404 12.9232 17.2271C13.0404 17.5743 13.2276 17.9131 13.4439 18.3046C13.4826 18.3747 13.5223 18.4465 13.5626 18.5203C13.6825 18.7396 13.8185 18.9967 13.9142 19.2501C14.0021 19.4825 14.117 19.8626 14.0318 20.2788C13.9272 20.7897 13.576 21.1307 13.1661 21.3072C12.8121 21.4596 12.4013 21.5 12 21.5C6.53177 21.5 2 17.2998 2 12Z" fill="black"/>
<path d="M12 8C12 8.82843 11.3284 9.5 10.5 9.5C9.67157 9.5 9 8.82843 9 8C9 7.17157 9.67157 6.5 10.5 6.5C11.3284 6.5 12 7.17157 12 8Z" fill="black"/>
<path d="M9 12.25C9 13.0784 8.32843 13.75 7.5 13.75C6.67157 13.75 6 13.0784 6 12.25C6 11.4216 6.67157 10.75 7.5 10.75C8.32843 10.75 9 11.4216 9 12.25Z" fill="black"/>
<path d="M17 9.5C17 10.3284 16.3284 11 15.5 11C14.6716 11 14 10.3284 14 9.5C14 8.67157 14.6716 8 15.5 8C16.3284 8 17 8.67157 17 9.5Z" fill="black"/>
</svg>
