<?xml version="1.0" encoding="UTF-8" standalone="no"?>
<svg
   width="9.5679588"
   height="12.664063"
   viewBox="0 0 9.5679588 12.664063"
   version="1.1"
   id="svg2"
   sodipodi:docname="bitcoin-hashtag.svg"
   inkscape:version="1.3-dev (77bc73e, 2022-05-18)"
   xmlns:inkscape="http://www.inkscape.org/namespaces/inkscape"
   xmlns:sodipodi="http://sodipodi.sourceforge.net/DTD/sodipodi-0.dtd"
   xmlns="http://www.w3.org/2000/svg"
   xmlns:svg="http://www.w3.org/2000/svg">
  <defs
     id="defs2" />
  <sodipodi:namedview
     id="namedview2"
     pagecolor="#ffffff"
     bordercolor="#000000"
     borderopacity="0.25"
     inkscape:showpageshadow="2"
     inkscape:pageopacity="0.0"
     inkscape:pagecheckerboard="0"
     inkscape:deskcolor="#d1d1d1"
     showgrid="false"
     inkscape:zoom="31.12"
     inkscape:cx="4.2095116"
     inkscape:cy="7.4710797"
     inkscape:window-width="1571"
     inkscape:window-height="957"
     inkscape:window-x="1707"
     inkscape:window-y="66"
     inkscape:window-maximized="0"
     inkscape:current-layer="svg2" />
  <g
     id="surface1"
     transform="translate(-4.867188,-3.484375)">
    <path
       style="fill:#f59119;fill-opacity:1;fill-rule:nonzero;stroke:none"
       d="M 14.410156,8.574219 C 14.609375,7.246094 13.59375,6.53125 12.210938,6.050781 L 12.660156,4.25 11.5625,3.976562 11.125,5.730469 C 10.835938,5.660156 10.539062,5.589844 10.246094,5.523438 L 10.6875,3.757812 9.589844,3.484375 9.140625,5.285156 C 8.902344,5.230469 8.667969,5.179688 8.4375,5.121094 L 8.441406,5.117188 6.925781,4.738281 6.636719,5.910156 c 0,0 0.8125,0.1875 0.796875,0.199219 C 7.875,6.21875 7.957031,6.511719 7.941406,6.746094 L 7.429688,8.800781 C 7.460938,8.808594 7.5,8.820312 7.546875,8.835938 l -0.117187,-0.027344 -0.71875,2.875 c -0.054688,0.136718 -0.191407,0.339844 -0.5,0.261718 0.00781,0.01563 -0.800782,-0.199218 -0.800782,-0.199218 L 4.867188,13 6.296875,13.359375 c 0.265625,0.06641 0.523437,0.132813 0.78125,0.199219 L 6.621094,15.382812 7.71875,15.65625 8.167969,13.851562 c 0.300781,0.08203 0.589843,0.15625 0.875,0.226563 L 8.59375,15.875 l 1.097656,0.273438 0.453125,-1.820313 c 1.871094,0.355469 3.28125,0.210937 3.871094,-1.480469 0.476563,-1.363281 -0.02344,-2.148437 -1.007813,-2.660156 0.71875,-0.167969 1.257813,-0.636719 1.402344,-1.613281 z m -2.507812,3.515625 C 11.5625,13.453125 9.269531,12.71875 8.523438,12.53125 l 0.605468,-2.414062 c 0.742188,0.183593 3.125,0.550781 2.773438,1.972656 z M 12.242188,8.554688 C 11.933594,9.796875 10.023438,9.164062 9.402344,9.011719 L 9.949219,6.820312 c 0.621093,0.15625 2.613281,0.441407 2.292969,1.734376 z m 0,0"
       id="path2" />
  </g>
</svg>
