<svg width="24" height="24" viewBox="0 0 24 24" fill="none" xmlns="http://www.w3.org/2000/svg">
<path d="M3.56945 13L3.1544 13.2025C1.65687 13.933 1.65687 16.0671 3.1544 16.7976L11.1235 20.6849C11.6769 20.9549 12.3238 20.9549 12.8772 20.6849L20.8463 16.7976C22.3438 16.0671 22.3438 13.933 20.8463 13.2025L20.4312 13L12.8772 16.6849C12.3238 16.9549 11.6769 16.9549 11.1235 16.6849L3.56945 13Z" fill="black"/>
<path d="M12.8772 3.31513C12.3238 3.04518 11.6769 3.04518 11.1235 3.31513L3.1544 7.2025C1.65687 7.933 1.65686 10.0671 3.1544 10.7976L11.1235 14.6849C11.6769 14.9549 12.3238 14.9549 12.8772 14.6849L20.8463 10.7976C22.3438 10.0671 22.3438 7.93301 20.8463 7.2025L12.8772 3.31513Z" fill="black"/>
</svg>
