<svg width="24" height="24" viewBox="0 0 24 24" fill="none" xmlns="http://www.w3.org/2000/svg">
<path fill-rule="evenodd" clip-rule="evenodd" d="M2 6C2 4.89543 2.89543 4 4 4H20C21.1046 4 22 4.89543 22 6V9.17071C22 9.59452 21.7328 9.97231 21.3332 10.1135C20.5551 10.3886 20 11.1307 20 12C20 12.8693 20.5551 13.6114 21.3332 13.8865C21.7328 14.0277 22 14.4055 22 14.8293V18C22 19.1046 21.1046 20 20 20H4C2.89543 20 2 19.1046 2 18V14.8293C2 14.4055 2.26716 14.0277 2.66675 13.8865C3.4449 13.6114 4 12.8693 4 12C4 11.1307 3.4449 10.3886 2.66675 10.1135C2.26716 9.97231 2 9.59452 2 9.17071V6ZM20 6H4V8.53543C5.1948 9.22657 6 10.5183 6 12C6 13.4817 5.1948 14.7734 4 15.4646V18H20V15.4646C18.8052 14.7734 18 13.4817 18 12C18 10.5183 18.8052 9.22657 20 8.53543V6Z" fill="black"/>
<path d="M14 8C14 7.44772 14.4477 7 15 7C15.5523 7 16 7.44772 16 8C16 8.55228 15.5523 9 15 9C14.4477 9 14 8.55228 14 8Z" fill="black"/>
<path d="M14 12C14 11.4477 14.4477 11 15 11C15.5523 11 16 11.4477 16 12C16 12.5523 15.5523 13 15 13C14.4477 13 14 12.5523 14 12Z" fill="black"/>
<path d="M14 16C14 15.4477 14.4477 15 15 15C15.5523 15 16 15.4477 16 16C16 16.5523 15.5523 17 15 17C14.4477 17 14 16.5523 14 16Z" fill="black"/>
</svg>
