<svg width="24" height="24" viewBox="0 0 24 24" fill="none" xmlns="http://www.w3.org/2000/svg">
<path d="M16.9997 7.5C16.9997 6.67157 17.6712 6 18.4997 6C19.3281 6 19.9997 6.67157 19.9997 7.5V13.8292C19.9997 17.7895 16.7892 21 12.8289 21C10.1665 21 7.72332 19.525 6.48334 17.169L3.80454 12.0793C3.61936 11.7274 3.66021 11.2993 3.90859 10.9888L4.25027 10.5617C4.94029 9.69921 6.19887 9.55937 7.0614 10.2494L7.99966 11V5.5C7.99966 4.67157 8.67123 4 9.49966 4C10.3281 4 10.9997 4.67157 10.9997 5.5M16.9997 7.5V5.5C16.9997 4.67157 16.3281 4 15.4997 4C14.6712 4 13.9997 4.67157 13.9997 5.5M16.9997 7.5V12M10.9997 5.5V4.5C10.9997 3.67157 11.6712 3 12.4997 3C13.3281 3 13.9997 3.67157 13.9997 4.5V5.5M10.9997 5.5V11M13.9997 5.5V11.5" stroke="black" stroke-width="2" stroke-linecap="round" stroke-linejoin="round"/>
</svg>
