<svg width="24" height="24" viewBox="0 0 24 24" fill="none" xmlns="http://www.w3.org/2000/svg">
<path d="M9 9.33V10.33H10V9.33H9ZM4 9.33H3H4ZM4 4L4 3H3L3 4H4ZM9 4.5H8H9ZM8.5 4V3V4ZM14.5 14.6601V15.6601H15.5V14.6601H14.5ZM14.5 9.83008H13.5H14.5ZM14 9.33008L14 10.3301H14V9.33008ZM4 19.9902H3V20.9902H4V19.9902ZM20 19.4902H21H20ZM19.5 19.9902V18.9902V19.9902ZM20 15.1602H19H20ZM19.5 14.6602L19.5 15.6602H19.5V14.6602ZM5 2C5 1.44772 4.55228 1 4 1C3.44772 1 3 1.44772 3 2H5ZM3 22C3 22.5523 3.44772 23 4 23C4.55228 23 5 22.5523 5 22H3ZM8 4.5V9.33H10V4.5H8ZM9 8.33H4V10.33H9V8.33ZM5 9.33L5 4H3L3 9.33H5ZM4 5L8.5 5V3L4 3L4 5ZM10 4.5C10 3.67157 9.32843 3 8.5 3V5C8.22386 5 8 4.77614 8 4.5H10ZM13.5 9.83008V14.6601H15.5V9.83008H13.5ZM14.5 13.6601H4V15.6601H14.5V13.6601ZM5 14.6601V9.33H3V14.6601H5ZM3.99999 10.33L14 10.3301L14 8.33008L4.00001 8.33L3.99999 10.33ZM15.5 9.83008C15.5 9.00165 14.8284 8.33008 14 8.33008V10.3301C13.7239 10.3301 13.5 10.1062 13.5 9.83008H15.5ZM19 15.1602V19.4902H21V15.1602H19ZM19.5 18.9902H4V20.9902H19.5V18.9902ZM4 15.6601L19.5 15.6602L19.5 13.6602L4.00001 13.6601L4 15.6601ZM5 19.9902V14.6601H3V19.9902H5ZM19 19.4902C19 19.214 19.2239 18.9902 19.5 18.9902V20.9902C20.3284 20.9902 21 20.3186 21 19.4902H19ZM21 15.1602C21 14.3317 20.3284 13.6602 19.5 13.6602V15.6602C19.2239 15.6602 19 15.4363 19 15.1602H21ZM3 2V22H5V2H3Z" fill="black"/>
</svg>
