<svg width="24" height="24" viewBox="0 0 24 24" fill="none" xmlns="http://www.w3.org/2000/svg">
<path fill-rule="evenodd" clip-rule="evenodd" d="M4 4C4 2.89543 4.89543 2 6 2H18C19.1046 2 20 2.89543 20 4V12.0218C18.9897 11.375 17.7886 11 16.5 11C12.9101 11 10 13.9101 10 17.5C10 19.2465 10.6888 20.8321 11.8096 22H6C4.89543 22 4 21.1046 4 20V4ZM7 6C7 5.44772 7.44772 5 8 5H14C14.5523 5 15 5.44772 15 6C15 6.55228 14.5523 7 14 7H8C7.44772 7 7 6.55228 7 6ZM7 10C7 9.44772 7.44772 9 8 9H11C11.5523 9 12 9.44772 12 10C12 10.5523 11.5523 11 11 11H8C7.44772 11 7 10.5523 7 10Z" fill="black"/>
<path fill-rule="evenodd" clip-rule="evenodd" d="M16.5 13C14.0147 13 12 15.0147 12 17.5C12 19.9853 14.0147 22 16.5 22C17.3878 22 18.2163 21.7423 18.9136 21.2984L19.7813 22.1953C20.1653 22.5922 20.7984 22.6027 21.1953 22.2187C21.5922 21.8347 21.6027 21.2016 21.2187 20.8047L20.3214 19.8772C20.7512 19.1874 21 18.3723 21 17.5C21 15.0147 18.9853 13 16.5 13ZM14 17.5C14 16.1193 15.1193 15 16.5 15C17.8807 15 19 16.1193 19 17.5C19 18.1815 18.7286 18.7977 18.2858 19.2496C17.8308 19.7138 17.1997 20 16.5 20C15.1193 20 14 18.8807 14 17.5Z" fill="black"/>
</svg>
