<svg width="24" height="24" viewBox="0 0 24 24" fill="none" xmlns="http://www.w3.org/2000/svg">
<path d="M19 13.0001C19 17.4183 15.4183 21.0001 11 21.0001C6.58172 21.0001 3 17.4183 3 13.0001C3 8.58178 6.58172 5.00005 11 5.00005V11.4001C11 11.9601 11 12.2401 11.109 12.454C11.2049 12.6422 11.3578 12.7952 11.546 12.8911C11.7599 13.0001 12.0399 13.0001 12.6 13.0001H19Z" stroke="black" stroke-width="2" stroke-linecap="round" stroke-linejoin="round"/>
<path d="M20.7385 8.0983C20.0801 5.76147 18.239 3.92031 15.9022 3.26199C15.6333 3.18625 15.4989 3.14837 15.3623 3.1875C15.2514 3.21926 15.1353 3.30718 15.0747 3.40528C15 3.52611 15 3.68204 15 3.99392V8.20045C15 8.48048 15 8.62049 15.0545 8.72745C15.1024 8.82153 15.1789 8.89802 15.273 8.94596C15.38 9.00045 15.52 9.00045 15.8 9.00045H20.0065C20.3184 9.00045 20.4743 9.00045 20.5952 8.92577C20.6933 8.86513 20.7812 8.74902 20.813 8.63816C20.8521 8.5016 20.8142 8.36717 20.7385 8.0983Z" stroke="black" stroke-width="2" stroke-linecap="round" stroke-linejoin="round"/>
</svg>
