<svg width="24" height="24" viewBox="0 0 24 24" fill="none" xmlns="http://www.w3.org/2000/svg">
<path d="M20 8H21C21 7.44772 20.5523 7 20 7V8ZM4 8V7C3.44772 7 3 7.44772 3 8H4ZM4.54601 19.891L5 19L5 19L4.54601 19.891ZM4.10899 19.454L3.21799 19.908L3.21799 19.908L4.10899 19.454ZM19.891 19.454L19 19L19 19L19.891 19.454ZM19.454 19.891L19 19L19 19L19.454 19.891ZM3 4V3C2.44772 3 2 3.44772 2 4H3ZM21 4H22C22 3.44772 21.5523 3 21 3V4ZM21 8V9C21.5523 9 22 8.55228 22 8H21ZM3 8H2C2 8.55228 2.44772 9 3 9V8ZM10 11C9.44772 11 9 11.4477 9 12C9 12.5523 9.44772 13 10 13V11ZM14 13C14.5523 13 15 12.5523 15 12C15 11.4477 14.5523 11 14 11V13ZM19 8V18.4H21V8H19ZM18.4 19H5.6V21H18.4V19ZM5 18.4V8H3V18.4H5ZM4 9H20V7H4V9ZM5.6 19C5.30347 19 5.14122 18.9992 5.02463 18.9897C4.91972 18.9811 4.94249 18.9707 5 19L4.09202 20.782C4.36344 20.9203 4.63318 20.9644 4.86177 20.9831C5.07869 21.0008 5.33647 21 5.6 21V19ZM3 18.4C3 18.6635 2.99922 18.9213 3.01695 19.1382C3.03562 19.3668 3.07969 19.6366 3.21799 19.908L5 19C5.0293 19.0575 5.01887 19.0803 5.0103 18.9754C5.00078 18.8588 5 18.6965 5 18.4H3ZM5 19L5 19L3.21799 19.908C3.40973 20.2843 3.71569 20.5903 4.09202 20.782L5 19ZM19 18.4C19 18.6965 18.9992 18.8588 18.9897 18.9754C18.9811 19.0803 18.9707 19.0575 19 19L20.782 19.908C20.9203 19.6366 20.9644 19.3668 20.9831 19.1382C21.0008 18.9213 21 18.6635 21 18.4H19ZM18.4 21C18.6635 21 18.9213 21.0008 19.1382 20.9831C19.3668 20.9644 19.6366 20.9203 19.908 20.782L19 19C19.0575 18.9707 19.0803 18.9811 18.9754 18.9897C18.8588 18.9992 18.6965 19 18.4 19V21ZM19 19L19 19L19.908 20.782C20.2843 20.5903 20.5903 20.2843 20.782 19.908L19 19ZM3 5H21V3H3V5ZM20 4V8H22V4H20ZM21 7H3V9H21V7ZM4 8V4H2V8H4ZM10 13H14V11H10V13Z" fill="black"/>
</svg>
