<svg width="24" height="24" viewBox="0 0 24 24" fill="none" xmlns="http://www.w3.org/2000/svg">
<path d="M10.5 4C9.67157 4 9 4.67157 9 5.5V6H4.73244C4.38663 5.4022 3.74028 5 3 5C1.89543 5 1 5.89543 1 7C1 8.10457 1.89543 9 3 9C3.74028 9 4.38663 8.5978 4.73244 8H6.34287C4.5476 9.45248 3.32218 11.5815 3.05491 14H2.5C1.67157 14 1 14.6716 1 15.5V18.5C1 19.3284 1.67157 20 2.5 20H5.5C6.32843 20 7 19.3284 7 18.5V15.5C7 14.6716 6.32843 14 5.5 14H5.0709C5.40889 11.6374 6.9269 9.65422 9.00939 8.66877C9.09325 9.41775 9.72863 10 10.5 10H13.5C14.2714 10 14.9068 9.41775 14.9906 8.66877C17.0731 9.65422 18.5911 11.6374 18.9291 14H18.5C17.6716 14 17 14.6716 17 15.5V18.5C17 19.3284 17.6716 20 18.5 20H21.5C22.3284 20 23 19.3284 23 18.5V15.5C23 14.6716 22.3284 14 21.5 14H20.9451C20.6778 11.5815 19.4524 9.45248 17.6571 8H19.2676C19.6134 8.5978 20.2597 9 21 9C22.1046 9 23 8.10457 23 7C23 5.89543 22.1046 5 21 5C20.2597 5 19.6134 5.4022 19.2676 6H15V5.5C15 4.67157 14.3284 4 13.5 4H10.5Z" fill="black"/>
</svg>
