<svg width="24" height="24" viewBox="0 0 24 24" fill="none" xmlns="http://www.w3.org/2000/svg">
<path d="M4.62087 16.6214L3.91376 17.3285L3.91376 17.3285L4.62087 16.6214ZM7.37823 19.3787L6.67112 20.0858L6.67112 20.0858L7.37823 19.3787ZM19.3782 7.37872L18.6711 8.08582L18.6711 8.08582L19.3782 7.37872ZM16.6209 4.62135L15.9138 5.32846L15.9138 5.32846L16.6209 4.62135ZM12.3782 4.62136L11.6711 3.91425L12.3782 4.62136ZM10.2924 5.29293C9.90192 5.68345 9.90192 6.31662 10.2924 6.70714C10.683 7.09767 11.3161 7.09767 11.7067 6.70714L10.2924 5.29293ZM6.70665 11.7071C7.09718 11.3166 7.09718 10.6835 6.70665 10.2929C6.31613 9.9024 5.68296 9.9024 5.29244 10.2929L6.70665 11.7071ZM4.62087 12.3787L5.32797 13.0858L5.32797 13.0858L4.62087 12.3787ZM17.2924 12.2929C16.9019 12.6835 16.9019 13.3166 17.2924 13.7071C17.683 14.0977 18.3161 14.0977 18.7067 13.7071L17.2924 12.2929ZM19.3782 11.6214L18.6711 10.9142L18.6711 10.9142L19.3782 11.6214ZM11.6209 19.3787L10.9138 18.6716L10.9138 18.6716L11.6209 19.3787ZM13.7067 18.7071C14.0972 18.3166 14.0972 17.6835 13.7067 17.2929C13.3161 16.9024 12.683 16.9024 12.2924 17.2929L13.7067 18.7071ZM8.29244 14.2929C7.90192 14.6835 7.90192 15.3166 8.29244 15.7071C8.68296 16.0977 9.31613 16.0977 9.70665 15.7071L8.29244 14.2929ZM15.7067 9.70714C16.0972 9.31662 16.0972 8.68345 15.7067 8.29293C15.3161 7.9024 14.683 7.9024 14.2924 8.29293L15.7067 9.70714ZM3.91376 17.3285L6.67112 20.0858L8.08533 18.6716L5.32797 15.9142L3.91376 17.3285ZM20.0853 6.67161L17.328 3.91425L15.9138 5.32846L18.6711 8.08582L20.0853 6.67161ZM11.6711 3.91425L10.2924 5.29293L11.7067 6.70714L13.0853 5.32846L11.6711 3.91425ZM5.29244 10.2929L3.91376 11.6716L5.32797 13.0858L6.70665 11.7071L5.29244 10.2929ZM18.7067 13.7071L20.0853 12.3285L18.6711 10.9142L17.2924 12.2929L18.7067 13.7071ZM12.328 20.0858L13.7067 18.7071L12.2924 17.2929L10.9138 18.6716L12.328 20.0858ZM18.6711 8.08582C19.4522 8.86687 19.4522 10.1332 18.6711 10.9142L20.0853 12.3285C21.6474 10.7664 21.6474 8.23371 20.0853 6.67161L18.6711 8.08582ZM6.67112 20.0858C8.23322 21.6479 10.7659 21.6479 12.328 20.0858L10.9138 18.6716C10.1327 19.4527 8.86638 19.4527 8.08533 18.6716L6.67112 20.0858ZM5.32797 15.9142C4.54693 15.1332 4.54693 13.8669 5.32797 13.0858L3.91376 11.6716C2.35166 13.2337 2.35166 15.7664 3.91376 17.3285L5.32797 15.9142ZM17.328 3.91425C15.7659 2.35215 13.2332 2.35215 11.6711 3.91425L13.0853 5.32846C13.8664 4.54741 15.1327 4.54741 15.9138 5.32846L17.328 3.91425ZM9.70665 15.7071L15.7067 9.70714L14.2924 8.29293L8.29244 14.2929L9.70665 15.7071Z" fill="black"/>
</svg>
