<svg width="24" height="24" viewBox="0 0 24 24" fill="none" xmlns="http://www.w3.org/2000/svg">
<path fill-rule="evenodd" clip-rule="evenodd" d="M20.3322 10.6678C21.1132 11.4488 21.1132 12.7152 20.3322 13.4962L15.0393 18.7891C14.6488 19.1797 14.0156 19.1797 13.6251 18.7891C13.2346 18.3986 13.2346 17.7655 13.6251 17.3749L17.918 13.082L4.08218 13.082C3.5299 13.082 3.08218 12.6343 3.08218 12.082C3.08218 11.5297 3.5299 11.082 4.08218 11.082H17.918L13.6251 6.78914C13.2346 6.39862 13.2346 5.76545 13.6251 5.37493C14.0156 4.9844 14.6488 4.9844 15.0393 5.37492L20.3322 10.6678L19.7024 11.2976L20.3322 10.6678Z" fill="black"/>
</svg>
