<svg width="24" height="24" viewBox="0 0 24 24" fill="none" xmlns="http://www.w3.org/2000/svg">
<path d="M2 16C1.44772 16 1 16.4477 1 17C1 17.5523 1.44772 18 2 18V16ZM22 18C22.5523 18 23 17.5523 23 17C23 16.4477 22.5523 16 22 16V18ZM2.70711 10.2929C2.31658 9.90237 1.68342 9.90237 1.29289 10.2929C0.902369 10.6834 0.902369 11.3166 1.29289 11.7071L2.70711 10.2929ZM4.29289 14.7071C4.68342 15.0976 5.31658 15.0976 5.70711 14.7071C6.09763 14.3166 6.09763 13.6834 5.70711 13.2929L4.29289 14.7071ZM5.70711 11.7071C6.09763 11.3166 6.09763 10.6834 5.70711 10.2929C5.31658 9.90237 4.68342 9.90237 4.29289 10.2929L5.70711 11.7071ZM1.29289 13.2929C0.902369 13.6834 0.902369 14.3166 1.29289 14.7071C1.68342 15.0976 2.31658 15.0976 2.70711 14.7071L1.29289 13.2929ZM16.865 13.9315L17.7917 13.5557L16.865 13.9315ZM19.6666 11.4356L19.1949 12.3174V12.3174L19.6666 11.4356ZM20.6004 14V13V14ZM22 15C22.5523 15 23 14.5523 23 14C23 13.4477 22.5523 13 22 13V15ZM13.5965 7.9414L14.5711 7.71748V7.71748L13.5965 7.9414ZM10.3281 19.9217L10.1306 18.9414L10.3281 19.9217ZM10.7091 14.7656C11.1698 15.0703 11.7902 14.9438 12.0948 14.4831C12.3995 14.0225 12.273 13.4021 11.8123 13.0974L10.7091 14.7656ZM8.46035 4.44715L7.89789 3.62032L8.46035 4.44715ZM9.3942 13.9315L10.1737 14.558L9.3942 13.9315ZM2 18H22V16H2V18ZM1.29289 11.7071L2.79289 13.2071L4.20711 11.7929L2.70711 10.2929L1.29289 11.7071ZM2.79289 13.2071L4.29289 14.7071L5.70711 13.2929L4.20711 11.7929L2.79289 13.2071ZM4.29289 10.2929L2.79289 11.7929L4.20711 13.2071L5.70711 11.7071L4.29289 10.2929ZM2.79289 11.7929L1.29289 13.2929L2.70711 14.7071L4.20711 13.2071L2.79289 11.7929ZM15.9383 14.3074C16.0559 14.5972 16.2752 15.0369 16.7223 15.2671C17.3181 15.5737 17.8567 15.3176 18.1322 15.1008C18.3848 14.9019 18.575 14.6318 18.7066 14.424C18.8496 14.1983 18.9859 13.9431 19.109 13.7042C19.3769 13.1842 19.5799 12.7548 19.7828 12.4486C19.8869 12.2915 19.9252 12.2724 19.8897 12.2975C19.8132 12.3517 19.5191 12.4908 19.1949 12.3174L20.1382 10.5539C19.5807 10.2557 19.0494 10.4417 18.7334 10.6657C18.4583 10.8606 18.2545 11.1342 18.1156 11.3439C17.8324 11.7713 17.5455 12.372 17.331 12.7883C17.2129 13.0176 17.11 13.2071 17.017 13.3539C16.9127 13.5185 16.8703 13.5487 16.8952 13.5291C16.943 13.4916 17.2585 13.2937 17.6376 13.4888C17.8681 13.6074 17.8769 13.7658 17.7917 13.5557L15.9383 14.3074ZM19.1949 12.3174C19.0146 12.221 19.0202 12.0661 19.0412 12.1953C19.0652 12.3422 19.0585 12.5303 19.0504 12.8702C19.0445 13.1202 19.0284 13.5871 19.1688 13.9925C19.2493 14.225 19.4004 14.5014 19.6847 14.7123C19.9732 14.9263 20.3006 15 20.6004 15V13C20.6251 13 20.7445 13.0083 20.8761 13.1059C21.0035 13.2003 21.0488 13.3094 21.0587 13.3382C21.0659 13.3588 21.0565 13.3409 21.0511 13.2519C21.0459 13.1667 21.0464 13.0617 21.0499 12.9178C21.0556 12.6752 21.0768 12.2517 21.0152 11.8737C20.9508 11.478 20.7576 10.8852 20.1382 10.5539L19.1949 12.3174ZM20.6004 15H22V13H20.6004V15ZM12.6219 8.16531C12.7864 8.88123 12.9066 9.8556 12.9413 10.9464L14.9403 10.8829C14.9026 9.69758 14.7715 8.58959 14.5711 7.71748L12.6219 8.16531ZM12.9413 10.9464C12.9979 12.7274 12.8229 14.7086 12.3151 16.2785C11.7913 17.8977 11.0302 18.7602 10.1306 18.9414L10.5255 20.902C12.5275 20.4988 13.6315 18.7074 14.218 16.8941C14.8206 15.0314 15.0012 12.8014 14.9403 10.8829L12.9413 10.9464ZM11.8123 13.0974C11.5335 12.913 11.2036 12.6478 10.8517 12.3131L9.47329 13.7622C9.8889 14.1575 10.3103 14.5019 10.7091 14.7656L11.8123 13.0974ZM10.8516 12.3131C9.78924 11.3026 8.69496 9.82269 8.22913 8.41656C7.99872 7.72108 7.94365 7.10945 8.05702 6.60527C8.16414 6.12885 8.43702 5.67246 9.02281 5.27397L7.89789 3.62032C6.91372 4.28982 6.3297 5.17045 6.10573 6.16653C5.88801 7.13483 6.02768 8.13116 6.3306 9.04553C6.93142 10.8591 8.25815 12.6065 9.47329 13.7622L10.8516 12.3131ZM9.02281 5.27397C9.38055 5.03061 9.69995 4.97412 9.99106 5.00972C10.3017 5.04771 10.6523 5.20121 11.0164 5.49399C11.7597 6.09172 12.3849 7.13359 12.6219 8.16531L14.5711 7.71748C14.2457 6.30114 13.4035 4.84715 12.2697 3.9354C11.6952 3.47344 11.0048 3.1188 10.2339 3.02452C9.44343 2.92784 8.6408 3.11495 7.89789 3.62032L9.02281 5.27397ZM10.1306 18.9414C9.36575 19.0954 9.15544 18.9075 9.10932 18.8596C9.01601 18.7627 8.88775 18.4937 8.91446 17.9147C8.93974 17.3666 9.09953 16.7106 9.34669 16.0759C9.59448 15.4396 9.90248 14.8954 10.1737 14.558L8.61475 13.3051C8.18253 13.8428 7.78288 14.5802 7.48302 15.3501C7.18254 16.1217 6.95468 16.9967 6.91658 17.8225C6.87992 18.6175 7.01255 19.5655 7.66867 20.2468C8.37196 20.9772 9.3996 21.1288 10.5255 20.902L10.1306 18.9414ZM10.1737 14.558C10.4216 14.2495 10.6625 13.9695 10.8963 13.717L9.42863 12.3583C9.15985 12.6487 8.88856 12.9644 8.61475 13.3051L10.1737 14.558ZM10.8963 13.717C12.2687 12.2345 13.2442 11.8549 13.8494 11.9105L14.0322 9.91884C12.4485 9.77347 10.8942 10.7751 9.42863 12.3583L10.8963 13.717ZM13.8494 11.9105C14.4365 11.9644 15.2068 12.5038 15.9383 14.3074L17.7917 13.5557C16.9968 11.596 15.804 10.0815 14.0322 9.91884L13.8494 11.9105Z" fill="black"/>
</svg>
