<svg width="24" height="24" viewBox="0 0 24 24" fill="none" xmlns="http://www.w3.org/2000/svg">
<path fill-rule="evenodd" clip-rule="evenodd" d="M3 5C3 3.89543 3.89543 3 5 3H19C20.1046 3 21 3.89543 21 5V19C21 20.1046 20.1046 21 19 21H5C3.89543 21 3 20.1046 3 19V5ZM8 10C8 9.44772 8.44772 9 9 9H15C15.5523 9 16 9.44772 16 10C16 10.5523 15.5523 11 15 11H9C8.44772 11 8 10.5523 8 10ZM9 13C8.44772 13 8 13.4477 8 14C8 14.5523 8.44772 15 9 15H13C13.5523 15 14 14.5523 14 14C14 13.4477 13.5523 13 13 13H9Z" fill="black"/>
</svg>
