<svg width="24" height="24" viewBox="0 0 24 24" fill="none" xmlns="http://www.w3.org/2000/svg">
<path fill-rule="evenodd" clip-rule="evenodd" d="M13 8.85506C14.4457 8.42479 15.5 7.08551 15.5 5.5C15.5 3.567 13.933 2 12 2C10.067 2 8.5 3.567 8.5 5.5C8.5 7.08551 9.55426 8.42479 11 8.85506V19.9836C7.25625 19.7372 4.26282 16.7438 4.0164 13H6C6.55228 13 7 12.5523 7 12C7 11.4477 6.55228 11 6 11H3C2.44772 11 2 11.4477 2 12V12.5C2 17.7467 6.25329 22 11.5 22H12.5C17.7467 22 22 17.7467 22 12.5V12C22 11.4477 21.5523 11 21 11H18C17.4477 11 17 11.4477 17 12C17 12.5523 17.4477 13 18 13H19.9836C19.7372 16.7438 16.7438 19.7372 13 19.9836V8.85506ZM10.5 5.5C10.5 4.67157 11.1716 4 12 4C12.8284 4 13.5 4.67157 13.5 5.5C13.5 6.32843 12.8284 7 12 7C11.1716 7 10.5 6.32843 10.5 5.5Z" fill="black"/>
</svg>
