<svg width="24" height="24" viewBox="0 0 24 24" fill="none" xmlns="http://www.w3.org/2000/svg">
<path d="M14.0001 3.00006C14.0001 2.56963 13.7246 2.1875 13.3163 2.05138C12.908 1.91527 12.4583 2.05572 12.2001 2.40006L3.20001 14.4001C2.97274 14.7031 2.93619 15.1085 3.10558 15.4473C3.27497 15.7861 3.62123 16.0001 4.00001 16.0001H10V21.0001C10 21.4305 10.2754 21.8126 10.6838 21.9487C11.0921 22.0849 11.5417 21.9444 11.8 21.6001L20.8 9.60006C21.0273 9.29705 21.0638 8.89163 20.8944 8.55285C20.725 8.21407 20.3788 8.00006 20 8.00006H14.0001V3.00006Z" fill="black"/>
</svg>
