<svg width="24" height="24" viewBox="0 0 24 24" fill="none" xmlns="http://www.w3.org/2000/svg">
<path fill-rule="evenodd" clip-rule="evenodd" d="M17.0856 3.00013C17.8667 2.21908 19.133 2.21908 19.9141 3.00013L20.9998 4.08592C21.7809 4.86697 21.7809 6.1333 20.9998 6.91434L6.91406 21.0001C6.13301 21.7812 4.86668 21.7812 4.08564 21.0001L2.99985 19.9143C2.2188 19.1333 2.2188 17.867 2.99985 17.0859L17.0856 3.00013ZM16.1641 6.75013L17.2498 7.83592L19.5856 5.50013L18.4998 4.41434L16.1641 6.75013ZM15.8356 9.25013L14.7498 8.16434L4.41406 18.5001L5.49985 19.5859L15.8356 9.25013Z" fill="black"/>
<path d="M9.85078 2.07467C9.94754 2.02628 10.026 1.94782 10.0744 1.85106L10.5526 0.894557C10.7369 0.526033 11.2628 0.526033 11.4471 0.894557L11.9253 1.85106C11.9737 1.94782 12.0522 2.02628 12.1489 2.07467L13.1054 2.55292C13.4739 2.73718 13.4739 3.26308 13.1054 3.44734L12.1489 3.92559C12.0522 3.97398 11.9737 4.05244 11.9253 4.1492L11.4471 5.1057C11.2628 5.47423 10.7369 5.47423 10.5526 5.1057L10.0744 4.1492C10.026 4.05244 9.94754 3.97398 9.85078 3.92559L8.89428 3.44734C8.52575 3.26308 8.52575 2.73718 8.89428 2.55292L9.85078 2.07467Z" fill="black"/>
<path d="M18.8508 13.0747C18.9475 13.0263 19.026 12.9478 19.0744 12.8511L19.5526 11.8946C19.7369 11.526 20.2628 11.526 20.4471 11.8946L20.9253 12.8511C20.9737 12.9478 21.0522 13.0263 21.1489 13.0747L22.1054 13.5529C22.4739 13.7372 22.4739 14.2631 22.1054 14.4473L21.1489 14.9256C21.0522 14.974 20.9737 15.0524 20.9253 15.1492L20.4471 16.1057C20.2628 16.4742 19.7369 16.4742 19.5526 16.1057L19.0744 15.1492C19.026 15.0524 18.9475 14.974 18.8508 14.9256L17.8943 14.4473C17.5258 14.2631 17.5258 13.7372 17.8943 13.5529L18.8508 13.0747Z" fill="black"/>
<path d="M4.85078 7.07467C4.94754 7.02628 5.026 6.94782 5.07438 6.85106L5.55264 5.89456C5.7369 5.52603 6.2628 5.52603 6.44706 5.89456L6.92531 6.85106C6.9737 6.94782 7.05216 7.02628 7.14892 7.07467L8.10542 7.55292C8.47395 7.73718 8.47395 8.26308 8.10542 8.44734L7.14892 8.92559C7.05216 8.97398 6.9737 9.05244 6.92531 9.1492L6.44706 10.1057C6.2628 10.4742 5.7369 10.4742 5.55264 10.1057L5.07438 9.1492C5.026 9.05244 4.94754 8.97398 4.85078 8.92559L3.89428 8.44734C3.52575 8.26308 3.52575 7.73718 3.89428 7.55292L4.85078 7.07467Z" fill="black"/>
</svg>
