<svg width="24" height="24" viewBox="0 0 24 24" fill="none" xmlns="http://www.w3.org/2000/svg">
<path fill-rule="evenodd" clip-rule="evenodd" d="M17.4319 2H6.56811C6.31573 1.99997 6.06993 1.99994 5.86178 2.01695C5.63318 2.03563 5.36345 2.07969 5.09202 2.21799C4.7157 2.40974 4.40974 2.7157 4.21799 3.09202C4.07969 3.36345 4.03563 3.63318 4.01695 3.86178C3.99994 4.06993 3.99997 4.31573 4 4.56811L4 18.9346C3.99997 19.3994 3.99995 19.8149 4.0302 20.1459C4.06022 20.4743 4.13131 20.909 4.41673 21.2788C4.77955 21.7489 5.33249 22.0334 5.9259 22.0554C6.39272 22.0728 6.7878 21.8779 7.07244 21.7115C7.35935 21.5437 7.6975 21.3022 8.07567 21.032L11.6513 18.478C11.8295 18.3507 11.9229 18.2846 11.9935 18.2412L12 18.2372L12.0065 18.2412C12.0771 18.2846 12.1705 18.3507 12.3487 18.478L15.9243 21.032C16.3025 21.3022 16.6407 21.5437 16.9276 21.7115C17.2122 21.8779 17.6073 22.0728 18.0741 22.0554C18.6675 22.0334 19.2205 21.7489 19.5833 21.2788C19.8687 20.909 19.9398 20.4743 19.9698 20.1459C20.0001 19.8149 20 19.3994 20 18.9346V4.56812C20 4.31574 20.0001 4.06994 19.9831 3.86178C19.9644 3.63318 19.9203 3.36345 19.782 3.09203C19.5903 2.7157 19.2843 2.40974 18.908 2.21799C18.6366 2.07969 18.3668 2.03563 18.1382 2.01695C17.9301 1.99994 17.6843 1.99997 17.4319 2ZM15.2071 8.95711C15.5976 8.56658 15.5976 7.93342 15.2071 7.54289C14.8166 7.15237 14.1834 7.15237 13.7929 7.54289L11 10.3358L10.2071 9.54289C9.81658 9.15237 9.18342 9.15237 8.79289 9.54289C8.40237 9.93342 8.40237 10.5666 8.79289 10.9571L10.2929 12.4571C10.4804 12.6446 10.7348 12.75 11 12.75C11.2652 12.75 11.5196 12.6446 11.7071 12.4571L15.2071 8.95711Z" fill="black"/>
</svg>
