<svg width="24" height="24" viewBox="0 0 24 24" fill="none" xmlns="http://www.w3.org/2000/svg">
<path d="M2 3C1.44772 3 1 3.44772 1 4C1 4.55228 1.44772 5 2 5H4.15287L5.87434 15.3288C6.03507 16.2932 6.86945 17 7.84713 17H17.6529C18.6306 17 19.4649 16.2932 19.6257 15.3288L20.8894 7.74659C21.0417 6.8323 20.3367 6 19.4098 6H6.34713L6.12566 4.6712C5.96493 3.70683 5.13055 3 4.15287 3H2Z" fill="black"/>
<path d="M8.25 21.5C9.07843 21.5 9.75 20.8284 9.75 20C9.75 19.1716 9.07843 18.5 8.25 18.5C7.42157 18.5 6.75 19.1716 6.75 20C6.75 20.8284 7.42157 21.5 8.25 21.5Z" fill="black"/>
<path d="M17.25 21.5C18.0784 21.5 18.75 20.8284 18.75 20C18.75 19.1716 18.0784 18.5 17.25 18.5C16.4216 18.5 15.75 19.1716 15.75 20C15.75 20.8284 16.4216 21.5 17.25 21.5Z" fill="black"/>
</svg>
