<svg width="24" height="24" viewBox="0 0 24 24" fill="none" xmlns="http://www.w3.org/2000/svg">
<path fill-rule="evenodd" clip-rule="evenodd" d="M2 6C2 4.89543 2.89543 4 4 4H20C21.1046 4 22 4.89543 22 6V9.17071C22 9.59452 21.7328 9.97231 21.3332 10.1135C20.5551 10.3886 20 11.1307 20 12C20 12.8693 20.5551 13.6114 21.3332 13.8865C21.7328 14.0277 22 14.4055 22 14.8293V18C22 19.1046 21.1046 20 20 20H4C2.89543 20 2 19.1046 2 18V14.8293C2 14.4055 2.26716 14.0277 2.66675 13.8865C3.4449 13.6114 4 12.8693 4 12C4 11.1307 3.4449 10.3886 2.66675 10.1135C2.26716 9.97231 2 9.59452 2 9.17071V6ZM14 8C14 7.44772 14.4477 7 15 7C15.5523 7 16 7.44772 16 8C16 8.55228 15.5523 9 15 9C14.4477 9 14 8.55228 14 8ZM14 12C14 11.4477 14.4477 11 15 11C15.5523 11 16 11.4477 16 12C16 12.5523 15.5523 13 15 13C14.4477 13 14 12.5523 14 12ZM15 15C14.4477 15 14 15.4477 14 16C14 16.5523 14.4477 17 15 17C15.5523 17 16 16.5523 16 16C16 15.4477 15.5523 15 15 15Z" fill="black"/>
</svg>
