<svg width="24" height="24" viewBox="0 0 24 24" fill="none" xmlns="http://www.w3.org/2000/svg">
<g clip-path="url(#clip0_2568_25488)">
<path d="M15.2974 14.4282L20.0603 13.152C20.8248 12.9471 21.6106 13.4008 21.8154 14.1653C22.0164 14.9154 21.585 15.6879 20.8385 15.902C19.139 16.3894 16.1651 17.2201 13.9804 17.7093C12.893 17.9528 11.5934 18.203 10.346 18.4281C7.70213 18.9052 5.19896 17.1363 4.69028 14.4983L4.04714 11.163C3.83647 10.0705 3.99624 8.93887 4.50116 7.94735L8.03906 1L8.51571 1.27519C9.54244 1.86797 10.1238 3.00982 9.99907 4.18881L9.68618 7.14711L11.7352 6.59808M11.7352 6.59808L13.1014 6.23205C13.8559 6.0299 14.6313 6.47761 14.8335 7.23205C15.0356 7.98648 14.5879 8.76195 13.8335 8.9641L12.4674 9.33012C11.713 9.53227 10.9375 9.08456 10.7354 8.33012C10.5332 7.57569 10.9808 6.80023 11.7352 6.59808ZM13.8825 11.8792L15.2485 11.5131C16.003 11.311 16.4507 10.5355 16.2485 9.78108C16.0464 9.02665 15.2709 8.57893 14.5165 8.78108L13.1505 9.14711C12.396 9.34926 11.9483 10.1247 12.1505 10.8792C12.3526 11.6336 13.1281 12.0813 13.8825 11.8792ZM13.8825 11.8792L15.9315 11.3301C16.686 11.128 17.4614 11.5757 17.6636 12.3301C17.8657 13.0846 17.418 13.86 16.6636 14.0622L14.6146 14.6112C13.8601 14.8134 13.0847 14.3656 12.8825 13.6112C12.6804 12.8568 13.1281 12.0813 13.8825 11.8792Z" stroke="black" stroke-width="2" stroke-linecap="round" stroke-linejoin="round"/>
</g>
<defs>
<clipPath id="clip0_2568_25488">
<rect width="24" height="24" fill="white"/>
</clipPath>
</defs>
</svg>
