<svg width="24" height="24" viewBox="0 0 24 24" fill="none" xmlns="http://www.w3.org/2000/svg">
<path d="M19 8.99915V16.9992M15 16.9992V8.99915M5 8.99915V16.9992M9 16.9992V8.99915M3.55279 6.72276L11.5528 2.72276C11.8343 2.582 12.1657 2.582 12.4472 2.72276L20.4472 6.72276C20.786 6.89215 21 7.23842 21 7.61719V7.99915C21 8.55144 20.5523 8.99915 20 8.99915H4C3.44772 8.99915 3 8.55144 3 7.99915V7.61719C3 7.23842 3.214 6.89215 3.55279 6.72276ZM4.38743 19.9992H19.6126C20.2951 19.9992 20.7771 19.3305 20.5613 18.6829L20.2279 17.6829C20.0918 17.2746 19.7097 16.9992 19.2792 16.9992H4.72076C4.29033 16.9992 3.90819 17.2746 3.77208 17.6829L3.43874 18.6829C3.2229 19.3305 3.70487 19.9992 4.38743 19.9992Z" stroke="black" stroke-width="2" stroke-linecap="square"/>
</svg>
