<svg width="24" height="24" viewBox="0 0 24 24" fill="none" xmlns="http://www.w3.org/2000/svg">
<path d="M12 9V12L13.5 13.5M6 19H18C18.5523 19 19 18.5523 19 18V6C19 5.44772 18.5523 5 18 5H6C5.44772 5 5 5.44772 5 6V18C5 18.5523 5.44772 19 6 19ZM7 5L7.77208 2.68377C7.90819 2.27543 8.29033 2 8.72076 2H15.2792C15.7097 2 16.0918 2.27543 16.2279 2.68377L17 5H7ZM7 19L7.77208 21.3162C7.90819 21.7246 8.29033 22 8.72076 22H15.2792C15.7097 22 16.0918 21.7246 16.2279 21.3162L17 19H7Z" stroke="black" stroke-width="2" stroke-linecap="round" stroke-linejoin="round"/>
</svg>
