<svg width="24" height="24" viewBox="0 0 24 24" fill="none" xmlns="http://www.w3.org/2000/svg">
<path d="M15.2071 2.29289C15.5976 2.68342 15.5976 3.31658 15.2071 3.70711L14.4142 4.5H16.5C17.6046 4.5 18.5 5.39543 18.5 6.5V15.1449C19.9457 15.5752 21 16.9145 21 18.5C21 20.433 19.433 22 17.5 22C15.567 22 14 20.433 14 18.5C14 16.9145 15.0543 15.5752 16.5 15.1449V6.5H14.4142L15.2071 7.29289C15.5976 7.68342 15.5976 8.31658 15.2071 8.70711C14.8166 9.09763 14.1834 9.09763 13.7929 8.70711L11.2929 6.20711C10.9024 5.81658 10.9024 5.18342 11.2929 4.79289L13.7929 2.29289C14.1834 1.90237 14.8166 1.90237 15.2071 2.29289Z" fill="black"/>
<path d="M3 5.5C3 3.567 4.567 2 6.5 2C8.433 2 10 3.567 10 5.5C10 7.08551 8.94574 8.42479 7.5 8.85506V15.1449C8.94574 15.5752 10 16.9145 10 18.5C10 20.433 8.433 22 6.5 22C4.567 22 3 20.433 3 18.5C3 16.9145 4.05426 15.5752 5.5 15.1449V8.85506C4.05426 8.42479 3 7.08551 3 5.5Z" fill="black"/>
</svg>
