<svg width="24" height="24" viewBox="0 0 24 24" fill="none" xmlns="http://www.w3.org/2000/svg">
<path fill-rule="evenodd" clip-rule="evenodd" d="M15 18C15 18.5523 14.5523 19 14 19H3C2.44771 19 2 18.5523 2 18C2 17.4477 2.44771 17 3 17H14C14.5523 17 15 17.4477 15 18ZM15 12C15 12.5523 14.5523 13 14 13H3C2.44771 13 2 12.5523 2 12C2 11.4477 2.44771 11 3 11H14C14.5523 11 15 11.4477 15 12ZM15 6C15 6.55229 14.5523 7 14 7H3C2.44771 7 2 6.55229 2 6C2 5.44771 2.44771 5 3 5H14C14.5523 5 15 5.44771 15 6Z" fill="black"/>
<path d="M22 9.78012V14.2199C22 15.0559 21.0864 15.5425 20.4281 15.0571L17.4171 12.8373C16.861 12.4272 16.861 11.5728 17.4171 11.1627L20.4281 8.94286C21.0864 8.4575 22 8.94411 22 9.78012Z" fill="black"/>
</svg>
