<svg width="24" height="24" viewBox="0 0 24 24" fill="none" xmlns="http://www.w3.org/2000/svg">
<path d="M18.889 18.7918L21.3753 20.7809C21.8066 21.1259 22.4359 21.056 22.7809 20.6247C23.1259 20.1935 23.056 19.5642 22.6247 19.2192L2.62473 3.21917C2.19347 2.87416 1.56418 2.94408 1.21917 3.37534C0.874158 3.8066 0.94408 4.4359 1.37534 4.78091L3.06835 6.13531C3.02358 6.30201 3 6.47614 3 6.65405V13C3 17.9706 7.02944 22 12 22C14.7646 22 17.2381 20.7535 18.889 18.7918Z" fill="black"/>
<path d="M21 13C21 13.741 20.9105 14.461 20.7416 15.1499L6.54696 3.79423L11.1984 1.75924C11.7094 1.53566 12.2906 1.53566 12.8016 1.75924L19.8016 4.82174C20.5296 5.14023 21 5.85946 21 6.65405V13Z" fill="black"/>
</svg>
