<svg width="24" height="24" viewBox="0 0 24 24" fill="none" xmlns="http://www.w3.org/2000/svg">
<path fill-rule="evenodd" clip-rule="evenodd" d="M11.9998 4C16.0954 3.99997 20.0652 6.43919 22.6278 11.0551C22.9529 11.6406 22.9529 12.3593 22.6278 12.9448C20.0652 17.5607 16.0954 20 11.9998 20C7.90411 20 3.93427 17.5608 1.37172 12.9449C1.04667 12.3594 1.04667 11.6407 1.37172 11.0552C3.93427 6.4393 7.9041 4.00003 11.9998 4ZM8.49976 12C8.49976 10.067 10.0668 8.5 11.9998 8.5C13.9328 8.5 15.4998 10.067 15.4998 12C15.4998 13.933 13.9328 15.5 11.9998 15.5C10.0668 15.5 8.49976 13.933 8.49976 12Z" fill="black"/>
</svg>
