<svg width="460" height="460" viewBox="0 0 460 460" fill="none" xmlns="http://www.w3.org/2000/svg">
<rect width="460" height="460" fill="black"/>
<path fill-rule="evenodd" clip-rule="evenodd" d="M92.5556 196.582C82.4704 192.711 77.4331 181.397 81.3044 171.312C85.1758 161.227 96.4898 156.189 106.575 160.061L179.376 188.007C179.457 188.039 179.538 188.07 179.619 188.102L216.14 202.121C226.226 205.992 237.539 200.955 241.411 190.87C245.282 180.785 240.245 169.47 230.16 165.599L230.155 165.598L230.159 165.595L193.638 151.576C183.552 147.705 178.515 136.391 182.387 126.306C186.258 116.22 197.572 111.183 207.657 115.054L315.075 156.288C315.331 156.387 315.585 156.49 315.836 156.598C316.297 156.768 316.761 156.942 317.222 157.119C367.648 176.476 392.835 233.046 373.477 283.471C354.12 333.898 297.551 359.083 247.125 339.727C246.154 339.355 245.193 338.968 244.241 338.569C243.779 338.428 243.319 338.272 242.861 338.096L137.56 297.675C127.475 293.803 122.438 282.489 126.309 272.404C130.18 262.319 141.494 257.281 151.58 261.153L188.096 275.17L188.094 275.162L188.102 275.165C198.187 279.037 209.501 273.999 213.372 263.914C217.243 253.829 212.206 242.515 202.121 238.644L185.686 232.335L185.687 232.332L92.5556 196.582Z" fill="white"/>
</svg>
