<svg width="24" height="24" viewBox="0 0 24 24" fill="none" xmlns="http://www.w3.org/2000/svg">
<path d="M13.5859 3.00009C14.367 2.21904 15.6333 2.21905 16.4144 3.00009L21.0002 7.58588C21.7812 8.36693 21.7812 9.63326 21.0002 10.4143L10.4144 21.0001C9.63332 21.7811 8.36699 21.7811 7.58594 21.0001L3.00015 16.4143C2.2191 15.6333 2.21911 14.3669 3.00015 13.5859L4.58594 12.0001L5.5429 12.957C5.93342 13.3476 6.56659 13.3476 6.95711 12.957C7.34763 12.5665 7.34763 11.9334 6.95711 11.5428L6.00015 10.5859L7.58594 9.00009L10.5429 11.957C10.9334 12.3476 11.5666 12.3476 11.9571 11.957C12.3476 11.5665 12.3476 10.9334 11.9571 10.5428L9.00015 7.58588L10.5859 6.00009L11.5429 6.95705C11.9334 7.34757 12.5666 7.34757 12.9571 6.95705C13.3476 6.56653 13.3476 5.93336 12.9571 5.54284L12.0002 4.58588L13.5859 3.00009Z" fill="black"/>
</svg>
