<svg width="24" height="24" viewBox="0 0 24 24" fill="none" xmlns="http://www.w3.org/2000/svg">
<path fill-rule="evenodd" clip-rule="evenodd" d="M4 4C4 2.89543 4.89543 2 6 2H18C19.1046 2 20 2.89543 20 4V12.1707C19.6872 12.0602 19.3506 12 19 12C17.3431 12 16 13.3431 16 15C14.3431 15 13 16.3431 13 18C13 19.6569 14.3431 21 16 21C16 21.3506 16.0602 21.6872 16.1707 22H6C4.89543 22 4 21.1046 4 20V4ZM7 6C7 5.44772 7.44772 5 8 5H14C14.5523 5 15 5.44772 15 6C15 6.55228 14.5523 7 14 7H8C7.44772 7 7 6.55228 7 6ZM7 10C7 9.44772 7.44772 9 8 9H10C10.5523 9 11 9.44772 11 10C11 10.5523 10.5523 11 10 11H8C7.44772 11 7 10.5523 7 10Z" fill="black"/>
<path d="M20 15C20 14.4477 19.5523 14 19 14C18.4477 14 18 14.4477 18 15V17H16C15.4477 17 15 17.4477 15 18C15 18.5523 15.4477 19 16 19H18V21C18 21.5523 18.4477 22 19 22C19.5523 22 20 21.5523 20 21V19H22C22.5523 19 23 18.5523 23 18C23 17.4477 22.5523 17 22 17H20V15Z" fill="black"/>
</svg>
