<svg width="24" height="24" viewBox="0 0 24 24" fill="none" xmlns="http://www.w3.org/2000/svg">
<path fill-rule="evenodd" clip-rule="evenodd" d="M9.90977 3.54029C9.90977 2.23594 11.4186 1.51079 12.4371 2.3256L17.7339 6.56307C18.5123 7.1858 18.5123 8.36971 17.7339 8.99244L13.9745 12L17.7339 15.0075C18.5123 15.6302 18.5123 16.8142 17.7339 17.4369L12.4371 21.6743C11.4186 22.4892 9.90977 21.764 9.90977 20.4597V15.2517L6.34695 18.102C5.89173 18.4662 5.22748 18.3924 4.8633 17.9372C4.49913 17.4819 4.57293 16.8177 5.02815 16.4535L9.90977 12.5482V11.4517L5.02815 7.54645C4.57293 7.18227 4.49913 6.51802 4.8633 6.0628C5.22748 5.60758 5.89173 5.53377 6.34695 5.89795L9.90977 8.7482V3.54029ZM12.2848 10.6482L12.0209 10.4371V4.69619L15.8728 7.77775L12.2848 10.6482ZM12.2848 13.3517L12.0209 13.5629V19.3038L15.8728 16.2222L12.2848 13.3517Z" fill="black"/>
</svg>
