<svg width="24" height="24" viewBox="0 0 24 24" fill="none" xmlns="http://www.w3.org/2000/svg">
<path fill-rule="evenodd" clip-rule="evenodd" d="M6.5 3C4.567 3 3 4.567 3 6.5V17C3 19.2091 4.79086 21 7 21H19C20.1046 21 21 20.1046 21 19V10C21 8.89543 20.1046 8 19 8H17V4.75C17 3.7835 16.2165 3 15.25 3H6.5ZM15 8V5H6.5C5.67157 5 5 5.67157 5 6.5C5 7.32843 5.67157 8 6.5 8H15ZM15.5 15.75C16.1904 15.75 16.75 15.1904 16.75 14.5C16.75 13.8096 16.1904 13.25 15.5 13.25C14.8096 13.25 14.25 13.8096 14.25 14.5C14.25 15.1904 14.8096 15.75 15.5 15.75Z" fill="black"/>
</svg>
