<svg width="24" height="24" viewBox="0 0 24 24" fill="none" xmlns="http://www.w3.org/2000/svg">
<path fill-rule="evenodd" clip-rule="evenodd" d="M8.78899 2.29289C9.17952 1.90237 9.81268 1.90237 10.2032 2.29289L11.9961 4.08579L13.789 2.29289C14.1795 1.90237 14.8127 1.90237 15.2032 2.29289C15.5937 2.68342 15.5937 3.31658 15.2032 3.70711L12.9961 5.91421V10.2687L16.7678 8.09106L17.5757 5.07609C17.7186 4.54263 18.2669 4.22604 18.8004 4.36899C19.3339 4.51193 19.6505 5.06027 19.5075 5.59373L18.8513 8.04287L21.3004 8.69911C21.8339 8.84205 22.1505 9.39039 22.0075 9.92386C21.8646 10.4573 21.3162 10.7739 20.7828 10.631L17.7678 9.82311L13.9974 12L17.7678 14.1768L20.7828 13.369C21.3162 13.226 21.8646 13.5426 22.0075 14.0761C22.1505 14.6096 21.8339 15.1579 21.3004 15.3008L18.8513 15.9571L19.5075 18.4062C19.6505 18.9397 19.3339 19.488 18.8004 19.631C18.2669 19.7739 17.7186 19.4573 17.5757 18.9239L16.7678 15.9089L12.9961 13.7313V18.0858L15.2032 20.2929C15.5937 20.6834 15.5937 21.3166 15.2032 21.7071C14.8127 22.0976 14.1795 22.0976 13.789 21.7071L11.9961 19.9142L10.2032 21.7071C9.81268 22.0976 9.17952 22.0976 8.78899 21.7071C8.39847 21.3166 8.39847 20.6834 8.78899 20.2929L10.9961 18.0858V13.7328L7.22691 15.9089L6.41905 18.9239C6.27611 19.4573 5.72778 19.7739 5.19431 19.631C4.66084 19.488 4.34426 18.9397 4.4872 18.4062L5.14345 15.9571L2.69431 15.3008C2.16084 15.1579 1.84426 14.6096 1.9872 14.0761C2.13014 13.5426 2.67848 13.226 3.21195 13.369L6.22691 14.1768L9.99736 12L6.22691 9.82311L3.21195 10.631C2.67848 10.7739 2.13015 10.4573 1.9872 9.92386C1.84426 9.39039 2.16084 8.84205 2.69431 8.69911L5.14345 8.04287L4.4872 5.59373C4.34426 5.06027 4.66084 4.51193 5.19431 4.36899C5.72778 4.22604 6.27611 4.54263 6.41905 5.07609L7.22691 8.09106L10.9961 10.2672V5.91421L8.78899 3.70711C8.39847 3.31658 8.39847 2.68342 8.78899 2.29289Z" fill="black"/>
</svg>
