<svg width="24" height="24" viewBox="0 0 24 24" fill="none" xmlns="http://www.w3.org/2000/svg">
<path d="M3 11V10C2.44772 10 2 10.4477 2 11H3ZM21 11H22C22 10.4477 21.5523 10 21 10V11ZM13.0039 6C12.4516 6 12.0039 6.44772 12.0039 7C12.0039 7.55228 12.4516 8 13.0039 8V6ZM5.22304 5.22609L4.44217 4.60139L4.44217 4.60139L5.22304 5.22609ZM6.70366 3.37531L7.48453 4V4L6.70366 3.37531ZM8.30415 3.3753L7.52328 4V4L8.30415 3.3753ZM9.78477 5.22609L9.00391 5.85078L9.78477 5.22609ZM3 12H21V10H3V12ZM20 11V19H22V11H20ZM20 19H4V21H20V19ZM4 19V11H2V19H4ZM4 19H4H2C2 20.1046 2.89543 21 4 21V19ZM20 19V21C21.1046 21 22 20.1046 22 19H20ZM14 11V4H12V11H14ZM14 4H18V2H14V4ZM18 4V11H20V4H18ZM18 4H20C20 2.89543 19.1046 2 18 2V4ZM14 4V2C12.8954 2 12 2.89543 12 4H14ZM13.0039 8H15.0039V6H13.0039V8ZM6.00391 11V5.85078H4.00391V11H6.00391ZM6.00391 5.85078L7.48453 4L5.92279 2.75061L4.44217 4.60139L6.00391 5.85078ZM9.00391 5.85078V11H11.0039V5.85078H9.00391ZM7.48453 4H7.52328V2H7.48453V4ZM7.52328 4L9.00391 5.85078L10.5656 4.60139L9.08502 2.75061L7.52328 4ZM7.52328 4V4L9.08502 2.75061C8.70547 2.27618 8.13085 2 7.52328 2V4ZM11.0039 5.85078C11.0039 5.39664 10.8493 4.95602 10.5656 4.60139L9.00391 5.85078H9.00391H11.0039ZM7.48453 4H7.48453V2C6.87696 2 6.30234 2.27618 5.92279 2.75061L7.48453 4ZM6.00391 5.85078L4.44217 4.60139C4.15847 4.95602 4.00391 5.39664 4.00391 5.85078H6.00391Z" fill="black"/>
</svg>
