<svg width="24" height="24" viewBox="0 0 24 24" fill="none" xmlns="http://www.w3.org/2000/svg">
<path d="M9 3C9 2.44772 8.55228 2 8 2C7.44772 2 7 2.44772 7 3V4H5C3.89543 4 3 4.89543 3 6V19C3 20.1046 3.89543 21 5 21H11C11.5523 21 12 20.5523 12 20C12 19.4477 11.5523 19 11 19H5V10H19C19 10.5523 19.4477 11 20 11C20.5523 11 21 10.5523 21 10V6C21 4.89543 20.1046 4 19 4H17V3C17 2.44772 16.5523 2 16 2C15.4477 2 15 2.44772 15 3V4H9V3Z" fill="black"/>
<path fill-rule="evenodd" clip-rule="evenodd" d="M21.4142 14C20.6332 13.219 19.3668 13.2189 18.5858 14L14.5858 18C14.2107 18.3751 14 18.8838 14 19.4142V21C14 21.5523 14.4477 22 15 22H16.5858C17.1162 22 17.6249 21.7893 18 21.4142L22 17.4142C22.781 16.6332 22.781 15.3668 22 14.5858L21.4142 14Z" fill="black"/>
</svg>
