<svg width="24" height="24" viewBox="0 0 24 24" fill="none" xmlns="http://www.w3.org/2000/svg">
<path d="M7.17428 11.6021L9 5.82069L13.808 21.0461C14.1758 22.2109 15.8242 22.2109 16.192 21.0461L18.7329 12.9999L22 12.9999C22.5523 12.9999 23 12.5522 23 11.9999C23 11.4476 22.5523 10.9999 22 10.9999H18.7329C17.8603 10.9999 17.0885 11.5656 16.8257 12.3976L15 18.1791L10.192 2.95366C9.82415 1.78888 8.17585 1.78888 7.80802 2.95366L5.26711 10.9999H2C1.44772 10.9999 1 11.4476 1 11.9999C1 12.5522 1.44772 12.9999 2 12.9999H5.26711C6.13967 12.9999 6.91152 12.4342 7.17428 11.6021Z" fill="black"/>
</svg>
