<svg width="24" height="24" viewBox="0 0 24 24" fill="none" xmlns="http://www.w3.org/2000/svg">
<path d="M11.051 7.35969C11.3574 5.45493 13.0088 4 15 4C17.2091 4 19 5.79086 19 8C19 8.87735 18.7175 9.68873 18.2386 10.3482M11.051 7.35969C12.2287 7.78803 13.2343 8.57473 13.936 9.58792C14.2597 10.0553 14.8744 10.2639 15.4267 10.1288C15.7706 10.0446 16.1301 10 16.5 10C17.1163 10 17.7037 10.1239 18.2386 10.3482M11.051 7.35969C10.4111 7.12695 9.72036 7 9 7C5.68629 7 3 9.68629 3 13C3 16.3137 5.68629 19 9 19H16.5C18.9853 19 21 16.9853 21 14.5C21 12.631 19.8606 11.0282 18.2386 10.3482" stroke="black" stroke-width="2" stroke-linejoin="round"/>
</svg>
