<svg width="24" height="24" viewBox="0 0 24 24" fill="none" xmlns="http://www.w3.org/2000/svg">
<path d="M4.54601 19.891L5 19L5 19L4.54601 19.891ZM4.10899 19.454L3.21799 19.908L3.21799 19.908L4.10899 19.454ZM19.891 19.454L19 19L19 19L19.891 19.454ZM19.454 19.891L19 19L19 19L19.454 19.891ZM19.891 4.54601L19 5L19 5L19.891 4.54601ZM19.454 4.10899L19.908 3.21799L19.908 3.21799L19.454 4.10899ZM4.10899 4.54601L3.21799 4.09202L3.21799 4.09202L4.10899 4.54601ZM4.54601 4.10899L4.09202 3.21799L4.09202 3.21799L4.54601 4.10899ZM15.497 9.93642C15.9743 10.2142 16.5865 10.0525 16.8643 9.57515C17.1421 9.09782 16.9803 8.48567 16.503 8.20786L15.497 9.93642ZM7.49699 8.20786C7.01966 8.48567 6.85791 9.09782 7.13572 9.57515C7.41353 10.0525 8.02568 10.2142 8.50301 9.93642L7.49699 8.20786ZM12 11.75L12 10.75L12 11.75ZM13.5705 13.102C14.0693 13.3392 14.6659 13.1272 14.9031 12.6284C15.1403 12.1297 14.9282 11.5331 14.4295 11.2959L13.5705 13.102ZM9.57094 11.2959C9.07222 11.5332 8.86027 12.1298 9.09753 12.6285C9.3348 13.1273 9.93143 13.3392 10.4302 13.102L9.57094 11.2959ZM19 5.6V18.4H21V5.6H19ZM18.4 19H5.6V21H18.4V19ZM5 18.4V5.6H3V18.4H5ZM5.6 5H18.4V3H5.6V5ZM5.6 19C5.30347 19 5.14122 18.9992 5.02463 18.9897C4.91972 18.9811 4.94249 18.9707 5 19L4.09202 20.782C4.36344 20.9203 4.63318 20.9644 4.86177 20.9831C5.07869 21.0008 5.33647 21 5.6 21V19ZM3 18.4C3 18.6635 2.99922 18.9213 3.01695 19.1382C3.03562 19.3668 3.07969 19.6366 3.21799 19.908L5 19C5.0293 19.0575 5.01887 19.0803 5.0103 18.9754C5.00078 18.8588 5 18.6965 5 18.4H3ZM5 19L5 19L3.21799 19.908C3.40973 20.2843 3.71569 20.5903 4.09202 20.782L5 19ZM19 18.4C19 18.6965 18.9992 18.8588 18.9897 18.9754C18.9811 19.0803 18.9707 19.0575 19 19L20.782 19.908C20.9203 19.6366 20.9644 19.3668 20.9831 19.1382C21.0008 18.9213 21 18.6635 21 18.4H19ZM18.4 21C18.6635 21 18.9213 21.0008 19.1382 20.9831C19.3668 20.9644 19.6366 20.9203 19.908 20.782L19 19C19.0575 18.9707 19.0803 18.9811 18.9754 18.9897C18.8588 18.9992 18.6965 19 18.4 19V21ZM19 19L19 19L19.908 20.782C20.2843 20.5903 20.5903 20.2843 20.782 19.908L19 19ZM21 5.6C21 5.33647 21.0008 5.07869 20.9831 4.86177C20.9644 4.63318 20.9203 4.36344 20.782 4.09202L19 5C18.9707 4.94249 18.9811 4.91972 18.9897 5.02463C18.9992 5.14122 19 5.30347 19 5.6H21ZM18.4 5C18.6965 5 18.8588 5.00078 18.9754 5.0103C19.0803 5.01887 19.0575 5.0293 19 5L19.908 3.21799C19.6366 3.07969 19.3668 3.03562 19.1382 3.01695C18.9213 2.99922 18.6635 3 18.4 3V5ZM20.782 4.09202C20.5903 3.71569 20.2843 3.40973 19.908 3.21799L19 5L19 5L20.782 4.09202ZM5 5.6C5 5.30347 5.00078 5.14122 5.0103 5.02463C5.01887 4.91972 5.0293 4.94249 5 5L3.21799 4.09202C3.07969 4.36344 3.03562 4.63318 3.01695 4.86177C2.99922 5.07869 3 5.33647 3 5.6H5ZM5.6 3C5.33647 3 5.07869 2.99922 4.86177 3.01695C4.63318 3.03562 4.36344 3.07969 4.09202 3.21799L5 5C4.94249 5.0293 4.91972 5.01887 5.02463 5.0103C5.14122 5.00078 5.30347 5 5.6 5V3ZM5 5L4.09202 3.21799C3.71569 3.40973 3.40973 3.71569 3.21799 4.09202L5 5ZM16.503 8.20786C15.1173 7.40138 13.557 7 12 7V9C13.2149 9 14.4265 9.31338 15.497 9.93642L16.503 8.20786ZM12 7C10.443 7 8.88269 7.40138 7.49699 8.20786L8.50301 9.93642C9.57353 9.31338 10.7851 9 12 9V7ZM12 12.75C12.5403 12.75 13.0785 12.8681 13.5705 13.102L14.4295 11.2959C13.6627 10.9312 12.8302 10.75 12 10.75L12 12.75ZM10.4302 13.102C10.9218 12.8681 11.4598 12.75 12 12.75L12 10.75C11.1698 10.75 10.3375 10.9312 9.57094 11.2959L10.4302 13.102Z" fill="black"/>
<path d="M11.1255 15.75C11.1255 16.2332 11.5172 16.625 12.0005 16.625C12.4837 16.625 12.8755 16.2332 12.8755 15.75C12.8755 15.2668 12.4837 14.875 12.0005 14.875C11.5172 14.875 11.1255 15.2668 11.1255 15.75Z" fill="black" stroke="black" stroke-width="0.75" stroke-linecap="round" stroke-linejoin="round"/>
</svg>
