<svg width="24" height="24" viewBox="0 0 24 24" fill="none" xmlns="http://www.w3.org/2000/svg">
<g clip-path="url(#clip0_1686_40507)">
<circle cx="10" cy="14.1406" r="2" fill="black"/>
<path d="M18.0856 11.7115L14.5613 19.1488C14.416 19.4554 14.1252 19.6674 13.7889 19.7119L2.99983 21.1405M18.0856 11.7115L12.4288 6.05468M18.0856 11.7115L18.7927 12.4186C19.1833 12.8092 19.8164 12.8092 20.2069 12.4186L21.2927 11.3329C21.6833 10.9423 21.6833 10.3092 21.2927 9.91865L14.2217 2.84758C13.8311 2.45706 13.198 2.45706 12.8075 2.84758L11.7217 3.93336C11.3311 4.32389 11.3311 4.95705 11.7217 5.34758L12.4288 6.05468M2.99983 21.1405L4.35966 10.2923C4.40263 9.94945 4.61957 9.65308 4.93339 9.50847L12.4288 6.05468M2.99983 21.1405L9.99983 14.1405" stroke="black" stroke-width="2" stroke-linecap="round" stroke-linejoin="round"/>
</g>
<defs>
<clipPath id="clip0_1686_40507">
<rect width="24" height="24" fill="white"/>
</clipPath>
</defs>
</svg>
