<svg width="24" height="24" viewBox="0 0 24 24" fill="none" xmlns="http://www.w3.org/2000/svg">
<path d="M19 11V4C19 3.44772 18.5523 3 18 3H5C4.44772 3 4 3.44772 4 4V20C4 20.5523 4.44772 21 5 21H10.5M8 15H9M8 7H15M8 11H11M19.1213 20.1213C17.9497 21.2929 16.0503 21.2929 14.8787 20.1213C13.7071 18.9497 13.7071 17.0502 14.8787 15.8786C16.0503 14.7071 17.9497 14.7071 19.1213 15.8786C20.2929 17.0502 20.2929 18.9497 19.1213 20.1213ZM19.1213 20.1213L21 22" stroke="black" stroke-width="2" stroke-linecap="round" stroke-linejoin="round"/>
</svg>
