<svg width="24" height="24" viewBox="0 0 24 24" fill="none" xmlns="http://www.w3.org/2000/svg">
<path d="M2 16V15C1.44772 15 1 15.4477 1 16H2ZM13 17H14V15H13V17ZM19 9V10H21V9H19ZM17 17C16.4477 17 16 17.4477 16 18C16 18.5523 16.4477 19 17 19V17ZM18 19C18.5523 19 19 18.5523 19 18C19 17.4477 18.5523 17 18 17V19ZM5 5H19V3H5V5ZM5 16V5H3V16H5ZM2 17H4V15H2V17ZM4 17H13V15H4V17ZM13 19H3V21H13V19ZM3 19V16H1V19H3ZM19 5V9H21V5H19ZM3 19H3H1C1 20.1046 1.89543 21 3 21V19ZM19 5H21C21 3.89543 20.1046 3 19 3V5ZM5 3C3.89543 3 3 3.89543 3 5H5V5V3ZM14 10H21V8H14V10ZM21 10V20H23V10H21ZM21 20H14V22H21V20ZM14 20V10H12V20H14ZM17 19H18V17H17V19ZM14 20H12C12 21.1046 12.8954 22 14 22V20ZM21 20V22C22.1046 22 23 21.1046 23 20H21ZM21 10H23C23 8.89543 22.1046 8 21 8V10ZM14 8C12.8954 8 12 8.89543 12 10H14V8Z" fill="black"/>
</svg>
