<svg width="24" height="24" viewBox="0 0 24 24" fill="none" xmlns="http://www.w3.org/2000/svg">
<path d="M3.00001 9V5C3.00001 4.44772 3.44772 4 4.00001 4H9.46482C9.79918 4 10.1114 4.1671 10.2969 4.4453L11.7031 6.5547C11.8886 6.8329 12.2008 7 12.5352 7H20C20.5523 7 21 7.44772 21 8V18C21 18.5523 20.5523 19 20 19H13M8.82843 18.8284C10.3905 17.2663 10.3905 14.7337 8.82843 13.1716C7.26633 11.6095 4.73367 11.6095 3.17157 13.1716M8.82843 18.8284C7.26633 20.3905 4.73367 20.3905 3.17157 18.8284C1.60948 17.2663 1.60948 14.7337 3.17157 13.1716M8.82843 18.8284L3.17157 13.1716" stroke="black" stroke-width="2" stroke-linecap="round" stroke-linejoin="round"/>
</svg>
