<svg width="24" height="24" viewBox="0 0 24 24" fill="none" xmlns="http://www.w3.org/2000/svg">
<path fill-rule="evenodd" clip-rule="evenodd" d="M14.2425 3.02985C14.7783 3.1638 15.1041 3.70673 14.9701 4.24253L10.9701 20.2426C10.8362 20.7784 10.2932 21.1041 9.75744 20.9702C9.22164 20.8362 8.89588 20.2933 9.02983 19.7575L13.0298 3.75746C13.1638 3.22166 13.7067 2.8959 14.2425 3.02985ZM6.70708 7.29293C7.0976 7.68345 7.0976 8.31662 6.70708 8.70714L3.41418 12L6.70708 15.2929C7.0976 15.6834 7.0976 16.3166 6.70708 16.7071C6.31655 17.0977 5.68339 17.0977 5.29286 16.7071L1.99997 13.4142C1.21892 12.6332 1.21892 11.3669 1.99997 10.5858L5.29286 7.29293C5.68339 6.9024 6.31655 6.9024 6.70708 7.29293ZM17.2929 7.29293C17.6834 6.9024 18.3166 6.9024 18.7071 7.29293L22 10.5858C22.781 11.3669 22.781 12.6332 22 13.4142L18.7071 16.7071C18.3166 17.0977 17.6834 17.0977 17.2929 16.7071C16.9023 16.3166 16.9023 15.6834 17.2929 15.2929L20.5858 12L17.2929 8.70714C16.9023 8.31662 16.9023 7.68345 17.2929 7.29293Z" fill="black"/>
</svg>
