<svg width="24" height="24" viewBox="0 0 24 24" fill="none" xmlns="http://www.w3.org/2000/svg">
<path fill-rule="evenodd" clip-rule="evenodd" d="M12.8944 1.82931C12.3314 1.54778 11.6686 1.54778 11.1056 1.82931L3.10557 5.82931C2.428 6.16809 2 6.86062 2 7.61816V8.00013C2 9.1047 2.89543 10.0001 4 10.0001V16.1346C3.45526 16.3455 3.01672 16.79 2.82422 17.3675L2.49089 18.3675C2.0592 19.6626 3.02314 21 4.38825 21H19.6134C20.9785 21 21.9425 19.6626 21.5108 18.3675L21.1774 17.3675C20.9847 16.7895 20.5455 16.3446 20 16.134V10.0001C21.1046 10.0001 22 9.1047 22 8.00013V7.61816C22 6.86062 21.572 6.16809 20.8944 5.82931L12.8944 1.82931ZM18 10.0001H16V16H18V10.0001ZM14 16V10.0001H10V16H14ZM8 16V10.0001H6V16H8Z" fill="black"/>
</svg>
