<svg width="24" height="24" viewBox="0 0 24 24" fill="none" xmlns="http://www.w3.org/2000/svg">
<path d="M12.7071 2.29289C12.3166 1.90237 11.6834 1.90237 11.2929 2.29289L9.29289 4.29289C8.90237 4.68342 8.90237 5.31658 9.29289 5.70711C9.68342 6.09763 10.3166 6.09763 10.7071 5.70711L12 4.41421L13.2929 5.70711C13.6834 6.09763 14.3166 6.09763 14.7071 5.70711C15.0976 5.31658 15.0976 4.68342 14.7071 4.29289L12.7071 2.29289Z" fill="black"/>
<path fill-rule="evenodd" clip-rule="evenodd" d="M1 10C1 8.89543 1.89543 8 3 8H21C22.1046 8 23 8.89543 23 10V20C23 21.1046 22.1046 22 21 22H3C1.89543 22 1 21.1046 1 20V10ZM4.75 13C4.75 13.6904 5.30964 14.25 6 14.25C6.69036 14.25 7.25 13.6904 7.25 13C7.25 12.3096 6.69036 11.75 6 11.75C5.30964 11.75 4.75 12.3096 4.75 13ZM10 16C9.44771 16 9 16.4477 9 17C9 17.5523 9.44771 18 10 18H14C14.5523 18 15 17.5523 15 17C15 16.4477 14.5523 16 14 16H10ZM16.75 13C16.75 13.6904 17.3096 14.25 18 14.25C18.6904 14.25 19.25 13.6904 19.25 13C19.25 12.3096 18.6904 11.75 18 11.75C17.3096 11.75 16.75 12.3096 16.75 13ZM14 14.25C13.3096 14.25 12.75 13.6904 12.75 13C12.75 12.3096 13.3096 11.75 14 11.75C14.6904 11.75 15.25 12.3096 15.25 13C15.25 13.6904 14.6904 14.25 14 14.25ZM8.75 13C8.75 13.6904 9.30964 14.25 10 14.25C10.6904 14.25 11.25 13.6904 11.25 13C11.25 12.3096 10.6904 11.75 10 11.75C9.30964 11.75 8.75 12.3096 8.75 13ZM6 18.25C5.30964 18.25 4.75 17.6904 4.75 17C4.75 16.3096 5.30964 15.75 6 15.75C6.69036 15.75 7.25 16.3096 7.25 17C7.25 17.6904 6.69036 18.25 6 18.25ZM16.75 17C16.75 17.6904 17.3096 18.25 18 18.25C18.6904 18.25 19.25 17.6904 19.25 17C19.25 16.3096 18.6904 15.75 18 15.75C17.3096 15.75 16.75 16.3096 16.75 17Z" fill="black"/>
</svg>
