<svg width="24" height="24" viewBox="0 0 24 24" fill="none" xmlns="http://www.w3.org/2000/svg">
<path d="M11.5097 3.27588C11.8142 3.10465 12.1858 3.10465 12.4903 3.27588L19.4903 7.21334C19.8052 7.39045 20 7.72364 20 8.08492V15.9152C20 16.2765 19.8052 16.6097 19.4903 16.7868L12.4902 20.7242C12.1858 20.8954 11.8142 20.8954 11.5097 20.7242L4.50977 16.7871C4.19487 16.61 4 16.2768 4 15.9155L4 8.08489C4 7.72362 4.19486 7.39043 4.50975 7.21331L11.5097 3.27588Z" stroke="black" stroke-width="2" stroke-linecap="square" stroke-linejoin="round"/>
<path d="M15 12.0001C15 13.657 13.6569 15.0001 12 15.0001C10.3432 15.0001 9.00003 13.657 9.00003 12.0001C9.00003 10.3433 10.3432 9.00012 12 9.00012C13.6569 9.00012 15 10.3433 15 12.0001Z" stroke="black" stroke-width="2" stroke-linecap="square" stroke-linejoin="round"/>
</svg>
