<svg width="24" height="24" viewBox="0 0 24 24" fill="none" xmlns="http://www.w3.org/2000/svg">
<path d="M20 5H4C3.44772 5 3 5.44772 3 6V18C3 18.5523 3.44772 19 4 19H20C20.5523 19 21 18.5523 21 18V6C21 5.44772 20.5523 5 20 5Z" stroke="black" stroke-width="2" stroke-linecap="square" stroke-linejoin="round"/>
<path d="M5.70967 15.1038C5.14937 15.1038 4.81319 14.7842 4.81319 14.2529C4.81319 14.0994 4.85884 13.8752 4.9377 13.6636L6.27827 9.96143C6.5356 9.23511 6.97139 8.90723 7.67281 8.90723C8.42403 8.90723 8.85567 9.22266 9.12544 9.96143L10.4785 13.6636C10.5615 13.8918 10.5947 14.0579 10.5947 14.2488C10.5947 14.7468 10.2253 15.1038 9.7148 15.1038C9.196 15.1038 8.92622 14.8672 8.77681 14.2861L8.67305 13.8794H6.72237L6.61861 14.2571C6.45259 14.8589 6.18697 15.1038 5.70967 15.1038ZM7.0544 12.5679H8.30367L7.68111 10.3931H7.6479L7.0544 12.5679Z" fill="black"/>
<path d="M12.0143 15C11.454 15 11.1344 14.668 11.1344 14.0786V9.82861C11.1344 9.23926 11.454 8.90723 12.0143 8.90723C12.5746 8.90723 12.8942 9.23926 12.8942 9.82861V13.5972H14.5502C15.015 13.5972 15.3263 13.8503 15.3263 14.2986C15.3263 14.7468 15.0233 15 14.5502 15H12.0143Z" fill="black"/>
<path d="M16.8335 15.1038C16.2732 15.1038 15.9537 14.7717 15.9537 14.1824V10.4138H15.0696C14.6048 10.4138 14.2935 10.1606 14.2935 9.7124C14.2935 9.26416 14.5965 9.01099 15.0696 9.01099H18.5975C19.0706 9.01099 19.3736 9.26416 19.3736 9.7124C19.3736 10.1606 19.0623 10.4138 18.5975 10.4138H17.7134V14.1824C17.7134 14.7717 17.3939 15.1038 16.8335 15.1038Z" fill="black"/>
</svg>
