<svg width="24" height="24" viewBox="0 0 24 24" fill="none" xmlns="http://www.w3.org/2000/svg">
<path fill-rule="evenodd" clip-rule="evenodd" d="M2 12C2 6.47715 6.47715 2 12 2C17.5228 2 22 6.47715 22 12C22 17.5228 17.5228 22 12 22C6.47715 22 2 17.5228 2 12ZM14.5237 8.24728C15.2702 8.04369 15.9552 8.72866 15.7516 9.47516L14.6322 13.5797C14.4924 14.0921 14.0921 14.4924 13.5797 14.6322L9.47516 15.7516C8.72866 15.9552 8.04369 15.2702 8.24728 14.5237L9.3667 10.4192C9.50645 9.90675 9.90675 9.50645 10.4192 9.3667L14.5237 8.24728Z" fill="black"/>
</svg>
