<svg width="24" height="24" viewBox="0 0 24 24" fill="none" xmlns="http://www.w3.org/2000/svg">
<path d="M6 2C4.89543 2 4 2.89543 4 4V20C4 21.1046 4.89543 22 6 22H16.1707C16.0602 21.6872 16 21.3506 16 21C14.3431 21 13 19.6569 13 18C13 16.3431 14.3431 15 16 15C16 13.3431 17.3431 12 19 12C19.3506 12 19.6872 12.0602 20 12.1707V4C20 2.89543 19.1046 2 18 2H6Z" fill="black"/>
<path d="M20 15C20 14.4477 19.5523 14 19 14C18.4477 14 18 14.4477 18 15V17H16C15.4477 17 15 17.4477 15 18C15 18.5523 15.4477 19 16 19H18V21C18 21.5523 18.4477 22 19 22C19.5523 22 20 21.5523 20 21V19H22C22.5523 19 23 18.5523 23 18C23 17.4477 22.5523 17 22 17H20V15Z" fill="black"/>
</svg>
