<svg width="24" height="24" viewBox="0 0 24 24" fill="none" xmlns="http://www.w3.org/2000/svg">
<path d="M20 5H4C3.44772 5 3 5.44772 3 6V18C3 18.5523 3.44772 19 4 19H20C20.5523 19 21 18.5523 21 18V6C21 5.44772 20.5523 5 20 5Z" stroke="black" stroke-width="2" stroke-linejoin="round"/>
<path d="M6 12.287C6 13.8269 6.91945 14.75 8.47937 14.75C9.91356 14.75 10.833 13.9432 10.833 12.6904V12.5236C10.833 11.9457 10.5658 11.6897 9.94892 11.6897H9.14342C8.72692 11.6897 8.51081 11.872 8.51081 12.225C8.51081 12.5818 8.73084 12.7757 9.14342 12.7757H9.2888V12.8378C9.2888 13.1985 8.99018 13.4468 8.55403 13.4468C7.95678 13.4468 7.65029 13.0472 7.65029 12.2793V11.7595C7.65029 10.9838 7.95678 10.6037 8.60118 10.6037C9.06483 10.6037 9.30059 10.914 9.61886 11.0807C9.73674 11.1467 9.87033 11.1894 10.0275 11.1894C10.4126 11.1894 10.6837 10.9256 10.6837 10.5532C10.6837 10.2003 10.4244 9.87447 10.0196 9.63787C9.611 9.39739 9.0609 9.25 8.47151 9.25C6.95481 9.25 6 10.2003 6 11.6703V12.287Z" fill="black"/>
<path d="M12.3576 14.6724C12.8841 14.6724 13.1709 14.3621 13.1709 13.7997V10.1731C13.1709 9.6146 12.8762 9.30042 12.3458 9.30042C11.8153 9.30042 11.5206 9.61072 11.5206 10.1731V13.7997C11.5206 14.3583 11.8232 14.6724 12.3576 14.6724Z" fill="black"/>
<path d="M14.9234 14.6724C15.442 14.6724 15.725 14.366 15.725 13.7997V12.8068H17.1945C17.556 12.8068 17.8035 12.5547 17.8035 12.1939C17.8035 11.8293 17.5599 11.5811 17.1945 11.5811H15.725V10.6075H17.391C17.7407 10.6075 18 10.3477 18 9.9792C18 9.61072 17.7407 9.33921 17.391 9.33921H14.8959C14.389 9.33921 14.0747 9.65339 14.0747 10.1654V13.7997C14.0747 14.3544 14.3851 14.6724 14.9234 14.6724Z" fill="black"/>
</svg>
