<svg width="24" height="24" viewBox="0 0 24 24" fill="none" xmlns="http://www.w3.org/2000/svg">
<path fill-rule="evenodd" clip-rule="evenodd" d="M5.14272 5.99999H18.857C19.3304 5.99999 19.7141 6.38375 19.7141 6.85713V17.1428C19.7141 17.6162 19.3304 18 18.857 18H5.14272C4.66933 18 4.28557 17.6162 4.28557 17.1428V6.85714C4.28557 6.38375 4.66933 5.99999 5.14272 5.99999ZM2.57129 6.85714C2.57129 5.43698 3.72256 4.28571 5.14272 4.28571H18.857C20.2772 4.28571 21.4284 5.43697 21.4284 6.85713V17.1428C21.4284 18.563 20.2772 19.7143 18.857 19.7143H5.14272C3.72256 19.7143 2.57129 18.563 2.57129 17.1428V6.85714ZM9.22631 11.2305C9.2052 11.1445 9.17192 11.069 9.12647 11.0041C9.08102 10.9375 9.0242 10.8815 8.95602 10.8361C8.88946 10.789 8.81153 10.7541 8.72225 10.7313C8.63459 10.707 8.538 10.6948 8.43248 10.6948C8.2052 10.6948 8.01121 10.7492 7.8505 10.858C7.69141 10.9667 7.56965 11.1234 7.48524 11.3279C7.40244 11.5325 7.36105 11.7792 7.36105 12.0682C7.36105 12.3604 7.40082 12.6104 7.48037 12.8182C7.55991 13.026 7.67842 13.1851 7.83589 13.2955C7.99335 13.4059 8.18897 13.4611 8.42274 13.4611C8.62891 13.4611 8.80017 13.431 8.93653 13.371C9.07452 13.3109 9.17761 13.2257 9.24579 13.1153C9.31024 13.0109 9.34423 12.8892 9.34775 12.75H8.44222V11.7857H10.6533V12.4773C10.6533 12.9318 10.5567 13.3206 10.3635 13.6437C10.1719 13.9651 9.90731 14.2119 9.56965 14.3839C9.23361 14.5544 8.84806 14.6396 8.413 14.6396C7.92761 14.6396 7.50147 14.5365 7.13459 14.3304C6.7677 14.1242 6.48118 13.8304 6.27501 13.4489C6.07046 13.0674 5.96819 12.6137 5.96819 12.0877C5.96819 11.6753 6.03069 11.3101 6.15569 10.9919C6.28231 10.6737 6.45764 10.4051 6.68166 10.1859C6.90569 9.96512 7.16462 9.79872 7.45845 9.68671C7.75228 9.57307 8.06722 9.51625 8.40326 9.51625C8.69871 9.51625 8.97306 9.55846 9.22631 9.64288C9.48118 9.72567 9.70602 9.84417 9.90082 9.99839C10.0972 10.151 10.2555 10.332 10.3757 10.5414C10.4958 10.7508 10.5688 10.9805 10.5948 11.2305H9.22631ZM13.3242 9.58443V14.5714H11.9703V9.58443H13.3242ZM14.6515 9.58443V14.5714H16.0054V12.6234H17.9437V11.5325H16.0054V10.6753H18.158V9.58443H14.6515Z" fill="black"/>
</svg>
