<svg width="24" height="24" viewBox="0 0 24 24" fill="none" xmlns="http://www.w3.org/2000/svg">
<path d="M4 3C2.89543 3 2 3.89543 2 5V11.4104C2.94697 10.8328 4.05962 10.5 5.25 10.5C6.92339 10.5 8.44209 11.1588 9.56098 12.2252C11.8386 12.8985 13.5 15.0038 13.5 17.5C13.5 18.4002 13.2837 19.2499 12.9003 20H20C21.1046 20 22 19.1046 22 18V8C22 6.89543 21.1046 6 20 6H12.5352L11.1289 3.8906C10.758 3.3342 10.1335 3 9.46482 3H4Z" fill="black"/>
<path fill-rule="evenodd" clip-rule="evenodd" d="M5.25 12.5C2.90279 12.5 1 14.4028 1 16.75C1 19.0972 2.90279 21 5.25 21H8C9.933 21 11.5 19.433 11.5 17.5C11.5 15.7446 10.2077 14.2911 8.52265 14.0388C7.74466 13.1005 6.56843 12.5 5.25 12.5ZM3 16.75C3 15.5074 4.00736 14.5 5.25 14.5C6.04608 14.5 6.74527 14.9122 7.14657 15.5391C7.33081 15.827 7.64927 16.0008 7.99101 16L8 16C8.82797 16.0005 9.5 16.6719 9.5 17.5C9.5 18.3284 8.82843 19 8 19H5.25C4.00736 19 3 17.9926 3 16.75Z" fill="black"/>
</svg>
