<svg width="24" height="24" viewBox="0 0 24 24" fill="none" xmlns="http://www.w3.org/2000/svg">
<path d="M12.4853 11.0905C12.1668 11.0109 11.8336 11.0109 11.5151 11.0905L4.61736 12.8149C1.64167 13.5588 3.90149 17.1112 4.78 18.5801L2.78328 19.0238C2.24415 19.1436 1.90422 19.6778 2.02403 20.2169C2.14383 20.756 2.67801 21.096 3.21714 20.9762L7.50021 20.0244L11.5664 20.928C11.8521 20.9915 12.1483 20.9915 12.4341 20.928L16.5002 20.0244L20.7833 20.9762C21.3224 21.096 21.8566 20.756 21.9764 20.2169C22.0962 19.6778 21.7563 19.1436 21.2171 19.0238L19.2204 18.5801C20.0989 17.1112 22.3588 13.5588 19.3831 12.8149L12.4853 11.0905Z" fill="black"/>
<path fill-rule="evenodd" clip-rule="evenodd" d="M9 3C9 2.44772 9.44772 2 10 2H14C14.5523 2 15 2.44772 15 3V6H17C18.1046 6 19 6.89543 19 8V10.6577L12.9699 9.15019C12.3329 8.99095 11.6666 8.99095 11.0296 9.15019L5 10.6576V8C5 6.89543 5.89543 6 7 6H9V3Z" fill="black"/>
</svg>
