<svg width="24" height="24" viewBox="0 0 24 24" fill="none" xmlns="http://www.w3.org/2000/svg">
<path fill-rule="evenodd" clip-rule="evenodd" d="M13.0859 2.5C13.8669 1.71895 15.1333 1.71895 15.9143 2.5L21.5001 8.08579C22.2811 8.86684 22.2811 10.1332 21.5001 10.9142L18.7072 13.7071C18.3167 14.0976 17.6835 14.0976 17.293 13.7071C16.9025 13.3166 16.9025 12.6834 17.293 12.2929L20.0859 9.5L14.5001 3.91422L11.7072 6.70711C11.3167 7.09763 10.6835 7.09763 10.293 6.70711C9.90246 6.31658 9.90246 5.68342 10.293 5.2929L13.0859 2.5ZM15.7072 8.2929C16.0977 8.68342 16.0977 9.31658 15.7072 9.70711L9.7072 15.7071C9.31668 16.0976 8.68351 16.0976 8.29299 15.7071C7.90246 15.3166 7.90246 14.6834 8.29299 14.2929L14.293 8.2929C14.6835 7.90237 15.3167 7.90237 15.7072 8.2929ZM6.7072 10.2929C7.09772 10.6834 7.09772 11.3166 6.7072 11.7071L3.91431 14.5L9.50009 20.0858L12.293 17.2929C12.6835 16.9024 13.3167 16.9024 13.7072 17.2929C14.0977 17.6834 14.0977 18.3166 13.7072 18.7071L10.9143 21.5C10.1333 22.2811 8.86693 22.2811 8.08588 21.5L2.50009 15.9142C1.71905 15.1332 1.71904 13.8668 2.50009 13.0858L5.29299 10.2929C5.68351 9.90237 6.31668 9.90237 6.7072 10.2929Z" fill="black"/>
</svg>
