<svg width="24" height="24" viewBox="0 0 24 24" fill="none" xmlns="http://www.w3.org/2000/svg">
<path fill-rule="evenodd" clip-rule="evenodd" d="M5 5.875C5 4.38026 6.17769 3 7.83333 3H12.8333C15.8697 3 18.1667 5.55551 18.1667 8.5C18.1667 9.58312 17.8559 10.6136 17.3118 11.4836C18.3611 12.5023 19 13.9471 19 15.5C19 18.4445 16.703 21 13.6667 21H7.83333C6.17769 21 5 19.6197 5 18.125V5.875ZM12.8333 10C13.4789 10 14.1667 9.4215 14.1667 8.5C14.1667 7.5785 13.4789 7 12.8333 7H9V10H12.8333ZM9 14H13.6667C14.3122 14 15 14.5785 15 15.5C15 16.4215 14.3122 17 13.6667 17H9V14Z" fill="black"/>
</svg>
