<svg width="24" height="24" viewBox="0 0 24 24" fill="none" xmlns="http://www.w3.org/2000/svg">
<path d="M6 3C4.34315 3 3 4.34315 3 6C3 7.65685 4.34315 9 6 9C7.65685 9 9 7.65685 9 6C9 4.34315 7.65685 3 6 3Z" fill="black"/>
<path d="M6 15C4.34315 15 3 16.3431 3 18C3 19.6569 4.34315 21 6 21C7.65685 21 9 19.6569 9 18C9 16.3431 7.65685 15 6 15Z" fill="black"/>
<path d="M12 18C12 17.4477 12.4477 17 13 17H20C20.5523 17 21 17.4477 21 18C21 18.5523 20.5523 19 20 19H13C12.4477 19 12 18.5523 12 18Z" fill="black"/>
<path d="M13 5C12.4477 5 12 5.44772 12 6C12 6.55228 12.4477 7 13 7H20C20.5523 7 21 6.55228 21 6C21 5.44772 20.5523 5 20 5H13Z" fill="black"/>
</svg>
