<svg width="24" height="24" viewBox="0 0 24 24" fill="none" xmlns="http://www.w3.org/2000/svg">
<path fill-rule="evenodd" clip-rule="evenodd" d="M12 22C17.5228 22 22 17.5228 22 12C22 6.47715 17.5228 2 12 2C6.47715 2 2 6.47715 2 12C2 17.5228 6.47715 22 12 22ZM9.87898 14.1213C9.48846 13.7308 8.8553 13.7308 8.46477 14.1213C8.07424 14.5118 8.07424 15.145 8.46477 15.5355C10.4174 17.4882 13.5832 17.4882 15.5358 15.5355C15.9264 15.145 15.9264 14.5118 15.5358 14.1213C15.1453 13.7308 14.5121 13.7308 14.1216 14.1213C12.95 15.2929 11.0505 15.2929 9.87898 14.1213ZM10.5 9.5C10.5 10.3284 9.94036 11 9.25 11C8.55964 11 8 10.3284 8 9.5C8 8.67157 8.55964 8 9.25 8C9.94036 8 10.5 8.67157 10.5 9.5ZM14.75 11C15.4404 11 16 10.3284 16 9.5C16 8.67157 15.4404 8 14.75 8C14.0596 8 13.5 8.67157 13.5 9.5C13.5 10.3284 14.0596 11 14.75 11Z" fill="black"/>
</svg>
