<svg width="24" height="24" viewBox="0 0 24 24" fill="none" xmlns="http://www.w3.org/2000/svg">
<path d="M5.5 18C6.05228 18 6.5 17.5523 6.5 17C6.5 16.4477 6.05228 16 5.5 16V18ZM18.5 16C17.9477 16 17.5 16.4477 17.5 17C17.5 17.5523 17.9477 18 18.5 18V16ZM20.891 16.454L20 16L20 16L20.891 16.454ZM20.454 16.891L20.908 17.782L20.908 17.782L20.454 16.891ZM20.454 4.10899L20.908 3.21799L20.908 3.21799L20.454 4.10899ZM20.891 4.54601L20 5L20 5L20.891 4.54601ZM3.10899 4.54601L2.21799 4.09202L2.21799 4.09202L3.10899 4.54601ZM3.54601 4.10899L3.09202 3.21799L3.09202 3.21799L3.54601 4.10899ZM3.54601 16.891L4 16L4 16L3.54601 16.891ZM3.10899 16.454L2.21799 16.908L2.21799 16.908L3.10899 16.454ZM12 15L12.7809 14.3753C12.5911 14.1381 12.3038 14 12 14C11.6962 14 11.4089 14.1381 11.2191 14.3753L12 15ZM8 20L7.21913 19.3753C6.979 19.6755 6.93218 20.0867 7.0987 20.4332C7.26522 20.7797 7.61559 21 8 21V20ZM16 20V21C16.3844 21 16.7348 20.7797 16.9013 20.4332C17.0678 20.0867 17.021 19.6755 16.7809 19.3753L16 20ZM4.6 18H5.5V16H4.6V18ZM4 15.4V5.6H2V15.4H4ZM4.6 5H19.4V3H4.6V5ZM20 5.6V15.4H22V5.6H20ZM19.4 16H18.5V18H19.4V16ZM20 15.4C20 15.6965 19.9992 15.8588 19.9897 15.9754C19.9811 16.0803 19.9707 16.0575 20 16L21.782 16.908C21.9203 16.6366 21.9644 16.3668 21.9831 16.1382C22.0008 15.9213 22 15.6635 22 15.4H20ZM19.4 18C19.6635 18 19.9213 18.0008 20.1382 17.9831C20.3668 17.9644 20.6366 17.9203 20.908 17.782L20 16C20.0575 15.9707 20.0803 15.9811 19.9754 15.9897C19.8588 15.9992 19.6965 16 19.4 16V18ZM20 16L20 16L20.908 17.782C21.2843 17.5903 21.5903 17.2843 21.782 16.908L20 16ZM19.4 5C19.6965 5 19.8588 5.00078 19.9754 5.0103C20.0803 5.01887 20.0575 5.0293 20 5L20.908 3.21799C20.6366 3.07969 20.3668 3.03562 20.1382 3.01695C19.9213 2.99922 19.6635 3 19.4 3V5ZM22 5.6C22 5.33647 22.0008 5.07869 21.9831 4.86177C21.9644 4.63318 21.9203 4.36344 21.782 4.09202L20 5C19.9707 4.94249 19.9811 4.91972 19.9897 5.02463C19.9992 5.14122 20 5.30347 20 5.6H22ZM20 5L20 5L21.782 4.09202C21.5903 3.71569 21.2843 3.40973 20.908 3.21799L20 5ZM4 5.6C4 5.30347 4.00078 5.14122 4.0103 5.02463C4.01887 4.91972 4.0293 4.94249 4 5L2.21799 4.09202C2.07969 4.36344 2.03562 4.63318 2.01695 4.86177C1.99922 5.07869 2 5.33648 2 5.6H4ZM4.6 3C4.33647 3 4.07869 2.99922 3.86177 3.01695C3.63318 3.03562 3.36344 3.07969 3.09202 3.21799L4 5C3.94249 5.0293 3.91972 5.01887 4.02463 5.0103C4.14122 5.00078 4.30347 5 4.6 5V3ZM4 5L4 5L3.09202 3.21799C2.71569 3.40973 2.40973 3.71569 2.21799 4.09202L4 5ZM4.6 16C4.30347 16 4.14122 15.9992 4.02463 15.9897C3.91972 15.9811 3.94249 15.9707 4 16L3.09202 17.782C3.36344 17.9203 3.63318 17.9644 3.86177 17.9831C4.07869 18.0008 4.33647 18 4.6 18V16ZM2 15.4C2 15.6635 1.99922 15.9213 2.01695 16.1382C2.03562 16.3668 2.07969 16.6366 2.21799 16.908L4 16C4.0293 16.0575 4.01887 16.0803 4.0103 15.9754C4.00078 15.8588 4 15.6965 4 15.4H2ZM4 16L4 16L2.21799 16.908C2.40973 17.2843 2.71569 17.5903 3.09202 17.782L4 16ZM11.2191 14.3753L7.21913 19.3753L8.78087 20.6247L12.7809 15.6247L11.2191 14.3753ZM8 21H16V19H8V21ZM16.7809 19.3753L12.7809 14.3753L11.2191 15.6247L15.2191 20.6247L16.7809 19.3753Z" fill="black"/>
</svg>
