<svg width="24" height="24" viewBox="0 0 24 24" fill="none" xmlns="http://www.w3.org/2000/svg">
<path fill-rule="evenodd" clip-rule="evenodd" d="M2 5C2 3.89543 2.89543 3 4 3H9.46482C10.1335 3 10.758 3.3342 11.1289 3.8906L12.5352 6H20C21.1046 6 22 6.89543 22 8V18C22 19.1046 21.1046 20 20 20H10V12C10 11.4477 9.55228 11 9 11H2V5Z" fill="black"/>
<path fill-rule="evenodd" clip-rule="evenodd" d="M1 14C1 13.4477 1.44772 13 2 13H7C7.55228 13 8 13.4477 8 14V20C8 20.3603 7.80621 20.6927 7.4927 20.8702C7.17919 21.0477 6.79444 21.0429 6.4855 20.8575L4.5 19.6662L2.5145 20.8575C2.20556 21.0429 1.82081 21.0477 1.5073 20.8702C1.19379 20.6927 1 20.3603 1 20V14ZM3 15V18.2338L3.9855 17.6425C4.30219 17.4525 4.69781 17.4525 5.0145 17.6425L6 18.2338V15H3Z" fill="black"/>
</svg>
