<svg width="24" height="24" viewBox="0 0 24 24" fill="none" xmlns="http://www.w3.org/2000/svg">
<path fill-rule="evenodd" clip-rule="evenodd" d="M7.29289 18.2071C7.68342 18.5976 8.31658 18.5976 8.70711 18.2071L12 14.9142L15.2929 18.2071C15.6834 18.5976 16.3166 18.5976 16.7071 18.2071C17.0976 17.8166 17.0976 17.1834 16.7071 16.7929L13.2374 13.3232C12.554 12.6398 11.446 12.6398 10.7626 13.3232L7.29289 16.7929C6.90237 17.1834 6.90237 17.8166 7.29289 18.2071ZM7.29289 11.2071C7.68342 11.5976 8.31658 11.5976 8.70711 11.2071L12 7.91421L15.2929 11.2071C15.6834 11.5976 16.3166 11.5976 16.7071 11.2071C17.0976 10.8166 17.0976 10.1834 16.7071 9.79289L13.2374 6.32322C12.554 5.6398 11.446 5.63981 10.7626 6.32322L7.29289 9.79289C6.90237 10.1834 6.90237 10.8166 7.29289 11.2071Z" fill="black"/>
</svg>
