<svg width="24" height="24" viewBox="0 0 24 24" fill="none" xmlns="http://www.w3.org/2000/svg">
<path fill-rule="evenodd" clip-rule="evenodd" d="M2 12C2 6.47715 6.47715 2 12 2C12.3853 2 12.7659 2.02184 13.1406 2.06443C13.4062 2.09462 13.6487 2.2299 13.8139 2.44007C13.979 2.65025 14.0532 2.91782 14.0198 3.18304C14.0068 3.28644 14 3.39219 14 3.5C14 4.76634 14.9425 5.81419 16.1638 5.97771C16.6108 6.03755 16.9624 6.38918 17.0223 6.83617C17.1858 8.05754 18.2337 9 19.5 9C19.8094 9 20.1035 8.94425 20.3743 8.84314C20.6405 8.74375 20.9364 8.76229 21.1881 8.89413C21.4398 9.02597 21.6235 9.25865 21.6934 9.53406C21.8938 10.3239 22 11.1503 22 12C22 17.5228 17.5228 22 12 22C6.47715 22 2 17.5228 2 12ZM12 4C7.58172 4 4 7.58172 4 12C4 16.4183 7.58172 20 12 20C16.4183 20 20 16.4183 20 12C20 11.6538 19.9781 11.3131 19.9356 10.9791C19.7921 10.9929 19.6468 11 19.5 11C17.4689 11 15.7532 9.65512 15.193 7.80701C13.4987 7.2934 12.2273 5.80865 12.0275 4.00005C12.0183 4.00002 12.0092 4 12 4Z" fill="black"/>
<path d="M10 8.5C10 9.32843 9.32843 10 8.5 10C7.67157 10 7 9.32843 7 8.5C7 7.67157 7.67157 7 8.5 7C9.32843 7 10 7.67157 10 8.5Z" fill="black"/>
<path d="M14 11.5C14 12.3284 13.3284 13 12.5 13C11.6716 13 11 12.3284 11 11.5C11 10.6716 11.6716 10 12.5 10C13.3284 10 14 10.6716 14 11.5Z" fill="black"/>
<path d="M18 14C18 14.5523 17.5523 15 17 15C16.4477 15 16 14.5523 16 14C16 13.4477 16.4477 13 17 13C17.5523 13 18 13.4477 18 14Z" fill="black"/>
<path d="M13 16.5C13 17.3284 12.3284 18 11.5 18C10.6716 18 10 17.3284 10 16.5C10 15.6716 10.6716 15 11.5 15C12.3284 15 13 15.6716 13 16.5Z" fill="black"/>
<path d="M8 14C8 14.5523 7.55228 15 7 15C6.44772 15 6 14.5523 6 14C6 13.4477 6.44772 13 7 13C7.55228 13 8 13.4477 8 14Z" fill="black"/>
</svg>
