<svg width="24" height="24" viewBox="0 0 24 24" fill="none" xmlns="http://www.w3.org/2000/svg">
<path d="M8.30366 12.5679H7.05439L7.6479 10.3931H7.6811L8.30366 12.5679Z" fill="black"/>
<path fill-rule="evenodd" clip-rule="evenodd" d="M2 6C2 4.89543 2.89543 4 4 4H20C21.1046 4 22 4.89543 22 6V18C22 19.1046 21.1046 20 20 20H4C2.89543 20 2 19.1046 2 18V6ZM4.81318 14.2529C4.81318 14.7842 5.14937 15.1038 5.70967 15.1038C6.18696 15.1038 6.45259 14.8589 6.6186 14.2571L6.72236 13.8794H8.67305L8.77681 14.2861C8.92622 14.8672 9.196 15.1038 9.7148 15.1038C10.2253 15.1038 10.5947 14.7468 10.5947 14.2488C10.5947 14.0579 10.5615 13.8918 10.4785 13.6636L9.12544 9.96143C8.85566 9.22266 8.42402 8.90723 7.6728 8.90723C6.97139 8.90723 6.5356 9.23511 6.27827 9.96143L4.9377 13.6636C4.85884 13.8752 4.81318 14.0994 4.81318 14.2529ZM11.1344 14.0786C11.1344 14.668 11.454 15 12.0143 15H14.5502C15.0233 15 15.3263 14.7468 15.3263 14.2986C15.3263 13.8503 15.015 13.5972 14.5502 13.5972H12.8942V9.82861C12.8942 9.23926 12.5746 8.90723 12.0143 8.90723C11.454 8.90723 11.1344 9.23926 11.1344 9.82861V14.0786ZM15.9537 14.1824C15.9537 14.7717 16.2732 15.1038 16.8335 15.1038C17.3938 15.1038 17.7134 14.7717 17.7134 14.1824V10.4138H18.5975C19.0623 10.4138 19.3736 10.1606 19.3736 9.7124C19.3736 9.26416 19.0706 9.01099 18.5975 9.01099H15.0696C14.5965 9.01099 14.2935 9.26416 14.2935 9.7124C14.2935 10.1606 14.6048 10.4138 15.0696 10.4138H15.9537V14.1824Z" fill="black"/>
</svg>
