<svg width="24" height="24" viewBox="0 0 24 24" fill="none" xmlns="http://www.w3.org/2000/svg">
<path d="M19.908 3.21799C19.6366 3.07969 19.3668 3.03563 19.1382 3.01695C18.9301 2.99994 18.6843 2.99997 18.4319 3L14 3.00001C13.4477 3.00001 13 3.44772 13 4.00001V12C13 12.5523 13.4477 13 14 13H20C20.5523 13 21 12.5523 21 12L21 5.56811C21 5.31572 21.0001 5.06993 20.9831 4.86178C20.9644 4.63318 20.9203 4.36345 20.782 4.09202C20.5903 3.7157 20.2843 3.40974 19.908 3.21799Z" fill="black"/>
<path d="M5.56811 3C5.31573 2.99997 5.06993 2.99994 4.86178 3.01695C4.63318 3.03563 4.36345 3.07969 4.09202 3.21799C3.7157 3.40974 3.40974 3.7157 3.21799 4.09202C3.07969 4.36345 3.03563 4.63318 3.01695 4.86178C2.99994 5.06993 2.99997 5.31572 3 5.56809L3.00001 8.00001C3.00001 8.55229 3.44772 9.00001 4.00001 9.00001H10C10.5523 9.00001 11 8.55229 11 8.00001V4.00001C11 3.44772 10.5523 3.00001 10 3.00001L5.56811 3Z" fill="black"/>
<path d="M14 15C13.4477 15 13 15.4477 13 16V20C13 20.5523 13.4477 21 14 21L18.4319 21C18.6843 21 18.9301 21.0001 19.1382 20.9831C19.3668 20.9644 19.6366 20.9203 19.908 20.782C20.2843 20.5903 20.5903 20.2843 20.782 19.908C20.9203 19.6366 20.9644 19.3668 20.9831 19.1382C21.0001 18.9301 21 18.6843 21 18.4319L21 16C21 15.4477 20.5523 15 20 15H14Z" fill="black"/>
<path d="M4.00001 11C3.44772 11 3.00001 11.4477 3.00001 12L3 18.4319C2.99997 18.6843 2.99994 18.9301 3.01695 19.1382C3.03563 19.3668 3.07969 19.6366 3.21799 19.908C3.40974 20.2843 3.7157 20.5903 4.09202 20.782C4.36345 20.9203 4.63318 20.9644 4.86178 20.9831C5.06994 21.0001 5.31574 21 5.56812 21L10 21C10.5523 21 11 20.5523 11 20V12C11 11.4477 10.5523 11 10 11H4.00001Z" fill="black"/>
</svg>
