<svg width="24" height="24" viewBox="0 0 24 24" fill="none" xmlns="http://www.w3.org/2000/svg">
<path fill-rule="evenodd" clip-rule="evenodd" d="M20.0022 3C21.1068 3 22.0022 3.89543 22.0022 5V13C22.0022 14.1046 21.1068 15 20.0022 15H18.0022V17C18.0022 18.1046 17.1068 19 16.0022 19H10.7613L6.48784 21.3742C6.17811 21.5462 5.80045 21.5416 5.49507 21.3619C5.18969 21.1822 5.0022 20.8543 5.0022 20.5V19H4.0022C2.89763 19 2.0022 18.1046 2.0022 17V9C2.0022 7.89543 2.89763 7 4.0022 7H6.0022V5C6.0022 3.89543 6.89763 3 8.0022 3H20.0022ZM8.0022 7H16.0022C17.1068 7 18.0022 7.89543 18.0022 9V13H20.0022V5L8.0022 5V7Z" fill="black"/>
</svg>
