<svg width="24" height="24" viewBox="0 0 24 24" fill="none" xmlns="http://www.w3.org/2000/svg">
<path d="M20.4142 1.99997C19.6332 1.21892 18.3668 1.21892 17.5858 1.99997L12.2929 7.29286C12.1054 7.4804 12 7.73475 12 7.99997V11C12 11.5523 12.4477 12 13 12H16C16.2652 12 16.5196 11.8946 16.7071 11.7071L22 6.41418C22.781 5.63314 22.781 4.36681 22 3.58576L20.4142 1.99997Z" fill="black"/>
<path d="M5.56811 3L11 3.00001C11.5523 3.00001 12 3.44772 12 4.00001C12 4.55229 11.5523 5.00001 11 5.00001H5.60001C5.30348 5.00001 5.14122 5.00078 5.02464 5.01031L5.01145 5.01145L5.01031 5.02464C5.00078 5.14122 5.00001 5.30348 5.00001 5.60001V18.4C5.00001 18.6965 5.00078 18.8588 5.01031 18.9754L5.01145 18.9886L5.02464 18.9897C5.14122 18.9992 5.30348 19 5.60001 19H18.4C18.6965 19 18.8588 18.9992 18.9754 18.9897L18.9886 18.9886L18.9897 18.9754C18.9992 18.8588 19 18.6965 19 18.4V13C19 12.4477 19.4477 12 20 12C20.5523 12 21 12.4477 21 13L21 18.4319C21 18.6842 21.0001 18.9301 20.9831 19.1382C20.9644 19.3668 20.9203 19.6366 20.782 19.908C20.5903 20.2843 20.2843 20.5903 19.908 20.782C19.6366 20.9203 19.3668 20.9644 19.1382 20.9831C18.9301 21.0001 18.6844 21 18.4321 21H5.56809C5.31577 21 5.06989 21.0001 4.86178 20.9831C4.63318 20.9644 4.36345 20.9203 4.09202 20.782C3.7157 20.5903 3.40974 20.2843 3.21799 19.908C3.07969 19.6366 3.03563 19.3668 3.01695 19.1382C2.99994 18.9301 2.99997 18.6843 3 18.4319V5.56811C2.99997 5.31573 2.99994 5.06993 3.01695 4.86178C3.03563 4.63318 3.07969 4.36345 3.21799 4.09202C3.40974 3.7157 3.7157 3.40974 4.09202 3.21799C4.36345 3.07969 4.63318 3.03563 4.86178 3.01695C5.06993 2.99994 5.31573 2.99997 5.56811 3Z" fill="black"/>
</svg>
