<svg width="24" height="24" viewBox="0 0 24 24" fill="none" xmlns="http://www.w3.org/2000/svg">
<path fill-rule="evenodd" clip-rule="evenodd" d="M3 5C3 3.89543 3.89543 3 5 3H19C20.1046 3 21 3.89543 21 5V19C21 20.1046 20.1046 21 19 21H5C3.89543 21 3 20.1046 3 19V5ZM10.7071 8.79289C11.0976 9.18342 11.0976 9.81658 10.7071 10.2071L8.91421 12L10.7071 13.7929C11.0976 14.1834 11.0976 14.8166 10.7071 15.2071C10.3166 15.5976 9.68342 15.5976 9.29289 15.2071L7.5 13.4142C6.71895 12.6332 6.71895 11.3668 7.5 10.5858L9.29289 8.79289C9.68342 8.40237 10.3166 8.40237 10.7071 8.79289ZM14.7071 8.79289C14.3166 8.40237 13.6834 8.40237 13.2929 8.79289C12.9024 9.18342 12.9024 9.81658 13.2929 10.2071L15.0858 12L13.2929 13.7929C12.9024 14.1834 12.9024 14.8166 13.2929 15.2071C13.6834 15.5976 14.3166 15.5976 14.7071 15.2071L16.5 13.4142C17.281 12.6332 17.281 11.3668 16.5 10.5858L14.7071 8.79289Z" fill="black"/>
</svg>
