<svg width="24" height="24" viewBox="0 0 24 24" fill="none" xmlns="http://www.w3.org/2000/svg">
<path fill-rule="evenodd" clip-rule="evenodd" d="M17.6568 6.34314C14.5327 3.21895 9.46734 3.21895 6.34315 6.34315C3.21895 9.46732 3.21895 14.5326 6.34315 17.6568C9.46732 20.781 14.5326 20.781 17.6568 17.6568C20.781 14.5327 20.781 9.46734 17.6568 6.34314ZM4.92893 4.92893C8.83418 1.02369 15.1658 1.02369 19.071 4.92894C22.9763 8.83418 22.9763 15.1658 19.071 19.071C15.1658 22.9763 8.83416 22.9763 4.92893 19.071C1.02369 15.1658 1.02369 8.83416 4.92893 4.92893ZM8.46477 14.1213C8.85529 13.7308 9.48846 13.7308 9.87898 14.1213C11.0505 15.2929 12.95 15.2929 14.1216 14.1213C14.5121 13.7308 15.1453 13.7308 15.5358 14.1213C15.9264 14.5118 15.9264 15.145 15.5358 15.5355C13.5832 17.4882 10.4174 17.4882 8.46477 15.5355C8.07424 15.145 8.07424 14.5118 8.46477 14.1213Z" fill="black"/>
<path d="M10.5 9.5C10.5 10.3284 9.94035 11 9.25 11C8.55964 11 8 10.3284 8 9.5C8 8.67157 8.55964 8 9.25 8C9.94035 8 10.5 8.67157 10.5 9.5Z" fill="black"/>
<path d="M16 9.5C16 10.3284 15.4404 11 14.75 11C14.0596 11 13.5 10.3284 13.5 9.5C13.5 8.67157 14.0596 8 14.75 8C15.4404 8 16 8.67157 16 9.5Z" fill="black"/>
</svg>
