<svg style="width:100%;height:100%" viewBox="0 0 640 640" xmlns="http://www.w3.org/2000/svg" xmlns:xlink="http://www.w3.org/1999/xlink"><linearGradient id="a" gradientUnits="userSpaceOnUse" x1="184.22" x2="184.22" y1="171.26" y2="628.67"><stop offset="0" stop-color="#9c3c9f"/><stop offset="1" stop-color="#3b1e56"/><stop offset="1" stop-color="#231815"/></linearGradient><g fill="#6f3c9f"><circle cx="273.71" cy="122.04" r="15.43"/><path d="m380.22 87.27-56.22 32.46c-2.01 1.16-2 4.06.02 5.21l56.19 31.89c.93.52 2.06.52 2.98-.01l55.75-32.18c2-1.15 2-4.04 0-5.2l-55.72-32.17c-.93-.54-2.07-.54-3 0z"/><path d="m318.5 11.73-260.62 150.47c-2 1.15-2 4.04 0 5.2l260.62 150.47c.93.54 2.07.54 3 0l260.62-150.47c2-1.15 2-4.04 0-5.2l-260.62-150.47c-.93-.54-2.07-.54-3 0zm74.06 239.45-71.06 41.03c-.93.54-2.07.54-3 0l-71.06-41.03c-.93-.54-1.5-1.53-1.5-2.6v-167.99c0-1.07.57-2.06 1.5-2.6l70.7-40.82c.93-.54 2.07-.54 3 0l142.48 82.26c2 1.15 2 4.04 0 5.2l-68.06 39.29c-.93.54-1.5 1.53-1.5 2.6v82.05c0 1.07-.57 2.06-1.5 2.6z"/></g><path d="m50.91 174.27v300.93c0 1.07.57 2.06 1.5 2.6l260.62 150.47c2 1.15 4.5-.29 4.5-2.6v-300.93c0-1.07-.57-2.06-1.5-2.6l-260.62-150.47c-2-1.15-4.5.29-4.5 2.6zm227.56 394.13-43.37-25.04c-.93-.54-1.5-1.53-1.5-2.6v-11.72c0-.53-.14-1.04-.4-1.5l-97.94-169.64c-.26-.46-.64-.83-1.1-1.1l-7.15-4.13c-2-1.15-4.5.29-4.5 2.6v117.88c0 2.31-2.5 3.75-4.5 2.6l-31.03-17.92c-.93-.54-1.5-1.53-1.5-2.6v-221.12c0-2.31 2.5-3.75 4.5-2.6l43.37 25.04c.93.54 1.5 1.53 1.5 2.6v11.72c0 .53.14 1.04.4 1.5l97.94 169.64c.26.46.64.83 1.1 1.1l7.15 4.13c2 1.15 4.5-.29 4.5-2.6v-117.88c0-2.31 2.5-3.75 4.5-2.6l31.03 17.92c.93.54 1.5 1.53 1.5 2.6v221.12c0 2.31-2.5 3.75-4.5 2.6z" fill="url(#a)"/><path d="m394.06 451.58v64.34c0 2.31 2.5 3.75 4.5 2.6l99.72-57.57c.46-.26.83-.64 1.1-1.1l17.71-30.68c.26-.46.4-.97.4-1.5v-25.97c0-1.07-.57-2.06-1.5-2.6l-15.52-8.96c-.93-.54-2.07-.54-3 0l-101.92 58.84c-.93.54-1.5 1.53-1.5 2.6z" fill="#3b1e56"/><path d="m394.06 351.81v64.34c0 2.31 2.5 3.75 4.5 2.6l99.72-57.57c.46-.26.83-.64 1.1-1.1l17.71-30.68c.26-.46.4-.97.4-1.5v-25.97c0-1.07-.57-2.06-1.5-2.6l-15.52-8.96c-.93-.54-2.07-.54-3 0l-101.92 58.84c-.93.54-1.5 1.53-1.5 2.6z" fill="#3b1e56"/><path d="m322.47 324.73v300.93c0 2.31 2.5 3.75 4.5 2.6l260.62-150.47c.93-.54 1.5-1.53 1.5-2.6v-300.92c0-2.31-2.5-3.75-4.5-2.6l-260.62 150.47c-.93.54-1.5 1.53-1.5 2.6zm231.65-9.58-22.78 39.46c-.83 1.43-.34 3.27 1.1 4.1l20.59 11.89c.93.54 1.5 1.53 1.5 2.6v54.48c0 .53-.14 1.04-.4 1.5l-23.88 41.37c-.26.46-.64.83-1.1 1.1l-167.61 96.77c-2 1.15-4.5-.29-4.5-2.6v-221.12c0-1.07.57-2.06 1.5-2.6l157.46-90.91c.93-.54 2.07-.54 3 0l34.03 19.65c.93.54 1.5 1.53 1.5 2.6v40.22c0 .53-.14 1.04-.4 1.5z" fill="#3b1e56"/></svg>
