<svg width="24" height="24" viewBox="0 0 24 24" fill="none" xmlns="http://www.w3.org/2000/svg">
<path fill-rule="evenodd" clip-rule="evenodd" d="M13 7C13.5523 7 14 7.44772 14 8C14 10.3085 14.5108 11.7424 15.3842 12.6158C16.2576 13.4892 17.6915 14 20 14C20.5523 14 21 14.4477 21 15C21 15.5523 20.5523 16 20 16C17.6915 16 16.2576 16.5108 15.3842 17.3842C14.5108 18.2576 14 19.6915 14 22C14 22.5523 13.5523 23 13 23C12.4477 23 12 22.5523 12 22C12 19.6915 11.4892 18.2576 10.6158 17.3842C9.74243 16.5108 8.30848 16 6 16C5.44772 16 5 15.5523 5 15C5 14.4477 5.44772 14 6 14C8.30848 14 9.74243 13.4892 10.6158 12.6158C11.4892 11.7424 12 10.3085 12 8C12 7.44772 12.4477 7 13 7ZM13 12.7334C12.7361 13.212 12.4147 13.6453 12.03 14.03C11.6453 14.4147 11.212 14.7361 10.7334 15C11.212 15.2639 11.6453 15.5853 12.03 15.97C12.4147 16.3547 12.7361 16.788 13 17.2666C13.2639 16.788 13.5853 16.3547 13.97 15.97C14.3547 15.5853 14.788 15.2639 15.2666 15C14.788 14.7361 14.3547 14.4147 13.97 14.03C13.5853 13.6453 13.2639 13.212 13 12.7334Z" fill="black"/>
<path d="M6 5.5C6 5.22386 5.77614 5 5.5 5C5.22386 5 5 5.22386 5 5.5C5 6.48063 4.78279 7.0726 4.4277 7.4277C4.0726 7.78279 3.48063 8 2.5 8C2.22386 8 2 8.22386 2 8.5C2 8.77614 2.22386 9 2.5 9C3.48063 9 4.0726 9.21721 4.4277 9.5723C4.78279 9.9274 5 10.5194 5 11.5C5 11.7761 5.22386 12 5.5 12C5.77614 12 6 11.7761 6 11.5C6 10.5194 6.21721 9.9274 6.5723 9.5723C6.9274 9.21721 7.51937 9 8.5 9C8.77614 9 9 8.77614 9 8.5C9 8.22386 8.77614 8 8.5 8C7.51937 8 6.9274 7.78279 6.5723 7.4277C6.21721 7.0726 6 6.48063 6 5.5Z" fill="black"/>
<path d="M11 1.5C11 1.22386 10.7761 1 10.5 1C10.2239 1 10 1.22386 10 1.5C10 2.13341 9.85918 2.47538 9.66728 2.66728C9.47538 2.85918 9.13341 3 8.5 3C8.22386 3 8 3.22386 8 3.5C8 3.77614 8.22386 4 8.5 4C9.13341 4 9.47538 4.14082 9.66728 4.33272C9.85918 4.52462 10 4.86659 10 5.5C10 5.77614 10.2239 6 10.5 6C10.7761 6 11 5.77614 11 5.5C11 4.86659 11.1408 4.52462 11.3327 4.33272C11.5246 4.14082 11.8666 4 12.5 4C12.7761 4 13 3.77614 13 3.5C13 3.22386 12.7761 3 12.5 3C11.8666 3 11.5246 2.85918 11.3327 2.66728C11.1408 2.47538 11 2.13341 11 1.5Z" fill="black"/>
</svg>
