<svg width="48" height="48" viewBox="0 0 48 48" fill="none" xmlns="http://www.w3.org/2000/svg">
<rect opacity="0.2" width="48" height="48" rx="24" fill="url(#paint0_linear_1843_42338)"/>
<path d="M33.6649 10.5871C33.5711 10.6312 33.4064 10.7231 33.3011 10.7901C33.056 10.9452 32.9756 10.9816 32.876 10.9816C32.8052 10.9816 32.7937 10.9873 32.7937 11.0237C32.7937 11.0448 32.8167 11.0926 32.8435 11.129L32.8933 11.1941L32.855 11.2649C32.6099 11.7398 32.5276 11.9523 32.4491 12.3123C32.3418 12.8139 32.3667 13.5473 32.518 14.3132C32.6099 14.7803 32.7171 15.1767 32.966 15.9694C33.2685 16.9325 33.5021 17.773 33.5787 18.1617C33.6304 18.4298 33.6936 19.0195 33.6936 19.232C33.6936 19.546 33.6189 19.9328 33.5175 20.1473C33.4083 20.3828 33.1805 20.5723 32.9699 20.6049C32.876 20.6202 32.8741 20.6489 32.9603 20.6776C32.9947 20.6891 33.0254 20.7044 33.033 20.7121C33.0579 20.737 32.9852 20.8385 32.8473 20.9687C32.6156 21.1889 32.3361 21.3018 32.0202 21.3018C31.6372 21.3018 31.3941 21.1352 30.6186 20.3311C30.1725 19.8715 29.5827 19.3182 29.4621 19.2454C29.4028 19.211 29.4008 19.211 29.4104 19.2454C29.4162 19.2665 29.4276 19.3144 29.4353 19.3527C29.4506 19.4465 29.4257 19.4465 29.3109 19.3507C29.1672 19.232 28.9892 19.1248 28.8322 19.0635C28.5756 18.9659 28.4224 18.9429 27.9112 18.9295L27.4421 18.918L27.3176 18.8395C27.1262 18.7189 27.0783 18.7093 26.7528 18.7131C26.3967 18.7189 26.2512 18.6997 25.8261 18.5906C25.2919 18.4547 25.1732 18.4623 24.3326 18.7074C23.6931 18.8931 23.4863 18.9333 22.8755 18.9946C22.4926 19.031 22.1767 19.031 21.9258 18.9927C21.8148 18.9755 21.721 18.9659 21.7133 18.9716C21.7076 18.9793 21.7248 19.0138 21.7535 19.0501L21.8052 19.1171L21.7612 19.1267C21.7363 19.1325 21.6444 19.142 21.5582 19.1478C21.3418 19.165 21.2576 19.1976 21.1389 19.3144C21.0432 19.4082 21.0355 19.412 20.8708 19.4369C20.7559 19.4561 20.664 19.4848 20.5779 19.5288C19.9958 19.8294 19.9441 19.8467 19.6761 19.8467C19.5841 19.8467 19.4463 19.8332 19.3697 19.8179C19.2931 19.8007 19.228 19.793 19.2204 19.7988C19.2146 19.8045 19.2204 19.8371 19.2338 19.8696C19.2452 19.9041 19.2529 19.9347 19.2472 19.9386C19.2433 19.9443 19.2012 19.9386 19.1572 19.9252C19.1112 19.9137 18.96 19.8945 18.8202 19.8811C18.5081 19.8524 18.15 19.8792 17.8226 19.9577L17.6043 20.0075L17.702 20.0515C17.8035 20.0956 17.8475 20.1473 17.8284 20.199C17.8226 20.2143 17.7307 20.2717 17.6273 20.3253C17.1467 20.5723 16.6412 21.0606 16.2353 21.6714C16.0247 21.9892 15.8371 22.2936 15.8198 22.3511C15.8083 22.3913 15.8103 22.3932 15.8849 22.3817C15.9539 22.3702 15.9634 22.3741 15.9634 22.4047C15.9634 22.4258 15.9347 22.4909 15.8983 22.5502C15.8103 22.6938 15.7528 22.8585 15.6552 23.2376C15.5058 23.8254 15.3929 24.0877 15.1899 24.3271C15.1171 24.4113 15.0922 24.4553 15.1076 24.4649C15.121 24.4726 15.1842 24.4802 15.2512 24.4802C15.322 24.4802 15.3699 24.4879 15.3699 24.5013C15.3699 24.5128 15.3469 24.5511 15.3182 24.5875C15.2569 24.6698 15.2722 24.6889 15.4101 24.7023C15.6169 24.7234 15.6073 24.7138 15.592 24.8593C15.5843 24.9302 15.5709 25.1044 15.5633 25.2461C15.5537 25.3878 15.5326 25.5601 15.5135 25.6291C15.4714 25.7918 15.3699 25.9929 15.2531 26.1441C15.2014 26.2111 15.1593 26.2724 15.1593 26.282C15.1593 26.2896 15.1918 26.303 15.232 26.3088C15.2703 26.3145 15.3258 26.3241 15.3546 26.3279C15.4771 26.3471 15.9003 26.2686 16.1358 26.1824C16.3291 26.1116 16.6125 25.9584 16.8021 25.8224C16.9055 25.7497 17.0127 25.6788 17.0433 25.6693C17.0721 25.6578 17.1774 25.6482 17.2788 25.6482C17.7901 25.6482 18.3932 25.4606 18.7455 25.1906C18.8106 25.1408 18.8834 25.0891 18.9044 25.0776C18.9523 25.0527 18.9638 25.0623 19.0155 25.1657C19.0557 25.2423 19.0882 25.227 19.1246 25.1159C19.1821 24.9379 19.3103 24.733 19.3946 24.6889C19.4425 24.6621 19.4674 24.6832 19.5822 24.8536C19.6339 24.9264 19.722 25.0355 19.7814 25.0929C19.8407 25.1504 19.8886 25.2136 19.8886 25.2365C19.8886 25.2576 19.8503 25.3514 19.8024 25.4472C19.722 25.608 19.6473 25.8339 19.6684 25.855C19.6741 25.8607 19.7201 25.8244 19.7718 25.7765C19.8675 25.6865 19.9269 25.6635 19.9269 25.7114C19.9269 25.7267 19.9077 25.8052 19.8867 25.8895C19.8369 26.0752 19.8254 26.416 19.8675 26.4888L19.8943 26.5366L19.9633 26.4581C20.0437 26.3662 20.1892 26.2896 20.4439 26.2073C20.6392 26.1441 20.7981 26.1173 21.1044 26.0982C21.2097 26.0905 21.4089 26.0733 21.5448 26.058C22.1039 25.9929 22.0905 25.9909 22.2494 26.1652C22.3758 26.303 22.483 26.3854 22.5749 26.4141C22.6132 26.4256 22.6458 26.4428 22.6458 26.4505C22.6458 26.4734 22.6036 26.5175 22.5022 26.5979C22.4505 26.6381 22.213 26.8526 21.9756 27.0727C21.1638 27.8271 21.091 27.8674 20.3213 28.0033C20.1969 28.0263 20.0437 28.0588 19.9824 28.078C19.6167 28.1929 19.3161 28.4858 18.9217 29.1138C18.7244 29.4298 18.6115 29.5753 18.3626 29.8472C18.0256 30.211 17.7269 30.4848 16.8729 31.2085C15.9213 32.0165 15.4369 32.6196 15.1593 33.3396C15.0367 33.6555 14.9601 33.7283 14.7457 33.7283C14.6729 33.7283 14.5657 33.7149 14.5083 33.6995C14.3666 33.6612 14.0411 33.6612 13.9319 33.6995C13.8802 33.7187 13.8151 33.7627 13.7654 33.8183C13.6869 33.9044 13.683 33.9063 13.5949 33.8929C13.5471 33.8872 13.4667 33.8585 13.4188 33.8297C12.875 33.5157 12.7065 33.4564 12.3351 33.4545C12.0938 33.4525 12 33.5062 12 33.6459C12 33.7302 12.0594 33.8087 12.2336 33.9446C12.3906 34.071 12.4863 34.1801 12.898 34.7182C13.009 34.8637 13.0512 34.902 13.1431 34.9479C13.2484 34.9977 13.2675 35.0015 13.4935 34.9996C13.6256 34.9996 13.7807 34.9881 13.8381 34.9728C13.8956 34.9594 14.0909 34.9116 14.2689 34.8656C14.807 34.7277 14.8587 34.7201 15.2473 34.7048C15.5939 34.6933 15.6207 34.6894 15.7203 34.6397C15.8658 34.5688 15.9826 34.4348 16.1626 34.1284C16.603 33.3779 16.7121 33.2075 16.917 32.9298C17.3363 32.3688 17.815 31.8174 18.3645 31.266C18.9083 30.7222 19.0691 30.6111 19.5918 30.4254C19.9058 30.3124 20.1566 30.1899 20.3768 30.0444C20.5702 29.9142 20.8689 29.6251 20.9417 29.4968C20.9685 29.4508 21.0489 29.3512 21.1197 29.2747C21.3112 29.0717 21.4586 29.0028 21.9565 28.886C22.2724 28.8094 22.3949 28.7673 22.7032 28.6313C23.0689 28.4686 23.1244 28.4513 23.584 28.3575C23.8099 28.3116 24.0416 28.2637 24.0952 28.2503C24.1507 28.2369 24.2024 28.2311 24.2082 28.2388C24.2158 28.2445 24.2369 28.3345 24.2579 28.4379C24.2847 28.5777 24.2982 28.7424 24.3058 29.0717C24.3173 29.5791 24.3001 29.8089 24.2158 30.2301C24.1201 30.703 24.0148 30.9826 23.7908 31.3636C23.6778 31.5512 23.6491 31.6834 23.6797 31.8538C23.7237 32.095 23.7965 32.1927 24.0129 32.298C24.1948 32.388 24.3364 32.3975 24.6964 32.3516C24.9358 32.321 25.1636 32.3095 25.6633 32.3018C26.9404 32.2788 27.5991 32.3688 29.1079 32.7633C29.6383 32.903 29.6976 32.9279 29.8278 33.0715C29.9657 33.2228 30.0442 33.397 30.1629 33.8144C30.1993 33.9408 30.2433 34.0633 30.2586 34.0882C30.339 34.2089 30.5554 34.3027 30.7584 34.3027C30.9671 34.3027 30.9958 34.1935 30.8618 33.9082C30.7699 33.7129 30.7603 33.623 30.8292 33.5923C30.8886 33.5636 30.969 33.6019 31.0245 33.6842C31.0475 33.7187 31.1107 33.8508 31.1681 33.9772C31.2773 34.2299 31.3711 34.3544 31.4994 34.4233C31.5664 34.4578 31.6066 34.4635 31.7598 34.4616C31.8995 34.4578 31.9704 34.4673 32.0642 34.498C32.2346 34.5535 32.7018 34.5592 32.8358 34.5075C33.0541 34.4233 33.1039 34.2299 32.9507 34.0653C32.9067 34.0193 32.7363 33.9274 32.4299 33.7914C32.294 33.7302 32.0489 33.554 31.9512 33.4487C31.8153 33.2994 31.7387 33.1807 31.5223 32.792C31.2696 32.3401 31.193 32.2233 31.0207 32.0433C30.9096 31.9265 30.8407 31.8729 30.7373 31.8231C30.5209 31.7159 30.5746 31.7217 29.0792 31.6604C28.6522 31.6432 27.8997 31.5915 27.8231 31.5742C27.8021 31.5704 27.6585 31.5512 27.5072 31.5359C27.1645 31.4976 26.3679 31.354 26.1439 31.287C25.8663 31.2066 25.5331 31.0209 25.4336 30.8888C25.3723 30.8083 25.3321 30.6935 25.3053 30.5307C25.2632 30.255 25.3972 29.9257 25.805 29.3053C26.0444 28.9415 26.1746 28.6983 26.2454 28.4858C26.3048 28.3039 26.3603 27.9459 26.3603 27.7352C26.3603 27.5897 26.3679 27.5399 26.3909 27.517C26.4292 27.4787 26.4388 27.4825 26.7585 27.7123C26.8983 27.8118 27.0802 27.9305 27.1606 27.9746C27.3196 28.0646 27.4134 28.1316 27.4134 28.1565C27.4134 28.1641 27.3866 28.189 27.3521 28.2101L27.2908 28.2503L27.3464 28.2714C27.5532 28.3499 27.9303 28.3709 28.7001 28.346C29.0562 28.3345 29.3606 28.3288 29.376 28.3365C29.3913 28.3422 29.4047 28.3652 29.4047 28.3882C29.4047 28.4264 29.4104 28.4284 29.5081 28.4169C29.7187 28.392 30.0174 28.2618 30.3237 28.0588C30.4941 27.9478 30.5133 27.9382 30.6492 27.9267C30.9575 27.8999 31.0877 27.7774 31.6506 26.9789C31.8191 26.7415 31.9244 26.6247 31.9742 26.6247C31.978 26.6247 31.978 26.6764 31.9742 26.7396C31.9704 26.8028 31.9742 26.8545 31.9838 26.8545C32.0278 26.8545 32.2518 26.5768 32.3897 26.3509C32.6137 25.9833 32.7056 25.7439 32.9086 24.9876C33.1115 24.2332 33.1211 24.2026 33.1671 24.2026C33.1958 24.2026 33.2092 24.2218 33.2226 24.2792C33.2475 24.3807 33.2456 24.3788 33.303 24.3251C33.3796 24.2562 33.5002 24.0705 33.5979 23.8771C33.6457 23.7814 33.6936 23.7048 33.7032 23.7048C33.7147 23.7048 33.7242 23.7373 33.7281 23.7756C33.7319 23.8158 33.7415 23.8484 33.7511 23.8484C33.7874 23.8484 33.9291 23.655 34.0172 23.4846C34.0727 23.3774 34.1838 23.0902 34.2853 22.7896C34.381 22.5081 34.5035 22.1807 34.5571 22.062C34.8099 21.5105 34.9382 21.0548 35.0282 20.4019C35.076 20.0381 35.076 18.9544 35.0282 18.5351C34.9841 18.1617 34.9267 17.8094 34.8788 17.6064C34.7907 17.235 34.5878 16.6204 34.4327 16.2547C34.1838 15.6688 34.0153 15.1748 33.9349 14.7918C33.843 14.3553 33.843 13.6966 33.9368 13.3175C33.9961 13.0724 34.0938 12.9269 34.2546 12.8465C34.3772 12.7833 34.4806 12.6876 34.6127 12.5133C34.8424 12.2108 34.965 12.1323 35.5758 11.8987C36.0544 11.7149 36.2402 11.6058 36.2402 11.5081C36.2402 11.4296 36.1598 11.399 35.907 11.3779C35.6926 11.3607 35.1698 11.2439 35.0665 11.1884C35.0473 11.1788 35.0148 11.1328 34.9956 11.085C34.9516 10.9835 34.8061 10.8226 34.6912 10.748C34.584 10.681 34.5533 10.679 34.6146 10.7461C34.6605 10.7958 34.6586 10.7958 34.5897 10.7403C34.5495 10.7097 34.5093 10.6618 34.4997 10.6331C34.4825 10.5833 34.4729 10.5795 34.3848 10.5795C34.2891 10.5795 34.1914 10.5488 34.1914 10.5182C34.1914 10.5105 34.111 10.5029 34.0153 10.5048C33.8468 10.5048 33.8276 10.5105 33.6649 10.5871ZM34.718 10.8284C34.7371 10.8495 34.7486 10.8667 34.7429 10.8667C34.7371 10.8667 34.718 10.8495 34.6988 10.8284C34.6797 10.8073 34.6682 10.7901 34.6739 10.7901C34.6797 10.7901 34.6988 10.8073 34.718 10.8284Z" fill="#CC43C5"/>
<defs>
<linearGradient id="paint0_linear_1843_42338" x1="38.4828" y1="4.55172" x2="7.86207" y2="41.7931" gradientUnits="userSpaceOnUse">
<stop stop-color="#D34CD9"/>
<stop offset="1" stop-color="#F869B6"/>
</linearGradient>
</defs>
</svg>
