<svg width="24" height="24" viewBox="0 0 24 24" fill="none" xmlns="http://www.w3.org/2000/svg">
<path fill-rule="evenodd" clip-rule="evenodd" d="M20.7071 4.70711C21.0976 4.31658 21.0976 3.68342 20.7071 3.29289C20.3166 2.90237 19.6834 2.90237 19.2929 3.29289L17 5.58579V4C17 3.63121 16.797 3.29235 16.4719 3.11833C16.1467 2.94431 15.7522 2.96338 15.4453 3.16795L9.69722 7H7C5.89543 7 5 7.89543 5 9V15C5 15.7021 5.36182 16.3198 5.90917 16.6766L3.29289 19.2929C2.90237 19.6834 2.90237 20.3166 3.29289 20.7071C3.68342 21.0976 4.31658 21.0976 4.70711 20.7071L20.7071 4.70711ZM7.58579 15L15 7.58579V5.86852L10.8066 8.6641C10.4781 8.88313 10.0921 9 9.69722 9H7V15H7.58579Z" fill="black"/>
<path d="M15 13.2429L17 11.2429V20C17 20.3688 16.797 20.7077 16.4719 20.8817C16.1467 21.0557 15.7522 21.0366 15.4453 20.8321L10.6246 17.6183L12.0668 16.176L15 18.1315V13.2429Z" fill="black"/>
</svg>
