<svg width="24" height="24" viewBox="0 0 24 24" fill="none" xmlns="http://www.w3.org/2000/svg">
<path fill-rule="evenodd" clip-rule="evenodd" d="M12 2C9.23858 2 7 4.23858 7 7V9H6C4.89543 9 4 9.89543 4 11V20C4 21.1046 4.89543 22 6 22H18C19.1046 22 20 21.1046 20 20V11C20 9.89543 19.1046 9 18 9H9V7C9 5.34315 10.3431 4 12 4C13.3965 4 14.5725 4.95512 14.9055 6.24926C15.0432 6.78411 15.5884 7.1061 16.1232 6.96844C16.6581 6.83078 16.9801 6.28559 16.8424 5.75074C16.2874 3.59442 14.3312 2 12 2ZM12 13C12.5523 13 13 13.4477 13 14V17C13 17.5523 12.5523 18 12 18C11.4477 18 11 17.5523 11 17V14C11 13.4477 11.4477 13 12 13Z" fill="black"/>
</svg>
