<svg width="24" height="24" viewBox="0 0 24 24" fill="none" xmlns="http://www.w3.org/2000/svg">
<path d="M12.5393 0.0809335C12.8204 0.222001 13 0.524565 13 0.85715V2.04938C18.0533 2.5511 22 6.81465 22 12C22 17.5228 17.5228 22 12 22C6.47715 22 2 17.5228 2 12C2 9.6195 2.83304 7.43086 4.22263 5.71362C4.57004 5.28429 5.19972 5.21789 5.62905 5.5653C6.05837 5.91271 6.12478 6.54238 5.77737 6.97171C4.66536 8.34592 4 10.0939 4 12C4 16.4183 7.58172 20 12 20C16.4183 20 20 16.4183 20 12C20 7.92038 16.9463 4.55399 13 4.06189V5.14285C13 5.47544 12.8204 5.778 12.5393 5.91907C12.2582 6.06013 11.9263 6.01424 11.6879 5.80132L9.28785 3.65847C9.10546 3.49562 9 3.25438 9 3C9 2.74562 9.10546 2.50438 9.28785 2.34153L11.6879 0.198677C11.9263 -0.0142387 12.2582 -0.0601344 12.5393 0.0809335Z" fill="black"/>
<path fill-rule="evenodd" clip-rule="evenodd" d="M11.3921 12.2856C11.3921 14.4985 12.4878 15.9111 14.2817 15.9111C16.0757 15.9111 17.209 14.4663 17.209 12.2856V11.8936C17.209 9.68066 16.1294 8.28418 14.3193 8.28418C12.5146 8.28418 11.3921 9.70752 11.3921 11.8936V12.2856ZM13.1753 11.8989C13.1753 10.5078 13.5889 9.70215 14.2979 9.70215C15.0068 9.70215 15.4312 10.5132 15.4312 11.8989V12.2803C15.4312 13.6714 15.0068 14.4932 14.3032 14.4932C13.5942 14.4932 13.1753 13.6768 13.1753 12.2803V11.8989Z" fill="black"/>
<path d="M8.55078 14.8745C8.55078 15.4761 8.86768 15.8198 9.43164 15.8198C9.99023 15.8198 10.3071 15.4814 10.3071 14.8745V9.44971C10.3071 8.79443 9.88818 8.37012 9.25977 8.37012C8.8999 8.37012 8.51855 8.49365 8.09961 8.76221L7.22412 9.34766C6.90723 9.54639 6.74609 9.78271 6.74609 10.0459C6.74609 10.4004 7.00391 10.6582 7.3584 10.6582C7.53564 10.6582 7.68604 10.6045 7.96533 10.4272L8.5293 10.0459H8.55078V14.8745Z" fill="black"/>
</svg>
