<svg width="24" height="24" viewBox="0 0 24 24" fill="none" xmlns="http://www.w3.org/2000/svg">
<path d="M3 5H11.5L6.7 11.4C6.47274 11.703 6.43618 12.1084 6.60557 12.4472C6.77496 12.786 7.12123 13 7.5 13H11.5L7 19H3C1.89543 19 1 18.1046 1 17V7C1 5.89543 1.89543 5 3 5Z" fill="black"/>
<path fill-rule="evenodd" clip-rule="evenodd" d="M18 19H9.5L14.3 12.6C14.5273 12.297 14.5638 11.8916 14.3944 11.5528C14.225 11.214 13.8788 11 13.5 11H9.5L14 5H18C19.1046 5 20 5.89543 20 7V8H21.5C22.3284 8 23 8.67157 23 9.5V14.5C23 15.3284 22.3284 16 21.5 16H20V17C20 18.1046 19.1046 19 18 19ZM20 14H21V10H20V14Z" fill="black"/>
</svg>
