<svg width="24" height="24" viewBox="0 0 24 24" fill="none" xmlns="http://www.w3.org/2000/svg">
<path d="M18.9472 1.89444C18.763 1.52591 18.237 1.52591 18.0528 1.89444L17.0745 3.85094C17.0262 3.9477 16.9477 4.02616 16.8509 4.07454L14.8944 5.05279C14.5259 5.23706 14.5259 5.76296 14.8944 5.94722L16.8509 6.92547C16.9477 6.97386 17.0262 7.05232 17.0745 7.14908L18.0528 9.10558C18.237 9.47411 18.763 9.47411 18.9472 9.10558L19.9255 7.14908C19.9738 7.05232 20.0523 6.97386 20.1491 6.92547L22.1056 5.94722C22.4741 5.76296 22.4741 5.23706 22.1056 5.05279L20.1491 4.07454C20.0523 4.02616 19.9738 3.9477 19.9255 3.85094L18.9472 1.89444Z" fill="black"/>
<path fill-rule="evenodd" clip-rule="evenodd" d="M5 3.00001C3.89543 3.00001 3 3.89544 3 5.00001V19C3 20.1046 3.89543 21 5 21H19C20.1046 21 21 20.1046 21 19V13C21 12.4477 20.5523 12 20 12C19.4477 12 19 12.4477 19 13V19H16.9C16.4367 16.7178 14.419 15 12 15C9.58104 15 7.56329 16.7178 7.10002 19H5V5.00001H11C11.5523 5.00001 12 4.55229 12 4.00001C12 3.44772 11.5523 3.00001 11 3.00001H5Z" fill="black"/>
<path d="M12 7.00001C10.067 7.00001 8.5 8.56701 8.5 10.5C8.5 12.433 10.067 14 12 14C13.933 14 15.5 12.433 15.5 10.5C15.5 8.56701 13.933 7.00001 12 7.00001Z" fill="black"/>
</svg>
