<svg width="24" height="24" viewBox="0 0 24 24" fill="none" xmlns="http://www.w3.org/2000/svg">
<path fill-rule="evenodd" clip-rule="evenodd" d="M2 4C2 2.89543 2.89543 2 4 2H11C11.562 2 12.07 2.23262 12.4322 2.60411L17.7817 5.69263C18.2694 5.97419 18.5933 6.43092 18.7208 6.93501L21.8074 12.2811C22.3597 13.2377 22.0319 14.4609 21.0753 15.0131L10.3324 21.2156C9.50508 21.7136 8.53599 22 7.5 22C4.46243 22 2 19.5376 2 16.5V4ZM9.30243 19.5008L9.25 19.5311C8.73513 19.829 8.13762 20 7.5 20C5.567 20 4 18.433 4 16.5V4H11V16.5C11 17.1305 10.8333 17.722 10.5416 18.233L10.5248 18.2619C10.228 18.7704 9.80657 19.1974 9.30243 19.5008ZM13.5272 17.0616L20.0753 13.2811L17.8926 9.50055L13.5272 17.0616ZM13 13.9748L16.7817 7.42468L13 5.2413V13.9748Z" fill="black"/>
<path d="M9.25 16.5C9.25 17.4665 8.4665 18.25 7.5 18.25C6.5335 18.25 5.75 17.4665 5.75 16.5C5.75 15.5335 6.5335 14.75 7.5 14.75C8.4665 14.75 9.25 15.5335 9.25 16.5Z" fill="black"/>
</svg>
