<svg width="24" height="24" viewBox="0 0 24 24" fill="none" xmlns="http://www.w3.org/2000/svg">
<path d="M5.125 13C5.125 13.4832 5.51675 13.875 6 13.875C6.48325 13.875 6.875 13.4832 6.875 13C6.875 12.5168 6.48325 12.125 6 12.125C5.51675 12.125 5.125 12.5168 5.125 13ZM17.125 13C17.125 13.4832 17.5168 13.875 18 13.875C18.4832 13.875 18.875 13.4832 18.875 13C18.875 12.5168 18.4832 12.125 18 12.125C17.5168 12.125 17.125 12.5168 17.125 13ZM13.125 13C13.125 13.4832 13.5168 13.875 14 13.875C14.4832 13.875 14.875 13.4832 14.875 13C14.875 12.5168 14.4832 12.125 14 12.125C13.5168 12.125 13.125 12.5168 13.125 13ZM9.125 13C9.125 13.4832 9.51675 13.875 10 13.875C10.4832 13.875 10.875 13.4832 10.875 13C10.875 12.5168 10.4832 12.125 10 12.125C9.51675 12.125 9.125 12.5168 9.125 13ZM5.125 17C5.125 17.4832 5.51675 17.875 6 17.875C6.48325 17.875 6.875 17.4832 6.875 17C6.875 16.5168 6.48325 16.125 6 16.125C5.51675 16.125 5.125 16.5168 5.125 17ZM17.125 17C17.125 17.4832 17.5168 17.875 18 17.875C18.4832 17.875 18.875 17.4832 18.875 17C18.875 16.5168 18.4832 16.125 18 16.125C17.5168 16.125 17.125 16.5168 17.125 17Z" fill="black" stroke="black" stroke-width="0.75" stroke-linecap="square"/>
<path d="M10 17H14M14 5L12 3L10 5M3 9H21C21.5523 9 22 9.44772 22 10V20C22 20.5523 21.5523 21 21 21H3C2.44772 21 2 20.5523 2 20V10C2 9.44772 2.44772 9 3 9Z" stroke="black" stroke-width="2" stroke-linecap="round" stroke-linejoin="round"/>
</svg>
