<svg width="24" height="24" viewBox="0 0 24 24" fill="none" xmlns="http://www.w3.org/2000/svg">
<path d="M12.9995 13.0602C12.675 13.0205 12.3414 13 11.9995 13C8.20391 13 5.43342 15.5235 4.67107 18.9157C4.54186 19.4906 5.00868 20 5.59793 20H11.4995M17.9995 21.0833C18.2495 21.0833 20.9995 19.6667 20.9995 17.75C20.9995 16.4167 20.1662 15.75 19.3328 15.75C18.4995 15.75 17.9995 16.25 17.9995 16.25C17.9995 16.25 17.4995 15.75 16.6662 15.75C15.8328 15.75 14.9995 16.4167 14.9995 17.75C14.9995 19.6667 17.7495 21.0833 17.9995 21.0833ZM15.4995 6.5C15.4995 8.433 13.9325 10 11.9995 10C10.0665 10 8.49951 8.433 8.49951 6.5C8.49951 4.567 10.0665 3 11.9995 3C13.9325 3 15.4995 4.567 15.4995 6.5Z" stroke="black" stroke-width="2" stroke-linecap="round" stroke-linejoin="round"/>
</svg>
