<svg width="24" height="24" viewBox="0 0 24 24" fill="none" xmlns="http://www.w3.org/2000/svg">
<path d="M10.5 10.5C10.5 9.67157 11.1716 9 12 9C12.8284 9 13.5 9.67157 13.5 10.5C13.5 11.3284 12.8284 12 12 12C11.1716 12 10.5 11.3284 10.5 10.5Z" fill="black"/>
<path fill-rule="evenodd" clip-rule="evenodd" d="M5.5 2.5C4.39543 2.5 3.5 3.39543 3.5 4.5V19.5C3.5 20.6046 4.39543 21.5 5.5 21.5H18.5C19.6046 21.5 20.5 20.6046 20.5 19.5V4.5C20.5 3.39543 19.6046 2.5 18.5 2.5H5.5ZM8.5 16C8.5 15.4477 8.94772 15 9.5 15H14.5C15.0523 15 15.5 15.4477 15.5 16C15.5 16.5523 15.0523 17 14.5 17H9.5C8.94772 17 8.5 16.5523 8.5 16ZM12 7C10.067 7 8.5 8.567 8.5 10.5C8.5 12.433 10.067 14 12 14C13.933 14 15.5 12.433 15.5 10.5C15.5 8.567 13.933 7 12 7Z" fill="black"/>
</svg>
