<svg width="24" height="24" viewBox="0 0 24 24" fill="none" xmlns="http://www.w3.org/2000/svg">
<path d="M16.9998 14H20.002C20.5542 14 21.002 13.5523 21.002 13V5C21.002 4.44772 20.5542 4 20.002 4H8.00195C7.44967 4 7.00195 4.44772 7.00195 5V8M16.002 8H4.00195C3.44967 8 3.00195 8.44772 3.00195 9V17C3.00195 17.5523 3.44967 18 4.00195 18H6.00195V20.5L10.502 18H16.002C16.5542 18 17.002 17.5523 17.002 17V9C17.002 8.44772 16.5542 8 16.002 8Z" stroke="black" stroke-width="2" stroke-linecap="round" stroke-linejoin="round"/>
</svg>
