<svg width="24" height="24" viewBox="0 0 24 24" fill="none" xmlns="http://www.w3.org/2000/svg">
<path fill-rule="evenodd" clip-rule="evenodd" d="M2 5C2 3.89543 2.89543 3 4 3H20C21.1046 3 22 3.89543 22 5V17C22 18.1046 21.1046 19 20 19H16.3257L16.9615 21.2253C17.1132 21.7563 16.8058 22.3098 16.2747 22.4615C15.7437 22.6132 15.1902 22.3058 15.0385 21.7747L14.2457 19H9.7543L8.96152 21.7747C8.8098 22.3058 8.25631 22.6132 7.72528 22.4615C7.19424 22.3098 6.88675 21.7563 7.03848 21.2253L7.67427 19H4C2.89543 19 2 18.1046 2 17V5ZM9 13C9 12.4477 8.55228 12 8 12C7.44772 12 7 12.4477 7 13V14C7 14.5523 7.44772 15 8 15C8.55228 15 9 14.5523 9 14V13ZM12 7C12.5523 7 13 7.44772 13 8V14C13 14.5523 12.5523 15 12 15C11.4477 15 11 14.5523 11 14V8C11 7.44772 11.4477 7 12 7ZM17 11C17 10.4477 16.5523 10 16 10C15.4477 10 15 10.4477 15 11V14C15 14.5523 15.4477 15 16 15C16.5523 15 17 14.5523 17 14V11Z" fill="black"/>
</svg>
