<svg width="24" height="24" viewBox="0 0 24 24" fill="none" xmlns="http://www.w3.org/2000/svg">
<path fill-rule="evenodd" clip-rule="evenodd" d="M1 4C1 2.89543 1.89543 2 3 2H21C22.1046 2 23 2.89543 23 4V14C23 15.1046 22.1046 16 21 16H3C1.89543 16 1 15.1046 1 14V4ZM10 10C9.44771 10 9 10.4477 9 11C9 11.5523 9.44771 12 10 12H14C14.5523 12 15 11.5523 15 11C15 10.4477 14.5523 10 14 10H10ZM4.75 7C4.75 7.69036 5.30964 8.25 6 8.25C6.69036 8.25 7.25 7.69036 7.25 7C7.25 6.30964 6.69036 5.75 6 5.75C5.30964 5.75 4.75 6.30964 4.75 7ZM16.75 7C16.75 7.69036 17.3096 8.25 18 8.25C18.6904 8.25 19.25 7.69036 19.25 7C19.25 6.30964 18.6904 5.75 18 5.75C17.3096 5.75 16.75 6.30964 16.75 7ZM14 8.25C13.3096 8.25 12.75 7.69036 12.75 7C12.75 6.30964 13.3096 5.75 14 5.75C14.6904 5.75 15.25 6.30964 15.25 7C15.25 7.69036 14.6904 8.25 14 8.25ZM8.75 7C8.75 7.69036 9.30964 8.25 10 8.25C10.6904 8.25 11.25 7.69036 11.25 7C11.25 6.30964 10.6904 5.75 10 5.75C9.30964 5.75 8.75 6.30964 8.75 7ZM6 12.25C5.30964 12.25 4.75 11.6904 4.75 11C4.75 10.3096 5.30964 9.75 6 9.75C6.69036 9.75 7.25 10.3096 7.25 11C7.25 11.6904 6.69036 12.25 6 12.25ZM16.75 11C16.75 11.6904 17.3096 12.25 18 12.25C18.6904 12.25 19.25 11.6904 19.25 11C19.25 10.3096 18.6904 9.75 18 9.75C17.3096 9.75 16.75 10.3096 16.75 11Z" fill="black"/>
<path d="M12 19.5858L10.7071 18.2929C10.3166 17.9024 9.68342 17.9024 9.29289 18.2929C8.90237 18.6834 8.90237 19.3166 9.29289 19.7071L11.2929 21.7071C11.6834 22.0976 12.3166 22.0976 12.7071 21.7071L14.7071 19.7071C15.0976 19.3166 15.0976 18.6834 14.7071 18.2929C14.3166 17.9024 13.6834 17.9024 13.2929 18.2929L12 19.5858Z" fill="black"/>
</svg>
