<svg width="24" height="24" viewBox="0 0 24 24" fill="none" xmlns="http://www.w3.org/2000/svg">
<path d="M14.4978 10C14.4978 11.3807 13.3785 12.5 11.9978 12.5C10.6171 12.5 9.4978 11.3807 9.4978 10C9.4978 8.61929 10.6171 7.5 11.9978 7.5C13.3785 7.5 14.4978 8.61929 14.4978 10Z" stroke="black" stroke-width="2" stroke-linejoin="round"/>
<path d="M19 10C19 14.8354 14.2437 19.1734 12.5723 20.5484C12.2352 20.8258 11.7648 20.8258 11.4277 20.5484C9.75634 19.1734 5 14.8354 5 10C5 6.13401 8.13401 3 12 3C15.866 3 19 6.13401 19 10Z" stroke="black" stroke-width="2" stroke-linejoin="round"/>
</svg>
