<svg width="24" height="24" viewBox="0 0 24 24" fill="none" xmlns="http://www.w3.org/2000/svg">
<path fill-rule="evenodd" clip-rule="evenodd" d="M3 5C3 3.89543 3.89543 3 5 3H19C20.1046 3 21 3.89543 21 5V17.382C21 18.1395 20.572 18.832 19.8944 19.1708L12.8944 22.6708C12.3314 22.9523 11.6686 22.9523 11.1056 22.6708L4.10557 19.1708C3.428 18.832 3 18.1395 3 17.382V5ZM15.2071 10.9571C15.5976 10.5666 15.5976 9.93342 15.2071 9.54289C14.8166 9.15237 14.1834 9.15237 13.7929 9.54289L11 12.3358L10.2071 11.5429C9.81658 11.1524 9.18342 11.1524 8.79289 11.5429C8.40237 11.9334 8.40237 12.5666 8.79289 12.9571L10.2929 14.4571C10.4804 14.6446 10.7348 14.75 11 14.75C11.2652 14.75 11.5196 14.6446 11.7071 14.4571L15.2071 10.9571Z" fill="black"/>
</svg>
