<svg width="24" height="24" viewBox="0 0 24 24" fill="none" xmlns="http://www.w3.org/2000/svg">
<path d="M8 3C8 3.55228 8.44772 4 9 4C9.55228 4 10 3.55228 10 3H8ZM10 2C10 1.44772 9.55228 1 9 1C8.44772 1 8 1.44772 8 2H10ZM16 21C16 20.4477 15.5523 20 15 20C14.4477 20 14 20.4477 14 21H16ZM14 22C14 22.5523 14.4477 23 15 23C15.5523 23 16 22.5523 16 22H14ZM3 10C3.55228 10 4 9.55228 4 9C4 8.44772 3.55228 8 3 8V10ZM2 8C1.44772 8 1 8.44772 1 9C1 9.55228 1.44772 10 2 10V8ZM21 14C20.4477 14 20 14.4477 20 15C20 15.5523 20.4477 16 21 16V14ZM22 16C22.5523 16 23 15.5523 23 15C23 14.4477 22.5523 14 22 14V16ZM3.79289 5.20711C4.18342 5.59763 4.81658 5.59763 5.20711 5.20711C5.59763 4.81658 5.59763 4.18342 5.20711 3.79289L3.79289 5.20711ZM4.20711 2.79289C3.81658 2.40237 3.18342 2.40237 2.79289 2.79289C2.40237 3.18342 2.40237 3.81658 2.79289 4.20711L4.20711 2.79289ZM20.2071 18.7929C19.8166 18.4024 19.1834 18.4024 18.7929 18.7929C18.4024 19.1834 18.4024 19.8166 18.7929 20.2071L20.2071 18.7929ZM19.7929 21.2071C20.1834 21.5976 20.8166 21.5976 21.2071 21.2071C21.5976 20.8166 21.5976 20.1834 21.2071 19.7929L19.7929 21.2071ZM4.62132 16.6213L3.91421 17.3284L3.91421 17.3284L4.62132 16.6213ZM7.37868 19.3787L6.67157 20.0858L6.67157 20.0858L7.37868 19.3787ZM19.3787 7.37868L18.6716 8.08579L18.6716 8.08579L19.3787 7.37868ZM16.6213 4.62132L15.9142 5.32843L15.9142 5.32843L16.6213 4.62132ZM12.3787 4.62132L13.0858 5.32843L12.3787 4.62132ZM10.2929 5.29289C9.90237 5.68342 9.90237 6.31658 10.2929 6.70711C10.6834 7.09763 11.3166 7.09763 11.7071 6.70711L10.2929 5.29289ZM6.70711 11.7071C7.09763 11.3166 7.09763 10.6834 6.70711 10.2929C6.31658 9.90237 5.68342 9.90237 5.29289 10.2929L6.70711 11.7071ZM4.62132 12.3787L5.32843 13.0858L5.32843 13.0858L4.62132 12.3787ZM17.2929 12.2929C16.9024 12.6834 16.9024 13.3166 17.2929 13.7071C17.6834 14.0976 18.3166 14.0976 18.7071 13.7071L17.2929 12.2929ZM19.3787 11.6213L18.6716 10.9142L18.6716 10.9142L19.3787 11.6213ZM11.6213 19.3787L10.9142 18.6716L10.9142 18.6716L11.6213 19.3787ZM13.7071 18.7071C14.0976 18.3166 14.0976 17.6834 13.7071 17.2929C13.3166 16.9024 12.6834 16.9024 12.2929 17.2929L13.7071 18.7071ZM10 3V2H8V3H10ZM14 21V22H16V21H14ZM3 8H2V10H3V8ZM21 16H22V14H21V16ZM5.20711 3.79289L4.20711 2.79289L2.79289 4.20711L3.79289 5.20711L5.20711 3.79289ZM18.7929 20.2071L19.7929 21.2071L21.2071 19.7929L20.2071 18.7929L18.7929 20.2071ZM3.91421 17.3284L6.67157 20.0858L8.08579 18.6716L5.32843 15.9142L3.91421 17.3284ZM20.0858 6.67157L17.3284 3.91421L15.9142 5.32843L18.6716 8.08579L20.0858 6.67157ZM11.6716 3.91421L10.2929 5.29289L11.7071 6.70711L13.0858 5.32843L11.6716 3.91421ZM5.29289 10.2929L3.91421 11.6716L5.32843 13.0858L6.70711 11.7071L5.29289 10.2929ZM18.7071 13.7071L20.0858 12.3284L18.6716 10.9142L17.2929 12.2929L18.7071 13.7071ZM12.3284 20.0858L13.7071 18.7071L12.2929 17.2929L10.9142 18.6716L12.3284 20.0858ZM18.6716 8.08579C19.4526 8.86684 19.4526 10.1332 18.6716 10.9142L20.0858 12.3284C21.6479 10.7663 21.6479 8.23367 20.0858 6.67157L18.6716 8.08579ZM6.67157 20.0858C8.23367 21.6479 10.7663 21.6479 12.3284 20.0858L10.9142 18.6716C10.1332 19.4526 8.86684 19.4526 8.08579 18.6716L6.67157 20.0858ZM5.32843 15.9142C4.54738 15.1332 4.54738 13.8668 5.32843 13.0858L3.91421 11.6716C2.35212 13.2337 2.35212 15.7663 3.91421 17.3284L5.32843 15.9142ZM17.3284 3.91421C15.7663 2.35211 13.2337 2.35212 11.6716 3.91421L13.0858 5.32843C13.8668 4.54738 15.1332 4.54738 15.9142 5.32843L17.3284 3.91421Z" fill="black"/>
</svg>
