<svg width="24" height="24" viewBox="0 0 24 24" fill="none" xmlns="http://www.w3.org/2000/svg">
<path d="M8 12H6C4.89543 12 4 12.8954 4 14C4 15.1046 4.89543 16 6 16H16C17.1046 16 18 16.8954 18 18C18 19.1046 17.1046 20 16 20H12M12 12L14.5858 12C14.851 12 15.1054 11.8947 15.2929 11.7071L20.2929 6.70704C20.6834 6.31651 20.6834 5.68334 20.2929 5.29282L18.7071 3.70707C18.3166 3.31655 17.6834 3.31656 17.2929 3.70708L12.2929 8.70708C12.1054 8.89462 12 9.14898 12 9.41419V12Z" stroke="black" stroke-width="2" stroke-linecap="round" stroke-linejoin="round"/>
</svg>
