<svg width="24" height="24" viewBox="0 0 24 24" fill="none" xmlns="http://www.w3.org/2000/svg">
<path fill-rule="evenodd" clip-rule="evenodd" d="M8 2C6.89543 2 6 2.89543 6 4V6H4C2.89543 6 2 6.89543 2 8V16C2 17.1046 2.89543 18 4 18H6V20C6 21.1046 6.89543 22 8 22H16C17.1046 22 18 21.1046 18 20V18H20C21.1046 18 22 17.1046 22 16V8C22 6.89543 21.1046 6 20 6H18V4C18 2.89543 17.1046 2 16 2H8ZM16 6V4H8V6H16ZM16 15H8V20H16V15ZM6 11C6 10.4477 6.44772 10 7 10H9C9.55228 10 10 10.4477 10 11C10 11.5523 9.55228 12 9 12H7C6.44772 12 6 11.5523 6 11Z" fill="black"/>
</svg>
