<svg width="24" height="24" viewBox="0 0 24 24" fill="none" xmlns="http://www.w3.org/2000/svg">
<path fill-rule="evenodd" clip-rule="evenodd" d="M3 5C1.89543 5 1 5.89543 1 7V17C1 18.1046 1.89543 19 3 19H18C19.1046 19 20 18.1046 20 17V16H21.5C22.3284 16 23 15.3284 23 14.5V9.5C23 8.67157 22.3284 8 21.5 8H20V7C20 5.89543 19.1046 5 18 5H3ZM20 10V14H21V10H20ZM7.79289 9.29289C8.18342 8.90237 8.81658 8.90237 9.20711 9.29289L10.5 10.5858L11.7929 9.29289C12.1834 8.90237 12.8166 8.90237 13.2071 9.29289C13.5976 9.68342 13.5976 10.3166 13.2071 10.7071L11.9142 12L13.2071 13.2929C13.5976 13.6834 13.5976 14.3166 13.2071 14.7071C12.8166 15.0976 12.1834 15.0976 11.7929 14.7071L10.5 13.4142L9.20711 14.7071C8.81658 15.0976 8.18342 15.0976 7.79289 14.7071C7.40237 14.3166 7.40237 13.6834 7.79289 13.2929L9.08579 12L7.79289 10.7071C7.40237 10.3166 7.40237 9.68342 7.79289 9.29289Z" fill="black"/>
</svg>
