<svg width="24" height="24" viewBox="0 0 24 24" fill="none" xmlns="http://www.w3.org/2000/svg">
<path d="M9 4.75059V17.2506M15 6.25059V18.7506M3 17.8632V6.97135C3 6.54092 3.27543 6.15878 3.68377 6.02267L8.68377 4.356C8.88904 4.28758 9.11096 4.28758 9.31623 4.356L14.6838 6.14519C14.889 6.21361 15.111 6.21361 15.3162 6.14519L19.6838 4.68934C20.3313 4.47349 21 4.95546 21 5.63802V16.5298C21 16.9603 20.7246 17.3424 20.3162 17.4785L15.3162 19.1452C15.111 19.2136 14.889 19.2136 14.6838 19.1452L9.31623 17.356C9.11096 17.2876 8.88904 17.2876 8.68377 17.356L4.31623 18.8119C3.6687 19.0277 3 18.5457 3 17.8632Z" stroke="black" stroke-width="2" stroke-linecap="round" stroke-linejoin="round"/>
</svg>
