<svg width="24" height="24" viewBox="0 0 24 24" fill="none" xmlns="http://www.w3.org/2000/svg">
<path d="M4.5 7C4.5 7.82843 3.82843 8.5 3 8.5C2.17157 8.5 1.5 7.82843 1.5 7C1.5 6.17157 2.17157 5.5 3 5.5C3.82843 5.5 4.5 6.17157 4.5 7Z" fill="black"/>
<path d="M22.5 7C22.5 7.82843 21.8284 8.5 21 8.5C20.1716 8.5 19.5 7.82843 19.5 7C19.5 6.17157 20.1716 5.5 21 5.5C21.8284 5.5 22.5 6.17157 22.5 7Z" fill="black"/>
<path d="M4.5 7C4.5 7.82843 3.82843 8.5 3 8.5C2.17157 8.5 1.5 7.82843 1.5 7C1.5 6.17157 2.17157 5.5 3 5.5C3.82843 5.5 4.5 6.17157 4.5 7Z" stroke="black" stroke-linecap="round" stroke-linejoin="round"/>
<path d="M22.5 7C22.5 7.82843 21.8284 8.5 21 8.5C20.1716 8.5 19.5 7.82843 19.5 7C19.5 6.17157 20.1716 5.5 21 5.5C21.8284 5.5 22.5 6.17157 22.5 7Z" stroke="black" stroke-linecap="round" stroke-linejoin="round"/>
<path d="M3 7H10M14 7H21M4 14.9999C4 11.2722 6.54955 8.14004 10 7.25195M14 7.25195C17.4505 8.14004 20 11.2722 20 14.9999M10.5 9H13.5C13.7761 9 14 8.77614 14 8.5V5.5C14 5.22386 13.7761 5 13.5 5H10.5C10.2239 5 10 5.22386 10 5.5V8.5C10 8.77614 10.2239 9 10.5 9ZM18.5 19H21.5C21.7761 19 22 18.7761 22 18.5V15.5C22 15.2239 21.7761 15 21.5 15H18.5C18.2239 15 18 15.2239 18 15.5V18.5C18 18.7761 18.2239 19 18.5 19ZM2.5 19H5.5C5.77614 19 6 18.7761 6 18.5V15.5C6 15.2239 5.77614 15 5.5 15H2.5C2.22386 15 2 15.2239 2 15.5V18.5C2 18.7761 2.22386 19 2.5 19Z" stroke="black" stroke-width="2" stroke-linecap="round" stroke-linejoin="round"/>
</svg>
