<svg width="24" height="24" viewBox="0 0 24 24" fill="none" xmlns="http://www.w3.org/2000/svg">
<path fill-rule="evenodd" clip-rule="evenodd" d="M6 5C4.89543 5 4 5.89543 4 7C4 8.10457 4.89543 9 6 9C7.10457 9 8 8.10457 8 7C8 5.89543 7.10457 5 6 5ZM2 7C2 4.79086 3.79086 3 6 3C8.20914 3 10 4.79086 10 7C10 9.20914 8.20914 11 6 11C3.79086 11 2 9.20914 2 7Z" fill="black"/>
<path fill-rule="evenodd" clip-rule="evenodd" d="M6 15C4.89543 15 4 15.8954 4 17C4 18.1046 4.89543 19 6 19C7.10457 19 8 18.1046 8 17C8 15.8954 7.10457 15 6 15ZM2 17C2 14.7909 3.79086 13 6 13C8.20914 13 10 14.7909 10 17C10 19.2091 8.20914 21 6 21C3.79086 21 2 19.2091 2 17Z" fill="black"/>
<path d="M19.6252 5.13643C19.0321 4.64223 18.2076 4.53346 17.5067 4.85696L12.1614 7.32401C11.4531 7.65092 10.9995 8.35983 10.9995 9.13993V10.573L7.38189 9.07608L6.61719 10.9241L9.21748 12.0001L6.61719 13.0761L7.38189 14.9241L10.9995 13.4272V14.8603C10.9995 15.6404 11.4531 16.3493 12.1614 16.6762L17.5067 19.1432C18.2076 19.4667 19.0321 19.358 19.6252 18.8638L22.1397 16.7683C22.4087 16.5442 22.5409 16.1956 22.4881 15.8495C22.4354 15.5033 22.2054 15.21 21.8819 15.0761L14.4483 12.0001L21.8819 8.92412C22.2054 8.79023 22.4354 8.49688 22.4881 8.15072C22.5409 7.80457 22.4087 7.45604 22.1397 7.23188L19.6252 5.13643Z" fill="black"/>
</svg>
