<svg width="24" height="24" viewBox="0 0 24 24" fill="none" xmlns="http://www.w3.org/2000/svg">
<path fill-rule="evenodd" clip-rule="evenodd" d="M6 2C4.89543 2 4 2.89543 4 4V19.3884C4 20.5401 5.24423 21.2622 6.24421 20.6908L8.53147 19.3838L11.1056 20.6708C11.6686 20.9523 12.3314 20.9523 12.8944 20.6708L15.4685 19.3838L17.7558 20.6908C18.7558 21.2622 20 20.5401 20 19.3884V4C20 2.89543 19.1046 2 18 2H6ZM9 14C9 13.4477 9.44772 13 10 13H14C14.5523 13 15 13.4477 15 14C15 14.5523 14.5523 15 14 15H10C9.44772 15 9 14.5523 9 14ZM14.4571 8.25711C14.8476 7.86658 14.8476 7.23342 14.4571 6.84289C14.0666 6.45237 13.4334 6.45237 13.0429 6.84289L11.3 8.58579L10.9571 8.24289C10.5666 7.85237 9.93342 7.85237 9.54289 8.24289C9.15237 8.63342 9.15237 9.26658 9.54289 9.65711L10.5929 10.7071C10.7804 10.8946 11.0348 11 11.3 11C11.5652 11 11.8196 10.8946 12.0071 10.7071L14.4571 8.25711Z" fill="black"/>
</svg>
