<svg width="24" height="24" viewBox="0 0 24 24" fill="none" xmlns="http://www.w3.org/2000/svg">
<path fill-rule="evenodd" clip-rule="evenodd" d="M7 7C7 4.23858 9.23858 2 12 2C14.7614 2 17 4.23858 17 7C17.6251 7 18.1832 7.28678 18.55 7.73595L20.4083 7.06021C20.9273 6.87147 21.5011 7.13922 21.6898 7.65826C21.8785 8.17729 21.6108 8.75105 21.0917 8.93979L19 9.70043V12H21C21.5523 12 22 12.4477 22 13C22 13.5523 21.5523 14 21 14H19V15C19 15.4297 18.9613 15.8503 18.8872 16.2585L21.0917 17.0602C21.6108 17.2489 21.8785 17.8227 21.6898 18.3417C21.5011 18.8608 20.9273 19.1285 20.4083 18.9398L18.2503 18.1551C17.24 20.1525 15.3004 21.6001 13 21.9291V13C13 12.4477 12.5523 12 12 12C11.4477 12 11 12.4477 11 13V21.9291C8.69958 21.6001 6.75996 20.1525 5.74968 18.1551L3.59174 18.9398C3.07271 19.1285 2.49895 18.8608 2.31021 18.3417C2.12147 17.8227 2.38922 17.2489 2.90826 17.0602L5.11283 16.2585C5.03871 15.8503 5 15.4297 5 15V14H3C2.44772 14 2 13.5523 2 13C2 12.4477 2.44772 12 3 12H5V9.70043L2.90826 8.93979C2.38922 8.75105 2.12147 8.17729 2.31021 7.65826C2.49895 7.13922 3.07271 6.87147 3.59174 7.06021L5.45003 7.73595C5.81678 7.28678 6.3749 7 7 7ZM12 4C10.3431 4 9 5.34315 9 7H15C15 5.34315 13.6569 4 12 4Z" fill="black"/>
</svg>
