<svg width="24" height="24" viewBox="0 0 24 24" fill="none" xmlns="http://www.w3.org/2000/svg">
<path fill-rule="evenodd" clip-rule="evenodd" d="M3 5C3 3.89543 3.89543 3 5 3H7C7.55228 3 8 3.44772 8 4C8 4.55228 7.55228 5 7 5H5V19H7C7.55228 19 8 19.4477 8 20C8 20.5523 7.55228 21 7 21H5C3.89543 21 3 20.1046 3 19V5ZM16 4C16 3.44772 16.4477 3 17 3H19C20.1046 3 21 3.89543 21 5V19C21 20.1046 20.1046 21 19 21H17C16.4477 21 16 20.5523 16 20C16 19.4477 16.4477 19 17 19H19V5H17C16.4477 5 16 4.55228 16 4Z" fill="black"/>
</svg>
