<svg width="24" height="24" viewBox="0 0 24 24" fill="none" xmlns="http://www.w3.org/2000/svg">
<path fill-rule="evenodd" clip-rule="evenodd" d="M11 4.99261C11 3.71583 12.1801 2.76597 13.4274 3.03881L19.4274 4.35131C20.3456 4.55216 21 5.36523 21 6.30511V17.6953C21 18.6352 20.3456 19.4483 19.4274 19.6491L13.4274 20.9616C12.1801 21.2345 11 20.2846 11 19.0078V4.99261ZM19 6.30511L13 4.99261V19.0078L19 17.6953V6.30511ZM8 4.00022C8.55228 4.00022 9 4.44793 9 5.00022V19.0002C9 19.5525 8.55228 20.0002 8 20.0002C7.44772 20.0002 7 19.5525 7 19.0002V5.00022C7 4.44793 7.44772 4.00022 8 4.00022ZM4 5.00022C4.55228 5.00022 5 5.44793 5 6.00022V18.0002C5 18.5525 4.55228 19.0002 4 19.0002C3.44772 19.0002 3 18.5525 3 18.0002V6.00022C3 5.44793 3.44772 5.00022 4 5.00022Z" fill="black"/>
</svg>
