<svg width="24" height="24" viewBox="0 0 24 24" fill="none" xmlns="http://www.w3.org/2000/svg">
<path d="M3 19C2.44772 19 2 19.4477 2 20C2 20.5523 2.44772 21 3 21V19ZM21 21C21.5523 21 22 20.5523 22 20C22 19.4477 21.5523 19 21 19V21ZM7 16C7 16.5523 7.44772 17 8 17C8.55228 17 9 16.5523 9 16H7ZM15 16C15 16.5523 15.4477 17 16 17C16.5523 17 17 16.5523 17 16H15ZM3 15C2.44772 15 2 15.4477 2 16C2 16.5523 2.44772 17 3 17V15ZM4 17C4.55228 17 5 16.5523 5 16C5 15.4477 4.55228 15 4 15V17ZM20 15C19.4477 15 19 15.4477 19 16C19 16.5523 19.4477 17 20 17V15ZM21 17C21.5523 17 22 16.5523 22 16C22 15.4477 21.5523 15 21 15V17ZM17.4861 10.0917C17.063 10.4467 17.0079 11.0774 17.3629 11.5005C17.7179 11.9236 18.3486 11.9788 18.7717 11.6238L17.4861 10.0917ZM19.5377 10.981C19.9608 10.626 20.016 9.99521 19.661 9.57214C19.306 9.14906 18.6752 9.09388 18.2522 9.44888L19.5377 10.981ZM5.74826 9.44888C5.32518 9.09387 4.69443 9.14906 4.33942 9.57213C3.98442 9.99521 4.03961 10.626 4.46268 10.981L5.74826 9.44888ZM5.22873 11.6238C5.6518 11.9788 6.28256 11.9236 6.63756 11.5005C6.99256 11.0774 6.93738 10.4467 6.5143 10.0917L5.22873 11.6238ZM11 7C11 7.55228 11.4477 8 12 8C12.5523 8 13 7.55228 13 7H11ZM13 2C13 1.44772 12.5523 1 12 1C11.4477 1 11 1.44772 11 2H13ZM9.70711 4.29289C9.31658 3.90237 8.68342 3.90237 8.29289 4.29289C7.90237 4.68342 7.90237 5.31658 8.29289 5.70711L9.70711 4.29289ZM12 8L11.2929 8.70711C11.6834 9.09763 12.3166 9.09763 12.7071 8.70711L12 8ZM15.7071 5.70711C16.0976 5.31658 16.0976 4.68342 15.7071 4.29289C15.3166 3.90237 14.6834 3.90237 14.2929 4.29289L15.7071 5.70711ZM3 21H21V19H3V21ZM9 16C9 14.3431 10.3431 13 12 13V11C9.23858 11 7 13.2386 7 16H9ZM12 13C13.6569 13 15 14.3431 15 16H17C17 13.2386 14.7614 11 12 11V13ZM3 17H4V15H3V17ZM20 17H21V15H20V17ZM18.7717 11.6238L19.5377 10.981L18.2522 9.44888L17.4861 10.0917L18.7717 11.6238ZM4.46268 10.981L5.22873 11.6238L6.5143 10.0917L5.74826 9.44888L4.46268 10.981ZM13 7V2H11V7H13ZM8.29289 5.70711L11.2929 8.70711L12.7071 7.29289L9.70711 4.29289L8.29289 5.70711ZM12.7071 8.70711L15.7071 5.70711L14.2929 4.29289L11.2929 7.29289L12.7071 8.70711Z" fill="black"/>
</svg>
