<svg width="24" height="24" viewBox="0 0 24 24" fill="none" xmlns="http://www.w3.org/2000/svg">
<path d="M6.5 8C7.88071 8 9 6.88071 9 5.5C9 4.11929 7.88071 3 6.5 3C5.11929 3 4 4.11929 4 5.5C4 6.88071 5.11929 8 6.5 8ZM6.5 8V11C6.5 11.5523 6.94772 12 7.5 12H11C11.5523 12 12 12.4477 12 13M17.5 8C18.8807 8 20 6.88071 20 5.5C20 4.11929 18.8807 3 17.5 3C16.1193 3 15 4.11929 15 5.5C15 6.88071 16.1193 8 17.5 8ZM17.5 8V11C17.5 11.5523 17.0523 12 16.5 12H13C12.4477 12 12 12.4477 12 13M12 16C10.6193 16 9.5 17.1193 9.5 18.5C9.5 19.8807 10.6193 21 12 21C13.3807 21 14.5 19.8807 14.5 18.5C14.5 17.1193 13.3807 16 12 16ZM12 16V13" stroke="black" stroke-width="2"/>
</svg>
