<svg width="24" height="24" viewBox="0 0 24 24" fill="none" xmlns="http://www.w3.org/2000/svg">
<path d="M1.29302 4.54289C0.902491 4.93342 0.902491 5.56658 1.29302 5.95711C1.68354 6.34763 2.3167 6.34763 2.70723 5.95711L5.70723 2.95711C6.09775 2.56658 6.09775 1.93342 5.70723 1.54289C5.3167 1.15237 4.68354 1.15237 4.29302 1.54289L1.29302 4.54289Z" fill="black"/>
<path d="M19.7072 1.54289C19.3167 1.15237 18.6835 1.15237 18.293 1.54289C17.9025 1.93342 17.9025 2.56658 18.293 2.95711L21.293 5.95711C21.6835 6.34763 22.3167 6.34763 22.7072 5.95711C23.0978 5.56658 23.0978 4.93342 22.7072 4.54289L19.7072 1.54289Z" fill="black"/>
<path fill-rule="evenodd" clip-rule="evenodd" d="M22 12C22 17.5228 17.5228 22 12 22C6.47712 22 1.99997 17.5228 1.99997 12C1.99997 6.47715 6.47712 2 12 2C17.5228 2 22 6.47715 22 12ZM12 7C12.5523 7 13 7.44772 13 8V11.5858L15.2071 13.7929C15.5976 14.1834 15.5976 14.8166 15.2071 15.2071C14.8166 15.5976 14.1834 15.5976 13.7929 15.2071L11.2929 12.7071C11.1053 12.5196 11 12.2652 11 12V8C11 7.44772 11.4477 7 12 7Z" fill="black"/>
</svg>
