<svg width="24" height="24" viewBox="0 0 24 24" fill="none" xmlns="http://www.w3.org/2000/svg">
<path d="M3 6C3 5.44772 3.44772 5 4 5H14C14.5523 5 15 5.44772 15 6V18C15 18.5523 14.5523 19 14 19H4C3.44772 19 3 18.5523 3 18V6Z" stroke="black" stroke-width="2" stroke-linejoin="round"/>
<path d="M15.5528 9.72361L20.2764 7.3618C20.6088 7.19558 21 7.43733 21 7.80902V16.191C21 16.5627 20.6088 16.8044 20.2764 16.6382L15.5528 14.2764C15.214 14.107 15 13.7607 15 13.382V10.618C15 10.2393 15.214 9.893 15.5528 9.72361Z" stroke="black" stroke-width="2" stroke-linejoin="round"/>
</svg>
