<svg width="24" height="24" viewBox="0 0 24 24" fill="none" xmlns="http://www.w3.org/2000/svg">
<path fill-rule="evenodd" clip-rule="evenodd" d="M10.3608 6.13237C9.92008 6.04548 9.46501 6 9 6C5.13401 6 2 9.13401 2 13C2 16.866 5.13401 20 9 20H16.5C19.5376 20 22 17.5376 22 14.5C22 12.612 21.0489 10.9478 19.6019 9.95778C19.8581 9.35608 20 8.69401 20 8C20 5.23858 17.7614 3 15 3C12.8984 3 11.1007 4.29596 10.3608 6.13237ZM12.2499 6.79875C13.2556 7.32674 14.1161 8.09158 14.7581 9.01856C14.8273 9.11843 15.0064 9.20213 15.189 9.15746C15.6101 9.0544 16.0494 9 16.5 9C16.9374 9 17.3636 9.05124 17.7727 9.14823C17.9192 8.79497 18 8.40748 18 8C18 6.34315 16.6569 5 15 5C13.7708 5 12.7131 5.73998 12.2499 6.79875Z" fill="black"/>
</svg>
