<svg width="24" height="24" viewBox="0 0 24 24" fill="none" xmlns="http://www.w3.org/2000/svg">
<path d="M8.86523 9.83594V12.8779H7.03418V12.8193C7.60547 11.6914 8.11816 10.8711 8.82617 9.83594H8.86523Z" fill="black"/>
<path fill-rule="evenodd" clip-rule="evenodd" d="M2 6C2 4.89543 2.89543 4 4 4H20C21.1046 4 22 4.89543 22 6V18C22 19.1046 21.1046 20 20 20H4C2.89543 20 2 19.1046 2 18V6ZM8.80664 14.6406C8.80664 15.3047 9.2168 15.6221 9.7832 15.6221C10.3447 15.6221 10.7598 15.3047 10.7598 14.6406V14.3818H10.916C11.458 14.3818 11.7217 14.0498 11.7217 13.5908C11.7217 13.1318 11.4629 12.7949 10.9209 12.7949H10.7598V9.76758C10.7598 8.90332 10.0762 8.33203 9.0459 8.33203C8.24023 8.33203 7.76172 8.64941 7.17578 9.57227C6.63379 10.4219 6.19922 11.1396 5.74023 11.9648C5.4668 12.4531 5.33984 12.8486 5.33984 13.2246C5.33984 13.9082 5.85742 14.3818 6.60449 14.3818H8.80664V14.6406ZM12.4102 14.5381C12.4102 15.2314 12.7861 15.6221 13.4453 15.6221C14.1045 15.6221 14.4805 15.2314 14.4805 14.5381V13.6543L15.0957 13.0195L16.6777 15.0264C17.0146 15.4561 17.3174 15.6221 17.7617 15.6221C18.3281 15.6221 18.7578 15.1875 18.7578 14.6211C18.7578 14.3281 18.6064 14.0156 18.25 13.5762L16.7266 11.6914L18.1816 10.1387C18.4746 9.82617 18.582 9.60156 18.582 9.28906C18.582 8.75684 18.1426 8.33203 17.6006 8.33203C17.249 8.33203 16.9805 8.46875 16.6826 8.80078L14.5195 11.2471H14.4805V9.41602C14.4805 8.72266 14.1045 8.33203 13.4453 8.33203C12.7861 8.33203 12.4102 8.72266 12.4102 9.41602V14.5381Z" fill="black"/>
</svg>
