<svg width="24" height="24" viewBox="0 0 24 24" fill="none" xmlns="http://www.w3.org/2000/svg">
<path d="M4 7H6.96482C7.29917 7 7.6114 6.8329 7.79687 6.5547L9.20313 4.4453C9.3886 4.1671 9.70083 4 10.0352 4H13.9648C14.2992 4 14.6114 4.1671 14.7969 4.4453L16.2031 6.5547C16.3886 6.8329 16.7008 7 17.0352 7H20C20.5523 7 21 7.44772 21 8V19C21 19.5523 20.5523 20 20 20H4C3.44772 20 3 19.5523 3 19V8C3 7.44772 3.44772 7 4 7Z" stroke="black" stroke-width="2" stroke-linecap="square" stroke-linejoin="round"/>
<path d="M15 13C15 14.6569 13.6569 16 12 16C10.3431 16 9 14.6569 9 13C9 11.3431 10.3431 10 12 10C13.6569 10 15 11.3431 15 13Z" stroke="black" stroke-width="2" stroke-linecap="square" stroke-linejoin="round"/>
</svg>
