<?xml version="1.0" encoding="UTF-8" standalone="no"?>
<!-- Svg Vector Icons : http://www.onlinewebfonts.com/icon -->

<svg
   version="1.1"
   x="0px"
   y="0px"
   viewBox="0 0 13.999999 18"
   enable-background="new 0 0 1000 1000"
   xml:space="preserve"
   id="svg4"
   sodipodi:docname="coffee.svg"
   width="14"
   height="18"
   inkscape:version="1.3-dev (77bc73e, 2022-05-18)"
   xmlns:inkscape="http://www.inkscape.org/namespaces/inkscape"
   xmlns:sodipodi="http://sodipodi.sourceforge.net/DTD/sodipodi-0.dtd"
   xmlns="http://www.w3.org/2000/svg"
   xmlns:svg="http://www.w3.org/2000/svg"><defs
   id="defs4" /><sodipodi:namedview
   id="namedview4"
   pagecolor="#ffffff"
   bordercolor="#000000"
   borderopacity="0.25"
   inkscape:showpageshadow="2"
   inkscape:pageopacity="0.0"
   inkscape:pagecheckerboard="0"
   inkscape:deskcolor="#d1d1d1"
   showgrid="false"
   inkscape:zoom="10.680141"
   inkscape:cx="-17.181421"
   inkscape:cy="4.07298"
   inkscape:window-width="1368"
   inkscape:window-height="947"
   inkscape:window-x="1764"
   inkscape:window-y="58"
   inkscape:window-maximized="0"
   inkscape:current-layer="svg4" />
<metadata
   id="metadata1"> Svg Vector Icons : http://www.onlinewebfonts.com/icon </metadata>
<g
   id="g4"
   transform="matrix(0.01779387,0,0,0.01779387,-1.8340539,0.04465199)"><g
     transform="matrix(0.1,0,0,-0.1,0,511)"
     id="g3"><path
       d="m 4302.6,4870.6 c 149.5,-177.8 240.5,-319.3 347.6,-545.6 119.2,-254.6 169.7,-448.6 183.9,-699.2 22.2,-462.7 -137.4,-778 -539.5,-1060.9 -474.9,-335.4 -685,-739.6 -687,-1315.5 0,-260.7 38.4,-501.1 115.2,-739.6 50.5,-149.5 56.6,-159.6 60.6,-97 18.2,234.4 56.6,476.9 101,626.4 121.2,422.3 305.1,622.4 885.1,959.8 424.3,248.5 575.9,487 575.9,905.3 -2,501.1 -359.7,1295.3 -798.2,1768.1 -82.8,88.9 -198,202.1 -256.6,250.6 l -105.1,86.9 z"
       id="path1"
       style="fill:#be5f00;fill-opacity:1" /><path
       d="m 5981.8,3577.3 c 272.8,-369.8 309.2,-846.7 90.9,-1192.2 -147.5,-232.4 -373.8,-406.2 -822.4,-638.5 -592,-303.1 -854.7,-683 -854.7,-1232.6 0,-276.8 14.2,-343.5 72.7,-343.5 38.4,0 48.5,16.2 68.7,111.1 34.4,167.7 135.4,349.6 262.7,476.9 147.5,145.5 349.6,244.5 838.6,412.2 503.2,171.8 725.4,280.9 846.7,416.3 210.1,232.4 276.8,535.5 202.1,903.2 -76.8,373.8 -216.2,618.3 -537.5,943.7 -155.7,155.6 -214.3,206.1 -167.8,143.4 z"
       id="path2"
       style="fill:#be5f00;fill-opacity:1" /><path
       d="M 2748.7,592.8 C 2158.7,507.9 1732.3,352.3 1542.4,156.3 1415.1,25 1409,-11.4 1427.2,-445.8 c 34.3,-832.5 181.9,-1729.7 462.7,-2829 153.6,-600.1 309.2,-1113.4 351.6,-1159.9 56.6,-62.6 272.8,-157.6 476.9,-210.1 668.8,-173.8 2172.2,-196 2960.3,-42.4 357.7,68.7 604.2,163.7 731.5,278.9 68.7,60.6 84.9,92.9 107.1,198 64.7,335.4 56.6,319.3 131.3,319.3 107.1,0 438.5,92.9 602.2,167.7 220.3,103.1 363.7,202.1 567.8,398.1 470.8,452.6 759.8,1149.8 761.8,1840.8 0,398.1 -72.7,614.3 -274.8,818.4 -220.3,222.3 -466.8,309.2 -937.6,325.4 l -309.2,12.1 14.2,218.2 14.2,218.2 -56.6,52.5 C 6866.9,314 6274.9,499.9 5696.9,582.7 L 5614,594.8 5533.2,457.4 5450.4,322 5565.6,305.8 c 588,-84.9 868.9,-159.6 978,-256.6 56.6,-50.5 60.6,-62.6 44.5,-113.2 -80.8,-226.3 -1000.2,-371.8 -2329.8,-371.8 -1220.5,0 -2097.5,123.3 -2295.5,321.3 -52.5,54.5 -56.6,66.7 -36.4,111.1 48.5,107.1 341.5,206.1 822.4,276.8 143.5,20.2 301.1,38.4 349.6,38.4 46.5,0 84.9,4 84.9,8.1 0,8.1 -175.8,295 -185.9,305.1 -4.2,2.1 -115.3,-12 -248.7,-32.2 z m 4797.1,-1614.5 c 153.6,-26.3 272.8,-82.8 317.2,-153.6 56.6,-84.9 60.6,-400.1 8.1,-652.7 -111.1,-545.6 -404.1,-996.2 -788.1,-1220.5 -139.4,-80.8 -333.4,-151.5 -355.6,-129.3 -8.1,8.1 18.2,216.2 58.6,462.7 78.8,482.9 159.6,1073 202.1,1450.8 l 24.2,232.4 70.7,12.1 c 115.3,20.3 325.4,20.3 462.8,-1.9 z"
       id="path3"
       style="fill:#be5f00;fill-opacity:1" /></g></g>
</svg>
