<svg width="16" height="16" viewBox="0 0 16 16" fill="none" xmlns="http://www.w3.org/2000/svg">
<path d="M7.24028 1.68331C7.43702 1.91729 7.55677 2.1035 7.69771 2.4013C7.85457 2.73635 7.92103 2.99164 7.93971 3.32142C7.96893 3.93032 7.7589 4.34524 7.22975 4.71753C6.6048 5.1589 6.32832 5.69082 6.32568 6.44868C6.32568 6.79175 6.37622 7.10811 6.47728 7.42197C6.54374 7.6187 6.55177 7.632 6.55703 7.54962C6.58098 7.24115 6.63151 6.92203 6.68994 6.7253C6.84944 6.16957 7.09144 5.90624 7.8547 5.46223C8.41307 5.13522 8.61257 4.82136 8.61257 4.27089C8.60993 3.61146 8.13921 2.56632 7.56216 1.94414C7.4532 1.82715 7.3016 1.67818 7.22449 1.61436L7.08618 1.5L7.24028 1.68331Z" fill="#BE5F00"/>
<path d="M9.45017 3.38524C9.80917 3.87189 9.85707 4.49947 9.5698 4.95414C9.37569 5.25997 9.07789 5.48868 8.48755 5.79438C7.7085 6.19325 7.36279 6.69318 7.36279 7.41644C7.36279 7.78069 7.38148 7.86847 7.45846 7.86847C7.509 7.86847 7.52229 7.84715 7.54887 7.72227C7.59414 7.50158 7.72705 7.2622 7.89457 7.09468C8.08868 6.90321 8.35463 6.77293 8.99814 6.55224C9.66033 6.32616 9.95274 6.18259 10.1124 6.00441C10.3889 5.69858 10.4766 5.29971 10.3783 4.81583C10.2773 4.32392 10.0938 4.00217 9.67099 3.57395C9.4661 3.36919 9.38898 3.30273 9.45017 3.38524Z" fill="#BE5F00"/>
<path d="M5.1958 7.31274C4.41938 7.42447 3.85825 7.62923 3.60835 7.88716C3.44083 8.05995 3.4328 8.10785 3.45675 8.6795C3.50189 9.77504 3.69613 10.9557 4.06565 12.4024C4.26778 13.1921 4.47254 13.8676 4.52834 13.9288C4.60282 14.0111 4.88734 14.1361 5.15592 14.2052C6.03604 14.434 8.01446 14.4632 9.05157 14.261C9.52229 14.1706 9.84668 14.0456 10.0142 13.894C10.1046 13.8143 10.1259 13.7718 10.1551 13.6334C10.2403 13.1921 10.2296 13.2133 10.3279 13.2133C10.4689 13.2133 10.905 13.091 11.1204 12.9926C11.4103 12.8569 11.599 12.7266 11.8676 12.4687C12.4872 11.8731 12.8675 10.9556 12.8701 10.0463C12.8701 9.52238 12.7744 9.23787 12.5085 8.96928C12.2186 8.67674 11.8942 8.56238 11.2746 8.54106L10.8677 8.52514L10.8864 8.238L10.9051 7.95085L10.8306 7.88177C10.6152 7.67963 9.83615 7.435 9.07552 7.32603L8.96643 7.31011L8.8601 7.49092L8.75114 7.66911L8.90274 7.69042C9.67652 7.80215 10.0462 7.90045 10.1898 8.0281C10.2642 8.09456 10.2695 8.11048 10.2483 8.17707C10.142 8.47487 8.93208 8.66634 7.18238 8.66634C5.57624 8.66634 4.42214 8.50409 4.16158 8.24352C4.09249 8.1718 4.0871 8.15575 4.11368 8.09732C4.17751 7.95638 4.56308 7.8261 5.19593 7.73306C5.38477 7.70648 5.59217 7.68253 5.65599 7.68253C5.71718 7.68253 5.76772 7.67726 5.76772 7.67187C5.76772 7.66121 5.53637 7.28366 5.52308 7.27037C5.51755 7.2676 5.37135 7.28616 5.1958 7.31274ZM11.5086 9.43737C11.7107 9.47198 11.8676 9.54633 11.926 9.6395C12.0005 9.75122 12.0058 10.166 11.9367 10.4984C11.7905 11.2164 11.4049 11.8094 10.8996 12.1046C10.7161 12.2109 10.4608 12.3039 10.4316 12.2747C10.421 12.2641 10.4556 11.9902 10.5087 11.6658C10.6124 11.0303 10.7188 10.2538 10.7747 9.75662L10.8065 9.45079L10.8996 9.43487C11.0513 9.40815 11.3278 9.40815 11.5086 9.43737Z" fill="#BE5F00"/>
</svg>
