<svg width="24" height="24" viewBox="0 0 24 24" fill="none" xmlns="http://www.w3.org/2000/svg">
<path d="M8.99989 5.74989L11.4696 3.28022C11.7624 2.98732 12.2373 2.98732 12.5302 3.28022L14.9999 5.74989M5.74989 8.99989L3.28022 11.4696C2.98732 11.7624 2.98732 12.2373 3.28022 12.5302L5.74989 14.9999M18.2499 8.99989L20.7196 11.4696C21.0125 11.7624 21.0125 12.2373 20.7196 12.5302L18.2499 14.9999M14.9999 18.2499L12.5302 20.7196C12.2373 21.0125 11.7624 21.0125 11.4696 20.7196L8.99989 18.2499M11.9999 3.99989V11.9999M11.9999 11.9999V19.9999M11.9999 11.9999H3.99989M11.9999 11.9999H19.9999" stroke="black" stroke-width="2" stroke-linecap="round" stroke-linejoin="round"/>
</svg>
