<svg width="24" height="24" viewBox="0 0 24 24" fill="none" xmlns="http://www.w3.org/2000/svg">
<path d="M19.071 4.92969C20.8807 6.73933 22 9.23933 22 12.0008C22 14.7622 20.8807 17.2622 19.071 19.0718M15.8891 8.11133C16.8844 9.10663 17.5 10.4816 17.5 12.0004C17.5 13.5192 16.8844 14.8942 15.8891 15.8895M3 8H5.69722C5.89465 8 6.08766 7.94156 6.25192 7.83205L12 4V20L6.25192 16.1679C6.08766 16.0584 5.89465 16 5.69722 16H3C2.44772 16 2 15.5523 2 15V9C2 8.44772 2.44772 8 3 8Z" stroke="black" stroke-width="2" stroke-linecap="round" stroke-linejoin="round"/>
</svg>
