<svg width="16" height="16" viewBox="0 0 16 16" fill="none" xmlns="http://www.w3.org/2000/svg">
<path d="M13.1429 11.5231C12.4472 11.5231 11.7969 11.1092 11.4286 10.8202C11.0603 11.1089 10.4099 11.5231 9.71429 11.5231C9.01866 11.5231 8.3683 11.1092 8 10.8202C7.6317 11.1089 6.98134 11.5231 6.28571 11.5231C5.59009 11.5231 4.93973 11.1092 4.57143 10.8202C4.20312 11.1089 3.55277 11.5231 2.85714 11.5231C2.55527 11.5231 2.26545 11.4409 2 11.3286V13.6326C2 14.1229 2.38384 14.5 2.85714 14.5H13.1429C13.6162 14.5 14 14.1222 14 13.6562V11.3523C13.7348 11.4651 13.4455 11.5231 13.1429 11.5231ZM8.85714 5.21875C8.85714 4.98577 8.66525 4.79688 8.42857 4.79688H7.57143C7.33571 4.79688 7.14286 4.98672 7.14286 5.21875V6.90625H8.85714V5.21875ZM12.2857 5.21875C12.2857 4.98577 12.0938 4.79688 11.8571 4.79688H11C10.7643 4.79688 10.5714 4.98672 10.5714 5.21875V6.90625L12.2616 6.90544L12.2857 5.21875ZM5.42857 5.21875C5.42857 4.98577 5.23668 4.79688 5 4.79688H4.14286C3.90607 4.79688 3.71429 4.98672 3.71429 5.21875V6.90546L5.42857 6.90625V5.21875Z" fill="#CC43C5"/>
<path opacity="0.4" d="M12.2616 6.88252H3.71429C2.76741 6.88252 2 7.63794 2 8.54629V10.3577C2.26288 10.5186 2.57295 10.6565 2.85714 10.6565C3.41 10.6565 4.06384 10.1362 4.26875 9.93584C4.43616 9.77186 4.70643 9.77186 4.87384 9.93584C5.05625 10.1837 5.73393 10.6794 6.28571 10.6794C6.8375 10.6794 7.49241 10.1592 7.69732 9.95878C7.86473 9.7948 8.135 9.7948 8.30241 9.95878C8.48482 10.1837 9.1625 10.6794 9.71429 10.6794C10.2661 10.6794 10.921 10.1592 11.1259 9.95878C11.2933 9.7948 11.5636 9.7948 11.731 9.95878C11.9134 10.1837 12.5911 10.6794 13.1429 10.6794C13.4271 10.6794 13.7372 10.5416 14 10.3807V8.57002C14 7.66035 13.2313 6.88252 12.2616 6.88252ZM4.57143 3.92939C5.16313 3.92939 5.64286 3.45795 5.64286 2.8755C5.64286 2.29305 4.57143 1 4.57143 1C4.57143 1 3.5 2.31599 3.5 2.89844C3.5 3.48089 3.97973 3.92939 4.57143 3.92939ZM8 3.92939C8.5917 3.92939 9.07143 3.45795 9.07143 2.8755C9.07143 2.29305 8 1 8 1C8 1 6.92857 2.31599 6.92857 2.89844C6.92857 3.48089 7.40804 3.92939 8 3.92939ZM11.4286 3.92939C12.0203 3.92939 12.5 3.45795 12.5 2.8755C12.5 2.29305 11.4286 1 11.4286 1C11.4286 1 10.3571 2.31599 10.3571 2.89844C10.3571 3.48089 10.8366 3.92939 11.4286 3.92939Z" fill="#CC43C5"/>
</svg>
