<svg width="24" height="24" viewBox="0 0 24 24" fill="none" xmlns="http://www.w3.org/2000/svg">
<path d="M21 14V19C21 20.1 20.1 21 19 21H5.5C3.57 21 2 19.43 2 17.5V6.5C2 4.57 3.57 3 5.5 3H7C7.55 3 8 3.45 8 4V6H10C10.55 6 11 6.45 11 7C11 7.55 10.55 8 10 8H8V15C8 15.55 7.55 16 7 16H5.5C4.67 16 4 16.67 4 17.5C4 18.33 4.67 19 5.5 19H19V14C19 13.45 19.45 13 20 13C20.55 13 21 13.45 21 14ZM16.55 11.9C16.69 11.97 16.84 12.01 17 12.01C17.16 12.01 17.31 11.97 17.45 11.9C17.59 11.83 21 10.09 21 7.01C21 4.8 19.21 3.01 17 3.01C14.79 3.01 13 4.8 13 7.01C13 10.09 16.41 11.83 16.55 11.9Z" fill="black"/>
</svg>
