<svg width="24" height="24" viewBox="0 0 24 24" fill="none" xmlns="http://www.w3.org/2000/svg">
<path fill-rule="evenodd" clip-rule="evenodd" d="M11.9998 2C8.06376 2 4.73574 4.91373 4.21554 8.8152L3.15948 16.7357C2.99961 17.9346 3.93236 19 5.14193 19H7.3534C8.25755 20.7479 9.96113 22 11.9998 22C14.0384 22 15.742 20.7479 16.6461 19H18.8576C20.0671 19 20.9999 17.9346 20.84 16.7357L19.784 8.8152C19.2638 4.91374 15.9357 2 11.9998 2ZM14.2215 19H9.778C10.3869 19.6373 11.1765 20 11.9998 20C12.823 20 13.6126 19.6373 14.2215 19Z" fill="black"/>
</svg>
