<svg width="24" height="24" viewBox="0 0 24 24" fill="none" xmlns="http://www.w3.org/2000/svg">
<path fill-rule="evenodd" clip-rule="evenodd" d="M12 2H6C4.89543 2 4 2.89543 4 4V20C4 21.1046 4.89543 22 6 22H18C19.1046 22 20 21.1046 20 20V10H14C12.8954 10 12 9.10457 12 8V2ZM8 14C8 13.4477 8.44772 13 9 13H12C12.5523 13 13 13.4477 13 14C13 14.5523 12.5523 15 12 15H9C8.44772 15 8 14.5523 8 14ZM9 17C8.44772 17 8 17.4477 8 18C8 18.5523 8.44772 19 9 19H15.5C16.0523 19 16.5 18.5523 16.5 18C16.5 17.4477 16.0523 17 15.5 17H9Z" fill="black"/>
<path d="M19.4142 8L14 2.58579V8H19.4142Z" fill="black"/>
</svg>
