<svg width="24" height="24" viewBox="0 0 24 24" fill="none" xmlns="http://www.w3.org/2000/svg">
<path d="M4.00293 4C2.89874 4 2.00347 4.89483 2.00293 5.99902L2 11.999C1.99946 13.104 2.89505 14 4 14H5.00016L5.00342 19.0007C5.00363 19.3285 5.16455 19.6354 5.43409 19.8221C5.70363 20.0088 6.04755 20.0514 6.35454 19.9363L6.35549 19.936L6.35653 19.9356L6.3589 19.9347L6.36474 19.9325L6.38078 19.9262C6.39338 19.9213 6.40976 19.9147 6.42967 19.9065C6.46948 19.8901 6.5235 19.867 6.58971 19.8368C6.72196 19.7766 6.90379 19.6878 7.11868 19.5669C7.54676 19.3261 8.11607 18.9526 8.68736 18.417C9.84161 17.3349 11.0034 15.5853 11.0034 13V5.99882C11.0034 4.89272 10.1065 4 9.00342 4H4.00293Z" fill="#0F1419"/>
<path d="M15.0034 4C13.8988 4 13.0034 4.89543 13.0034 6V12C13.0034 13.1046 13.8988 14 15.0034 14H16.0034V19C16.0034 19.328 16.1642 19.6351 16.4338 19.8219C16.7034 20.0087 17.0474 20.0515 17.3545 19.9363L17.3555 19.936L17.3565 19.9356L17.3589 19.9347L17.3647 19.9325L17.3808 19.9262C17.3934 19.9213 17.4098 19.9147 17.4297 19.9065C17.4695 19.8901 17.5235 19.867 17.5897 19.8368C17.722 19.7766 17.9038 19.6878 18.1187 19.5669C18.5468 19.3261 19.1161 18.9526 19.6874 18.417C20.8416 17.3349 22.0034 15.5853 22.0034 13V5.99882C22.0034 4.89272 21.1065 4 20.0034 4H15.0034Z" fill="#0F1419"/>
</svg>
