<svg width="24" height="24" viewBox="0 0 24 24" fill="none" xmlns="http://www.w3.org/2000/svg">
<path fill-rule="evenodd" clip-rule="evenodd" d="M12.632 3.44248C14.7331 2.25184 17.4486 1.74378 21.0712 2.00255C21.5674 2.03798 21.962 2.43264 21.9975 2.92876C22.2562 6.55145 21.7482 9.26688 20.5575 11.368C19.4692 13.2887 17.868 14.594 16 15.6068V17.5401C16 18.1239 15.7449 18.6786 15.3016 19.0586L12.1508 21.7593C11.8984 21.9756 11.5551 22.0524 11.2346 21.9641C10.9142 21.8759 10.6586 21.6343 10.5524 21.3195L10.55 21.3125L10.5405 21.2849C10.5318 21.2599 10.5184 21.2216 10.5005 21.1716C10.4647 21.0716 10.411 20.9248 10.341 20.7424C10.2007 20.3769 9.99621 19.8723 9.74049 19.3171C9.21438 18.175 8.52476 16.939 7.79289 16.2071C7.06103 15.4752 5.82502 14.7856 4.68287 14.2595C4.1277 14.0038 3.6231 13.7993 3.25763 13.659C3.07525 13.589 2.92843 13.5353 2.82839 13.4995C2.77839 13.4816 2.74015 13.4682 2.71506 13.4595L2.68749 13.45L2.68145 13.4479C2.36656 13.3418 2.12406 13.0858 2.03586 12.7654C1.94765 12.4449 2.02443 12.1016 2.24074 11.8492L4.94142 8.69842C5.32139 8.25513 5.87609 8 6.45994 8H8.39325C9.40598 6.13198 10.7113 4.53085 12.632 3.44248ZM15.5 10.5C16.6046 10.5 17.5 9.60457 17.5 8.5C17.5 7.39543 16.6046 6.5 15.5 6.5C14.3954 6.5 13.5 7.39543 13.5 8.5C13.5 9.60457 14.3954 10.5 15.5 10.5Z" fill="black"/>
<path d="M5.20711 16.7929C5.59763 17.1834 5.59763 17.8166 5.20711 18.2071L2.70711 20.7071C2.31658 21.0977 1.68342 21.0977 1.29289 20.7071C0.902369 20.3166 0.902369 19.6834 1.29289 19.2929L3.79289 16.7929C4.18342 16.4024 4.81658 16.4024 5.20711 16.7929Z" fill="black"/>
<path d="M7.20711 20.2071C7.59763 19.8166 7.59763 19.1834 7.20711 18.7929C6.81658 18.4024 6.18342 18.4024 5.79289 18.7929L4.29289 20.2929C3.90237 20.6834 3.90237 21.3166 4.29289 21.7071C4.68342 22.0977 5.31658 22.0977 5.70711 21.7071L7.20711 20.2071Z" fill="black"/>
</svg>
