<svg width="24" height="24" viewBox="0 0 24 24" fill="none" xmlns="http://www.w3.org/2000/svg">
<g clip-path="url(#clip0_2568_25487)">
<path fill-rule="evenodd" clip-rule="evenodd" d="M17.2729 14.1454L15.6488 14.6049C15.6465 14.6056 15.6441 14.6063 15.6417 14.607L14.8422 14.8332C14.2495 15.001 13.6474 14.6533 13.4963 14.0562C13.3447 13.4572 13.7043 12.8345 14.2987 12.6663L16.7193 11.9813C17.312 11.8136 17.9141 12.1613 18.0653 12.7584C18.216 13.3539 17.8613 13.973 17.2729 14.1454ZM12.7339 12.5256C12.3879 13.0488 12.2534 13.7093 12.4172 14.3566C12.7205 15.5553 13.9318 16.2546 15.1216 15.918L17.5422 15.233C17.547 15.2317 17.5518 15.2303 17.5566 15.2289L21.5549 14.0975C22.1594 13.9265 22.7736 14.2811 22.9277 14.8901C23.0797 15.4911 22.7299 16.1109 22.1429 16.2881C20.1347 16.8945 16.6353 17.9245 14.0736 18.5357C12.8007 18.8394 11.2756 19.1551 9.80662 19.4412C6.99744 19.9882 4.35439 18.1206 3.84568 15.2718L3.13618 11.2986C2.92569 10.1199 3.11071 8.89366 3.66235 7.81425L6.72186 0.651707C6.88939 0.259509 7.28218 0.0119486 7.70828 0.0300066C8.7182 0.613084 9.28165 1.75389 9.14358 2.94255L8.73277 6.47937C8.71126 6.66448 8.78123 6.84654 8.91975 6.96588C9.05826 7.08523 9.24747 7.12649 9.42539 7.07615L9.97714 6.92003C9.87573 7.28954 9.86507 7.68797 9.96466 8.08152C10.1836 8.94656 10.8753 9.55152 11.6905 9.69478C11.5161 10.1304 11.472 10.6213 11.5944 11.1049C11.7582 11.7523 12.1868 12.254 12.7339 12.5256ZM14.0194 11.5816L15.6331 11.1249C16.2276 10.9567 16.5871 10.334 16.4356 9.73503C16.2844 9.13788 15.6823 8.79025 15.0896 8.95796L13.4759 9.41458C12.8814 9.58279 12.5219 10.2056 12.6734 10.8045C12.8245 11.4016 13.4267 11.7493 14.0194 11.5816ZM13.1951 8.33027L13.1965 8.32987L14.0034 8.10156C14.5976 7.93316 14.9574 7.31044 14.8058 6.71165C14.6547 6.11451 14.0526 5.76687 13.4599 5.93458L11.846 6.39122C11.2516 6.5594 10.8921 7.18207 11.0437 7.78112C11.1948 8.37826 11.797 8.72589 12.3897 8.55818L13.1951 8.33027Z" fill="black"/>
</g>
<defs>
<clipPath id="clip0_2568_25487">
<rect width="24" height="24" fill="white"/>
</clipPath>
</defs>
</svg>
