<svg width="24" height="24" viewBox="0 0 24 24" fill="none" xmlns="http://www.w3.org/2000/svg">
<path d="M15.0001 3C16.9331 3 18.5001 4.567 18.5001 6.5C18.5001 8.433 16.9331 10 15.0001 10M20.5001 20H22.0001C22.5524 20 23.0085 19.5492 22.9197 19.0041C22.5126 16.5029 20.5945 14.4277 18.0001 13.5088M9.00007 10C7.06707 10 5.50007 8.433 5.50007 6.5C5.50007 4.567 7.06707 3 9.00007 3C10.9331 3 12.5001 4.567 12.5001 6.5C12.5001 8.433 10.9331 10 9.00007 10ZM1.08043 19.004C1.63302 15.6098 4.96823 13 9.00007 13C13.0319 13 16.3671 15.6098 16.9197 19.004C17.0084 19.5491 16.5524 20 16.0001 20H2.00007C1.44778 20 0.991688 19.5491 1.08043 19.004Z" stroke="black" stroke-width="2" stroke-linecap="round" stroke-linejoin="round"/>
</svg>
