<svg width="24" height="24" viewBox="0 0 24 24" fill="none" xmlns="http://www.w3.org/2000/svg">
<path d="M7.04284 7C8.32397 5.76414 10.0895 5 12 5C15.866 5 19 8.13401 19 12C19 12.5523 19.4477 13 20 13C20.5523 13 21 12.5523 21 12C21 7.02944 16.9706 3 12 3C9.72351 3 7.60781 3.84628 5.99988 5.24419V4C5.99988 3.44772 5.55216 3 4.99988 3C4.44759 3 3.99988 3.44772 3.99988 4V7.5C3.99988 8.32843 4.67145 9 5.49988 9H8.74988C9.30216 9 9.74988 8.55228 9.74988 8C9.74988 7.44772 9.30216 7 8.74988 7H7.04284Z" fill="black"/>
<path d="M5 12C5 11.4477 4.55228 11 4 11C3.44772 11 3 11.4477 3 12C3 16.9706 7.02944 21 12 21C14.282 21 16.4024 20.1496 18.0117 18.7457V20C18.0117 20.5523 18.4594 21 19.0117 21C19.564 21 20.0117 20.5523 20.0117 20V16.5C20.0117 15.6716 19.3401 15 18.5117 15H15.0117C14.4594 15 14.0117 15.4477 14.0117 16C14.0117 16.5523 14.4594 17 15.0117 17H16.9572C15.676 18.2359 13.9105 19 12 19C8.13401 19 5 15.866 5 12Z" fill="black"/>
</svg>
