<svg width="24" height="24" viewBox="0 0 24 24" fill="none" xmlns="http://www.w3.org/2000/svg">
<path d="M3 19C3 20.1046 3.89543 21 5 21H8C8.55228 21 9 20.5523 9 20C9 19.4477 8.55228 19 8 19H5V16C5 15.4477 4.55228 15 4 15C3.44772 15 3 15.4477 3 16V19Z" fill="black"/>
<path d="M3 8C3 8.55229 3.44772 9 4 9C4.55228 9 5 8.55229 5 8V5H8C8.55228 5 9 4.55229 9 4C9 3.44772 8.55228 3 8 3H5C3.89543 3 3 3.89543 3 5V8Z" fill="black"/>
<path d="M16 19C15.4477 19 15 19.4477 15 20C15 20.5523 15.4477 21 16 21H19C20.1046 21 21 20.1046 21 19V16C21 15.4477 20.5523 15 20 15C19.4477 15 19 15.4477 19 16V19H16Z" fill="black"/>
<path d="M16 3C15.4477 3 15 3.44772 15 4C15 4.55229 15.4477 5 16 5H19V8C19 8.55229 19.4477 9 20 9C20.5523 9 21 8.55229 21 8V5C21 3.89543 20.1046 3 19 3H16Z" fill="black"/>
<path d="M12.7442 7.27356C12.2831 7.01005 11.7169 7.01005 11.2558 7.27356L8.50005 8.84828L12 10.8482L15.5 8.84828L12.7442 7.27356Z" fill="black"/>
<path d="M7.5 13.7099V10.5803L11 12.5803V16.5804L8.25579 15.0123C7.78843 14.7452 7.5 14.2482 7.5 13.7099Z" fill="black"/>
<path d="M15.7442 15.0123L13 16.5804V12.5803L16.5 10.5803V13.7099C16.5 14.2482 16.2116 14.7452 15.7442 15.0123Z" fill="black"/>
</svg>
