<?xml version="1.0" encoding="utf-8"?>
<!-- Svg Vector Icons : http://www.onlinewebfonts.com/icon -->
<!DOCTYPE svg PUBLIC "-//W3C//DTD SVG 1.1//EN" "http://www.w3.org/Graphics/SVG/1.1/DTD/svg11.dtd">
<svg version="1.1" xmlns="http://www.w3.org/2000/svg" xmlns:xlink="http://www.w3.org/1999/xlink" x="0px" y="0px" viewBox="0 0 1000 1000" enable-background="new 0 0 1000 1000" xml:space="preserve">
<metadata> Svg Vector Icons : http://www.onlinewebfonts.com/icon </metadata>
<g><g><g><path d="M180.4,436.1v127.8c0,46.9,38.3,85.2,85.2,85.2h127.8V615v-93.7v-42.6H265.7v42.6h85.2v85.2h-85.2c-25.6,0-42.6-17-42.6-42.6V436.1c0-25.6,17-42.6,42.6-42.6h127.8v-42.6H265.7C218.8,350.9,180.4,389.2,180.4,436.1z"/><polygon points="436.1,393.5 478.7,393.5 478.7,606.5 436.1,606.5 436.1,649.1 563.9,649.1 563.9,606.5 521.3,606.5 521.3,393.5 563.9,393.5 563.9,350.9 436.1,350.9 "/><path d="M862.2,223H137.8C65.4,223,10,278.4,10,350.9v298.3C10,721.6,65.4,777,137.8,777h724.3c72.4,0,127.8-55.4,127.8-127.8V350.9C990,278.4,934.6,223,862.2,223z M947.4,649.1c0,46.9-38.3,85.2-85.2,85.2H137.8c-46.9,0-85.2-38.3-85.2-85.2V350.9c0-46.9,38.3-85.2,85.2-85.2h724.3c46.9,0,85.2,38.3,85.2,85.2V649.1z"/><polygon points="606.5,649.1 649.1,649.1 649.1,521.3 777,521.3 777,478.7 649.1,478.7 649.1,393.5 819.6,393.5 819.6,350.9 606.5,350.9 "/></g></g><g></g><g></g><g></g><g></g><g></g><g></g><g></g><g></g><g></g><g></g><g></g><g></g><g></g><g></g><g></g></g>
</svg>