<svg width="24" height="24" viewBox="0 0 24 24" fill="none" xmlns="http://www.w3.org/2000/svg">
<path fill-rule="evenodd" clip-rule="evenodd" d="M9 4C9.55228 4 10 4.44772 10 5L10 19C10 19.5523 9.55229 20 9 20C8.44772 20 8 19.5523 8 19L8 5C8 4.44772 8.44772 4 9 4ZM21 7C21.5523 7 22 7.44772 22 8V19C22 19.5523 21.5523 20 21 20C20.4477 20 20 19.5523 20 19V8C20 7.44772 20.4477 7 21 7ZM3.00494 10C3.55723 10.0003 4.0047 10.4483 4.00439 11.0005L4 19.0005C3.9997 19.5528 3.55174 20.0003 2.99945 20C2.44717 19.9997 1.9997 19.5517 2 18.9995L2.00439 10.9995C2.0047 10.4472 2.45266 9.9997 3.00494 10ZM14.9978 13C15.5501 13 15.9978 13.4477 15.9978 14V19C15.9978 19.5523 15.5501 20 14.9978 20C14.4455 20 13.9978 19.5523 13.9978 19V14C13.9978 13.4477 14.4455 13 14.9978 13Z" fill="black"/>
</svg>
