<svg width="24" height="24" viewBox="0 0 24 24" fill="none" xmlns="http://www.w3.org/2000/svg">
<path fill-rule="evenodd" clip-rule="evenodd" d="M4 4C4 2.89543 4.89543 2 6 2H18C19.1046 2 20 2.89543 20 4V13.1678C18.8872 12.1353 17.3932 11.5 15.75 11.5C12.2982 11.5 9.5 14.2982 9.5 17.75C9.5 19.3913 10.1326 20.8848 11.1674 22H6C4.89543 22 4 21.1046 4 20V4ZM7 6C7 5.44772 7.44772 5 8 5H14C14.5523 5 15 5.44772 15 6C15 6.55228 14.5523 7 14 7H8C7.44772 7 7 6.55228 7 6ZM7 10C7 9.44772 7.44772 9 8 9H10C10.5523 9 11 9.44772 11 10C11 10.5523 10.5523 11 10 11H8C7.44772 11 7 10.5523 7 10Z" fill="black"/>
<path fill-rule="evenodd" clip-rule="evenodd" d="M15.75 13.5C13.4028 13.5 11.5 15.4028 11.5 17.75C11.5 20.0972 13.4028 22 15.75 22H18.5C20.433 22 22 20.433 22 18.5C22 16.7446 20.7077 15.2911 19.0227 15.0388C18.2447 14.1005 17.0684 13.5 15.75 13.5ZM13.5 17.75C13.5 16.5074 14.5074 15.5 15.75 15.5C16.5461 15.5 17.2453 15.9122 17.6466 16.5391C17.8308 16.827 18.1493 17.0008 18.491 17L18.5 17C19.328 17.0005 20 17.6719 20 18.5C20 19.3284 19.3284 20 18.5 20H15.75C14.5074 20 13.5 18.9926 13.5 17.75Z" fill="black"/>
</svg>
