<svg width="24" height="24" viewBox="0 0 24 24" fill="none" xmlns="http://www.w3.org/2000/svg">
<path d="M11.9999 2C9.23852 2 6.99995 4.23858 6.99995 7V11C6.99995 13.7614 9.23852 16 11.9999 16C14.7614 16 16.9999 13.7614 16.9999 11V7C16.9999 4.23858 14.7614 2 11.9999 2Z" fill="black"/>
<path d="M5.85313 14.4556C5.55248 13.9924 4.93319 13.8605 4.46991 14.1612C4.00663 14.4618 3.87479 15.0811 4.17543 15.5444C5.29906 17.2758 7.44641 19.5784 10.9999 19.9488V21C10.9999 21.5523 11.4477 22 11.9999 22C12.5522 22 12.9999 21.5523 12.9999 21V19.9488C16.5535 19.5784 18.7008 17.2758 19.8245 15.5444C20.1251 15.0811 19.9933 14.4618 19.53 14.1612C19.0667 13.8605 18.4474 13.9924 18.1468 14.4556C17.1072 16.0576 15.2001 18 11.9999 18C8.79984 18 6.89274 16.0576 5.85313 14.4556Z" fill="black"/>
</svg>
