<svg width="24" height="24" viewBox="0 0 24 24" fill="none" xmlns="http://www.w3.org/2000/svg">
<path d="M11 20H5C4.44772 20 4 19.5523 4 19V9M4 9V6C4 5.44772 4.44772 5 5 5H19C19.5523 5 20 5.44772 20 6V9M4 9H20M20 9V10M8 5V3M16 5V3M15 21H16.5858C16.851 21 17.1054 20.8946 17.2929 20.7071L21.2929 16.7071C21.6834 16.3166 21.6834 15.6834 21.2929 15.2929L20.7071 14.7071C20.3166 14.3166 19.6834 14.3166 19.2929 14.7071L15.2929 18.7071C15.1054 18.8946 15 19.149 15 19.4142V21Z" stroke="black" stroke-width="2" stroke-linecap="round" stroke-linejoin="round"/>
</svg>
