<svg width="24" height="24" viewBox="0 0 24 24" fill="none" xmlns="http://www.w3.org/2000/svg">
<path d="M6 12V8C6 7.44772 6.44772 7 7 7H17C17.5523 7 18 7.44772 18 8V12M3 20L6.41857 19.2403M6.41857 19.2403L7.28307 19.0482C7.42595 19.0165 7.57405 19.0165 7.71693 19.0482L11.7831 19.9518C11.9259 19.9835 12.0741 19.9835 12.2169 19.9518L16.2831 19.0482C16.4259 19.0165 16.5741 19.0165 16.7169 19.0482L17.5814 19.2403M6.41857 19.2403C5.06195 17.3788 4.45753 15.8262 4.12779 13.8769C4.04343 13.3782 4.36902 12.9077 4.85968 12.7851L11.7575 11.0606C11.9167 11.0208 12.0833 11.0208 12.2425 11.0606L19.1403 12.7851C19.631 12.9077 19.9566 13.3782 19.8722 13.8769C19.5425 15.8262 18.9381 17.3788 17.5814 19.2403M17.5814 19.2403L21 20M10 7V3H14V7" stroke="black" stroke-width="2" stroke-linecap="round" stroke-linejoin="round"/>
</svg>
