<svg width="24" height="24" viewBox="0 0 24 24" fill="none" xmlns="http://www.w3.org/2000/svg">
<path d="M6 15.6557V21C6 21.5523 5.55228 22 5 22C4.44772 22 4 21.5523 4 21V4C4 3.6206 4.2147 3.27388 4.55434 3.1048L4.5561 3.10393L4.5586 3.10269L4.56581 3.09914L4.58892 3.08792C4.60812 3.07867 4.63485 3.06594 4.66862 3.05024C4.73612 3.01886 4.83195 2.97549 4.95209 2.92416C5.19185 2.82172 5.53118 2.68641 5.93745 2.55118C6.73771 2.28481 7.85286 2 9 2C10.2348 2 11.4213 2.59292 12.3511 3.05756L12.4464 3.10518C13.5075 3.63456 14.2861 4 15 4C15.8441 4 16.729 3.78481 17.4309 3.55118C17.7757 3.43641 18.063 3.32172 18.2621 3.23666C18.3614 3.19424 18.4381 3.15948 18.4882 3.13618C18.5133 3.12453 18.5316 3.11577 18.5428 3.11038L18.5542 3.10488C18.8641 2.95073 19.2322 2.96757 19.5265 3.14981C19.8209 3.33211 20 3.65373 20 4V15C20 15.3794 19.7849 15.7263 19.4453 15.8954L19.4439 15.8961L19.4414 15.8973L19.4342 15.9009L19.4111 15.9121C19.3919 15.9213 19.3651 15.9341 19.3314 15.9498C19.2639 15.9811 19.168 16.0245 19.0479 16.0758C18.8081 16.1783 18.4688 16.3136 18.0625 16.4488C17.2623 16.7152 16.1471 17 15 17C13.7652 17 12.5787 16.4071 11.6489 15.9424L11.5536 15.8948C10.4925 15.3654 9.71389 15 9 15C8.15585 15 7.271 15.2152 6.56908 15.4488C6.3547 15.5202 6.16254 15.5915 6 15.6557Z" fill="black"/>
</svg>
