<svg width="24" height="24" viewBox="0 0 24 24" fill="none" xmlns="http://www.w3.org/2000/svg">
<path d="M18.1295 4.77241C17.3154 3.76181 17.3763 3.24894 17.3763 3.24894C17.4707 2.55556 18.5321 2.32452 18.5321 2.32452C18.5321 2.32452 19.0935 2.18192 19.3742 2.05475V1.92225C19.3742 1.92225 19.1059 1.97362 18.6008 1.78526C18.4128 1.66539 18.1472 1.35716 18.1472 1.35716C17.7789 0.936079 17.4527 0.95601 17.2262 1.07139C17.1321 1.12115 17.0492 1.18948 16.9824 1.27223C16.9156 1.35499 16.8662 1.45044 16.8374 1.55282C16.3015 3.36572 16.715 4.18823 16.8553 4.39905C16.8862 4.44509 16.9157 4.49197 16.9432 4.53941C17.2969 5.15503 18.541 6.66362 18.541 6.66362C20.3727 9.00876 17.4086 9.72853 17.4086 9.72853C17.2583 9.13848 16.938 8.60554 16.4876 8.19579L16.4752 8.18428L16.471 8.18063C16.3774 8.09455 16.2839 8.01258 16.1903 7.93472C15.7584 7.56685 15.2865 7.24867 14.7836 6.98617C14.5901 6.88242 14.3911 6.78945 14.1874 6.70769C14.0751 6.66166 13.9594 6.62039 13.8415 6.58502C13.6535 6.52455 13.46 6.48262 13.2638 6.45982L13.2309 6.45477C13.1366 6.44157 13.0852 6.43933 13.0852 6.43933C12.973 6.4295 12.8607 6.42417 12.7456 6.42417C9.46759 6.16759 5.46171 9.96883 5.46171 9.96883C5.54649 10.0353 5.63071 10.1008 5.71436 10.1653L4 11.4173C4 11.4173 5.807 13.1803 8.46346 13.1887C8.42191 13.1887 8.38261 13.1887 8.34752 13.1887L7.47027 16.4959L4.54881 21.1752C4.54881 21.1752 3.93122 21.9854 4.62853 22.3163C4.62853 22.3163 4.66278 23.024 6.08828 22.9783L5.34662 21.9957C5.34662 21.9957 5.07263 21.5963 5.36936 21.1853L8.18947 16.7129L11.0582 13.6485C11.1351 13.6864 11.214 13.7215 11.2937 13.7543H11.2903L10.4948 16.5986C10.4948 16.5986 10.1952 17.523 11.0582 17.7167L15.4253 18.5274C15.4253 18.5274 15.1396 19.5888 16.1782 19.4853C16.1782 19.4853 16.1782 20.0787 17.3193 20.0672L16.2245 18.1956C16.2245 18.1956 15.9393 17.5219 15.2204 17.5449L11.5896 17.0803C11.4788 17.0676 11.3764 17.0153 11.301 16.9332C11.2126 16.8333 11.1606 16.6806 11.3507 16.4841L13.348 14.0673C15.2384 13.9551 16.4867 12.796 16.4867 12.796C16.6956 12.6057 16.8777 12.3879 17.028 12.1486V12.15C20.1282 10.8733 19.9955 8.56522 19.9955 8.56522C20.1069 7.15207 18.1295 4.77241 18.1295 4.77241Z" fill="black"/>
</svg>
