<svg width="24" height="24" viewBox="0 0 24 24" fill="none" xmlns="http://www.w3.org/2000/svg">
<path fill-rule="evenodd" clip-rule="evenodd" d="M11.3498 2.16624C11.7712 2.02141 12.2288 2.02141 12.6502 2.16624L19.6502 4.57249C20.4578 4.85011 21 5.60988 21 6.46387V11.9125C21 14.7193 19.8511 16.742 18.1875 18.317C16.6151 19.8056 14.5552 20.9164 12.6319 21.9535L12.4748 22.0382C12.1785 22.1981 11.8215 22.1981 11.5252 22.0382L11.3681 21.9535C9.44484 20.9164 7.38493 19.8056 5.8125 18.317C4.14891 16.742 3 14.7193 3 11.9125V6.46387C3 5.60988 3.54224 4.85011 4.34984 4.57249L11.3498 2.16624ZM14.7071 14.2071C14.3166 14.5976 13.6834 14.5976 13.2929 14.2071L12 12.9142L10.7071 14.2071C10.3166 14.5976 9.68342 14.5976 9.29289 14.2071C8.90237 13.8166 8.90237 13.1834 9.29289 12.7929L10.5858 11.5L9.29289 10.2071C8.90237 9.81658 8.90237 9.18342 9.29289 8.79289C9.68342 8.40237 10.3166 8.40237 10.7071 8.79289L12 10.0858L13.2929 8.79289C13.6834 8.40237 14.3166 8.40237 14.7071 8.79289C15.0976 9.18342 15.0976 9.81658 14.7071 10.2071L13.4142 11.5L14.7071 12.7929C15.0976 13.1834 15.0976 13.8166 14.7071 14.2071Z" fill="black"/>
</svg>
