<svg width="24" height="24" viewBox="0 0 24 24" fill="none" xmlns="http://www.w3.org/2000/svg">
<path d="M6.11594 18.8103C7.44562 17.0943 9.50054 16 12 16C14.4995 16 16.5544 17.0943 17.8841 18.8103M6.11594 18.8103C7.69368 20.1747 9.75046 21 12 21C14.2495 21 16.3063 20.1747 17.8841 18.8103M6.11594 18.8103C4.20753 17.16 3 14.721 3 12C3 7.02944 7.02944 3 12 3C16.9706 3 21 7.02944 21 12C21 14.721 19.7925 17.16 17.8841 18.8103M15 10C15 11.6569 13.6569 13 12 13C10.3431 13 9 11.6569 9 10C9 8.34315 10.3431 7 12 7C13.6569 7 15 8.34315 15 10Z" stroke="black" stroke-width="2" stroke-linejoin="round"/>
</svg>
