<svg width="24" height="24" viewBox="0 0 24 24" fill="none" xmlns="http://www.w3.org/2000/svg">
<path fill-rule="evenodd" clip-rule="evenodd" d="M5.95148 2.99707C6.50376 2.99707 6.95148 3.44479 6.95148 3.99707V9.99999C6.95148 10.5523 6.50376 11 5.95148 11C5.39919 11 4.95148 10.5523 4.95148 9.99999V3.99707C4.95148 3.44479 5.39919 2.99707 5.95148 2.99707ZM12.0001 2.99707C12.5524 2.99707 13.0001 3.44479 13.0001 3.99707V7.99902H13.9552C14.5075 7.99902 14.9552 8.44674 14.9552 8.99902C14.9552 9.55131 14.5075 9.99902 13.9552 9.99902H12.0164C12.011 9.99911 12.0055 9.99915 12.0001 9.99915C11.9946 9.99915 11.9892 9.99911 11.9838 9.99902H10.0449C9.49258 9.99902 9.04486 9.55131 9.04486 8.99902C9.04486 8.44674 9.49258 7.99902 10.0449 7.99902H11.0001V3.99707C11.0001 3.44479 11.4478 2.99707 12.0001 2.99707ZM18.0486 2.99707C18.6009 2.99707 19.0486 3.44479 19.0486 3.99707V12.0008C19.0486 12.5531 18.6009 13.0008 18.0486 13.0008C17.4964 13.0008 17.0486 12.5531 17.0486 12.0008V3.99707C17.0486 3.44479 17.4964 2.99707 18.0486 2.99707ZM12.0001 12.0005C12.5523 12.0005 13.0001 12.4482 13.0001 13.0005V20.0038C13.0001 20.5561 12.5523 21.0038 12.0001 21.0038C11.4478 21.0038 11.0001 20.5561 11.0001 20.0038V13.0005C11.0001 12.4482 11.4478 12.0005 12.0001 12.0005ZM2.99634 14.0015C2.99634 13.4492 3.44405 13.0015 3.99634 13.0015H7.90667C8.45896 13.0015 8.90667 13.4492 8.90667 14.0015C8.90667 14.5538 8.45896 15.0015 7.90667 15.0015H6.95148V20.004C6.95148 20.5562 6.50376 21.004 5.95148 21.004C5.39919 21.004 4.95148 20.5562 4.95148 20.004V15.0015H3.99634C3.44405 15.0015 2.99634 14.5538 2.99634 14.0015ZM15.0934 16.002C15.0934 15.4497 15.5412 15.002 16.0934 15.002H20.0038C20.5561 15.002 21.0038 15.4497 21.0038 16.002C21.0038 16.5542 20.5561 17.002 20.0038 17.002H19.0487V20.0036C19.0487 20.5559 18.601 21.0036 18.0487 21.0036C17.4964 21.0036 17.0487 20.5559 17.0487 20.0036V17.002H16.0934C15.5412 17.002 15.0934 16.5542 15.0934 16.002Z" fill="black"/>
</svg>
