<svg width="24" height="24" viewBox="0 0 24 24" fill="none" xmlns="http://www.w3.org/2000/svg">
<path d="M12 16V20M12 16H5.5C5.18524 16 4.88885 15.8518 4.7 15.6L2.45 12.6C2.18333 12.2444 2.18333 11.7556 2.45 11.4L4.7 8.4C4.88885 8.14819 5.18524 8 5.5 8H11C11.5523 8 12 8.44772 12 9V16ZM13 4H18.5C18.8148 4 19.1111 4.14819 19.3 4.4L21.55 7.4C21.8167 7.75556 21.8167 8.24444 21.55 8.6L19.3 11.6C19.1111 11.8518 18.8148 12 18.5 12H13C12.4477 12 12 11.5523 12 11V5C12 4.44772 12.4477 4 13 4Z" stroke="black" stroke-width="2" stroke-linecap="round" stroke-linejoin="round"/>
</svg>
