<svg width="24" height="24" viewBox="0 0 24 24" fill="none" xmlns="http://www.w3.org/2000/svg">
<path d="M11 7.99999C11 5.79085 9.20915 3.99999 7.00001 3.99999C5.66678 3.99999 4.33354 4.00008 3.00031 4.00005C1.89563 4.00002 1.00001 4.89548 1 6.00016C0.999974 10.0001 1.00004 14.0001 1.00002 18.0001C1.00001 19.1046 1.89536 20 2.99988 20C4.90759 20.0001 6.8153 20 8.72301 20C9.24368 20 9.72336 20.1252 10.1234 20.3725C10.4822 20.5942 10.7822 20.8973 11 21.2561V7.99999Z" fill="black"/>
<path d="M13 21.2561C13.2178 20.8973 13.5178 20.5942 13.8766 20.3725C14.2767 20.1252 14.7563 20 15.277 20C17.1847 20 19.0923 20 21 20C22.1046 20 23 19.1046 23 18C23 14 23 10.0001 23 6.00008C23 4.89545 22.1045 4 20.9999 4.00002C19.6666 4.00003 18.3333 3.99999 17 3.99999C14.7909 3.99999 13 5.79085 13 7.99999V21.2561Z" fill="black"/>
</svg>
