<svg width="24" height="24" viewBox="0 0 24 24" fill="none" xmlns="http://www.w3.org/2000/svg">
<path d="M5 15V4.61923C5 4.23984 5.21423 3.89357 5.56625 3.75206C6.30296 3.45592 7.65545 3 9 3C10.9913 3 13.0087 5 15 5C15.8882 5 16.7798 4.80106 17.4951 4.58065C18.2048 4.36197 19 4.87227 19 5.6149V14.3808C19 14.7602 18.7858 15.1064 18.4337 15.2479C17.697 15.5441 16.3446 16 15 16C13.0087 16 10.9913 14 9 14C7.00871 14 5 15 5 15ZM5 15V21" stroke="black" stroke-width="2" stroke-linecap="round" stroke-linejoin="round"/>
</svg>
