<svg width="24" height="24" viewBox="0 0 24 24" fill="none" xmlns="http://www.w3.org/2000/svg">
<path fill-rule="evenodd" clip-rule="evenodd" d="M4 11.75C4.55228 11.75 5 12.1977 5 12.75V19H19V12.75C19 12.1977 19.4477 11.75 20 11.75C20.5523 11.75 21 12.1977 21 12.75V19C21 20.1046 20.1046 21 19 21H5C3.89543 21 3 20.1046 3 19V12.75C3 12.1977 3.44772 11.75 4 11.75Z" fill="black"/>
<path fill-rule="evenodd" clip-rule="evenodd" d="M12 3C12.2652 3 12.5196 3.10536 12.7071 3.29289L17.2071 7.79289C17.5976 8.18342 17.5976 8.81658 17.2071 9.20711C16.8166 9.59763 16.1834 9.59763 15.7929 9.20711L13 6.41421V15.25C13 15.8023 12.5523 16.25 12 16.25C11.4477 16.25 11 15.8023 11 15.25V6.41422L8.20711 9.20711C7.81658 9.59763 7.18342 9.59763 6.79289 9.20711C6.40237 8.81658 6.40237 8.18342 6.79289 7.79289L11.2929 3.29289C11.4804 3.10536 11.7348 3 12 3Z" fill="black"/>
</svg>
