<svg width="24" height="24" viewBox="0 0 24 24" fill="none" xmlns="http://www.w3.org/2000/svg">
<path fill-rule="evenodd" clip-rule="evenodd" d="M4 3C2.89543 3 2 3.89543 2 5V18C2 19.1046 2.89543 20 4 20H19.5C19.9374 20 20.324 19.7157 20.4545 19.2983L22.7516 11.9474C23.0535 10.9815 22.3319 10 21.3199 10H21V8C21 6.89543 20.1046 6 19 6H12.5352L11.1289 3.8906C10.758 3.3342 10.1335 3 9.46482 3H4ZM19 10V8H12C11.6656 8 11.3534 7.8329 11.1679 7.5547L9.46482 5L4 5V18H4.76481L6.82623 11.4035C7.08715 10.5685 7.86042 10 8.73519 10H19Z" fill="black"/>
</svg>
