<svg width="24" height="24" viewBox="0 0 24 24" fill="none" xmlns="http://www.w3.org/2000/svg">
<path d="M6.25 7.5C6.94036 7.5 7.5 6.94036 7.5 6.25C7.5 5.55964 6.94036 5 6.25 5C5.55964 5 5 5.55964 5 6.25C5 6.94036 5.55964 7.5 6.25 7.5Z" fill="black"/>
<path fill-rule="evenodd" clip-rule="evenodd" d="M4 2C2.89543 2 2 2.89543 2 4V14C2 15.1046 2.89543 16 4 16H8V20C8 21.1046 8.89543 22 10 22H20C21.1046 22 22 21.1046 22 20V10C22 8.89543 21.1046 8 20 8H16V4C16 2.89543 15.1046 2 14 2H4ZM14 8V4H4V10.1319L4.89071 9.53805C5.5625 9.09018 6.43771 9.09018 7.10951 9.53805L8 10.1317V10C8 8.89543 8.89543 8 10 8H14ZM8 12.5354L6.00011 11.2021L4 12.5356V14H8V12.5354ZM13.7572 17.5457C13.424 17.7456 13 17.5056 13 17.1169V12.8831C13 12.4944 13.424 12.2544 13.7572 12.4543L17.2854 14.5713C17.6091 14.7655 17.6091 15.2345 17.2854 15.4287L13.7572 17.5457Z" fill="black"/>
</svg>
