<svg width="24" height="24" viewBox="0 0 24 24" fill="none" xmlns="http://www.w3.org/2000/svg">
<path d="M20 13V5.6C20 5.03995 20 4.75992 19.891 4.54601C19.7951 4.35785 19.6422 4.20487 19.454 4.10899C19.2401 4 18.9601 4 18.4 4L5.6 4C5.03995 4 4.75992 4 4.54601 4.10899C4.35785 4.20487 4.20487 4.35785 4.10899 4.54601C4 4.75992 4 5.03995 4 5.6L4 18.4C4 18.9601 4 19.2401 4.10899 19.454C4.20487 19.6422 4.35785 19.7951 4.54601 19.891C4.75992 20 5.03995 20 5.6 20H13M10 15V10M10 10L15 10M10 10L18 18" stroke="black" stroke-width="2" stroke-linecap="round" stroke-linejoin="round"/>
</svg>
