<svg width="24" height="24" viewBox="0 0 24 24" fill="none" xmlns="http://www.w3.org/2000/svg">
<path d="M12.0002 12V21M12.0002 12L20 7.49999M12.0002 12L4 7.49999M11.5097 3.27576L4.50974 7.21326C4.19486 7.39038 4 7.72357 4 8.08484V15.9151C4 16.2764 4.19486 16.6096 4.50974 16.7867L11.5097 20.7242C11.8142 20.8955 12.1858 20.8955 12.4903 20.7242L19.4903 16.7867C19.8051 16.6096 20 16.2764 20 15.9151V8.08484C20 7.72357 19.8051 7.39038 19.4903 7.21326L12.4903 3.27576C12.1858 3.10453 11.8142 3.10453 11.5097 3.27576Z" stroke="black" stroke-width="2" stroke-linejoin="round"/>
</svg>
