<svg width="24" height="24" viewBox="0 0 24 24" fill="none" xmlns="http://www.w3.org/2000/svg">
<path d="M11.4704 3.00136C11.1629 2.73947 10.728 2.68832 10.3681 2.8717C10.0082 3.05508 9.79393 3.43698 9.82504 3.83971L10.1493 8.03771L6.56244 10.2429C6.21834 10.4545 6.03531 10.8523 6.09849 11.2512C6.16168 11.6502 6.45869 11.972 6.85132 12.0668L9.80503 12.7805L3.29289 19.2926C2.90237 19.6832 2.90237 20.3163 3.29289 20.7069C3.68342 21.0974 4.31658 21.0974 4.70711 20.7069L11.2192 14.1947L11.9329 17.1484C12.0278 17.5411 12.3496 17.8381 12.7485 17.9013C13.1475 17.9644 13.5453 17.7814 13.7568 17.4373L15.962 13.8505L20.16 14.1747C20.5628 14.2058 20.9447 13.9916 21.1281 13.6317C21.3114 13.2718 21.2603 12.8369 20.9984 12.5293L18.2686 9.32368L19.8742 5.43134C20.0282 5.05793 19.9425 4.62852 19.6569 4.3429C19.3712 4.05728 18.9418 3.97154 18.5684 4.12557L14.6761 5.73118L11.4704 3.00136Z" fill="black"/>
</svg>
