<svg width="24" height="24" viewBox="0 0 24 24" fill="none" xmlns="http://www.w3.org/2000/svg">
<path d="M5.875 8.75C5.875 9.23325 6.26675 9.625 6.75 9.625C7.23325 9.625 7.625 9.23325 7.625 8.75C7.625 8.26675 7.23325 7.875 6.75 7.875C6.26675 7.875 5.875 8.26675 5.875 8.75ZM9.375 8.75C9.375 9.23325 9.76675 9.625 10.25 9.625C10.7332 9.625 11.125 9.23325 11.125 8.75C11.125 8.26675 10.7332 7.875 10.25 7.875C9.76675 7.875 9.375 8.26675 9.375 8.75ZM12.875 8.75C12.875 9.23325 13.2668 9.625 13.75 9.625C14.2332 9.625 14.625 9.23325 14.625 8.75C14.625 8.26675 14.2332 7.875 13.75 7.875C13.2668 7.875 12.875 8.26675 12.875 8.75Z" fill="black" stroke="black" stroke-width="0.75" stroke-linecap="square"/>
<path d="M20 12.25V13.25H22V12.25H20ZM12 21C12.5523 21 13 20.5523 13 20C13 19.4477 12.5523 19 12 19V21ZM21 16.5L21.4472 17.3944C21.8128 17.2117 22.0303 16.8248 21.9966 16.4175C21.9629 16.0102 21.6847 15.6644 21.2941 15.5442L21 16.5ZM14.5 14.5L14.7941 13.5442C14.4401 13.4353 14.0548 13.531 13.7929 13.7929C13.531 14.0548 13.4353 14.4401 13.5442 14.7941L14.5 14.5ZM16.5 21L15.5442 21.2941C15.6644 21.6847 16.0102 21.9629 16.4175 21.9966C16.8248 22.0303 17.2117 21.8128 17.3944 21.4472L16.5 21ZM18 18L17.5528 17.1056C17.3593 17.2023 17.2023 17.3593 17.1056 17.5528L18 18ZM4 6H20V4H4V6ZM4 19V6H2V19H4ZM20 6V12.25H22V6H20ZM12 19H4V21H12V19ZM2 19C2 20.1046 2.89543 21 4 21V19H4H2ZM20 6H22C22 4.89543 21.1046 4 20 4V6ZM4 4C2.89543 4 2 4.89543 2 6H4V6V4ZM21.2941 15.5442L14.7941 13.5442L14.2059 15.4558L20.7059 17.4558L21.2941 15.5442ZM13.5442 14.7941L15.5442 21.2941L17.4558 20.7059L15.4558 14.2059L13.5442 14.7941ZM17.3944 21.4472L18.8944 18.4472L17.1056 17.5528L15.6056 20.5528L17.3944 21.4472ZM18.4472 18.8944L21.4472 17.3944L20.5528 15.6056L17.5528 17.1056L18.4472 18.8944Z" fill="black"/>
</svg>
