<svg width="24" height="24" viewBox="0 0 24 24" fill="none" xmlns="http://www.w3.org/2000/svg">
<path fill-rule="evenodd" clip-rule="evenodd" d="M3.29289 3.29289C3.68342 2.90237 4.31658 2.90237 4.70711 3.29289L9 7.58579V5C9 4.44772 9.44772 4 10 4C10.5523 4 11 4.44772 11 5V9.5C11 10.3284 10.3284 11 9.5 11L5 11C4.44772 11 4 10.5523 4 10C4 9.44772 4.44772 9 5 9L7.58579 9L3.29289 4.70711C2.90237 4.31658 2.90237 3.68342 3.29289 3.29289ZM13 7C13 6.44772 13.4477 6 14 6H20C21.1046 6 22 6.89543 22 8V20C22 21.1046 21.1046 22 20 22H8C6.89543 22 6 21.1046 6 20V14C6 13.4477 6.44772 13 7 13C7.55228 13 8 13.4477 8 14V20H20V8H14C13.4477 8 13 7.55228 13 7Z" fill="black"/>
</svg>
