<svg width="24" height="24" viewBox="0 0 24 24" fill="none" xmlns="http://www.w3.org/2000/svg">
<path fill-rule="evenodd" clip-rule="evenodd" d="M1 4C1 3.44772 1.44772 3 2 3H22C22.5523 3 23 3.44772 23 4C23 4.55228 22.5523 5 22 5H21V16C21 17.1046 20.1046 18 19 18H13.8685L14.8321 19.4453C15.1384 19.9048 15.0142 20.5257 14.5547 20.8321C14.0952 21.1384 13.4743 21.0142 13.1679 20.5547L12 18.8028L10.8321 20.5547C10.5257 21.0142 9.90483 21.1384 9.4453 20.8321C8.98577 20.5257 8.8616 19.9048 9.16795 19.4453L10.1315 18H5C3.89543 18 3 17.1046 3 16V5H2C1.44772 5 1 4.55228 1 4ZM13 8C13 7.44772 12.5523 7 12 7C11.4477 7 11 7.44772 11 8V13C11 13.5523 11.4477 14 12 14C12.5523 14 13 13.5523 13 13V8ZM17 10C17 9.44772 16.5523 9 16 9C15.4477 9 15 9.44772 15 10V13C15 13.5523 15.4477 14 16 14C16.5523 14 17 13.5523 17 13V10ZM9 12C9 11.4477 8.55228 11 8 11C7.44772 11 7 11.4477 7 12V13C7 13.5523 7.44772 14 8 14C8.55228 14 9 13.5523 9 13V12Z" fill="black"/>
</svg>
