<svg width="24" height="24" viewBox="0 0 24 24" fill="none" xmlns="http://www.w3.org/2000/svg">
<path d="M7.5 6.5C7.5 4.01472 9.51472 2 12 2C14.4853 2 16.5 4.01472 16.5 6.5C16.5 8.98528 14.4853 11 12 11C9.51472 11 7.5 8.98528 7.5 6.5Z" fill="black"/>
<path d="M16.0812 15.7007L17.2465 13.7585C15.8449 12.6577 14.0562 12 12 12C7.24222 12 3.91665 15.5211 3.50439 19.9064C3.47805 20.1867 3.57104 20.465 3.76055 20.6732C3.95005 20.8814 4.21851 21 4.5 21H13.3335L13.2002 20.9C11.8747 19.9059 11.6061 18.0255 12.6002 16.7C13.4248 15.6005 14.8594 15.2282 16.0812 15.7007Z" fill="black"/>
<path d="M20.8576 15.5145C21.1417 15.0409 20.9881 14.4267 20.5146 14.1425C20.041 13.8584 19.4267 14.0119 19.1426 14.4855L16.713 18.5347L15.6001 17.7C15.1582 17.3686 14.5314 17.4582 14.2001 17.9C13.8687 18.3418 13.9582 18.9686 14.4001 19.3L16.4001 20.8C16.6266 20.9699 16.9144 21.0358 17.1923 20.9813C17.4701 20.9269 17.7119 20.7573 17.8576 20.5145L20.8576 15.5145Z" fill="black"/>
</svg>
