<svg width="24" height="24" viewBox="0 0 24 24" fill="none" xmlns="http://www.w3.org/2000/svg">
<path fill-rule="evenodd" clip-rule="evenodd" d="M3 5C3 3.89543 3.89543 3 5 3H19C20.1046 3 21 3.89543 21 5V19C21 20.1046 20.1046 21 19 21H5C3.89543 21 3 20.1046 3 19V5ZM19 5H5V13.5858L6.58579 12C7.36684 11.2189 8.63317 11.219 9.41421 12L16.4142 19H19V5ZM13.5858 19L8 13.4142L5 16.4142V19H13.5858Z" fill="black"/>
<path d="M13.5745 8.35093L14.0528 7.39443C14.237 7.0259 14.763 7.0259 14.9472 7.39443L15.4255 8.35093C15.4738 8.44769 15.5523 8.52615 15.6491 8.57454L16.6056 9.05279C16.9741 9.23705 16.9741 9.76295 16.6056 9.94721L15.6491 10.4255C15.5523 10.4738 15.4738 10.5523 15.4255 10.6491L14.9472 11.6056C14.763 11.9741 14.237 11.9741 14.0528 11.6056L13.5745 10.6491C13.5262 10.5523 13.4477 10.4738 13.3509 10.4255L12.3944 9.94721C12.0259 9.76295 12.0259 9.23705 12.3944 9.05279L13.3509 8.57454C13.4477 8.52615 13.5262 8.44769 13.5745 8.35093Z" fill="black"/>
</svg>
