<svg width="24" height="24" viewBox="0 0 24 24" fill="none" xmlns="http://www.w3.org/2000/svg">
<path d="M2 6C2 4.89543 2.89543 4 4 4H20C21.1046 4 22 4.89543 22 6V12.25C22 12.8023 21.5523 13.25 21 13.25C20.4477 13.25 20 12.8023 20 12.25V6H4V19H12C12.5523 19 13 19.4477 13 20C13 20.5523 12.5523 21 12 21H4C2.89543 21 2 20.1046 2 19V6Z" fill="black"/>
<path d="M5.5 8.75C5.5 9.44036 6.05964 10 6.75 10C7.44036 10 8 9.44036 8 8.75C8 8.05964 7.44036 7.5 6.75 7.5C6.05964 7.5 5.5 8.05964 5.5 8.75Z" fill="black"/>
<path d="M9 8.75C9 9.44036 9.55964 10 10.25 10C10.9404 10 11.5 9.44036 11.5 8.75C11.5 8.05964 10.9404 7.5 10.25 7.5C9.55964 7.5 9 8.05964 9 8.75Z" fill="black"/>
<path d="M12.5 8.75C12.5 9.44036 13.0596 10 13.75 10C14.4404 10 15 9.44036 15 8.75C15 8.05964 14.4404 7.5 13.75 7.5C13.0596 7.5 12.5 8.05964 12.5 8.75Z" fill="black"/>
<path d="M14.7941 13.5442C14.4401 13.4353 14.0548 13.531 13.7929 13.7929C13.531 14.0548 13.4353 14.4401 13.5442 14.7941L15.5442 21.2941C15.6644 21.6847 16.0102 21.9629 16.4175 21.9966C16.8249 22.0303 17.2117 21.8128 17.3945 21.4472L18.7454 18.7454L21.4472 17.3945C21.8128 17.2117 22.0303 16.8249 21.9966 16.4175C21.9629 16.0102 21.6847 15.6644 21.2941 15.5442L14.7941 13.5442Z" fill="black"/>
</svg>
