<svg width="24" height="24" viewBox="0 0 24 24" fill="none" xmlns="http://www.w3.org/2000/svg">
<path fill-rule="evenodd" clip-rule="evenodd" d="M7.29289 5.79289C7.68342 5.40237 8.31658 5.40237 8.70711 5.79289L12 9.08579L15.2929 5.79289C15.6834 5.40237 16.3166 5.40237 16.7071 5.79289C17.0976 6.18342 17.0976 6.81658 16.7071 7.20711L13.2374 10.6768C12.554 11.3602 11.446 11.3602 10.7626 10.6768L7.29289 7.20711C6.90237 6.81658 6.90237 6.18342 7.29289 5.79289ZM7.29289 12.7929C7.68342 12.4024 8.31658 12.4024 8.70711 12.7929L12 16.0858L15.2929 12.7929C15.6834 12.4024 16.3166 12.4024 16.7071 12.7929C17.0976 13.1834 17.0976 13.8166 16.7071 14.2071L13.2374 17.6768C12.554 18.3602 11.446 18.3602 10.7626 17.6768L7.29289 14.2071C6.90237 13.8166 6.90237 13.1834 7.29289 12.7929Z" fill="black"/>
</svg>
