<svg width="24" height="24" viewBox="0 0 24 24" fill="none" xmlns="http://www.w3.org/2000/svg">
<path d="M2 5C2 3.89543 2.89543 3 4 3H9.46482C10.1335 3 10.758 3.3342 11.1289 3.8906L12.5352 6H20C21.1046 6 22 6.89543 22 8V18C22 19.1046 21.1046 20 20 20H13V15.4142L13.7929 16.2071C14.1834 16.5976 14.8166 16.5976 15.2071 16.2071C15.5976 15.8166 15.5976 15.1834 15.2071 14.7929L12.7071 12.2929C12.3166 11.9024 11.6834 11.9024 11.2929 12.2929L8.79289 14.7929C8.40237 15.1834 8.40237 15.8166 8.79289 16.2071C9.18342 16.5976 9.81658 16.5976 10.2071 16.2071L11 15.4142V20H4C2.89543 20 2 19.1046 2 18V5Z" fill="black"/>
</svg>
