<svg width="24" height="24" viewBox="0 0 24 24" fill="none" xmlns="http://www.w3.org/2000/svg">
<path d="M20 11V8C20 7.44772 19.5523 7 19 7H12L10.2969 4.4453C10.1114 4.1671 9.79917 4 9.46482 4H4C3.44772 4 3 4.44772 3 5V18C3 18.5523 3.44772 19 4 19H4.76481M20 11H8.73519C8.29781 11 7.91117 11.2843 7.78071 11.7017L5.71929 18.2983C5.58883 18.7157 5.20219 19 4.76481 19M20 11H21.3199C21.6572 11 21.8978 11.3272 21.7971 11.6491L19.5 19H4.76481" stroke="black" stroke-width="2" stroke-linecap="round" stroke-linejoin="round"/>
</svg>
