<svg width="24" height="24" viewBox="0 0 24 24" fill="none" xmlns="http://www.w3.org/2000/svg">
<path d="M11.9995 20H5.59793C5.00868 20 4.54186 19.4906 4.67107 18.9157C5.43342 15.5235 8.20391 13 11.9995 13C12.3414 13 12.675 13.0205 12.9995 13.0602M19.9995 16L17.9995 18M17.9995 18L15.9995 20M17.9995 18L15.9995 16M17.9995 18L19.9995 20M15.4995 6.5C15.4995 8.433 13.9325 10 11.9995 10C10.0665 10 8.49951 8.433 8.49951 6.5C8.49951 4.567 10.0665 3 11.9995 3C13.9325 3 15.4995 4.567 15.4995 6.5Z" stroke="black" stroke-width="2" stroke-linecap="round" stroke-linejoin="round"/>
</svg>
