<svg width="24" height="24" viewBox="0 0 24 24" fill="none" xmlns="http://www.w3.org/2000/svg">
<path fill-rule="evenodd" clip-rule="evenodd" d="M4.56811 3C4.57873 3 4.58936 3.00001 4.60001 3.00001L19.4319 3C19.6843 2.99997 19.9301 2.99994 20.1382 3.01695C20.3668 3.03563 20.6366 3.07969 20.908 3.21799C21.2843 3.40974 21.5903 3.7157 21.782 4.09202C21.9203 4.36345 21.9644 4.63318 21.9831 4.86178C22.0001 5.06993 22 5.31571 22 5.56809V15.4319C22 15.6843 22.0001 15.9301 21.9831 16.1382C21.9644 16.3668 21.9203 16.6366 21.782 16.908C21.5903 17.2843 21.2843 17.5903 20.908 17.782C20.6366 17.9203 20.3668 17.9644 20.1382 17.9831C19.9301 18.0001 19.6843 18 19.4319 18L18.5 18C17.9477 18 17.5 17.5523 17.5 17C17.5 16.4477 17.9477 16 18.5 16H19.4C19.6965 16 19.8588 15.9992 19.9754 15.9897C19.98 15.9893 19.9844 15.9889 19.9886 15.9885C19.9889 15.9844 19.9893 15.98 19.9897 15.9754C19.9992 15.8588 20 15.6965 20 15.4V5.60001C20 5.30348 19.9992 5.14122 19.9897 5.02464C19.9893 5.02 19.9889 5.0156 19.9885 5.01145C19.9844 5.01107 19.98 5.01069 19.9754 5.01031C19.8588 5.00078 19.6965 5.00001 19.4 5.00001H4.60001C4.30348 5.00001 4.14122 5.00078 4.02464 5.01031C4.02 5.01069 4.0156 5.01107 4.01145 5.01145C4.01107 5.0156 4.01069 5.02 4.01031 5.02464C4.00078 5.14122 4.00001 5.30348 4.00001 5.60001V15.4C4.00001 15.6965 4.00078 15.8588 4.01031 15.9754C4.01069 15.98 4.01107 15.9844 4.01145 15.9886C4.0156 15.9889 4.02 15.9893 4.02464 15.9897C4.14122 15.9992 4.30348 16 4.60001 16H5.50001C6.05229 16 6.50001 16.4477 6.50001 17C6.50001 17.5523 6.05229 18 5.50001 18L4.56812 18C4.31574 18 4.06994 18.0001 3.86178 17.9831C3.63318 17.9644 3.36345 17.9203 3.09202 17.782C2.7157 17.5903 2.40974 17.2843 2.21799 16.908C2.07969 16.6366 2.03563 16.3668 2.01695 16.1382C1.99994 15.9301 1.99997 15.6843 2 15.4319L2.00001 5.60001C2.00001 5.58936 2 5.57873 2 5.56811C1.99997 5.31572 1.99994 5.06993 2.01695 4.86178C2.03563 4.63318 2.07969 4.36345 2.21799 4.09202C2.40974 3.7157 2.7157 3.40974 3.09202 3.21799C3.36345 3.07969 3.63318 3.03563 3.86178 3.01695C4.06993 2.99994 4.31572 2.99997 4.56811 3Z" fill="black"/>
<path d="M12.7809 14.3753C12.5911 14.1381 12.3038 14 12 14C11.6962 14 11.4089 14.1381 11.2191 14.3753L7.21915 19.3753C6.97901 19.6755 6.93219 20.0867 7.09871 20.4332C7.26523 20.7797 7.61561 21 8.00001 21H16C16.3844 21 16.7348 20.7797 16.9013 20.4332C17.0678 20.0867 17.021 19.6755 16.7809 19.3753L12.7809 14.3753Z" fill="black"/>
</svg>
