<svg width="24" height="24" viewBox="0 0 24 24" fill="none" xmlns="http://www.w3.org/2000/svg">
<path d="M16 1.5C16.5523 1.5 17 1.94772 17 2.5V4H20C21.1046 4 22 4.89543 22 6V18C22 19.1046 21.1046 20 20 20H17V21.5C17 22.0523 16.5523 22.5 16 22.5C15.4477 22.5 15 22.0523 15 21.5V2.5C15 1.94772 15.4477 1.5 16 1.5Z" fill="black"/>
<path fill-rule="evenodd" clip-rule="evenodd" d="M2 6C2 4.89543 2.89543 4 4 4H13V20H4C2.89543 20 2 19.1046 2 18V6ZM7.70711 8.79289C7.31658 8.40237 6.68342 8.40237 6.29289 8.79289C5.90237 9.18342 5.90237 9.81658 6.29289 10.2071L8.08579 12L6.29289 13.7929C5.90237 14.1834 5.90237 14.8166 6.29289 15.2071C6.68342 15.5976 7.31658 15.5976 7.70711 15.2071L10.2071 12.7071C10.5976 12.3166 10.5976 11.6834 10.2071 11.2929L7.70711 8.79289Z" fill="black"/>
</svg>
