<svg width="24" height="24" viewBox="0 0 24 24" fill="none" xmlns="http://www.w3.org/2000/svg">
<path d="M2 4H4.15287C4.64171 4 5.0589 4.35341 5.13927 4.8356L5.5 7M5.5 7L6.86073 15.1644C6.9411 15.6466 7.35829 16 7.84713 16H17.6529C18.1417 16 18.5589 15.6466 18.6393 15.1644L19.903 7.5822C19.9538 7.27743 19.7187 7 19.4098 7H5.5Z" stroke="black" stroke-width="2" stroke-linecap="round" stroke-linejoin="round"/>
<path d="M8.25 21.25C8.94036 21.25 9.5 20.6904 9.5 20C9.5 19.3096 8.94036 18.75 8.25 18.75C7.55964 18.75 7 19.3096 7 20C7 20.6904 7.55964 21.25 8.25 21.25ZM17.25 21.25C17.9404 21.25 18.5 20.6904 18.5 20C18.5 19.3096 17.9404 18.75 17.25 18.75C16.5596 18.75 16 19.3096 16 20C16 20.6904 16.5596 21.25 17.25 21.25Z" fill="black" stroke="black" stroke-width="0.5" stroke-linecap="round" stroke-linejoin="round"/>
</svg>
