<svg width="24" height="24" viewBox="0 0 24 24" fill="none" xmlns="http://www.w3.org/2000/svg">
<path d="M10 19L12 21L14 19M10 11H14M3 3H21C21.5523 3 22 3.44772 22 4V14C22 14.5523 21.5523 15 21 15H3C2.44772 15 2 14.5523 2 14V4C2 3.44772 2.44772 3 3 3Z" stroke="black" stroke-width="2" stroke-linecap="round" stroke-linejoin="round"/>
<path d="M5.125 7C5.125 7.48325 5.51675 7.875 6 7.875C6.48325 7.875 6.875 7.48325 6.875 7C6.875 6.51675 6.48325 6.125 6 6.125C5.51675 6.125 5.125 6.51675 5.125 7ZM17.125 7C17.125 7.48325 17.5168 7.875 18 7.875C18.4832 7.875 18.875 7.48325 18.875 7C18.875 6.51675 18.4832 6.125 18 6.125C17.5168 6.125 17.125 6.51675 17.125 7ZM13.125 7C13.125 7.48325 13.5168 7.875 14 7.875C14.4832 7.875 14.875 7.48325 14.875 7C14.875 6.51675 14.4832 6.125 14 6.125C13.5168 6.125 13.125 6.51675 13.125 7ZM9.125 7C9.125 7.48325 9.51675 7.875 10 7.875C10.4832 7.875 10.875 7.48325 10.875 7C10.875 6.51675 10.4832 6.125 10 6.125C9.51675 6.125 9.125 6.51675 9.125 7ZM5.125 11C5.125 11.4832 5.51675 11.875 6 11.875C6.48325 11.875 6.875 11.4832 6.875 11C6.875 10.5168 6.48325 10.125 6 10.125C5.51675 10.125 5.125 10.5168 5.125 11ZM17.125 11C17.125 11.4832 17.5168 11.875 18 11.875C18.4832 11.875 18.875 11.4832 18.875 11C18.875 10.5168 18.4832 10.125 18 10.125C17.5168 10.125 17.125 10.5168 17.125 11Z" fill="black" stroke="black" stroke-width="0.75" stroke-linecap="square"/>
</svg>
