<svg width="24" height="24" viewBox="0 0 24 24" fill="none" xmlns="http://www.w3.org/2000/svg">
<path fill-rule="evenodd" clip-rule="evenodd" d="M7 3C5.89543 3 5 3.89543 5 5V7H3C1.89543 7 1 7.89543 1 9V19C1 20.1046 1.89543 21 3 21H17C18.1046 21 19 20.1046 19 19V17H21C22.1046 17 23 16.1046 23 15V7C23 5.89543 22.1046 5 21 5L14.4142 5L13 3.58579C12.6249 3.21071 12.1162 3 11.5858 3H7ZM19 15H21V7H14.4142C13.8838 7 13.3751 6.78929 13 6.41421L11.5858 5H7V7H7.58579C8.11622 7 8.62493 7.21071 9 7.58579L10.4142 9L17 9C18.1046 9 19 9.89543 19 11V15Z" fill="black"/>
</svg>
