<svg width="24" height="24" viewBox="0 0 24 24" fill="none" xmlns="http://www.w3.org/2000/svg">
<path d="M13.2373 2.57311C12.5539 1.88969 11.4459 1.88969 10.7624 2.57311L8.29278 5.04278C7.90226 5.4333 7.90226 6.06647 8.29278 6.45699C8.6833 6.84752 9.31647 6.84752 9.70699 6.45699L11 5.16399V11H5.16399L6.45699 9.70699C6.84752 9.31647 6.84752 8.6833 6.45699 8.29278C6.06647 7.90226 5.4333 7.90226 5.04278 8.29278L2.57311 10.7624C1.88969 11.4459 1.88969 12.5539 2.57311 13.2373L5.04278 15.707C5.4333 16.0975 6.06647 16.0975 6.45699 15.707C6.84752 15.3165 6.84752 14.6833 6.45699 14.2928L5.16421 13H11V18.8358L9.70699 17.5428C9.31647 17.1523 8.6833 17.1523 8.29278 17.5428C7.90226 17.9333 7.90226 18.5665 8.29278 18.957L10.7624 21.4267C11.4459 22.1101 12.5539 22.1101 13.2373 21.4267L15.707 18.957C16.0975 18.5665 16.0975 17.9333 15.707 17.5428C15.3165 17.1523 14.6833 17.1523 14.2928 17.5428L13 18.8356V13H18.8356L17.5428 14.2928C17.1523 14.6833 17.1523 15.3165 17.5428 15.707C17.9333 16.0975 18.5665 16.0975 18.957 15.707L21.4267 13.2373C22.1101 12.5539 22.1101 11.4459 21.4267 10.7624L18.957 8.29278C18.5665 7.90226 17.9333 7.90226 17.5428 8.29278C17.1523 8.6833 17.1523 9.31647 17.5428 9.70699L18.8358 11H13V5.16421L14.2928 6.45699C14.6833 6.84752 15.3165 6.84752 15.707 6.45699C16.0975 6.06647 16.0975 5.4333 15.707 5.04278L13.2373 2.57311Z" fill="black"/>
</svg>
