<svg width="24" height="24" viewBox="0 0 24 24" fill="none" xmlns="http://www.w3.org/2000/svg">
<path d="M11 4.99985C11.5523 4.99985 12 4.55213 12 3.99985C12 3.44756 11.5523 2.99985 11 2.99985V4.99985ZM21 12.9998C21 12.4476 20.5523 11.9998 20 11.9998C19.4477 11.9998 19 12.4476 19 12.9998H21ZM4.54601 19.8909L5 18.9998L5 18.9998L4.54601 19.8909ZM4.10899 19.4538L3.21799 19.9078L3.21799 19.9078L4.10899 19.4538ZM19.454 19.8909L19 18.9998L19 18.9998L19.454 19.8909ZM19.891 19.4538L19 18.9999L19 18.9999L19.891 19.4538ZM4.10899 4.54586L3.21799 4.09187L3.21799 4.09187L4.10899 4.54586ZM4.54601 4.10884L4.09202 3.21784L4.09202 3.21784L4.54601 4.10884ZM13 7.99985L12.2929 7.29274C12.1054 7.48028 12 7.73463 12 7.99985H13ZM13 10.9998H12C12 11.5521 12.4477 11.9998 13 11.9998V10.9998ZM16 10.9998V11.9998C16.2652 11.9998 16.5196 11.8945 16.7071 11.707L16 10.9998ZM18.2929 2.70696L19 3.41406L19 3.41406L18.2929 2.70696ZM19.7071 2.70696L19 3.41406L19 3.41406L19.7071 2.70696ZM21.2929 4.29274L20.5858 4.99985L20.5858 4.99985L21.2929 4.29274ZM21.2929 5.70696L22 6.41406L22 6.41406L21.2929 5.70696ZM18.4 18.9998H5.6V20.9998H18.4V18.9998ZM5 18.3998V5.59985H3V18.3998H5ZM5.6 4.99985H11V2.99985H5.6V4.99985ZM19 12.9998V18.3998H21V12.9998H19ZM5.6 18.9998C5.30347 18.9998 5.14122 18.9991 5.02463 18.9895C4.91972 18.981 4.94249 18.9705 5 18.9998L4.09202 20.7819C4.36344 20.9202 4.63318 20.9642 4.86177 20.9829C5.07869 21.0006 5.33647 20.9998 5.6 20.9998V18.9998ZM3 18.3998C3 18.6634 2.99922 18.9212 3.01695 19.1381C3.03562 19.3667 3.07969 19.6364 3.21799 19.9078L5 18.9999C5.0293 19.0574 5.01887 19.0801 5.0103 18.9752C5.00078 18.8586 5 18.6964 5 18.3998H3ZM5 18.9998L5 18.9998L3.21799 19.9078C3.40973 20.2842 3.71569 20.5901 4.09202 20.7819L5 18.9998ZM18.4 20.9998C18.6635 20.9998 18.9213 21.0006 19.1382 20.9829C19.3668 20.9642 19.6366 20.9202 19.908 20.7819L19 18.9998C19.0575 18.9705 19.0803 18.981 18.9754 18.9895C18.8588 18.9991 18.6965 18.9998 18.4 18.9998V20.9998ZM19 18.3998C19 18.6964 18.9992 18.8586 18.9897 18.9752C18.9811 19.0801 18.9707 19.0574 19 18.9999L20.782 19.9078C20.9203 19.6364 20.9644 19.3667 20.9831 19.1381C21.0008 18.9212 21 18.6634 21 18.3998H19ZM19.908 20.7819C20.2843 20.5901 20.5903 20.2842 20.782 19.9078L19 18.9999L19 18.9998L19.908 20.7819ZM5 5.59985C5 5.30332 5.00078 5.14107 5.0103 5.02448C5.01887 4.91957 5.0293 4.94234 5 4.99985L3.21799 4.09187C3.07969 4.36329 3.03562 4.63303 3.01695 4.86162C2.99922 5.07854 3 5.33632 3 5.59985H5ZM5.6 2.99985C5.33647 2.99985 5.07869 2.99907 4.86177 3.01679C4.63318 3.03547 4.36344 3.07954 4.09202 3.21784L5 4.99985C4.94249 5.02915 4.91972 5.01872 5.02463 5.01015C5.14122 5.00063 5.30347 4.99985 5.6 4.99985V2.99985ZM5 4.99985L5 4.99985L4.09202 3.21784C3.71569 3.40958 3.40973 3.71554 3.21799 4.09187L5 4.99985ZM12 7.99985V10.9998H14V7.99985H12ZM13 11.9998H16V9.99985H13V11.9998ZM13.7071 8.70696L19 3.41406L17.5858 1.99985L12.2929 7.29274L13.7071 8.70696ZM19 3.41406L20.5858 4.99985L22 3.58564L20.4142 1.99985L19 3.41406ZM20.5858 4.99985L15.2929 10.2927L16.7071 11.707L22 6.41406L20.5858 4.99985ZM20.5858 4.99985L20.5858 4.99985L22 6.41406C22.781 5.63301 22.781 4.36668 22 3.58563L20.5858 4.99985ZM19 3.41406L19 3.41406L20.4142 1.99985C19.6332 1.2188 18.3668 1.2188 17.5858 1.99985L19 3.41406Z" fill="black"/>
</svg>
