<svg width="24" height="24" viewBox="0 0 24 24" fill="none" xmlns="http://www.w3.org/2000/svg">
<path d="M13 3C13 2.44772 12.5523 2 12 2C11.4477 2 11 2.44772 11 3C11 6.18838 10.331 8.25562 9.1178 9.53621C7.91616 10.8046 5.98995 11.5 3 11.5C2.44772 11.5 2 11.9477 2 12.5C2 13.0523 2.44772 13.5 3 13.5C5.98995 13.5 7.91616 14.1954 9.1178 15.4638C10.331 16.7444 11 18.8116 11 22C11 22.5523 11.4477 23 12 23C12.5523 23 13 22.5523 13 22C13 18.8116 13.669 16.7444 14.8822 15.4638C16.0838 14.1954 18.01 13.5 21 13.5C21.5523 13.5 22 13.0523 22 12.5C22 11.9477 21.5523 11.5 21 11.5C18.01 11.5 16.0838 10.8046 14.8822 9.53621C13.669 8.25562 13 6.18838 13 3Z" fill="black"/>
</svg>
