<svg width="24" height="24" viewBox="0 0 24 24" fill="none" xmlns="http://www.w3.org/2000/svg">
<path fill-rule="evenodd" clip-rule="evenodd" d="M19.7821 7.54061C19.9413 7.58739 20.0879 7.6735 20.2073 7.79293L21.5002 9.08583C22.2813 9.86688 22.2813 11.1332 21.5002 11.9142L14.8324 18.5822C14.0966 19.318 12.9036 19.3177 12.1681 18.5816C11.5237 17.9365 10.4782 17.9363 9.8335 18.5811L6.91513 21.4996C6.13419 22.2806 4.86802 22.2808 4.08692 21.4999L2.50084 19.9145C1.71957 19.1335 1.71943 17.867 2.50053 17.0858L5.41946 14.1667C6.0641 13.522 6.06381 12.4767 5.41883 11.8324C4.68269 11.097 4.68237 9.90403 5.41812 9.16825L7.77357 6.81269C7.7799 6.806 7.78633 6.79939 7.79285 6.79286L12.0857 2.49997C12.6403 1.94543 13.4395 1.78461 14.1359 2.01752C14.4205 2.11264 14.6879 2.27349 14.9144 2.50006L18.2073 5.79293C18.3948 5.98047 18.5002 6.23482 18.5002 6.50004V7.49997L19.5 7.49997C19.5964 7.49997 19.6913 7.51389 19.7821 7.54061ZM15.086 15.5001L8.50025 8.91446L6.91356 10.5012C8.2585 11.9319 8.23204 14.1824 6.83372 15.5809L3.91479 18.5L5.50087 20.0855L8.41924 17.1669C9.8177 15.7684 12.0685 15.7418 13.4993 17.0869L15.086 15.5001Z" fill="black"/>
</svg>
