<svg width="24" height="24" viewBox="0 0 24 24" fill="none" xmlns="http://www.w3.org/2000/svg">
<path d="M8 11V9H11V11H8Z" fill="black"/>
<path fill-rule="evenodd" clip-rule="evenodd" d="M2 5C2 3.89543 2.89543 3 4 3H15C16.1046 3 17 3.89543 17 5V11H20C21.1046 11 22 11.8954 22 13V17.5C22 19.433 20.433 21 18.5 21H5.5C3.567 21 2 19.433 2 17.5V5ZM18.5 19C19.3284 19 20 18.3284 20 17.5V13H17V17.5C17 18.3284 17.6716 19 18.5 19ZM6 16C6 15.4477 6.44772 15 7 15H12C12.5523 15 13 15.4477 13 16C13 16.5523 12.5523 17 12 17H7C6.44772 17 6 16.5523 6 16ZM7 7C6.44772 7 6 7.44772 6 8V12C6 12.5523 6.44772 13 7 13H12C12.5523 13 13 12.5523 13 12V8C13 7.44772 12.5523 7 12 7H7Z" fill="black"/>
</svg>
