<svg width="24" height="24" viewBox="0 0 24 24" fill="none" xmlns="http://www.w3.org/2000/svg">
<path fill-rule="evenodd" clip-rule="evenodd" d="M12 2C6.47715 2 2 6.47715 2 12C2 17.5228 6.47715 22 12 22C17.5228 22 22 17.5228 22 12C22 6.47715 17.5228 2 12 2ZM13 10.4142L14.2929 11.7071C14.6834 12.0976 15.3166 12.0976 15.7071 11.7071C16.0976 11.3166 16.0976 10.6834 15.7071 10.2929L13.2374 7.82322C12.554 7.13981 11.446 7.13981 10.7626 7.82322L8.29289 10.2929C7.90237 10.6834 7.90237 11.3166 8.29289 11.7071C8.68342 12.0976 9.31658 12.0976 9.70711 11.7071L11 10.4142V16C11 16.5523 11.4477 17 12 17C12.5523 17 13 16.5523 13 16V10.4142Z" fill="black"/>
</svg>
