<svg width="24" height="24" viewBox="0 0 24 24" fill="none" xmlns="http://www.w3.org/2000/svg">
<path d="M12.0002 4.99693V2.99609M16 5V3M8.00018 5V2.99609M12 21V19M16 21V19M8 21V19M19 16H21M19 8H21M19 12H21M3 12H5M3 16H5M3 8H5M15.0013 12.0003C15.0013 13.6578 13.6576 15.0015 12 15.0015C10.3425 15.0015 8.99878 13.6578 8.99878 12.0003C8.99878 10.3427 10.3425 8.99902 12 8.99902C13.6576 8.99902 15.0013 10.3427 15.0013 12.0003ZM6 19H18C18.5523 19 19 18.5523 19 18V6C19 5.44772 18.5523 5 18 5H6C5.44772 5 5 5.44772 5 6V18C5 18.5523 5.44772 19 6 19Z" stroke="black" stroke-width="2" stroke-linecap="round" stroke-linejoin="round"/>
</svg>
