<svg width="24" height="24" viewBox="0 0 24 24" fill="none" xmlns="http://www.w3.org/2000/svg">
<path d="M9.00391 5H4.00342C3.45132 5 3.00369 5.44742 3.00342 5.99951L3.00049 11.9995C3.00022 12.552 3.44801 13 4.00049 13H6L6.00391 19C6.00391 19 10.0039 17.5 10.0039 13V5.99882C10.0039 5.44654 9.55619 5 9.00391 5Z" stroke="#0F1419" stroke-width="2" stroke-linejoin="round"/>
<path d="M20.0039 5H15.0039C14.4516 5 14.0039 5.44772 14.0039 6V12C14.0039 12.5523 14.4516 13 15.0039 13H17.0039V19C17.0039 19 21.0039 17.5 21.0039 13V5.99882C21.0039 5.44654 20.5562 5 20.0039 5Z" stroke="#0F1419" stroke-width="2" stroke-linejoin="round"/>
</svg>
