<svg width="24" height="24" viewBox="0 0 24 24" fill="none" xmlns="http://www.w3.org/2000/svg">
<path fill-rule="evenodd" clip-rule="evenodd" d="M3.70577 2.29289C3.31525 1.90237 2.68208 1.90237 2.29156 2.29289C1.90103 2.68342 1.90103 3.31658 2.29156 3.70711L5.1069 6.52245C4.44771 7.0508 3.8208 7.65993 3.2343 8.34802C2.55379 9.1464 1.9279 10.0508 1.36853 11.059C1.04347 11.6448 1.0441 12.3565 1.36874 12.9416C4.35939 18.3312 9.27129 20.7455 14.0139 19.8006C15.1087 19.5824 16.1805 19.1865 17.2015 18.6171L20.2916 21.7071C20.6821 22.0976 21.3152 22.0976 21.7058 21.7071C22.0963 21.3166 22.0963 20.6834 21.7058 20.2929L18.8908 17.4779C20.3118 16.3384 21.5862 14.8215 22.6281 12.9448C22.9532 12.3593 22.9532 11.6406 22.6281 11.0551C20.0656 6.43919 16.0957 3.99997 12.0001 4C10.2053 4.00001 8.43467 4.46844 6.79606 5.38318L3.70577 2.29289ZM10.334 8.92116L15.0788 13.666C15.3475 13.1706 15.5 12.6031 15.5 12C15.5 10.067 13.933 8.5 12 8.5C11.3969 8.5 10.8294 8.65255 10.334 8.92116ZM5.37927 8.96641C5.75175 8.58964 6.13674 8.24999 6.53127 7.94682L15.7187 17.1343C15.1982 17.3845 14.6682 17.5797 14.1337 17.7209L5.37927 8.96641ZM4.08538 10.501L11.5721 17.9877C8.45846 17.8247 5.30709 15.8986 3.13362 12.0001C3.43307 11.463 3.75134 10.9634 4.08538 10.501Z" fill="black"/>
</svg>
