<svg width="24" height="24" viewBox="0 0 24 24" fill="none" xmlns="http://www.w3.org/2000/svg">
<path fill-rule="evenodd" clip-rule="evenodd" d="M4 4C4 2.89543 4.89543 2 6 2H18C19.1046 2 20 2.89543 20 4V21C20 21.3905 19.7727 21.7453 19.4179 21.9085C19.0631 22.0717 18.6457 22.0134 18.3492 21.7593L16.6667 20.3171L14.9841 21.7593C14.6096 22.0802 14.057 22.0802 13.6825 21.7593L12 20.3171L10.3175 21.7593C9.94297 22.0802 9.39036 22.0802 9.01588 21.7593L7.33333 20.3171L5.65079 21.7593C5.35428 22.0134 4.93694 22.0717 4.58214 21.9085C4.22734 21.7453 4 21.3905 4 21V4ZM8 8C8 7.44772 8.44772 7 9 7H15C15.5523 7 16 7.44772 16 8C16 8.55228 15.5523 9 15 9H9C8.44772 9 8 8.55228 8 8ZM8 12C8 11.4477 8.44772 11 9 11H11C11.5523 11 12 11.4477 12 12C12 12.5523 11.5523 13 11 13H9C8.44772 13 8 12.5523 8 12Z" fill="black"/>
</svg>
