<svg width="24" height="24" viewBox="0 0 24 24" fill="none" xmlns="http://www.w3.org/2000/svg">
<path fill-rule="evenodd" clip-rule="evenodd" d="M2.29289 2.29289C2.68342 1.90237 3.31658 1.90237 3.70711 2.29289L7.34415 5.92994L7.35074 5.93647L18.064 16.6498L18.0704 16.6562L21.7071 20.2929C22.0976 20.6834 22.0976 21.3166 21.7071 21.7071C21.3166 22.0976 20.6834 22.0976 20.2929 21.7071L17.2031 18.6173C14.618 20.0586 11.7235 20.38 8.98575 19.5503C6.00412 18.6467 3.29302 16.4061 1.37108 12.9431C1.04715 12.3594 1.04432 11.6464 1.37015 11.0591C2.41162 9.18213 3.68419 7.66422 5.10846 6.52267L2.29289 3.70711C1.90237 3.31658 1.90237 2.68342 2.29289 2.29289ZM8.00027 12.0002C8.00027 11.2589 8.20256 10.5639 8.55422 9.96844L10.0678 11.4821C10.0237 11.6472 10.0003 11.8209 10.0003 12.0002C10.0003 13.1048 10.8957 14.0002 12.0003 14.0002C12.1796 14.0002 12.3533 13.9768 12.5184 13.9327L14.0321 15.4463C13.4366 15.7979 12.7416 16.0002 12.0003 16.0002C9.79114 16.0002 8.00027 14.2094 8.00027 12.0002Z" fill="black"/>
<path d="M22.6276 12.9448C21.9582 14.1506 21.1928 15.2079 20.3542 16.1119L8.76172 4.51948C9.81559 4.17485 10.9031 4.00001 11.9996 4C16.0952 3.99997 20.0651 6.43919 22.6276 11.0551C22.9527 11.6406 22.9527 12.3593 22.6276 12.9448Z" fill="black"/>
</svg>
