<svg width="24" height="24" viewBox="0 0 24 24" fill="none" xmlns="http://www.w3.org/2000/svg">
<path d="M13.0007 3C13.0007 2.44772 12.553 2 12.0007 2C11.4484 2 11.0007 2.44772 11.0007 3V4H10.2368C9.9263 4 9.62007 4.07229 9.34236 4.21115L7.76465 5H3.00072C2.44844 5 2.00072 5.44772 2.00072 6C2.00072 6.55228 2.44844 7 3.00072 7H4.11329L1.81226 13.9031C1.519 14.7829 1.86345 15.8583 2.83119 16.2857C4.63283 17.0814 6.36861 17.0814 8.17025 16.2857C9.13799 15.8583 9.48244 14.7829 9.18918 13.9031L6.88815 7H7.76465C8.07514 7 8.38137 6.92771 8.65908 6.78885L10.2368 6H11.0007V19H7.00072C6.44844 19 6.00072 19.4477 6.00072 20C6.00072 20.5523 6.44844 21 7.00072 21H17.0007C17.553 21 18.0007 20.5523 18.0007 20C18.0007 19.4477 17.553 19 17.0007 19H13.0007V6H13.7647L15.3424 6.78885C15.6201 6.92771 15.9263 7 16.2368 7H17.1133L14.8123 13.9031C14.519 14.7829 14.8635 15.8583 15.8312 16.2857C17.6328 17.0814 19.3686 17.0814 21.1702 16.2857C22.138 15.8583 22.4824 14.7829 22.1892 13.9031L19.8881 7H21.0007C21.553 7 22.0007 6.55228 22.0007 6C22.0007 5.44772 21.553 5 21.0007 5H16.2368L14.6591 4.21115C14.3814 4.07229 14.0751 4 13.7647 4H13.0007V3Z" fill="black"/>
</svg>
