<svg width="24" height="24" viewBox="0 0 24 24" fill="none" xmlns="http://www.w3.org/2000/svg">
<path d="M7.5 2C5.567 2 4 3.567 4 5.5C4 7.08551 5.05426 8.42479 6.5 8.85506V15.1449C5.05426 15.5752 4 16.9145 4 18.5C4 20.433 5.567 22 7.5 22C9.433 22 11 20.433 11 18.5C11 16.9145 9.94574 15.5752 8.5 15.1449V13H15.5C16.6046 13 17.5 12.1046 17.5 11V8.85506C18.9457 8.42479 20 7.08551 20 5.5C20 3.567 18.433 2 16.5 2C14.567 2 13 3.567 13 5.5C13 7.08551 14.0543 8.42479 15.5 8.85506V11H8.5V8.85506C9.94574 8.42479 11 7.08551 11 5.5C11 3.567 9.433 2 7.5 2Z" fill="black"/>
</svg>
