<svg width="24" height="24" viewBox="0 0 24 24" fill="none" xmlns="http://www.w3.org/2000/svg">
<path fill-rule="evenodd" clip-rule="evenodd" d="M2 5C2 4.44772 2.44772 4 3 4H21C21.5523 4 22 4.44772 22 5V19C22 19.5523 21.5523 20 21 20H3C2.44772 20 2 19.5523 2 19V5ZM7.66436 9.25261C7.37004 8.99099 6.94958 8.92646 6.59034 9.08778C6.23111 9.2491 6 9.60623 6 10V14C6 14.5523 6.44772 15 7 15C7.55228 15 8 14.5523 8 14V12.2269L8.58564 12.7474C8.96452 13.0842 9.53548 13.0842 9.91436 12.7474L10.5 12.2269V14C10.5 14.5523 10.9477 15 11.5 15C12.0523 15 12.5 14.5523 12.5 14V10C12.5 9.60623 12.2689 9.2491 11.9097 9.08778C11.5504 8.92646 11.13 8.99099 10.8356 9.25261L9.25 10.6621L7.66436 9.25261ZM16 9.00002C16.5523 9.00002 17 9.44773 17 10V12H17.6108C18.2896 12 18.6192 12.83 18.1253 13.2957L16.514 14.8149C16.2251 15.0873 15.7739 15.0873 15.485 14.8149L13.8737 13.2957C13.3798 12.83 13.7094 12 14.3882 12H15V10C15 9.44773 15.4477 9.00002 16 9.00002Z" fill="black"/>
</svg>
