<svg width="24" height="24" viewBox="0 0 24 24" fill="none" xmlns="http://www.w3.org/2000/svg">
<path fill-rule="evenodd" clip-rule="evenodd" d="M19.8599 2.28563C20.9915 1.96233 22.0376 3.00846 21.7143 4.13999L18.1142 16.7404C17.9243 17.4049 17.405 17.9242 16.7406 18.114L4.14012 21.7142C3.00859 22.0375 1.96245 20.9913 2.28575 19.8598L5.88588 7.25936C6.07571 6.59494 6.59507 6.07559 7.25948 5.88575L19.8599 2.28563ZM9.50003 12C9.50003 10.6193 10.6193 9.5 12 9.5C13.3807 9.5 14.5 10.6193 14.5 12C14.5 13.3807 13.3807 14.5 12 14.5C10.6193 14.5 9.50003 13.3807 9.50003 12Z" fill="black"/>
</svg>
