<svg width="24" height="24" viewBox="0 0 24 24" fill="none" xmlns="http://www.w3.org/2000/svg">
<path d="M13 18C13 18.5523 12.5523 19 12 19C11.4477 19 11 18.5523 11 18C11 17.4477 11.4477 17 12 17C12.5523 17 13 17.4477 13 18Z" fill="black"/>
<path d="M7 18C7 18.5523 6.55228 19 6 19C5.44772 19 5 18.5523 5 18C5 17.4477 5.44772 17 6 17C6.55228 17 7 17.4477 7 18Z" fill="black"/>
<path d="M10 20C10 20.5523 9.55228 21 9 21C8.44772 21 8 20.5523 8 20C8 19.4477 8.44772 19 9 19C9.55228 19 10 19.4477 10 20Z" fill="black"/>
<path d="M19 18C19 18.5523 18.5523 19 18 19C17.4477 19 17 18.5523 17 18C17 17.4477 17.4477 17 18 17C18.5523 17 19 17.4477 19 18Z" fill="black"/>
<path d="M16 20C16 20.5523 15.5523 21 15 21C14.4477 21 14 20.5523 14 20C14 19.4477 14.4477 19 15 19C15.5523 19 16 19.4477 16 20Z" fill="black"/>
<path d="M9.5 3C5.91015 3 3 5.91015 3 9.5C3 13.0899 5.91015 16 9.5 16H16C18.7614 16 21 13.7614 21 11C21 8.23858 18.7614 6 16 6C15.7718 6 15.5467 6.01535 15.3257 6.04521C15.135 6.07095 14.9664 5.97984 14.8997 5.88045C13.7346 4.14533 11.7512 3 9.5 3Z" fill="black"/>
</svg>
