<svg width="24" height="24" viewBox="0 0 24 24" fill="none" xmlns="http://www.w3.org/2000/svg">
<path d="M11 5H4C3.44772 5 3 5.44772 3 6V18C3 18.5523 3.44772 19 4 19H11M11 5H20C20.5523 5 21 5.44772 21 6V18C21 18.5523 20.5523 19 20 19H11M11 5V19" stroke="black" stroke-width="2" stroke-linecap="square" stroke-linejoin="round"/>
<path d="M6.25 9C6.25 9.41421 6.58579 9.75 7 9.75C7.41421 9.75 7.75 9.41421 7.75 9C7.75 8.58579 7.41421 8.25 7 8.25C6.58579 8.25 6.25 8.58579 6.25 9ZM6.25 12C6.25 12.4142 6.58579 12.75 7 12.75C7.41421 12.75 7.75 12.4142 7.75 12C7.75 11.5858 7.41421 11.25 7 11.25C6.58579 11.25 6.25 11.5858 6.25 12ZM6.25 15C6.25 15.4142 6.58579 15.75 7 15.75C7.41421 15.75 7.75 15.4142 7.75 15C7.75 14.5858 7.41421 14.25 7 14.25C6.58579 14.25 6.25 14.5858 6.25 15Z" fill="black" stroke="black" stroke-width="0.5"/>
</svg>
