<svg width="24" height="24" viewBox="0 0 24 24" fill="none" xmlns="http://www.w3.org/2000/svg">
<path fill-rule="evenodd" clip-rule="evenodd" d="M11 5C11 3.89543 11.8954 3 13 3H18.5C19.1295 3 19.7223 3.29639 20.1 3.8L22.35 6.8C22.8833 7.51111 22.8833 8.48889 22.35 9.2L20.1 12.2C19.7223 12.7036 19.1295 13 18.5 13H13V20C13 20.5523 12.5523 21 12 21C11.4477 21 11 20.5523 11 20V17H5.5C4.87049 17 4.27771 16.7036 3.9 16.2L1.65 13.2C1.11667 12.4889 1.11667 11.5111 1.65 10.8L3.9 7.8C4.27771 7.29639 4.87049 7 5.5 7H11V5ZM13 11H18.5L20.75 8L18.5 5H13V11Z" fill="black"/>
</svg>
