<svg width="24" height="24" viewBox="0 0 24 24" fill="none" xmlns="http://www.w3.org/2000/svg">
<path fill-rule="evenodd" clip-rule="evenodd" d="M12 1C12.5523 1 13 1.44772 13 2V3H18C19.1046 3 20 3.89543 20 5V12C20 12.7403 19.5978 13.3866 19 13.7324V14.5858L20.7071 16.2929C21.0976 16.6834 21.0976 17.3166 20.7071 17.7071C20.3166 18.0976 19.6834 18.0976 19.2929 17.7071L18.681 17.0952C17.7905 19.9377 15.1361 22 12 22C8.8639 22 6.20948 19.9377 5.31897 17.0952L4.70711 17.7071C4.31658 18.0976 3.68342 18.0976 3.29289 17.7071C2.90237 17.3166 2.90237 16.6834 3.29289 16.2929L5 14.5858L5 13.7324C4.4022 13.3866 4 12.7403 4 12V5C4 3.89543 4.89543 3 6 3H11V2C11 1.44772 11.4477 1 12 1ZM6 5V12H18V5H6Z" fill="black"/>
<path fill-rule="evenodd" clip-rule="evenodd" d="M9 7C9.55228 7 10 7.44772 10 8V9C10 9.55228 9.55228 10 9 10C8.44772 10 8 9.55228 8 9V8C8 7.44772 8.44772 7 9 7ZM15 7C15.5523 7 16 7.44772 16 8V9C16 9.55228 15.5523 10 15 10C14.4477 10 14 9.55228 14 9V8C14 7.44772 14.4477 7 15 7Z" fill="black"/>
</svg>
