<svg width="24" height="24" viewBox="0 0 24 24" fill="none" xmlns="http://www.w3.org/2000/svg">
<path fill-rule="evenodd" clip-rule="evenodd" d="M5.92279 2.75061C6.30234 2.27618 6.87696 2 7.48453 2H7.52328C8.13085 2 8.70547 2.27618 9.08502 2.75061L10.5656 4.60139C10.8493 4.95602 11.0039 5.39664 11.0039 5.85078V10H12V4C12 2.89543 12.8954 2 14 2H18C19.1046 2 20 2.89543 20 4V10H21C21.5523 10 22 10.4477 22 11V19C22 20.1046 21.1046 21 20 21H4C2.89543 21 2 20.1046 2 19V11C2 10.4477 2.44772 10 3 10H4.00391V5.85078C4.00391 5.39664 4.15847 4.95602 4.44217 4.60139L5.92279 2.75061ZM6.00391 10H9.00391V5.85078L7.52328 4H7.48453L6.00391 5.85078V10ZM18 10V4H14V6H15.0039C15.5562 6 16.0039 6.44772 16.0039 7C16.0039 7.55228 15.5562 8 15.0039 8H14V10H18Z" fill="black"/>
</svg>
