<svg width="24" height="24" viewBox="0 0 24 24" fill="none" xmlns="http://www.w3.org/2000/svg">
<path d="M13.3111 8.87301C12.8205 9.2228 12.2201 9.42856 11.5716 9.42856C9.91471 9.42856 8.57157 8.08541 8.57157 6.42856C8.57157 4.7717 9.91471 3.42856 11.5716 3.42856C12.6456 3.42856 13.5877 3.99292 14.1177 4.84125M6.85728 18.9319H9.09467C9.38639 18.9319 9.67632 18.9666 9.95912 19.0359L12.3232 19.6105C12.8361 19.7354 13.3705 19.7475 13.8889 19.6469L16.5027 19.1384C17.1931 19.0039 17.8284 18.6732 18.3261 18.189L20.1755 16.39C20.7036 15.8772 20.7036 15.0449 20.1755 14.5312C19.7 14.0686 18.947 14.0166 18.4091 14.4088L16.2538 15.9813C15.9451 16.2069 15.5695 16.3284 15.1833 16.3284H13.102H14.4268C15.1735 16.3284 15.7783 15.74 15.7783 15.0136V14.7506C15.7783 14.1476 15.3564 13.6217 14.7551 13.4759L12.7104 12.9786C12.3776 12.8979 12.0368 12.8571 11.6942 12.8571C10.8673 12.8571 9.37033 13.5418 9.37033 13.5418L6.85728 14.5928M18.8573 7.2857C18.8573 8.94256 17.5141 10.2857 15.8573 10.2857C14.2004 10.2857 12.8573 8.94256 12.8573 7.2857C12.8573 5.62884 14.2004 4.2857 15.8573 4.2857C17.5141 4.2857 18.8573 5.62884 18.8573 7.2857ZM3.42871 14.2286V19.2C3.42871 19.6801 3.42871 19.9201 3.52213 20.1034C3.60431 20.2647 3.73544 20.3958 3.89672 20.478C4.08007 20.5714 4.3201 20.5714 4.80014 20.5714H5.48585C5.9659 20.5714 6.20592 20.5714 6.38927 20.478C6.55055 20.3958 6.68168 20.2647 6.76386 20.1034C6.85728 19.9201 6.85728 19.6801 6.85728 19.2V14.2286C6.85728 13.7485 6.85728 13.5085 6.76386 13.3251C6.68168 13.1638 6.55055 13.0328 6.38927 12.9506C6.20592 12.8571 5.9659 12.8571 5.48585 12.8571H4.80014C4.3201 12.8571 4.08007 12.8571 3.89672 12.9506C3.73544 13.0328 3.60431 13.1638 3.52213 13.3251C3.42871 13.5085 3.42871 13.7485 3.42871 14.2286Z" stroke="black" stroke-width="1.71429" stroke-linecap="round" stroke-linejoin="round"/>
</svg>
