<svg width="24" height="24" viewBox="0 0 24 24" fill="none" xmlns="http://www.w3.org/2000/svg">
<path fill-rule="evenodd" clip-rule="evenodd" d="M22 12C22 17.5228 17.5228 22 12 22C6.47715 22 2 17.5228 2 12C2 6.47715 6.47715 2 12 2C17.5228 2 22 6.47715 22 12ZM13.5 8C13.5 8.82843 12.8284 9.5 12 9.5C11.1716 9.5 10.5 8.82843 10.5 8C10.5 7.17157 11.1716 6.5 12 6.5C12.8284 6.5 13.5 7.17157 13.5 8ZM9.15415 9.76185L9.14014 9.75996L9.1362 9.75942C8.58909 9.68427 8.08461 10.0668 8.00942 10.614C7.93422 11.1611 8.31748 11.6657 8.86462 11.7409L8.87059 11.7417L8.8875 11.744C9.57703 11.8356 10.2695 11.9103 10.9634 11.9586C10.9119 12.4849 10.8063 12.9431 10.6426 13.3627C10.3894 14.0115 9.97405 14.6273 9.30116 15.2849C8.90618 15.671 8.89892 16.3041 9.28494 16.6991C9.67096 17.094 10.3041 17.1013 10.6991 16.7153C11.2472 16.1796 11.6931 15.6299 12.0412 15.0419C12.3571 15.603 12.7609 16.1478 13.2752 16.689C13.6557 17.0893 14.2887 17.1054 14.689 16.725C15.0893 16.3445 15.1054 15.7116 14.725 15.3112C13.7481 14.2834 13.2945 13.2743 13.0986 11.9542C13.7718 11.9056 14.4436 11.8328 15.1127 11.744L15.1296 11.7417L15.1362 11.7408C15.6834 11.6656 16.066 11.1612 15.9908 10.614C15.9156 10.0669 15.4105 9.68438 14.8634 9.75951L14.8601 9.75995L14.8461 9.76185C13.9043 9.88687 12.9503 10.0001 11.9998 10.0001C11.0466 10.0001 10.0976 9.88714 9.15415 9.76185Z" fill="black"/>
</svg>
