<svg width="24" height="24" viewBox="0 0 24 24" fill="none" xmlns="http://www.w3.org/2000/svg">
<path d="M12.4719 3.11833C12.797 3.29235 13 3.63121 13 4V20C13 20.3688 12.797 20.7077 12.4719 20.8817C12.1467 21.0557 11.7522 21.0366 11.4453 20.8321L5.69722 17H3C1.89543 17 1 16.1046 1 15V9C1 7.89543 1.89543 7 3 7H5.69722L11.4453 3.16795C11.7522 2.96338 12.1467 2.94431 12.4719 3.11833Z" fill="black"/>
<path d="M16.3305 9.49918C16.0539 9.02113 15.4422 8.85777 14.9641 9.13432C14.4861 9.41088 14.3227 10.0226 14.5993 10.5007C14.854 10.9409 15.0001 11.4519 15.0001 12C15.0001 12.5481 14.854 13.059 14.5993 13.4993C14.3227 13.9774 14.4861 14.5891 14.9641 14.8656C15.4422 15.1422 16.0539 14.9788 16.3305 14.5008C16.7565 13.7643 17 12.9091 17 12C17 11.0909 16.7565 10.2357 16.3305 9.49918Z" fill="black"/>
</svg>
