<svg width="24" height="24" viewBox="0 0 24 24" fill="none" xmlns="http://www.w3.org/2000/svg">
<path d="M3.54601 18.891L4 18L4 18L3.54601 18.891ZM3.10899 18.454L2.21799 18.908L2.21799 18.908L3.10899 18.454ZM20.891 18.454L20 18L20 18L20.891 18.454ZM20.454 18.891L20.908 19.782L20.908 19.782L20.454 18.891ZM20.891 5.54601L20 6L20 6L20.891 5.54601ZM20.454 5.10899L20.908 4.21799L20.908 4.21799L20.454 5.10899ZM3.10899 5.54601L2.21799 5.09202L2.21799 5.09202L3.10899 5.54601ZM3.54601 5.10899L3.09202 4.21799L3.09202 4.21799L3.54601 5.10899ZM12.6332 12.4819L13.2665 13.2559L13.2665 13.2559L12.6332 12.4819ZM11.3668 12.4819L10.7335 13.2559L10.7335 13.2559L11.3668 12.4819ZM20 6.6V17.4H22V6.6H20ZM19.4 18H4.6V20H19.4V18ZM4 17.4V6.6H2V17.4H4ZM4.6 6H19.4V4H4.6V6ZM4.6 18C4.30347 18 4.14122 17.9992 4.02463 17.9897C3.91972 17.9811 3.94249 17.9707 4 18L3.09202 19.782C3.36344 19.9203 3.63318 19.9644 3.86177 19.9831C4.07869 20.0008 4.33647 20 4.6 20V18ZM2 17.4C2 17.6635 1.99922 17.9213 2.01695 18.1382C2.03562 18.3668 2.07969 18.6366 2.21799 18.908L4 18C4.0293 18.0575 4.01887 18.0803 4.0103 17.9754C4.00078 17.8588 4 17.6965 4 17.4H2ZM4 18L4 18L2.21799 18.908C2.40973 19.2843 2.71569 19.5903 3.09202 19.782L4 18ZM20 17.4C20 17.6965 19.9992 17.8588 19.9897 17.9754C19.9811 18.0803 19.9707 18.0575 20 18L21.782 18.908C21.9203 18.6366 21.9644 18.3668 21.9831 18.1382C22.0008 17.9213 22 17.6635 22 17.4H20ZM19.4 20C19.6635 20 19.9213 20.0008 20.1382 19.9831C20.3668 19.9644 20.6366 19.9203 20.908 19.782L20 18C20.0575 17.9707 20.0803 17.9811 19.9754 17.9897C19.8588 17.9992 19.6965 18 19.4 18V20ZM20 18L20 18L20.908 19.782C21.2843 19.5903 21.5903 19.2843 21.782 18.908L20 18ZM22 6.6C22 6.33647 22.0008 6.07869 21.9831 5.86177C21.9644 5.63318 21.9203 5.36344 21.782 5.09202L20 6C19.9707 5.94249 19.9811 5.91972 19.9897 6.02463C19.9992 6.14122 20 6.30347 20 6.6H22ZM19.4 6C19.6965 6 19.8588 6.00078 19.9754 6.0103C20.0803 6.01887 20.0575 6.0293 20 6L20.908 4.21799C20.6366 4.07969 20.3668 4.03562 20.1382 4.01695C19.9213 3.99922 19.6635 4 19.4 4V6ZM21.782 5.09202C21.5903 4.71569 21.2843 4.40973 20.908 4.21799L20 6L20 6L21.782 5.09202ZM4 6.6C4 6.30347 4.00078 6.14122 4.0103 6.02463C4.01887 5.91972 4.0293 5.94249 4 6L2.21799 5.09202C2.07969 5.36344 2.03562 5.63318 2.01695 5.86177C1.99922 6.07869 2 6.33647 2 6.6H4ZM4.6 4C4.33647 4 4.07869 3.99922 3.86177 4.01695C3.63318 4.03562 3.36344 4.07969 3.09202 4.21799L4 6C3.94249 6.0293 3.91972 6.01887 4.02463 6.0103C4.14122 6.00078 4.30347 6 4.6 6V4ZM4 6L4 6L3.09202 4.21799C2.71569 4.40973 2.40973 4.71569 2.21799 5.09202L4 6ZM20.3668 4.86241L12 11.7079L13.2665 13.2559L21.6332 6.41033L20.3668 4.86241ZM12 11.7079L3.63324 4.86241L2.36676 6.41033L10.7335 13.2559L12 11.7079ZM12 11.7079L12 11.7079L10.7335 13.2559C11.4703 13.8586 12.5297 13.8586 13.2665 13.2559L12 11.7079Z" fill="black"/>
</svg>
