<svg width="24" height="24" viewBox="0 0 24 24" fill="none" xmlns="http://www.w3.org/2000/svg">
<path d="M6.34315 6.34315C6.73367 5.95263 6.73367 5.31946 6.34315 4.92894C5.95262 4.53842 5.31946 4.53842 4.92893 4.92894L6.34315 6.34315ZM9.17157 9.17158C9.5621 8.78106 9.5621 8.14789 9.17157 7.75737C8.78105 7.36684 8.14788 7.36684 7.75736 7.75737L9.17157 9.17158ZM7.75736 16.2426C8.14788 16.6332 8.78105 16.6332 9.17157 16.2426C9.5621 15.8521 9.5621 15.219 9.17157 14.8284L7.75736 16.2426ZM14.8284 14.8284C14.4379 15.219 14.4379 15.8521 14.8284 16.2426C15.219 16.6332 15.8521 16.6332 16.2426 16.2426L14.8284 14.8284ZM16.2426 7.75737C15.8521 7.36684 15.219 7.36684 14.8284 7.75737C14.4379 8.14789 14.4379 8.78106 14.8284 9.17158L16.2426 7.75737ZM4.92893 19.0711C5.31946 19.4616 5.95262 19.4616 6.34315 19.0711C6.73367 18.6806 6.73367 18.0474 6.34315 17.6569L4.92893 19.0711ZM17.6569 17.6569C17.2663 18.0474 17.2663 18.6806 17.6569 19.0711C18.0474 19.4616 18.6805 19.4616 19.0711 19.0711L17.6569 17.6569ZM19.0711 4.92894C18.6805 4.53842 18.0474 4.53842 17.6569 4.92894C17.2663 5.31946 17.2663 5.95263 17.6569 6.34315L19.0711 4.92894ZM4 12C4 9.79059 4.89434 7.79196 6.34315 6.34315L4.92893 4.92894C3.12038 6.73749 2 9.23886 2 12H4ZM8 12C8 10.8952 8.44662 9.89653 9.17157 9.17158L7.75736 7.75737C6.67267 8.84206 6 10.3434 6 12H8ZM9.17157 14.8284C8.44662 14.1035 8 13.1049 8 12H6C6 13.6566 6.67267 15.158 7.75736 16.2426L9.17157 14.8284ZM16 12C16 13.1049 15.5534 14.1035 14.8284 14.8284L16.2426 16.2426C17.3273 15.158 18 13.6566 18 12H16ZM14.8284 9.17158C15.5534 9.89653 16 10.8952 16 12H18C18 10.3434 17.3273 8.84206 16.2426 7.75737L14.8284 9.17158ZM6.34315 17.6569C4.89434 16.2081 4 14.2094 4 12H2C2 14.7612 3.12038 17.2625 4.92893 19.0711L6.34315 17.6569ZM20 12C20 14.2094 19.1057 16.2081 17.6569 17.6569L19.0711 19.0711C20.8796 17.2625 22 14.7612 22 12H20ZM17.6569 6.34315C19.1057 7.79196 20 9.79059 20 12H22C22 9.23886 20.8796 6.73749 19.0711 4.92894L17.6569 6.34315ZM12 12V14C13.1046 14 14 13.1046 14 12H12ZM12 12H10C10 13.1046 10.8954 14 12 14V12ZM12 12V10C10.8954 10 10 10.8954 10 12H12ZM12 12H14C14 10.8954 13.1046 10 12 10V12Z" fill="black"/>
</svg>
