<svg width="24" height="24" viewBox="0 0 24 24" fill="none" xmlns="http://www.w3.org/2000/svg">
<path d="M1 10H2.53513M23 10H21.4649M2.53513 10C2.19479 10.5883 2 11.2714 2 12C2 14.2091 3.79086 16 6 16C8.20914 16 10 14.2091 10 12C10 11.2452 9.79093 10.5392 9.42754 9.9368M2.53513 10C3.22675 8.8044 4.51944 8 6 8C7.45433 8 8.72737 8.77614 9.42754 9.9368M9.42754 9.9368C10.123 9.35217 11.0204 9 12 9C12.9796 9 13.877 9.35217 14.5725 9.9368M14.5725 9.9368C14.2091 10.5392 14 11.2452 14 12C14 14.2091 15.7909 16 18 16C20.2091 16 22 14.2091 22 12C22 11.2714 21.8052 10.5883 21.4649 10M14.5725 9.9368C15.2726 8.77614 16.5457 8 18 8C19.4806 8 20.7733 8.8044 21.4649 10" stroke="black" stroke-width="2" stroke-linecap="round" stroke-linejoin="round"/>
</svg>
