<svg width="24" height="24" viewBox="0 0 24 24" fill="none" xmlns="http://www.w3.org/2000/svg">
<path fill-rule="evenodd" clip-rule="evenodd" d="M2 4C2 2.89543 2.89543 2 4 2H16C17.1046 2 18 2.89543 18 4V6H20C21.1046 6 22 6.89543 22 8V20C22 21.1046 21.1046 22 20 22H8C6.89543 22 6 21.1046 6 20V18H4C2.89543 18 2 17.1046 2 16V4ZM16 6H8C6.89543 6 6 6.89543 6 8V16H4V4H16V6ZM15 11C15 10.4477 14.5523 10 14 10C13.4477 10 13 10.4477 13 11V13H11C10.4477 13 10 13.4477 10 14C10 14.5523 10.4477 15 11 15H13V17C13 17.5523 13.4477 18 14 18C14.5523 18 15 17.5523 15 17V15H17C17.5523 15 18 14.5523 18 14C18 13.4477 17.5523 13 17 13H15V11Z" fill="black"/>
</svg>
