<svg width="24" height="24" viewBox="0 0 24 24" fill="none" xmlns="http://www.w3.org/2000/svg">
<path d="M13.8949 4.21009C13.5482 2.93647 12.3835 2 11 2C9.34315 2 8 3.34315 8 5C8 6.65685 9.34315 8 11 8C11.3902 8 11.7631 7.92549 12.1051 7.78991M13.8949 4.21009C14.2369 4.07451 14.6098 4 15 4C16.6569 4 18 5.34315 18 7C18 8.65685 16.6569 10 15 10C13.6165 10 12.4518 9.06353 12.1051 7.78991M13.8949 4.21009C12.4917 4.76637 11.7115 6.344 12.1051 7.78991M7 20V14C7 13.4477 6.55228 13 6 13H4C3.44772 13 3 13.4477 3 14V20C3 20.5523 3.44772 21 4 21H6C6.55228 21 7 20.5523 7 20ZM7 20H9C9 20 11.3916 20.9234 13 21C16.5463 21.1689 19.3633 19.5191 21.645 17.0098C22.1661 16.4367 22.1573 15.5716 21.6735 14.9668C21.0497 14.1871 19.8774 14.124 19.0953 14.7447C18.2335 15.4286 17.0898 16.1979 16 16.5C14.4947 16.9173 13 17 13 17C21 16.5 18 9.99985 7 14.5001" stroke="black" stroke-width="2" stroke-linejoin="round"/>
</svg>
