<svg width="24" height="24" viewBox="0 0 24 24" fill="none" xmlns="http://www.w3.org/2000/svg">
<path d="M10 6C9.44772 6 9 6.44772 9 7C9 7.55228 9.44772 8 10 8V6ZM14 8C14.5523 8 15 7.55228 15 7C15 6.44772 14.5523 6 14 6V8ZM6 4H18V2H6V4ZM18 4V20H20V4H18ZM18 20H6V22H18V20ZM6 20V4H4V20H6ZM6 20H6H4C4 21.1046 4.89543 22 6 22V20ZM18 20V22C19.1046 22 20 21.1046 20 20H18ZM18 4H20C20 2.89543 19.1046 2 18 2V4ZM6 2C4.89543 2 4 2.89543 4 4H6V4V2ZM14 14C14 15.1046 13.1046 16 12 16V18C14.2091 18 16 16.2091 16 14H14ZM12 16C10.8954 16 10 15.1046 10 14H8C8 16.2091 9.79086 18 12 18V16ZM10 14C10 12.8954 10.8954 12 12 12V10C9.79086 10 8 11.7909 8 14H10ZM12 12C13.1046 12 14 12.8954 14 14H16C16 11.7909 14.2091 10 12 10V12ZM10 8H14V6H10V8Z" fill="black"/>
</svg>
