<svg width="24" height="24" viewBox="0 0 24 24" fill="none" xmlns="http://www.w3.org/2000/svg">
<path d="M5.00098 2.00098C5.00098 1.44869 4.55326 1.00098 4.00098 1.00098C3.44869 1.00098 3.00098 1.44869 3.00098 2.00098L3.00098 4.44632C3.00033 4.46446 3 4.48268 3 4.50098V6.17098C3 6.18927 3.00033 6.20749 3.00098 6.22563L3.00098 11.1162C3.00033 11.1344 3 11.1526 3 11.1709V12.8409C3 12.8592 3.00033 12.8774 3.00098 12.8955L3.00098 17.7862C3.00033 17.8043 3 17.8225 3 17.8408V19.5108C3 19.5291 3.00033 19.5473 3.00098 19.5655L3.00098 22.001C3.00098 22.5533 3.44869 23.001 4.00098 23.001C4.55326 23.001 5.00098 22.5533 5.00098 22.001V21.0108H19.5C20.3284 21.0108 21 20.3392 21 19.5108V17.8408C21 17.0124 20.3284 16.3408 19.5 16.3408L5.00098 16.3408L5.00098 14.3409H14C14.8284 14.3409 15.5 13.6693 15.5 12.8409V11.1709C15.5 10.3425 14.8284 9.6709 14 9.6709H5.00098L5.00098 7.67098H8.5C9.32843 7.67098 10 6.9994 10 6.17098V4.50098C10 3.67255 9.32843 3.00098 8.5 3.00098L5.00098 3.00098V2.00098Z" fill="black"/>
</svg>
