<svg width="24" height="24" viewBox="0 0 24 24" fill="none" xmlns="http://www.w3.org/2000/svg">
<path d="M3 12H19C20.1046 12 21 11.1046 21 10C21 8.89543 20.1046 8 19 8C18.4477 8 17.9477 8.22386 17.5858 8.58579M3 8H11C12.1046 8 13 7.10457 13 6C13 4.89543 12.1046 4 11 4C10.4477 4 9.94772 4.22386 9.58579 4.58579M3 16H15C16.1046 16 17 16.8954 17 18C17 19.1046 16.1046 20 15 20C14.4477 20 13.9477 19.7761 13.5858 19.4142" stroke="black" stroke-width="2" stroke-linecap="round" stroke-linejoin="round"/>
</svg>
