<svg width="24" height="24" viewBox="0 0 24 24" fill="none" xmlns="http://www.w3.org/2000/svg">
<path d="M4.5 17.5001L2 20.0001M6.5 19.5001L5 21.0001M3 12.5C3 12.5 6.76997 13.77 8.5 15.5C10.23 17.2301 11.5 21 11.5 21L14.6508 18.2994C14.8724 18.1094 15 17.832 15 17.5401V15C19 13 21.5 10 21 3.00004C14 2.50004 11 5.00004 9 9.00004H6.45994C6.16801 9.00004 5.89066 9.1276 5.70068 9.34925L3 12.5ZM17 8.50006C17 9.32849 16.3284 10.0001 15.5 10.0001C14.6716 10.0001 14 9.32849 14 8.50006C14 7.67163 14.6716 7.00006 15.5 7.00006C16.3284 7.00006 17 7.67163 17 8.50006Z" stroke="black" stroke-width="2" stroke-linecap="round" stroke-linejoin="round"/>
</svg>
