<svg width="24" height="24" viewBox="0 0 24 24" fill="none" xmlns="http://www.w3.org/2000/svg">
<path fill-rule="evenodd" clip-rule="evenodd" d="M3 5C3 3.89543 3.89543 3 5 3H19C20.1046 3 21 3.89543 21 5V19C21 20.1046 20.1046 21 19 21H5C3.89543 21 3 20.1046 3 19V5ZM6.29289 7.29289C6.68342 6.90237 7.31658 6.90237 7.70711 7.29289L9.45711 9.04289C9.84763 9.43342 9.84763 10.0666 9.45711 10.4571L7.70711 12.2071C7.31658 12.5976 6.68342 12.5976 6.29289 12.2071C5.90237 11.8166 5.90237 11.1834 6.29289 10.7929L7.33579 9.75L6.29289 8.70711C5.90237 8.31658 5.90237 7.68342 6.29289 7.29289ZM11.5 10.5C10.9477 10.5 10.5 10.9477 10.5 11.5C10.5 12.0523 10.9477 12.5 11.5 12.5H13.5C14.0523 12.5 14.5 12.0523 14.5 11.5C14.5 10.9477 14.0523 10.5 13.5 10.5H11.5Z" fill="black"/>
</svg>
