<svg width="24" height="24" viewBox="0 0 24 24" fill="none" xmlns="http://www.w3.org/2000/svg">
<path d="M12 21V19M12 19C8.32179 19 6.14683 16.7451 5.01434 15M12 19C14.2282 19 15.9048 18.1725 17.1321 17.1321M9.51896 3.86222C10.2008 3.32235 11.0628 3 12 3C14.2092 3 16 4.79086 16 7V10.3433M3 3L8.00001 8.00001M8.00001 8.00001V11C8.00001 13.2091 9.79087 15 12 15C12.8492 15 13.6365 14.7354 14.2841 14.2841M8.00001 8.00001L14.2841 14.2841M14.2841 14.2841L17.1321 17.1321M17.1321 17.1321L21 21" stroke="black" stroke-width="2" stroke-linecap="round" stroke-linejoin="round"/>
</svg>
