<svg width="24" height="24" viewBox="0 0 24 24" fill="none" xmlns="http://www.w3.org/2000/svg">
<path d="M3.0002 7V5C3.0002 4.44772 3.44792 4 4.0002 4H9.46502C9.79937 4 10.1116 4.1671 10.2971 4.4453L11.7033 6.5547C11.8888 6.8329 12.201 7 12.5354 7H20.0002C20.5525 7 21.0002 7.44772 21.0002 8V18C21.0002 18.5523 20.5525 19 20.0002 19H14.0002M7.75021 12.5C7.75021 13.4665 6.9667 14.25 6.0002 14.25C5.03371 14.25 4.2502 13.4665 4.2502 12.5C4.2502 11.5335 5.03371 10.75 6.0002 10.75C6.9667 10.75 7.75021 11.5335 7.75021 12.5ZM2.64314 18.8242C3.35624 17.7262 4.5934 17 6.00016 17C7.40693 17 8.64408 17.7262 9.35719 18.8242C9.7131 19.3722 9.23761 20 8.58417 20H3.41615C2.76272 20 2.28723 19.3722 2.64314 18.8242Z" stroke="black" stroke-width="2" stroke-linecap="round"/>
</svg>
