<svg width="24" height="24" viewBox="0 0 24 24" fill="none" xmlns="http://www.w3.org/2000/svg">
<path d="M2.32525 18.4227C3.0182 18.4227 3.40798 18.0762 3.65051 17.2447L4.30881 15.2958H8.8216L9.4799 17.2707C9.71376 18.0849 10.1035 18.4227 10.8398 18.4227C11.602 18.4227 12.1477 17.9117 12.1477 17.1927C12.1477 16.9329 12.1044 16.699 11.9832 16.3612L8.55308 7.05844C8.18063 6.03635 7.5743 5.58594 6.55221 5.58594C5.56477 5.58594 4.94978 6.05367 4.58598 7.0671L1.17324 16.3612C1.06063 16.6817 1 16.9762 1 17.1927C1 17.9463 1.51105 18.4227 2.32525 18.4227ZM4.88048 13.2689L6.50024 8.14983H6.56087L8.21527 13.2689H4.88048Z" fill="black"/>
<path d="M16.6643 18.4054C17.825 18.4054 18.9857 17.8251 19.5054 16.8376H19.5574V17.314C19.6093 18.0589 20.0857 18.44 20.77 18.44C21.489 18.44 22 18.0069 22 17.1668V11.8744C22 10.0035 20.4495 8.77348 18.0675 8.77348C16.1446 8.77348 14.6548 9.45776 14.2217 10.5665C14.1351 10.757 14.0918 10.9389 14.0918 11.1381C14.0918 11.7098 14.5335 12.1083 15.1485 12.1083C15.5556 12.1083 15.8761 11.9524 16.1533 11.6405C16.7163 10.9129 17.184 10.6617 17.9549 10.6617C18.9077 10.6617 19.5141 11.1641 19.5141 12.0303V12.6453L17.1754 12.7839C14.854 12.9225 13.5548 13.9013 13.5548 15.5903C13.5548 17.262 14.8973 18.4054 16.6643 18.4054ZM17.4959 16.5778C16.647 16.5778 16.0753 16.1447 16.0753 15.4517C16.0753 14.7934 16.6124 14.369 17.5565 14.2997L19.5141 14.1784V14.8541C19.5141 15.8588 18.6046 16.5778 17.4959 16.5778Z" fill="black"/>
</svg>
