<svg width="24" height="24" viewBox="0 0 24 24" fill="none" xmlns="http://www.w3.org/2000/svg">
<path fill-rule="evenodd" clip-rule="evenodd" d="M10.5858 3.74997C11.3668 2.96892 12.6331 2.96892 13.4142 3.74997L18.7071 9.04286C19.0976 9.43339 19.0976 10.0666 18.7071 10.4571C18.3166 10.8476 17.6834 10.8476 17.2929 10.4571L13 6.1642V20C13 20.5523 12.5523 21 12 21C11.4477 21 11 20.5523 11 20V6.16417L6.70711 10.4571C6.31658 10.8476 5.68342 10.8476 5.29289 10.4571C4.90237 10.0666 4.90237 9.43339 5.29289 9.04287L10.5858 3.74997L11.2155 4.37974L10.5858 3.74997Z" fill="black"/>
</svg>
