<svg width="24" height="24" viewBox="0 0 24 24" fill="none" xmlns="http://www.w3.org/2000/svg">
<path fill-rule="evenodd" clip-rule="evenodd" d="M4 2C2.89543 2 2 2.89543 2 4V16C2 17.1046 2.89543 18 4 18H6V20C6 21.1046 6.89543 22 8 22H20C21.1046 22 22 21.1046 22 20V8C22 6.89543 21.1046 6 20 6H18V4C18 2.89543 17.1046 2 16 2H4ZM16 6V4H4V16H6V8C6 6.89543 6.89543 6 8 6H16ZM14 14.5C15.3807 14.5 16.5 13.3807 16.5 12C16.5 10.6193 15.3807 9.5 14 9.5C12.6193 9.5 11.5 10.6193 11.5 12C11.5 13.3807 12.6193 14.5 14 14.5ZM9.75164 20C9.39442 20 9.15451 19.634 9.31884 19.3168C11.6102 14.8944 16.3898 14.8944 18.6812 19.3168C18.8455 19.634 18.6056 20 18.2484 20H9.75164Z" fill="black"/>
</svg>
