<svg width="24" height="24" viewBox="0 0 24 24" fill="none" xmlns="http://www.w3.org/2000/svg">
<path d="M7 3H5C3.89543 3 3 3.89543 3 5V19C3 20.1046 3.89543 21 5 21H7V14C7 12.8954 7.89543 12 9 12H15C16.1046 12 17 12.8954 17 14V21H19C20.1046 21 21 20.1046 21 19V7.41421C21 6.88378 20.7893 6.37507 20.4142 6L18 3.58579C17.7241 3.30991 17.3759 3.12295 17 3.04336V7C17 8.10457 16.1046 9 15 9H9C7.89543 9 7 8.10457 7 7V3Z" fill="black"/>
<path d="M15 3H9V7H15V3Z" fill="black"/>
<path d="M15 21V14H9V21H15Z" fill="black"/>
</svg>
