<svg width="24" height="24" viewBox="0 0 24 24" fill="none" xmlns="http://www.w3.org/2000/svg">
<path d="M4 9C4 4.58172 7.58172 1 12 1C16.4183 1 20 4.58172 20 9C20 10.8924 19.3427 12.6309 18.2452 14H5.75483C4.65734 12.6309 4 10.8924 4 9Z" fill="black"/>
<path d="M8 16V17.5C8 18.3284 8.67157 19 9.5 19H14.5C15.3284 19 16 18.3284 16 17.5V16H8Z" fill="black"/>
<path d="M8 21C8 20.4477 8.44772 20 9 20H15C15.5523 20 16 20.4477 16 21C16 21.5523 15.5523 22 15 22H9C8.44772 22 8 21.5523 8 21Z" fill="black"/>
</svg>
