<svg width="24" height="24" viewBox="0 0 24 24" fill="none" xmlns="http://www.w3.org/2000/svg">
<path d="M9 7V11C7.86451 12.4194 5.91389 14.1096 5.23845 16M9 7H15M9 7H8M15 7V11C16.1355 12.4194 18.0861 14.1096 18.7616 16M15 7H16M18.7616 16C18.9127 16.4231 19 16.8561 19 17.2984C19 19.3428 17.3428 21 15.2984 21H8.70156C6.65725 21 5 19.3428 5 17.2984C5 16.8561 5.08729 16.4231 5.23845 16M18.7616 16C18.7616 16 16.1751 16.5447 14.5 16.5C12.5094 16.4469 11.4906 15.5531 9.5 15.5C7.82494 15.4553 5.23845 16 5.23845 16" stroke="black" stroke-width="2" stroke-linecap="round"/>
<path d="M11 4C11 4.55228 10.5523 5 10 5C9.44772 5 9 4.55228 9 4C9 3.44772 9.44772 3 10 3C10.5523 3 11 3.44772 11 4Z" fill="black"/>
<path d="M15 2.5C15 3.32843 14.3284 4 13.5 4C12.6716 4 12 3.32843 12 2.5C12 1.67157 12.6716 1 13.5 1C14.3284 1 15 1.67157 15 2.5Z" fill="black"/>
</svg>
