<svg width="24" height="24" viewBox="0 0 24 24" fill="none" xmlns="http://www.w3.org/2000/svg">
<path d="M6 4H18V2H6V4ZM18 4V20H20V4H18ZM18 20H6V22H18V20ZM6 20V4H4V20H6ZM6 16H18V14H6V16ZM4 16V18H6V16H4ZM18 16V18H20V16H18ZM18 16H20C20 14.8954 19.1046 14 18 14V16ZM6 14C4.89543 14 4 14.8954 4 16H6V14ZM6 20H6H4C4 21.1046 4.89543 22 6 22V20ZM18 20V22C19.1046 22 20 21.1046 20 20H18ZM18 4H20C20 2.89543 19.1046 2 18 2V4ZM6 2C4.89543 2 4 2.89543 4 4H6V4V2Z" fill="black"/>
<path d="M15.25 18C15.25 18.4142 15.5858 18.75 16 18.75C16.4142 18.75 16.75 18.4142 16.75 18C16.75 17.5858 16.4142 17.25 16 17.25C15.5858 17.25 15.25 17.5858 15.25 18ZM12.25 18C12.25 18.4142 12.5858 18.75 13 18.75C13.4142 18.75 13.75 18.4142 13.75 18C13.75 17.5858 13.4142 17.25 13 17.25C12.5858 17.25 12.25 17.5858 12.25 18Z" fill="black" stroke="black" stroke-width="0.5" stroke-linecap="square"/>
</svg>
