<svg width="24" height="24" viewBox="0 0 24 24" fill="none" xmlns="http://www.w3.org/2000/svg">
<path d="M8 5.00001C8 4.67203 7.83917 4.3649 7.56959 4.17808C7.30002 3.99126 6.95597 3.94852 6.64888 4.06368L7 5.00001C6.64888 4.06368 6.64793 4.06403 6.64793 4.06403L6.64688 4.06443L6.64452 4.06532L6.63868 4.06755L6.62264 4.07379C6.61004 4.07874 6.59366 4.0853 6.57375 4.09351C6.53394 4.10993 6.47991 4.13301 6.41371 4.16316C6.28146 4.22338 6.09963 4.31224 5.88474 4.43312C5.45666 4.67391 4.88734 5.04739 4.31606 5.58297C3.16181 6.66508 2 8.41472 2 11V18.0012C2 19.1073 2.89696 20 4 20H9C10.1046 20 11 19.1046 11 18V12C11 10.8954 10.1046 10 9 10H8V5.00001Z" fill="#0F1419"/>
<path d="M19 4.99935C18.9998 4.67149 18.8389 4.36456 18.5693 4.17789C18.2998 3.99123 17.9559 3.94856 17.6489 4.06368L18 5.00001C17.6489 4.06368 17.6479 4.06403 17.6479 4.06403L17.6469 4.06443L17.6445 4.06532L17.6387 4.06755L17.6226 4.07379C17.61 4.07874 17.5937 4.0853 17.5737 4.09351C17.5339 4.10993 17.4799 4.13301 17.4137 4.16316C17.2815 4.22338 17.0996 4.31224 16.8847 4.43312C16.4567 4.67391 15.8873 5.04739 15.3161 5.58297C14.1618 6.66508 13 8.41472 13 11V18.0012C13 19.1073 13.897 20 15 20H20.0005C21.1047 20 21.9999 19.1052 22.0005 18.001L22.0034 12.001C22.004 10.896 21.1084 10 20.0034 10H19.0033L19 4.99935Z" fill="#0F1419"/>
</svg>
