<svg width="24" height="24" viewBox="0 0 24 24" fill="none" xmlns="http://www.w3.org/2000/svg">
<path d="M15.5 8.5L8.5 15.5M21 12C21 16.9706 16.9706 21 12 21C7.02944 21 3 16.9706 3 12C3 7.02944 7.02944 3 12 3C16.9706 3 21 7.02944 21 12Z" stroke="black" stroke-width="2" stroke-linecap="round" stroke-linejoin="round"/>
<path d="M9 9.875C9.48325 9.875 9.875 9.48325 9.875 9C9.875 8.51675 9.48325 8.125 9 8.125C8.51675 8.125 8.125 8.51675 8.125 9C8.125 9.48325 8.51675 9.875 9 9.875Z" fill="black" stroke="black" stroke-width="0.75" stroke-linecap="round" stroke-linejoin="round"/>
<path d="M15 15.875C15.4832 15.875 15.875 15.4832 15.875 15C15.875 14.5168 15.4832 14.125 15 14.125C14.5168 14.125 14.125 14.5168 14.125 15C14.125 15.4832 14.5168 15.875 15 15.875Z" fill="black" stroke="black" stroke-width="0.75" stroke-linecap="round" stroke-linejoin="round"/>
</svg>
