<svg width="24" height="24" viewBox="0 0 24 24" fill="none" xmlns="http://www.w3.org/2000/svg">
<path d="M20 10V7.5C20 5.567 18.433 4 16.5 4H7.5C5.567 4 4 5.567 4 7.5V10M20 10V16.5C20 18.433 18.433 20 16.5 20H7.5C5.567 20 4 18.433 4 16.5V10M20 10H4" stroke="black" stroke-width="2" stroke-linecap="square" stroke-linejoin="round"/>
<path d="M11.1255 14.25C11.1255 14.7332 11.5172 15.125 12.0005 15.125C12.4837 15.125 12.8755 14.7332 12.8755 14.25C12.8755 13.7668 12.4837 13.375 12.0005 13.375C11.5172 13.375 11.1255 13.7668 11.1255 14.25Z" fill="black" stroke="black" stroke-width="0.75" stroke-linecap="square"/>
</svg>
