<svg width="24" height="24" viewBox="0 0 24 24" fill="none" xmlns="http://www.w3.org/2000/svg">
<path fill-rule="evenodd" clip-rule="evenodd" d="M2.83704 9.77216C2.16469 9.51407 1.82887 8.75981 2.08696 8.08747C2.34505 7.41512 3.09932 7.0793 3.77166 7.33738L8.6251 9.20045C8.63045 9.20259 8.63584 9.2047 8.64125 9.20677L11.076 10.1414C11.7484 10.3995 12.5026 10.0637 12.7607 9.39131C13.0188 8.71897 12.683 7.9647 12.0106 7.70661L12.0104 7.70651L12.0106 7.70635L9.57584 6.77173C8.9035 6.51365 8.56768 5.75939 8.82577 5.08704C9.08386 4.41469 9.83813 4.07887 10.5105 4.33696L17.6716 7.08587C17.6887 7.09244 17.7057 7.09934 17.7224 7.10655C17.7531 7.11788 17.784 7.12945 17.8148 7.14126C21.1765 8.4317 22.8557 12.203 21.5651 15.5648C20.2747 18.9265 16.5034 20.6056 13.1417 19.3151C13.077 19.2904 13.0129 19.2645 12.9494 19.2379C12.9186 19.2285 12.8879 19.2181 12.8574 19.2064L5.83735 16.5116C5.16501 16.2535 4.82918 15.4993 5.08728 14.8269C5.34537 14.1546 6.09963 13.8188 6.77197 14.0769L9.20642 15.0114L9.20627 15.0108L9.20677 15.011C9.87913 15.2691 10.6334 14.9333 10.8915 14.2609C11.1496 13.5886 10.8137 12.8343 10.1414 12.5762L9.04577 12.1557L9.0458 12.1555L2.83704 9.77216Z" fill="black"/>
</svg>
