<svg width="24" height="24" viewBox="0 0 24 24" fill="none" xmlns="http://www.w3.org/2000/svg">
<path d="M7.03739 3.83592C8.1252 2.73239 9.7695 2 11.9996 2C14.334 2 15.8997 2.80514 16.9086 3.87391C17.8886 4.91204 18.2614 6.11113 18.404 6.79625C18.5166 7.33695 18.1694 7.8665 17.6287 7.97902C17.088 8.09155 16.5585 7.74445 16.446 7.20375C16.3446 6.71649 16.0855 5.91558 15.4542 5.24681C14.8518 4.60867 13.8268 4 11.9996 4C10.2296 4 9.12391 4.56819 8.46172 5.23995C7.78182 5.92967 7.49956 6.79772 7.49956 7.5C7.49956 8.08532 7.63417 8.51083 7.83648 8.84223C8.04291 9.18039 8.35417 9.47621 8.78567 9.74469C9.66166 10.2898 10.8612 10.6274 12.2557 11H21C21.5523 11 22 11.4477 22 12C22 12.5523 21.5523 13 21 13H3C2.44772 13 2 12.5523 2 12C2 11.4477 2.44772 11 3 11H7.10966C6.73401 10.6902 6.39755 10.3235 6.12943 9.88433C5.7165 9.20792 5.49956 8.41468 5.49956 7.5C5.49956 6.30344 5.96729 4.92149 7.03739 3.83592Z" fill="black"/>
<path d="M16.3064 15H18.5251C18.6733 15.4579 18.7496 15.9576 18.7496 16.5C18.7496 19.0019 16.4996 22 11.9996 22C9.66635 22 8.04525 21.1974 6.95644 20.1654C5.89117 19.1558 5.39412 17.9842 5.17702 17.3041C5.00907 16.778 5.29943 16.2153 5.82556 16.0474C6.35169 15.8794 6.91435 16.1698 7.0823 16.6959C7.23946 17.1882 7.59653 18.0166 8.33224 18.7138C9.04441 19.3888 10.1711 20 11.9996 20C15.4995 20 16.7496 17.7958 16.7496 16.5C16.7496 15.9147 16.6149 15.4892 16.4126 15.1578C16.3799 15.1041 16.3445 15.0516 16.3064 15Z" fill="black"/>
</svg>
