<svg width="24" height="24" viewBox="0 0 24 24" fill="none" xmlns="http://www.w3.org/2000/svg">
<path d="M5.00001 7.51142L11.0686 3.1668C11.4037 2.92691 11.5712 2.80697 11.754 2.76058C11.9155 2.71962 12.0846 2.71962 12.246 2.76058C12.4288 2.80697 12.5963 2.92691 12.9314 3.1668L19 7.51142M5.00001 7.51142V18.4C5.00001 18.9601 5.00001 19.2401 5.10901 19.454C5.20488 19.6422 5.35786 19.7951 5.54602 19.891C5.75993 20 6.03996 20 6.60001 20H17.4C17.9601 20 18.2401 20 18.454 19.891C18.6422 19.7951 18.7951 19.6422 18.891 19.454C19 19.2401 19 18.9601 19 18.4V7.51142M5.00001 7.51142L2.5 9.30122M19 7.51142L21.5 9.30122" stroke="black" stroke-width="2" stroke-linecap="round" stroke-linejoin="round"/>
</svg>
