<svg width="24" height="24" viewBox="0 0 24 24" fill="none" xmlns="http://www.w3.org/2000/svg">
<path fill-rule="evenodd" clip-rule="evenodd" d="M12.0931 2.53021C12.2873 2.86472 12.2712 3.28123 12.0517 3.59971C11.3858 4.56582 10.9961 5.73577 10.9961 6.99976C10.9961 10.3135 13.6824 12.9998 16.9961 12.9998C18.2602 12.9998 19.4302 12.61 20.3963 11.9441C20.7148 11.7246 21.1313 11.7084 21.4658 11.9026C21.8003 12.0968 21.9929 12.4664 21.9602 12.8519C21.5264 17.9745 17.2324 21.996 11.9981 21.996C6.47632 21.996 2 17.5197 2 11.9979C2 6.76372 6.0214 2.46985 11.1438 2.03581C11.5292 2.00315 11.8989 2.19569 12.0931 2.53021ZM9.42003 4.42417C6.268 5.49679 4 8.48285 4 11.9979C4 16.4151 7.58088 19.996 11.9981 19.996C15.5133 19.996 18.4994 17.7279 19.5719 14.5757C18.7632 14.8506 17.8967 14.9998 16.9961 14.9998C12.5778 14.9998 8.99609 11.418 8.99609 6.99976C8.99609 6.0993 9.14518 5.2328 9.42003 4.42417Z" fill="black"/>
<path d="M16.2374 5.01736L17.049 3.39419C17.2332 3.02567 17.7591 3.02567 17.9434 3.3942L18.755 5.01736C18.8034 5.11413 18.8818 5.19259 18.9786 5.24097L20.6017 6.05255C20.9703 6.23682 20.9703 6.76272 20.6017 6.94698L18.9786 7.75857C18.8818 7.80695 18.8034 7.88541 18.755 7.98217L17.9434 9.60534C17.7591 9.97386 17.2332 9.97386 17.049 9.60534L16.2374 7.98217C16.189 7.88541 16.1105 7.80695 16.0138 7.75856L14.3906 6.94698C14.0221 6.76272 14.0221 6.23682 14.3906 6.05255L16.0138 5.24097C16.1105 5.19259 16.189 5.11413 16.2374 5.01736Z" fill="black"/>
</svg>
