<svg width="24" height="24" viewBox="0 0 24 24" fill="none" xmlns="http://www.w3.org/2000/svg">
<path fill-rule="evenodd" clip-rule="evenodd" d="M12 2C12.5523 2 13 2.44772 13 3V14.8358L15.5429 12.2929C15.9334 11.9024 16.5666 11.9024 16.9571 12.2929C17.3476 12.6834 17.3476 13.3166 16.9571 13.7071L13.2375 17.4268C12.554 18.1102 11.446 18.1102 10.7626 17.4268L7.04289 13.7071C6.65237 13.3166 6.65237 12.6834 7.04289 12.2929C7.43342 11.9024 8.06658 11.9024 8.45711 12.2929L11 14.8358V3C11 2.44772 11.4477 2 12 2ZM4 21C4 20.4477 4.44772 20 5 20H19C19.5523 20 20 20.4477 20 21C20 21.5523 19.5523 22 19 22H5C4.44772 22 4 21.5523 4 21Z" fill="black"/>
</svg>
