<svg width="24" height="24" viewBox="0 0 24 24" fill="none" xmlns="http://www.w3.org/2000/svg">
<path fill-rule="evenodd" clip-rule="evenodd" d="M11.3498 2.16624C11.7712 2.02141 12.2288 2.02141 12.6502 2.16624L19.6502 4.57249C20.4578 4.85011 21 5.60988 21 6.46387V11.9125C21 14.7193 19.8511 16.742 18.1875 18.317C16.6151 19.8056 14.5552 20.9164 12.6319 21.9535L12.4748 22.0382C12.1785 22.1981 11.8215 22.1981 11.5252 22.0382L11.3681 21.9535C9.44484 20.9164 7.38493 19.8056 5.8125 18.317C4.14891 16.742 3 14.7193 3 11.9125V6.46387C3 5.60988 3.54224 4.85011 4.34984 4.57249L11.3498 2.16624ZM15.2071 10.4571C15.5976 10.0666 15.5976 9.43342 15.2071 9.04289C14.8166 8.65237 14.1834 8.65237 13.7929 9.04289L11 11.8358L10.2071 11.0429C9.81658 10.6524 9.18342 10.6524 8.79289 11.0429C8.40237 11.4334 8.40237 12.0666 8.79289 12.4571L10.2929 13.9571C10.4804 14.1446 10.7348 14.25 11 14.25C11.2652 14.25 11.5196 14.1446 11.7071 13.9571L15.2071 10.4571Z" fill="black"/>
</svg>
