<svg width="24" height="24" viewBox="0 0 24 24" fill="none" xmlns="http://www.w3.org/2000/svg">
<path fill-rule="evenodd" clip-rule="evenodd" d="M16.3913 2.46183C17.6812 2.05132 18.9978 3.01398 18.9978 4.36764V7.12599C20.723 7.57004 21.9978 9.13614 21.9978 11C21.9978 12.8638 20.723 14.4299 18.9978 14.874V17.6323C18.9978 18.986 17.6812 19.9486 16.3913 19.5381L13.6371 18.6616C13.0066 20.0403 11.6154 21 9.9978 21C7.78866 21 5.9978 19.2091 5.9978 17V16.2211L3.3899 15.389C2.5607 15.1245 1.9978 14.354 1.9978 13.4836V8.51631C1.9978 7.64593 2.5607 6.87548 3.3899 6.61093L6.57362 5.59517C6.62009 5.57323 6.66854 5.55477 6.7186 5.54011L16.3913 2.46183ZM7.9978 16.8669V17C7.9978 18.1045 8.89323 19 9.9978 19C10.7178 19 11.3506 18.6191 11.703 18.0461L7.9978 16.8669ZM19.9978 11C19.9978 11.7403 19.5956 12.3866 18.9978 12.7324V9.26754C19.5956 9.61335 19.9978 10.2597 19.9978 11ZM6 7.87751V14.1224L3.9978 13.4836V8.51631L6 7.87751Z" fill="black"/>
</svg>
