<svg width="24" height="24" viewBox="0 0 24 24" fill="none" xmlns="http://www.w3.org/2000/svg">
<path fill-rule="evenodd" clip-rule="evenodd" d="M12 2.49996C12.5523 2.49996 13 2.94768 13 3.49996V5.99996C13 6.55225 12.5523 6.99996 12 6.99996C11.4477 6.99996 11 6.55225 11 5.99996V3.49996C11 2.94768 11.4477 2.49996 12 2.49996ZM20.366 7.28864C20.6422 7.76693 20.4783 8.37852 20 8.65466L17.9019 9.86599C17.4236 10.1421 16.812 9.97826 16.5359 9.49996C16.2598 9.02167 16.4236 8.41008 16.9019 8.13394L19 6.92261C19.4783 6.64647 20.0899 6.81035 20.366 7.28864ZM3.63397 7.28864C3.91012 6.81035 4.52171 6.64647 5 6.92261L7.09808 8.13394C7.57637 8.41008 7.74024 9.02167 7.4641 9.49996C7.18796 9.97826 6.57637 10.1421 6.09808 9.86599L4 8.65466C3.52171 8.37852 3.35783 7.76693 3.63397 7.28864ZM7.4641 14.5C7.74024 14.9783 7.57637 15.5898 7.09808 15.866L5 17.0773C4.52171 17.3535 3.91012 17.1896 3.63397 16.7113C3.35783 16.233 3.52171 15.6214 4 15.3453L6.09808 14.1339C6.57637 13.8578 7.18796 14.0217 7.4641 14.5ZM16.5359 14.5C16.812 14.0217 17.4236 13.8578 17.9019 14.1339L20 15.3453C20.4783 15.6214 20.6422 16.233 20.366 16.7113C20.0899 17.1896 19.4783 17.3535 19 17.0773L16.9019 15.866C16.4236 15.5898 16.2598 14.9783 16.5359 14.5ZM12 17C12.5523 17 13 17.4477 13 18V20.5C13 21.0522 12.5523 21.5 12 21.5C11.4477 21.5 11 21.0522 11 20.5V18C11 17.4477 11.4477 17 12 17Z" fill="black"/>
<path fill-rule="evenodd" clip-rule="evenodd" d="M12 4.14731L13.6888 5.09727C14.1702 5.36803 14.7799 5.19731 15.0506 4.71595C15.3214 4.23459 15.1507 3.62488 14.6693 3.35411L12.858 2.33522C12.3252 2.03556 11.6748 2.03556 11.142 2.33522L9.33067 3.35411C8.84931 3.62488 8.67859 4.23459 8.94935 4.71595C9.22012 5.19731 9.82983 5.36803 10.3112 5.09727L12 4.14731ZM16.871 5.7399C17.1418 5.25855 17.7515 5.08783 18.2328 5.35859L20.108 6.41334C20.659 6.7233 21 7.30637 21 7.9386V9.99996C21 10.5522 20.5523 11 20 11C19.4477 11 19 10.5522 19 9.99996V8.08481L17.2523 7.10174C16.771 6.83098 16.6002 6.22126 16.871 5.7399ZM7.12899 5.73991C7.39975 6.22126 7.22903 6.83098 6.74768 7.10174L5 8.08481L5 9.99996C5 10.5522 4.55228 11 4 11C3.44771 11 3 10.5522 3 9.99996L3 7.9386C3 7.30723 3.33976 6.724 3.89154 6.41362L5.76715 5.35859C6.24851 5.08783 6.85823 5.25855 7.12899 5.73991ZM4 13C4.55228 13 5 13.4477 5 14V15.9151L6.74768 16.8982C7.22903 17.1689 7.39975 17.7787 7.12899 18.26C6.85823 18.7414 6.24851 18.9121 5.76715 18.6413L3.89204 17.5866C3.34101 17.2766 3 16.6936 3 16.0613V14C3 13.4477 3.44772 13 4 13ZM20 13C20.5523 13 21 13.4477 21 14V16.0613C21 16.6936 20.659 17.2766 20.108 17.5866L18.2328 18.6413C17.7515 18.9121 17.1418 18.7414 16.871 18.26C16.6002 17.7787 16.771 17.1689 17.2523 16.8982L19 15.9151V14C19 13.4477 19.4477 13 20 13ZM8.94934 19.284C9.22011 18.8026 9.82982 18.6319 10.3112 18.9027L12 19.8526L13.6888 18.9027C14.1702 18.6319 14.7799 18.8026 15.0507 19.284C15.3214 19.7653 15.1507 20.375 14.6693 20.6458L12.858 21.6647C12.3252 21.9644 11.6748 21.9644 11.142 21.6647L9.33066 20.6458C8.8493 20.375 8.67858 19.7653 8.94934 19.284Z" fill="black"/>
<path fill-rule="evenodd" clip-rule="evenodd" d="M14.5981 10.5C14.8742 10.9783 14.7104 11.5898 14.2321 11.866L13 12.5773V14C13 14.5523 12.5523 15 12 15C11.4477 15 11 14.5523 11 14V12.5773L9.76794 11.866C9.28965 11.5898 9.12578 10.9783 9.40192 10.5C9.67806 10.0217 10.2897 9.8578 10.7679 10.1339L12 10.8453L13.2321 10.1339C13.7103 9.8578 14.3219 10.0217 14.5981 10.5Z" fill="black"/>
</svg>
