<svg width="24" height="24" viewBox="0 0 24 24" fill="none" xmlns="http://www.w3.org/2000/svg">
<path fill-rule="evenodd" clip-rule="evenodd" d="M3.62506 3.28787C4.06115 2.68661 4.84853 2 6.0788 2C7.96548 2 9.08129 3.49785 9.71904 4.81382C9.7855 4.95094 9.84899 5.09051 9.90966 5.23164C10.5821 5.08007 11.2823 5 12 5C12.7177 5 13.4179 5.08007 14.0903 5.23164C14.151 5.09051 14.2145 4.95094 14.281 4.81382C14.9187 3.49785 16.0345 2 17.9212 2C19.1515 2 19.9389 2.68661 20.3749 3.28787L19.0333 5.01284C19.0323 5.00965 19.0298 5.00107 19.0254 4.98788C19.0167 4.96129 19.0011 4.91731 18.978 4.86188C18.9305 4.74822 18.8575 4.60212 18.7559 4.46211C18.5574 4.18838 18.3063 4 17.9212 4C17.2695 4 16.6545 4.50209 16.0807 5.68604C16.0497 5.75014 16.0193 5.81507 15.9897 5.8807C18.94 7.26069 21 10.1265 21 13.5C21 18.2542 16.9088 22 12 22C7.09121 22 3 18.2542 3 13.5C3 10.1265 5.05999 7.26069 8.01033 5.8807C7.98067 5.81507 7.95033 5.75014 7.91926 5.68604C7.34548 4.50209 6.73053 4 6.0788 4C5.69368 4 5.4426 4.18838 5.24407 4.46211C5.14252 4.60212 5.06947 4.74822 5.022 4.86188C4.99886 4.91731 4.98335 4.96129 4.97458 4.98788C4.97023 5.00107 4.96765 5.00965 4.96671 5.01284L3.62506 3.28787ZM10.5 13.75C10.5 14.7165 9.82843 15.5 9 15.5C8.17157 15.5 7.5 14.7165 7.5 13.75C7.5 12.7835 8.17157 12 9 12C9.82843 12 10.5 12.7835 10.5 13.75ZM12 18C12.8284 18 13.5 17.5523 13.5 17C13.5 16.4477 12.8284 16 12 16C11.1716 16 10.5 16.4477 10.5 17C10.5 17.5523 11.1716 18 12 18ZM16.5 13.75C16.5 14.7165 15.8284 15.5 15 15.5C14.1716 15.5 13.5 14.7165 13.5 13.75C13.5 12.7835 14.1716 12 15 12C15.8284 12 16.5 12.7835 16.5 13.75Z" fill="black"/>
<path d="M3.62506 3.28787L4.00187 4.74998C3.03494 4.49496 3.03505 4.49454 3.03516 4.49412L3.03589 4.49136L3.03704 4.48708L3.03994 4.47655L3.04819 4.44781C3.0548 4.42536 3.06371 4.39634 3.07514 4.36168C3.09792 4.29257 3.13109 4.19984 3.17645 4.0912C3.26601 3.87675 3.40931 3.58535 3.62506 3.28787Z" fill="black"/>
<path d="M20.3749 3.28787C20.5907 3.58535 20.734 3.87675 20.8235 4.0912C20.8689 4.19984 20.9021 4.29257 20.9249 4.36168C20.9363 4.39634 20.9452 4.42536 20.9518 4.44781L20.9601 4.47655L20.963 4.48708L20.9641 4.49136L20.9648 4.49412C20.965 4.49454 20.9651 4.49496 19.9981 4.74998L20.3749 3.28787Z" fill="black"/>
</svg>
