<svg width="24" height="24" viewBox="0 0 24 24" fill="none" xmlns="http://www.w3.org/2000/svg">
<path fill-rule="evenodd" clip-rule="evenodd" d="M13.6489 3.06394C14.166 2.87002 14.7424 3.13203 14.9363 3.64915L20.9363 19.6491C21.1302 20.1663 20.8682 20.7427 20.3511 20.9366C19.834 21.1305 19.2576 20.8685 19.0637 20.3514L13.0637 4.35139C12.8698 3.83427 13.1318 3.25786 13.6489 3.06394ZM4 3.00027C4.55228 3.00027 5 3.44799 5 4.00027V20.0003C5 20.5526 4.55228 21.0003 4 21.0003C3.44772 21.0003 3 20.5526 3 20.0003V4.00027C3 3.44799 3.44772 3.00027 4 3.00027ZM9 3.00027C9.55228 3.00027 10 3.44799 10 4.00027V20.0003C10 20.5526 9.55228 21.0003 9 21.0003C8.44772 21.0003 8 20.5526 8 20.0003V4.00027C8 3.44799 8.44772 3.00027 9 3.00027Z" fill="black"/>
</svg>
