<svg width="24" height="24" viewBox="0 0 24 24" fill="none" xmlns="http://www.w3.org/2000/svg">
<path d="M5.56811 3C5.31573 2.99997 5.06993 2.99994 4.86178 3.01695C4.63318 3.03563 4.36345 3.07969 4.09202 3.21799C3.7157 3.40974 3.40974 3.7157 3.21799 4.09202C3.07969 4.36345 3.03563 4.63318 3.01695 4.86178C2.99994 5.06993 2.99997 5.31572 3 5.56809L3.00001 10C3.00001 10.5523 3.44772 11 4.00001 11H10C10.5523 11 11 10.5523 11 10V4.00001C11 3.44772 10.5523 3.00001 10 3.00001L5.56811 3Z" fill="black"/>
<path d="M19.908 3.21799C19.6366 3.07969 19.3668 3.03563 19.1382 3.01695C18.9301 2.99994 18.6843 2.99997 18.4319 3L14 3.00001C13.4477 3.00001 13 3.44772 13 4.00001V10C13 10.5523 13.4477 11 14 11H20C20.5523 11 21 10.5523 21 10L21 5.56809C21 5.31575 21.0001 5.0699 20.9831 4.86178C20.9644 4.63318 20.9203 4.36345 20.782 4.09202C20.5903 3.7157 20.2843 3.40974 19.908 3.21799Z" fill="black"/>
<path d="M4.00001 13C3.44772 13 3.00001 13.4477 3.00001 14L3 18.4319C2.99997 18.6843 2.99994 18.9301 3.01695 19.1382C3.03563 19.3668 3.07969 19.6366 3.21799 19.908C3.40974 20.2843 3.7157 20.5903 4.09202 20.782C4.36345 20.9203 4.63318 20.9644 4.86178 20.9831C5.0699 21.0001 5.31564 21 5.56797 21L10 21C10.5523 21 11 20.5523 11 20V14C11 13.4477 10.5523 13 10 13H4.00001Z" fill="black"/>
<path d="M14 13C13.4477 13 13 13.4477 13 14V20C13 20.5523 13.4477 21 14 21L18.4319 21C18.6843 21 18.9301 21.0001 19.1382 20.9831C19.3668 20.9644 19.6366 20.9203 19.908 20.782C20.2843 20.5903 20.5903 20.2843 20.782 19.908C20.9203 19.6366 20.9644 19.3668 20.9831 19.1382C21.0001 18.9301 21 18.6844 21 18.432L21 14C21 13.4477 20.5523 13 20 13H14Z" fill="black"/>
</svg>
