<svg width="24" height="24" viewBox="0 0 24 24" fill="none" xmlns="http://www.w3.org/2000/svg">
<path fill-rule="evenodd" clip-rule="evenodd" d="M12 8.00013C9.73373 8.00013 7.64843 8.22882 6.10061 8.61577C5.33439 8.80733 4.64339 9.05133 4.11985 9.36077C3.66326 9.63065 3 10.1522 3 11.0001C3 11.8481 3.66326 12.3696 4.11985 12.6395C4.37659 12.7912 4.6736 12.9272 5 13.0491V19.0001C5 19.714 5.43495 20.2349 5.85254 20.564C6.2814 20.902 6.84 21.1627 7.44113 21.363C8.65384 21.7673 10.2656 22.0001 12 22.0001C13.7344 22.0001 15.3462 21.7673 16.5589 21.363C17.16 21.1627 17.7186 20.902 18.1475 20.564C18.5651 20.2349 19 19.714 19 19.0001V13.0491C19.3264 12.9272 19.6234 12.7912 19.8801 12.6395C20.3367 12.3696 21 11.8481 21 11.0001C21 10.1522 20.3367 9.63065 19.8801 9.36077C19.3566 9.05133 18.6656 8.80733 17.8994 8.61577C16.3516 8.22882 14.2663 8.00013 12 8.00013ZM6.58568 10.5561C6.12194 10.672 5.75124 10.7956 5.47154 10.9161C5.3958 10.9487 5.3958 11.0516 5.47154 11.0842C5.75124 11.2047 6.12194 11.3283 6.58568 11.4442C7.93329 11.7811 9.848 12.0001 12 12.0001C14.152 12.0001 16.0667 11.7811 17.4143 11.4442C17.8781 11.3283 18.2488 11.2046 18.5285 11.0842C18.6042 11.0516 18.6042 10.9487 18.5285 10.9161C18.2488 10.7956 17.8781 10.672 17.4143 10.5561C16.0667 10.2192 14.152 10.0001 12 10.0001C9.848 10.0001 7.93329 10.2192 6.58568 10.5561ZM17 13.5802C15.5841 13.8473 13.8525 14.0001 12 14.0001C10.1475 14.0001 8.41593 13.8473 7 13.5802V18.9125C7.01773 18.9313 7.04625 18.9584 7.09048 18.9932C7.26885 19.1338 7.58893 19.3041 8.07359 19.4657C9.03245 19.7853 10.4207 20.0001 12 20.0001C13.5793 20.0001 14.9675 19.7853 15.9264 19.4657C16.4111 19.3041 16.7311 19.1338 16.9095 18.9932C16.9537 18.9584 16.9823 18.9313 17 18.9125V13.5802Z" fill="black"/>
<path d="M13.5528 1.89456C13.737 1.52603 14.263 1.52603 14.4472 1.89456C14.9429 2.88596 15.1142 3.05722 16.1056 3.55292C16.4741 3.73718 16.4741 4.26308 16.1056 4.44734C15.1142 4.94304 14.9429 5.1143 14.4472 6.1057C14.263 6.47423 13.737 6.47423 13.5528 6.1057C13.0571 5.1143 12.8858 4.94304 11.8944 4.44734C11.5259 4.26308 11.5259 3.73718 11.8944 3.55292C12.8858 3.05722 13.0571 2.88596 13.5528 1.89456Z" fill="black"/>
<path d="M8.55279 3.89456C8.73705 3.52603 9.26295 3.52603 9.44721 3.89456C9.62149 4.24311 9.75702 4.37864 10.1056 4.55292C10.4741 4.73718 10.4741 5.26308 10.1056 5.44734C9.75702 5.62162 9.62149 5.75715 9.44721 6.1057C9.26295 6.47423 8.73705 6.47423 8.55279 6.1057C8.37851 5.75715 8.24298 5.62162 7.89443 5.44734C7.5259 5.26308 7.5259 4.73718 7.89443 4.55292C8.24298 4.37864 8.37851 4.24311 8.55279 3.89456Z" fill="black"/>
</svg>
