<svg width="16" height="16" viewBox="0 0 16 16" fill="none" xmlns="http://www.w3.org/2000/svg">
<path d="M8.08952 5.03146C7.73387 5.42823 7.21855 5.67743 6.64516 5.67743C6.07177 5.67743 5.55645 5.42823 5.20081 5.03146C5.03387 4.84517 4.68306 4.82339 4.48468 4.97581C4.22581 5.17178 3.90161 5.29033 3.54839 5.29033C2.69435 5.29033 2 4.59597 2 3.74194C2 2.88791 2.69435 2.19355 3.54839 2.19355C3.90161 2.19355 4.22581 2.3121 4.48468 2.50807C4.68306 2.66049 5.03387 2.63872 5.20081 2.45243C5.55645 2.05565 6.07177 1.80646 6.64516 1.80646C7.21855 1.80646 7.73387 2.05565 8.08952 2.45243C8.25645 2.63872 8.60726 2.66049 8.80564 2.50807C9.06452 2.3121 9.38871 2.19355 9.74194 2.19355C10.596 2.19355 11.2903 2.88791 11.2903 3.74194C11.2903 4.59597 10.596 5.29033 9.74194 5.29033C9.38871 5.29033 9.06452 5.17178 8.80564 4.97581C8.60726 4.82339 8.25645 4.84517 8.08952 5.03146ZM2.3871 12.6452V5.75484C2.72823 5.95081 3.125 6.06452 3.54839 6.06452C4.00081 6.06452 4.42419 5.93388 4.78226 5.70888C5.26613 6.16855 5.92419 6.45162 6.64516 6.45162C7.36613 6.45162 8.02419 6.16855 8.50806 5.70888C8.86613 5.93388 9.28952 6.06452 9.74194 6.06452C10.2161 6.06452 10.6589 5.92178 11.0266 5.67743H12.1419C13.1677 5.67743 14 6.50968 14 7.53549V10.0057C14 10.7387 13.5669 11.4065 12.8968 11.704L10.9032 12.5895V12.6452C10.9032 13.4992 10.2089 14.1936 9.35484 14.1936H3.93548C3.08145 14.1936 2.3871 13.4992 2.3871 12.6452ZM10.9032 10.8936L12.2677 10.2863C12.379 10.2355 12.4516 10.1266 12.4516 10.0032V7.53549C12.4516 7.36372 12.3137 7.22581 12.1419 7.22581H10.9032V10.8936ZM5.48387 7.61291C5.48387 7.40001 5.30968 7.22581 5.09677 7.22581C4.88387 7.22581 4.70968 7.40001 4.70968 7.61291V11.4839C4.70968 11.6968 4.88387 11.871 5.09677 11.871C5.30968 11.871 5.48387 11.6968 5.48387 11.4839V7.61291ZM7.03226 7.61291C7.03226 7.40001 6.85806 7.22581 6.64516 7.22581C6.43226 7.22581 6.25806 7.40001 6.25806 7.61291V11.4839C6.25806 11.6968 6.43226 11.871 6.64516 11.871C6.85806 11.871 7.03226 11.6968 7.03226 11.4839V7.61291ZM8.58065 7.61291C8.58065 7.40001 8.40645 7.22581 8.19355 7.22581C7.98065 7.22581 7.80645 7.40001 7.80645 7.61291V11.4839C7.80645 11.6968 7.98065 11.871 8.19355 11.871C8.40645 11.871 8.58065 11.6968 8.58065 11.4839V7.61291Z" fill="#E6891D"/>
</svg>
