<svg width="24" height="24" viewBox="0 0 24 24" fill="none" xmlns="http://www.w3.org/2000/svg">
<path d="M7.45703 5.70711C7.84756 5.31658 7.84756 4.68342 7.45703 4.29289C7.06651 3.90237 6.43334 3.90237 6.04282 4.29289L2.39637 7.93934C1.81058 8.52513 1.81059 9.47487 2.39637 10.0607L6.04282 13.7071C6.43334 14.0976 7.06651 14.0976 7.45703 13.7071C7.84756 13.3166 7.84756 12.6834 7.45703 12.2929L5.16414 10H19C19.5523 10 20 10.4477 20 11V16C20 16.5523 19.5523 17 19 17H12C11.4477 17 11 17.4477 11 18C11 18.5523 11.4477 19 12 19H19C20.6569 19 22 17.6569 22 16V11C22 9.34315 20.6569 8 19 8H5.16414L7.45703 5.70711Z" fill="black"/>
</svg>
