<svg width="24" height="24" viewBox="0 0 24 24" fill="none" xmlns="http://www.w3.org/2000/svg">
<path d="M11.9961 5.5V18.5M11.9961 5.5L9.49609 3M11.9961 5.5L14.4961 3M11.9961 18.5L9.49609 21M11.9961 18.5L14.4961 21M6.36819 8.74998L17.6265 15.25M6.36819 8.74998L2.95312 9.66504M6.36819 8.74998L5.45312 5.33491M17.6265 15.25L18.5416 18.665M17.6265 15.25L21.0416 14.3349M6.36819 15.25L17.6265 8.74998M6.36819 15.25L5.45312 18.665M6.36819 15.25L2.95312 14.3349M17.6265 8.74998L21.0416 9.66504M17.6265 8.74998L18.5416 5.33491" stroke="black" stroke-width="2" stroke-linecap="round" stroke-linejoin="round"/>
</svg>
