<svg width="24" height="24" viewBox="0 0 24 24" fill="none" xmlns="http://www.w3.org/2000/svg">
<path fill-rule="evenodd" clip-rule="evenodd" d="M12.0001 2.00004C8.06409 2.00004 4.73607 4.91377 4.21587 8.81524L3.15981 16.7357C2.99995 17.9347 3.93269 19 5.14227 19H7.35373C8.25788 20.7479 9.96146 22 12.0001 22C14.0387 22 15.7423 20.7479 16.6465 19H18.8579C20.0675 19 21.0002 17.9347 20.8404 16.7357L19.7843 8.81524C19.2641 4.91377 15.9361 2.00004 12.0001 2.00004ZM14.2219 19H9.77833C10.3873 19.6373 11.1769 20 12.0001 20C12.8233 20 13.6129 19.6373 14.2219 19Z" fill="black"/>
<path fill-rule="evenodd" clip-rule="evenodd" d="M4.60202 1.98256C5.02479 2.33791 5.07945 2.96871 4.7241 3.39149C3.75222 4.54779 3.05177 5.93763 2.71866 7.46366C2.60088 8.00324 2.06798 8.34517 1.5284 8.22739C0.988821 8.10961 0.646888 7.57671 0.764671 7.03713C1.16871 5.1862 2.01793 3.50277 3.19308 2.10465C3.54843 1.68187 4.17924 1.62721 4.60202 1.98256ZM19.3982 1.98256C19.821 1.62721 20.4518 1.68187 20.8071 2.10465C21.9823 3.50278 22.8315 5.1862 23.2355 7.03713C23.3533 7.57671 23.0114 8.10961 22.4718 8.22739C21.9322 8.34517 21.3993 8.00324 21.2816 7.46366C20.9484 5.93763 20.248 4.54779 19.2761 3.39149C18.9208 2.96871 18.9754 2.33791 19.3982 1.98256Z" fill="black"/>
</svg>
