<svg width="24" height="24" viewBox="0 0 24 24" fill="none" xmlns="http://www.w3.org/2000/svg">
<path d="M4 12H8M4 12V8M4 12V16M8 12H16M8 12V16M8 12V8M16 12H20M16 12V16.4444M16 12V8M20 12V8M20 12V16.4444M16 20H19C19.5523 20 20 19.5523 20 19V16.4444M16 20V16.4444M16 20H8M16 4H19C19.5523 4 20 4.44772 20 5V8M16 4V8M16 4H8M16 8H20M16 16.4444H20M8 20H5C4.44772 20 4 19.5523 4 19V16M8 20V16M8 4H5C4.44772 4 4 4.44772 4 5V8M8 4V8M4 8H8M4 16H8" stroke="black" stroke-width="2" stroke-linecap="square"/>
</svg>
