<svg width="24" height="24" viewBox="0 0 24 24" fill="none" xmlns="http://www.w3.org/2000/svg">
<path d="M10 4H11C11 3.44772 10.5523 3 10 3V4ZM10 10V11C10.5523 11 11 10.5523 11 10H10ZM4 10H3C3 10.5523 3.44772 11 4 11V10ZM4.54601 4.10899L5 5L4.54601 4.10899ZM4.10899 4.54601L5 5L4.10899 4.54601ZM14 4V3C13.4477 3 13 3.44772 13 4H14ZM20 10V11C20.5523 11 21 10.5523 21 10H20ZM14 10H13C13 10.5523 13.4477 11 14 11V10ZM19.454 4.10899L19 5L19.454 4.10899ZM19.891 4.54601L19 5L19.891 4.54601ZM4 14V13C3.44772 13 3 13.4477 3 14H4ZM10 14H11C11 13.4477 10.5523 13 10 13V14ZM10 20V21C10.5523 21 11 20.5523 11 20H10ZM4.54601 19.891L5 19L4.54601 19.891ZM4.10899 19.454L5 19L4.10899 19.454ZM20.2929 21.7076C20.6834 22.0981 21.3166 22.0981 21.7071 21.7076C22.0976 21.317 22.0976 20.6839 21.7071 20.2934L20.2929 21.7076ZM5.6 5H10V3H5.6V5ZM9 4V10H11V4H9ZM10 9H4V11H10V9ZM5 10V5.6H3V10H5ZM5.6 3C5.33647 3 5.07869 2.99922 4.86177 3.01695C4.63318 3.03562 4.36344 3.07969 4.09202 3.21799L5 5C4.94249 5.0293 4.91972 5.01887 5.02463 5.0103C5.14122 5.00078 5.30347 5 5.6 5V3ZM5 5.6C5 5.30347 5.00078 5.14122 5.0103 5.02463C5.01887 4.91972 5.0293 4.94249 5 5L3.21799 4.09202C3.07969 4.36344 3.03562 4.63318 3.01695 4.86177C2.99922 5.07869 3 5.33647 3 5.6H5ZM4.09202 3.21799C3.71569 3.40973 3.40973 3.71569 3.21799 4.09202L5 5L5 5L4.09202 3.21799ZM14 5H18.4V3H14V5ZM19 5.6V10H21V5.6H19ZM20 9H14V11H20V9ZM15 10V4H13V10H15ZM18.4 5C18.6965 5 18.8588 5.00078 18.9754 5.0103C19.0803 5.01887 19.0575 5.0293 19 5L19.908 3.21799C19.6366 3.07969 19.3668 3.03562 19.1382 3.01695C18.9213 2.99922 18.6635 3 18.4 3V5ZM21 5.6C21 5.33647 21.0008 5.07869 20.9831 4.86177C20.9644 4.63318 20.9203 4.36344 20.782 4.09202L19 5C18.9707 4.94249 18.9811 4.91972 18.9897 5.02463C18.9992 5.14122 19 5.30347 19 5.6H21ZM19 5L19 5L20.782 4.09202C20.5903 3.7157 20.2843 3.40973 19.908 3.21799L19 5ZM4 15H10V13H4V15ZM9 14V20H11V14H9ZM10 19H5.6V21H10V19ZM5 18.4V14H3V18.4H5ZM5.6 19C5.30347 19 5.14122 18.9992 5.02463 18.9897C4.91972 18.9811 4.94249 18.9707 5 19L4.09202 20.782C4.36344 20.9203 4.63318 20.9644 4.86177 20.9831C5.07869 21.0008 5.33647 21 5.6 21V19ZM3 18.4C3 18.6635 2.99922 18.9213 3.01695 19.1382C3.03562 19.3668 3.07969 19.6366 3.21799 19.908L5 19C5.0293 19.0575 5.01887 19.0803 5.0103 18.9754C5.00078 18.8588 5 18.6965 5 18.4H3ZM5 19L5 19L3.21799 19.908C3.40973 20.2843 3.7157 20.5903 4.09202 20.782L5 19ZM18.4142 18.4147C17.6332 19.1957 16.3668 19.1957 15.5858 18.4147L14.1716 19.8289C15.7337 21.391 18.2663 21.391 19.8284 19.8289L18.4142 18.4147ZM15.5858 18.4147C14.8047 17.6336 14.8047 16.3673 15.5858 15.5862L14.1716 14.172C12.6095 15.7341 12.6095 18.2668 14.1716 19.8289L15.5858 18.4147ZM15.5858 15.5862C16.3668 14.8052 17.6332 14.8052 18.4142 15.5862L19.8284 14.172C18.2663 12.6099 15.7337 12.6099 14.1716 14.172L15.5858 15.5862ZM18.4142 15.5862C19.1953 16.3673 19.1953 17.6336 18.4142 18.4147L19.8284 19.8289C21.3905 18.2668 21.3905 15.7341 19.8284 14.172L18.4142 15.5862ZM18.4142 19.8289L20.2929 21.7076L21.7071 20.2934L19.8284 18.4147L18.4142 19.8289Z" fill="black"/>
</svg>
